<svg width="30" height="30" viewBox="0 0 30 30" fill="none" xmlns="http://www.w3.org/2000/svg">
<g clip-path="url(#clip0_213_9261)">
<path d="M15 30C23.2843 30 30 23.2843 30 15C30 6.71573 23.2843 0 15 0C6.71573 0 0 6.71573 0 15C0 23.2843 6.71573 30 15 30Z" fill="#007AB9"/>
<path d="M23.9625 16.2069V22.391H20.377V16.6213C20.377 15.1726 19.8594 14.1833 18.5612 14.1833C17.5705 14.1833 16.982 14.8493 16.7221 15.4943C16.6277 15.7248 16.6034 16.0448 16.6034 16.3681V22.3908H13.0177C13.0177 22.3908 13.0658 12.6188 13.0177 11.6072H16.6036V13.1354C16.5964 13.1474 16.5863 13.1592 16.5798 13.1707H16.6036V13.1354C17.0801 12.4022 17.9299 11.354 19.835 11.354C22.1939 11.354 23.9625 12.8952 23.9625 16.2069ZM9.26674 6.40918C8.04023 6.40918 7.23779 7.21429 7.23779 8.27208C7.23779 9.30741 8.01696 10.1358 9.21968 10.1358H9.24294C10.4935 10.1358 11.2711 9.30741 11.2711 8.27208C11.2473 7.21429 10.4935 6.40918 9.26674 6.40918ZM7.4509 22.391H11.0353V11.6072H7.4509V22.391Z" fill="#F1F2F2"/>
</g>
<defs>
<clipPath id="clip0_213_9261">
<rect width="30" height="30" fill="white"/>
</clipPath>
</defs>
</svg>
