<svg width="30" height="30" viewBox="0 0 30 30" fill="none" xmlns="http://www.w3.org/2000/svg">
<g clip-path="url(#clip0_213_9255)">
<path d="M15 30C23.2843 30 30 23.2843 30 15C30 6.71573 23.2843 0 15 0C6.71573 0 0 6.71573 0 15C0 23.2843 6.71573 30 15 30Z" fill="#00A1F5"/>
<path d="M21.4454 8.55441C19.9539 7.0628 17.9913 6.13451 15.8921 5.92772C13.7929 5.72093 11.6869 6.24844 9.93301 7.42036C8.17913 8.59228 6.88588 10.3361 6.27361 12.3547C5.66135 14.3732 5.76796 16.5416 6.57529 18.4904C7.38261 20.4392 8.84069 22.0477 10.7011 23.0419C12.5614 24.0362 14.709 24.3545 16.7778 23.9428C18.8466 23.5311 20.7087 22.4148 22.0466 20.784C23.3846 19.1533 24.1158 17.1091 24.1155 14.9997C24.1185 13.8022 23.8841 12.616 23.4257 11.5097C22.9674 10.4034 22.2943 9.39895 21.4454 8.55441ZM21.3417 11.3282H19.2973C19.1179 10.463 18.845 9.61972 18.4834 8.8134C18.4284 8.69269 18.3715 8.57609 18.3129 8.46183C19.5773 9.10591 20.6292 10.1007 21.3428 11.3271L21.3417 11.3282ZM22.3313 14.9997C22.3316 15.6369 22.2486 16.2713 22.0846 16.887H19.5768C19.7042 15.632 19.7042 14.3674 19.5768 13.1124H22.0846C22.2486 13.7281 22.3316 14.3626 22.3313 14.9997ZM7.6688 14.9997C7.66854 14.3626 7.75147 13.7281 7.91548 13.1124H10.4233C10.2959 14.3674 10.2959 15.632 10.4233 16.887H7.91548C7.75147 16.2713 7.66854 15.6369 7.6688 14.9997ZM12.1131 14.9997C12.1127 14.3692 12.1475 13.7391 12.2174 13.1124H17.7838C17.9229 14.3668 17.9229 15.6327 17.7838 16.887H12.2174C12.1475 16.2604 12.1127 15.6303 12.1131 14.9997ZM15.0001 7.66847C15.6223 7.66847 16.3178 8.37453 16.8616 9.55754C17.1181 10.1272 17.3208 10.7196 17.4668 11.3271H12.5333C12.6793 10.7196 12.882 10.1272 13.1385 9.55754C13.6823 8.37453 14.3778 7.66847 15.0001 7.66847ZM11.6872 8.46125C11.6286 8.57492 11.57 8.69152 11.5167 8.81281C11.1551 9.61914 10.8822 10.4624 10.7028 11.3277H8.65728C9.37074 10.1008 10.4227 9.10564 11.6872 8.46125ZM8.65728 18.6724H10.7028C10.8823 19.5378 11.1552 20.3812 11.5167 21.1878C11.5717 21.3081 11.6286 21.4253 11.6872 21.5394C10.4226 20.8948 9.37065 19.8994 8.65728 18.6724ZM15.0001 22.331C14.3778 22.331 13.6823 21.6249 13.1385 20.4419C12.882 19.8723 12.6793 19.2798 12.5333 18.6724H17.4668C17.3208 19.2798 17.1181 19.8723 16.8616 20.4419C16.3178 21.6249 15.6223 22.331 15.0001 22.331ZM18.3129 21.5382C18.3715 21.4245 18.4301 21.3079 18.4834 21.1866C18.8449 20.3803 19.1178 19.5371 19.2973 18.6718H21.3428C20.6294 19.8986 19.5774 20.8938 18.3129 21.5382Z" fill="white"/>
</g>
<defs>
<clipPath id="clip0_213_9255">
<rect width="30" height="30" fill="white"/>
</clipPath>
</defs>
</svg>
