<svg width="21" height="21" viewBox="0 0 21 21" fill="none" xmlns="http://www.w3.org/2000/svg">
<path d="M0 3.15C0 1.41031 1.41031 0 3.15 0H17.85C19.5897 0 21 1.41031 21 3.15V17.85C21 19.5897 19.5897 21 17.85 21H3.15C1.41031 21 0 19.5897 0 17.85V3.15Z" fill="#D2D2D2"/>
<path d="M10.5 17C14.0899 17 17 14.0899 17 10.5C17 6.91015 14.0899 4 10.5 4C6.91015 4 4 6.91015 4 10.5C4 14.0899 6.91015 17 10.5 17Z" fill="#3D348B"/>
<path d="M13.1321 16.4451C12.9425 16.5292 12.731 16.4026 12.6986 16.1977C12.4636 14.7096 12.0986 13.3448 11.6015 12.049C10.3191 12.6708 8.88953 13.7424 6.95123 15.6255C6.83859 15.735 6.66335 15.75 6.53889 15.6542C6.34929 15.5083 6.16796 15.3521 5.99575 15.1865C5.86835 15.0641 5.8727 14.8612 5.99928 14.7379C8.02862 12.7609 9.60186 11.5621 11.0954 10.8501C10.8967 10.4193 10.6824 9.99459 10.4525 9.57384C8.70849 10.1235 6.73063 10.4245 4.331 10.4876C4.14932 10.4924 3.99922 10.3456 4.00846 10.164C4.02082 9.9214 4.04649 9.6822 4.08476 9.44729C4.10917 9.29747 4.23956 9.18986 4.39131 9.18544C6.52258 9.12329 8.26325 8.8654 9.77775 8.42044C9.1068 7.34388 8.32997 6.28009 7.44562 5.19106C7.31961 5.0359 7.35996 4.80396 7.53781 4.71276C7.75662 4.60054 7.98263 4.50036 8.21496 4.41311C8.3418 4.36547 8.48396 4.40722 8.56894 4.51275C9.50423 5.67424 10.3278 6.81881 11.0379 7.98805C12.3567 7.4668 13.5344 6.77401 14.702 5.9009C14.829 5.80596 15.0065 5.81339 15.1181 5.92601C15.2862 6.0957 15.445 6.27459 15.5936 6.46189C15.7024 6.59895 15.6731 6.79721 15.5333 6.90242C14.3232 7.81283 13.0824 8.55721 11.6889 9.12739C11.9081 9.53673 12.1137 9.95059 12.3058 10.3706C13.6949 9.9305 15.0634 9.86245 16.6726 9.85198C16.84 9.85088 16.9814 9.97776 16.9904 10.1449C16.9967 10.2625 16.9999 10.381 16.9999 10.5002C16.9999 10.6204 16.9967 10.7399 16.9902 10.8586C16.9812 11.025 16.841 11.1513 16.6744 11.1525C15.1408 11.1636 13.9695 11.2261 12.8119 11.5746C13.3167 12.8886 13.696 14.2744 13.9476 15.7793C13.969 15.907 13.9116 16.0354 13.8 16.1013C13.5851 16.2282 13.3621 16.3431 13.1321 16.4451Z" fill="white" fill-opacity="0.5"/>
</svg>
