<svg width="21" height="21" viewBox="0 0 21 21" fill="none" xmlns="http://www.w3.org/2000/svg">
<path d="M0 3.15C0 1.41031 1.41031 0 3.15 0H17.85C19.5897 0 21 1.41031 21 3.15V17.85C21 19.5897 19.5897 21 17.85 21H3.15C1.41031 21 0 19.5897 0 17.85V3.15Z" fill="#D2D2D2"/>
<rect x="4" y="4" width="13" height="13" rx="2" fill="#3D348B"/>
<path fill-rule="evenodd" clip-rule="evenodd" d="M7.25 4C5.45508 4 4 5.45508 4 7.25V13.75C4 15.5449 5.45508 17 7.25 17H13.75C15.5449 17 17 15.5449 17 13.75V7.25C17 5.45508 15.5449 4 13.75 4H7.25ZM10.5 12.45C11.577 12.45 12.45 11.577 12.45 10.5C12.45 9.42301 11.577 8.55 10.5 8.55C9.42301 8.55 8.55 9.42301 8.55 10.5C8.55 11.577 9.42301 12.45 10.5 12.45Z" fill="#3D348B"/>
<path d="M14.4 7.2502C14.759 7.2502 15.05 6.95918 15.05 6.6002C15.05 6.24121 14.759 5.9502 14.4 5.9502C14.041 5.9502 13.75 6.24121 13.75 6.6002C13.75 6.95918 14.041 7.2502 14.4 7.2502Z" fill="#D2D2D2"/>
<path fill-rule="evenodd" clip-rule="evenodd" d="M13.75 10.5C13.75 12.2949 12.2949 13.75 10.5 13.75C8.70508 13.75 7.25 12.2949 7.25 10.5C7.25 8.70508 8.70508 7.25 10.5 7.25C12.2949 7.25 13.75 8.70508 13.75 10.5ZM12.45 10.5C12.45 11.577 11.577 12.45 10.5 12.45C9.42301 12.45 8.55 11.577 8.55 10.5C8.55 9.42301 9.42301 8.55 10.5 8.55C11.577 8.55 12.45 9.42301 12.45 10.5Z" fill="#D2D2D2"/>
</svg>
