<svg width="21" height="21" viewBox="0 0 21 21" fill="none" xmlns="http://www.w3.org/2000/svg">
<path d="M0 3.15C0 1.41031 1.41031 0 3.15 0H17.85C19.5897 0 21 1.41031 21 3.15V17.85C21 19.5897 19.5897 21 17.85 21H3.15C1.41031 21 0 19.5897 0 17.85V3.15Z" fill="#D2D2D2"/>
<path d="M4 5.95C4 4.87305 4.87305 4 5.95 4H15.05C16.127 4 17 4.87305 17 5.95V15.05C17 16.127 16.127 17 15.05 17H5.95C4.87305 17 4 16.127 4 15.05V5.95Z" fill="#3D348B"/>
<path d="M11.8 7.2501C11.8 6.89112 11.509 6.6001 11.15 6.6001C10.791 6.6001 10.5 6.89112 10.5 7.2501V12.1251C10.5 12.6636 10.0635 13.1001 9.525 13.1001C8.98652 13.1001 8.55 12.6636 8.55 12.1251C8.55 11.6782 8.91535 11.2213 9.32928 11.1372C9.68113 11.0658 9.90843 10.7227 9.837 10.3709C9.76556 10.0191 9.42249 9.79179 9.0707 9.86323C8.01251 10.078 7.25 11.0999 7.25 12.1251C7.25 13.3815 8.26855 14.4001 9.525 14.4001C10.7807 14.4001 11.7988 13.3827 11.8 12.1272V12.1251V9.50228C12.1824 9.72348 12.6264 9.8501 13.1 9.8501C13.459 9.8501 13.75 9.55909 13.75 9.2001C13.75 8.84111 13.459 8.5501 13.1 8.5501C12.382 8.5501 11.8 7.96807 11.8 7.2501Z" fill="#D2D2D2"/>
</svg>
