<svg width="21" height="21" viewBox="0 0 21 21" fill="none" xmlns="http://www.w3.org/2000/svg">
<path d="M0 3.15C0 1.41031 1.41031 0 3.15 0H17.85C19.5897 0 21 1.41031 21 3.15V17.85C21 19.5897 19.5897 21 17.85 21H3.15C1.41031 21 0 19.5897 0 17.85V3.15Z" fill="#D2D2D2"/>
<rect x="4" y="4" width="13" height="13" rx="2" fill="#3D348B"/>
<path d="M13.1331 9.3624C13.2882 11.7999 11.5821 13.7499 9.41069 13.7499C8.66252 13.7499 7.91435 13.6449 7.32738 13.3503C7.19295 13.2829 7.2455 13.095 7.39422 13.0847C8.11701 13.0345 8.71514 12.8536 9.10049 12.4499C10.0311 11.4749 10.1862 11.1499 10.4234 9.85769C10.3702 9.70302 10.3413 9.53625 10.3413 9.3624C10.3413 8.55469 10.9663 7.8999 11.7372 7.8999C12.2081 7.8999 12.6246 8.14424 12.8774 8.51853L13.4101 8.4388C13.5428 8.41894 13.6354 8.57294 13.561 8.68981L13.1331 9.3624Z" fill="#D2D2D2"/>
<path d="M9.10059 12.45C7.42044 11.8632 7.13062 9.68731 7.43243 8.55231C7.46787 8.41904 7.63325 8.41835 7.69991 8.53777C8.2153 9.46118 9.19526 9.97673 10.4235 9.85776C12.3577 9.85776 11.8924 13.425 9.10059 12.45Z" fill="#D2D2D2"/>
</svg>
