<svg width="21" height="21" viewBox="0 0 21 21" fill="none" xmlns="http://www.w3.org/2000/svg">
<rect width="21" height="21" rx="4" fill="#6B705C"/>
<path d="M14.25 8.625C14.25 10.6962 10.5 15.5 10.5 15.5C10.5 15.5 6.75 10.6962 6.75 8.625C6.75 6.55375 8.42875 4.875 10.5 4.875C12.5712 4.875 14.25 6.55375 14.25 8.625Z" fill="white"/>
<path d="M10.5 10.1875C9.63688 10.1875 8.9375 9.48813 8.9375 8.625C8.9375 7.76188 9.63688 7.0625 10.5 7.0625C11.3631 7.0625 12.0625 7.76188 12.0625 8.625C12.0625 9.48813 11.3631 10.1875 10.5 10.1875Z" fill="#6B705C"/>
<path d="M10.5 4.25635C8.09002 4.25635 6.12939 6.21697 6.12939 8.62697C6.12939 11.4288 9.8594 15.9813 10.0181 16.1732L10.5 16.7576L10.9819 16.1732C11.1406 15.9807 14.8706 11.4288 14.8706 8.62697C14.8706 6.21635 12.91 4.25635 10.5 4.25635ZM10.5 14.767C9.32627 13.2276 7.37939 10.3201 7.37939 8.62697C7.37939 6.90635 8.77939 5.50635 10.5 5.50635C12.2206 5.50635 13.6206 6.90635 13.6206 8.62697C13.6206 10.3176 11.6738 13.2263 10.5 14.767Z" fill="white"/>
</svg>
