<svg width="20" height="21" viewBox="0 0 20 21" fill="none" xmlns="http://www.w3.org/2000/svg">
<path fill-rule="evenodd" clip-rule="evenodd" d="M4 1.5C4 0.947715 4.44772 0.5 5 0.5C5.55228 0.5 6 0.947715 6 1.5V2.5H14V1.5C14 0.947715 14.4477 0.5 15 0.5C15.5523 0.5 16 0.947715 16 1.5V2.5H17C18.6569 2.5 20 3.84315 20 5.5V17.5C20 19.1569 18.6569 20.5 17 20.5H3C1.34315 20.5 0 19.1569 0 17.5V5.5C0 3.84315 1.34315 2.5 3 2.5H4V1.5Z" fill="white"/>
<path fill-rule="evenodd" clip-rule="evenodd" d="M8 10.5C7.44772 10.5 7 10.9477 7 11.5C7 12.0523 7.44772 12.5 8 12.5H15C15.5523 12.5 16 12.0523 16 11.5C16 10.9477 15.5523 10.5 15 10.5H8ZM5 14.5C4.44772 14.5 4 14.9477 4 15.5C4 16.0523 4.44772 16.5 5 16.5H11C11.5523 16.5 12 16.0523 12 15.5C12 14.9477 11.5523 14.5 11 14.5H5Z" fill="#000"/>
</svg>
