<svg width="21" height="21" viewBox="0 0 21 21" fill="none" xmlns="http://www.w3.org/2000/svg">
<path d="M0 3.15C0 1.41031 1.41031 0 3.15 0H17.85C19.5897 0 21 1.41031 21 3.15V17.85C21 19.5897 19.5897 21 17.85 21H3.15C1.41031 21 0 19.5897 0 17.85V3.15Z" fill="#D2D2D2"/>
<rect x="4" y="4" width="13" height="13" rx="2" fill="#455E89"/>
<path d="M12.125 5.625H10.5V8.875H8.875C7.97754 8.875 7.25 9.60254 7.25 10.5C7.25 11.3974 7.97754 12.125 8.875 12.125H10.5V8.875H12.125C13.0224 8.875 13.75 8.14746 13.75 7.25C13.75 6.35254 13.0224 5.625 12.125 5.625Z" fill="#D2D2D2"/>
<path opacity="0.25" d="M7.25 7.25C7.25 6.35254 7.97754 5.625 8.875 5.625H10.5V8.875H8.875C7.97754 8.875 7.25 8.14746 7.25 7.25Z" fill="#D2D2D2"/>
<path opacity="0.25" d="M10.5 10.5C10.5 9.60254 11.2276 8.875 12.125 8.875C13.0224 8.875 13.75 9.60254 13.75 10.5C13.75 11.3974 13.0224 12.125 12.125 12.125C11.2276 12.125 10.5 11.3974 10.5 10.5Z" fill="#D2D2D2"/>
<path opacity="0.25" d="M8.875 12.125C7.97754 12.125 7.25 12.8526 7.25 13.75C7.25 14.6474 7.97754 15.375 8.875 15.375C9.77245 15.375 10.5 14.6474 10.5 13.75V12.125H8.875Z" fill="#D2D2D2"/>
</svg>
