<svg width="21" height="21" viewBox="0 0 21 21" fill="none" xmlns="http://www.w3.org/2000/svg">
<path d="M0 3.15C0 1.41031 1.41031 0 3.15 0H17.85C19.5897 0 21 1.41031 21 3.15V17.85C21 19.5897 19.5897 21 17.85 21H3.15C1.41031 21 0 19.5897 0 17.85V3.15Z" fill="#D2D2D2"/>
<path d="M16.1393 13.959L15.1075 14.9908C15.1075 14.9908 12.4264 16.1398 8.59624 12.3097C4.76608 8.47949 5.91512 5.79838 5.91512 5.79838L6.94697 4.76654C7.41313 4.30037 8.18411 4.35517 8.57966 4.88258L9.56459 6.19577C9.88802 6.62707 9.84517 7.23059 9.46395 7.61181L8.59624 8.47949C8.59624 8.47949 8.59624 9.24553 10.1283 10.7776C11.6604 12.3097 12.4264 12.3096 12.4264 12.3096L13.2941 11.442C13.6753 11.0608 14.2788 11.0179 14.7102 11.3413L16.0233 12.3263C16.5507 12.7218 16.6055 13.4927 16.1393 13.959Z" fill="#455E89"/>
<path d="M6.94696 4.76655L6.68115 5.03235L8.97925 8.09648L9.46394 7.61181C9.84511 7.23059 9.88801 6.62707 9.56453 6.19578L8.57966 4.88258C8.1841 4.35517 7.41313 4.30038 6.94696 4.76655Z" fill="#455E89"/>
<path d="M16.1393 13.9583L15.8735 14.2241L12.8094 11.926L13.2941 11.4413C13.6753 11.0601 14.2788 11.0173 14.7102 11.3407L16.0233 12.3256C16.5507 12.7212 16.6056 13.4921 16.1393 13.9583Z" fill="#455E89"/>
</svg>
