<svg width="38" height="32" viewBox="0 0 38 32" fill="none" xmlns="http://www.w3.org/2000/svg">
<path opacity="0.4" d="M6.25 31.25H31.25C35.4167 31.25 37.5 29.1667 37.5 25V6.25C37.5 2.08333 35.4167 0 31.25 0H6.25C2.08333 0 0 2.08333 0 6.25V25C0 29.1667 2.08333 31.25 6.25 31.25Z" fill="#242424"/>
<path d="M18.7501 17.7372C18.0001 17.7372 17.2458 17.5039 16.6062 17.0393L6.37315 9.59555C5.67523 9.0893 5.52098 8.11013 6.02932 7.41221C6.53557 6.71638 7.50817 6.55806 8.21234 7.06848L18.4459 14.5101C18.6292 14.6414 18.8729 14.6435 19.0563 14.5101L29.2898 7.06848C29.9919 6.55806 30.9666 6.71638 31.4728 7.41221C31.9812 8.11013 31.8269 9.08722 31.129 9.59555L20.896 17.0372C20.2543 17.506 19.5001 17.7372 18.7501 17.7372Z" fill="#242424"/>
</svg>
