<svg width="30" height="31" viewBox="0 0 30 31" fill="none" xmlns="http://www.w3.org/2000/svg">
<g clip-path="url(#clip0_37_2636)">
<mask id="mask0_37_2636" style="mask-type:luminance" maskUnits="userSpaceOnUse" x="0" y="0" width="30" height="31">
<path d="M30 0.5H0V30.5H30V0.5Z" fill="white"/>
</mask>
<g mask="url(#mask0_37_2636)">
<path d="M15.4537 19.1838C15.4537 16.8738 14.355 15.1663 12.085 14.5263C13.7413 13.7375 14.605 12.5425 14.605 10.6838C14.605 7.01875 11.865 6.125 8.70375 6.125H0V24.5263H8.9475C12.3025 24.5263 15.4537 22.9225 15.4537 19.1838ZM4.0575 9.26625H7.865C9.32875 9.26625 10.6463 9.67625 10.6463 11.3688C10.6463 12.9313 9.62125 13.56 8.17125 13.56H4.0575V9.26625ZM4.05625 21.4013V16.3338H8.47875C10.265 16.3338 11.395 17.0763 11.395 18.9613C11.395 20.82 10.0463 21.4013 8.395 21.4013H4.05625Z" fill="white"/>
<path d="M23.4943 24.8746C26.6868 24.8746 28.7543 23.4409 29.7493 20.3934H26.5093C26.1606 21.5309 24.7231 22.1321 23.6081 22.1321C21.4568 22.1321 20.3268 20.8759 20.3268 18.7409H29.9681C30.2731 14.4684 27.8931 10.8271 23.4931 10.8271C19.4193 10.8271 16.6543 13.8796 16.6543 17.8784C16.6543 22.0284 19.2743 24.8746 23.4943 24.8746ZM23.3793 13.5921C25.2231 13.5921 26.1506 14.6721 26.3056 16.4384H20.3318C20.4531 14.6871 21.6193 13.5921 23.3793 13.5921Z" fill="white"/>
<path d="M19.584 7.09082H27.069V8.90332H19.584V7.09082Z" fill="white"/>
</g>
</g>
<defs>
<clipPath id="clip0_37_2636">
<rect width="30" height="30" fill="white" transform="translate(0 0.5)"/>
</clipPath>
</defs>
</svg>
