<svg width="30" height="30" viewBox="0 0 30 30" fill="none" xmlns="http://www.w3.org/2000/svg">
<path d="M26.97 7.56C26.07 7.95 25.14 8.22 24.15 8.34C25.17 7.74 25.95 6.78 26.31 5.61C25.35 6.18 24.3 6.57 23.19 6.81C22.29 5.85 21 5.25 19.59 5.25C16.86 5.25 14.67 7.47 14.67 10.17C14.67 10.56 14.7 10.92 14.79 11.28C10.71 11.1 7.10997 9.12 4.67997 6.15C2.93997 9.27 4.88997 11.85 6.17997 12.72C5.39997 12.72 4.61997 12.48 3.95997 12.12C3.95997 14.55 5.66997 16.56 7.88997 17.01C7.40997 17.16 6.32997 17.25 5.66997 17.1C6.29997 19.05 8.12997 20.49 10.26 20.52C8.57997 21.84 6.11997 22.89 2.96997 22.56C5.15997 23.97 7.73997 24.78 10.53 24.78C19.59 24.78 24.51 17.28 24.51 10.8C24.51 10.59 24.51 10.38 24.48 10.17C25.5 9.42 26.34 8.55 26.97 7.56Z" fill="white" fill-opacity="0.4"/>
</svg>
