<svg width="30" height="30" viewBox="0 0 30 30" fill="none" xmlns="http://www.w3.org/2000/svg">
<path d="M28.4683 7.96999C28.1442 6.7651 27.1942 5.8153 25.9895 5.49086C23.7887 4.88867 14.985 4.88867 14.985 4.88867C14.985 4.88867 6.1817 4.88867 3.98083 5.46803C2.79928 5.79213 1.82613 6.76527 1.50204 7.96999C0.922852 10.1707 0.922852 14.7347 0.922852 14.7347C0.922852 14.7347 0.922852 19.3216 1.50204 21.4993C1.82648 22.704 2.77611 23.6538 3.981 23.9783C6.20487 24.5806 14.9854 24.5806 14.9854 24.5806C14.9854 24.5806 23.7887 24.5806 25.9895 24.0013C27.1944 23.677 28.1442 22.7272 28.4687 21.5225C29.0477 19.3216 29.0477 14.7578 29.0477 14.7578C29.0477 14.7578 29.0709 10.1707 28.4683 7.96999ZM12.1821 18.951V10.5183L19.5028 14.7347L12.1821 18.951Z" fill="white" fill-opacity="0.4"/>
<path d="M20.0065 14.5127L11.7509 19.2661L11.7621 9.73986L20.0065 14.5127Z" fill="white"/>
</svg>
