<svg width="20" height="20" viewBox="0 0 20 20" fill="none" xmlns="http://www.w3.org/2000/svg">
<path d="M10.0013 9.58268C8.85047 9.58268 7.91797 8.65018 7.91797 7.49935C7.91797 6.34852 8.85047 5.41602 10.0013 5.41602C11.1521 5.41602 12.0846 6.34852 12.0846 7.49935C12.0846 8.65018 11.1521 9.58268 10.0013 9.58268Z" fill="black"/>
<path d="M9.99939 1.67578C6.78604 1.67578 4.17188 4.28995 4.17188 7.50328C4.17188 11.2391 9.14522 17.3091 9.35689 17.5649L9.99939 18.3441L10.6419 17.5649C10.8536 17.3083 15.8269 11.2391 15.8269 7.50328C15.8269 4.28911 13.2127 1.67578 9.99939 1.67578ZM9.99939 15.6899C8.43439 13.6374 5.83854 9.76077 5.83854 7.50328C5.83854 5.20911 7.70521 3.34245 9.99939 3.34245C12.2936 3.34245 14.1602 5.20911 14.1602 7.50328C14.1602 9.75744 11.5644 13.6358 9.99939 15.6899Z" fill="black"/>
</svg>
