<svg width="20" height="20" viewBox="0 0 20 20" fill="none" xmlns="http://www.w3.org/2000/svg">
<g clip-path="url(#clip0_403_4366)">
<path d="M16.1924 1.23113C14.5997 0.988778 12.4171 0.750335 10 0.750335C7.58287 0.750335 5.40035 0.988778 3.80759 1.23113C2.41625 1.44283 1.34652 2.45067 1.11457 3.79722C0.918017 4.93834 0.75 6.38653 0.75 8.00034C0.75 9.61416 0.918018 11.0623 1.11457 12.2034C1.31418 13.3622 2.13106 14.2649 3.23668 14.6326L3.75 14.8033V15.3443V18.7479C3.75 18.9414 3.96049 19.0616 4.12719 18.9631L10.2426 15.3495L10.4134 15.2486L10.6118 15.2453C12.7847 15.2097 14.7356 14.9912 16.1924 14.7695C17.5838 14.5578 18.6535 13.5499 18.8854 12.2034C19.082 11.0623 19.25 9.61416 19.25 8.00034C19.25 6.38652 19.082 4.93828 18.8854 3.79719C18.6535 2.45068 17.5838 1.44284 16.1924 1.23113ZM16.1924 1.23113L16.3051 0.490234" stroke="black" stroke-width="1.5"/>
<path d="M4.5 6C4.5 5.72386 4.72386 5.5 5 5.5H15C15.2762 5.5 15.5 5.72386 15.5 6C15.5 6.27614 15.2762 6.5 15 6.5H5C4.72386 6.5 4.5 6.27614 4.5 6ZM4.5 10C4.5 9.72386 4.72386 9.5 5 9.5H9C9.27614 9.5 9.5 9.72386 9.5 10C9.5 10.2762 9.27614 10.5 9 10.5H5C4.72386 10.5 4.5 10.2762 4.5 10Z" fill="black" stroke="black"/>
</g>
<defs>
<clipPath id="clip0_403_4366">
<rect width="20" height="20" fill="white"/>
</clipPath>
</defs>
</svg>
