<svg width="30" height="30" viewBox="0 0 30 30" fill="none" xmlns="http://www.w3.org/2000/svg">
<g clip-path="url(#clip0_212_9017)">
<path d="M15.4537 18.6838C15.4537 16.3738 14.355 14.6663 12.085 14.0263C13.7413 13.2375 14.605 12.0425 14.605 10.1838C14.605 6.51875 11.865 5.625 8.70375 5.625H0V24.0263H8.9475C12.3025 24.0263 15.4537 22.4225 15.4537 18.6838ZM4.0575 8.76625H7.865C9.32875 8.76625 10.6463 9.17625 10.6463 10.8688C10.6463 12.4313 9.62125 13.06 8.17125 13.06H4.0575V8.76625ZM4.05625 20.9013V15.8338H8.47875C10.265 15.8338 11.395 16.5763 11.395 18.4613C11.395 20.32 10.0463 20.9013 8.395 20.9013H4.05625Z" fill="white" fill-opacity="0.4"/>
<path d="M23.495 24.3746C26.6875 24.3746 28.755 22.9409 29.75 19.8934H26.51C26.1613 21.0309 24.7238 21.6321 23.6088 21.6321C21.4575 21.6321 20.3275 20.3759 20.3275 18.2409H29.9688C30.2738 13.9684 27.8938 10.3271 23.4938 10.3271C19.42 10.3271 16.655 13.3796 16.655 17.3784C16.655 21.5284 19.275 24.3746 23.495 24.3746ZM23.38 13.0921C25.2238 13.0921 26.1513 14.1721 26.3063 15.9384H20.3325C20.4538 14.1871 21.62 13.0921 23.38 13.0921Z" fill="white" fill-opacity="0.4"/>
<path d="M19.5837 6.59082H27.0687V8.40332H19.5837V6.59082Z" fill="white"/>
</g>
<defs>
<clipPath id="clip0_212_9017">
<rect width="30" height="30" fill="white"/>
</clipPath>
</defs>
</svg>
