<svg width="30" height="30" viewBox="0 0 30 30" fill="none" xmlns="http://www.w3.org/2000/svg">
<path fill-rule="evenodd" clip-rule="evenodd" d="M6.875 14.9998C6.875 13.0439 8.46061 11.4583 10.4167 11.4583H13.9584V18.5415H10.4167C8.46065 18.5415 6.875 16.9558 6.875 14.9998ZM10.4167 10.2083H13.9584V3.125H10.4167C8.46066 3.125 6.875 4.71066 6.875 6.66666C6.875 8.62268 8.46065 10.2083 10.4167 10.2083ZM22.2916 6.66666C22.2916 8.62268 20.706 10.2083 18.75 10.2083H15.2084V3.125H18.75C20.706 3.125 22.2916 4.71066 22.2916 6.66666ZM15.2084 14.9998C15.2084 13.0439 16.794 11.4583 18.75 11.4583C20.706 11.4583 22.2916 13.0439 22.2916 14.9998C22.2916 16.9558 20.706 18.5415 18.75 18.5415C16.794 18.5415 15.2084 16.9558 15.2084 14.9998ZM10.4167 19.7915H13.9584V23.3335C13.9584 25.2895 12.3727 26.8753 10.4167 26.8753C8.46066 26.8753 6.875 25.2895 6.875 23.3335C6.875 21.3775 8.46074 19.7915 10.4167 19.7915Z" fill="white" fill-opacity="0.4"/>
</svg>
