<svg width="30" height="30" viewBox="0 0 30 30" fill="none" xmlns="http://www.w3.org/2000/svg">
<g clip-path="url(#clip0_213_9213)">
<path d="M15 30C23.2843 30 30 23.2843 30 15C30 6.71573 23.2843 0 15 0C6.71573 0 0 6.71573 0 15C0 23.2843 6.71573 30 15 30Z" fill="#EA4C88"/>
<path d="M15 24.375C16.8542 24.375 18.6668 23.8252 20.2085 22.795C21.7502 21.7649 22.9518 20.3007 23.6614 18.5877C24.3709 16.8746 24.5566 14.9896 24.1949 13.171C23.8331 11.3525 22.9402 9.682 21.6291 8.37088C20.318 7.05976 18.6475 6.16688 16.829 5.80514C15.0104 5.44341 13.1254 5.62906 11.4123 6.33863C9.69928 7.04821 8.23511 8.24982 7.20497 9.79153C6.17483 11.3332 5.625 13.1458 5.625 15C5.6304 17.4847 6.61986 19.8662 8.37684 21.6232C10.1338 23.3801 12.5153 24.3696 15 24.375ZM15 22.6705C13.4462 22.6718 11.9295 22.1957 10.6551 21.3068C12.0472 19.3211 14.019 17.8143 16.3006 16.9926C16.8427 18.7061 17.1859 20.4763 17.3233 22.2682C16.5742 22.5212 15.7905 22.6569 15 22.6705ZM18.9545 21.5386C18.7881 19.8402 18.4483 18.1633 17.9403 16.5341C19.4488 16.2333 21.0018 16.2333 22.5102 16.5341C22.2924 17.568 21.8638 18.5458 21.2512 19.4066C20.6385 20.2674 19.8549 20.9926 18.9494 21.5369L18.9545 21.5386ZM22.6517 14.8296C20.9026 14.5064 19.1069 14.5319 17.3676 14.9046C17.1511 14.3489 16.9193 13.7983 16.6602 13.258C18.1766 12.3476 19.4998 11.1489 20.5551 9.72955C21.862 11.1109 22.6092 12.9284 22.6517 14.8296ZM15 7.32955C16.5102 7.32748 17.9871 7.77293 19.2443 8.60966C18.3374 9.86382 17.193 10.9277 15.8761 11.7409C15.0558 10.2764 14.0889 8.89884 12.9903 7.62955C13.6439 7.44075 14.3198 7.33987 15 7.32955ZM11.3318 8.30455C12.492 9.59173 13.5056 11.0038 14.354 12.5148C12.2091 13.4339 9.83952 13.695 7.54602 13.2648C7.79335 12.2185 8.2583 11.2361 8.91058 10.3814C9.56287 9.52679 10.3879 8.81914 11.3318 8.30455ZM9.71591 15.2028C11.5863 15.1971 13.4349 14.8006 15.1432 14.0386C15.358 14.4869 15.5489 14.9284 15.733 15.4023C13.18 16.3141 10.9633 17.9782 9.375 20.175C8.06441 18.77 7.3337 16.9214 7.32955 15C8.11945 15.1219 8.91676 15.1897 9.71591 15.2028Z" fill="white"/>
</g>
<defs>
<clipPath id="clip0_213_9213">
<rect width="30" height="30" fill="white"/>
</clipPath>
</defs>
</svg>
