<svg width="24" height="24" viewBox="0 0 24 24" fill="none" xmlns="http://www.w3.org/2000/svg">
<circle opacity="0.25" cx="12" cy="12" r="10" fill="#12131A"/>
<path d="M16.0495 21.146C15.7577 21.2754 15.4323 21.0807 15.3825 20.7654C15.0209 18.476 14.4595 16.3764 13.6947 14.3829C11.7217 15.3395 9.5224 16.988 6.54041 19.8852C6.36711 20.0536 6.09752 20.0767 5.90604 19.9293C5.61434 19.7048 5.33538 19.4645 5.07043 19.2098C4.87444 19.0214 4.88113 18.7093 5.07586 18.5196C8.19793 15.478 10.6183 13.6338 12.916 12.5383C12.6104 11.8756 12.2807 11.2222 11.927 10.5749C9.24388 11.4206 6.20102 11.8836 2.50929 11.9807C2.22977 11.988 1.99885 11.7622 2.01307 11.4829C2.03209 11.1096 2.07158 10.7416 2.13045 10.3802C2.168 10.1497 2.36861 9.98416 2.60206 9.97735C5.88095 9.88174 8.5589 9.48498 10.8889 8.80043C9.85666 7.14419 8.66154 5.50759 7.301 3.83216C7.10715 3.59345 7.16922 3.23662 7.44284 3.0963C7.77947 2.92366 8.12718 2.76954 8.4846 2.63531C8.67974 2.56202 8.89845 2.62624 9.02919 2.7886C10.4681 4.5755 11.7351 6.33638 12.8276 8.13522C14.8565 7.33329 16.6684 6.26746 18.4647 4.92422C18.66 4.77816 18.9332 4.78958 19.1048 4.96285C19.3634 5.22391 19.6077 5.49913 19.8364 5.78727C20.0038 5.99814 19.9587 6.30315 19.7436 6.46502C17.8819 7.86565 15.9729 9.01084 13.8292 9.88805C14.1663 10.5178 14.4827 11.1545 14.7782 11.8007C16.9153 11.1236 19.0207 11.0189 21.4963 11.0028C21.7539 11.0011 21.9714 11.1963 21.9853 11.4535C21.995 11.6344 21.9999 11.8166 21.9999 12C21.9999 12.185 21.9949 12.3689 21.985 12.5514C21.9711 12.8074 21.7554 13.0017 21.4991 13.0036C19.1397 13.0207 17.3377 13.1168 15.5568 13.653C16.3335 15.6746 16.9169 17.8065 17.3041 20.1217C17.3369 20.3182 17.2486 20.5158 17.077 20.6171C16.7463 20.8124 16.4033 20.9892 16.0495 21.146Z" fill="#12131A"/>
</svg>
