<svg width="20" height="20" viewBox="0 0 20 20" fill="none" xmlns="http://www.w3.org/2000/svg">
<g clip-path="url(#clip0_5:3592)">
<path d="M18.6759 15.3218L17.0885 16.9092C17.0885 16.9092 12.9637 18.6769 7.07114 12.7844C1.17858 6.89183 2.94635 2.76704 2.94635 2.76704L4.5338 1.1796C5.25097 0.462416 6.43709 0.546712 7.04564 1.35811L8.5609 3.37841C9.05849 4.04195 8.99257 4.97044 8.40607 5.55693L7.07114 6.89183C7.07114 6.89183 7.07114 8.07035 9.42815 10.4273C11.7852 12.7844 12.9637 12.7843 12.9637 12.7843L14.2986 11.4495C14.8851 10.863 15.8136 10.797 16.4772 11.2947L18.4974 12.8099C19.3088 13.4184 19.3931 14.6045 18.6759 15.3218Z" stroke="#1A759F" stroke-width="1.5"/>
</g>
<defs>
<clipPath id="clip0_5:3592">
<rect width="20" height="20" fill="white"/>
</clipPath>
</defs>
</svg>
