<svg width="20" height="20" viewBox="0 0 20 20" fill="none" xmlns="http://www.w3.org/2000/svg">
<path d="M1.80537 6.66275C1.90382 5.39987 2.89972 4.41189 4.16401 4.3336C5.51625 4.24986 7.44683 4.16699 9.79175 4.16699C12.1367 4.16699 14.0673 4.24986 15.4195 4.3336C16.6838 4.41189 17.6797 5.39987 17.7781 6.66275C17.8514 7.60274 17.9167 8.6912 17.9167 9.58366C17.9167 10.4761 17.8514 11.5646 17.7781 12.5046C17.6797 13.7674 16.6838 14.7554 15.4195 14.8337C14.0673 14.9175 12.1367 15.0003 9.79175 15.0003C7.44683 15.0003 5.51625 14.9175 4.16401 14.8337C2.89972 14.7554 1.90382 13.7674 1.80537 12.5046C1.7321 11.5646 1.66675 10.4761 1.66675 9.58366C1.66675 8.6912 1.7321 7.60274 1.80537 6.66275Z" stroke="#1A759F" stroke-width="1.5"/>
<path d="M9.4375 10.4241V8.74448L10.6973 9.5843L9.4375 10.4241Z" fill="#1A759F" stroke="#1A759F" stroke-width="2"/>
</svg>
