<svg width="20" height="20" viewBox="0 0 20 20" fill="none" xmlns="http://www.w3.org/2000/svg">
<path d="M19.25 10C19.25 15.1086 15.1086 19.25 10 19.25C4.89137 19.25 0.75 15.1086 0.75 10C0.75 4.89137 4.89137 0.75 10 0.75C15.1086 0.75 19.25 4.89137 19.25 10Z" stroke="#52B69A" stroke-width="1.5"/>
<path d="M6.99361 18.678C6.76905 18.5947 6.65219 18.3504 6.71627 18.1192L9.377 8.51569C9.51766 8.00786 10.0423 7.71059 10.5488 7.85165C11.0552 7.99269 11.3516 8.51864 11.211 9.02638L10.2095 12.6413C11.4001 12.8943 12.2351 12.6779 12.7942 12.3074C13.5013 11.8388 13.9555 10.9999 14.0693 10.0036C14.1831 9.00643 13.9396 7.96015 13.3832 7.18515C12.8472 6.43852 12.0005 5.90841 10.7699 5.90841C8.94168 5.90841 7.85346 6.7016 7.3226 7.67737C6.77001 8.69307 6.75224 10.0317 7.33832 11.2069C7.57338 11.6783 7.38282 12.2514 6.91269 12.4871C6.44255 12.7228 5.87088 12.5317 5.63581 12.0604C4.79432 10.373 4.77655 8.37189 5.65157 6.76352C6.54831 5.11523 8.31531 4 10.7699 4C12.6324 4 14.046 4.84156 14.9281 6.07026C15.7898 7.27062 16.1223 8.80328 15.9604 10.2207C15.7984 11.639 15.1252 13.0504 13.8438 13.8995C12.7503 14.6241 11.342 14.8559 9.69944 14.4821L8.5429 18.6566C8.47619 18.8973 8.23538 19.0469 7.99361 18.9867C7.65266 18.9018 7.31894 18.7986 6.99361 18.678Z" fill="#52B69A"/>
</svg>
