<?xml version="1.0" standalone="no"?>
<!DOCTYPE svg PUBLIC "-//W3C//DTD SVG 20010904//EN"
 "http://www.w3.org/TR/2001/REC-SVG-20010904/DTD/svg10.dtd">
<svg version="1.0" xmlns="http://www.w3.org/2000/svg"
 width="512.000000pt" height="512.000000pt" viewBox="0 0 512.000000 512.000000"
 preserveAspectRatio="xMidYMid meet">

<g transform="translate(0.000000,512.000000) scale(0.100000,-0.100000)"
fill="#000000" stroke="none">
<path d="M3251 4833 c-44 -18 -1090 -628 -1111 -649 l-25 -24 0 -655 0 -655
25 -24 c14 -13 268 -164 565 -336 494 -285 543 -311 580 -308 31 2 159 72 575
312 294 169 545 319 558 333 l22 24 0 654 0 654 -22 25 c-25 27 -364 226 -387
226 -7 0 -271 -149 -587 -331 l-574 -332 0 -218 c0 -120 -4 -229 -9 -242 -19
-49 -43 -44 -189 40 l-137 79 0 269 0 269 115 66 c592 341 1026 593 1032 598
7 7 -301 190 -365 217 -39 16 -44 17 -66 8z" fill="white" />
<path d="M1715 2247 c-38 -13 -92 -35 -120 -49 -60 -31 -657 -377 -667 -386
-6 -6 434 -797 455 -818 3 -4 22 3 42 15 20 11 50 21 66 21 17 0 306 -74 642
-164 337 -90 636 -169 665 -175 104 -22 205 -9 318 40 80 35 1756 1068 1791
1104 96 100 56 282 -73 331 -82 31 -228 3 -383 -75 -35 -18 -279 -158 -543
-312 -537 -313 -550 -320 -633 -345 -73 -22 -250 -23 -370 -1 -140 25 -699
177 -717 195 -46 47 -12 132 52 132 16 0 116 -25 222 -55 407 -115 495 -127
567 -76 67 48 89 148 50 229 -31 62 -76 87 -209 117 -153 34 -304 79 -550 166
-312 109 -356 121 -450 125 -70 4 -98 0 -155 -19z" fill="white"  opacity="0.25"/>
<path d="M510 2000 c-14 -4 -88 -43 -165 -87 -161 -92 -190 -122 -182 -189 6
-58 756 -1385 800 -1416 57 -41 97 -31 263 63 160 90 194 123 194 186 0 19 -9
51 -19 72 -57 112 -746 1319 -764 1339 -11 12 -37 26 -56 32 -40 11 -37 11
-71 0z m55 -285 c50 -49 24 -133 -46 -150 -62 -15 -123 57 -100 118 22 58 103
76 146 32z"  fill="white"/>
</g>
</svg>
