<svg width="45" height="45" viewBox="0 0 45 45" fill="none" xmlns="http://www.w3.org/2000/svg">
<path opacity="0.4" d="M37.2376 24.5509H7.76834C6.74981 24.5509 5.92651 23.7258 5.92651 22.7091C5.92651 21.6924 6.74981 20.8672 7.76834 20.8672H37.2376C38.2561 20.8672 39.0794 21.6924 39.0794 22.7091C39.0794 23.7258 38.2561 24.5509 37.2376 24.5509Z" fill="#F9D254"/>
<path d="M15.1357 31.9183C14.6642 31.9183 14.1926 31.7378 13.8335 31.3787L6.46614 24.0114C5.74599 23.2912 5.74599 22.1271 6.46614 21.4069L13.8335 14.0396C14.5536 13.3194 15.7178 13.3194 16.4379 14.0396C17.1581 14.7598 17.1581 15.9239 16.4379 16.6441L10.3728 22.7091L16.4379 28.7742C17.1581 29.4944 17.1581 30.6585 16.4379 31.3787C16.0788 31.7378 15.6072 31.9183 15.1357 31.9183Z" fill="#F9D254"/>
</svg>
