<svg width="21" height="22" viewBox="0 0 21 22" fill="none" xmlns="http://www.w3.org/2000/svg">
<path opacity="0.4" d="M10.5 19.5731C15.1833 19.5731 18.9799 15.7765 18.9799 11.0932C18.9799 6.40986 15.1833 2.61328 10.5 2.61328C5.81672 2.61328 2.02014 6.40986 2.02014 11.0932C2.02014 15.7765 5.81672 19.5731 10.5 19.5731Z" fill="white"/>
<path d="M14.4787 10.8497C14.4464 10.7717 14.3999 10.7014 14.3414 10.6429L11.7974 8.09894C11.549 7.85048 11.1462 7.85048 10.8977 8.09894C10.6492 8.3474 10.6492 8.75023 10.8977 8.99869L12.3562 10.4572H7.10804C6.75697 10.4572 6.47205 10.7421 6.47205 11.0932C6.47205 11.4443 6.75697 11.7292 7.10804 11.7292H12.3562L10.8977 13.1877C10.6492 13.4362 10.6492 13.839 10.8977 14.0875C11.0215 14.2113 11.1843 14.274 11.3472 14.274C11.51 14.274 11.6728 14.2121 11.7966 14.0875L14.3406 11.5435C14.3991 11.485 14.4456 11.4147 14.4778 11.3367C14.5431 11.1806 14.5431 11.0058 14.4787 10.8497Z" fill="white"/>
</svg>
