<svg width="70" height="71" viewBox="0 0 70 71" fill="none" xmlns="http://www.w3.org/2000/svg">
<path d="M61.25 63.762H46.6666C45.4591 63.762 44.4791 62.782 44.4791 61.5745C44.4791 60.367 45.4591 59.387 46.6666 59.387H61.25C62.4575 59.387 63.4375 60.367 63.4375 61.5745C63.4375 62.782 62.4575 63.762 61.25 63.762Z" fill="#F9D254"/>
<path d="M47.9618 45.6964L33.3669 60.2913C31.646 62.0121 28.8752 62.0121 27.1836 60.2913L15.7793 48.8872L21.9628 42.7039C22.8086 41.858 22.8086 40.4579 21.9628 39.612C21.117 38.7662 19.7168 38.7662 18.871 39.612L12.6876 45.7955L10.0335 43.1413C8.31271 41.4496 8.31271 38.6788 10.0335 36.9579L24.6285 22.363L47.9618 45.6964Z" fill="#F9D254"/>
<path opacity="0.4" d="M32.5734 16.5004L40.5707 19.7C42.3616 20.4146 44.4091 19.875 45.6108 18.37L51.3858 11.1511C53.4478 8.57282 57.292 8.36006 59.6254 10.6963C61.9587 13.0296 61.7458 16.8737 59.1704 18.9358L51.9517 24.7109C50.4467 25.9155 49.9071 27.9629 50.6217 29.7508L53.8212 37.7483C54.6875 39.9154 54.18 42.3887 52.5292 44.0395L50.4467 46.1221C49.878 46.6909 48.9533 46.6909 48.3845 46.1221L24.1967 21.9341C23.628 21.3654 23.628 20.4409 24.1967 19.8721L26.2792 17.7895C27.9329 16.1416 30.4063 15.6342 32.5734 16.5004Z" fill="#F9D254"/>
</svg>
