<svg width="33" height="32" viewBox="0 0 33 32" fill="none" xmlns="http://www.w3.org/2000/svg">
<path opacity="0.4" d="M8.5 13.3333C5.83333 13.3333 4.5 14.6666 4.5 17.3333V23.9999C4.5 26.6666 5.83333 27.9999 8.5 27.9999H24.5C27.1667 27.9999 28.5 26.6666 28.5 23.9999V17.3333C28.5 14.6666 27.1667 13.3333 24.5 13.3333H8.5Z" fill="#242424"/>
<path d="M21.2067 16.6266C20.816 16.236 20.1826 16.236 19.792 16.6266L17.4987 18.92V4C17.4987 3.448 17.0507 3 16.4987 3C15.9467 3 15.4987 3.448 15.4987 4V18.9187L13.2054 16.6253C12.8147 16.2347 12.1813 16.2347 11.7907 16.6253C11.4 17.016 11.4 17.6494 11.7907 18.04L15.7907 22.04C15.8827 22.132 15.9932 22.2054 16.1159 22.256C16.2385 22.3067 16.368 22.3333 16.4987 22.3333C16.6294 22.3333 16.7585 22.3067 16.8812 22.256C17.0038 22.2054 17.1147 22.132 17.2067 22.04L21.2067 18.04C21.5974 17.6507 21.5974 17.016 21.2067 16.6266Z" fill="#242424"/>
</svg>
