<svg width="51" height="51" viewBox="0 0 51 51" fill="none" xmlns="http://www.w3.org/2000/svg">
<path opacity="0.4" d="M13.4614 41.7822H38.4614C42.6281 41.7822 44.7114 39.6988 44.7114 35.5322V16.7822C44.7114 12.6155 42.6281 10.5322 38.4614 10.5322H13.4614C9.29476 10.5322 7.21143 12.6155 7.21143 16.7822V35.5322C7.21143 39.6988 9.29476 41.7822 13.4614 41.7822Z" fill="#242424"/>
<path d="M25.9615 28.2696C25.2115 28.2696 24.4572 28.0363 23.8176 27.5717L13.5846 20.128C12.8867 19.6217 12.7324 18.6425 13.2407 17.9446C13.747 17.2488 14.7196 17.0905 15.4238 17.6009L25.6573 25.0425C25.8407 25.1738 26.0843 25.1759 26.2677 25.0425L36.5012 17.6009C37.2033 17.0905 38.178 17.2488 38.6843 17.9446C39.1926 18.6425 39.0384 19.6196 38.3404 20.128L28.1074 27.5696C27.4657 28.0384 26.7115 28.2696 25.9615 28.2696Z" fill="#242424"/>
</svg>
