<svg width="55" height="55" viewBox="0 0 55 55" fill="none" xmlns="http://www.w3.org/2000/svg">
<g clip-path="url(#clip0_5_272)">
<path d="M54.9802 27.7657C54.9802 12.7763 42.8289 0.625 27.8395 0.625C12.8501 0.625 0.698853 12.7763 0.698853 27.7657C0.698853 41.3122 10.6238 52.5406 23.5988 54.5767V35.611H16.7076V27.7657H23.5988V21.7863C23.5988 14.9841 27.6508 11.2268 33.8503 11.2268C36.8188 11.2268 39.9256 11.7569 39.9256 11.7569V18.4361H36.5034C33.132 18.4361 32.0803 20.5284 32.0803 22.6768V27.7657H39.6076L38.4043 35.611H32.0803V54.5767C45.0553 52.5406 54.9802 41.3122 54.9802 27.7657Z" fill="#1877F2"/>
<path d="M38.4043 35.6113L39.6076 27.7659H32.0803V22.677C32.0803 20.5307 33.132 18.4363 36.5034 18.4363H39.9257V11.7571C39.9257 11.7571 36.8198 11.2271 33.8503 11.2271C27.6509 11.2271 23.5988 14.9843 23.5988 21.7865V27.7659H16.7076V35.6113H23.5988V54.5769C26.4089 55.0165 29.2702 55.0165 32.0803 54.5769V35.6113H38.4043Z" fill="white"/>
</g>
<defs>
<clipPath id="clip0_5_272">
<rect width="54.2814" height="54.2814" fill="white" transform="translate(0.698853 0.625)"/>
</clipPath>
</defs>
</svg>
