<svg width="56" height="55" viewBox="0 0 56 55" fill="none" xmlns="http://www.w3.org/2000/svg">
<g clip-path="url(#clip0_5_273)">
<path d="M28.0397 5.12524C35.2914 5.12524 36.1501 5.15704 39.002 5.28426C41.6525 5.40088 43.0837 5.84616 44.0379 6.21723C45.2995 6.70491 46.2113 7.29861 47.1548 8.24218C48.109 9.19634 48.6921 10.0975 49.1798 11.3591C49.5509 12.3133 49.9961 13.7551 50.1128 16.395C50.24 19.2575 50.2718 20.1162 50.2718 27.3573C50.2718 34.6089 50.24 35.4677 50.1128 38.3196C49.9961 40.97 49.5509 42.4013 49.1798 43.3554C48.6921 44.6171 48.0984 45.5288 47.1548 46.4724C46.2007 47.4265 45.2995 48.0096 44.0379 48.4973C43.0837 48.8684 41.6419 49.3137 39.002 49.4303C36.1395 49.5575 35.2808 49.5893 28.0397 49.5893C20.7881 49.5893 19.9293 49.5575 17.0774 49.4303C14.427 49.3137 12.9957 48.8684 12.0416 48.4973C10.78 48.0096 9.8682 47.4159 8.92463 46.4724C7.97047 45.5182 7.38737 44.6171 6.89968 43.3554C6.52862 42.4013 6.08334 40.9594 5.96672 38.3196C5.8395 35.4571 5.8077 34.5983 5.8077 27.3573C5.8077 20.1056 5.8395 19.2469 5.96672 16.395C6.08334 13.7445 6.52862 12.3133 6.89968 11.3591C7.38737 10.0975 7.98107 9.18574 8.92463 8.24218C9.8788 7.28801 10.78 6.70491 12.0416 6.21723C12.9957 5.84616 14.4376 5.40088 17.0774 5.28426C19.9293 5.15704 20.7881 5.12524 28.0397 5.12524ZM28.0397 0.237793C20.6715 0.237793 19.7491 0.269598 16.8548 0.39682C13.9711 0.524042 11.9886 0.990523 10.2711 1.65844C8.47936 2.35816 6.9633 3.28052 5.45784 4.79658C3.94177 6.30204 3.01941 7.8181 2.31969 9.59921C1.65178 11.3273 1.1853 13.2992 1.05808 16.1829C0.930853 19.0878 0.899048 20.0102 0.899048 27.3785C0.899048 34.7468 0.930853 35.6691 1.05808 38.5634C1.1853 41.4471 1.65178 43.4297 2.31969 45.1472C3.01941 46.9389 3.94177 48.4549 5.45784 49.9604C6.9633 51.4658 8.47936 52.3988 10.2605 53.0879C11.9886 53.7558 13.9605 54.2223 16.8442 54.3495C19.7385 54.4768 20.6609 54.5086 28.0291 54.5086C35.3974 54.5086 36.3198 54.4768 39.2141 54.3495C42.0978 54.2223 44.0803 53.7558 45.7978 53.0879C47.5789 52.3988 49.095 51.4658 50.6004 49.9604C52.1059 48.4549 53.0389 46.9389 53.728 45.1578C54.3959 43.4297 54.8624 41.4577 54.9896 38.574C55.1168 35.6797 55.1486 34.7574 55.1486 27.3891C55.1486 20.0208 55.1168 19.0985 54.9896 16.2042C54.8624 13.3205 54.3959 11.3379 53.728 9.62041C53.0601 7.8181 52.1377 6.30204 50.6216 4.79658C49.1162 3.29112 47.6001 2.35816 45.819 1.66904C44.0909 1.00112 42.119 0.534644 39.2353 0.407422C36.3304 0.269598 35.408 0.237793 28.0397 0.237793Z" fill="white"/>
<path d="M28.0398 13.437C20.3429 13.437 14.0984 19.6815 14.0984 27.3784C14.0984 35.0754 20.3429 41.3198 28.0398 41.3198C35.7367 41.3198 41.9812 35.0754 41.9812 27.3784C41.9812 19.6815 35.7367 13.437 28.0398 13.437ZM28.0398 36.4218C23.0463 36.4218 18.9964 32.3719 18.9964 27.3784C18.9964 22.385 23.0463 18.3351 28.0398 18.3351C33.0333 18.3351 37.0832 22.385 37.0832 27.3784C37.0832 32.3719 33.0333 36.4218 28.0398 36.4218Z" fill="white"/>
<path d="M45.7872 12.8861C45.7872 14.6884 44.3242 16.1409 42.5325 16.1409C40.7302 16.1409 39.2777 14.6778 39.2777 12.8861C39.2777 11.0838 40.7408 9.63135 42.5325 9.63135C44.3242 9.63135 45.7872 11.0944 45.7872 12.8861Z" fill="white"/>
</g>
<defs>
<clipPath id="clip0_5_273">
<rect width="54.2814" height="54.2814" fill="white" transform="translate(0.899048 0.237793)"/>
</clipPath>
</defs>
</svg>
