<svg width="55" height="55" viewBox="0 0 55 55" fill="none" xmlns="http://www.w3.org/2000/svg">
<g clip-path="url(#clip0_5_274)">
<path d="M50.3735 0.625H4.10614C3.04341 0.625 2.02421 1.04717 1.27275 1.79863C0.521289 2.55009 0.0991211 3.56929 0.0991211 4.63202V50.8994C0.0991211 51.9621 0.521289 52.9813 1.27275 53.7328C2.02421 54.4842 3.04341 54.9064 4.10614 54.9064H50.3735C51.4362 54.9064 52.4554 54.4842 53.2069 53.7328C53.9583 52.9813 54.3805 51.9621 54.3805 50.8994V4.63202C54.3805 3.56929 53.9583 2.55009 53.2069 1.79863C52.4554 1.04717 51.4362 0.625 50.3735 0.625ZM16.278 46.866H8.11694V20.9428H16.278V46.866ZM12.1918 17.3505C11.2661 17.3452 10.3626 17.0659 9.5955 16.5477C8.82837 16.0296 8.23192 15.2957 7.88144 14.4389C7.53095 13.5821 7.44214 12.6406 7.62621 11.7334C7.81028 10.8261 8.25897 9.99369 8.91567 9.34119C9.57237 8.68869 10.4076 8.24535 11.3161 8.06711C12.2245 7.88888 13.1654 7.98373 14.0199 8.33971C14.8745 8.69569 15.6045 9.29683 16.1177 10.0673C16.6309 10.8377 16.9045 11.7429 16.9037 12.6687C16.9125 13.2885 16.7963 13.9037 16.5622 14.4776C16.3282 15.0516 15.9809 15.5725 15.5412 16.0094C15.1015 16.4463 14.5783 16.7902 14.0029 17.0206C13.4275 17.251 12.8115 17.3632 12.1918 17.3505ZM46.3589 46.8886H38.2016V32.7264C38.2016 28.5498 36.4262 27.2606 34.1343 27.2606C31.7143 27.2606 29.3394 29.085 29.3394 32.832V46.8886H21.1784V20.9617H29.0266V24.554H29.1321C29.92 22.9595 32.6793 20.2342 36.8898 20.2342C41.4434 20.2342 46.3627 22.9369 46.3627 30.8529L46.3589 46.8886Z" fill="#0A66C2"/>
</g>
<defs>
<clipPath id="clip0_5_274">
<rect width="54.2814" height="54.2814" fill="white" transform="translate(0.0991211 0.625)"/>
</clipPath>
</defs>
</svg>
