<svg width="33" height="32" viewBox="0 0 33 32" fill="none" xmlns="http://www.w3.org/2000/svg">
<path opacity="0.4" d="M20.3251 19.7253L18.8384 21.9453C15.1051 20.3853 12.1185 17.3867 10.5572 13.644L12.772 12.1706C13.9827 11.3653 14.3519 9.75333 13.6106 8.50133L11.5266 4.98265C11.0932 4.25065 10.2453 3.87332 9.41068 4.03998L9.3879 4.04397C5.97456 4.72664 3.79042 8.15733 4.71309 11.5133C6.89442 19.4493 13.0799 25.616 20.9986 27.7893C24.3546 28.7107 27.7798 26.524 28.4624 23.112C28.6291 22.28 28.2533 21.4347 27.5253 21L24.0012 18.8987C22.7492 18.1533 21.1357 18.516 20.3251 19.7253Z" fill="#242424"/>
<path d="M23.1666 14.3333C22.6146 14.3333 22.1666 13.8853 22.1666 13.3333C22.1666 11.6786 20.82 10.3333 19.1666 10.3333C18.6146 10.3333 18.1666 9.88525 18.1666 9.33325C18.1666 8.78125 18.6146 8.33325 19.1666 8.33325C21.9226 8.33325 24.1666 10.5759 24.1666 13.3333C24.1666 13.8853 23.7186 14.3333 23.1666 14.3333ZM28.1666 13.3333C28.1666 8.37059 24.1293 4.33325 19.1666 4.33325C18.6146 4.33325 18.1666 4.78125 18.1666 5.33325C18.1666 5.88525 18.6146 6.33325 19.1666 6.33325C23.0266 6.33325 26.1666 9.47325 26.1666 13.3333C26.1666 13.8853 26.6146 14.3333 27.1666 14.3333C27.7186 14.3333 28.1666 13.8853 28.1666 13.3333Z" fill="#242424"/>
</svg>
