<svg width="51" height="51" viewBox="0 0 51 51" fill="none" xmlns="http://www.w3.org/2000/svg">
<path opacity="0.4" d="M31.9393 31.1364L29.6164 34.6052C23.783 32.1677 19.1165 27.4823 16.6769 21.6343L20.1376 19.3322C22.0293 18.0739 22.6062 15.5552 21.4478 13.5989L18.1916 8.101C17.5145 6.95725 16.1897 6.36767 14.8855 6.62809L14.8499 6.63432C9.51659 7.70098 6.10387 13.0614 7.54554 18.3052C10.9539 30.7052 20.6187 40.3406 32.9916 43.7364C38.2354 45.176 43.5872 41.7594 44.6539 36.4281C44.9143 35.1281 44.3271 33.8073 43.1896 33.1281L37.6832 29.8448C35.7269 28.6802 33.2059 29.2468 31.9393 31.1364Z" fill="#242424"/>
</svg>
