<svg width="33" height="32" viewBox="0 0 33 32" fill="none" xmlns="http://www.w3.org/2000/svg">
<path opacity="0.4" d="M10.972 15.0919C10.6054 15.0919 10.2519 14.8893 10.0759 14.5386C9.82788 14.0439 10.0295 13.444 10.5241 13.1973L21.0508 7.9346C21.5455 7.6866 22.144 7.88929 22.392 8.38129C22.64 8.87596 22.4387 9.47594 21.944 9.7226L11.4173 14.9853C11.2733 15.0573 11.1214 15.0919 10.972 15.0919Z" fill="#242424"/>
<path opacity="0.4" d="M22.2335 24.5413C22.0841 24.5413 21.9308 24.5066 21.7881 24.436L9.78684 18.436C9.29217 18.1893 9.09193 17.588 9.3386 17.0947C9.58793 16.6027 10.1867 16.4 10.6801 16.648L22.6814 22.648C23.176 22.8946 23.376 23.496 23.1293 23.9893C22.9533 24.3373 22.6001 24.5413 22.2335 24.5413Z" fill="#242424"/>
<path d="M8.5 20C10.7091 20 12.5 18.2091 12.5 16C12.5 13.7909 10.7091 12 8.5 12C6.29086 12 4.5 13.7909 4.5 16C4.5 18.2091 6.29086 20 8.5 20Z" fill="#242424"/>
<path d="M24.5 12C26.7091 12 28.5 10.2091 28.5 8C28.5 5.79086 26.7091 4 24.5 4C22.2909 4 20.5 5.79086 20.5 8C20.5 10.2091 22.2909 12 24.5 12Z" fill="#242424"/>
<path d="M24.5 28C26.7091 28 28.5 26.2091 28.5 24C28.5 21.7909 26.7091 20 24.5 20C22.2909 20 20.5 21.7909 20.5 24C20.5 26.2091 22.2909 28 24.5 28Z" fill="#242424"/>
</svg>
