<svg width="51" height="51" viewBox="0 0 51 51" fill="none" xmlns="http://www.w3.org/2000/svg">
<path opacity="0.4" d="M25.9625 46.433C37.4684 46.433 46.7958 37.1056 46.7958 25.5996C46.7958 14.0937 37.4684 4.7663 25.9625 4.7663C14.4566 4.7663 5.12915 14.0937 5.12915 25.5996C5.12915 37.1056 14.4566 46.433 25.9625 46.433Z" fill="#242424"/>
<path d="M37.9208 38.6413C34.7749 41.5371 30.5666 43.3079 25.9625 43.3079C21.3583 43.3079 17.15 41.5371 14.0042 38.6413C14.9208 35.7663 17.2959 33.037 22.4 33.037H29.5249C34.6082 33.037 36.9833 35.7871 37.9208 38.6413ZM32.2292 21.4329C32.2292 17.9808 29.4313 15.1829 25.9792 15.1829C22.5272 15.1829 19.7292 17.9808 19.7292 21.4329C19.7292 24.885 22.5272 27.6829 25.9792 27.6829C29.4313 27.6829 32.2292 24.885 32.2292 21.4329Z" fill="#242424"/>
</svg>
