<svg width="19" height="15" viewBox="0 0 19 15" fill="none" xmlns="http://www.w3.org/2000/svg">
<path d="M17.9117 6.97283C17.8433 6.80735 17.7446 6.65825 17.6205 6.53414L12.2246 1.13817C11.6976 0.611168 10.8431 0.611168 10.3161 1.13817C9.78912 1.66518 9.78912 2.5196 10.3161 3.04661L13.4098 6.14024H2.27795C1.5333 6.14024 0.928955 6.74459 0.928955 7.48924C0.928955 8.23388 1.5333 8.83823 2.27795 8.83823H13.4098L10.3161 11.9319C9.78912 12.4589 9.78912 13.3133 10.3161 13.8403C10.5787 14.1029 10.9241 14.2359 11.2695 14.2359C11.6148 14.2359 11.9602 14.1047 12.2228 13.8403L17.6188 8.44433C17.7429 8.32023 17.8416 8.17112 17.9099 8.00565C18.0484 7.67469 18.0484 7.30378 17.9117 6.97283Z" fill="#242424"/>
</svg>
