<svg width="55" height="56" viewBox="0 0 55 56" fill="none" xmlns="http://www.w3.org/2000/svg">
<g clip-path="url(#clip0_5_275)">
<path d="M53.3594 14.8831C53.0525 13.7283 52.4477 12.6743 51.6055 11.8267C50.7633 10.9791 49.7133 10.3675 48.5605 10.0533C44.3166 8.91211 27.3537 8.91211 27.3537 8.91211C27.3537 8.91211 10.3908 8.91211 6.14696 10.0533C4.99414 10.3675 3.94409 10.9791 3.10189 11.8267C2.25968 12.6743 1.65487 13.7283 1.34799 14.8831C0.213013 19.1454 0.213013 28.034 0.213013 28.034C0.213013 28.034 0.213013 36.9225 1.34799 41.1849C1.65487 42.3397 2.25968 43.3936 3.10189 44.2412C3.94409 45.0888 4.99414 45.7004 6.14696 46.0147C10.3908 47.1558 27.3537 47.1558 27.3537 47.1558C27.3537 47.1558 44.3166 47.1558 48.5605 46.0147C49.7133 45.7004 50.7633 45.0888 51.6055 44.2412C52.4477 43.3936 53.0525 42.3397 53.3594 41.1849C54.4944 36.9225 54.4944 28.034 54.4944 28.034C54.4944 28.034 54.4944 19.1454 53.3594 14.8831Z" fill="#FF0302"/>
<path d="M21.8024 36.1049V19.9624L35.9895 28.0337L21.8024 36.1049Z" fill="#FEFEFE"/>
</g>
<defs>
<clipPath id="clip0_5_275">
<rect width="54.2814" height="54.2814" fill="white" transform="translate(0.15918 0.893066)"/>
</clipPath>
</defs>
</svg>
