<svg width="10" height="10" viewBox="0 0 10 10" fill="none" xmlns="http://www.w3.org/2000/svg">
<path fill-rule="evenodd" clip-rule="evenodd" d="M1.18267 2.19526C0.939272 2.45561 0.939272 2.87772 1.18267 3.1381L2.92367 5L1.18267 6.8619C0.939272 7.1223 0.939272 7.5444 1.18267 7.8047C1.42617 8.0651 1.82087 8.0651 2.06427 7.8047L4.24607 5.4714C4.48957 5.2111 4.48957 4.7889 4.24607 4.5286L2.06427 2.19526C1.82087 1.93491 1.42617 1.93491 1.18267 2.19526Z" fill="white"/>
<path fill-rule="evenodd" clip-rule="evenodd" d="M6.18267 2.19526C5.93927 2.45561 5.93927 2.87772 6.18267 3.1381L7.92367 5L6.18267 6.8619C5.93927 7.1223 5.93927 7.5444 6.18267 7.8047C6.42617 8.0651 6.82087 8.0651 7.06427 7.8047L9.24607 5.4714C9.48957 5.2111 9.48957 4.7889 9.24607 4.5286L7.06427 2.19526C6.82087 1.93491 6.42617 1.93491 6.18267 2.19526Z" fill="white"/>
</svg>
