<svg width="19" height="19" viewBox="0 0 19 19" fill="none" xmlns="http://www.w3.org/2000/svg">
<path d="M9.5 0C4.275 0 0 4.275 0 9.5C0 11.21 0.475742 12.825 1.23574 14.25L0 19L4.93926 17.8607C6.36426 18.6207 7.885 19 9.5 19C14.725 19 19 14.725 19 9.5C19 6.935 18.0496 4.56037 16.2446 2.75537C14.4396 0.950371 12.065 0 9.5 0ZM9.5 1.9C11.495 1.9 13.3943 2.66074 14.9143 4.08574C16.3393 5.60574 17.1 7.505 17.1 9.5C17.1 13.68 13.68 17.1 9.5 17.1C8.265 17.1 6.93426 16.815 5.88926 16.15L5.225 15.7696L4.56074 15.9607L2.66074 16.4357L3.13574 14.725L3.325 13.9643L2.94463 13.3C2.27963 12.16 1.9 10.83 1.9 9.5C1.9 5.32 5.32 1.9 9.5 1.9ZM6.175 5.13037C5.985 5.13037 5.70074 5.12926 5.51074 5.41426C5.22574 5.69926 4.65537 6.27074 4.65537 7.41074C4.65537 8.55074 5.51037 9.69037 5.60537 9.88037C5.79537 10.0704 7.31426 12.5393 9.68926 13.4893C11.6843 14.2493 12.0643 14.0607 12.5393 14.0607C13.0143 13.9657 13.9654 13.4896 14.1554 12.9196C14.3454 12.3496 14.3443 11.8743 14.4393 11.5893C14.3443 11.4943 14.2493 11.4004 13.9643 11.3054C13.7743 11.2104 12.635 10.6396 12.35 10.5446C12.065 10.4496 11.9704 10.3543 11.7804 10.6393C11.5904 10.9243 11.1146 11.3993 11.0196 11.5893C10.9246 11.7793 10.8296 11.7807 10.5446 11.6857C10.3546 11.5907 9.59463 11.3996 8.64463 10.5446C7.88463 9.97463 7.40926 9.21537 7.31426 8.93037C7.12426 8.74037 7.31574 8.55037 7.41074 8.45537L7.78926 8.075C7.88426 7.98 7.88537 7.78963 7.98037 7.69463C8.07537 7.59963 8.07537 7.50426 7.98037 7.31426C7.88537 7.12426 7.40963 5.98574 7.21963 5.51074C7.02963 5.13074 6.84 5.13037 6.65 5.13037H6.175Z" fill="white"/>
</svg>
