<svg width="20" height="20" viewBox="0 0 20 20" fill="none" xmlns="http://www.w3.org/2000/svg">
<path d="M1.80537 6.66244C1.90382 5.39957 2.89972 4.41158 4.16401 4.33329C5.51625 4.24956 7.44683 4.16669 9.79175 4.16669C12.1367 4.16669 14.0673 4.24956 15.4195 4.33329C16.6838 4.41158 17.6797 5.39957 17.7781 6.66244C17.8514 7.60244 17.9167 8.69089 17.9167 9.58335C17.9167 10.4758 17.8514 11.5643 17.7781 12.5043C17.6797 13.7671 16.6838 14.7551 15.4195 14.8334C14.0673 14.9171 12.1367 15 9.79175 15C7.44683 15 5.51625 14.9171 4.16401 14.8334C2.89972 14.7551 1.90382 13.7671 1.80537 12.5043C1.7321 11.5643 1.66675 10.4758 1.66675 9.58335C1.66675 8.69089 1.7321 7.60244 1.80537 6.66244Z" stroke="white" stroke-width="1.5"/>
<path d="M9.4375 10.4234V8.74375L10.6973 9.58357L9.4375 10.4234Z" fill="white" stroke="white" stroke-width="2"/>
</svg>
