<svg width="24" height="24" viewBox="0 0 24 24" fill="none" xmlns="http://www.w3.org/2000/svg">
<path opacity="0.25" d="M22.411 18.3856L20.5061 20.2905C20.5061 20.2905 15.5564 22.4118 8.48528 15.3408C1.41421 8.26968 3.53553 3.31993 3.53553 3.31993L5.44047 1.415C6.30108 0.554384 7.72442 0.65554 8.45468 1.62922L10.273 4.05358C10.8701 4.84982 10.791 5.96401 10.0872 6.6678L8.48528 8.26968C8.48528 8.26968 8.48528 9.6839 11.3137 12.5123C14.1421 15.3408 15.5563 15.3407 15.5563 15.3407L17.1582 13.7389C17.862 13.0351 18.9762 12.9559 19.7725 13.5531L22.1968 15.3714C23.1705 16.1016 23.2716 17.5249 22.411 18.3856Z" fill="#12131A"/>
<path d="M5.44046 1.41493L4.94974 1.90565L9.19238 7.5625L10.0872 6.66772C10.7909 5.96394 10.8701 4.84975 10.2729 4.05351L8.45467 1.62914C7.72441 0.655462 6.30108 0.554309 5.44046 1.41493Z" fill="#12131A"/>
<path d="M22.4112 18.3847L21.9205 18.8755L16.2637 14.6328L17.1585 13.738C17.8622 13.0342 18.9764 12.9551 19.7727 13.5522L22.197 15.3705C23.1707 16.1008 23.2719 17.5241 22.4112 18.3847Z" fill="#12131A"/>
</svg>
