<svg width="21" height="21" viewBox="0 0 21 21" fill="none" xmlns="http://www.w3.org/2000/svg">
<g opacity="0.25">
<rect width="21" height="21" rx="4" fill="black"/>
</g>
<path d="M10.5 5C7.475 5 5 7.475 5 10.5C5 11.49 5.27543 12.425 5.71543 13.25L5 16L7.85957 15.3404C8.68457 15.7804 9.565 16 10.5 16C13.525 16 16 13.525 16 10.5C16 9.015 15.4498 7.64021 14.4048 6.59521C13.3598 5.55021 11.985 5 10.5 5ZM10.5 6.1C11.655 6.1 12.7546 6.54043 13.6346 7.36543C14.4596 8.24543 14.9 9.345 14.9 10.5C14.9 12.92 12.92 14.9 10.5 14.9C9.785 14.9 9.01457 14.735 8.40957 14.35L8.025 14.1298L7.64043 14.2404L6.54043 14.5154L6.81543 13.525L6.925 13.0846L6.70479 12.7C6.31979 12.04 6.1 11.27 6.1 10.5C6.1 8.08 8.08 6.1 10.5 6.1ZM8.575 7.97021C8.465 7.97021 8.30043 7.96957 8.19043 8.13457C8.02543 8.29957 7.69521 8.63043 7.69521 9.29043C7.69521 9.95043 8.19021 10.6102 8.24521 10.7202C8.35521 10.8302 9.23457 12.2596 10.6096 12.8096C11.7646 13.2496 11.9846 13.1404 12.2596 13.1404C12.5346 13.0854 13.0852 12.8098 13.1952 12.4798C13.3052 12.1498 13.3046 11.8746 13.3596 11.7096C13.3046 11.6546 13.2496 11.6002 13.0846 11.5452C12.9746 11.4902 12.315 11.1598 12.15 11.1048C11.985 11.0498 11.9302 10.9946 11.8202 11.1596C11.7102 11.3246 11.4348 11.5996 11.3798 11.7096C11.3248 11.8196 11.2698 11.8204 11.1048 11.7654C10.9948 11.7104 10.5548 11.5998 10.0048 11.1048C9.56479 10.7748 9.28957 10.3352 9.23457 10.1702C9.12457 10.0602 9.23543 9.95021 9.29043 9.89521L9.50957 9.675C9.56457 9.62 9.56521 9.50979 9.62021 9.45479C9.67521 9.39979 9.67521 9.34457 9.62021 9.23457C9.56521 9.12457 9.28979 8.46543 9.17979 8.19043C9.06979 7.97043 8.96 7.97021 8.85 7.97021H8.575Z" fill="black"/>
</svg>
