<svg width="24" height="24" viewBox="0 0 24 24" fill="none" xmlns="http://www.w3.org/2000/svg">
<path d="M12 11.5C10.619 11.5 9.5 10.381 9.5 9C9.5 7.619 10.619 6.5 12 6.5C13.381 6.5 14.5 7.619 14.5 9C14.5 10.381 13.381 11.5 12 11.5V11.5Z" fill="black"/>
<path d="M12.0001 2.01001C8.14408 2.01001 5.00708 5.14701 5.00708 9.00301C5.00708 13.486 10.9751 20.77 11.2291 21.077L12.0001 22.012L12.7711 21.077C13.0251 20.769 18.9931 13.486 18.9931 9.00301C18.9931 5.14601 15.8561 2.01001 12.0001 2.01001V2.01001ZM12.0001 18.827C10.1221 16.364 7.00708 11.712 7.00708 9.00301C7.00708 6.25001 9.24708 4.01001 12.0001 4.01001C14.7531 4.01001 16.9931 6.25001 16.9931 9.00301C16.9931 11.708 13.8781 16.362 12.0001 18.827V18.827Z" fill="black"/>
</svg>
