<svg width="21" height="21" viewBox="0 0 21 21" fill="none" xmlns="http://www.w3.org/2000/svg">
<rect width="21" height="21" rx="4" fill="white"/>
<path d="M4.1109 8.0734C4.18966 7.02424 4.98638 6.20345 5.99781 6.13841C7.0796 6.06884 8.62406 6 10.5 6C12.376 6 13.9204 6.06884 15.0022 6.13841C16.0136 6.20345 16.8104 7.02424 16.8891 8.0734C16.9477 8.85432 17 9.75857 17 10.5C17 11.2414 16.9477 12.1457 16.8891 12.9266C16.8104 13.9757 16.0136 14.7965 15.0022 14.8616C13.9204 14.9312 12.376 15 10.5 15C8.62406 15 7.0796 14.9312 5.99781 14.8616C4.98638 14.7965 4.18966 13.9757 4.1109 12.9266C4.05228 12.1457 4 11.2414 4 10.5C4 9.75857 4.05228 8.85432 4.1109 8.0734Z" fill="url(#paint0_linear_2)"/>
<path d="M9.89741 9.08121L11.743 10.1017C12.0857 10.2911 12.0857 10.7089 11.743 10.8983L9.89741 11.9188C9.51385 12.1309 9 11.9028 9 11.5204V9.47956C9 9.09718 9.51385 8.86911 9.89741 9.08121Z" fill="white"/>
<defs>
<linearGradient id="paint0_linear_2" x1="10.5" y1="6" x2="10.5" y2="15" gradientUnits="userSpaceOnUse">
<stop stop-color="#005F73"/>
<stop offset="1" stop-color="#0A9396"/>
</linearGradient>
</defs>
</svg>
