<svg width="30" height="30" viewBox="0 0 30 30" fill="none" xmlns="http://www.w3.org/2000/svg">
<path fill-rule="evenodd" clip-rule="evenodd" d="M15 30C20.3214 30 24.6632 28.5533 24.6632 26.7809C24.6632 25.0072 20.3214 23.5605 15 23.5605C9.67847 23.5605 5.33667 25.0072 5.33667 26.7809C5.33667 28.5533 9.67788 30 15 30Z" fill="#969696"/>
<path fill-rule="evenodd" clip-rule="evenodd" d="M22.0768 2.92017C25.9686 6.81196 25.1512 12.5073 22.0768 17.0729L14.9999 27.5764L7.9241 17.0729C4.84793 12.5073 4.03113 6.81196 7.9241 2.92017C11.8159 -0.973389 18.1839 -0.973389 22.0768 2.92017Z" fill="#FF0000"/>
<path fill-rule="evenodd" clip-rule="evenodd" d="M14.4632 26.7809L7.9241 17.0725C4.84793 12.5068 4.03113 6.81152 7.9241 2.91973C9.86883 0.973242 12.4352 0 14.9999 0V26.7809H14.4632Z" fill="#CF0000"/>
<path fill-rule="evenodd" clip-rule="evenodd" d="M18.3895 5.97983C20.2545 7.84311 20.2545 10.8947 18.3895 12.7597C16.5262 14.623 13.4747 14.623 11.6096 12.7597C9.74634 10.8947 9.74634 7.84311 11.6096 5.97983C13.4747 4.11479 16.5262 4.11479 18.3895 5.97983Z" fill="white"/>
</svg>
