<svg width="20" height="20" viewBox="0 0 20 20" fill="none" xmlns="http://www.w3.org/2000/svg">
<path d="M0.75 3C0.75 1.75736 1.75736 0.75 3 0.75H17C18.2427 0.75 19.25 1.75736 19.25 3V17C19.25 18.2427 18.2427 19.25 17 19.25H3C1.75736 19.25 0.75 18.2427 0.75 17V3Z" stroke="url(#paint0_linear_5)" stroke-width="1.5"/>
<mask id="path-2-inside-1_5" fill="white">
<path d="M12 5C12 4.44772 11.5523 4 11 4C10.4477 4 10 4.44772 10 5V12.5C10 13.3284 9.3284 14 8.5 14C7.67157 14 7 13.3284 7 12.5C7 11.8125 7.56207 11.1095 8.1989 10.9802C8.7402 10.8703 9.0899 10.3425 8.98 9.8013C8.8701 9.26 8.3423 8.9103 7.80107 9.0202C6.1731 9.3506 5 10.9227 5 12.5C5 14.433 6.567 16 8.5 16C10.4319 16 11.9982 14.4347 12 12.5032V12.5V8.4649C12.5883 8.8052 13.2714 9 14 9C14.5523 9 15 8.5523 15 8C15 7.44771 14.5523 7 14 7C12.8954 7 12 6.10457 12 5Z"/>
</mask>
<path d="M12 5C12 4.44772 11.5523 4 11 4C10.4477 4 10 4.44772 10 5V12.5C10 13.3284 9.3284 14 8.5 14C7.67157 14 7 13.3284 7 12.5C7 11.8125 7.56207 11.1095 8.1989 10.9802C8.7402 10.8703 9.0899 10.3425 8.98 9.8013C8.8701 9.26 8.3423 8.9103 7.80107 9.0202C6.1731 9.3506 5 10.9227 5 12.5C5 14.433 6.567 16 8.5 16C10.4319 16 11.9982 14.4347 12 12.5032V12.5V8.4649C12.5883 8.8052 13.2714 9 14 9C14.5523 9 15 8.5523 15 8C15 7.44771 14.5523 7 14 7C12.8954 7 12 6.10457 12 5Z" fill="url(#paint1_linear_5)"/>
<path d="M8.1989 10.9802L7.60199 8.04018L7.60197 8.04019L8.1989 10.9802ZM8.98 9.8013L6.03998 10.3982L6.04 10.3983L8.98 9.8013ZM7.80107 9.0202L8.39776 11.9603L8.39805 11.9602L7.80107 9.0202ZM12 12.5032L15 12.506V12.5032H12ZM12 8.4649L13.5021 5.86806L9 3.26381V8.4649H12ZM15 5C15 2.79091 13.2092 1 11 1V7C9.89541 7 9 6.10453 9 5H15ZM11 1C8.79081 1 7 2.79091 7 5H13C13 6.10453 12.1046 7 11 7V1ZM7 5V12.5H13V5H7ZM7 12.5C7 11.6715 7.67154 11 8.5 11V17C10.9853 17 13 14.9853 13 12.5H7ZM8.5 11C9.32846 11 10 11.6716 10 12.5H4C4 14.9852 6.01468 17 8.5 17V11ZM10 12.5C10 12.9489 9.83353 13.2405 9.71213 13.3937C9.5968 13.5393 9.3192 13.8139 8.79583 13.9202L7.60197 8.04019C6.44177 8.27575 5.56471 8.96658 5.00915 9.66785C4.4475 10.3768 4 11.3636 4 12.5H10ZM8.79581 13.9202C10.9604 13.4807 12.3597 11.3697 11.92 9.20428L6.04 10.3983C5.82008 9.31529 6.51999 8.25986 7.60199 8.04018L8.79581 13.9202ZM11.92 9.20439C11.4805 7.03973 9.36946 5.64051 7.20408 6.0802L8.39805 11.9602C7.31514 12.1801 6.25967 11.4803 6.03998 10.3982L11.92 9.20439ZM7.20438 6.08014C4.08437 6.71335 2 9.59369 2 12.5H8C8 12.4414 8.03026 12.2969 8.14791 12.1474C8.26008 12.0048 8.36374 11.9672 8.39776 11.9603L7.20438 6.08014ZM2 12.5C2 16.0899 4.91015 19 8.5 19V13C8.22385 13 8 12.7761 8 12.5H2ZM8.5 19C12.088 19 14.9967 16.093 15 12.506L9 12.5004C8.99974 12.7764 8.77585 13 8.5 13V19ZM15 12.5032V12.5H9V12.5032H15ZM15 12.5V8.4649H9V12.5H15ZM10.4979 11.0617C11.5305 11.659 12.73 12 14 12V6C13.8128 6 13.6461 5.95135 13.5021 5.86806L10.4979 11.0617ZM14 12C16.2092 12 18 10.2092 18 8H12C12 6.89545 12.8954 6 14 6V12ZM18 8C18 5.79088 16.2092 4 14 4V10C12.8954 10 12 9.10454 12 8H18ZM14 4C14.5523 4 15 4.44775 15 5H9C9 7.76139 11.2385 10 14 10V4Z" fill="url(#paint2_linear_5)" mask="url(#path-2-inside-1_5)"/>
<defs>
<linearGradient id="paint0_linear_5" x1="10" y1="0" x2="10" y2="20" gradientUnits="userSpaceOnUse">
<stop stop-color="#76C893"/>
<stop offset="1" stop-color="#99D98C"/>
</linearGradient>
<linearGradient id="paint1_linear_5" x1="10" y1="4" x2="10" y2="16" gradientUnits="userSpaceOnUse">
<stop stop-color="#76C893"/>
<stop offset="1" stop-color="#99D98C"/>
</linearGradient>
<linearGradient id="paint2_linear_5" x1="10" y1="4" x2="10" y2="16" gradientUnits="userSpaceOnUse">
<stop stop-color="#76C893"/>
<stop offset="1" stop-color="#99D98C"/>
</linearGradient>
</defs>
</svg>
