<svg width="20" height="20" viewBox="0 0 20 20" fill="none" xmlns="http://www.w3.org/2000/svg">
<g clip-path="url(#clip0_4:50)">
<path d="M18.6758 15.3213L17.0884 16.9088C17.0884 16.9088 12.9637 18.6765 7.07108 12.784C1.17852 6.8914 2.94629 2.76661 2.94629 2.76661L4.53374 1.17917C5.25091 0.461988 6.43703 0.546285 7.04558 1.35769L8.56084 3.37799C9.05843 4.04152 8.99251 4.97001 8.40601 5.5565L7.07108 6.8914C7.07108 6.8914 7.07108 8.06992 9.42809 10.4269C11.7851 12.784 12.9636 12.7839 12.9636 12.7839L14.2985 11.4491C14.885 10.8626 15.8135 10.7966 16.4771 11.2943L18.4973 12.8095C19.3088 13.418 19.393 14.6041 18.6758 15.3213Z" stroke="white" stroke-width="1.5"/>
</g>
<defs>
<clipPath id="clip0_4:50">
<rect width="20" height="20" fill="white"/>
</clipPath>
</defs>
</svg>
