<svg width="20" height="20" viewBox="0 0 20 20" fill="none" xmlns="http://www.w3.org/2000/svg">
<path d="M1.80531 6.66244C1.90376 5.39957 2.89966 4.41158 4.16395 4.33329C5.51619 4.24956 7.44676 4.16669 9.79169 4.16669C12.1366 4.16669 14.0672 4.24956 15.4194 4.33329C16.6837 4.41158 17.6796 5.39957 17.7781 6.66244C17.8513 7.60244 17.9167 8.69089 17.9167 9.58335C17.9167 10.4758 17.8513 11.5643 17.7781 12.5043C17.6796 13.7671 16.6837 14.7551 15.4194 14.8334C14.0672 14.9171 12.1366 15 9.79169 15C7.44676 15 5.51619 14.9171 4.16395 14.8334C2.89966 14.7551 1.90376 13.7671 1.80531 12.5043C1.73204 11.5643 1.66669 10.4758 1.66669 9.58335C1.66669 8.69089 1.73204 7.60244 1.80531 6.66244Z" stroke="white" stroke-width="1.5"/>
<path d="M9.4375 10.4234V8.74375L10.6973 9.58357L9.4375 10.4234Z" fill="white" stroke="white" stroke-width="2"/>
</svg>
