<svg width="20" height="20" viewBox="0 0 20 20" fill="none" xmlns="http://www.w3.org/2000/svg">
<g clip-path="url(#clip0_403_4332)">
<path d="M12.3278 6.36328C12.0453 6.36328 11.8164 6.59223 11.8164 6.87464C11.8164 7.15706 12.0453 7.38601 12.3278 7.38601H14.3732C14.6557 7.38601 14.8846 7.15706 14.8846 6.87464C14.8846 6.59223 14.6557 6.36328 14.3732 6.36328H12.3278Z" fill="#60873A"/>
<path d="M12.2734 6.87518C12.2734 6.8438 12.2989 6.81836 12.3303 6.81836H14.3757C14.4071 6.81836 14.4325 6.8438 14.4325 6.87518C14.4325 6.90656 14.4071 6.932 14.3757 6.932H12.3303C12.2989 6.932 12.2734 6.90656 12.2734 6.87518Z" stroke="#60873A"/>
<path fill-rule="evenodd" clip-rule="evenodd" d="M10.7969 10.965C10.7969 9.55293 11.9416 8.4082 13.3537 8.4082C14.7658 8.4082 15.9105 9.55293 15.9105 10.965V11.4764C15.9105 11.7588 15.6816 11.9877 15.3991 11.9877H11.8196C11.8196 12.835 12.5064 13.5218 13.3537 13.5218C13.7103 13.5218 14.0386 13.4001 14.2991 13.196C14.4351 13.0893 14.596 13.0105 14.7689 13.0105C15.2071 13.0105 15.4874 13.4631 15.1809 13.7762C14.7168 14.2503 14.0696 14.5446 13.3537 14.5446C11.9416 14.5446 10.7969 13.3998 10.7969 11.9877V10.965ZM13.3537 9.43093C12.5064 9.43093 11.8196 10.1177 11.8196 10.965H14.8878C14.8878 10.1177 14.201 9.43093 13.3537 9.43093Z" fill="#60873A"/>
<path d="M11.8182 11.5337H11.3636V11.9883C11.3636 13.0866 12.254 13.9769 13.3523 13.9769C13.8142 13.9769 14.2404 13.8189 14.578 13.5544C14.6697 13.4825 14.7337 13.4656 14.7675 13.4656C14.7973 13.4656 14.8186 13.4726 14.833 13.4806C14.4526 13.8581 13.93 14.0906 13.3523 14.0906C12.1913 14.0906 11.25 13.1493 11.25 11.9883V10.9656C11.25 9.80455 12.1913 8.86328 13.3523 8.86328C14.5133 8.86328 15.4545 9.80455 15.4545 10.9656V11.4769C15.4545 11.5083 15.4291 11.5337 15.3977 11.5337H11.8182ZM11.3636 10.9656V11.4201H11.8182H14.8864H15.3409V10.9656C15.3409 9.86728 14.4505 8.97692 13.3523 8.97692C12.254 8.97692 11.3636 9.86728 11.3636 10.9656Z" stroke="#60873A"/>
<path fill-rule="evenodd" clip-rule="evenodd" d="M4.65945 7.38601V9.43146H7.21626C7.7811 9.43146 8.23899 8.97357 8.23899 8.40874C8.23899 7.8439 7.7811 7.38601 7.21626 7.38601H4.65945ZM8.64797 9.86965C9.02675 9.49837 9.26172 8.98099 9.26172 8.40874C9.26172 7.27906 8.34594 6.36328 7.21626 6.36328H4.4549C4.00303 6.36328 3.63672 6.7296 3.63672 7.18146V13.6685C3.63672 14.1526 4.0292 14.5451 4.51335 14.5451H7.21626C8.62835 14.5451 9.77308 13.4004 9.77308 11.9883C9.77308 11.1066 9.3269 10.3293 8.64797 9.86965ZM4.65945 10.4542V13.5224H7.21626C8.06352 13.5224 8.75035 12.8356 8.75035 11.9883C8.75035 11.141 8.06352 10.4542 7.21626 10.4542H4.65945Z" fill="#60873A"/>
<path d="M15.4556 0.908203H4.54652C2.53821 0.908203 0.910156 2.53626 0.910156 4.54457V15.4537C0.910156 17.462 2.53821 19.09 4.54652 19.09H15.4556C17.4639 19.09 19.092 17.462 19.092 15.4537V4.54457C19.092 2.53626 17.4639 0.908203 15.4556 0.908203Z" stroke="#60873A" stroke-width="1.5"/>
</g>
<defs>
<clipPath id="clip0_403_4332">
<rect width="20" height="20" fill="white"/>
</clipPath>
</defs>
</svg>
