<svg width="20" height="20" viewBox="0 0 20 20" fill="none" xmlns="http://www.w3.org/2000/svg">
<g clip-path="url(#clip0_403_4351)">
<path d="M11.1667 7.16667V5H12.25C12.8483 5 13.3333 5.48503 13.3333 6.08333C13.3333 6.68164 12.8483 7.16667 12.25 7.16667H11.1667ZM8.08333 9.16667H9.16667V11.3333H8.08333C7.48503 11.3333 7 10.8483 7 10.25C7 9.65169 7.48502 9.16667 8.08333 9.16667Z" fill="#60873A" stroke="#60873A" stroke-width="2"/>
<path d="M6 6.08333C6 4.93274 6.93274 4 8.08333 4H10.1667V8.16667H8.08333C6.93274 8.16667 6 7.23393 6 6.08333Z" fill="#60873A"/>
<path d="M10.168 10.2494C10.168 9.09876 11.1007 8.16602 12.2513 8.16602C13.4019 8.16602 14.3347 9.09876 14.3347 10.2494C14.3347 11.3999 13.4019 12.3327 12.2513 12.3327C11.1007 12.3327 10.168 11.3999 10.168 10.2494Z" fill="#60873A"/>
<path d="M8.08333 12.334C6.93274 12.334 6 13.2667 6 14.4173C6 15.5679 6.93274 16.5006 8.08333 16.5006C9.23391 16.5006 10.1667 15.5679 10.1667 14.4173V12.334H8.08333Z" fill="#60873A"/>
<path d="M16 0.75H4C2.20507 0.75 0.75 2.20507 0.75 4V16C0.75 17.7949 2.20507 19.25 4 19.25H16C17.7949 19.25 19.25 17.7949 19.25 16V4C19.25 2.20507 17.7949 0.75 16 0.75Z" stroke="#60873A" stroke-width="1.5"/>
</g>
<defs>
<clipPath id="clip0_403_4351">
<rect width="20" height="20" fill="white"/>
</clipPath>
</defs>
</svg>
