<svg width="20" height="20" viewBox="0 0 20 20" fill="none" xmlns="http://www.w3.org/2000/svg">
<g clip-path="url(#clip0_403_4366)">
<path d="M16.4424 1.23113C14.8497 0.988778 12.6671 0.750335 10.25 0.750335C7.83287 0.750335 5.65035 0.988778 4.05759 1.23113C2.66625 1.44283 1.59652 2.45067 1.36457 3.79722C1.16802 4.93834 1 6.38653 1 8.00034C1 9.61416 1.16802 11.0623 1.36457 12.2034C1.56418 13.3622 2.38106 14.2649 3.48668 14.6326L4 14.8033V15.3443V18.7479C4 18.9414 4.21049 19.0616 4.37719 18.9631L10.4926 15.3495L10.6634 15.2486L10.8618 15.2453C13.0347 15.2097 14.9856 14.9912 16.4424 14.7695C17.8338 14.5578 18.9035 13.5499 19.1354 12.2034C19.332 11.0623 19.5 9.61416 19.5 8.00034C19.5 6.38652 19.332 4.93828 19.1354 3.79719C18.9035 2.45068 17.8338 1.44284 16.4424 1.23113ZM16.4424 1.23113L16.5551 0.490234" stroke="#60873A" stroke-width="1.5"/>
<path d="M4 6C4 5.72386 4.22386 5.5 4.5 5.5H14.5C14.7762 5.5 15 5.72386 15 6C15 6.27614 14.7762 6.5 14.5 6.5H4.5C4.22386 6.5 4 6.27614 4 6ZM4 10C4 9.72386 4.22386 9.5 4.5 9.5H8.5C8.77614 9.5 9 9.72386 9 10C9 10.2762 8.77614 10.5 8.5 10.5H4.5C4.22386 10.5 4 10.2762 4 10Z" fill="#60873A" stroke="#60873A"/>
</g>
<defs>
<clipPath id="clip0_403_4366">
<rect width="20" height="20" fill="white"/>
</clipPath>
</defs>
</svg>
