<svg width="30" height="30" viewBox="0 0 30 30" fill="none" xmlns="http://www.w3.org/2000/svg">
<g clip-path="url(#clip0_212_9046)">
<path d="M22.4998 0H7.50018C3.37565 0 0.000366211 3.37528 0.000366211 7.49982V22.5002C0.000366211 26.6236 3.37565 30 7.50018 30H22.4998C26.6243 30 29.9996 26.6236 29.9996 22.5002V7.49982C29.9996 3.37528 26.6243 0 22.4998 0ZM27.4996 22.5002C27.4996 25.2564 25.2575 27.4999 22.4998 27.4999H7.50018C4.74363 27.4999 2.50043 25.2564 2.50043 22.5002V7.49982C2.50043 4.7429 4.74363 2.50006 7.50018 2.50006H22.4998C25.2575 2.50006 27.4996 4.7429 27.4996 7.49982V22.5002Z" fill="white" fill-opacity="0.4"/>
<path d="M23.1261 8.74991C24.1616 8.74991 25.001 7.91046 25.001 6.87495C25.001 5.83945 24.1616 5 23.1261 5C22.0905 5 21.2511 5.83945 21.2511 6.87495C21.2511 7.91046 22.0905 8.74991 23.1261 8.74991Z" fill="white"/>
<path d="M15 7.5C10.8571 7.5 7.50018 10.8573 7.50018 14.9998C7.50018 19.1408 10.8571 22.5004 15 22.5004C19.1417 22.5004 22.4998 19.1408 22.4998 14.9998C22.4998 10.8573 19.1417 7.5 15 7.5ZM15 20.0003C12.2389 20.0003 10.0002 17.7616 10.0002 14.9998C10.0002 12.238 12.2389 10.0001 15 10.0001C17.7611 10.0001 19.9998 12.238 19.9998 14.9998C19.9998 17.7616 17.7611 20.0003 15 20.0003Z" fill="white"/>
</g>
<defs>
<clipPath id="clip0_212_9046">
<rect width="30" height="30" fill="white"/>
</clipPath>
</defs>
</svg>
