<svg width="30" height="30" viewBox="0 0 30 30" fill="none" xmlns="http://www.w3.org/2000/svg">
<g clip-path="url(#clip0_213_9300)">
<path fill-rule="evenodd" clip-rule="evenodd" d="M15 0C23.2843 0 30 6.71572 30 15C30 23.2843 23.2843 30 15 30C6.71572 30 0 23.2843 0 15C0 6.71572 6.71572 0 15 0ZM23.8066 21.9396C24.021 21.7242 24.1413 21.4326 24.1413 21.1287C24.1413 20.8248 24.021 20.5333 23.8066 20.3179L20.8704 17.3823C20.6549 17.1679 20.3633 17.0475 20.0592 17.0475C19.7552 17.0475 19.4635 17.1679 19.248 17.3823L18.4501 18.1805C18.1852 18.4477 17.841 18.6222 17.4689 18.6779C17.0968 18.7336 16.7166 18.6677 16.385 18.4898C14.3086 17.3901 12.6104 15.6921 11.5104 13.6158C11.3325 13.2842 11.2665 12.9039 11.3221 12.5317C11.3777 12.1595 11.5521 11.8152 11.8192 11.55L12.6186 10.752C12.8329 10.5364 12.9532 10.2448 12.9532 9.94087C12.9532 9.63691 12.8329 9.34531 12.6186 9.12979L9.68238 6.19453C9.46686 5.98007 9.17517 5.85967 8.87112 5.85967C8.56707 5.85967 8.27539 5.98007 8.05986 6.19453C7.93852 6.31553 7.785 6.46172 7.62082 6.61641C7.21025 7.00447 6.69803 7.48746 6.49096 7.79109C5.40035 9.38713 5.92336 11.5224 6.55166 13.0328C7.38164 15.0237 8.91129 17.193 10.8604 19.1408C12.8078 21.0883 14.9764 22.6181 16.9683 23.4481C18.4784 24.0773 20.6129 24.599 22.2088 23.5086C22.5123 23.3014 22.996 22.7904 23.3833 22.3793C23.5386 22.2154 23.6849 22.0605 23.8066 21.9396Z" fill="#6CDC2D"/>
</g>
<defs>
<clipPath id="clip0_213_9300">
<rect width="30" height="30" fill="white"/>
</clipPath>
</defs>
</svg>
