<svg width="30" height="30" viewBox="0 0 30 30" fill="none" xmlns="http://www.w3.org/2000/svg">
<g clip-path="url(#clip0_213_9302)">
<path d="M15.0002 30.0004C23.2843 30.0004 30 23.2848 30 15.0007C30 6.71659 23.2843 0.000976562 15.0002 0.000976562C6.7161 0.000976562 0.000488281 6.71659 0.000488281 15.0007C0.000488281 23.2848 6.7161 30.0004 15.0002 30.0004Z" fill="#CB2027"/>
<path d="M16.211 20.0869C15.077 19.9992 14.6005 19.4369 13.7112 18.8971C13.2224 21.4615 12.6251 23.9199 10.8558 25.2041C10.309 21.3281 11.6574 18.4168 12.2836 15.3267C11.2162 13.5298 12.412 9.9132 14.6633 10.8044C17.4342 11.9001 12.2644 17.4855 15.735 18.1831C19.3583 18.9115 20.8375 11.8961 18.5904 9.61427C15.3438 6.31982 9.14024 9.5394 9.90308 14.2555C10.0889 15.4085 11.2804 15.7585 10.379 17.3494C8.30119 16.8893 7.68139 15.2505 7.76107 13.0657C7.88968 9.4894 10.9745 6.98534 14.0687 6.63881C17.9818 6.20084 21.6546 8.07574 22.1616 11.7565C22.7319 15.9109 20.395 20.4099 16.211 20.0869Z" fill="#F1F2F2"/>
</g>
<defs>
<clipPath id="clip0_213_9302">
<rect width="30" height="30" fill="white"/>
</clipPath>
</defs>
</svg>
