<svg width="30" height="30" viewBox="0 0 30 30" fill="none" xmlns="http://www.w3.org/2000/svg">
<g clip-path="url(#clip0_213_9330)">
<path d="M15 30C23.2843 30 30 23.2843 30 15C30 6.71573 23.2843 0 15 0C6.71573 0 0 6.71573 0 15C0 23.2843 6.71573 30 15 30Z" fill="#03A9F4"/>
<path d="M24.7165 8.97402C23.9857 9.29322 23.2126 9.50527 22.4211 9.60363C23.2554 9.10889 23.8791 8.32511 24.1738 7.401C23.3929 7.86449 22.5384 8.19091 21.6474 8.36613C21.1015 7.78221 20.3924 7.37611 19.6125 7.20065C18.8325 7.02518 18.0179 7.08846 17.2744 7.38227C16.5309 7.67608 15.8931 8.18682 15.4438 8.84805C14.9946 9.50928 14.7547 10.2904 14.7553 11.0898C14.7525 11.3949 14.7837 11.6994 14.8481 11.9977C13.2632 11.9199 11.7125 11.5085 10.2974 10.7906C8.88224 10.0727 7.63449 9.06425 6.6356 7.83126C6.12217 8.70838 5.9631 9.74848 6.19091 10.739C6.41872 11.7294 7.01621 12.5955 7.86126 13.1602C7.23052 13.1432 6.61313 12.9746 6.06126 12.6688V12.7122C6.06304 13.6316 6.38127 14.5223 6.96247 15.2347C7.54366 15.9471 8.35239 16.4377 9.25271 16.624C8.912 16.7135 8.56089 16.7573 8.20863 16.7543C7.95498 16.759 7.70156 16.7365 7.45271 16.6872C7.71064 17.4779 8.20723 18.1692 8.87416 18.6662C9.54109 19.1631 10.3456 19.4412 11.1771 19.4622C9.76808 20.5635 8.03115 21.1617 6.24284 21.1615C5.9242 21.1642 5.60574 21.1458 5.28955 21.1063C7.11298 22.2819 9.23842 22.9031 11.408 22.8944C18.7402 22.8944 22.7488 16.8214 22.7488 11.5576C22.7488 11.3819 22.7488 11.2122 22.7349 11.0424C23.5156 10.479 24.1871 9.77812 24.7165 8.97402Z" fill="white"/>
</g>
<defs>
<clipPath id="clip0_213_9330">
<rect width="30" height="30" fill="white"/>
</clipPath>
</defs>
</svg>
