<svg width="30" height="30" viewBox="0 0 30 30" fill="none" xmlns="http://www.w3.org/2000/svg">
<g clip-path="url(#clip0_213_9336)">
<path d="M15 30C23.2843 30 30 23.2843 30 15C30 6.71573 23.2843 0 15 0C6.71573 0 0 6.71573 0 15C0 23.2843 6.71573 30 15 30Z" fill="#29A71A"/>
<path d="M21.6137 8.38606C20.0531 6.80986 17.9806 5.84323 15.7701 5.66053C13.5595 5.47782 11.3564 6.09107 9.55818 7.38965C7.75996 8.68824 6.48496 10.5867 5.96319 12.7425C5.44141 14.8984 5.70719 17.1697 6.7126 19.1469L5.72567 23.9383C5.71543 23.986 5.71514 24.0353 5.72481 24.0831C5.73449 24.1309 5.75393 24.1762 5.78192 24.2162C5.82291 24.2768 5.88143 24.3235 5.94965 24.35C6.01788 24.3765 6.09256 24.3815 6.16373 24.3645L10.8598 23.2514C12.8313 24.2314 15.0867 24.48 17.2244 23.9532C19.3621 23.4264 21.2436 22.1583 22.5341 20.3744C23.8246 18.5906 24.4404 16.4067 24.2718 14.2115C24.1033 12.0163 23.1614 9.95202 21.6137 8.38606ZM20.1495 20.0724C19.0697 21.1492 17.6793 21.86 16.1741 22.1046C14.669 22.3492 13.125 22.1154 11.7598 21.4361L11.1052 21.1122L8.22623 21.794L8.23476 21.7582L8.83135 18.8605L8.51089 18.2281C7.81333 16.8581 7.56725 15.3025 7.80792 13.7841C8.04858 12.2657 8.76364 10.8624 9.85067 9.77526C11.2165 8.40983 13.0688 7.64277 15.0001 7.64277C16.9314 7.64277 18.7837 8.40983 20.1495 9.77526C20.1612 9.7886 20.1737 9.80113 20.187 9.81276C21.536 11.1817 22.289 13.0284 22.282 14.9503C22.275 16.8722 21.5084 18.7134 20.1495 20.0724Z" fill="white"/>
<path d="M19.8939 17.9466C19.5411 18.5023 18.9837 19.1824 18.2831 19.3512C17.0559 19.6478 15.1724 19.3614 12.8286 17.1762L12.7996 17.1506C10.7388 15.2398 10.2036 13.6495 10.3331 12.3881C10.4047 11.6722 11.0013 11.0245 11.5042 10.6018C11.5837 10.5339 11.6779 10.4856 11.7794 10.4607C11.881 10.4358 11.9869 10.435 12.0887 10.4583C12.1906 10.4817 12.2856 10.5286 12.3661 10.5952C12.4467 10.6618 12.5105 10.7464 12.5525 10.8421L13.311 12.5466C13.3603 12.6572 13.3785 12.779 13.3638 12.8991C13.3491 13.0193 13.302 13.1331 13.2275 13.2285L12.8439 13.7262C12.7616 13.829 12.712 13.954 12.7014 14.0852C12.6907 14.2165 12.7196 14.3479 12.7843 14.4626C12.9991 14.8393 13.5138 15.3932 14.0849 15.9063C14.7258 16.4858 15.4366 17.016 15.8866 17.1966C16.007 17.2458 16.1394 17.2578 16.2666 17.2311C16.3939 17.2044 16.5103 17.1401 16.6008 17.0466L17.0456 16.5983C17.1315 16.5137 17.2382 16.4533 17.355 16.4234C17.4718 16.3934 17.5944 16.395 17.7104 16.4279L19.5121 16.9393C19.6115 16.9697 19.7026 17.0226 19.7785 17.0936C19.8543 17.1647 19.9129 17.2522 19.9497 17.3494C19.9866 17.4467 20.0007 17.551 19.991 17.6545C19.9814 17.758 19.9482 17.8579 19.8939 17.9466Z" fill="white"/>
</g>
<defs>
<clipPath id="clip0_213_9336">
<rect width="30" height="30" fill="white"/>
</clipPath>
</defs>
</svg>
