<svg width="20" height="20" viewBox="0 0 20 20" fill="none" xmlns="http://www.w3.org/2000/svg">
<path d="M1.80531 6.66238C1.90376 5.39951 2.89966 4.41152 4.16395 4.33323C5.51619 4.24949 7.44676 4.16663 9.79169 4.16663C12.1366 4.16663 14.0672 4.24949 15.4194 4.33323C16.6837 4.41152 17.6796 5.39951 17.7781 6.66238C17.8513 7.60238 17.9167 8.69083 17.9167 9.58329C17.9167 10.4758 17.8513 11.5642 17.7781 12.5042C17.6796 13.7671 16.6837 14.7551 15.4194 14.8333C14.0672 14.9171 12.1366 15 9.79169 15C7.44676 15 5.51619 14.9171 4.16395 14.8333C2.89966 14.7551 1.90376 13.7671 1.80531 12.5042C1.73204 11.5642 1.66669 10.4758 1.66669 9.58329C1.66669 8.69083 1.73204 7.60238 1.80531 6.66238Z" stroke="black" stroke-width="1.5"/>
<path d="M9.4375 10.4234V8.74375L10.6973 9.58357L9.4375 10.4234Z" fill="black" stroke="black" stroke-width="2"/>
</svg>
