<svg width="24" height="24" viewBox="0 0 24 24" fill="none" xmlns="http://www.w3.org/2000/svg">
<path d="M12 11.5C10.619 11.5 9.5 10.381 9.5 9C9.5 7.619 10.619 6.5 12 6.5C13.381 6.5 14.5 7.619 14.5 9C14.5 10.381 13.381 11.5 12 11.5V11.5Z" fill="url(#paint0_linear_336_46)"/>
<path d="M12 2.01001C8.14396 2.01001 5.00696 5.14701 5.00696 9.00301C5.00696 13.486 10.975 20.77 11.229 21.077L12 22.012L12.771 21.077C13.025 20.769 18.993 13.486 18.993 9.00301C18.993 5.14601 15.856 2.01001 12 2.01001V2.01001ZM12 18.827C10.122 16.364 7.00696 11.712 7.00696 9.00301C7.00696 6.25001 9.24696 4.01001 12 4.01001C14.753 4.01001 16.993 6.25001 16.993 9.00301C16.993 11.708 13.878 16.362 12 18.827V18.827Z" fill="url(#paint1_linear_336_46)"/>
<defs>
<linearGradient id="paint0_linear_336_46" x1="12" y1="6.5" x2="12" y2="11.5" gradientUnits="userSpaceOnUse">
<stop stop-color="#ADE8F4"/>
<stop offset="1" stop-color="#46B7CE"/>
</linearGradient>
<linearGradient id="paint1_linear_336_46" x1="12" y1="2.01001" x2="12" y2="22.012" gradientUnits="userSpaceOnUse">
<stop stop-color="#ADE8F4"/>
<stop offset="1" stop-color="#46B7CE"/>
</linearGradient>
</defs>
</svg>
