<svg width="30" height="30" viewBox="0 0 30 30" fill="none" xmlns="http://www.w3.org/2000/svg">
<g clip-path="url(#clip0_213_9294)">
<path d="M15 30C23.2843 30 30 23.2843 30 15C30 6.71573 23.2843 0 15 0C6.71573 0 0 6.71573 0 15C0 23.2843 6.71573 30 15 30Z" fill="#0082FF"/>
<path d="M15 7.10547C10.6401 7.10547 7.10522 10.3818 7.10522 14.4239C7.11372 15.5392 7.38431 16.6369 7.89514 17.6284C8.40598 18.6199 9.14276 19.4775 10.046 20.1318L10.0776 22.7114C10.0782 22.7432 10.0871 22.7743 10.1034 22.8017C10.1196 22.829 10.1427 22.8517 10.1704 22.8674C10.1981 22.8831 10.2294 22.8914 10.2612 22.8914C10.293 22.8913 10.3243 22.8831 10.3519 22.8673L12.8171 21.468C13.5293 21.6564 14.2632 21.7506 15 21.7482C19.3598 21.7482 22.8947 18.4719 22.8947 14.4298C22.8947 10.3877 19.3598 7.10547 15 7.10547ZM15.5921 16.7765L13.9046 15.0199C13.8562 14.97 13.7928 14.9372 13.724 14.9265C13.6553 14.9158 13.5849 14.9278 13.5236 14.9607L10.5631 16.5555C10.5395 16.5667 10.5127 16.5694 10.4872 16.5633C10.4618 16.5571 10.4392 16.5424 10.4233 16.5217C10.4074 16.5009 10.399 16.4753 10.3997 16.4491C10.4004 16.4229 10.41 16.3978 10.4269 16.3778L13.9342 12.6811C13.9578 12.6558 13.9864 12.6357 14.0181 12.6219C14.0499 12.6081 14.0841 12.601 14.1187 12.601C14.1533 12.601 14.1876 12.6081 14.2193 12.6219C14.251 12.6357 14.2796 12.6558 14.3033 12.6811L15.9868 14.4713C16.0349 14.5223 16.0986 14.556 16.1678 14.567C16.2371 14.5781 16.3081 14.5659 16.3697 14.5324L19.2809 12.9535C19.3046 12.9389 19.3329 12.9336 19.3603 12.9387C19.3877 12.9437 19.4122 12.9587 19.4292 12.9808C19.4461 13.0029 19.4542 13.0305 19.452 13.0583C19.4498 13.0861 19.4373 13.112 19.4171 13.1311L15.9671 16.7864C15.9435 16.8127 15.9147 16.8339 15.8825 16.8484C15.8503 16.8629 15.8153 16.8705 15.78 16.8707C15.7447 16.8709 15.7097 16.8637 15.6773 16.8495C15.6449 16.8353 15.6159 16.8145 15.5921 16.7884V16.7765Z" fill="white"/>
</g>
<defs>
<clipPath id="clip0_213_9294">
<rect width="30" height="30" fill="white"/>
</clipPath>
</defs>
</svg>
