<svg width="30" height="30" viewBox="0 0 30 30" fill="none" xmlns="http://www.w3.org/2000/svg">
<g clip-path="url(#clip0_212_9023)">
<path d="M27.9887 7.47057C26.6474 5.17254 24.8279 3.35304 22.5298 2.01173C20.2313 0.670485 17.7221 0 15.0004 0C12.279 0 9.76914 0.670485 7.47105 2.01173C5.17281 3.35284 3.35332 5.17234 2.01194 7.47057C0.670486 9.76893 0 12.2788 0 15C0 17.7214 0.670691 20.2309 2.01173 22.5294C3.35304 24.8274 5.17254 26.6469 7.47077 27.9883C9.76914 29.3295 12.2788 30.0001 15.0002 30.0001C17.7215 30.0001 20.2315 29.3295 22.5297 27.9883C24.8278 26.6474 26.6472 24.8274 27.9885 22.5294C29.3295 20.2311 29.9999 17.7212 29.9999 15C30 12.2786 29.3295 9.76859 27.9887 7.47057ZM15.0002 2.18754C18.2293 2.18754 21.0484 3.25522 23.4571 5.3905L23.213 5.73207C23.1154 5.86902 22.8712 6.1324 22.4807 6.52323C22.0902 6.91371 21.6637 7.28504 21.2015 7.63653C20.7389 7.98816 20.1111 8.38849 19.3165 8.83774C18.5222 9.28699 17.6759 9.6811 16.7773 10.0196C15.28 7.25891 13.6786 4.77193 11.9728 2.55853C13.0016 2.31116 14.0107 2.18754 15.0002 2.18754ZM4.96136 7.05032C6.21128 5.47512 7.73449 4.26399 9.53155 3.41776C11.1461 5.56617 12.7345 8.02729 14.2971 10.8006C10.3388 11.8423 6.39359 12.3632 2.46125 12.363C2.87814 10.3969 3.71144 8.62587 4.96136 7.05032ZM3.04698 19.6196C2.47398 18.1548 2.18754 16.6148 2.18754 15C2.18754 14.8177 2.19425 14.6809 2.20711 14.5898C6.92089 14.5898 11.3025 13.9846 15.352 12.7734C15.7688 13.5806 16.1138 14.3033 16.3873 14.9415C16.3345 14.9675 16.2505 14.9966 16.1332 15.0292C16.0156 15.0618 15.9312 15.0844 15.8787 15.0976L15.1562 15.3515C14.6612 15.5338 14.0132 15.8464 13.2128 16.2889C12.4121 16.732 11.5625 17.2591 10.664 17.8712C9.76551 18.4834 8.83774 19.2939 7.88082 20.3034C6.92377 21.3124 6.11975 22.3961 5.46869 23.5549C4.42701 22.3961 3.61984 21.0839 3.04698 19.6196ZM15.0002 27.8127C11.9533 27.8127 9.23192 26.836 6.836 24.8831L7.129 25.098C7.58467 24.0951 8.25516 23.1315 9.14079 22.2072C10.0263 21.2829 10.8791 20.5371 11.6994 19.9706C12.5197 19.4045 13.4116 18.8707 14.3752 18.3688C15.3387 17.8678 15.9959 17.5485 16.3478 17.4122C16.6995 17.2756 16.9795 17.1679 17.1878 17.0896L17.2266 17.07H17.266C18.5416 20.4163 19.4535 23.6587 20.0002 26.7968C18.3856 27.4742 16.7192 27.8125 15.0002 27.8127ZM25.7821 21.9239C24.8184 23.415 23.6137 24.649 22.1688 25.6252C21.6346 22.6305 20.8017 19.5767 19.6685 16.465C22.2597 16.0609 24.9224 16.25 27.6568 17.031C27.3703 18.8018 26.7452 20.4331 25.7821 21.9239ZM27.6175 14.8243C27.4873 14.7984 27.3244 14.7689 27.1291 14.7365C26.9339 14.7042 26.696 14.6649 26.416 14.6193C26.1364 14.5738 25.8234 14.5316 25.4787 14.4924C25.1335 14.4534 24.7658 14.4177 24.3748 14.3851C23.9843 14.3524 23.5676 14.3266 23.1251 14.3069C22.6819 14.2875 22.2329 14.2776 21.7771 14.2776C21.3217 14.2776 20.8428 14.2908 20.3418 14.3167C19.8406 14.3423 19.3557 14.3884 18.887 14.4534C18.8477 14.3882 18.799 14.2808 18.7404 14.131C18.6819 13.9813 18.6392 13.8672 18.614 13.7891C18.3663 13.2422 18.0797 12.6237 17.7539 11.9338C18.6524 11.5689 19.5087 11.1492 20.323 10.6738C21.1365 10.1984 21.7871 9.7755 22.2757 9.40445C22.7641 9.03298 23.2263 8.63908 23.6624 8.22253C24.0988 7.80591 24.3816 7.51633 24.5122 7.35352C24.6426 7.19043 24.7662 7.03103 24.8833 6.87499L24.9029 6.85529C26.8039 9.17302 27.7744 11.8422 27.8129 14.8633L27.6175 14.8243Z" fill="#242424" fill-opacity="0.4"/>
</g>
<defs>
<clipPath id="clip0_212_9023">
<rect width="30" height="30" fill="white"/>
</clipPath>
</defs>
</svg>
