<svg width="20" height="20" viewBox="0 0 20 20" fill="none" xmlns="http://www.w3.org/2000/svg">
<circle opacity="0.25" cx="10" cy="10" r="10" fill="#12131A"/>
<path fill-rule="evenodd" clip-rule="evenodd" d="M10 14C12.2091 14 14 12.2091 14 10C14 7.79085 12.2091 6 10 6C7.79085 6 6 7.79085 6 10C6 12.2091 7.79085 14 10 14ZM10 15C12.7614 15 15 12.7614 15 10C15 7.23859 12.7614 5 10 5C7.23859 5 5 7.23859 5 10C5 12.7614 7.23859 15 10 15Z" fill="black"/>
<path fill-rule="evenodd" clip-rule="evenodd" d="M10.8733 13.0883C11.2427 12.3496 11.5 11.2591 11.5 10C11.5 8.74088 11.2427 7.65037 10.8733 6.91168C10.4741 6.11316 10.1075 6 10 6C9.89248 6 9.52592 6.11316 9.12667 6.91168C8.75731 7.65037 8.5 8.74088 8.5 10C8.5 11.2591 8.75731 12.3496 9.12667 13.0883C9.52592 13.8868 9.89248 14 10 14C10.1075 14 10.4741 13.8868 10.8733 13.0883ZM10 15C11.3807 15 12.5 12.7614 12.5 10C12.5 7.23859 11.3807 5 10 5C8.61928 5 7.5 7.23859 7.5 10C7.5 12.7614 8.61928 15 10 15Z" fill="black"/>
<path fill-rule="evenodd" clip-rule="evenodd" d="M14.9753 10.5C14.9917 10.3355 15 10.1687 15 10C15 9.83125 14.9917 9.66445 14.9753 9.5H5.02469C5.00836 9.66445 5 9.83125 5 10C5 10.1687 5.00836 10.3355 5.02469 10.5H14.9753Z" fill="black"/>
</svg>
