<svg width="18" height="22" viewBox="0 0 18 22" fill="none" xmlns="http://www.w3.org/2000/svg">
<path fill-rule="evenodd" clip-rule="evenodd" d="M5.99858 9.03956C6.02798 9.59107 5.60474 10.062 5.05324 10.0914C4.30055 10.1315 3.7044 10.1806 3.23854 10.2297C2.61292 10.2957 2.23278 10.68 2.16959 11.2328C2.07886 12.0264 2 13.2275 2 14.9997C2 16.772 2.07886 17.973 2.16959 18.7666C2.23289 19.3204 2.61207 19.7036 3.23675 19.7695C4.33078 19.885 6.13925 19.9997 9 19.9997C11.8608 19.9997 13.6692 19.885 14.7632 19.7695C15.3879 19.7036 15.7671 19.3204 15.8304 18.7666C15.9211 17.973 16 16.7719 16 14.9997C16 13.2275 15.9211 12.0264 15.8304 11.2328C15.7672 10.68 15.3871 10.2957 14.7615 10.2297C14.2956 10.1806 13.6995 10.1315 12.9468 10.0914C12.3953 10.062 11.972 9.59107 12.0014 9.03956C12.0308 8.48806 12.5017 8.06482 13.0532 8.09422C13.8361 8.13595 14.4669 8.18757 14.9712 8.24075C16.4556 8.3973 17.6397 9.4504 17.8175 11.0056C17.9188 11.892 18 13.1712 18 14.9997C18 16.8282 17.9188 18.1074 17.8175 18.9938C17.6398 20.5481 16.4585 21.6017 14.9732 21.7585C13.7919 21.8831 11.9108 21.9997 9 21.9997C6.08922 21.9997 4.20806 21.8831 3.02684 21.7585C1.54151 21.6017 0.360208 20.5481 0.182529 18.9938C0.081204 18.1074 0 16.8282 0 14.9997C0 13.1712 0.0812039 11.892 0.182529 11.0056C0.360314 9.4504 1.54436 8.3973 3.02877 8.24075C3.53306 8.18757 4.16393 8.13595 4.94676 8.09422C5.49827 8.06482 5.96918 8.48806 5.99858 9.03956Z" fill="#12131A"/>
<path fill-rule="evenodd" clip-rule="evenodd" d="M6.20711 5.20711C5.81658 5.59763 5.18342 5.59763 4.79289 5.20711C4.40237 4.81658 4.40237 4.18342 4.79289 3.79289L8.29289 0.292893C8.68342 -0.0976311 9.31658 -0.0976311 9.70711 0.292893L13.2071 3.79289C13.5976 4.18342 13.5976 4.81658 13.2071 5.20711C12.8166 5.59763 12.1834 5.59763 11.7929 5.20711L10 3.41421V13C10 13.5523 9.55228 14 9 14C8.44772 14 8 13.5523 8 13L8 3.41421L6.20711 5.20711Z" fill="#12131A"/>
</svg>
