<svg width="21" height="21" viewBox="0 0 21 21" fill="none" xmlns="http://www.w3.org/2000/svg">
<path d="M0 3.15C0 1.41031 1.41031 0 3.15 0H17.85C19.5897 0 21 1.41031 21 3.15V17.85C21 19.5897 19.5897 21 17.85 21H3.15C1.41031 21 0 19.5897 0 17.85V3.15Z" fill="white"/>
<path d="M10.5 5C7.46263 5 5 7.46263 5 10.5C5 11.5318 5.28982 12.4938 5.78418 13.3189L5.04924 16L7.7876 15.2812C8.58845 15.7365 9.51297 16 10.5 16C13.5374 16 16 13.5374 16 10.5C16 7.46263 13.5374 5 10.5 5ZM8.61743 7.93441C8.70681 7.93441 8.79864 7.93386 8.87793 7.93799C8.97601 7.94028 9.08277 7.94746 9.18498 8.17342C9.30644 8.442 9.5709 9.11579 9.60482 9.18408C9.63873 9.25237 9.66277 9.33283 9.61556 9.4222C9.57064 9.51387 9.54728 9.56935 9.48128 9.65047C9.41299 9.72931 9.33816 9.82722 9.27629 9.8868C9.20799 9.95509 9.13748 10.03 9.21631 10.1661C9.29514 10.3022 9.56892 10.7485 9.97363 11.1087C10.4938 11.5735 10.9328 11.7163 11.0693 11.7846C11.2059 11.8529 11.285 11.8422 11.3639 11.7506C11.445 11.6612 11.7046 11.3545 11.7962 11.2179C11.8856 11.0814 11.9768 11.105 12.1006 11.1499C12.2262 11.1948 12.8959 11.5247 13.0325 11.593C13.1691 11.6613 13.2586 11.6951 13.293 11.7506C13.3283 11.8079 13.3283 12.0806 13.2151 12.3987C13.1019 12.7163 12.546 13.0235 12.2966 13.045C12.045 13.0684 11.8102 13.1581 10.6611 12.7057C9.27513 12.1599 8.40106 10.7403 8.33276 10.6486C8.26447 10.5592 7.77775 9.91054 7.77775 9.24137C7.77775 8.56992 8.1298 8.24108 8.25309 8.10449C8.37868 7.96791 8.52577 7.93441 8.61743 7.93441Z" fill="url(#paint0_linear_289_172)"/>
<defs>
<linearGradient id="paint0_linear_289_172" x1="10.5" y1="5" x2="10.5" y2="16" gradientUnits="userSpaceOnUse">
<stop stop-color="#76C893"/>
<stop offset="1" stop-color="#99D98C"/>
</linearGradient>
</defs>
</svg>
