<svg width="21" height="21" viewBox="0 0 21 21" fill="none" xmlns="http://www.w3.org/2000/svg">
<g opacity="0.25">
<rect width="21" height="21" rx="4" fill="white"/>
</g>
<path d="M10.545 10.1679C9.64744 10.1679 8.92017 9.44061 8.92017 8.54305C8.92017 7.64549 9.64744 6.91821 10.545 6.91821C11.4426 6.91821 12.1698 7.64549 12.1698 8.54305C12.1698 9.44061 11.4426 10.1679 10.545 10.1679V10.1679Z" fill="white"/>
<path d="M10.545 4C8.03885 4 6 6.03885 6 8.545C6 11.4587 9.87881 16.1928 10.0439 16.3923L10.545 17L11.0461 16.3923C11.2112 16.1921 15.09 11.4587 15.09 8.545C15.09 6.0382 13.0511 4 10.545 4V4ZM10.545 14.93C9.32442 13.3292 7.29987 10.3057 7.29987 8.545C7.29987 6.75573 8.75572 5.29987 10.545 5.29987C12.3343 5.29987 13.7901 6.75572 13.7901 8.545C13.7901 10.3031 11.7656 13.3279 10.545 14.93V14.93Z" fill="white"/>
</svg>
