<svg width="17" height="18" viewBox="0 0 17 18" fill="none" xmlns="http://www.w3.org/2000/svg">
<path fill-rule="evenodd" clip-rule="evenodd" d="M2.82379 1.66449C3.83674 0.651544 5.512 0.770603 6.37152 1.91662L7.79825 3.81894C8.50113 4.75611 8.40793 6.06751 7.57958 6.89586L6.52769 7.94775C6.62963 8.2131 6.96522 8.79539 7.98717 9.81734C9.00911 10.8393 9.5914 11.1749 9.85674 11.2768L10.9086 10.2249C11.737 9.39657 13.0484 9.30336 13.9856 10.0062L15.8879 11.433C17.0339 12.2925 17.153 13.9678 16.14 14.9807C15.8107 15.31 15.755 15.3658 15.2054 15.9153C14.6453 16.4754 13.456 16.999 12.2519 17.0513C10.3677 17.1332 7.80829 16.2966 4.65811 13.1464C1.50793 9.99621 0.671273 7.43681 0.753196 5.55258C0.798768 4.50442 1.13201 3.35321 1.89355 2.6035C2.43874 2.04954 2.50964 1.97864 2.82379 1.66449ZM2.32105 5.62075C2.26426 6.92686 2.81471 9.08362 5.7678 12.0367C8.72089 14.9898 10.8776 15.5402 12.1838 15.4835C13.403 15.4304 14.0571 14.8413 14.0957 14.8056L15.0303 13.871C15.368 13.5334 15.3283 12.975 14.9463 12.6885L13.044 11.2617C12.7316 11.0274 12.2944 11.0585 12.0183 11.3346C11.6023 11.7506 11.3183 12.0388 10.7624 12.5926C9.6077 13.743 7.63106 11.6806 6.87748 10.927C6.18495 10.2345 4.07446 8.1951 5.21078 7.04531C5.21302 7.04305 5.51909 6.73699 6.4699 5.78618C6.74601 5.51006 6.77708 5.07293 6.54279 4.76054L5.11605 2.85822C4.82955 2.47621 4.27112 2.43653 3.93348 2.77418C3.62271 3.08494 3.271 3.43665 2.99979 3.70973C2.44161 4.27178 2.35092 4.93369 2.32105 5.62075Z" fill="#12131A"/>
</svg>
