<svg width="30" height="21" viewBox="0 0 30 21" fill="none" xmlns="http://www.w3.org/2000/svg">
<path fill-rule="evenodd" clip-rule="evenodd" d="M15 3C10.7291 3 7.21697 3.15095 4.76484 3.3028C3.68508 3.36967 2.83406 4.20243 2.74836 5.30184C2.61455 7.01834 2.5 8.95097 2.5 10.5C2.5 12.049 2.61455 13.9817 2.74836 15.6982C2.83406 16.7976 3.68508 17.6303 4.76484 17.6972C7.21697 17.849 10.7291 18 15 18C19.2709 18 22.783 17.849 25.2352 17.6972C26.3149 17.6303 27.1659 16.7976 27.2516 15.6982C27.3854 13.9817 27.5 12.049 27.5 10.5C27.5 8.95097 27.3854 7.01834 27.2516 5.30184C27.1659 4.20243 26.3149 3.36967 25.2352 3.3028C22.783 3.15095 19.2709 3 15 3ZM4.61032 0.807581C2.27626 0.952118 0.437667 2.77608 0.255922 5.10755C0.120644 6.84292 0 8.85243 0 10.5C0 12.1476 0.120644 14.1571 0.255922 15.8924C0.437667 18.2239 2.27625 20.0479 4.61032 20.1924C7.10677 20.347 10.6709 20.5 15 20.5C19.3291 20.5 22.8932 20.347 25.3897 20.1924C27.7237 20.0479 29.5623 18.2239 29.7441 15.8924C29.8794 14.1571 30 12.1476 30 10.5C30 8.85243 29.8794 6.84292 29.7441 5.10755C29.5623 2.77608 27.7237 0.952119 25.3897 0.807581C22.8932 0.652988 19.3291 0.5 15 0.5C10.6709 0.5 7.10677 0.652987 4.61032 0.807581Z" fill="black"/>
<path d="M14.4434 6.79602L18.44 9.46038C19.1821 9.95515 19.1821 11.0457 18.44 11.5405L14.4434 14.2049C13.6127 14.7587 12.5001 14.1632 12.5001 13.1648L12.5001 7.83609C12.5001 6.83772 13.6127 6.24223 14.4434 6.79602Z" fill="black"/>
</svg>
