<svg xmlns="http://www.w3.org/2000/svg" x="0px" y="0px"
width="64" height="64"
viewBox="0 0 172 172"
style=" fill:#000000;"><g fill="none" fill-rule="nonzero" stroke="none" stroke-width="1" stroke-linecap="butt" stroke-linejoin="miter" stroke-miterlimit="10" stroke-dasharray="" stroke-dashoffset="0" font-family="none" font-weight="none" font-size="none" text-anchor="none" style="mix-blend-mode: normal"><path d="M0,172v-172h172v172z" fill="none"></path><g fill="#333333"><path d="M63.67091,147.5414c-14.8004,0.00034 -42.48198,-5.1731 -50.07686,-14.08082c-0.79987,-0.93827 -1.02159,-2.23869 -0.57781,-3.38894c0.44377,-1.15025 1.48182,-1.9649 2.7043,-2.12245c2.0939,-0.27009 4.02252,-0.48946 5.88764,-0.70177c5.71228,-0.65004 10.64552,-1.21105 16.55836,-2.86118c3.37785,-0.95205 5.82516,-1.92929 8.10684,-3.01705c-3.24717,-0.4982 -6.73555,-1.3283 -9.98037,-2.89141c-6.76477,-3.25927 -11.04025,-8.9833 -12.70751,-17.01355c-0.2019,-0.9722 0.03662,-1.98337 0.65105,-2.76309c0.61477,-0.77937 1.54229,-1.24734 2.53465,-1.27791l0.5758,-0.01747c1.47208,-0.04367 3.60528,-0.10716 5.79492,-0.28454c-9.18655,-5.42573 -16.88086,-13.06528 -16.34302,-26.70703c0.03998,-1.01252 0.53481,-1.95314 1.34644,-2.55951c0.81196,-0.60637 1.8537,-0.81364 2.83632,-0.56471c1.62762,0.41287 2.88134,0.82271 3.98758,1.18418c0.09171,0.03023 0.18241,0.0598 0.27245,0.08902c-7.29757,-9.29237 -11.97147,-17.86919 -3.90662,-35.25127c0.42563,-0.91711 1.24163,-1.59402 2.22155,-1.84262c0.98094,-0.24826 2.02066,-0.04199 2.83128,0.56135c3.78198,2.81415 6.71875,5.54834 9.55944,8.19251c4.59697,4.27951 8.93862,8.32151 16.50528,12.31648c7.84851,4.1579 18.67073,7.28951 28.53285,8.34738c-1.16268,-17.96325 9.68911,-29.34985 19.95032,-33.79095c5.92862,-2.56623 12.50225,-3.2895 18.51016,-2.03511c6.0116,1.25473 11.29086,4.38062 15.36713,9.07972c4.45688,-0.28588 7.81659,-1.85404 11.64595,-3.64123c1.54195,-0.71958 3.13598,-1.46368 4.83851,-2.12917c1.18284,-0.46259 2.52726,-0.21769 3.47191,0.63291c0.94432,0.85093 1.32729,2.16209 0.99001,3.38759c-0.92752,3.36811 -2.46679,5.98573 -4.15118,8.22039c0.25598,-0.07391 0.51096,-0.14781 0.7656,-0.22138l2.54305,-0.73503c1.28765,-0.37222 2.67037,0.0561 3.5223,1.0881c0.85261,1.032 1.01084,2.47183 0.40279,3.66474c-3.21895,6.3163 -6.86186,8.98935 -9.52181,10.94115c-2.65794,1.95045 -3.75813,2.75737 -4.04737,6.3042c-1.81709,22.32641 -9.94241,43.00269 -22.87869,58.21898c-14.26424,16.77773 -33.57494,26.3197 -55.8439,27.59357c-0.8899,0.05106 -1.85438,0.07592 -2.87932,0.07592zM25.82553,133.52172c10.64788,4.50291 29.29543,7.85993 40.34441,7.23677c45.75234,-2.61729 69.3338,-41.89006 72.4073,-79.65011c0.53884,-6.60352 3.70573,-8.92787 6.76847,-11.17563c0.38196,-0.27984 0.7656,-0.56169 1.15092,-0.85563c-1.1432,0.32754 -2.2874,0.6534 -3.4269,0.97623c-1.35719,0.38498 -2.81113,-0.11993 -3.63787,-1.2638c-0.82708,-1.14353 -0.85093,-2.68213 -0.06013,-3.85085c1.27488,-1.88394 2.6922,-3.48266 4.06249,-5.02898c0.36147,-0.40749 0.71588,-0.80726 1.06089,-1.20434c-3.20148,1.25271 -6.74395,2.20106 -11.14842,2.2014c-0.03259,0 -0.06383,0 -0.09641,0c-1.03771,-0.00336 -2.01596,-0.4861 -2.64987,-1.3078c-6.32973,-8.20729 -16.92688,-10.6939 -26.9956,-6.33612c-8.82709,3.82062 -18.18497,14.16884 -15.50788,30.75911c0.16125,1.00076 -0.13773,2.021 -0.81398,2.77619c-0.67624,0.75519 -1.65785,1.16705 -2.6697,1.1143c-11.73094,-0.5842 -25.58735,-4.28656 -35.30132,-9.43245c-8.35107,-4.40918 -13.2272,-8.94837 -17.94242,-13.3384c-1.77341,-1.65113 -3.5868,-3.33888 -5.60613,-5.03604c-4.7085,12.65645 -0.24792,18.15843 7.29656,27.46591c0.93827,1.15764 1.9088,2.35492 2.90687,3.62275c0.80423,1.02159 0.94667,2.41539 0.36584,3.57841c-0.58084,1.16302 -1.77946,1.88562 -3.08021,1.85773c-4.76796,-0.10582 -7.14304,-0.73201 -9.53659,-1.49895c1.32527,9.35015 8.46831,14.50847 20.46834,20.1539c1.12539,0.52944 1.86613,1.63736 1.92526,2.87932c0.05912,1.24196 -0.57244,2.41539 -1.64206,3.04998c-3.1437,1.86445 -8.1522,2.48829 -13.15968,2.75704c3.60696,9.03705 12.06184,10.55415 21.84366,11.40071c2.00655,0.17368 3.73966,0.32351 5.24197,0.6188c1.42337,0.27984 2.50609,1.44184 2.68548,2.88134c0.17939,1.43916 -0.58554,2.83128 -1.8967,3.45142c-2.10028,0.9937 -3.84884,1.92123 -5.53961,2.81784c-3.85555,2.04485 -7.49745,3.97616 -13.66157,5.71329c-5.17075,1.44319 -9.53088,2.10734 -14.1554,2.66667z"></path></g></g></svg>