<svg width="20" height="20" viewBox="0 0 20 20" fill="none" xmlns="http://www.w3.org/2000/svg">
<path d="M11.1667 7.16667V5H12.25C12.8483 5 13.3333 5.48503 13.3333 6.08333C13.3333 6.68164 12.8483 7.16667 12.25 7.16667H11.1667ZM8.08333 9.16667H9.16667V11.3333H8.08333C7.48503 11.3333 7 10.8483 7 10.25C7 9.65169 7.48502 9.16667 8.08333 9.16667Z" fill="#7678ED" stroke="#7678ED" stroke-width="2"/>
<path opacity="0.25" d="M6 6.08333C6 4.93274 6.93274 4 8.08333 4H10.1667V8.16667H8.08333C6.93274 8.16667 6 7.23393 6 6.08333Z" fill="#7678ED" fill-opacity="0.5"/>
<path opacity="0.25" d="M10.1666 10.2503C10.1666 9.09973 11.0994 8.16699 12.25 8.16699C13.4005 8.16699 14.3333 9.09973 14.3333 10.2503C14.3333 11.4009 13.4005 12.3337 12.25 12.3337C11.0994 12.3337 10.1666 11.4009 10.1666 10.2503Z" fill="#7678ED" fill-opacity="0.5"/>
<path opacity="0.25" d="M8.08333 12.333C6.93274 12.333 6 13.2658 6 14.4163C6 15.5669 6.93274 16.4997 8.08333 16.4997C9.23391 16.4997 10.1667 15.5669 10.1667 14.4163V12.333H8.08333Z" fill="#7678ED" fill-opacity="0.5"/>
<rect x="0.75" y="0.75" width="18.5" height="18.5" rx="3.25" stroke="#7678ED" stroke-width="1.5"/>
</svg>
