<svg width="20" height="20" viewBox="0 0 20 20" fill="none" xmlns="http://www.w3.org/2000/svg">
<path d="M1.80525 6.66275C1.9037 5.39987 2.89959 4.41189 4.16389 4.3336C5.51613 4.24986 7.4467 4.16699 9.79163 4.16699C12.1366 4.16699 14.0671 4.24986 15.4193 4.3336C16.6837 4.41189 17.6796 5.39987 17.778 6.66275C17.8513 7.60274 17.9166 8.6912 17.9166 9.58366C17.9166 10.4761 17.8513 11.5646 17.778 12.5046C17.6796 13.7674 16.6837 14.7554 15.4193 14.8337C14.0671 14.9175 12.1366 15.0003 9.79163 15.0003C7.4467 15.0003 5.51613 14.9175 4.16389 14.8337C2.89959 14.7554 1.9037 13.7674 1.80525 12.5046C1.73197 11.5646 1.66663 10.4761 1.66663 9.58366C1.66663 8.6912 1.73197 7.60274 1.80525 6.66275Z" stroke="#7678ED" stroke-width="1.5"/>
<path d="M9.4375 10.4241V8.74448L10.6973 9.5843L9.4375 10.4241Z" fill="#7678ED" stroke="#7678ED" stroke-width="2"/>
</svg>
