<svg width="30" height="26" viewBox="0 0 30 26" fill="none" xmlns="http://www.w3.org/2000/svg">
<g clip-path="url(#clip0_37_2486)">
<path opacity="0.4" d="M4.93421 25.1711H24.671C27.9605 25.1711 29.6053 23.5263 29.6053 20.2368V5.43421C29.6053 2.14473 27.9605 0.5 24.671 0.5H4.93421C1.64473 0.5 0 2.14473 0 5.43421V20.2368C0 23.5263 1.64473 25.1711 4.93421 25.1711Z" fill="#ADD9FF"/>
<path d="M14.8027 14.503C14.2106 14.503 13.6151 14.3188 13.1101 13.952L5.0314 8.07534C4.48041 7.67567 4.35863 6.90264 4.75995 6.35165C5.15962 5.80231 5.92747 5.67732 6.48339 6.08029L14.5625 11.9552C14.7072 12.0589 14.8996 12.0606 15.0444 11.9552L23.1235 6.08029C23.6778 5.67732 24.4473 5.80231 24.8469 6.35165C25.2483 6.90264 25.1265 7.67403 24.5755 8.07534L16.4968 13.9503C15.9902 14.3204 15.3948 14.503 14.8027 14.503Z" fill="#ADD9FF"/>
</g>
<defs>
<clipPath id="clip0_37_2486">
<rect width="30" height="25.2632" fill="white" transform="translate(0 0.5)"/>
</clipPath>
</defs>
</svg>
