<svg width="30" height="31" viewBox="0 0 30 31" fill="none" xmlns="http://www.w3.org/2000/svg">
<path d="M12.1195 17.0603C12.0295 17.0603 10.0495 17.0603 9.14953 17.0603C8.66953 17.0603 8.51953 16.8803 8.51953 16.4303C8.51953 15.2303 8.51953 14.0003 8.51953 12.8003C8.51953 12.3203 8.69953 12.1703 9.14953 12.1703H12.1195C12.1195 12.0803 12.1195 10.3403 12.1195 9.53027C12.1195 8.33027 12.3295 7.19027 12.9295 6.14027C13.5595 5.06027 14.4595 4.34027 15.5995 3.92027C16.3495 3.65027 17.0995 3.53027 17.9095 3.53027H20.8495C21.2695 3.53027 21.4495 3.71027 21.4495 4.13027V7.55027C21.4495 7.97027 21.2695 8.15027 20.8495 8.15027C20.0395 8.15027 19.2295 8.15027 18.4195 8.18027C17.6095 8.18027 17.1895 8.57027 17.1895 9.41027C17.1595 10.3103 17.1895 11.1803 17.1895 12.1103H20.6695C21.1495 12.1103 21.3295 12.2903 21.3295 12.7703V16.4003C21.3295 16.8803 21.1795 17.0303 20.6695 17.0303C19.5895 17.0303 17.2795 17.0303 17.1895 17.0303V26.8103C17.1895 27.3203 17.0395 27.5003 16.4995 27.5003C15.2395 27.5003 14.0095 27.5003 12.7495 27.5003C12.2995 27.5003 12.1195 27.3203 12.1195 26.8703C12.1195 23.7203 12.1195 17.1503 12.1195 17.0603Z" fill="#ADD9FF"/>
</svg>
