<svg width="30" height="31" viewBox="0 0 30 31" fill="none" xmlns="http://www.w3.org/2000/svg">
<path fill-rule="evenodd" clip-rule="evenodd" d="M6.875 15.4998C6.875 13.5439 8.46061 11.9583 10.4167 11.9583H13.9584V19.0415H10.4167C8.46065 19.0415 6.875 17.4558 6.875 15.4998ZM10.4167 10.7083H13.9584V3.625H10.4167C8.46066 3.625 6.875 5.21066 6.875 7.16666C6.875 9.12268 8.46065 10.7083 10.4167 10.7083ZM22.2916 7.16666C22.2916 9.12268 20.706 10.7083 18.75 10.7083H15.2084V3.625H18.75C20.706 3.625 22.2916 5.21066 22.2916 7.16666ZM15.2084 15.4998C15.2084 13.5439 16.794 11.9583 18.75 11.9583C20.706 11.9583 22.2916 13.5439 22.2916 15.4998C22.2916 17.4558 20.706 19.0415 18.75 19.0415C16.794 19.0415 15.2084 17.4558 15.2084 15.4998ZM10.4167 20.2915H13.9584V23.8335C13.9584 25.7895 12.3727 27.3753 10.4167 27.3753C8.46066 27.3753 6.875 25.7895 6.875 23.8335C6.875 21.8775 8.46074 20.2915 10.4167 20.2915Z" fill="#ADD9FF"/>
</svg>
