<svg width="30" height="31" viewBox="0 0 30 31" fill="none" xmlns="http://www.w3.org/2000/svg">
<path d="M27.0002 27.4998V18.7098C27.0002 14.3898 26.0702 11.0898 21.0302 11.0898C18.6002 11.0898 16.9802 12.4098 16.3202 13.6698H16.2602V11.4798H11.4902V27.4998H16.4702V19.5498C16.4702 17.4498 16.8602 15.4398 19.4402 15.4398C21.9902 15.4398 22.0202 17.8098 22.0202 19.6698V27.4698H27.0002V27.4998Z" fill="#ADD9FF"/>
<path d="M3.39062 11.4805H8.37063V27.5005H3.39062V11.4805Z" fill="#ADD9FF"/>
<path d="M5.88 3.5C4.29 3.5 3 4.79 3 6.38C3 7.97 4.29 9.29 5.88 9.29C7.47 9.29 8.76 7.97 8.76 6.38C8.76 4.79 7.47 3.5 5.88 3.5Z" fill="#ADD9FF"/>
</svg>
