<svg width="30" height="31" viewBox="0 0 30 31" fill="none" xmlns="http://www.w3.org/2000/svg">
<g clip-path="url(#clip0_37_2512)">
<mask id="mask0_37_2512" style="mask-type:luminance" maskUnits="userSpaceOnUse" x="0" y="0" width="30" height="31">
<path d="M30 0.5H0V30.5H30V0.5Z" fill="white"/>
</mask>
<g mask="url(#mask0_37_2512)">
<path d="M29.1833 22.517L24.9967 18.3304C23.5015 16.8352 20.9596 17.4333 20.3615 19.377C19.913 20.7228 18.4178 21.4704 17.0721 21.1713C14.0816 20.4237 10.0446 16.5361 9.29692 13.3962C8.84836 12.0504 9.74549 10.5552 11.0912 10.1067C13.035 9.50864 13.6331 6.96679 12.1379 5.47158L7.95124 1.28499C6.75507 0.238338 4.96081 0.238338 3.91417 1.28499L1.07327 4.12589C-1.76763 7.11631 1.37231 15.0409 8.3998 22.0684C15.4273 29.0959 23.352 32.3854 26.3424 29.3949L29.1833 26.554C30.23 25.3579 30.23 23.5636 29.1833 22.517Z" fill="#ADD9FF"/>
</g>
</g>
<defs>
<clipPath id="clip0_37_2512">
<rect width="30" height="30" fill="white" transform="translate(0 0.5)"/>
</clipPath>
</defs>
</svg>
