<svg width="30" height="31" viewBox="0 0 30 31" fill="none" xmlns="http://www.w3.org/2000/svg">
<g clip-path="url(#clip0_37_2518)">
<path d="M15.4074 0.5C7.18519 0.5 2.8125 5.76899 2.8125 11.5142C2.8125 14.1787 4.30131 17.5014 6.68455 18.5552C7.04644 18.7183 7.24332 18.6489 7.32395 18.3133C7.3952 18.0583 7.70834 16.8301 7.86022 16.2507C7.9071 16.0651 7.88272 15.9038 7.73272 15.7294C6.94143 14.8144 6.31328 13.1474 6.31328 11.5836C6.31328 7.57657 9.49905 3.68577 14.9199 3.68577C19.6076 3.68577 22.8871 6.7309 22.8871 11.0867C22.8871 16.0088 20.2826 19.414 16.8981 19.414C15.0249 19.414 13.6298 17.9439 14.0723 16.1251C14.6067 13.9594 15.6549 11.6305 15.6549 10.0686C15.6549 8.66787 14.8636 7.50906 13.2473 7.50906C11.3403 7.50906 9.79344 9.39728 9.79344 11.9324C9.79344 13.5431 10.3634 14.6306 10.3634 14.6306C10.3634 14.6306 8.47713 22.251 8.12649 23.6742C7.53396 26.0837 8.20711 29.9857 8.26524 30.3213C8.30087 30.507 8.509 30.5651 8.62526 30.4132C8.81089 30.1695 11.091 26.9162 11.7304 24.5648C11.9629 23.7079 12.9173 20.2334 12.9173 20.2334C13.5454 21.3678 15.3587 22.3185 17.29 22.3185C23.0352 22.3185 27.1867 17.2689 27.1867 11.0023C27.1661 4.99458 22.0246 0.5 15.4074 0.5Z" fill="#ADD9FF"/>
</g>
<defs>
<clipPath id="clip0_37_2518">
<rect width="30" height="30" fill="white" transform="translate(0 0.5)"/>
</clipPath>
</defs>
</svg>
