<svg width="30" height="31" viewBox="0 0 30 31" fill="none" xmlns="http://www.w3.org/2000/svg">
<g clip-path="url(#clip0_37_2520)">
<path d="M28.1444 8.02246C26.4323 8.02246 24.8526 7.45527 23.584 6.49844C22.1291 5.40156 21.0838 3.79258 20.7147 1.93809C20.6233 1.47988 20.5741 1.00703 20.5694 0.522461H15.6785V13.8865L15.6727 21.2066C15.6727 23.1637 14.3983 24.823 12.6317 25.4066C12.119 25.576 11.5653 25.6562 10.9887 25.6246C10.2528 25.5842 9.56312 25.3621 8.96371 25.0035C7.68812 24.2406 6.82328 22.8566 6.79984 21.2734C6.76293 18.799 8.76332 16.7816 11.236 16.7816C11.7241 16.7816 12.1928 16.8613 12.6317 17.0061V13.3533V12.0402C12.1688 11.9717 11.6977 11.9359 11.2213 11.9359C8.51488 11.9359 5.98363 13.0609 4.17426 15.0877C2.80668 16.6193 1.98636 18.5734 1.8598 20.6225C1.69398 23.3143 2.67894 25.873 4.5891 27.7609C4.86976 28.0381 5.16449 28.2953 5.47269 28.5326C7.11039 29.793 9.11254 30.4762 11.2213 30.4762C11.6977 30.4762 12.1688 30.441 12.6317 30.3725C14.6016 30.0807 16.4192 29.1789 17.8535 27.7609C19.616 26.0189 20.5899 23.7062 20.6004 21.2447L20.5752 10.3135C21.416 10.9621 22.3354 11.4988 23.3221 11.9154C24.8567 12.5629 26.4838 12.891 28.1584 12.8904V9.33906V8.02129L28.1444 8.02246Z" fill="#ADD9FF"/>
</g>
<defs>
<clipPath id="clip0_37_2520">
<rect width="30" height="30" fill="white" transform="translate(0 0.5)"/>
</clipPath>
</defs>
</svg>
