<svg width="30" height="31" viewBox="0 0 30 31" fill="none" xmlns="http://www.w3.org/2000/svg">
<path d="M26.9707 8.06C26.0707 8.45 25.1407 8.72 24.1507 8.84C25.1707 8.24 25.9507 7.28 26.3107 6.11C25.3507 6.68 24.3007 7.07 23.1907 7.31C22.2907 6.35 21.0007 5.75 19.5907 5.75C16.8607 5.75 14.6707 7.97 14.6707 10.67C14.6707 11.06 14.7007 11.42 14.7907 11.78C10.7107 11.6 7.1107 9.62 4.6807 6.65C2.9407 9.77 4.8907 12.35 6.1807 13.22C5.4007 13.22 4.6207 12.98 3.9607 12.62C3.9607 15.05 5.6707 17.06 7.8907 17.51C7.4107 17.66 6.3307 17.75 5.6707 17.6C6.3007 19.55 8.1307 20.99 10.2607 21.02C8.5807 22.34 6.1207 23.39 2.9707 23.06C5.1607 24.47 7.7407 25.28 10.5307 25.28C19.5907 25.28 24.5107 17.78 24.5107 11.3C24.5107 11.09 24.5107 10.88 24.4807 10.67C25.5007 9.92 26.3407 9.05 26.9707 8.06Z" fill="#ADD9FF"/>
</svg>
