<svg width="30" height="31" viewBox="0 0 30 31" fill="none" xmlns="http://www.w3.org/2000/svg">
<path fill-rule="evenodd" clip-rule="evenodd" d="M24.9493 5.51011C22.3181 2.87579 18.8188 1.4244 15.0908 1.42285C7.40901 1.42285 1.1571 7.67459 1.15401 15.3585C1.15298 17.8148 1.79465 20.2126 3.0143 22.3261L1.03711 29.5479L8.42524 27.6098C10.4609 28.7203 12.7528 29.3055 15.0852 29.3062H15.091C22.772 29.3062 29.0246 23.0539 29.0275 15.3697C29.029 11.6456 27.5807 8.14425 24.9493 5.51011ZM15.0908 26.9525H15.086C13.0075 26.9516 10.9691 26.3931 9.19034 25.3379L8.76753 25.0867L4.3833 26.2368L5.55352 21.9623L5.278 21.5241C4.11843 19.6797 3.50611 17.548 3.50714 15.3594C3.50955 8.97269 8.70608 3.77667 15.0955 3.77667C18.1895 3.7777 21.0979 4.98414 23.2849 7.17368C25.4719 9.36322 26.6756 12.2736 26.6745 15.3688C26.6718 21.756 21.4756 26.9525 15.0908 26.9525ZM21.4447 18.2769C21.0966 18.1025 19.3844 17.2603 19.0651 17.1439C18.7462 17.0277 18.5137 16.9699 18.2818 17.3184C18.0496 17.6668 17.3823 18.4513 17.1791 18.6836C16.9758 18.916 16.7729 18.9452 16.4246 18.7708C16.0763 18.5965 14.9544 18.2287 13.6241 17.0423C12.589 16.119 11.8902 14.9786 11.6869 14.6301C11.484 14.2813 11.6852 14.111 11.8397 13.9195C12.2167 13.4513 12.5942 12.9606 12.7102 12.7283C12.8264 12.4959 12.7682 12.2924 12.681 12.1182C12.5942 11.944 11.8977 10.2299 11.6076 9.53248C11.3247 8.85373 11.0379 8.9454 10.824 8.93475C10.6211 8.92463 10.3888 8.92257 10.1566 8.92257C9.92453 8.92257 9.54722 9.0096 9.22793 9.35841C8.90881 9.70706 8.00931 10.5494 8.00931 12.2634C8.00931 13.9775 9.25711 15.6333 9.43118 15.8658C9.60524 16.0982 11.8868 19.6155 15.3799 21.1237C16.2107 21.4829 16.8593 21.6969 17.3652 21.8574C18.1994 22.1225 18.9584 22.085 19.5585 21.9954C20.2276 21.8954 21.6186 21.1529 21.909 20.3396C22.1991 19.5261 22.1991 18.829 22.1119 18.6836C22.0251 18.5383 21.7928 18.4513 21.4447 18.2769Z" fill="#ADD9FF"/>
</svg>
