<svg width="18" height="18" viewBox="0 0 18 18" fill="none" xmlns="http://www.w3.org/2000/svg">
<g clip-path="url(#clip0)">
<path d="M14.6 17.4L0.600001 3.4C-0.2 2.6 -0.2 1.4 0.600001 0.600001C1.4 -0.2 2.6 -0.2 3.4 0.600001L17.4 14.6C18.2 15.4 18.2 16.6 17.4 17.4C16.6 18.2 15.4 18.2 14.6 17.4Z" fill="white"/>
<path d="M0.600001 14.6L14.6 0.600001C15.4 -0.2 16.6 -0.2 17.4 0.600001C18.2 1.4 18.2 2.6 17.4 3.4L3.4 17.4C2.6 18.2 1.4 18.2 0.600001 17.4C-0.2 16.6 -0.2 15.4 0.600001 14.6Z" fill="white"/>
</g>
<defs>
<clipPath id="clip0">
<rect width="18" height="18" fill="white"/>
</clipPath>
</defs>
</svg>
