<svg width="24" height="24" viewBox="0 0 24 24" fill="none" xmlns="http://www.w3.org/2000/svg">
<path d="M12 11.5C10.619 11.5 9.5 10.381 9.5 9C9.5 7.619 10.619 6.5 12 6.5C13.381 6.5 14.5 7.619 14.5 9C14.5 10.381 13.381 11.5 12 11.5V11.5Z" fill="#99D98C"/>
<path d="M12.0001 2.00977C8.14408 2.00977 5.00708 5.14677 5.00708 9.00277C5.00708 13.4858 10.9751 20.7698 11.2291 21.0768L12.0001 22.0118L12.7711 21.0768C13.0251 20.7688 18.9931 13.4858 18.9931 9.00277C18.9931 5.14577 15.8561 2.00977 12.0001 2.00977V2.00977ZM12.0001 18.8268C10.1221 16.3638 7.00708 11.7118 7.00708 9.00277C7.00708 6.24977 9.24708 4.00977 12.0001 4.00977C14.7531 4.00977 16.9931 6.24977 16.9931 9.00277C16.9931 11.7078 13.8781 16.3618 12.0001 18.8268V18.8268Z" fill="#99D98C"/>
</svg>
