<svg width="20" height="20" viewBox="0 0 20 20" fill="none" xmlns="http://www.w3.org/2000/svg">
<g clip-path="url(#clip0_5:3535)">
<path d="M18.6758 15.3218L17.0884 16.9092C17.0884 16.9092 12.9636 18.6769 7.07102 12.7844C1.17846 6.89183 2.94622 2.76704 2.94622 2.76704L4.53367 1.1796C5.25085 0.462416 6.43697 0.546712 7.04552 1.35811L8.56078 3.37841C9.05837 4.04195 8.99245 4.97044 8.40595 5.55693L7.07102 6.89183C7.07102 6.89183 7.07101 8.07035 9.42803 10.4273C11.785 12.7844 12.9635 12.7843 12.9635 12.7843L14.2984 11.4495C14.8849 10.863 15.8134 10.797 16.477 11.2947L18.4973 12.8099C19.3087 13.4184 19.3929 14.6045 18.6758 15.3218Z" stroke="#99D98C" stroke-width="1.5"/>
</g>
<defs>
<clipPath id="clip0_5:3535">
<rect width="20" height="20" fill="white"/>
</clipPath>
</defs>
</svg>
