<svg width="20" height="20" viewBox="0 0 20 20" fill="none" xmlns="http://www.w3.org/2000/svg">
<path d="M19.25 10C19.25 15.1086 15.1086 19.25 10 19.25C4.89137 19.25 0.75 15.1086 0.75 10C0.75 4.89137 4.89137 0.75 10 0.75C15.1086 0.75 19.25 4.89137 19.25 10Z" stroke="#99D98C" stroke-width="1.5"/>
<path d="M0.623949 8.46084C0.62395 8.46084 0.62395 8.46084 0.62395 8.46083L0.616124 8.45956L0.602065 7.9776L0.623949 8.46084ZM0.623949 8.46084L0.616124 8.45957L0.616605 8.47603C0.617574 8.47504 0.618859 8.47348 0.620171 8.47121C0.622128 8.46782 0.623426 8.46405 0.623949 8.46084ZM0.616599 8.47604L0.616118 8.45956L0.130643 8.38048L0.616118 8.45956L0.616599 8.47604ZM0.616599 8.47604C0.616223 8.47642 0.615895 8.47672 0.615632 8.47695C0.614946 8.47753 0.614574 8.4777 0.614576 8.4777C0.614578 8.47771 0.615222 8.47742 0.616644 8.47738L0.616599 8.47604ZM12.1615 12.2041L11.9665 11.6957L11.4766 11.9332C9.43465 12.9233 7.19192 14.6127 4.19669 17.5223C3.93155 17.3174 3.67748 17.0987 3.43558 16.8675C6.53665 13.8475 8.90823 12.0497 11.1312 10.9899L11.5768 10.7774L11.3701 10.3292C11.0595 9.65575 10.7247 8.99222 10.3658 8.33539L10.1687 7.97472L9.7767 8.09827C7.15248 8.92541 4.1631 9.38344 0.513894 9.48065C0.532189 9.14104 0.568298 8.80621 0.621291 8.47725C3.93029 8.38046 6.65081 7.97936 9.02985 7.2804L9.6614 7.09485L9.31324 6.53621C8.26983 4.86205 7.0647 3.21183 5.69774 1.5278C6.0044 1.37175 6.32063 1.23188 6.6453 1.10932C8.07133 2.88071 9.32298 4.62125 10.4002 6.39501L10.6192 6.75549L11.0114 6.60046C13.0876 5.77982 14.9372 4.69075 16.7614 3.32693C16.9964 3.56503 17.2189 3.81543 17.4279 4.07711C15.5986 5.45176 13.7311 6.56978 11.6398 7.42554L11.1268 7.6355L11.3884 8.12426C11.7207 8.74514 12.0325 9.37249 12.3235 10.0089L12.5075 10.4112L12.9292 10.2776C14.9863 9.62585 17.0237 9.51945 19.4872 9.50312C19.4956 9.66766 19.4999 9.8334 19.4999 10.0002C19.4999 10.1693 19.4955 10.3372 19.4868 10.5039C17.127 10.5212 15.2651 10.6167 13.4127 11.1745L12.8969 11.3298L13.0901 11.8326C13.8533 13.819 14.4275 15.9153 14.8093 18.1947C14.508 18.372 14.196 18.5331 13.8747 18.6768C13.5078 16.3586 12.9382 14.2285 12.1615 12.2041ZM4.21104 17.5333L4.211 17.5333L4.21104 17.5333ZM14.8109 18.2043C14.8108 18.2035 14.8107 18.2013 14.8121 18.1982C14.8137 18.1948 14.8173 18.1901 14.8227 18.1868L14.8228 18.1868L14.8109 18.2043ZM5.67101 1.54145L5.67101 1.54145L5.67101 1.54145ZM16.7495 3.31493L16.7496 3.31497L16.7495 3.31493ZM17.443 4.06572C17.443 4.06573 17.443 4.06574 17.443 4.06575L17.459 4.08707L17.459 4.0871L17.7433 4.46481L17.4591 4.08706L17.459 4.08703L17.443 4.06572ZM5.44301 1.09688L5.44299 1.09683L5.44301 1.09688ZM5.44284 1.09655L5.44287 1.09659L5.44284 1.09655Z" fill="#99D98C" stroke="#99D98C"/>
</svg>
