<svg width="20" height="20" viewBox="0 0 20 20" fill="none" xmlns="http://www.w3.org/2000/svg">
<path fill-rule="evenodd" clip-rule="evenodd" d="M3.69477 0.489325C2.00472 0.746476 0.665645 1.98488 0.375458 3.66957C0.173212 4.84372 0 6.33525 0 8C0 9.66475 0.173212 11.1563 0.375458 12.3304C0.624559 13.7766 1.64656 14.8939 3 15.344V18.7476C3 19.5219 3.84211 20.0024 4.50873 19.6085L10.6241 15.9949C12.8384 15.9586 14.8238 15.7361 16.3052 15.5107C17.9953 15.2535 19.3344 14.0151 19.6245 12.3304C19.8268 11.1563 20 9.66475 20 8C20 6.33525 19.8268 4.84372 19.6245 3.66957C19.3344 1.98488 17.9953 0.746476 16.3052 0.489325C14.6859 0.242933 12.4644 0 10 0C7.53559 0 5.31411 0.242933 3.69477 0.489325Z" fill="#52189C"/>
<path fill-rule="evenodd" clip-rule="evenodd" d="M5 5C4.44772 5 4 5.44772 4 6C4 6.55228 4.44772 7 5 7H15C15.5523 7 16 6.55228 16 6C16 5.44772 15.5523 5 15 5H5ZM5 9C4.44772 9 4 9.44772 4 10C4 10.5523 4.44772 11 5 11H9C9.55228 11 10 10.5523 10 10C10 9.44772 9.55228 9 9 9H5Z" fill="white"/>
</svg>
