<svg width="24" height="24" viewBox="0 0 24 24" fill="none" xmlns="http://www.w3.org/2000/svg">
<path d="M22.3971 20.8349L20.2383 22.9937C20.2383 22.9937 14.6291 25.3976 6.61586 17.3844C-1.39736 9.3712 1.00661 3.76195 1.00661 3.76195L3.16535 1.60321C4.14064 0.627918 5.75362 0.742552 6.58118 1.84596L8.64171 4.59335C9.31846 5.49568 9.22873 6.75832 8.43117 7.55588L6.61585 9.3712C6.61585 9.3712 6.61585 10.9738 9.82114 14.1791C13.0264 17.3844 14.6291 17.3844 14.6291 17.3844L16.4444 15.5691C17.2419 14.7715 18.5046 14.6818 19.4069 15.3585L22.1543 17.4191C23.2577 18.2466 23.3723 19.8596 22.3971 20.8349Z" fill="white"/>
</svg>
