<svg width="19" height="16" viewBox="0 0 19 16" fill="none" xmlns="http://www.w3.org/2000/svg">
<path fill-rule="evenodd" clip-rule="evenodd" d="M9.38567 4.44444L8.3733 2.70783C8.11641 2.26716 7.72832 2.01516 7.34037 1.96426C6.59303 1.86621 5.6613 1.77778 4.75 1.77778C4.11671 1.77778 3.47061 1.82054 2.87993 1.88038C2.33617 1.93548 1.93479 2.35122 1.89146 2.93266C1.80472 4.09654 1.72727 5.76235 1.72727 8C1.72727 9.57563 1.78303 10.9792 1.85385 12.1259C1.91995 13.1963 2.7086 14.0042 3.75664 14.0664C5.17878 14.1508 7.09322 14.2222 9.5 14.2222C11.9068 14.2222 13.8212 14.1508 15.2434 14.0664C16.2914 14.0042 17.08 13.1963 17.1462 12.1259C17.217 10.9792 17.2727 9.57563 17.2727 8C17.2727 7.14122 17.2244 6.32597 17.1604 5.62482C17.1076 5.04614 16.6881 4.61445 16.1259 4.56008C15.4447 4.49421 14.6526 4.44444 13.8182 4.44444H9.38567ZM10.3636 2.66667L9.85443 1.79317C9.35367 0.934168 8.52427 0.327425 7.55878 0.200752C6.76983 0.0972398 5.75991 0 4.75 0C4.04521 0 3.34041 0.0473588 2.71072 0.111158C1.32282 0.251775 0.275909 1.36552 0.169247 2.79669C0.0788995 4.00897 0 5.72026 0 8C0 9.61826 0.0572482 11.0598 0.130056 12.2387C0.251801 14.21 1.7412 15.7275 3.65721 15.8412C5.11241 15.9276 7.06 16 9.5 16C11.94 16 13.8876 15.9276 15.3428 15.8412C17.2588 15.7275 18.7482 14.21 18.8699 12.2387C18.9428 11.0598 19 9.61826 19 8C19 7.07455 18.948 6.20262 18.8801 5.45853C18.7496 4.02945 17.6759 2.92436 16.2874 2.7901C15.5645 2.7202 14.7173 2.66667 13.8182 2.66667H10.3636Z" fill="white"/>
</svg>
