<svg width="23" height="23" viewBox="0 0 23 23" fill="none" xmlns="http://www.w3.org/2000/svg">
<path d="M0 3.39972C0 1.52211 1.52211 0 3.39972 0H19.2651C21.1427 0 22.6648 1.52211 22.6648 3.39972V19.2651C22.6648 21.1427 21.1427 22.6648 19.2651 22.6648H3.39972C1.52211 22.6648 0 21.1427 0 19.2651V3.39972Z" fill="white"/>
<path d="M5.66605 6.79871C6.29192 6.79871 6.79929 6.29134 6.79929 5.66547C6.79929 5.0396 6.29192 4.53223 5.66605 4.53223C5.04017 4.53223 4.53281 5.0396 4.53281 5.66547C4.53281 6.29134 5.04017 6.79871 5.66605 6.79871Z" fill="#7A6942"/>
<path d="M5.66605 9.06518C5.04017 9.06518 4.53281 9.57255 4.53281 10.1984V16.9979C4.53281 17.6237 5.04017 18.1311 5.66605 18.1311C6.29192 18.1311 6.79929 17.6237 6.79929 16.9979V10.1984C6.79929 9.57255 6.29192 9.06518 5.66605 9.06518Z" fill="#7A6942"/>
<path d="M13.5987 11.3317C12.347 11.3317 11.3322 12.3464 11.3322 13.5981V16.9979C11.3322 17.6237 10.8249 18.1311 10.199 18.1311C9.57313 18.1311 9.06576 17.6237 9.06576 16.9979V10.1984C9.06576 9.57255 9.57313 9.06518 10.199 9.06518C10.6584 9.06518 11.0539 9.33852 11.2319 9.73143C11.9208 9.30883 12.7313 9.06518 13.5987 9.06518C16.1022 9.06518 18.1317 11.0947 18.1317 13.5981V16.9979C18.1317 17.6237 17.6243 18.1311 16.9984 18.1311C16.3726 18.1311 15.8652 17.6237 15.8652 16.9979V13.5981C15.8652 12.3464 14.8505 11.3317 13.5987 11.3317Z" fill="#7A6942"/>
</svg>
