<svg width="26" height="25" viewBox="0 0 26 25" fill="none" xmlns="http://www.w3.org/2000/svg">
<path fill-rule="evenodd" clip-rule="evenodd" d="M13 22.5C18.5228 22.5 23 18.0228 23 12.5C23 6.97715 18.5228 2.5 13 2.5C7.47715 2.5 3 6.97715 3 12.5C3 18.0228 7.47715 22.5 13 22.5ZM13 25C19.9036 25 25.5 19.4036 25.5 12.5C25.5 5.59644 19.9036 0 13 0C6.09644 0 0.5 5.59644 0.5 12.5C0.5 19.4036 6.09644 25 13 25Z" fill="white"/>
<path d="M13 10C13 9.30964 13.5596 8.75 14.25 8.75H15.5C16.1904 8.75 16.75 8.19036 16.75 7.5C16.75 6.80964 16.1904 6.25 15.5 6.25H14.25C12.1789 6.25 10.5 7.92893 10.5 10V12.5H9.25C8.55964 12.5 8 13.0596 8 13.75C8 14.4404 8.55964 15 9.25 15H10.5V22.5C10.5 23.1904 11.0596 23.75 11.75 23.75C12.4404 23.75 13 23.1904 13 22.5V15H15.5C16.1904 15 16.75 14.4404 16.75 13.75C16.75 13.0596 16.1904 12.5 15.5 12.5H13V10Z" fill="white"/>
</svg>
