<svg width="25" height="25" viewBox="0 0 25 25" fill="none" xmlns="http://www.w3.org/2000/svg">
<path d="M9.25447 21.445C7.10325 21.445 3.07977 20.6931 1.97586 19.3984C1.8596 19.262 1.82737 19.073 1.89188 18.9058C1.95638 18.7386 2.10726 18.6202 2.28494 18.5973C2.58763 18.5582 2.86656 18.5265 3.13627 18.4958L3.14071 18.4953L3.14165 18.4952C3.97152 18.4007 4.68835 18.3192 5.54744 18.0794C6.03841 17.941 6.39412 17.799 6.72576 17.6409C6.25379 17.5685 5.74676 17.4478 5.27513 17.2206C4.29188 16.7469 3.67044 15.9149 3.42811 14.7477C3.39876 14.6064 3.43343 14.4595 3.52274 14.3461C3.61209 14.2328 3.74691 14.1648 3.89114 14.1604L3.97484 14.1578C4.1888 14.1515 4.49886 14.1423 4.81712 14.1165C3.48187 13.3279 2.36351 12.2175 2.44168 10.2346C2.44749 10.0875 2.51942 9.95076 2.63739 9.86263C2.7554 9.77449 2.90682 9.74436 3.04964 9.78055C3.28585 9.84046 3.46788 9.89994 3.62849 9.95242L3.62923 9.95267L3.66883 9.9656C2.60814 8.61497 1.92879 7.36834 3.10101 4.84187C3.16287 4.70857 3.28148 4.61018 3.42391 4.57405C3.56649 4.53797 3.71761 4.56795 3.83543 4.65564C4.38468 5.06433 4.81128 5.46142 5.22385 5.84545L5.22489 5.84641L5.225 5.84652C5.89312 6.4685 6.52417 7.05597 7.62391 7.6366C8.76468 8.24095 10.3377 8.69612 11.7711 8.84988C11.6021 6.23894 13.1794 4.58391 14.6709 3.93841C15.5326 3.56541 16.4881 3.46028 17.3613 3.64261C18.2351 3.82498 19.0024 4.27932 19.5949 4.96233C20.2427 4.92078 20.731 4.69289 21.2875 4.43315L21.2876 4.43308L21.2888 4.43255C21.5125 4.32813 21.7439 4.22017 21.9909 4.12361C22.1628 4.05637 22.3582 4.09197 22.4955 4.2156C22.6328 4.33929 22.6885 4.52986 22.6394 4.70799C22.5046 5.19754 22.2809 5.578 22.0361 5.90281L22.1473 5.87063L22.517 5.7638C22.7041 5.7097 22.9051 5.77195 23.0289 5.92195C23.1529 6.07195 23.1759 6.28123 23.0875 6.45462C22.6196 7.37268 22.0901 7.76121 21.7035 8.0449L21.7034 8.04501C21.3171 8.32843 21.1573 8.44575 21.1152 8.96121C20.8511 12.2063 19.6701 15.2116 17.7898 17.4233C15.7165 19.8619 12.9097 21.2488 9.67298 21.434C9.54364 21.4414 9.40345 21.445 9.25447 21.445ZM3.75369 19.4073C5.30135 20.0617 8.01175 20.5497 9.61771 20.4591C16.2678 20.0787 19.6953 14.3704 20.142 8.88206C20.2203 7.92224 20.6806 7.5844 21.1258 7.25769C21.1813 7.21702 21.2371 7.17605 21.2931 7.13333C21.1269 7.18094 20.9606 7.2283 20.795 7.27522C20.5977 7.33118 20.3864 7.25779 20.2662 7.09153C20.146 6.92532 20.1426 6.70169 20.2575 6.53181C20.4425 6.25841 20.6482 6.02633 20.8471 5.80189L20.848 5.80086C20.9005 5.74163 20.952 5.68352 21.0022 5.62581C20.5368 5.80789 20.022 5.94573 19.3818 5.94578H19.3678C19.2169 5.94529 19.0747 5.87513 18.9826 5.75569C18.0626 4.56277 16.5223 4.20135 15.0588 4.83474C13.7758 5.39007 12.4157 6.89417 12.8048 9.30555C12.8282 9.45101 12.7847 9.5993 12.6865 9.70906C12.5882 9.81883 12.4455 9.87869 12.2984 9.87102C10.5933 9.78611 8.57933 9.24798 7.16741 8.50003C5.9536 7.85916 5.24486 7.19939 4.5595 6.56131C4.30174 6.32132 4.03817 6.07601 3.74466 5.82932C3.06032 7.66883 3.70856 8.46855 4.80504 9.82125L4.80521 9.82146L4.807 9.82367C4.94282 9.99125 5.08328 10.1646 5.22772 10.348C5.34461 10.4965 5.36531 10.6991 5.28089 10.8681C5.19647 11.0372 5.02225 11.1422 4.83319 11.1382C4.14017 11.1228 3.79495 11.0318 3.44705 10.9203C3.63968 12.2793 4.67791 13.0291 6.4221 13.8496C6.58568 13.9266 6.69334 14.0876 6.70194 14.2681C6.71053 14.4487 6.61873 14.6192 6.46326 14.7115C6.00633 14.9825 5.27835 15.0731 4.55052 15.1122C5.07479 16.4257 6.3037 16.6462 7.72547 16.7693L7.72637 16.7693C8.01764 16.7946 8.26925 16.8163 8.48739 16.8592C8.69427 16.8999 8.85164 17.0688 8.87772 17.278C8.90379 17.4872 8.79261 17.6895 8.60203 17.7797C8.29744 17.9238 8.04374 18.0583 7.7985 18.1884L7.79686 18.1892C7.23646 18.4865 6.70711 18.7672 5.81117 19.0197C5.0596 19.2294 4.42586 19.326 3.75369 19.4073Z" fill="white"/>
<path d="M9.25447 21.445C7.10325 21.445 3.07977 20.6931 1.97586 19.3984C1.8596 19.262 1.82737 19.073 1.89188 18.9058C1.95638 18.7386 2.10726 18.6202 2.28494 18.5973C2.58763 18.5582 2.86656 18.5265 3.13627 18.4958L3.14071 18.4953L3.14165 18.4952C3.97152 18.4007 4.68835 18.3192 5.54744 18.0794C6.03841 17.941 6.39412 17.799 6.72576 17.6409C6.25379 17.5685 5.74676 17.4478 5.27513 17.2206C4.29188 16.7469 3.67044 15.9149 3.42811 14.7477C3.39876 14.6064 3.43343 14.4595 3.52274 14.3461C3.61209 14.2328 3.74691 14.1648 3.89114 14.1604L3.97484 14.1578C4.1888 14.1515 4.49886 14.1423 4.81712 14.1165C3.48187 13.3279 2.36351 12.2175 2.44168 10.2346C2.44749 10.0875 2.51942 9.95076 2.63739 9.86263C2.7554 9.77449 2.90682 9.74436 3.04964 9.78055C3.28585 9.84046 3.46788 9.89994 3.62849 9.95242L3.62923 9.95267L3.66883 9.9656C2.60814 8.61497 1.92879 7.36834 3.10101 4.84187C3.16287 4.70857 3.28148 4.61018 3.42391 4.57405C3.56649 4.53797 3.71761 4.56795 3.83543 4.65564C4.38468 5.06433 4.81128 5.46142 5.22385 5.84545L5.22489 5.84641L5.225 5.84652C5.89312 6.4685 6.52417 7.05597 7.62391 7.6366C8.76468 8.24095 10.3377 8.69612 11.7711 8.84988C11.6021 6.23894 13.1794 4.58391 14.6709 3.93841C15.5326 3.56541 16.4881 3.46028 17.3613 3.64261C18.2351 3.82498 19.0024 4.27932 19.5949 4.96233C20.2427 4.92078 20.731 4.69289 21.2875 4.43315L21.2876 4.43308L21.2888 4.43255C21.5125 4.32813 21.7439 4.22017 21.9909 4.12361C22.1628 4.05637 22.3582 4.09197 22.4955 4.2156C22.6328 4.33929 22.6885 4.52986 22.6394 4.70799C22.5046 5.19754 22.2809 5.578 22.0361 5.90281L22.1473 5.87063L22.517 5.7638C22.7041 5.7097 22.9051 5.77195 23.0289 5.92195C23.1529 6.07195 23.1759 6.28123 23.0875 6.45462C22.6196 7.37268 22.0901 7.76121 21.7035 8.0449L21.7034 8.04501C21.3171 8.32843 21.1573 8.44575 21.1152 8.96121C20.8511 12.2063 19.6701 15.2116 17.7898 17.4233C15.7165 19.8619 12.9097 21.2488 9.67298 21.434C9.54364 21.4414 9.40345 21.445 9.25447 21.445ZM3.75369 19.4073C5.30135 20.0617 8.01175 20.5497 9.61771 20.4591C16.2678 20.0787 19.6953 14.3704 20.142 8.88206C20.2203 7.92224 20.6806 7.5844 21.1258 7.25769C21.1813 7.21702 21.2371 7.17605 21.2931 7.13333C21.1269 7.18094 20.9606 7.2283 20.795 7.27522C20.5977 7.33118 20.3864 7.25779 20.2662 7.09153C20.146 6.92532 20.1426 6.70169 20.2575 6.53181C20.4425 6.25841 20.6482 6.02633 20.8471 5.80189L20.848 5.80086C20.9005 5.74163 20.952 5.68352 21.0022 5.62581C20.5368 5.80789 20.022 5.94573 19.3818 5.94578H19.3678C19.2169 5.94529 19.0747 5.87513 18.9826 5.75569C18.0626 4.56277 16.5223 4.20135 15.0588 4.83474C13.7758 5.39007 12.4157 6.89417 12.8048 9.30555C12.8282 9.45101 12.7847 9.5993 12.6865 9.70906C12.5882 9.81883 12.4455 9.87869 12.2984 9.87102C10.5933 9.78611 8.57933 9.24798 7.16741 8.50003C5.9536 7.85916 5.24486 7.19939 4.5595 6.56131C4.30174 6.32132 4.03817 6.07601 3.74466 5.82932C3.06032 7.66883 3.70856 8.46855 4.80504 9.82125L4.80521 9.82146L4.807 9.82367C4.94282 9.99125 5.08328 10.1646 5.22772 10.348C5.34461 10.4965 5.36531 10.6991 5.28089 10.8681C5.19647 11.0372 5.02225 11.1422 4.83319 11.1382C4.14017 11.1228 3.79495 11.0318 3.44705 10.9203C3.63968 12.2793 4.67791 13.0291 6.4221 13.8496C6.58568 13.9266 6.69334 14.0876 6.70194 14.2681C6.71053 14.4487 6.61873 14.6192 6.46326 14.7115C6.00633 14.9825 5.27835 15.0731 4.55052 15.1122C5.07479 16.4257 6.3037 16.6462 7.72547 16.7693L7.72637 16.7693C8.01764 16.7946 8.26925 16.8163 8.48739 16.8592C8.69427 16.8999 8.85164 17.0688 8.87772 17.278C8.90379 17.4872 8.79261 17.6895 8.60203 17.7797C8.29744 17.9238 8.04374 18.0583 7.7985 18.1884L7.79686 18.1892C7.23646 18.4865 6.70711 18.7672 5.81117 19.0197C5.0596 19.2294 4.42586 19.326 3.75369 19.4073Z" stroke="white"/>
</svg>
