<svg width="23" height="23" viewBox="0 0 23 23" fill="none" xmlns="http://www.w3.org/2000/svg">
<path fill-rule="evenodd" clip-rule="evenodd" d="M4.18706 1.00862C2.27183 1.30004 0.754335 2.70344 0.425484 4.6126C0.19629 5.94319 0 7.63346 0 9.52002C0 11.4066 0.19629 13.0968 0.425484 14.4274C0.707775 16.0663 1.86595 17.3325 3.39972 17.8425V21.6996C3.39972 22.577 4.35403 23.1216 5.10947 22.6752L12.0396 18.5801C14.549 18.539 16.7989 18.2869 18.4777 18.0314C20.393 17.74 21.9104 16.3366 22.2393 14.4274C22.4685 13.0968 22.6648 11.4066 22.6648 9.52002C22.6648 7.63346 22.4685 5.94319 22.2393 4.6126C21.9104 2.70344 20.393 1.30004 18.4777 1.00862C16.6426 0.729403 14.1252 0.454102 11.3324 0.454102C8.53962 0.454102 6.02215 0.729403 4.18706 1.00862Z" fill="white"/>
<path fill-rule="evenodd" clip-rule="evenodd" d="M5.66638 6.12109C5.04051 6.12109 4.53314 6.62846 4.53314 7.25433C4.53314 7.8802 5.04051 8.38757 5.66638 8.38757H16.9988C17.6246 8.38757 18.132 7.8802 18.132 7.25433C18.132 6.62846 17.6246 6.12109 16.9988 6.12109H5.66638ZM5.66638 10.6541C5.04051 10.6541 4.53314 11.1614 4.53314 11.7873C4.53314 12.4132 5.04051 12.9205 5.66638 12.9205H10.1993C10.8252 12.9205 11.3326 12.4132 11.3326 11.7873C11.3326 11.1614 10.8252 10.6541 10.1993 10.6541H5.66638Z" fill="#7A6942"/>
</svg>
