<svg width="15" height="18" viewBox="0 0 15 18" fill="none" xmlns="http://www.w3.org/2000/svg">
<path fill-rule="evenodd" clip-rule="evenodd" d="M4.908 7.39575C4.93205 7.84699 4.58576 8.23228 4.13452 8.25634C3.51868 8.28917 3.03091 8.32933 2.64975 8.36953C2.13787 8.42351 1.82684 8.73794 1.77514 9.19022C1.70091 9.83958 1.63639 10.8223 1.63639 12.2723C1.63639 13.7223 1.70091 14.705 1.77514 15.3544C1.82693 15.8074 2.13717 16.121 2.64829 16.1749C3.54341 16.2694 5.02309 16.3633 7.36374 16.3633C9.70438 16.3633 11.1841 16.2694 12.0792 16.1749C12.5903 16.121 12.9005 15.8074 12.9523 15.3544C13.0266 14.705 13.0911 13.7223 13.0911 12.2723C13.0911 10.8223 13.0266 9.83958 12.9523 9.19022C12.9006 8.73794 12.5896 8.42351 12.0777 8.36953C11.6966 8.32933 11.2088 8.28917 10.593 8.25634C10.1417 8.23228 9.79542 7.84699 9.81947 7.39575C9.84353 6.94452 10.2288 6.59822 10.6801 6.62227C11.3206 6.65642 11.8367 6.69865 12.2494 6.74217C13.4639 6.87026 14.4327 7.73189 14.5781 9.00436C14.661 9.72958 14.7275 10.7762 14.7275 12.2723C14.7275 13.7683 14.661 14.815 14.5781 15.5402C14.4328 16.8119 13.4662 17.674 12.2509 17.8023C11.2845 17.9043 9.74532 17.9996 7.36374 17.9996C4.98215 17.9996 3.44301 17.9043 2.47654 17.8023C1.26125 17.674 0.294719 16.8119 0.149344 15.5402C0.0664405 14.815 0 13.7683 0 12.2723C0 10.7762 0.0664405 9.72958 0.149344 9.00436C0.294807 7.73189 1.26358 6.87026 2.47812 6.74217C2.89072 6.69865 3.4069 6.65642 4.04741 6.62227C4.49864 6.59822 4.88394 6.94452 4.908 7.39575Z" fill="url(#paint0_linear)"/>
<path fill-rule="evenodd" clip-rule="evenodd" d="M5.0786 4.26042C4.75907 4.57994 4.24102 4.57994 3.9215 4.26042C3.60197 3.94089 3.60197 3.42284 3.9215 3.10332L6.78517 0.239643C7.1047 -0.0798811 7.62275 -0.0798811 7.94227 0.239643L10.8059 3.10332C11.1255 3.42284 11.1255 3.94089 10.8059 4.26042C10.4864 4.57994 9.96837 4.57994 9.64885 4.26042L8.18192 2.79349V10.6365C8.18192 11.0884 7.8156 11.4547 7.36372 11.4547C6.91185 11.4547 6.54553 11.0884 6.54553 10.6365V2.79349L5.0786 4.26042Z" fill="url(#paint1_linear)"/>
<defs>
<linearGradient id="paint0_linear" x1="-1.98704e-07" y1="10.581" x2="15.4647" y2="14.9251" gradientUnits="userSpaceOnUse">
<stop stop-color="#936639"/>
<stop offset="1" stop-color="#656D4A"/>
</linearGradient>
<linearGradient id="paint1_linear" x1="6.24456" y1="-1.54547e-07" x2="10.1774" y2="11.6495" gradientUnits="userSpaceOnUse">
<stop stop-color="#936639"/>
<stop offset="1" stop-color="#656D4A"/>
</linearGradient>
</defs>
</svg>
