<svg width="15" height="20" viewBox="0 0 15 20" fill="none" xmlns="http://www.w3.org/2000/svg">
<path d="M7.85382 9.48876C6.47295 9.48876 5.35406 8.36987 5.35406 6.98901C5.35406 5.60815 6.47295 4.48926 7.85382 4.48926C9.23468 4.48926 10.3536 5.60815 10.3536 6.98901C10.3536 8.36987 9.23468 9.48876 7.85382 9.48876V9.48876Z" fill="black"/>
<path d="M7.85387 0C3.99826 0 0.861572 3.13669 0.861572 6.9923C0.861572 11.4749 6.82898 18.7581 7.08295 19.0651L7.85387 20L8.6248 19.0651C8.87877 18.7571 14.8462 11.4749 14.8462 6.9923C14.8462 3.13569 11.7095 0 7.85387 0V0ZM7.85387 16.8153C5.97606 14.3526 2.86137 9.70103 2.86137 6.9923C2.86137 4.23958 5.10115 1.9998 7.85387 1.9998C10.6066 1.9998 12.8464 4.23958 12.8464 6.9923C12.8464 9.69703 9.73169 14.3506 7.85387 16.8153V16.8153Z" fill="black"/>
</svg>
