<svg width="20" height="20" viewBox="0 0 20 20" fill="none" xmlns="http://www.w3.org/2000/svg">
<path d="M18.6759 15.3213L17.0885 16.9087C17.0885 16.9087 12.9637 18.6764 7.07114 12.7839C1.17858 6.89134 2.94635 2.76655 2.94635 2.76655L4.5338 1.17911C5.25097 0.461927 6.43709 0.546224 7.04564 1.35762L8.5609 3.37792C9.05849 4.04146 8.99257 4.96995 8.40607 5.55644L7.07114 6.89134C7.07114 6.89134 7.07114 8.06986 9.42815 10.4269C11.7852 12.7839 12.9637 12.7839 12.9637 12.7839L14.2986 11.449C14.8851 10.8625 15.8136 10.7965 16.4772 11.2942L18.4974 12.8094C19.3088 13.4179 19.3931 14.604 18.6759 15.3213Z" fill="#6B705C"/>
<path d="M4.53369 1.17911L4.12476 1.58805L7.66029 6.30209L8.40597 5.55644C8.99239 4.96995 9.05839 4.04146 8.56072 3.37793L7.04553 1.35762C6.43698 0.546222 5.25087 0.461928 4.53369 1.17911Z" fill="#6B705C"/>
<path d="M18.6759 15.3204L18.267 15.7294L13.553 12.1938L14.2986 11.4481C14.8851 10.8616 15.8136 10.7957 16.4771 11.2933L18.4974 12.8085C19.3088 13.4171 19.3931 14.6032 18.6759 15.3204Z" fill="#6B705C"/>
</svg>
