<svg width="28" height="28" viewBox="0 0 28 28" fill="none" xmlns="http://www.w3.org/2000/svg">
<path opacity="0.25" d="M1.37485 5.88649C1.72775 3.47057 3.58238 1.61593 5.99831 1.26304C8.10596 0.955169 10.9084 0.666016 14.0001 0.666016C17.0917 0.666016 19.8941 0.955169 22.0018 1.26304C24.4177 1.61593 26.2724 3.47057 26.6253 5.88649C26.9331 7.99415 27.2223 10.7966 27.2223 13.8882C27.2223 16.9799 26.9331 19.7823 26.6253 21.89C26.2724 24.3059 24.4177 26.1605 22.0018 26.5134C19.8941 26.8213 17.0917 27.1105 14.0001 27.1105C10.9084 27.1105 8.10596 26.8213 5.99831 26.5134C3.58238 26.1605 1.72775 24.3059 1.37485 21.89C1.06699 19.7823 0.777832 16.9799 0.777832 13.8882C0.777832 10.7966 1.06699 7.99415 1.37485 5.88649Z" fill="white"/>
<path d="M8.71124 11.244C10.1717 11.244 11.3557 10.06 11.3557 8.59952C11.3557 7.13904 10.1717 5.95508 8.71124 5.95508C7.25076 5.95508 6.0668 7.13904 6.0668 8.59952C6.0668 10.06 7.25076 11.244 8.71124 11.244Z" fill="black"/>
<path d="M26.7783 20.7661C26.8288 20.3658 26.6885 19.9658 26.4032 19.6805L21.159 14.4363C20.1263 13.4036 18.4519 13.4036 17.4192 14.4363L13.6129 18.2426C13.0966 18.759 12.2594 18.759 11.743 18.2426L10.5812 17.0808C9.5485 16.0481 7.87413 16.0481 6.84141 17.0808L2.01203 21.9102C1.68386 22.2383 1.54042 22.7196 1.71237 23.1506C2.42327 24.9328 4.02327 26.2251 5.99846 26.5136C8.10612 26.8215 10.9086 27.1106 14.0002 27.1106C17.0918 27.1106 19.8943 26.8215 22.002 26.5136C24.4179 26.1607 26.2725 24.3061 26.6254 21.8902C26.6773 21.5346 26.7288 21.1593 26.7783 20.7661Z" fill="black"/>
</svg>
