<svg width="21" height="21" viewBox="0 0 21 21" fill="none" xmlns="http://www.w3.org/2000/svg">
<circle opacity="0.25" cx="10.4443" cy="10.6666" r="8.22222" fill="#12131A"/>
<path d="M10.0334 18.8789C10.2601 18.8901 10.4443 18.7049 10.4443 18.4779V12.3112H12.0887C12.5428 12.3112 12.911 11.9431 12.911 11.489C12.911 11.0349 12.5428 10.6668 12.0887 10.6668H10.4443V9.02233C10.4443 8.56823 10.8124 8.20011 11.2665 8.20011H12.0887C12.5428 8.20011 12.911 7.83199 12.911 7.37789C12.911 6.92379 12.5428 6.55566 12.0887 6.55566H11.2665C9.90422 6.55566 8.79986 7.66003 8.79986 9.02233V10.6668H7.97764C7.52354 10.6668 7.15541 11.0349 7.15541 11.489C7.15541 11.9431 7.52354 12.3112 7.97764 12.3112H8.79986V18.3885C8.79986 18.584 8.93741 18.7536 9.13046 18.7846C9.42644 18.8321 9.7277 18.8639 10.0334 18.8789Z" fill="#12131A"/>
</svg>
