<svg width="20" height="21" viewBox="0 0 20 21" fill="none" xmlns="http://www.w3.org/2000/svg">
<path opacity="0.25" fill-rule="evenodd" clip-rule="evenodd" d="M5.86688 2.44434C3.59638 2.44434 1.75577 4.28494 1.75577 6.55545V14.7777C1.75577 17.0482 3.59638 18.8888 5.86688 18.8888H14.0891C16.3596 18.8888 18.2002 17.0482 18.2002 14.7777V6.55545C18.2002 4.28494 16.3596 2.44434 14.0891 2.44434H5.86688ZM9.97799 13.1332C11.3403 13.1332 12.4447 12.0289 12.4447 10.6666C12.4447 9.30426 11.3403 8.19989 9.97799 8.19989C8.61569 8.19989 7.51133 9.30426 7.51133 10.6666C7.51133 12.0289 8.61569 13.1332 9.97799 13.1332Z" fill="#12131A"/>
<path d="M14.9113 6.55558C15.3654 6.55558 15.7335 6.18746 15.7335 5.73336C15.7335 5.27925 15.3654 4.91113 14.9113 4.91113C14.4572 4.91113 14.0891 5.27925 14.0891 5.73336C14.0891 6.18746 14.4572 6.55558 14.9113 6.55558Z" fill="#12131A"/>
<path fill-rule="evenodd" clip-rule="evenodd" d="M14.0891 10.6667C14.0891 12.9372 12.2485 14.7778 9.97799 14.7778C7.70749 14.7778 5.86688 12.9372 5.86688 10.6667C5.86688 8.39618 7.70749 6.55558 9.97799 6.55558C12.2485 6.55558 14.0891 8.39618 14.0891 10.6667ZM12.4447 10.6667C12.4447 12.029 11.3403 13.1334 9.97799 13.1334C8.61569 13.1334 7.51133 12.029 7.51133 10.6667C7.51133 9.30439 8.61569 8.20002 9.97799 8.20002C11.3403 8.20002 12.4447 9.30439 12.4447 10.6667Z" fill="#12131A"/>
</svg>
