<svg width="20" height="21" viewBox="0 0 20 21" fill="none" xmlns="http://www.w3.org/2000/svg">
<path opacity="0.25" d="M17.4226 6.9666C17.8337 13.1333 13.3115 18.0666 7.55591 18.0666C5.57279 18.0666 3.58967 17.8009 2.03382 17.0558C1.67749 16.8851 1.81677 16.4098 2.21098 16.3837C4.12683 16.2566 5.71225 15.7992 6.73369 14.7777C9.20045 12.311 9.61151 11.4888 10.2401 8.21964C10.0993 7.82832 10.0226 7.40642 10.0226 6.9666C10.0226 4.92315 11.6791 3.2666 13.7226 3.2666C14.9709 3.2666 16.0748 3.88476 16.7449 4.83167L18.1568 4.62997C18.5086 4.57971 18.7541 4.96931 18.557 5.26499L17.4226 6.9666Z" fill="#12131A"/>
<path d="M6.73332 14.7783C2.27983 13.2938 1.51163 7.78898 2.31164 4.91753C2.40558 4.58036 2.84393 4.57861 3.02061 4.88074C4.38672 7.21688 6.98426 8.52119 10.2398 8.22021C15.3667 8.22021 14.1333 17.245 6.73332 14.7783Z" fill="#12131A"/>
</svg>
