<svg width="21" height="21" viewBox="0 0 21 21" fill="none" xmlns="http://www.w3.org/2000/svg">
<g clip-path="url(#clip0)">
<path opacity="0.25" d="M0.857305 7.11961C0.976852 5.58602 2.18624 4.38626 3.72153 4.29119C5.36364 4.1895 7.70806 4.08887 10.5556 4.08887C13.4032 4.08887 15.7476 4.1895 17.3897 4.29119C18.925 4.38626 20.1344 5.58602 20.254 7.11961C20.3429 8.2611 20.4223 9.58291 20.4223 10.6666C20.4223 11.7504 20.3429 13.0722 20.254 14.2137C20.1344 15.7473 18.925 16.947 17.3897 17.0421C15.7476 17.1438 13.4032 17.2444 10.5556 17.2444C7.70806 17.2444 5.36364 17.1438 3.72153 17.0421C2.18623 16.947 0.976852 15.7473 0.857304 14.2137C0.768322 13.0722 0.688965 11.7504 0.688965 10.6666C0.688965 9.58291 0.768322 8.2611 0.857305 7.11961Z" fill="#12131A"/>
<path d="M10.1895 8.23029L12.8184 9.98285C13.3065 10.3083 13.3065 11.0257 12.8184 11.3511L10.1895 13.1037C9.64312 13.4679 8.91122 13.0762 8.91122 12.4195L8.91122 8.91443C8.91122 8.25772 9.64312 7.86602 10.1895 8.23029Z" fill="#12131A"/>
</g>
<defs>
<clipPath id="clip0">
<rect width="19.7333" height="19.7333" fill="white" transform="translate(0.688965 0.799805)"/>
</clipPath>
</defs>
</svg>
