<svg width="15" height="19" viewBox="0 0 15 19" fill="none" xmlns="http://www.w3.org/2000/svg">
<path fill-rule="evenodd" clip-rule="evenodd" d="M4.99849 7.53316C5.02299 7.99276 4.67028 8.3852 4.21068 8.4097C3.58342 8.44314 3.08661 8.48404 2.69838 8.52499C2.17701 8.57997 1.86022 8.90023 1.80756 9.36089C1.73195 10.0223 1.66623 11.0232 1.66623 12.5001C1.66623 13.977 1.73195 14.9779 1.80756 15.6393C1.86031 16.1008 2.1763 16.4201 2.69689 16.4751C3.60861 16.5713 5.11572 16.6669 7.49976 16.6669C9.88379 16.6669 11.3909 16.5713 12.3026 16.4751C12.8232 16.4201 13.1392 16.1008 13.192 15.6393C13.2676 14.9779 13.3333 13.977 13.3333 12.5001C13.3333 11.0232 13.2676 10.0223 13.192 9.36089C13.1393 8.90023 12.8225 8.57997 12.3011 8.52499C11.9129 8.48404 11.4161 8.44314 10.7888 8.4097C10.3292 8.3852 9.97652 7.99276 10.001 7.53316C10.0255 7.07356 10.418 6.72084 10.8776 6.74534C11.5299 6.78012 12.0557 6.82314 12.4759 6.86746C13.713 6.99792 14.6997 7.87553 14.8479 9.17159C14.9323 9.91025 15 10.9763 15 12.5001C15 14.0239 14.9323 15.09 14.8479 15.8286C14.6998 17.1239 13.7154 18.0019 12.4776 18.1326C11.4932 18.2365 9.92549 18.3336 7.49976 18.3336C5.07402 18.3336 3.50634 18.2365 2.52196 18.1326C1.28414 18.0019 0.299695 17.1239 0.151624 15.8286C0.0671839 15.09 -0.000488281 14.0239 -0.000488281 12.5001C-0.000488281 10.9763 0.0671839 9.91025 0.151624 9.17159C0.299783 7.87553 1.28652 6.99792 2.52357 6.86746C2.94382 6.82314 3.46956 6.78012 4.12195 6.74534C4.58155 6.72084 4.97399 7.07356 4.99849 7.53316Z" fill="white"/>
<path fill-rule="evenodd" clip-rule="evenodd" d="M5.17215 4.3394C4.8467 4.66484 4.31904 4.66484 3.9936 4.3394C3.66815 4.01395 3.66815 3.48629 3.9936 3.16085L6.91036 0.244086C7.23581 -0.0813619 7.76346 -0.0813619 8.08891 0.244086L11.0057 3.16085C11.3311 3.48629 11.3311 4.01395 11.0057 4.3394C10.6802 4.66484 10.1526 4.66484 9.82712 4.3394L8.33299 2.84527V10.8337C8.33299 11.2939 7.95989 11.667 7.49963 11.667C7.03938 11.667 6.66627 11.2939 6.66627 10.8337L6.66627 2.84527L5.17215 4.3394Z" fill="white"/>
</svg>
