<svg width="706" height="1229" viewBox="0 0 706 1229" fill="none" xmlns="http://www.w3.org/2000/svg">
<path d="M244.5 -14H0V230.5H244.5V-14Z" fill="white"/>
<path d="M489 -14H244.5V230.5H489V-14Z" fill="#00E99F"/>
<path fill-rule="evenodd" clip-rule="evenodd" d="M733.5 230.5C733.5 365.529 624.029 475 489 475C489 339.971 598.471 230.5 733.5 230.5Z" fill="white"/>
<path d="M244.5 -14V230.5C176.985 230.5 122.25 175.765 122.25 108.25V-14H244.5Z" fill="#00E99F"/>
<path d="M455.5 984V1228.5C387.985 1228.5 333.25 1173.76 333.25 1106.25V984H455.5Z" fill="#00E99F"/>
<path d="M733.5 230V474.5C665.985 474.5 611.25 419.765 611.25 352.25V230H733.5Z" fill="#00E99F"/>
<path d="M0 -14V230.5C67.5146 230.5 122.25 175.765 122.25 108.25V-14H0Z" fill="#00E99F"/>
<path d="M211 984V1228.5C278.515 1228.5 333.25 1173.76 333.25 1106.25V984H211Z" fill="#00E99F"/>
<path d="M489 230V474.5C556.515 474.5 611.25 419.765 611.25 352.25V230H489Z" fill="#00E99F"/>
<path d="M244.5 230.5C312.015 230.5 366.75 175.765 366.75 108.25C366.75 40.7354 312.015 -14 244.5 -14V230.5Z" fill="white"/>
<path d="M489 230.5C421.485 230.5 366.75 175.765 366.75 108.25C366.75 40.7354 421.485 -14 489 -14V230.5Z" fill="white"/>
<path d="M489 230.5H611.25C678.765 230.5 733.5 175.765 733.5 108.25C733.5 40.7354 678.765 -14 611.25 -14H489V230.5Z" fill="#00E99F"/>
<path d="M0 230.5V352.75C0 420.265 54.7354 475 122.25 475C189.765 475 244.5 420.265 244.5 352.75V230.5H0Z" fill="white"/>
<path d="M183.375 352.749C183.375 358.438 178.762 363.035 173.09 363.035H71.4103C65.7216 363.035 61.125 358.422 61.125 352.749C61.125 347.06 65.7379 342.464 71.4103 342.464H173.073C178.762 342.464 183.375 347.06 183.375 352.749Z" fill="black"/>
<path d="M122.25 413.875C116.561 413.875 111.965 409.262 111.965 403.59V301.927C111.965 296.238 116.578 291.642 122.25 291.642C127.939 291.642 132.535 296.254 132.535 301.927V403.59C132.535 409.262 127.939 413.875 122.25 413.875Z" fill="black"/>
<path d="M633.418 108.25C633.418 125.886 619.106 140.198 601.47 140.198H493.238C475.601 140.198 461.29 125.886 461.29 108.25C461.29 90.6132 475.601 76.3018 493.238 76.3018H601.47C619.106 76.3018 633.418 90.6132 633.418 108.25Z" fill="white"/>
</svg>
