<svg width="38" height="26" viewBox="0 0 38 26" fill="none" xmlns="http://www.w3.org/2000/svg">
<path fill-rule="evenodd" clip-rule="evenodd" d="M26.5906 25.9984C25.9371 25.9866 25.3198 25.6928 24.8939 25.1907L17.4791 16.5991C17.0469 16.1435 16.8965 15.4845 17.0874 14.883C17.2783 14.2815 17.7797 13.8347 18.3931 13.7194C19.0065 13.6041 19.6329 13.8389 20.0242 14.331L25.5386 20.7059V13.7296C25.5386 8.03554 20.9806 3.41963 15.3581 3.41963C10.1973 3.41911 5.48255 6.38245 3.19241 11.0662C2.75917 11.8843 1.76255 12.206 0.941694 11.7927C0.120833 11.3794 -0.227411 10.3805 0.155232 9.53685C3.03401 3.6697 8.95674 -0.0290771 15.426 0.000172207C22.9227 0.000172207 29 6.15472 29 13.7467V23.6614C29.0032 24.6339 28.407 25.5051 27.5068 25.8437C27.2149 25.9576 26.9032 26.0102 26.5906 25.9984Z" fill="#BCBCBC"/>
<path fill-rule="evenodd" clip-rule="evenodd" d="M33.1224 21.3946L37.5106 16.7494C37.9577 16.3187 38.1132 15.6957 37.9158 15.1272C37.7183 14.5587 37.1995 14.1363 36.565 14.0273C35.9305 13.9183 35.2825 14.1403 34.8776 14.6054L30.4894 19.2506C30.0423 19.6813 29.8868 20.3043 30.0843 20.8728C30.2817 21.4413 30.8005 21.8637 31.435 21.9727C32.0695 22.0817 32.7175 21.8597 33.1224 21.3946Z" fill="#BCBCBC"/>
</svg>
