<svg width="407" height="154" viewBox="0 0 407 154" fill="none" xmlns="http://www.w3.org/2000/svg">
<g filter="url(#filter0_d)">
<rect x="34" y="7" width="365" height="112" rx="4" fill="white"/>
<path d="M63.2509 44.3125C68.6577 44.3125 71.5643 40.9684 71.5643 37.4681C71.5643 34.0615 69.4703 31.5925 65.3137 30.7486L63.0947 30.3111C61.6883 30.0298 60.7819 29.2797 60.7819 28.0296C60.7819 26.842 61.9696 25.8106 63.7197 25.8106C65.5324 25.8106 66.7826 26.967 67.1888 28.2171L70.783 25.9669C69.6266 23.5917 67.1888 21.8102 63.7197 21.8102C58.7192 21.8102 56.2815 25.1856 56.2815 28.0921C56.2815 31.8738 58.938 33.8427 62.0321 34.4365L64.1573 34.8116C65.845 35.1553 66.9388 35.9992 66.9388 37.4681C66.9388 39.1245 65.5012 40.0621 63.2509 40.0621C60.7194 40.0621 59.1568 38.4682 58.5942 36.843L55.0314 38.9057C55.969 41.3122 58.3754 44.3125 63.2509 44.3125ZM81.5263 44.3438C84.4641 44.3438 86.808 42.9686 88.0894 40.8747L84.8391 38.7807C84.214 39.8746 82.9952 40.6247 81.5263 40.6559C79.3073 40.6247 77.7446 38.9682 77.7446 36.8118C77.7446 34.6865 79.3073 32.9989 81.5263 32.9676C83.1202 32.9989 84.3703 33.874 84.9641 35.0616L88.2144 32.9364C86.9331 30.7486 84.5578 29.2797 81.5263 29.2797C76.9633 29.2797 73.6817 32.6863 73.6817 36.8118C73.6817 40.9372 76.9633 44.3438 81.5263 44.3438ZM95.912 44.3438C97.8497 44.3438 99.0998 43.6562 99.6936 42.9999V44H103.319V35.3116C103.319 32.3426 101.194 29.2797 96.7871 29.2797C93.8493 29.2797 91.7553 30.9049 90.849 32.8426L93.6618 34.6553C94.1618 33.5927 95.1932 32.7176 96.7871 32.7176C98.631 32.7176 99.5374 33.7177 99.5374 34.4053C99.5374 35.0928 99.0686 35.4991 98.3185 35.4991H95.1932C92.3804 35.4991 90.3802 37.1243 90.3802 39.6246C90.3802 42.2186 92.4741 44.3438 95.912 44.3438ZM96.4433 41.2185C95.1307 41.2185 94.3806 40.5621 94.3806 39.7183C94.3806 38.8745 95.0057 38.3119 95.912 38.3119H99.5061V38.4994C99.5061 39.9996 98.3498 41.2185 96.4433 41.2185ZM110.998 44V35.8429C110.998 34.0302 112.154 32.8739 113.717 32.8739C115.467 32.8739 116.373 34.124 116.373 35.6866V44H120.28V34.8741C120.28 31.7175 117.873 29.2797 114.592 29.2797C112.685 29.2797 111.404 30.0923 110.81 30.7799V29.6235H107.091V44H110.998ZM135.72 44V35.8429C135.72 34.0927 136.782 32.8739 138.376 32.8739C140.064 32.8739 140.908 34.124 140.908 35.6866V44H144.814V35.8429C144.814 34.0927 145.939 32.8739 147.502 32.8739C149.252 32.8739 150.127 34.124 150.127 35.6866V44H154.034V34.8741C154.034 31.7175 151.471 29.2797 147.94 29.2797C145.346 29.2797 143.97 30.6236 143.47 31.2799C142.783 30.3424 141.345 29.2797 139.22 29.2797C137.345 29.2797 136.126 30.0923 135.532 30.7799V29.6235H131.813V44H135.72ZM164.848 44.3438C167.63 44.3438 169.943 43.0624 171.318 41.1247L168.224 38.937C167.568 40.0621 166.286 40.7184 164.848 40.7497C163.036 40.7184 161.567 39.6871 161.129 37.9369H172.318C172.756 32.9051 169.474 29.2797 164.786 29.2797C160.098 29.2797 156.973 32.7801 156.973 36.8118C156.973 40.8747 160.192 44.3438 164.848 44.3438ZM161.223 35.3116C161.661 33.874 162.942 32.8114 164.786 32.7801C166.63 32.8114 167.943 33.9677 168.349 35.3116H161.223Z" fill="black"/>
<rect x="55" y="67" width="173" height="38" rx="3" stroke="black" stroke-width="2"/>
<path d="M119.527 91.1529C122.173 91.1529 123.595 89.5165 123.595 87.8035C123.595 86.1365 122.571 84.9282 120.536 84.5153L119.451 84.3012C118.762 84.1635 118.319 83.7965 118.319 83.1847C118.319 82.6035 118.9 82.0988 119.756 82.0988C120.644 82.0988 121.255 82.6647 121.454 83.2765L123.213 82.1753C122.647 81.0129 121.454 80.1412 119.756 80.1412C117.309 80.1412 116.116 81.7929 116.116 83.2153C116.116 85.0659 117.416 86.0294 118.931 86.32L119.971 86.5035C120.796 86.6718 121.332 87.0847 121.332 87.8035C121.332 88.6141 120.628 89.0729 119.527 89.0729C118.288 89.0729 117.524 88.2929 117.248 87.4976L115.505 88.5071C115.964 89.6847 117.141 91.1529 119.527 91.1529ZM126.956 91V87.0388C126.956 86.1518 127.522 85.5553 128.287 85.5553C129.143 85.5553 129.587 86.1671 129.587 86.9318V91H131.499V86.5341C131.499 84.9894 130.321 83.7965 128.715 83.7965C127.874 83.7965 127.277 84.1176 126.956 84.4235V80.2941H125.044V91H126.956ZM135.719 91.1682C136.667 91.1682 137.279 90.8318 137.57 90.5106V91H139.344V86.7482C139.344 85.2953 138.304 83.7965 136.147 83.7965C134.71 83.7965 133.685 84.5918 133.242 85.54L134.618 86.4271C134.863 85.9071 135.367 85.4788 136.147 85.4788C137.05 85.4788 137.493 85.9682 137.493 86.3047C137.493 86.6412 137.264 86.84 136.897 86.84H135.367C133.991 86.84 133.012 87.6353 133.012 88.8588C133.012 90.1282 134.037 91.1682 135.719 91.1682ZM135.979 89.6388C135.337 89.6388 134.97 89.3176 134.97 88.9047C134.97 88.4918 135.276 88.2165 135.719 88.2165H137.478V88.3082C137.478 89.0424 136.912 89.6388 135.979 89.6388ZM143.071 91V87.3906C143.071 86.3353 143.652 85.6776 144.708 85.6776H145.457V83.8576H144.922C144.126 83.8576 143.362 84.1635 142.979 84.7906V83.9647H141.19V91H143.071ZM149.963 91.1682C151.324 91.1682 152.456 90.5412 153.129 89.5929L151.615 88.5224C151.294 89.0729 150.667 89.3941 149.963 89.4094C149.076 89.3941 148.357 88.8894 148.143 88.0329H153.618C153.832 85.5706 152.227 83.7965 149.932 83.7965C147.638 83.7965 146.109 85.5094 146.109 87.4824C146.109 89.4706 147.684 91.1682 149.963 91.1682ZM148.189 86.7482C148.403 86.0447 149.03 85.5247 149.932 85.5094C150.835 85.5247 151.477 86.0906 151.676 86.7482H148.189ZM162.389 91.1682C163.827 91.1682 164.974 90.4953 165.601 89.4706L164.01 88.4459C163.704 88.9812 163.108 89.3482 162.389 89.3635C161.303 89.3482 160.539 88.5376 160.539 87.4824C160.539 86.4424 161.303 85.6165 162.389 85.6012C163.169 85.6165 163.781 86.0447 164.072 86.6259L165.662 85.5859C165.035 84.5153 163.873 83.7965 162.389 83.7965C160.156 83.7965 158.55 85.4635 158.55 87.4824C158.55 89.5012 160.156 91.1682 162.389 91.1682ZM169.429 91.1682C170.377 91.1682 170.989 90.8318 171.28 90.5106V91H173.054V86.7482C173.054 85.2953 172.014 83.7965 169.857 83.7965C168.42 83.7965 167.395 84.5918 166.951 85.54L168.328 86.4271C168.573 85.9071 169.077 85.4788 169.857 85.4788C170.76 85.4788 171.203 85.9682 171.203 86.3047C171.203 86.6412 170.974 86.84 170.607 86.84H169.077C167.701 86.84 166.722 87.6353 166.722 88.8588C166.722 90.1282 167.747 91.1682 169.429 91.1682ZM169.689 89.6388C169.047 89.6388 168.68 89.3176 168.68 88.9047C168.68 88.4918 168.985 88.2165 169.429 88.2165H171.188V88.3082C171.188 89.0424 170.622 89.6388 169.689 89.6388ZM176.781 91V87.3906C176.781 86.3353 177.362 85.6776 178.417 85.6776H179.167V83.8576H178.631C177.836 83.8576 177.071 84.1635 176.689 84.7906V83.9647H174.9V91H176.781ZM185.508 84.3471C184.912 83.98 184.208 83.7965 183.535 83.7965C181.425 83.7965 179.819 85.5094 179.819 87.4824C179.819 89.4553 181.425 91.1682 183.535 91.1682C184.208 91.1682 184.912 90.9847 185.508 90.6176V91H187.42V80.2941H185.508V84.3471ZM183.658 89.3635C182.572 89.3482 181.807 88.5376 181.807 87.4824C181.807 86.4424 182.572 85.6165 183.658 85.6012C184.743 85.6165 185.508 86.4424 185.508 87.4824C185.508 88.5376 184.743 89.3482 183.658 89.3635Z" fill="black"/>
<path fill-rule="evenodd" clip-rule="evenodd" d="M89.9986 84.0396C90.028 84.5911 89.6047 85.062 89.0532 85.0914C88.3005 85.1315 87.7044 85.1806 87.2385 85.2297C86.6129 85.2957 86.2328 85.68 86.1696 86.2328C86.0789 87.0264 86 88.2275 86 89.9997C86 91.772 86.0789 92.973 86.1696 93.7666C86.2329 94.3204 86.6121 94.7036 87.2368 94.7695C88.3308 94.885 90.1392 94.9997 93 94.9997C95.8608 94.9997 97.6692 94.885 98.7632 94.7695C99.3879 94.7036 99.7671 94.3204 99.8304 93.7666C99.9211 92.973 100 91.7719 100 89.9997C100 88.2275 99.9211 87.0264 99.8304 86.2328C99.7672 85.68 99.3871 85.2957 98.7615 85.2297C98.2956 85.1806 97.6995 85.1315 96.9468 85.0914C96.3953 85.062 95.972 84.5911 96.0014 84.0396C96.0308 83.4881 96.5017 83.0648 97.0532 83.0942C97.8361 83.136 98.4669 83.1876 98.9712 83.2408C100.456 83.3973 101.64 84.4504 101.817 86.0056C101.919 86.892 102 88.1712 102 89.9997C102 91.8282 101.919 93.1074 101.817 93.9938C101.64 95.5481 100.458 96.6017 98.9732 96.7585C97.7919 96.8831 95.9108 96.9997 93 96.9997C90.0892 96.9997 88.2081 96.8831 87.0268 96.7585C85.5415 96.6017 84.3602 95.5481 84.1825 93.9938C84.0812 93.1074 84 91.8282 84 89.9997C84 88.1712 84.0812 86.892 84.1825 86.0056C84.3603 84.4504 85.5444 83.3973 87.0288 83.2408C87.5331 83.1876 88.1639 83.136 88.9468 83.0942C89.4983 83.0648 89.9692 83.4881 89.9986 84.0396Z" fill="#12131A"/>
<path fill-rule="evenodd" clip-rule="evenodd" d="M90.2071 80.2071C89.8166 80.5976 89.1834 80.5976 88.7929 80.2071C88.4024 79.8166 88.4024 79.1834 88.7929 78.7929L92.2929 75.2929C92.6834 74.9024 93.3166 74.9024 93.7071 75.2929L97.2071 78.7929C97.5976 79.1834 97.5976 79.8166 97.2071 80.2071C96.8166 80.5976 96.1834 80.5976 95.7929 80.2071L94 78.4142V88C94 88.5523 93.5523 89 93 89C92.4477 89 92 88.5523 92 88V78.4142L90.2071 80.2071Z" fill="#12131A"/>
<path d="M338.606 24.0508H340.921H341.552H343.34C343.656 24.0508 343.971 23.7352 343.971 23.4196V21.6312C343.971 21.3156 343.656 21 343.34 21H341.026H340.395H338.711C338.396 21 338.08 21.3156 338.08 21.6312V23.3144C337.975 23.7352 338.291 24.0508 338.606 24.0508Z" fill="black"/>
<path d="M350.598 24.0508H352.912H355.963H356.594H358.278C358.593 24.0508 358.909 23.7352 358.909 23.4196V21.6312C358.909 21.3156 358.593 21 358.278 21H355.963H352.912H352.281H350.598C350.282 21 349.967 21.3156 349.967 21.6312V23.3144C349.967 23.7352 350.282 24.0508 350.598 24.0508Z" fill="black"/>
<path d="M320.617 26.9964H322.3C322.616 26.9964 322.931 27.312 322.931 27.6276V29.3108C322.931 29.6264 323.247 29.942 323.562 29.942H325.877H328.191C328.507 29.942 328.822 30.2576 328.822 30.5732V32.2563C328.822 32.5719 329.138 32.8875 329.454 32.8875H331.137C331.452 32.8875 331.768 33.2031 331.768 33.5187V35.8331V38.8839V41.1983C331.768 41.5139 331.452 41.8295 331.137 41.8295H329.664C329.348 41.8295 329.033 41.5139 329.033 41.1983V39.5151C329.033 39.1995 328.717 38.8839 328.402 38.8839H326.718C326.403 38.8839 326.087 39.1995 326.087 39.5151V42.0399V44.3543C326.087 44.6699 326.403 44.9855 326.718 44.9855H328.402C328.717 44.9855 329.033 45.3011 329.033 45.6167V47.2999C329.033 47.6155 329.348 47.9311 329.664 47.9311H331.347C331.663 47.9311 331.978 47.6155 331.978 47.2999V45.6167C331.978 45.3011 332.294 44.9855 332.61 44.9855H334.293C334.608 44.9855 334.924 44.6699 334.924 44.3543V42.0399V39.7255C334.924 39.4099 335.24 39.0943 335.555 39.0943H337.238C337.554 39.0943 337.87 39.4099 337.87 39.7255V41.4087C337.87 41.7243 338.185 42.0399 338.501 42.0399H340.184C340.5 42.0399 340.815 41.7243 340.815 41.4087V39.0943V36.7799C340.815 36.4643 341.131 36.1487 341.446 36.1487H343.34C343.656 36.1487 343.971 35.8331 343.971 35.5175V33.6239C343.971 33.3083 344.287 32.9927 344.602 32.9927H346.286C346.601 32.9927 346.917 32.6771 346.917 32.3615V30.6784C346.917 30.3628 346.601 30.0472 346.286 30.0472H344.602C344.287 30.0472 343.971 29.7316 343.971 29.416V27.6276C343.971 27.312 343.656 26.9964 343.34 26.9964H341.657C341.341 26.9964 341.026 27.312 341.026 27.6276V29.3108C341.026 29.6264 340.71 29.942 340.394 29.942H338.711C338.396 29.942 338.08 29.6264 338.08 29.3108V26.9964V24.682C338.08 24.3664 337.764 24.0508 337.449 24.0508H335.134H332.084H329.664C329.348 24.0508 329.033 24.3664 329.033 24.682V26.3652C329.033 26.6808 328.717 26.9964 328.402 26.9964H326.718C326.403 26.9964 326.087 26.6808 326.087 26.3652V24.682C326.087 24.3664 326.403 24.0508 326.718 24.0508H328.402C328.717 24.0508 329.033 23.7352 329.033 23.4196V21.6312C329.033 21.3156 328.717 21 328.402 21H326.087H323.773C323.457 21 323.142 21.3156 323.142 21.6312V23.3144C323.142 23.63 322.826 23.9456 322.51 23.9456H320.827C320.512 23.9456 320.196 24.2612 320.196 24.5768V26.26C319.986 26.6808 320.301 26.9964 320.617 26.9964ZM334.293 26.9964C334.608 26.9964 334.924 27.312 334.924 27.6276V29.3108C334.924 29.6264 334.608 29.942 334.293 29.942H332.61C332.294 29.942 331.978 29.6264 331.978 29.3108V27.6276C331.978 27.312 332.294 26.9964 332.61 26.9964H334.293Z" fill="black"/>
<path d="M343.972 26.3652C343.972 26.6808 344.287 26.9964 344.603 26.9964H346.286C346.602 26.9964 346.917 27.312 346.917 27.6276V29.3108C346.917 29.6264 347.233 29.942 347.548 29.942H349.863H352.808H353.44H355.123C355.438 29.942 355.754 29.6264 355.754 29.3108V27.6276C355.754 27.312 355.438 26.9964 355.123 26.9964H352.808H350.494C350.178 26.9964 349.863 26.6808 349.863 26.3652V24.682C349.863 24.3664 349.547 24.0508 349.232 24.0508H346.917H346.286H344.603C344.287 24.0508 343.972 24.3664 343.972 24.682V26.3652Z" fill="black"/>
<path d="M323.667 36.043H325.982H326.613H328.296C328.612 36.043 328.927 35.7274 328.927 35.4118V33.6234C328.927 33.3078 328.612 32.9922 328.296 32.9922H325.982H325.351H323.667C323.352 32.9922 323.036 33.3078 323.036 33.6234V35.3066C323.036 35.7274 323.247 36.043 323.667 36.043Z" fill="black"/>
<path d="M346.286 38.9893H344.603C344.287 38.9893 343.972 39.3049 343.972 39.6205V41.3036C343.972 41.6192 344.287 41.9348 344.603 41.9348H346.286C346.602 41.9348 346.917 41.6192 346.917 41.3036V39.6205C347.022 39.3049 346.707 38.9893 346.286 38.9893Z" fill="black"/>
<path d="M350.598 42.0396H352.281C352.597 42.0396 352.912 41.724 352.912 41.4084V39.7252C352.912 39.4096 353.228 39.094 353.544 39.094H355.227C355.542 39.094 355.858 38.7784 355.858 38.4628V36.7796C355.858 36.464 356.174 36.1484 356.489 36.1484H358.172C358.488 36.1484 358.804 35.8328 358.804 35.5173V33.2029V32.5717V30.6781C358.804 30.3625 358.488 30.0469 358.172 30.0469H356.489C356.174 30.0469 355.858 30.3625 355.858 30.6781V32.3613C355.858 32.6769 355.542 32.9925 355.227 32.9925H352.912H350.598C350.282 32.9925 349.967 33.3081 349.967 33.6237V35.938V38.9888V41.3032C349.967 41.724 350.282 42.0396 350.598 42.0396Z" fill="black"/>
<path d="M320.617 44.9842H322.3C322.615 44.9842 322.931 44.6686 322.931 44.353V42.0386V39.093V38.4619V36.7787C322.931 36.4631 322.615 36.1475 322.3 36.1475H320.617C320.301 36.1475 319.985 36.4631 319.985 36.7787V39.093V42.0386V44.353C319.985 44.6686 320.301 44.9842 320.617 44.9842Z" fill="black"/>
<path d="M347.021 44.3535C347.021 44.669 347.337 44.9846 347.653 44.9846H349.336C349.651 44.9846 349.967 44.669 349.967 44.3535V42.6703C349.967 42.3547 349.651 42.0391 349.336 42.0391H347.653C347.337 42.0391 347.021 42.3547 347.021 42.6703V44.3535Z" fill="black"/>
<path d="M313.989 44.9854H311.044H308.624C308.308 44.9854 307.993 45.301 307.993 45.6165V47.2997C307.993 47.6153 307.677 47.9309 307.362 47.9309H305.047H302.628C302.312 47.9309 301.996 48.2465 301.996 48.5621V50.2453C301.996 50.5609 301.681 50.8765 301.365 50.8765H299.682C299.366 50.8765 299.051 50.5609 299.051 50.2453V48.5621C299.051 48.2465 298.735 47.9309 298.42 47.9309H296.631C296.316 47.9309 296 48.2465 296 48.5621V50.8765V53.9273V56.8729V59.1873C296 59.5029 296.316 59.8185 296.631 59.8185H298.314C298.63 59.8185 298.946 59.5029 298.946 59.1873V56.8729V54.6637C298.946 54.3481 299.261 54.0325 299.577 54.0325H301.891H304.942H307.256C307.572 54.0325 307.888 53.7169 307.888 53.4013V51.7181C307.888 51.4025 308.203 51.0869 308.519 51.0869H310.833H313.148C313.463 51.0869 313.779 50.7713 313.779 50.4557V48.7725C313.779 48.4569 314.094 48.1413 314.41 48.1413H317.04H317.671H319.354C319.67 48.1413 319.985 47.8257 319.985 47.5101V45.8269C319.985 45.5114 319.67 45.1958 319.354 45.1958H317.04H313.989V44.9854Z" fill="black"/>
<path d="M379.318 48.0354C379.634 48.0354 379.95 47.7198 379.95 47.4042V45.721C379.95 45.4054 379.634 45.0898 379.318 45.0898H377.635C377.32 45.0898 377.004 45.4054 377.004 45.721V47.299C377.004 47.6146 377.32 47.9302 377.635 47.9302H379.318V48.0354Z" fill="black"/>
<path d="M329.033 48.6666C329.033 48.351 328.717 48.0354 328.402 48.0354H326.718C326.403 48.0354 326.087 47.7198 326.087 47.4042V45.721C326.087 45.4054 325.772 45.0898 325.456 45.0898H323.773C323.457 45.0898 323.142 45.4054 323.142 45.721V48.0354V50.3498C323.142 50.6654 323.457 50.981 323.773 50.981H326.087H326.718H328.402C328.717 50.981 329.033 50.6654 329.033 50.3498V48.6666Z" fill="black"/>
<path d="M335.03 48.6683C335.03 48.3527 334.714 48.0371 334.398 48.0371H332.715C332.4 48.0371 332.084 48.3527 332.084 48.6683V50.3515C332.084 50.6671 332.4 50.9827 332.715 50.9827H334.398C334.714 50.9827 335.03 50.6671 335.03 50.3515V48.6683Z" fill="black"/>
<path d="M338.606 50.9827H340.289C340.605 50.9827 340.92 50.6671 340.92 50.3515V48.6683C340.92 48.3527 340.605 48.0371 340.289 48.0371H338.606C338.29 48.0371 337.975 48.3527 337.975 48.6683V50.3515C337.975 50.6671 338.29 50.9827 338.606 50.9827Z" fill="black"/>
<path d="M349.967 50.9813H352.281C352.597 50.9813 352.912 50.6657 352.912 50.3501V48.6669C352.912 48.3513 353.228 48.0357 353.543 48.0357H355.227C355.542 48.0357 355.858 48.3513 355.858 48.6669V50.3501C355.858 50.6657 356.173 50.9813 356.489 50.9813H358.172C358.488 50.9813 358.803 50.6657 358.803 50.3501V48.0357V45.0901V42.0393V41.4081V39.7249C358.803 39.4093 358.488 39.0938 358.172 39.0938H356.489C356.173 39.0938 355.858 39.4093 355.858 39.7249V41.4081C355.858 41.7237 355.542 42.0393 355.227 42.0393H353.543C353.228 42.0393 352.912 42.3549 352.912 42.6705V44.3537C352.912 44.6693 352.597 44.9849 352.281 44.9849H350.598C350.282 44.9849 349.967 45.3005 349.967 45.6161V47.2993C349.967 47.6149 349.651 47.9305 349.335 47.9305H347.652C347.337 47.9305 347.021 47.6149 347.021 47.2993V45.6161C347.021 45.3005 346.705 44.9849 346.39 44.9849H344.707C344.391 44.9849 344.075 44.6693 344.075 44.3537V42.6705C344.075 42.3549 343.76 42.0393 343.444 42.0393H341.761C341.445 42.0393 341.13 42.3549 341.13 42.6705V44.9849V47.2993C341.13 47.6149 341.445 47.9305 341.761 47.9305H343.339C343.655 47.9305 343.97 48.2461 343.97 48.5617V50.2449C343.97 50.5605 344.286 50.8761 344.601 50.8761H346.916H349.967V50.9813Z" fill="black"/>
<path d="M365.642 48.0354H367.325C367.641 48.0354 367.957 47.7198 367.957 47.4042V45.721C367.957 45.4054 367.641 45.0898 367.325 45.0898H365.011H362.697C362.381 45.0898 362.065 45.4054 362.065 45.721V48.0354V50.981V53.2954C362.065 53.611 362.381 53.9266 362.697 53.9266H365.011H367.957H370.271C370.587 53.9266 370.902 53.611 370.902 53.2954V51.6122C370.902 51.2966 371.218 50.981 371.533 50.981H373.217C373.532 50.981 373.848 51.2966 373.848 51.6122V53.2954C373.848 53.611 373.532 53.9266 373.217 53.9266H371.533C371.218 53.9266 370.902 54.2422 370.902 54.5578V56.241C370.902 56.5566 370.587 56.8722 370.271 56.8722H368.588C368.272 56.8722 367.957 57.1878 367.957 57.5034V59.8178V62.7634V65.0778C367.957 65.3934 368.272 65.709 368.588 65.709H370.271C370.587 65.709 370.902 65.3934 370.902 65.0778V62.7634V60.449C370.902 60.1334 371.218 59.8178 371.533 59.8178H373.217C373.532 59.8178 373.848 59.5022 373.848 59.1866V57.5034C373.848 57.1878 374.163 56.8722 374.479 56.8722H376.162C376.478 56.8722 376.793 56.5566 376.793 56.241V53.9266V50.8758V48.5614C376.793 48.2458 376.478 47.9302 376.162 47.9302H373.848H370.902H368.588C368.272 47.9302 367.957 48.2458 367.957 48.5614V50.2446C367.957 50.5602 367.641 50.8758 367.325 50.8758H365.642C365.327 50.8758 365.011 50.5602 365.011 50.2446V48.5614C365.011 48.2458 365.221 48.0354 365.642 48.0354Z" fill="black"/>
<path d="M382.264 48.0371H380.58C380.265 48.0371 379.949 48.3527 379.949 48.6683V50.9827V54.0335V56.3479C379.949 56.6635 380.265 56.9791 380.58 56.9791H382.264C382.579 56.9791 382.895 56.6635 382.895 56.3479V54.0335V50.9827V50.3515V48.6683C383 48.2475 382.684 48.0371 382.264 48.0371Z" fill="black"/>
<path d="M316.303 54.0345C316.618 54.0345 316.934 53.7189 316.934 53.4033V51.7201C316.934 51.4045 316.618 51.0889 316.303 51.0889H314.619C314.304 51.0889 313.988 51.4045 313.988 51.7201V53.4033C313.988 53.7189 314.304 54.0345 314.619 54.0345H316.303Z" fill="black"/>
<path d="M359.014 54.6634C359.014 54.3478 358.698 54.0322 358.383 54.0322H356.7C356.384 54.0322 356.068 54.3478 356.068 54.6634V56.3466C356.068 56.6622 356.384 56.9778 356.7 56.9778H358.383C358.698 56.9778 359.014 56.6622 359.014 56.3466V54.6634Z" fill="black"/>
<path d="M313.358 56.9775H311.675C311.36 56.9775 311.044 57.2931 311.044 57.6087V59.2919C311.044 59.6075 311.36 59.9231 311.675 59.9231H313.99H314.621H316.304C316.62 59.9231 316.935 59.6075 316.935 59.2919V57.6087C316.935 57.2931 316.62 56.9775 316.304 56.9775H313.99H313.358Z" fill="black"/>
<path d="M323.036 60.0286H325.351C325.666 60.0286 325.982 59.713 325.982 59.3974V57.083V56.4518V54.6634C325.982 54.3478 325.666 54.0322 325.351 54.0322H323.668C323.352 54.0322 323.036 54.3478 323.036 54.6634V56.3466C323.036 56.6622 322.721 56.9778 322.405 56.9778H320.722C320.406 56.9778 320.091 57.2934 320.091 57.609V59.2922C320.091 59.6078 320.406 59.9234 320.722 59.9234H323.036V60.0286Z" fill="black"/>
<path d="M355.333 56.9775H353.65C353.334 56.9775 353.019 57.2931 353.019 57.6087V59.2919C353.019 59.6075 353.334 59.9231 353.65 59.9231H355.333C355.649 59.9231 355.964 59.6075 355.964 59.2919V57.6087C355.964 57.2931 355.649 56.9775 355.333 56.9775Z" fill="black"/>
<path d="M359.015 62.3427C359.015 62.6583 359.33 62.9739 359.646 62.9739H361.329C361.645 62.9739 361.96 63.2895 361.96 63.6051V65.2883C361.96 65.6039 362.276 65.9195 362.591 65.9195H364.275C364.59 65.9195 364.906 65.6039 364.906 65.2883V62.9739V60.6595C364.906 60.3439 364.59 60.0283 364.275 60.0283H361.96H361.329H359.646C359.33 60.0283 359.015 60.3439 359.015 60.6595V62.3427Z" fill="black"/>
<path d="M382.263 60.0283H379.949H377.003H374.689C374.373 60.0283 374.058 60.3439 374.058 60.6595V62.9739V65.9195V68.3391C374.058 68.6547 373.742 68.9703 373.427 68.9703H371.744C371.428 68.9703 371.112 69.2859 371.112 69.6015V71.2847C371.112 71.6003 371.428 71.9159 371.744 71.9159H373.427C373.742 71.9159 374.058 72.2315 374.058 72.5471V74.8615V77.1758C374.058 77.4914 374.373 77.807 374.689 77.807H376.372C376.688 77.807 377.003 77.4914 377.003 77.1758V74.8615V72.5471C377.003 72.2315 377.319 71.9159 377.635 71.9159H379.318C379.633 71.9159 379.949 71.6003 379.949 71.2847V68.9703V66.6559C379.949 66.3403 379.633 66.0247 379.318 66.0247H377.635C377.319 66.0247 377.003 65.7091 377.003 65.3935V63.7103C377.003 63.3947 377.319 63.0791 377.635 63.0791H379.949H380.58H382.263C382.579 63.0791 382.895 62.7635 382.895 62.4479V60.7647C383 60.2387 382.684 60.0283 382.263 60.0283Z" fill="black"/>
<path d="M359.646 68.971H361.329C361.645 68.971 361.96 68.6554 361.96 68.3398V66.6566C361.96 66.341 361.645 66.0254 361.329 66.0254H359.646C359.33 66.0254 359.015 66.341 359.015 66.6566V68.3398C359.015 68.6554 359.225 68.971 359.646 68.971Z" fill="black"/>
<path d="M353.65 72.0213H355.964H356.595H358.279C358.594 72.0213 358.91 71.7057 358.91 71.3901V69.7069C358.91 69.3913 358.594 69.0757 358.279 69.0757H356.595C356.28 69.0757 355.964 68.7601 355.964 68.4445V66.1302V65.499V63.8158C355.964 63.5002 355.649 63.1846 355.333 63.1846H353.65C353.334 63.1846 353.019 63.5002 353.019 63.8158V66.1302V69.1809V71.4953C353.019 71.7057 353.229 72.0213 353.65 72.0213Z" fill="black"/>
<path d="M296.631 74.9664H298.314C298.63 74.9664 298.946 74.6508 298.946 74.3352V72.0208V71.3896V69.7064C298.946 69.3908 298.63 69.0752 298.314 69.0752H296.631C296.316 69.0752 296 69.3908 296 69.7064V72.0208V74.3352C296 74.6508 296.316 74.9664 296.631 74.9664Z" fill="black"/>
<path d="M319.985 78.018H322.931H323.562H325.245C325.561 78.018 325.877 77.7024 325.877 77.3868V75.7036C325.877 75.388 325.561 75.0724 325.245 75.0724H322.931H320.617C320.301 75.0724 319.985 74.7568 319.985 74.4412V72.758C319.985 72.4424 319.67 72.1268 319.354 72.1268H317.671C317.356 72.1268 317.04 72.4424 317.04 72.758V74.4412C317.04 74.7568 316.724 75.0724 316.409 75.0724H314.726C314.41 75.0724 314.094 74.7568 314.094 74.4412V72.758C314.094 72.4424 314.41 72.1268 314.726 72.1268H316.409C316.724 72.1268 317.04 71.8112 317.04 71.4956V69.8124C317.04 69.4968 316.724 69.1812 316.409 69.1812H314.726C314.41 69.1812 314.094 68.8656 314.094 68.55V66.8668C314.094 66.5512 314.41 66.2356 314.726 66.2356H316.409C316.724 66.2356 317.04 66.5512 317.04 66.8668V68.3396C317.04 68.6552 317.356 68.9708 317.671 68.9708H319.354C319.67 68.9708 319.985 68.6552 319.985 68.3396V66.6564C319.985 66.3408 320.301 66.0252 320.617 66.0252H322.3C322.615 66.0252 322.931 65.7096 322.931 65.394V63.7108C322.931 63.3952 322.615 63.0796 322.3 63.0796H319.985H317.04H314.094H311.149H308.624C308.308 63.0796 307.993 62.764 307.993 62.4485V60.1341V59.5029V57.8197C307.993 57.5041 307.677 57.1885 307.362 57.1885H305.678C305.363 57.1885 305.047 57.5041 305.047 57.8197V59.5029C305.047 59.8185 304.732 60.1341 304.416 60.1341H301.996H299.682C299.366 60.1341 299.051 60.4497 299.051 60.7653V63.0796V65.394C299.051 65.7096 299.366 66.0252 299.682 66.0252H301.365C301.681 66.0252 301.996 65.7096 301.996 65.394V63.7108C301.996 63.3952 302.312 63.0796 302.628 63.0796H304.311C304.626 63.0796 304.942 63.3952 304.942 63.7108V65.394C304.942 65.7096 305.258 66.0252 305.573 66.0252H307.256C307.572 66.0252 307.888 66.3408 307.888 66.6564V68.3396C307.888 68.6552 307.572 68.9708 307.256 68.9708H305.678C305.363 68.9708 305.047 68.6552 305.047 68.3396V66.6564C305.047 66.3408 304.732 66.0252 304.416 66.0252H302.628C302.312 66.0252 301.996 66.3408 301.996 66.6564V68.9708V71.9164V74.2308C301.996 74.5464 302.312 74.862 302.628 74.862H304.942H307.256C307.572 74.862 307.888 74.5464 307.888 74.2308V72.5476C307.888 72.232 308.203 71.9164 308.519 71.9164H310.202C310.518 71.9164 310.833 72.232 310.833 72.5476V74.862V77.1764C310.833 77.492 311.149 77.8076 311.464 77.8076H313.779H317.04H319.985V78.018Z" fill="black"/>
<path d="M382.264 74.9678H380.58C380.265 74.9678 379.949 75.2834 379.949 75.599V77.2822C379.949 77.5978 380.265 77.9134 380.58 77.9134H382.264C382.579 77.9134 382.895 77.5978 382.895 77.2822V75.599C383 75.2834 382.684 74.9678 382.264 74.9678Z" fill="black"/>
<path d="M310.307 78.0186H307.992H307.361H305.678C305.362 78.0186 305.047 78.3342 305.047 78.6497V80.3329C305.047 80.6485 305.362 80.9641 305.678 80.9641H307.992H308.624H310.307C310.622 80.9641 310.938 80.6485 310.938 80.3329V78.6497C311.043 78.229 310.728 78.0186 310.307 78.0186Z" fill="black"/>
<path d="M326.613 80.9641H328.296C328.611 80.9641 328.927 80.6485 328.927 80.3329V78.6497C328.927 78.3342 328.611 78.0186 328.296 78.0186H326.613C326.297 78.0186 325.981 78.3342 325.981 78.6497V80.3329C325.981 80.6485 326.297 80.9641 326.613 80.9641Z" fill="black"/>
<path d="M335.66 80.9641H337.343C337.658 80.9641 337.974 80.6485 337.974 80.3329V78.6497C337.974 78.3342 337.658 78.0186 337.343 78.0186H335.66C335.344 78.0186 335.028 78.3342 335.028 78.6497V80.3329C335.028 80.6485 335.239 80.9641 335.66 80.9641Z" fill="black"/>
<path d="M344.603 78.0186C344.287 78.0186 343.972 78.3342 343.972 78.6497V80.3329C343.972 80.6485 344.287 80.9641 344.603 80.9641H346.286C346.602 80.9641 346.917 80.6485 346.917 80.3329V78.6497C346.917 78.3342 346.602 78.0186 346.286 78.0186H344.603Z" fill="black"/>
<path d="M377.635 80.9641H379.318C379.634 80.9641 379.95 80.6485 379.95 80.3329V78.6497C379.95 78.3342 379.634 78.0186 379.318 78.0186H377.635C377.32 78.0186 377.004 78.3342 377.004 78.6497V80.3329C377.004 80.6485 377.214 80.9641 377.635 80.9641Z" fill="black"/>
<path d="M296 83.2773C296 83.5929 296.316 83.9085 296.631 83.9085H298.946H301.891H302.522H304.206C304.521 83.9085 304.837 83.5929 304.837 83.2773V81.5941C304.837 81.2785 304.521 80.9629 304.206 80.9629H301.996H299.051H298.314H296.631C296.316 80.9629 296 81.2785 296 81.5941V83.2773Z" fill="black"/>
<path d="M314.619 80.9629C314.304 80.9629 313.988 81.2785 313.988 81.5941V83.2773C313.988 83.5929 314.304 83.9085 314.619 83.9085H316.303C316.618 83.9085 316.934 83.5929 316.934 83.2773V81.5941C316.934 81.2785 316.618 80.9629 316.303 80.9629H314.619Z" fill="black"/>
<path d="M341.657 84.0149H343.34C343.656 84.0149 343.971 83.6993 343.971 83.3837V81.7005C343.971 81.3849 343.656 81.0693 343.34 81.0693H341.026H340.394H338.711C338.396 81.0693 338.08 81.3849 338.08 81.7005V83.3837C338.08 83.6993 338.396 84.0149 338.711 84.0149H341.026H341.657Z" fill="black"/>
<path d="M382.263 80.965H380.58C380.265 80.965 379.949 81.2806 379.949 81.5962V83.2794C379.949 83.595 379.633 83.9106 379.318 83.9106H377.635C377.319 83.9106 377.003 83.595 377.003 83.2794V81.5962C377.003 81.2806 376.688 80.965 376.372 80.965H374.689C374.373 80.965 374.058 80.6494 374.058 80.3338V78.6506C374.058 78.335 373.742 78.0194 373.427 78.0194H371.743C371.428 78.0194 371.112 78.335 371.112 78.6506V80.3338C371.112 80.6494 370.797 80.965 370.481 80.965H368.587C368.272 80.965 367.956 80.6494 367.956 80.3338V78.6506C367.956 78.335 368.272 78.0194 368.587 78.0194H370.271C370.586 78.0194 370.902 77.7038 370.902 77.3882V75.705C370.902 75.3894 370.586 75.0738 370.271 75.0738H368.587C368.272 75.0738 367.956 74.7582 367.956 74.4426V72.1282V71.497V69.8138C367.956 69.4982 367.641 69.1826 367.325 69.1826H365.642C365.326 69.1826 365.011 69.4982 365.011 69.8138V71.497C365.011 71.8126 364.695 72.1282 364.38 72.1282H362.065H359.751C359.435 72.1282 359.12 72.4438 359.12 72.7594V75.0738V77.3882C359.12 77.7038 359.435 78.0194 359.751 78.0194H362.065H364.38C364.695 78.0194 365.011 78.335 365.011 78.6506V80.3338C365.011 80.6494 364.695 80.965 364.38 80.965H362.065H359.751C359.435 80.965 359.12 80.6494 359.12 80.3338V78.6506C359.12 78.335 358.804 78.0194 358.488 78.0194H356.805C356.49 78.0194 356.174 77.7038 356.174 77.3882V75.705C356.174 75.3894 355.858 75.0738 355.543 75.0738H353.86C353.544 75.0738 353.228 75.3894 353.228 75.705V77.3882C353.228 77.7038 352.913 78.0194 352.597 78.0194H350.914C350.598 78.0194 350.283 78.335 350.283 78.6506V80.965V83.2794C350.283 83.595 349.967 83.9106 349.652 83.9106H347.337H345.023C344.707 83.9106 344.392 84.2262 344.392 84.5418V86.8561V89.9069V92.8525V95.7981V98.1125C344.392 98.4281 344.707 98.7437 345.023 98.7437H347.337H350.388H353.334H353.965H355.648C355.964 98.7437 356.279 98.4281 356.279 98.1125V96.4293C356.279 96.1137 355.964 95.7981 355.648 95.7981H353.334H350.388H348.074C347.758 95.7981 347.442 95.4825 347.442 95.1669V93.5889C347.442 93.2733 347.758 92.9577 348.074 92.9577H349.757C350.072 92.9577 350.388 92.6421 350.388 92.3265V90.6433C350.388 90.3277 350.072 90.0121 349.757 90.0121H348.074C347.758 90.0121 347.442 89.6965 347.442 89.3809V87.6977C347.442 87.3821 347.758 87.0665 348.074 87.0665H349.757C350.072 87.0665 350.388 87.3821 350.388 87.6977V89.3809C350.388 89.6965 350.704 90.0121 351.019 90.0121H352.702C353.018 90.0121 353.334 90.3277 353.334 90.6433V92.3265C353.334 92.6421 353.649 92.9577 353.965 92.9577H355.648C355.964 92.9577 356.279 93.2733 356.279 93.5889V95.2721C356.279 95.5877 356.595 95.9033 356.91 95.9033H359.225H361.539C361.855 95.9033 362.17 96.2189 362.17 96.5345V98.2177C362.17 98.5333 362.486 98.8489 362.802 98.8489H364.485C364.8 98.8489 365.116 98.5333 365.116 98.2177V96.5345C365.116 96.2189 365.432 95.9033 365.747 95.9033H367.43C367.746 95.9033 368.061 96.2189 368.061 96.5345V98.2177C368.061 98.5333 368.377 98.8489 368.693 98.8489H370.376C370.691 98.8489 371.007 98.5333 371.007 98.2177V96.5345C371.007 96.2189 371.323 95.9033 371.638 95.9033H373.321C373.637 95.9033 373.953 96.2189 373.953 96.5345V98.8489V101.163C373.953 101.479 374.268 101.794 374.584 101.794H377.003H380.054H380.685H382.263C382.579 101.794 382.895 101.479 382.895 101.163V99.4801C382.895 99.1645 382.579 98.8489 382.263 98.8489H380.58C380.265 98.8489 379.949 98.5333 379.949 98.2177V95.9033V92.9577V90.6433C379.949 90.3277 380.265 90.0121 380.58 90.0121H382.263C382.579 90.0121 382.895 89.6965 382.895 89.3809V87.0665V84.121V83.4898V81.8066C383 81.2806 382.684 80.965 382.263 80.965ZM376.267 92.9577H374.584C374.268 92.9577 373.953 92.6421 373.953 92.3265V90.6433C373.953 90.3277 374.268 90.0121 374.584 90.0121H376.267C376.583 90.0121 376.898 90.3277 376.898 90.6433V92.3265C377.003 92.6421 376.688 92.9577 376.267 92.9577ZM373.321 84.0158C373.637 84.0158 373.953 84.3314 373.953 84.647V86.3301C373.953 86.6457 373.637 86.9613 373.321 86.9613H371.638C371.323 86.9613 371.007 86.6457 371.007 86.3301V84.647C371.007 84.3314 371.323 84.0158 371.638 84.0158H373.321ZM355.332 84.0158C355.648 84.0158 355.964 84.3314 355.964 84.647V86.3301C355.964 86.6457 355.648 86.9613 355.332 86.9613H353.649C353.334 86.9613 353.018 86.6457 353.018 86.3301V84.647C353.018 84.3314 353.334 84.0158 353.649 84.0158H355.332ZM365.011 92.9577H361.96H359.646C359.33 92.9577 359.014 92.6421 359.014 92.3265V90.0121V86.9613V84.647C359.014 84.3314 359.33 84.0158 359.646 84.0158H361.96H365.011H367.325C367.641 84.0158 367.956 84.3314 367.956 84.647V86.9613V90.0121V92.3265C367.956 92.6421 367.641 92.9577 367.325 92.9577H365.011Z" fill="black"/>
<path d="M364.274 86.9609H362.591C362.276 86.9609 361.96 87.2765 361.96 87.5921V89.2753C361.96 89.5909 362.276 89.9065 362.591 89.9065H364.274C364.59 89.9065 364.906 89.5909 364.906 89.2753V87.5921C365.011 87.2765 364.695 86.9609 364.274 86.9609Z" fill="black"/>
<path d="M338.606 92.9566H340.289C340.605 92.9566 340.92 92.641 340.92 92.3254V90.011V89.3798V87.6966C340.92 87.381 340.605 87.0654 340.289 87.0654H338.606C338.29 87.0654 337.975 87.381 337.975 87.6966V90.011V92.3254C337.975 92.641 338.29 92.9566 338.606 92.9566Z" fill="black"/>
<path d="M361.96 99.5843C361.96 99.2687 361.645 98.9531 361.329 98.9531H359.646C359.33 98.9531 359.015 99.2687 359.015 99.5843V101.268C359.015 101.583 359.33 101.899 359.646 101.899H361.329C361.645 101.899 361.96 101.583 361.96 101.268V99.5843Z" fill="black"/>
<path d="M335.028 102.635C335.028 102.32 334.713 102.004 334.397 102.004H332.714C332.398 102.004 332.083 101.688 332.083 101.373V99.0585V96.7441C332.083 96.4285 332.398 96.1129 332.714 96.1129H335.028H335.66H337.343C337.658 96.1129 337.974 95.7973 337.974 95.4817V93.5881C337.974 93.2725 337.658 92.9569 337.343 92.9569H335.66C335.344 92.9569 335.028 92.6413 335.028 92.3257V90.0113V86.9605V84.0149V81.7005C335.028 81.3849 334.713 81.0693 334.397 81.0693H332.083H331.452H329.663C329.348 81.0693 329.032 81.3849 329.032 81.7005V83.3837C329.032 83.6993 329.348 84.0149 329.663 84.0149H331.346C331.662 84.0149 331.978 84.3305 331.978 84.6461V86.3293C331.978 86.6449 331.662 86.9605 331.346 86.9605H329.663C329.348 86.9605 329.032 87.2761 329.032 87.5917V89.2749C329.032 89.5905 328.716 89.9061 328.401 89.9061H326.718C326.402 89.9061 326.086 90.2217 326.086 90.5373V92.2205C326.086 92.5361 325.771 92.8517 325.455 92.8517H323.772C323.456 92.8517 323.141 92.5361 323.141 92.2205V90.5373C323.141 90.2217 323.456 89.9061 323.772 89.9061H325.455C325.771 89.9061 326.086 89.5905 326.086 89.2749V87.5917C326.086 87.2761 325.771 86.9605 325.455 86.9605H323.772C323.456 86.9605 323.141 86.6449 323.141 86.3293V84.6461C323.141 84.3305 323.456 84.0149 323.772 84.0149H325.455C325.771 84.0149 326.086 83.6993 326.086 83.3837V81.7005C326.086 81.3849 325.771 81.0693 325.455 81.0693H323.141H320.827C320.511 81.0693 320.195 81.3849 320.195 81.7005V84.0149V86.9605V90.0113V92.9569V95.2713C320.195 95.5869 320.511 95.9025 320.827 95.9025H323.141H326.192H328.506C328.822 95.9025 329.137 96.2181 329.137 96.5337V98.2169C329.137 98.5325 328.822 98.8481 328.506 98.8481H326.192H323.877C323.562 98.8481 323.246 99.1637 323.246 99.4793V102.004V105.055V107.264C323.246 107.58 323.562 107.895 323.877 107.895H326.192H328.506C328.822 107.895 329.137 107.58 329.137 107.264V105.581C329.137 105.265 329.453 104.95 329.768 104.95H332.083H332.714H334.397C334.713 104.95 335.028 104.634 335.028 104.318V102.635Z" fill="black"/>
<path d="M341.025 102.634C341.025 102.319 341.34 102.003 341.656 102.003H343.339C343.655 102.003 343.97 101.688 343.97 101.372V99.6888C343.97 99.3732 343.655 99.0576 343.339 99.0576H341.025H337.974H337.343H335.66C335.344 99.0576 335.028 99.3732 335.028 99.6888V101.372C335.028 101.688 335.344 102.003 335.66 102.003H337.343C337.658 102.003 337.974 102.319 337.974 102.634V104.318C337.974 104.633 338.29 104.949 338.605 104.949H340.288C340.604 104.949 340.919 104.633 340.919 104.318V102.634H341.025Z" fill="black"/>
<path d="M347.021 102.636C347.021 102.32 346.705 102.005 346.39 102.005H344.706C344.391 102.005 344.075 102.32 344.075 102.636V104.319C344.075 104.635 344.391 104.95 344.706 104.95H346.39C346.705 104.95 347.021 104.635 347.021 104.319V102.636Z" fill="black"/>
<path d="M355.333 102.005H353.65C353.334 102.005 353.019 102.32 353.019 102.636V104.319C353.019 104.635 353.334 104.95 353.65 104.95H355.333C355.649 104.95 355.964 104.635 355.964 104.319V102.636C355.964 102.215 355.649 102.005 355.333 102.005Z" fill="black"/>
<path d="M365.011 102.636C365.011 102.32 364.695 102.005 364.38 102.005H362.697C362.381 102.005 362.065 102.32 362.065 102.636V104.319C362.065 104.635 362.381 104.95 362.697 104.95H364.38C364.695 104.95 365.011 104.635 365.011 104.319V102.636Z" fill="black"/>
<path d="M373.954 102.636C373.954 102.32 373.638 102.005 373.322 102.005H371.008H368.589C368.273 102.005 367.957 102.32 367.957 102.636V104.319C367.957 104.635 367.642 104.95 367.326 104.95H365.643C365.327 104.95 365.012 105.266 365.012 105.582V107.265C365.012 107.58 365.327 107.896 365.643 107.896H367.957H370.272C370.587 107.896 370.903 107.58 370.903 107.265V105.582C370.903 105.266 371.218 104.95 371.534 104.95H373.217C373.533 104.95 373.848 104.635 373.848 104.319V102.636H373.954Z" fill="black"/>
<path d="M337.343 104.949H335.66C335.344 104.949 335.028 105.265 335.028 105.58V107.264C335.028 107.579 335.344 107.895 335.66 107.895H337.343C337.658 107.895 337.974 107.579 337.974 107.264V105.58C337.974 105.265 337.658 104.949 337.343 104.949Z" fill="black"/>
<path d="M343.34 104.949H341.657C341.341 104.949 341.025 105.265 341.025 105.58V107.264C341.025 107.579 341.341 107.895 341.657 107.895H343.34C343.655 107.895 343.971 107.579 343.971 107.264V105.58C343.971 105.265 343.655 104.949 343.34 104.949Z" fill="black"/>
<path d="M352.281 104.949H349.967H349.336H347.653C347.337 104.949 347.021 105.265 347.021 105.58V107.264C347.021 107.579 347.337 107.895 347.653 107.895H349.967H350.598H352.281C352.597 107.895 352.913 107.579 352.913 107.264V105.58C353.018 105.265 352.702 104.949 352.281 104.949Z" fill="black"/>
<path d="M379.319 104.949H377.004H376.373H374.69C374.374 104.949 374.059 105.265 374.059 105.58V107.264C374.059 107.579 374.374 107.895 374.69 107.895H377.004H377.635H379.319C379.634 107.895 379.95 107.579 379.95 107.264V105.58C379.95 105.265 379.634 104.949 379.319 104.949Z" fill="black"/>
<path d="M296.631 42.0399H316.304C316.619 42.0399 316.935 41.7243 316.935 41.4087V39.0943V36.0435V33.0979V30.0472V26.9964V24.0508V21.6312C317.04 21.3156 316.724 21 316.304 21H296.631C296.316 21 296 21.3156 296 21.6312V23.9456V26.8912V29.942V32.8875V35.8331V38.8839V41.1983C296 41.7243 296.316 42.0399 296.631 42.0399ZM299.051 36.0435V33.0979V30.0472V26.9964V24.3664C299.051 24.156 299.156 24.0508 299.366 24.0508H313.674C313.884 24.0508 313.989 24.2612 313.989 24.3664V26.9964V30.0472V32.9927V35.9383V38.5683C313.989 38.7787 313.779 38.8839 313.674 38.8839H299.366C299.156 38.8839 299.051 38.6735 299.051 38.5683V36.0435Z" fill="black"/>
<path d="M302.627 36.0423H310.307C310.622 36.0423 310.938 35.7267 310.938 35.4111V33.0967V30.0459V27.6263C310.938 27.3107 310.622 26.9951 310.307 26.9951H302.627C302.312 26.9951 301.996 27.3107 301.996 27.6263V29.9407V32.8863V35.2007C301.996 35.7267 302.312 36.0423 302.627 36.0423Z" fill="black"/>
<path d="M382.263 21H362.591C362.276 21 361.96 21.3156 361.96 21.6312V23.9456V26.8912V29.942V32.8875V35.8331V38.8839V41.1983C361.96 41.5139 362.276 41.8295 362.591 41.8295H382.263C382.579 41.8295 382.895 41.5139 382.895 41.1983V38.8839V35.8331V32.8875V30.0472V26.9964V24.0508V21.6312C383 21.3156 382.684 21 382.263 21ZM379.949 26.9964V30.0472V32.9927V35.9383V38.5683C379.949 38.7787 379.739 38.8839 379.633 38.8839H365.326C365.116 38.8839 365.011 38.6735 365.011 38.5683V35.9383V32.9927V30.0472V26.9964V24.3664C365.011 24.156 365.221 24.0508 365.326 24.0508H379.633C379.844 24.0508 379.949 24.2612 379.949 24.3664V26.9964Z" fill="black"/>
<path d="M376.268 26.9951H368.588C368.273 26.9951 367.957 27.3107 367.957 27.6263V29.9407V32.8863V35.2007C367.957 35.5163 368.273 35.8319 368.588 35.8319H376.268C376.583 35.8319 376.899 35.5163 376.899 35.2007V32.8863V30.0459V27.6263C377.004 27.3107 376.689 26.9951 376.268 26.9951Z" fill="black"/>
<path d="M316.304 86.9609H296.631C296.316 86.9609 296 87.2765 296 87.5921V89.9065V92.8521V95.7977V98.8485V102.004V105.055V107.264C296 107.58 296.316 107.896 296.631 107.896H316.304C316.619 107.896 316.935 107.58 316.935 107.264V104.95V102.004V99.0589V96.0081V93.0625V90.1169V87.8025C317.04 87.2765 316.724 86.9609 316.304 86.9609ZM313.989 92.9573V95.9029V98.9537V102.004V104.634C313.989 104.845 313.779 104.95 313.674 104.95H299.366C299.156 104.95 299.051 104.74 299.051 104.634V102.004V99.0589V96.0081V93.0625V90.4325C299.051 90.2221 299.261 90.1169 299.366 90.1169H313.674C313.884 90.1169 313.989 90.3273 313.989 90.4325V92.9573Z" fill="black"/>
<path d="M310.307 92.957H302.627C302.312 92.957 301.996 93.2726 301.996 93.5882V95.9026V98.9534V101.268C301.996 101.689 302.312 102.004 302.627 102.004H310.307C310.622 102.004 310.938 101.689 310.938 101.373V99.0586V96.0078V93.5882C311.043 93.2726 310.728 92.957 310.307 92.957Z" fill="black"/>
</g>
<defs>
<filter id="filter0_d" x="0" y="0" width="407" height="154" filterUnits="userSpaceOnUse" color-interpolation-filters="sRGB">
<feFlood flood-opacity="0" result="BackgroundImageFix"/>
<feColorMatrix in="SourceAlpha" type="matrix" values="0 0 0 0 0 0 0 0 0 0 0 0 0 0 0 0 0 0 127 0" result="hardAlpha"/>
<feOffset dx="-13" dy="14"/>
<feGaussianBlur stdDeviation="10.5"/>
<feComposite in2="hardAlpha" operator="out"/>
<feColorMatrix type="matrix" values="0 0 0 0 0 0 0 0 0 0 0 0 0 0 0 0 0 0 0.08 0"/>
<feBlend mode="normal" in2="BackgroundImageFix" result="effect1_dropShadow"/>
<feBlend mode="normal" in="SourceGraphic" in2="effect1_dropShadow" result="shape"/>
</filter>
</defs>
</svg>
