<svg width="221" height="390" viewBox="0 0 221 390" fill="none" xmlns="http://www.w3.org/2000/svg">
<rect x="0.5625" width="219.799" height="389.691" rx="12.211" fill="url(#paint0_linear)"/>
<path d="M62.0273 216.181V214.633H62.932C63.7921 214.633 64.4356 213.964 64.4356 213.154C64.4356 212.358 63.7602 211.721 62.932 211.721H61.3584V216.181H62.0273ZM62.0273 212.326H62.8237C63.3461 212.326 63.7284 212.683 63.7284 213.154C63.7284 213.645 63.3461 214.015 62.8237 214.015H62.0273V212.326ZM66.3087 216.251C67.1942 216.251 67.8632 215.595 67.8632 214.734C67.8632 213.874 67.1942 213.218 66.3087 213.218C65.4295 213.218 64.7542 213.874 64.7542 214.734C64.7542 215.595 65.4295 216.251 66.3087 216.251ZM66.3087 215.665C65.7799 215.665 65.3913 215.27 65.3913 214.734C65.3913 214.199 65.7799 213.804 66.3087 213.798C66.8311 213.804 67.2261 214.199 67.2261 214.734C67.2261 215.27 66.8311 215.665 66.3087 215.665ZM68.8711 212.613C69.1132 212.613 69.2915 212.441 69.2915 212.212C69.2915 211.982 69.1132 211.804 68.8711 211.804C68.6417 211.804 68.4569 211.982 68.4569 212.212C68.4569 212.441 68.6417 212.613 68.8711 212.613ZM69.1769 216.181V213.288H68.5716V216.181H69.1769ZM70.6769 216.181V214.543C70.6769 214.078 70.9763 213.785 71.3777 213.785C71.7854 213.785 72.0403 214.072 72.0403 214.486V216.181H72.6455V214.359C72.6455 213.715 72.1804 213.218 71.4987 213.218C71.0464 213.218 70.747 213.448 70.6387 213.62V213.288H70.0716V216.181H70.6769ZM75.2196 216.219V215.658H74.8756C74.6016 215.658 74.3468 215.518 74.3468 215.129V213.817H75.2196V213.288H74.3468V212.587H73.9008V212.6C73.9008 213.116 73.5887 213.377 73.251 213.377H73.2319V213.817H73.7416V215.187C73.7416 215.881 74.1621 216.219 74.7991 216.219H75.2196ZM78.2165 217.659L80.4845 213.288H79.7965L78.8536 215.168L77.9298 213.288H77.2481L78.5032 215.786L77.5029 217.659H78.2165ZM82.2548 216.251C83.1403 216.251 83.8093 215.595 83.8093 214.734C83.8093 213.874 83.1403 213.218 82.2548 213.218C81.3756 213.218 80.7003 213.874 80.7003 214.734C80.7003 215.595 81.3756 216.251 82.2548 216.251ZM82.2548 215.665C81.726 215.665 81.3374 215.27 81.3374 214.734C81.3374 214.199 81.726 213.804 82.2548 213.798C82.7772 213.804 83.1722 214.199 83.1722 214.734C83.1722 215.27 82.7772 215.665 82.2548 215.665ZM85.7346 216.251C86.5947 216.251 87.0151 215.652 87.0151 214.926V213.288H86.4099V214.938C86.4099 215.384 86.1487 215.671 85.7346 215.671C85.3141 215.671 85.0593 215.384 85.0593 214.938V213.288H84.454V214.926C84.454 215.652 84.8681 216.251 85.7346 216.251ZM88.4397 216.181V214.633C88.4397 214.148 88.72 213.817 89.2042 213.817H89.4591V213.225H89.2488C88.8793 213.225 88.5416 213.403 88.4015 213.69V213.288H87.8345V216.181H88.4397ZM93.18 216.251C93.7534 216.251 94.2376 215.97 94.4988 215.531L93.9891 215.2C93.8298 215.48 93.5304 215.665 93.18 215.665C92.6512 215.665 92.2626 215.263 92.2626 214.734C92.2626 214.199 92.6512 213.804 93.18 213.798C93.5368 213.804 93.849 214.002 93.9955 214.288L94.5115 213.957C94.2503 213.505 93.7661 213.218 93.18 213.218C92.3008 213.218 91.6255 213.874 91.6255 214.734C91.6255 215.595 92.3008 216.251 93.18 216.251ZM96.1755 216.251C96.6279 216.251 96.9337 216.028 97.042 215.862V216.181H97.6026V214.352C97.6026 213.766 97.1566 213.218 96.3412 213.218C95.7359 213.218 95.3409 213.543 95.1562 213.957L95.6085 214.25C95.7232 213.976 95.9525 213.766 96.3412 213.766C96.7808 213.766 96.991 214.015 96.991 214.206C96.991 214.365 96.8763 214.473 96.6916 214.473H96.029C95.4683 214.473 95.0606 214.798 95.0606 215.308C95.0606 215.83 95.4938 216.251 96.1755 216.251ZM96.2265 215.728C95.8825 215.728 95.6913 215.544 95.6913 215.314C95.6913 215.104 95.857 214.945 96.0991 214.945H97.0037V214.983C97.0037 215.416 96.7107 215.728 96.2265 215.728ZM99.0912 216.181V214.543C99.0912 214.091 99.3779 213.785 99.7729 213.785C100.181 213.785 100.423 214.072 100.423 214.486V216.181H101.028V214.543C101.028 214.091 101.308 213.785 101.71 213.785C102.117 213.785 102.347 214.072 102.347 214.486V216.181H102.952V214.359C102.952 213.715 102.481 213.218 101.78 213.218C101.225 213.218 100.939 213.524 100.83 213.702C100.671 213.435 100.346 213.218 99.9003 213.218C99.448 213.218 99.1613 213.448 99.053 213.62V213.288H98.4859V216.181H99.0912ZM105.219 216.251C105.786 216.251 106.264 215.983 106.531 215.55L106.054 215.225C105.888 215.499 105.569 215.671 105.219 215.671C104.798 215.671 104.397 215.397 104.314 214.913H106.691C106.793 213.951 106.117 213.218 105.2 213.218C104.282 213.218 103.664 213.919 103.664 214.734C103.664 215.55 104.321 216.251 105.219 216.251ZM104.333 214.448C104.429 214.072 104.735 213.779 105.2 213.779C105.671 213.779 106.003 214.11 106.054 214.448H104.333ZM108.044 216.181V214.633C108.044 214.148 108.324 213.817 108.809 213.817H109.063V213.225H108.853C108.484 213.225 108.146 213.403 108.006 213.69V213.288H107.439V216.181H108.044ZM110.703 216.251C111.155 216.251 111.461 216.028 111.57 215.862V216.181H112.13V214.352C112.13 213.766 111.684 213.218 110.869 213.218C110.263 213.218 109.868 213.543 109.684 213.957L110.136 214.25C110.251 213.976 110.48 213.766 110.869 213.766C111.308 213.766 111.519 214.015 111.519 214.206C111.519 214.365 111.404 214.473 111.219 214.473H110.557C109.996 214.473 109.588 214.798 109.588 215.308C109.588 215.83 110.021 216.251 110.703 216.251ZM110.754 215.728C110.41 215.728 110.219 215.544 110.219 215.314C110.219 215.104 110.385 214.945 110.627 214.945H111.531V214.983C111.531 215.416 111.238 215.728 110.754 215.728ZM115.656 216.251C116.108 216.251 116.414 216.028 116.522 215.862V216.181H117.083V214.352C117.083 213.766 116.637 213.218 115.821 213.218C115.216 213.218 114.821 213.543 114.636 213.957L115.089 214.25C115.203 213.976 115.433 213.766 115.821 213.766C116.261 213.766 116.471 214.015 116.471 214.206C116.471 214.365 116.356 214.473 116.172 214.473H115.509C114.948 214.473 114.541 214.798 114.541 215.308C114.541 215.83 114.974 216.251 115.656 216.251ZM115.706 215.728C115.362 215.728 115.171 215.544 115.171 215.314C115.171 215.104 115.337 214.945 115.579 214.945H116.484V214.983C116.484 215.416 116.191 215.728 115.706 215.728ZM119.655 216.219V215.658H119.311C119.037 215.658 118.782 215.518 118.782 215.129V213.817H119.655V213.288H118.782V212.587H118.336V212.6C118.336 213.116 118.024 213.377 117.686 213.377H117.667V213.817H118.177V215.187C118.177 215.881 118.597 216.219 119.234 216.219H119.655ZM123.798 216.219V215.658H123.454C123.18 215.658 122.925 215.518 122.925 215.129V213.817H123.798V213.288H122.925V212.587H122.48V212.6C122.48 213.116 122.167 213.377 121.83 213.377H121.811V213.817H122.32V215.187C122.32 215.881 122.741 216.219 123.378 216.219H123.798ZM125.166 216.181V214.55C125.166 214.091 125.466 213.785 125.867 213.785C126.275 213.785 126.53 214.072 126.53 214.486V216.181H127.135V214.359C127.135 213.715 126.67 213.218 125.988 213.218C125.58 213.218 125.3 213.403 125.166 213.569V211.721H124.561V216.181H125.166ZM129.396 216.251C129.963 216.251 130.441 215.983 130.709 215.55L130.231 215.225C130.065 215.499 129.747 215.671 129.396 215.671C128.976 215.671 128.574 215.397 128.492 214.913H130.868C130.97 213.951 130.295 213.218 129.377 213.218C128.46 213.218 127.842 213.919 127.842 214.734C127.842 215.55 128.498 216.251 129.396 216.251ZM128.511 214.448C128.606 214.072 128.912 213.779 129.377 213.779C129.849 213.779 130.18 214.11 130.231 214.448H128.511ZM137.756 213.951C137.756 212.664 136.737 211.657 135.437 211.657C134.131 211.657 133.118 212.664 133.118 213.951C133.118 215.238 134.131 216.244 135.437 216.244C135.819 216.244 136.176 216.155 136.488 216.002L136.902 216.493H137.66L136.972 215.684C137.457 215.263 137.756 214.652 137.756 213.951ZM135.437 215.595C134.507 215.595 133.825 214.868 133.825 213.951C133.825 213.033 134.507 212.307 135.437 212.307C136.367 212.307 137.049 213.033 137.049 213.951C137.049 214.435 136.858 214.868 136.539 215.168L135.915 214.429H135.169L136.049 215.48C135.864 215.556 135.66 215.595 135.437 215.595ZM140.122 214.461H140.198C141.128 214.461 141.683 213.804 141.683 213.078C141.683 212.352 141.097 211.721 140.198 211.721H138.644V216.181H139.313V214.473L141.001 216.181H141.899L140.122 214.461ZM140.122 212.333C140.663 212.333 140.982 212.645 140.982 213.078C140.982 213.524 140.663 213.849 140.122 213.849H139.313V212.333H140.122ZM145.517 216.251C146.09 216.251 146.574 215.97 146.835 215.531L146.326 215.2C146.166 215.48 145.867 215.665 145.517 215.665C144.988 215.665 144.599 215.263 144.599 214.734C144.599 214.199 144.988 213.804 145.517 213.798C145.873 213.804 146.186 214.002 146.332 214.288L146.848 213.957C146.587 213.505 146.103 213.218 145.517 213.218C144.637 213.218 143.962 213.874 143.962 214.734C143.962 215.595 144.637 216.251 145.517 216.251ZM148.92 216.251C149.805 216.251 150.474 215.595 150.474 214.734C150.474 213.874 149.805 213.218 148.92 213.218C148.041 213.218 147.365 213.874 147.365 214.734C147.365 215.595 148.041 216.251 148.92 216.251ZM148.92 215.665C148.391 215.665 148.002 215.27 148.002 214.734C148.002 214.199 148.391 213.804 148.92 213.798C149.442 213.804 149.837 214.199 149.837 214.734C149.837 215.27 149.442 215.665 148.92 215.665ZM153.502 213.556C153.241 213.339 152.903 213.218 152.559 213.218C151.705 213.218 151.03 213.887 151.03 214.734C151.03 215.588 151.705 216.251 152.559 216.251C152.903 216.251 153.241 216.13 153.502 215.913V216.181H154.107V211.721H153.502V213.556ZM152.584 215.665C152.056 215.665 151.667 215.27 151.667 214.734C151.667 214.199 152.056 213.804 152.584 213.798C153.107 213.804 153.502 214.199 153.502 214.734C153.502 215.27 153.107 215.665 152.584 215.665ZM156.367 216.251C156.934 216.251 157.412 215.983 157.68 215.55L157.202 215.225C157.036 215.499 156.718 215.671 156.367 215.671C155.947 215.671 155.545 215.397 155.462 214.913H157.839C157.941 213.951 157.265 213.218 156.348 213.218C155.431 213.218 154.813 213.919 154.813 214.734C154.813 215.55 155.469 216.251 156.367 216.251ZM155.482 214.448C155.577 214.072 155.883 213.779 156.348 213.779C156.819 213.779 157.151 214.11 157.202 214.448H155.482ZM159.313 215.83C159.313 215.588 159.135 215.397 158.88 215.397C158.632 215.397 158.453 215.595 158.453 215.824C158.453 216.009 158.574 216.168 158.746 216.225L158.453 216.99H158.887L159.275 216.009C159.301 215.951 159.313 215.894 159.313 215.83ZM83.4804 225.251C84.366 225.251 85.035 224.595 85.035 223.734C85.035 222.874 84.366 222.218 83.4804 222.218C82.6013 222.218 81.9259 222.874 81.9259 223.734C81.9259 224.595 82.6013 225.251 83.4804 225.251ZM83.4804 224.665C82.9517 224.665 82.563 224.27 82.563 223.734C82.563 223.199 82.9517 222.804 83.4804 222.798C84.0029 222.804 84.3979 223.199 84.3979 223.734C84.3979 224.27 84.0029 224.665 83.4804 224.665ZM86.3741 225.181V223.633C86.3741 223.148 86.6544 222.817 87.1386 222.817H87.3935V222.225H87.1832C86.8137 222.225 86.4761 222.403 86.3359 222.69V222.288H85.7689V225.181H86.3741ZM91.0252 225.244L92.4396 222.288H91.7706L90.8851 224.206L90.025 222.288H89.3305L90.7449 225.244H91.0252ZM93.2288 221.613C93.4709 221.613 93.6493 221.441 93.6493 221.212C93.6493 220.982 93.4709 220.804 93.2288 220.804C92.9995 220.804 92.8147 220.982 92.8147 221.212C92.8147 221.441 92.9995 221.613 93.2288 221.613ZM93.5346 225.181V222.288H92.9294V225.181H93.5346ZM95.264 225.251C95.9967 225.251 96.3726 224.824 96.3726 224.34C96.3726 223.906 96.1241 223.556 95.3787 223.422C95.0793 223.371 94.8881 223.276 94.8881 223.053C94.8881 222.881 95.0347 222.741 95.2959 222.741C95.5061 222.741 95.71 222.862 95.7737 223.078L96.277 222.849C96.1432 222.479 95.7992 222.218 95.2895 222.218C94.6588 222.218 94.2829 222.613 94.2829 223.059C94.2829 223.664 94.7671 223.881 95.2576 223.97C95.5698 224.034 95.761 224.136 95.761 224.352C95.761 224.563 95.5826 224.69 95.2704 224.69C95.0283 224.69 94.8117 224.55 94.7161 224.327L94.1873 224.569C94.3466 224.939 94.6843 225.251 95.264 225.251ZM97.3165 221.613C97.5586 221.613 97.7369 221.441 97.7369 221.212C97.7369 220.982 97.5586 220.804 97.3165 220.804C97.0871 220.804 96.9024 220.982 96.9024 221.212C96.9024 221.441 97.0871 221.613 97.3165 221.613ZM97.6223 225.181V222.288H97.017V225.181H97.6223ZM100.224 225.219V224.658H99.8804C99.6065 224.658 99.3516 224.518 99.3516 224.129V222.817H100.224V222.288H99.3516V221.587H98.9057V221.6C98.9057 222.116 98.5935 222.377 98.2558 222.377H98.2367V222.817H98.7464V224.187C98.7464 224.881 99.1669 225.219 99.804 225.219H100.224ZM103.266 225.181V223.633C103.266 223.148 103.546 222.817 104.03 222.817H104.285V222.225H104.075C103.706 222.225 103.368 222.403 103.228 222.69V222.288H102.661V225.181H103.266ZM105.925 225.251C106.377 225.251 106.683 225.028 106.791 224.862V225.181H107.352V223.352C107.352 222.766 106.906 222.218 106.09 222.218C105.485 222.218 105.09 222.543 104.905 222.957L105.358 223.25C105.473 222.976 105.702 222.766 106.09 222.766C106.53 222.766 106.74 223.015 106.74 223.206C106.74 223.365 106.626 223.473 106.441 223.473H105.778C105.218 223.473 104.81 223.798 104.81 224.308C104.81 224.83 105.243 225.251 105.925 225.251ZM105.976 224.728C105.632 224.728 105.441 224.544 105.441 224.314C105.441 224.104 105.606 223.945 105.848 223.945H106.753V223.983C106.753 224.416 106.46 224.728 105.976 224.728ZM108.578 221.613C108.82 221.613 108.998 221.441 108.998 221.212C108.998 220.982 108.82 220.804 108.578 220.804C108.342 220.804 108.164 220.982 108.164 221.212C108.164 221.441 108.342 221.613 108.578 221.613ZM107.597 226.659C108.355 226.659 108.884 226.181 108.884 225.34V222.288H108.278V225.34C108.278 225.799 108.03 226.085 107.597 226.085V226.659ZM111.105 225.251C111.99 225.251 112.659 224.595 112.659 223.734C112.659 222.874 111.99 222.218 111.105 222.218C110.225 222.218 109.55 222.874 109.55 223.734C109.55 224.595 110.225 225.251 111.105 225.251ZM111.105 224.665C110.576 224.665 110.187 224.27 110.187 223.734C110.187 223.199 110.576 222.804 111.105 222.798C111.627 222.804 112.022 223.199 112.022 223.734C112.022 224.27 111.627 224.665 111.105 224.665ZM115.687 222.556C115.425 222.339 115.088 222.218 114.744 222.218C113.89 222.218 113.215 222.887 113.215 223.734C113.215 224.588 113.89 225.251 114.744 225.251C115.088 225.251 115.425 225.13 115.687 224.913V225.181H116.292V220.721H115.687V222.556ZM114.769 224.665C114.24 224.665 113.852 224.27 113.852 223.734C113.852 223.199 114.24 222.804 114.769 222.798C115.292 222.804 115.687 223.199 115.687 223.734C115.687 224.27 115.292 224.665 114.769 224.665ZM117.45 221.613C117.692 221.613 117.87 221.441 117.87 221.212C117.87 220.982 117.692 220.804 117.45 220.804C117.22 220.804 117.036 220.982 117.036 221.212C117.036 221.441 117.22 221.613 117.45 221.613ZM117.756 225.181V222.288H117.15V225.181H117.756ZM119.211 226.659L121.479 222.288H120.791L119.848 224.168L118.924 222.288H118.243L119.498 224.786L118.497 226.659H119.211ZM122.966 225.251C123.418 225.251 123.724 225.028 123.832 224.862V225.181H124.393V223.352C124.393 222.766 123.947 222.218 123.132 222.218C122.526 222.218 122.131 222.543 121.947 222.957L122.399 223.25C122.514 222.976 122.743 222.766 123.132 222.766C123.571 222.766 123.781 223.015 123.781 223.206C123.781 223.365 123.667 223.473 123.482 223.473H122.819C122.259 223.473 121.851 223.798 121.851 224.308C121.851 224.83 122.284 225.251 122.966 225.251ZM123.017 224.728C122.673 224.728 122.482 224.544 122.482 224.314C122.482 224.104 122.647 223.945 122.89 223.945H123.794V223.983C123.794 224.416 123.501 224.728 123.017 224.728ZM125.569 225.244C125.824 225.244 126.003 225.053 126.003 224.824C126.003 224.588 125.824 224.397 125.569 224.397C125.321 224.397 125.143 224.588 125.143 224.824C125.143 225.053 125.321 225.244 125.569 225.244ZM128.158 225.251C128.732 225.251 129.216 224.97 129.477 224.531L128.967 224.2C128.808 224.48 128.509 224.665 128.158 224.665C127.629 224.665 127.241 224.263 127.241 223.734C127.241 223.199 127.629 222.804 128.158 222.798C128.515 222.804 128.827 223.002 128.974 223.288L129.49 222.957C129.228 222.505 128.744 222.218 128.158 222.218C127.279 222.218 126.604 222.874 126.604 223.734C126.604 224.595 127.279 225.251 128.158 225.251ZM131.561 225.251C132.447 225.251 133.116 224.595 133.116 223.734C133.116 222.874 132.447 222.218 131.561 222.218C130.682 222.218 130.007 222.874 130.007 223.734C130.007 224.595 130.682 225.251 131.561 225.251ZM131.561 224.665C131.033 224.665 130.644 224.27 130.644 223.734C130.644 223.199 131.033 222.804 131.561 222.798C132.084 222.804 132.479 223.199 132.479 223.734C132.479 224.27 132.084 224.665 131.561 224.665ZM134.455 225.181V223.543C134.455 223.091 134.742 222.785 135.137 222.785C135.545 222.785 135.787 223.072 135.787 223.486V225.181H136.392V223.543C136.392 223.091 136.672 222.785 137.074 222.785C137.481 222.785 137.711 223.072 137.711 223.486V225.181H138.316V223.359C138.316 222.715 137.844 222.218 137.144 222.218C136.589 222.218 136.303 222.524 136.194 222.702C136.035 222.435 135.71 222.218 135.264 222.218C134.812 222.218 134.525 222.448 134.417 222.62V222.288H133.85V225.181H134.455Z" fill="#252429"/>
<path d="M72.2871 311.809C73.5868 311.809 74.6061 310.802 74.6061 309.515C74.6061 308.228 73.5868 307.222 72.2871 307.222C70.981 307.222 69.9681 308.228 69.9681 309.515C69.9681 310.802 70.981 311.809 72.2871 311.809ZM72.2871 311.159C71.3569 311.159 70.6816 310.433 70.6816 309.515C70.6816 308.598 71.3569 307.872 72.2871 307.872C73.2173 307.872 73.8989 308.598 73.8989 309.515C73.8989 310.433 73.2173 311.159 72.2871 311.159ZM75.9591 311.745V310.197C75.9591 309.713 76.2394 309.381 76.7236 309.381H76.9784V308.789H76.7682C76.3987 308.789 76.061 308.967 75.9208 309.254V308.853H75.3538V311.745H75.9591ZM80.6994 311.815C81.2728 311.815 81.7569 311.535 82.0182 311.095L81.5085 310.764C81.3492 311.044 81.0498 311.229 80.6994 311.229C80.1706 311.229 79.7819 310.828 79.7819 310.299C79.7819 309.764 80.1706 309.369 80.6994 309.362C81.0561 309.369 81.3683 309.566 81.5149 309.853L82.0309 309.522C81.7697 309.069 81.2855 308.783 80.6994 308.783C79.8202 308.783 79.1448 309.439 79.1448 310.299C79.1448 311.159 79.8202 311.815 80.6994 311.815ZM83.3317 311.745V310.114C83.3317 309.655 83.6312 309.35 84.0325 309.35C84.4403 309.35 84.6951 309.636 84.6951 310.05V311.745H85.3004V309.923C85.3004 309.28 84.8353 308.783 84.1536 308.783C83.7458 308.783 83.4655 308.967 83.3317 309.133V307.285H82.7265V311.745H83.3317ZM87.5619 311.815C88.1289 311.815 88.6067 311.548 88.8743 311.114L88.3965 310.789C88.2308 311.063 87.9123 311.235 87.5619 311.235C87.1414 311.235 86.74 310.961 86.6572 310.477H89.0335C89.1355 309.515 88.4602 308.783 87.5427 308.783C86.6253 308.783 86.0073 309.483 86.0073 310.299C86.0073 311.114 86.6635 311.815 87.5619 311.815ZM86.6763 310.012C86.7719 309.636 87.0777 309.343 87.5427 309.343C88.0142 309.343 88.3455 309.675 88.3965 310.012H86.6763ZM91.158 311.815C91.7314 311.815 92.2156 311.535 92.4768 311.095L91.9671 310.764C91.8078 311.044 91.5084 311.229 91.158 311.229C90.6292 311.229 90.2406 310.828 90.2406 310.299C90.2406 309.764 90.6292 309.369 91.158 309.362C91.5147 309.369 91.8269 309.566 91.9735 309.853L92.4895 309.522C92.2283 309.069 91.7441 308.783 91.158 308.783C90.2788 308.783 89.6035 309.439 89.6035 310.299C89.6035 311.159 90.2788 311.815 91.158 311.815ZM94.4147 310.121L95.7144 308.853H94.8925L93.7903 309.961V307.285H93.1851V311.745H93.7903V310.305L95.0454 311.745H95.8545L94.4147 310.121ZM98.6246 311.745V310.108C98.6246 309.655 98.9112 309.35 99.3062 309.35C99.714 309.35 99.9561 309.636 99.9561 310.05V311.745H100.561V310.108C100.561 309.655 100.842 309.35 101.243 309.35C101.651 309.35 101.88 309.636 101.88 310.05V311.745H102.485V309.923C102.485 309.28 102.014 308.783 101.313 308.783C100.759 308.783 100.472 309.088 100.364 309.267C100.205 308.999 99.8796 308.783 99.4337 308.783C98.9813 308.783 98.6946 309.012 98.5863 309.184V308.853H98.0193V311.745H98.6246ZM103.812 313.223L106.08 308.853H105.392L104.449 310.732L103.526 308.853H102.844L104.099 311.35L103.099 313.223H103.812ZM109.107 311.815C109.84 311.815 110.216 311.388 110.216 310.904C110.216 310.471 109.967 310.121 109.222 309.987C108.922 309.936 108.731 309.84 108.731 309.617C108.731 309.445 108.878 309.305 109.139 309.305C109.349 309.305 109.553 309.426 109.617 309.643L110.12 309.413C109.986 309.044 109.642 308.783 109.133 308.783C108.502 308.783 108.126 309.178 108.126 309.624C108.126 310.229 108.61 310.445 109.101 310.535C109.413 310.598 109.604 310.7 109.604 310.917C109.604 311.127 109.426 311.255 109.114 311.255C108.871 311.255 108.655 311.114 108.559 310.891L108.031 311.134C108.19 311.503 108.527 311.815 109.107 311.815ZM112.262 311.815C113.147 311.815 113.816 311.159 113.816 310.299C113.816 309.439 113.147 308.783 112.262 308.783C111.383 308.783 110.707 309.439 110.707 310.299C110.707 311.159 111.383 311.815 112.262 311.815ZM112.262 311.229C111.733 311.229 111.344 310.834 111.344 310.299C111.344 309.764 111.733 309.369 112.262 309.362C112.784 309.369 113.179 309.764 113.179 310.299C113.179 310.834 112.784 311.229 112.262 311.229ZM115.926 311.815C116.5 311.815 116.984 311.535 117.245 311.095L116.735 310.764C116.576 311.044 116.277 311.229 115.926 311.229C115.398 311.229 115.009 310.828 115.009 310.299C115.009 309.764 115.398 309.369 115.926 309.362C116.283 309.369 116.595 309.566 116.742 309.853L117.258 309.522C116.997 309.069 116.513 308.783 115.926 308.783C115.047 308.783 114.372 309.439 114.372 310.299C114.372 311.159 115.047 311.815 115.926 311.815ZM118.227 308.177C118.47 308.177 118.648 308.005 118.648 307.776C118.648 307.547 118.47 307.368 118.227 307.368C117.998 307.368 117.813 307.547 117.813 307.776C117.813 308.005 117.998 308.177 118.227 308.177ZM118.533 311.745V308.853H117.928V311.745H118.533ZM120.396 311.815C120.849 311.815 121.155 311.592 121.263 311.427V311.745H121.824V309.917C121.824 309.331 121.378 308.783 120.562 308.783C119.957 308.783 119.562 309.108 119.377 309.522L119.829 309.815C119.944 309.541 120.173 309.331 120.562 309.331C121.002 309.331 121.212 309.579 121.212 309.77C121.212 309.929 121.097 310.038 120.912 310.038H120.25C119.689 310.038 119.281 310.363 119.281 310.872C119.281 311.395 119.715 311.815 120.396 311.815ZM120.447 311.293C120.103 311.293 119.912 311.108 119.912 310.879C119.912 310.668 120.078 310.509 120.32 310.509H121.225V310.547C121.225 310.981 120.932 311.293 120.447 311.293ZM123.771 311.79V311.21C123.452 311.21 123.28 311.044 123.28 310.739V307.285H122.675V310.745C122.675 311.439 123.038 311.79 123.675 311.79H123.771ZM127.517 311.815C128.091 311.815 128.575 311.535 128.836 311.095L128.326 310.764C128.167 311.044 127.868 311.229 127.517 311.229C126.989 311.229 126.6 310.828 126.6 310.299C126.6 309.764 126.989 309.369 127.517 309.362C127.874 309.369 128.186 309.566 128.333 309.853L128.849 309.522C128.588 309.069 128.103 308.783 127.517 308.783C126.638 308.783 125.963 309.439 125.963 310.299C125.963 311.159 126.638 311.815 127.517 311.815ZM130.15 311.745V310.114C130.15 309.655 130.449 309.35 130.85 309.35C131.258 309.35 131.513 309.636 131.513 310.05V311.745H132.118V309.923C132.118 309.28 131.653 308.783 130.972 308.783C130.564 308.783 130.283 308.967 130.15 309.133V307.285H129.544V311.745H130.15ZM133.972 311.815C134.424 311.815 134.73 311.592 134.839 311.427V311.745H135.399V309.917C135.399 309.331 134.953 308.783 134.138 308.783C133.532 308.783 133.137 309.108 132.953 309.522L133.405 309.815C133.52 309.541 133.749 309.331 134.138 309.331C134.577 309.331 134.788 309.579 134.788 309.77C134.788 309.929 134.673 310.038 134.488 310.038H133.826C133.265 310.038 132.857 310.363 132.857 310.872C132.857 311.395 133.29 311.815 133.972 311.815ZM134.023 311.293C133.679 311.293 133.488 311.108 133.488 310.879C133.488 310.668 133.654 310.509 133.896 310.509H134.8V310.547C134.8 310.981 134.507 311.293 134.023 311.293ZM136.888 311.745V310.108C136.888 309.643 137.187 309.35 137.589 309.35C137.996 309.35 138.251 309.636 138.251 310.05V311.745H138.856V309.923C138.856 309.28 138.391 308.783 137.71 308.783C137.257 308.783 136.958 309.012 136.85 309.184V308.853H136.283V311.745H136.888ZM140.347 311.745V310.108C140.347 309.643 140.646 309.35 141.048 309.35C141.456 309.35 141.71 309.636 141.71 310.05V311.745H142.316V309.923C142.316 309.28 141.851 308.783 141.169 308.783C140.716 308.783 140.417 309.012 140.309 309.184V308.853H139.742V311.745H140.347ZM144.577 311.815C145.144 311.815 145.622 311.548 145.89 311.114L145.412 310.789C145.246 311.063 144.928 311.235 144.577 311.235C144.157 311.235 143.755 310.961 143.672 310.477H146.049C146.151 309.515 145.475 308.783 144.558 308.783C143.641 308.783 143.023 309.483 143.023 310.299C143.023 311.114 143.679 311.815 144.577 311.815ZM143.692 310.012C143.787 309.636 144.093 309.343 144.558 309.343C145.029 309.343 145.361 309.675 145.412 310.012H143.692ZM147.861 311.79V311.21C147.542 311.21 147.37 311.044 147.37 310.739V307.285H146.765V310.745C146.765 311.439 147.128 311.79 147.765 311.79H147.861ZM149.392 311.815C150.125 311.815 150.501 311.388 150.501 310.904C150.501 310.471 150.252 310.121 149.507 309.987C149.208 309.936 149.017 309.84 149.017 309.617C149.017 309.445 149.163 309.305 149.424 309.305C149.635 309.305 149.838 309.426 149.902 309.643L150.405 309.413C150.272 309.044 149.928 308.783 149.418 308.783C148.787 308.783 148.411 309.178 148.411 309.624C148.411 310.229 148.895 310.445 149.386 310.535C149.698 310.598 149.889 310.7 149.889 310.917C149.889 311.127 149.711 311.255 149.399 311.255C149.157 311.255 148.94 311.114 148.845 310.891L148.316 311.134C148.475 311.503 148.813 311.815 149.392 311.815Z" fill="#252429"/>
<path d="M83.0895 26.7245C84.4415 26.7245 85.1458 25.8583 85.1458 25.0244C85.1458 24.2391 84.6358 23.5591 83.5591 23.3486L82.9924 23.2352C82.5228 23.1462 82.2152 22.879 82.2152 22.4499C82.2152 22.0451 82.5633 21.6808 83.1705 21.6808C83.6643 21.6808 84.0934 22.0047 84.2229 22.4014L84.9111 21.9723C84.6358 21.3489 84.0043 20.8955 83.1705 20.8955C81.9561 20.8955 81.3489 21.7132 81.3489 22.4499C81.3489 23.3809 82.0047 23.891 82.8062 24.0448L83.3567 24.1581C83.9477 24.2634 84.2553 24.5791 84.2553 25.0244C84.2553 25.5749 83.7696 25.9149 83.0895 25.9149C82.3204 25.9149 81.859 25.3806 81.7132 25.0001L81.0089 25.413C81.2437 25.9554 81.8832 26.7245 83.0895 26.7245ZM86.8357 26.6436V24.571C86.8357 23.9881 87.2162 23.5995 87.7262 23.5995C88.2443 23.5995 88.5682 23.9638 88.5682 24.4901V26.6436H89.3373V24.3282C89.3373 23.5105 88.7463 22.879 87.88 22.879C87.3619 22.879 87.0057 23.1138 86.8357 23.3243V20.9765H86.0666V26.6436H86.8357ZM91.6929 26.7326C92.2677 26.7326 92.6563 26.4493 92.7939 26.2388V26.6436H93.5063V24.3201C93.5063 23.5752 92.9396 22.879 91.9034 22.879C91.1343 22.879 90.6323 23.2919 90.3976 23.8181L90.9724 24.1905C91.1181 23.8424 91.4095 23.5752 91.9034 23.5752C92.462 23.5752 92.7292 23.891 92.7292 24.1339C92.7292 24.3362 92.5834 24.4739 92.3486 24.4739H91.5067C90.7943 24.4739 90.2761 24.8868 90.2761 25.5344C90.2761 26.1983 90.8266 26.7326 91.6929 26.7326ZM91.7577 26.0688C91.3205 26.0688 91.0776 25.834 91.0776 25.5425C91.0776 25.2754 91.2881 25.073 91.5957 25.073H92.7453V25.1215C92.7453 25.6721 92.3729 26.0688 91.7577 26.0688ZM95.3979 26.6436V24.6763C95.3979 24.061 95.7541 23.64 96.3694 23.64H96.6933V22.8871H96.4261C95.9565 22.8871 95.5275 23.1138 95.3493 23.4781V22.9681H94.6288V26.6436H95.3979ZM99.1367 26.7326C99.8573 26.7326 100.464 26.3926 100.804 25.8421L100.197 25.4292C99.9868 25.7773 99.582 25.9959 99.1367 25.9959C98.6024 25.9959 98.0924 25.6478 97.9871 25.0325H101.007C101.136 23.81 100.278 22.879 99.1124 22.879C97.9466 22.879 97.1614 23.7695 97.1614 24.8058C97.1614 25.8421 97.9952 26.7326 99.1367 26.7326ZM98.0114 24.4415C98.1328 23.9638 98.5214 23.5914 99.1124 23.5914C99.7115 23.5914 100.133 24.0124 100.197 24.4415H98.0114ZM106.254 26.6921V25.9797H105.817C105.469 25.9797 105.145 25.8016 105.145 25.3077V23.64H106.254V22.9681H105.145V22.0775H104.578V22.0937C104.578 22.7495 104.182 23.0814 103.753 23.0814H103.728V23.64H104.376V25.3806C104.376 26.2631 104.91 26.6921 105.72 26.6921H106.254ZM107.992 26.6436V24.571C107.992 23.9881 108.373 23.5995 108.883 23.5995C109.401 23.5995 109.725 23.9638 109.725 24.4901V26.6436H110.494V24.3282C110.494 23.5105 109.903 22.879 109.037 22.879C108.519 22.879 108.162 23.1138 107.992 23.3243V20.9765H107.223V26.6436H107.992ZM111.967 22.1099C112.275 22.1099 112.501 21.8913 112.501 21.5999C112.501 21.3084 112.275 21.0817 111.967 21.0817C111.676 21.0817 111.441 21.3084 111.441 21.5999C111.441 21.8913 111.676 22.1099 111.967 22.1099ZM112.356 26.6436V22.9681H111.587V26.6436H112.356ZM114.553 26.7326C115.484 26.7326 115.962 26.1902 115.962 25.5749C115.962 25.0244 115.646 24.5791 114.699 24.4091C114.318 24.3443 114.076 24.2229 114.076 23.9396C114.076 23.721 114.262 23.5429 114.594 23.5429C114.861 23.5429 115.12 23.6967 115.201 23.9719L115.84 23.6805C115.67 23.2109 115.233 22.879 114.586 22.879C113.784 22.879 113.306 23.3809 113.306 23.9477C113.306 24.7168 113.922 24.992 114.545 25.1054C114.942 25.1863 115.185 25.3158 115.185 25.5911C115.185 25.8583 114.958 26.0202 114.561 26.0202C114.254 26.0202 113.978 25.8421 113.857 25.5587L113.185 25.8664C113.387 26.3359 113.817 26.7326 114.553 26.7326ZM120.689 26.7326C121.417 26.7326 122.033 26.3764 122.364 25.8178L121.717 25.3968C121.514 25.753 121.134 25.9878 120.689 25.9878C120.017 25.9878 119.523 25.4778 119.523 24.8058C119.523 24.1258 120.017 23.6238 120.689 23.6157C121.142 23.6238 121.539 23.8748 121.725 24.2391L122.381 23.8181C122.049 23.2433 121.433 22.879 120.689 22.879C119.571 22.879 118.713 23.7129 118.713 24.8058C118.713 25.8987 119.571 26.7326 120.689 26.7326ZM124.495 26.7326C125.07 26.7326 125.459 26.4493 125.596 26.2388V26.6436H126.309V24.3201C126.309 23.5752 125.742 22.879 124.706 22.879C123.937 22.879 123.435 23.2919 123.2 23.8181L123.775 24.1905C123.92 23.8424 124.212 23.5752 124.706 23.5752C125.264 23.5752 125.531 23.891 125.531 24.1339C125.531 24.3362 125.386 24.4739 125.151 24.4739H124.309C123.596 24.4739 123.078 24.8868 123.078 25.5344C123.078 26.1983 123.629 26.7326 124.495 26.7326ZM124.56 26.0688C124.123 26.0688 123.88 25.834 123.88 25.5425C123.88 25.2754 124.09 25.073 124.398 25.073H125.548V25.1215C125.548 25.6721 125.175 26.0688 124.56 26.0688ZM128.2 26.6436V24.6763C128.2 24.061 128.556 23.64 129.172 23.64H129.495V22.8871H129.228C128.759 22.8871 128.33 23.1138 128.152 23.4781V22.9681H127.431V26.6436H128.2ZM133.105 23.3081C132.773 23.0328 132.344 22.879 131.907 22.879C130.822 22.879 129.964 23.7291 129.964 24.8058C129.964 25.8906 130.822 26.7326 131.907 26.7326C132.344 26.7326 132.773 26.5788 133.105 26.3035V26.6436H133.874V20.9765H133.105V23.3081ZM131.939 25.9878C131.267 25.9878 130.773 25.4859 130.773 24.8058C130.773 24.1258 131.267 23.6238 131.939 23.6157C132.603 23.6238 133.105 24.1258 133.105 24.8058C133.105 25.4859 132.603 25.9878 131.939 25.9878Z" fill="#252429"/>
<g filter="url(#filter0_d)">
<circle cx="54.4147" cy="337.891" r="12.4411" fill="white"/>
</g>
<g filter="url(#filter1_d)">
<circle cx="91.9557" cy="337.891" r="12.4411" fill="white"/>
</g>
<g filter="url(#filter2_d)">
<circle cx="129.498" cy="337.891" r="12.4411" fill="white"/>
</g>
<g filter="url(#filter3_d)">
<circle cx="167.039" cy="337.891" r="12.4411" fill="white"/>
</g>
<path opacity="0.25" d="M58.1247 336.582C58.343 339.856 55.9421 342.475 52.8864 342.475C51.8335 342.475 50.7806 342.334 49.9546 341.938C49.7654 341.847 49.8394 341.595 50.0487 341.581C51.0658 341.514 51.9075 341.271 52.4498 340.729C53.7595 339.419 53.9777 338.982 54.3115 337.247C54.2367 337.039 54.196 336.815 54.196 336.582C54.196 335.497 55.0754 334.617 56.1603 334.617C56.8231 334.617 57.4091 334.945 57.7649 335.448L58.5145 335.341C58.7013 335.314 58.8316 335.521 58.727 335.678L58.1247 336.582Z" fill="#12131A"/>
<path d="M52.4501 340.729C50.0857 339.941 49.6778 337.018 50.1026 335.494C50.1524 335.315 50.3852 335.314 50.479 335.474C51.2042 336.714 52.5833 337.407 54.3117 337.247C57.0337 337.247 56.3789 342.038 52.4501 340.729Z" fill="#12131A"/>
<g clip-path="url(#clip0)">
<path opacity="0.25" fill-rule="evenodd" clip-rule="evenodd" d="M165.075 334.181C163.87 334.181 162.893 335.158 162.893 336.363V340.729C162.893 341.934 163.87 342.911 165.075 342.911H169.441C170.646 342.911 171.623 341.934 171.623 340.729V336.363C171.623 335.158 170.646 334.181 169.441 334.181H165.075ZM167.258 339.856C167.981 339.856 168.567 339.269 168.567 338.546C168.567 337.823 167.981 337.236 167.258 337.236C166.535 337.236 165.948 337.823 165.948 338.546C165.948 339.269 166.535 339.856 167.258 339.856Z" fill="#12131A"/>
<path d="M169.877 336.363C170.118 336.363 170.314 336.168 170.314 335.927C170.314 335.686 170.118 335.49 169.877 335.49C169.636 335.49 169.44 335.686 169.44 335.927C169.44 336.168 169.636 336.363 169.877 336.363Z" fill="#12131A"/>
<path fill-rule="evenodd" clip-rule="evenodd" d="M169.44 338.546C169.44 339.751 168.463 340.729 167.258 340.729C166.052 340.729 165.075 339.751 165.075 338.546C165.075 337.34 166.052 336.363 167.258 336.363C168.463 336.363 169.44 337.34 169.44 338.546ZM168.567 338.546C168.567 339.269 167.981 339.856 167.258 339.856C166.535 339.856 165.948 339.269 165.948 338.546C165.948 337.823 166.535 337.236 167.258 337.236C167.981 337.236 168.567 337.823 168.567 338.546Z" fill="#12131A"/>
</g>
<g clip-path="url(#clip1)">
<circle opacity="0.25" cx="129.279" cy="338.546" r="4.3653" fill="#12131A"/>
<path d="M129.061 342.906C129.182 342.912 129.279 342.814 129.279 342.693V339.419H130.152C130.393 339.419 130.589 339.224 130.589 338.982C130.589 338.741 130.393 338.546 130.152 338.546H129.279V337.673C129.279 337.432 129.475 337.236 129.716 337.236H130.152C130.393 337.236 130.589 337.041 130.589 336.8C130.589 336.559 130.393 336.363 130.152 336.363H129.716C128.993 336.363 128.406 336.95 128.406 337.673V338.546H127.97C127.729 338.546 127.533 338.741 127.533 338.982C127.533 339.224 127.729 339.419 127.97 339.419H128.406V342.645C128.406 342.749 128.479 342.839 128.582 342.856C128.739 342.881 128.899 342.898 129.061 342.906Z" fill="#12131A"/>
</g>
<g clip-path="url(#clip2)">
<path opacity="0.25" d="M87.0249 336.663C87.0884 335.849 87.7305 335.212 88.5456 335.161C89.4174 335.107 90.6621 335.054 92.1739 335.054C93.6857 335.054 94.9304 335.107 95.8022 335.161C96.6173 335.212 97.2594 335.849 97.3229 336.663C97.3701 337.269 97.4123 337.971 97.4123 338.546C97.4123 339.121 97.3701 339.823 97.3229 340.429C97.2594 341.243 96.6173 341.88 95.8022 341.931C94.9304 341.985 93.6857 342.038 92.1739 342.038C90.6621 342.038 89.4174 341.985 88.5456 341.931C87.7305 341.88 87.0884 341.243 87.0249 340.429C86.9777 339.823 86.9355 339.121 86.9355 338.546C86.9355 337.971 86.9777 337.269 87.0249 336.663Z" fill="#12131A"/>
<path d="M91.9793 337.253L93.3749 338.183C93.6341 338.356 93.6341 338.737 93.3749 338.91L91.9793 339.84C91.6892 340.033 91.3006 339.826 91.3006 339.477L91.3006 337.616C91.3006 337.267 91.6892 337.059 91.9793 337.253Z" fill="#12131A"/>
</g>
<g filter="url(#filter4_d)">
<circle cx="21.5336" cy="24.1566" r="5.5746" fill="#B7B8B9"/>
</g>
<path fill-rule="evenodd" clip-rule="evenodd" d="M22.7785 21.9852C22.9764 22.1867 22.9764 22.5136 22.7785 22.7151L21.3631 24.1567L22.7785 25.5983C22.9764 25.7999 22.9764 26.1267 22.7785 26.3283C22.5806 26.5299 22.2597 26.5299 22.0618 26.3283L20.2881 24.5217C20.0902 24.3201 20.0902 23.9933 20.2881 23.7918L22.0618 21.9852C22.2597 21.7836 22.5806 21.7836 22.7785 21.9852Z" fill="#12131A"/>
<path d="M192.679 19.186C193.533 19.2662 194.173 19.9284 194.236 20.7835C194.294 21.5847 194.347 22.7661 194.347 24.4215C194.347 26.0768 194.294 27.2582 194.236 28.0594C194.173 28.9145 193.533 29.5767 192.679 29.6569C192.235 29.6986 191.714 29.7306 191.161 29.7306C190.608 29.7306 190.088 29.6986 189.643 29.6569C188.79 29.5767 188.149 28.9145 188.087 28.0594C188.028 27.2582 187.976 26.0768 187.976 24.4215C187.976 22.7661 188.028 21.5847 188.087 20.7835C188.149 19.9284 188.79 19.2662 189.643 19.186C190.088 19.1443 190.608 19.1123 191.161 19.1123C191.714 19.1123 192.235 19.1443 192.679 19.186Z" fill="#B7B8B9"/>
<path fill-rule="evenodd" clip-rule="evenodd" d="M195.829 22.9396C195.622 22.7323 195.622 22.3961 195.829 22.1888C196.037 21.9815 196.373 21.9815 196.58 22.1888L198.438 24.047C198.646 24.2543 198.646 24.5905 198.438 24.7978L196.58 26.656C196.373 26.8634 196.037 26.8634 195.829 26.656C195.622 26.4487 195.622 26.1125 195.829 25.9052L196.781 24.9533L191.692 24.9533C191.399 24.9533 191.161 24.7156 191.161 24.4224C191.161 24.1292 191.399 23.8915 191.692 23.8915L196.781 23.8915L195.829 22.9396Z" fill="#12131A"/>
<rect x="47.8145" y="67.957" width="124.765" height="124.765" rx="10.0874" fill="white"/>
<g clip-path="url(#clip3)">
<path d="M109.166 83.6866H111.835H112.563H114.626C114.99 83.6866 115.354 83.3226 115.354 82.9586V80.896C115.354 80.532 114.99 80.168 114.626 80.168H111.956H111.228H109.287C108.923 80.168 108.559 80.532 108.559 80.896V82.8373C108.438 83.3226 108.802 83.6866 109.166 83.6866Z" fill="black"/>
<path d="M122.998 83.6866H125.667H129.186H129.914H131.855C132.219 83.6866 132.583 83.3226 132.583 82.9586V80.896C132.583 80.532 132.219 80.168 131.855 80.168H129.186H125.667H124.939H122.998C122.634 80.168 122.27 80.532 122.27 80.896V82.8373C122.27 83.3226 122.634 83.6866 122.998 83.6866Z" fill="black"/>
<path d="M88.4174 87.084H90.3588C90.7228 87.084 91.0868 87.448 91.0868 87.812V89.7533C91.0868 90.1173 91.4508 90.4813 91.8148 90.4813H94.4841H97.1534C97.5174 90.4813 97.8814 90.8453 97.8814 91.2093V93.1507C97.8814 93.5147 98.2454 93.8787 98.6094 93.8787H100.551C100.915 93.8787 101.279 94.2427 101.279 94.6067V97.276V100.795V103.464C101.279 103.828 100.915 104.192 100.551 104.192H98.8521C98.4881 104.192 98.1241 103.828 98.1241 103.464V101.523C98.1241 101.159 97.7601 100.795 97.3961 100.795H95.4548C95.0908 100.795 94.7268 101.159 94.7268 101.523V104.435V107.104C94.7268 107.468 95.0908 107.832 95.4548 107.832H97.3961C97.7601 107.832 98.1241 108.196 98.1241 108.56V110.501C98.1241 110.865 98.4881 111.229 98.8521 111.229H100.793C101.157 111.229 101.521 110.865 101.521 110.501V108.56C101.521 108.196 101.885 107.832 102.249 107.832H104.191C104.555 107.832 104.919 107.468 104.919 107.104V104.435V101.765C104.919 101.401 105.283 101.037 105.647 101.037H107.588C107.952 101.037 108.316 101.401 108.316 101.765V103.707C108.316 104.071 108.68 104.435 109.044 104.435H110.985C111.349 104.435 111.713 104.071 111.713 103.707V101.037V98.368C111.713 98.004 112.077 97.64 112.441 97.64H114.625C114.989 97.64 115.353 97.276 115.353 96.912V94.728C115.353 94.364 115.717 94 116.081 94H118.023C118.387 94 118.751 93.636 118.751 93.272V91.3307C118.751 90.9667 118.387 90.6027 118.023 90.6027H116.081C115.717 90.6027 115.353 90.2387 115.353 89.8747V87.812C115.353 87.448 114.989 87.084 114.625 87.084H112.684C112.32 87.084 111.956 87.448 111.956 87.812V89.7533C111.956 90.1173 111.592 90.4813 111.228 90.4813H109.287C108.923 90.4813 108.559 90.1173 108.559 89.7533V87.084V84.4146C108.559 84.0506 108.195 83.6866 107.831 83.6866H105.161H101.643H98.8521C98.4881 83.6866 98.1241 84.0506 98.1241 84.4146V86.356C98.1241 86.72 97.7601 87.084 97.3961 87.084H95.4548C95.0908 87.084 94.7268 86.72 94.7268 86.356V84.4146C94.7268 84.0506 95.0908 83.6866 95.4548 83.6866H97.3961C97.7601 83.6866 98.1241 83.3226 98.1241 82.9586V80.896C98.1241 80.532 97.7601 80.168 97.3961 80.168H94.7268H92.0574C91.6934 80.168 91.3294 80.532 91.3294 80.896V82.8373C91.3294 83.2013 90.9654 83.5653 90.6014 83.5653H88.6601C88.2961 83.5653 87.9321 83.9293 87.9321 84.2933V86.2346C87.6894 86.72 88.0534 87.084 88.4174 87.084ZM104.191 87.084C104.555 87.084 104.919 87.448 104.919 87.812V89.7533C104.919 90.1173 104.555 90.4813 104.191 90.4813H102.249C101.885 90.4813 101.521 90.1173 101.521 89.7533V87.812C101.521 87.448 101.885 87.084 102.249 87.084H104.191Z" fill="black"/>
<path d="M115.354 86.3568C115.354 86.7208 115.718 87.0848 116.082 87.0848H118.023C118.387 87.0848 118.751 87.4488 118.751 87.8128V89.7542C118.751 90.1182 119.115 90.4822 119.479 90.4822H122.148H125.546H126.274H128.215C128.579 90.4822 128.943 90.1182 128.943 89.7542V87.8128C128.943 87.4488 128.579 87.0848 128.215 87.0848H125.546H122.876C122.512 87.0848 122.148 86.7208 122.148 86.3568V84.4155C122.148 84.0515 121.784 83.6875 121.42 83.6875H118.751H118.023H116.082C115.718 83.6875 115.354 84.0515 115.354 84.4155V86.3568Z" fill="black"/>
<path d="M91.936 97.5177H94.6053H95.3333H97.2747C97.6387 97.5177 98.0027 97.1537 98.0027 96.7897V94.727C98.0027 94.363 97.6387 93.999 97.2747 93.999H94.6053H93.8773H91.936C91.572 93.999 91.208 94.363 91.208 94.727V96.6684C91.208 97.1537 91.4507 97.5177 91.936 97.5177Z" fill="black"/>
<path d="M118.023 100.917H116.082C115.718 100.917 115.354 101.281 115.354 101.645V103.586C115.354 103.95 115.718 104.314 116.082 104.314H118.023C118.387 104.314 118.751 103.95 118.751 103.586V101.645C118.872 101.281 118.508 100.917 118.023 100.917Z" fill="black"/>
<path d="M122.998 104.436H124.939C125.303 104.436 125.667 104.072 125.667 103.708V101.766C125.667 101.402 126.031 101.038 126.395 101.038H128.336C128.7 101.038 129.064 100.674 129.064 100.31V98.3689C129.064 98.0049 129.428 97.6409 129.792 97.6409H131.734C132.098 97.6409 132.462 97.2769 132.462 96.9129V94.2435V93.5155V91.3315C132.462 90.9675 132.098 90.6035 131.734 90.6035H129.792C129.428 90.6035 129.064 90.9675 129.064 91.3315V93.2729C129.064 93.6369 128.7 94.0009 128.336 94.0009H125.667H122.998C122.634 94.0009 122.27 94.3649 122.27 94.7289V97.3982V100.917V103.586C122.27 104.072 122.634 104.436 122.998 104.436Z" fill="black"/>
<path d="M88.4184 107.832H90.3598C90.7238 107.832 91.0878 107.468 91.0878 107.104V104.434V101.037V100.309V98.3677C91.0878 98.0036 90.7238 97.6396 90.3598 97.6396H88.4184C88.0544 97.6396 87.6904 98.0036 87.6904 98.3677V101.037V104.434V107.104C87.6904 107.468 88.0544 107.832 88.4184 107.832Z" fill="black"/>
<path d="M118.872 107.104C118.872 107.468 119.236 107.832 119.6 107.832H121.541C121.905 107.832 122.269 107.468 122.269 107.104V105.163C122.269 104.799 121.905 104.435 121.541 104.435H119.6C119.236 104.435 118.872 104.799 118.872 105.163V107.104Z" fill="black"/>
<path d="M80.7734 107.833H77.3761H74.5854C74.2214 107.833 73.8574 108.197 73.8574 108.561V110.502C73.8574 110.866 73.4934 111.23 73.1294 111.23H70.4601H67.6694C67.3054 111.23 66.9414 111.594 66.9414 111.958V113.9C66.9414 114.264 66.5774 114.628 66.2134 114.628H64.2721C63.9081 114.628 63.5441 114.264 63.5441 113.9V111.958C63.5441 111.594 63.1801 111.23 62.8161 111.23H60.7534C60.3894 111.23 60.0254 111.594 60.0254 111.958V114.628V118.146V121.544V124.213C60.0254 124.577 60.3894 124.941 60.7534 124.941H62.6947C63.0587 124.941 63.4227 124.577 63.4227 124.213V121.544V118.996C63.4227 118.632 63.7867 118.268 64.1507 118.268H66.8201H70.3387H73.0081C73.3721 118.268 73.7361 117.904 73.7361 117.54V115.598C73.7361 115.234 74.1001 114.87 74.4641 114.87H77.1334H79.8028C80.1668 114.87 80.5308 114.506 80.5308 114.142V112.201C80.5308 111.837 80.8948 111.473 81.2588 111.473H84.2921H85.0201H86.9614C87.3254 111.473 87.6894 111.109 87.6894 110.745V108.804C87.6894 108.44 87.3254 108.076 86.9614 108.076H84.2921H80.7734V107.833Z" fill="black"/>
<path d="M156.122 111.35C156.486 111.35 156.85 110.986 156.85 110.622V108.681C156.85 108.317 156.486 107.953 156.122 107.953H154.181C153.817 107.953 153.453 108.317 153.453 108.681V110.501C153.453 110.865 153.817 111.229 154.181 111.229H156.122V111.35Z" fill="black"/>
<path d="M98.1248 112.078C98.1248 111.714 97.7608 111.35 97.3968 111.35H95.4554C95.0914 111.35 94.7274 110.986 94.7274 110.622V108.681C94.7274 108.317 94.3634 107.953 93.9994 107.953H92.0581C91.6941 107.953 91.3301 108.317 91.3301 108.681V111.35V114.02C91.3301 114.384 91.6941 114.748 92.0581 114.748H94.7274H95.4554H97.3968C97.7608 114.748 98.1248 114.384 98.1248 114.02V112.078Z" fill="black"/>
<path d="M105.041 112.08C105.041 111.716 104.677 111.352 104.313 111.352H102.372C102.008 111.352 101.644 111.716 101.644 112.08V114.021C101.644 114.385 102.008 114.749 102.372 114.749H104.313C104.677 114.749 105.041 114.385 105.041 114.021V112.08Z" fill="black"/>
<path d="M109.165 114.749H111.107C111.471 114.749 111.835 114.385 111.835 114.021V112.08C111.835 111.716 111.471 111.352 111.107 111.352H109.165C108.801 111.352 108.438 111.716 108.438 112.08V114.021C108.438 114.385 108.801 114.749 109.165 114.749Z" fill="black"/>
<path d="M122.269 114.749H124.939C125.303 114.749 125.667 114.385 125.667 114.021V112.079C125.667 111.715 126.031 111.351 126.395 111.351H128.336C128.7 111.351 129.064 111.715 129.064 112.079V114.021C129.064 114.385 129.428 114.749 129.792 114.749H131.733C132.097 114.749 132.461 114.385 132.461 114.021V111.351V107.954V104.435V103.707V101.766C132.461 101.402 132.097 101.038 131.733 101.038H129.792C129.428 101.038 129.064 101.402 129.064 101.766V103.707C129.064 104.071 128.7 104.435 128.336 104.435H126.395C126.031 104.435 125.667 104.799 125.667 105.163V107.105C125.667 107.469 125.303 107.833 124.939 107.833H122.997C122.633 107.833 122.269 108.197 122.269 108.561V110.502C122.269 110.866 121.905 111.23 121.541 111.23H119.6C119.236 111.23 118.872 110.866 118.872 110.502V108.561C118.872 108.197 118.508 107.833 118.144 107.833H116.202C115.838 107.833 115.474 107.469 115.474 107.105V105.163C115.474 104.799 115.11 104.435 114.746 104.435H112.805C112.441 104.435 112.077 104.799 112.077 105.163V107.833V110.502C112.077 110.866 112.441 111.23 112.805 111.23H114.625C114.989 111.23 115.353 111.594 115.353 111.958V113.899C115.353 114.263 115.717 114.627 116.081 114.627H118.75H122.269V114.749Z" fill="black"/>
<path d="M140.349 111.35H142.29C142.654 111.35 143.018 110.986 143.018 110.622V108.681C143.018 108.317 142.654 107.953 142.29 107.953H139.621H136.952C136.588 107.953 136.224 108.317 136.224 108.681V111.35V114.748V117.417C136.224 117.781 136.588 118.145 136.952 118.145H139.621H143.018H145.688C146.052 118.145 146.416 117.781 146.416 117.417V115.476C146.416 115.112 146.78 114.748 147.144 114.748H149.085C149.449 114.748 149.813 115.112 149.813 115.476V117.417C149.813 117.781 149.449 118.145 149.085 118.145H147.144C146.78 118.145 146.416 118.509 146.416 118.873V120.814C146.416 121.178 146.052 121.542 145.688 121.542H143.746C143.382 121.542 143.018 121.906 143.018 122.27V124.94V128.337V131.007C143.018 131.371 143.382 131.735 143.746 131.735H145.688C146.052 131.735 146.416 131.371 146.416 131.007V128.337V125.668C146.416 125.304 146.78 124.94 147.144 124.94H149.085C149.449 124.94 149.813 124.576 149.813 124.212V122.27C149.813 121.906 150.177 121.542 150.541 121.542H152.482C152.846 121.542 153.21 121.178 153.21 120.814V118.145V114.626V111.957C153.21 111.593 152.846 111.229 152.482 111.229H149.813H146.416H143.746C143.382 111.229 143.018 111.593 143.018 111.957V113.898C143.018 114.262 142.654 114.626 142.29 114.626H140.349C139.985 114.626 139.621 114.262 139.621 113.898V111.957C139.621 111.593 139.864 111.35 140.349 111.35Z" fill="black"/>
<path d="M159.52 111.352H157.579C157.215 111.352 156.851 111.716 156.851 112.08V114.749V118.268V120.937C156.851 121.301 157.215 121.665 157.579 121.665H159.52C159.884 121.665 160.248 121.301 160.248 120.937V118.268V114.749V114.021V112.08C160.369 111.594 160.005 111.352 159.52 111.352Z" fill="black"/>
<path d="M83.4428 118.268C83.8068 118.268 84.1708 117.904 84.1708 117.54V115.599C84.1708 115.235 83.8068 114.871 83.4428 114.871H81.5014C81.1374 114.871 80.7734 115.235 80.7734 115.599V117.54C80.7734 117.904 81.1374 118.268 81.5014 118.268H83.4428Z" fill="black"/>
<path d="M132.705 118.995C132.705 118.631 132.341 118.267 131.977 118.267H130.036C129.672 118.267 129.308 118.631 129.308 118.995V120.936C129.308 121.3 129.672 121.664 130.036 121.664H131.977C132.341 121.664 132.705 121.3 132.705 120.936V118.995Z" fill="black"/>
<path d="M80.0463 121.663H78.105C77.741 121.663 77.377 122.027 77.377 122.391V124.332C77.377 124.696 77.741 125.06 78.105 125.06H80.7743H81.5023H83.4436C83.8076 125.06 84.1716 124.696 84.1716 124.332V122.391C84.1716 122.027 83.8076 121.663 83.4436 121.663H80.7743H80.0463Z" fill="black"/>
<path d="M91.2089 125.183H93.8782C94.2422 125.183 94.6062 124.819 94.6062 124.455V121.785V121.057V118.995C94.6062 118.631 94.2422 118.267 93.8782 118.267H91.9369C91.5729 118.267 91.2089 118.631 91.2089 118.995V120.936C91.2089 121.3 90.8449 121.664 90.4809 121.664H88.5395C88.1755 121.664 87.8115 122.028 87.8115 122.392V124.333C87.8115 124.697 88.1755 125.061 88.5395 125.061H91.2089V125.183Z" fill="black"/>
<path d="M128.458 121.663H126.517C126.153 121.663 125.789 122.027 125.789 122.391V124.332C125.789 124.696 126.153 125.06 126.517 125.06H128.458C128.822 125.06 129.186 124.696 129.186 124.332V122.391C129.186 122.027 128.822 121.663 128.458 121.663Z" fill="black"/>
<path d="M132.705 127.853C132.705 128.217 133.069 128.581 133.433 128.581H135.374C135.738 128.581 136.102 128.945 136.102 129.309V131.25C136.102 131.614 136.466 131.978 136.83 131.978H138.772C139.136 131.978 139.5 131.614 139.5 131.25V128.581V125.912C139.5 125.548 139.136 125.184 138.772 125.184H136.102H135.374H133.433C133.069 125.184 132.705 125.548 132.705 125.912V127.853Z" fill="black"/>
<path d="M159.52 125.184H156.85H153.453H150.784C150.42 125.184 150.056 125.548 150.056 125.912V128.581V131.978V134.769C150.056 135.133 149.692 135.497 149.328 135.497H147.386C147.022 135.497 146.658 135.861 146.658 136.225V138.166C146.658 138.53 147.022 138.894 147.386 138.894H149.328C149.692 138.894 150.056 139.258 150.056 139.622V142.292V144.961C150.056 145.325 150.42 145.689 150.784 145.689H152.725C153.089 145.689 153.453 145.325 153.453 144.961V142.292V139.622C153.453 139.258 153.817 138.894 154.181 138.894H156.122C156.486 138.894 156.85 138.53 156.85 138.166V135.497V132.828C156.85 132.464 156.486 132.1 156.122 132.1H154.181C153.817 132.1 153.453 131.736 153.453 131.372V129.43C153.453 129.066 153.817 128.702 154.181 128.702H156.85H157.578H159.52C159.884 128.702 160.248 128.338 160.248 127.974V126.033C160.369 125.426 160.005 125.184 159.52 125.184Z" fill="black"/>
<path d="M133.433 135.496H135.374C135.738 135.496 136.102 135.132 136.102 134.768V132.827C136.102 132.463 135.738 132.099 135.374 132.099H133.433C133.069 132.099 132.705 132.463 132.705 132.827V134.768C132.705 135.132 132.948 135.496 133.433 135.496Z" fill="black"/>
<path d="M126.517 139.014H129.186H129.914H131.856C132.22 139.014 132.584 138.65 132.584 138.286V136.345C132.584 135.981 132.22 135.617 131.856 135.617H129.914C129.55 135.617 129.186 135.253 129.186 134.889V132.22V131.492V129.55C129.186 129.186 128.822 128.822 128.458 128.822H126.517C126.153 128.822 125.789 129.186 125.789 129.55V132.22V135.738V138.408C125.789 138.65 126.032 139.014 126.517 139.014Z" fill="black"/>
<path d="M60.7534 142.412H62.6947C63.0587 142.412 63.4227 142.048 63.4227 141.684V139.015V138.287V136.345C63.4227 135.981 63.0587 135.617 62.6947 135.617H60.7534C60.3894 135.617 60.0254 135.981 60.0254 136.345V139.015V141.684C60.0254 142.048 60.3894 142.412 60.7534 142.412Z" fill="black"/>
<path d="M87.6903 145.931H91.0877H91.8157H93.757C94.121 145.931 94.485 145.567 94.485 145.203V143.262C94.485 142.898 94.121 142.534 93.757 142.534H91.0877H88.4183C88.0543 142.534 87.6903 142.17 87.6903 141.806V139.865C87.6903 139.501 87.3263 139.137 86.9623 139.137H85.021C84.657 139.137 84.293 139.501 84.293 139.865V141.806C84.293 142.17 83.929 142.534 83.565 142.534H81.6236C81.2596 142.534 80.8956 142.17 80.8956 141.806V139.865C80.8956 139.501 81.2596 139.137 81.6236 139.137H83.565C83.929 139.137 84.293 138.773 84.293 138.409V136.467C84.293 136.103 83.929 135.739 83.565 135.739H81.6236C81.2596 135.739 80.8956 135.375 80.8956 135.011V133.07C80.8956 132.706 81.2596 132.342 81.6236 132.342H83.565C83.929 132.342 84.293 132.706 84.293 133.07V134.769C84.293 135.133 84.657 135.497 85.021 135.497H86.9623C87.3263 135.497 87.6903 135.133 87.6903 134.769V132.827C87.6903 132.463 88.0543 132.099 88.4183 132.099H90.3596C90.7236 132.099 91.0877 131.735 91.0877 131.371V129.43C91.0877 129.066 90.7236 128.702 90.3596 128.702H87.6903H84.293H80.8956H77.4983H74.5863C74.2223 128.702 73.8583 128.338 73.8583 127.974V125.305V124.577V122.635C73.8583 122.271 73.4943 121.907 73.1303 121.907H71.1889C70.8249 121.907 70.4609 122.271 70.4609 122.635V124.577C70.4609 124.941 70.0969 125.305 69.7329 125.305H66.9423H64.2729C63.9089 125.305 63.5449 125.669 63.5449 126.033V128.702V131.371C63.5449 131.735 63.9089 132.099 64.2729 132.099H66.2143C66.5783 132.099 66.9423 131.735 66.9423 131.371V129.43C66.9423 129.066 67.3063 128.702 67.6703 128.702H69.6116C69.9756 128.702 70.3396 129.066 70.3396 129.43V131.371C70.3396 131.735 70.7036 132.099 71.0676 132.099H73.0089C73.3729 132.099 73.7369 132.463 73.7369 132.827V134.769C73.7369 135.133 73.3729 135.497 73.0089 135.497H71.1889C70.8249 135.497 70.4609 135.133 70.4609 134.769V132.827C70.4609 132.463 70.0969 132.099 69.7329 132.099H67.6703C67.3063 132.099 66.9423 132.463 66.9423 132.827V135.497V138.894V141.563C66.9423 141.927 67.3063 142.291 67.6703 142.291H70.3396H73.0089C73.3729 142.291 73.7369 141.927 73.7369 141.563V139.622C73.7369 139.258 74.1009 138.894 74.4649 138.894H76.4063C76.7703 138.894 77.1343 139.258 77.1343 139.622V142.291V144.961C77.1343 145.325 77.4983 145.689 77.8623 145.689H80.5316H84.293H87.6903V145.931Z" fill="black"/>
<path d="M159.52 142.412H157.579C157.215 142.412 156.851 142.776 156.851 143.14V145.081C156.851 145.445 157.215 145.809 157.579 145.809H159.52C159.884 145.809 160.248 145.445 160.248 145.081V143.14C160.369 142.776 160.005 142.412 159.52 142.412Z" fill="black"/>
<path d="M76.5266 145.931H73.8573H73.1293H71.188C70.824 145.931 70.46 146.295 70.46 146.659V148.6C70.46 148.964 70.824 149.328 71.188 149.328H73.8573H74.5853H76.5266C76.8906 149.328 77.2546 148.964 77.2546 148.6V146.659C77.376 146.173 77.012 145.931 76.5266 145.931Z" fill="black"/>
<path d="M95.3335 149.328H97.2748C97.6388 149.328 98.0028 148.964 98.0028 148.6V146.659C98.0028 146.295 97.6388 145.931 97.2748 145.931H95.3335C94.9695 145.931 94.6055 146.295 94.6055 146.659V148.6C94.6055 148.964 94.9695 149.328 95.3335 149.328Z" fill="black"/>
<path d="M105.768 149.328H107.709C108.073 149.328 108.437 148.964 108.437 148.6V146.659C108.437 146.295 108.073 145.931 107.709 145.931H105.768C105.404 145.931 105.04 146.295 105.04 146.659V148.6C105.04 148.964 105.283 149.328 105.768 149.328Z" fill="black"/>
<path d="M116.082 145.931C115.718 145.931 115.354 146.295 115.354 146.659V148.6C115.354 148.964 115.718 149.328 116.082 149.328H118.023C118.387 149.328 118.751 148.964 118.751 148.6V146.659C118.751 146.295 118.387 145.931 118.023 145.931H116.082Z" fill="black"/>
<path d="M154.181 149.328H156.122C156.486 149.328 156.85 148.964 156.85 148.6V146.659C156.85 146.295 156.486 145.931 156.122 145.931H154.181C153.817 145.931 153.453 146.295 153.453 146.659V148.6C153.453 148.964 153.696 149.328 154.181 149.328Z" fill="black"/>
<path d="M60.0254 151.997C60.0254 152.361 60.3894 152.725 60.7534 152.725H63.4227H66.8201H67.5481H69.4894C69.8534 152.725 70.2174 152.361 70.2174 151.997V150.056C70.2174 149.692 69.8534 149.328 69.4894 149.328H66.9414H63.5441H62.6947H60.7534C60.3894 149.328 60.0254 149.692 60.0254 150.056V151.997Z" fill="black"/>
<path d="M81.5014 149.328C81.1374 149.328 80.7734 149.692 80.7734 150.056V151.997C80.7734 152.361 81.1374 152.725 81.5014 152.725H83.4428C83.8068 152.725 84.1708 152.361 84.1708 151.997V150.056C84.1708 149.692 83.8068 149.328 83.4428 149.328H81.5014Z" fill="black"/>
<path d="M112.684 152.848H114.625C114.989 152.848 115.353 152.484 115.353 152.12V150.178C115.353 149.814 114.989 149.45 114.625 149.45H111.956H111.228H109.287C108.923 149.45 108.559 149.814 108.559 150.178V152.12C108.559 152.484 108.923 152.848 109.287 152.848H111.956H112.684Z" fill="black"/>
<path d="M159.518 149.33H157.577C157.213 149.33 156.849 149.694 156.849 150.058V151.999C156.849 152.363 156.485 152.727 156.121 152.727H154.179C153.815 152.727 153.451 152.363 153.451 151.999V150.058C153.451 149.694 153.087 149.33 152.723 149.33H150.782C150.418 149.33 150.054 148.966 150.054 148.602V146.66C150.054 146.296 149.69 145.932 149.326 145.932H147.385C147.021 145.932 146.657 146.296 146.657 146.66V148.602C146.657 148.966 146.293 149.33 145.929 149.33H143.745C143.381 149.33 143.017 148.966 143.017 148.602V146.66C143.017 146.296 143.381 145.932 143.745 145.932H145.686C146.05 145.932 146.414 145.568 146.414 145.204V143.263C146.414 142.899 146.05 142.535 145.686 142.535H143.745C143.381 142.535 143.017 142.171 143.017 141.807V139.138V138.41V136.468C143.017 136.104 142.653 135.74 142.289 135.74H140.347C139.983 135.74 139.619 136.104 139.619 136.468V138.41C139.619 138.774 139.255 139.138 138.891 139.138H136.222H133.553C133.189 139.138 132.825 139.502 132.825 139.866V142.535V145.204C132.825 145.568 133.189 145.932 133.553 145.932H136.222H138.891C139.255 145.932 139.619 146.296 139.619 146.66V148.602C139.619 148.966 139.255 149.33 138.891 149.33H136.222H133.553C133.189 149.33 132.825 148.966 132.825 148.602V146.66C132.825 146.296 132.461 145.932 132.097 145.932H130.155C129.791 145.932 129.427 145.568 129.427 145.204V143.263C129.427 142.899 129.063 142.535 128.699 142.535H126.758C126.394 142.535 126.03 142.899 126.03 143.263V145.204C126.03 145.568 125.666 145.932 125.302 145.932H123.361C122.997 145.932 122.633 146.296 122.633 146.66V149.33V151.999C122.633 152.363 122.269 152.727 121.905 152.727H119.235H116.566C116.202 152.727 115.838 153.091 115.838 153.455V156.124V159.643V163.04V166.438V169.107C115.838 169.471 116.202 169.835 116.566 169.835H119.235H122.754H126.151H126.879H128.821C129.185 169.835 129.549 169.471 129.549 169.107V167.166C129.549 166.802 129.185 166.438 128.821 166.438H126.151H122.754H120.085C119.721 166.438 119.357 166.074 119.357 165.71V163.89C119.357 163.526 119.721 163.162 120.085 163.162H122.026C122.39 163.162 122.754 162.798 122.754 162.434V160.492C122.754 160.128 122.39 159.764 122.026 159.764H120.085C119.721 159.764 119.357 159.4 119.357 159.036V157.095C119.357 156.731 119.721 156.367 120.085 156.367H122.026C122.39 156.367 122.754 156.731 122.754 157.095V159.036C122.754 159.4 123.118 159.764 123.482 159.764H125.423C125.787 159.764 126.151 160.128 126.151 160.492V162.434C126.151 162.798 126.515 163.162 126.879 163.162H128.821C129.185 163.162 129.549 163.526 129.549 163.89V165.831C129.549 166.195 129.913 166.559 130.277 166.559H132.946H135.615C135.979 166.559 136.343 166.923 136.343 167.287V169.228C136.343 169.592 136.707 169.956 137.071 169.956H139.013C139.377 169.956 139.741 169.592 139.741 169.228V167.287C139.741 166.923 140.105 166.559 140.469 166.559H142.41C142.774 166.559 143.138 166.923 143.138 167.287V169.228C143.138 169.592 143.502 169.956 143.866 169.956H145.807C146.171 169.956 146.535 169.592 146.535 169.228V167.287C146.535 166.923 146.899 166.559 147.263 166.559H149.205C149.569 166.559 149.933 166.923 149.933 167.287V169.956V172.626C149.933 172.99 150.297 173.354 150.661 173.354H153.451H156.97H157.698H159.518C159.882 173.354 160.246 172.99 160.246 172.626V170.684C160.246 170.32 159.882 169.956 159.518 169.956H157.577C157.213 169.956 156.849 169.592 156.849 169.228V166.559V163.162V160.492C156.849 160.128 157.213 159.764 157.577 159.764H159.518C159.882 159.764 160.246 159.4 160.246 159.036V156.367V152.97V152.242V150.3C160.367 149.694 160.003 149.33 159.518 149.33ZM152.602 163.162H150.661C150.297 163.162 149.933 162.798 149.933 162.434V160.492C149.933 160.128 150.297 159.764 150.661 159.764H152.602C152.966 159.764 153.33 160.128 153.33 160.492V162.434C153.451 162.798 153.087 163.162 152.602 163.162ZM149.205 152.848C149.569 152.848 149.933 153.212 149.933 153.576V155.518C149.933 155.882 149.569 156.246 149.205 156.246H147.263C146.899 156.246 146.535 155.882 146.535 155.518V153.576C146.535 153.212 146.899 152.848 147.263 152.848H149.205ZM128.457 152.848C128.821 152.848 129.185 153.212 129.185 153.576V155.518C129.185 155.882 128.821 156.246 128.457 156.246H126.515C126.151 156.246 125.787 155.882 125.787 155.518V153.576C125.787 153.212 126.151 152.848 126.515 152.848H128.457ZM139.619 163.162H136.101H133.431C133.067 163.162 132.703 162.798 132.703 162.434V159.764V156.246V153.576C132.703 153.212 133.067 152.848 133.431 152.848H136.101H139.619H142.289C142.653 152.848 143.017 153.212 143.017 153.576V156.246V159.764V162.434C143.017 162.798 142.653 163.162 142.289 163.162H139.619Z" fill="black"/>
<path d="M138.771 156.245H136.83C136.466 156.245 136.102 156.609 136.102 156.973V158.914C136.102 159.278 136.466 159.642 136.83 159.642H138.771C139.135 159.642 139.499 159.278 139.499 158.914V156.973C139.62 156.609 139.256 156.245 138.771 156.245Z" fill="black"/>
<path d="M109.165 163.161H111.107C111.471 163.161 111.835 162.797 111.835 162.433V159.764V159.036V157.094C111.835 156.73 111.471 156.366 111.107 156.366H109.165C108.801 156.366 108.438 156.73 108.438 157.094V159.764V162.433C108.438 162.797 108.801 163.161 109.165 163.161Z" fill="black"/>
<path d="M136.102 170.804C136.102 170.44 135.738 170.076 135.374 170.076H133.433C133.069 170.076 132.705 170.44 132.705 170.804V172.746C132.705 173.11 133.069 173.474 133.433 173.474H135.374C135.738 173.474 136.102 173.11 136.102 172.746V170.804Z" fill="black"/>
<path d="M105.041 174.324C105.041 173.96 104.677 173.596 104.313 173.596H102.371C102.007 173.596 101.643 173.232 101.643 172.868V170.198V167.529C101.643 167.165 102.007 166.801 102.371 166.801H105.041H105.769H107.71C108.074 166.801 108.438 166.437 108.438 166.073V163.889C108.438 163.525 108.074 163.161 107.71 163.161H105.769C105.405 163.161 105.041 162.797 105.041 162.433V159.764V156.245V152.848V150.178C105.041 149.814 104.677 149.45 104.313 149.45H101.643H100.915H98.8526C98.4886 149.45 98.1246 149.814 98.1246 150.178V152.12C98.1246 152.484 98.4886 152.848 98.8526 152.848H100.794C101.158 152.848 101.522 153.212 101.522 153.576V155.517C101.522 155.881 101.158 156.245 100.794 156.245H98.8526C98.4886 156.245 98.1246 156.609 98.1246 156.973V158.914C98.1246 159.278 97.7606 159.642 97.3966 159.642H95.4553C95.0913 159.642 94.7273 160.006 94.7273 160.37V162.312C94.7273 162.676 94.3633 163.04 93.9993 163.04H92.058C91.694 163.04 91.33 162.676 91.33 162.312V160.37C91.33 160.006 91.694 159.642 92.058 159.642H93.9993C94.3633 159.642 94.7273 159.278 94.7273 158.914V156.973C94.7273 156.609 94.3633 156.245 93.9993 156.245H92.058C91.694 156.245 91.33 155.881 91.33 155.517V153.576C91.33 153.212 91.694 152.848 92.058 152.848H93.9993C94.3633 152.848 94.7273 152.484 94.7273 152.12V150.178C94.7273 149.814 94.3633 149.45 93.9993 149.45H91.33H88.6606C88.2966 149.45 87.9326 149.814 87.9326 150.178V152.848V156.245V159.764V163.161V165.83C87.9326 166.194 88.2966 166.558 88.6606 166.558H91.33H94.8486H97.518C97.882 166.558 98.246 166.922 98.246 167.286V169.228C98.246 169.592 97.882 169.956 97.518 169.956H94.8486H92.1793C91.8153 169.956 91.4513 170.32 91.4513 170.684V173.596V177.114V179.662C91.4513 180.026 91.8153 180.39 92.1793 180.39H94.8486H97.518C97.882 180.39 98.246 180.026 98.246 179.662V177.721C98.246 177.357 98.61 176.993 98.974 176.993H101.643H102.371H104.313C104.677 176.993 105.041 176.629 105.041 176.265V174.324Z" fill="black"/>
<path d="M111.956 174.323C111.956 173.959 112.32 173.595 112.684 173.595H114.625C114.989 173.595 115.353 173.231 115.353 172.867V170.925C115.353 170.561 114.989 170.197 114.625 170.197H111.956H108.437H107.709H105.768C105.404 170.197 105.04 170.561 105.04 170.925V172.867C105.04 173.231 105.404 173.595 105.768 173.595H107.709C108.073 173.595 108.437 173.959 108.437 174.323V176.264C108.437 176.628 108.801 176.992 109.165 176.992H111.107C111.471 176.992 111.835 176.628 111.835 176.264V174.323H111.956Z" fill="black"/>
<path d="M118.872 174.324C118.872 173.96 118.508 173.596 118.144 173.596H116.203C115.839 173.596 115.475 173.96 115.475 174.324V176.265C115.475 176.629 115.839 176.993 116.203 176.993H118.144C118.508 176.993 118.872 176.629 118.872 176.265V174.324Z" fill="black"/>
<path d="M128.458 173.596H126.517C126.153 173.596 125.789 173.96 125.789 174.324V176.265C125.789 176.629 126.153 176.993 126.517 176.993H128.458C128.822 176.993 129.186 176.629 129.186 176.265V174.324C129.186 173.838 128.822 173.596 128.458 173.596Z" fill="black"/>
<path d="M139.621 174.324C139.621 173.96 139.257 173.596 138.893 173.596H136.952C136.588 173.596 136.224 173.96 136.224 174.324V176.265C136.224 176.629 136.588 176.993 136.952 176.993H138.893C139.257 176.993 139.621 176.629 139.621 176.265V174.324Z" fill="black"/>
<path d="M149.934 174.324C149.934 173.96 149.57 173.596 149.206 173.596H146.537H143.746C143.382 173.596 143.018 173.96 143.018 174.324V176.265C143.018 176.629 142.654 176.993 142.29 176.993H140.349C139.985 176.993 139.621 177.357 139.621 177.721V179.662C139.621 180.026 139.985 180.39 140.349 180.39H143.018H145.688C146.052 180.39 146.416 180.026 146.416 179.662V177.721C146.416 177.357 146.78 176.993 147.144 176.993H149.085C149.449 176.993 149.813 176.629 149.813 176.265V174.324H149.934Z" fill="black"/>
<path d="M107.709 176.992H105.768C105.404 176.992 105.04 177.356 105.04 177.72V179.662C105.04 180.026 105.404 180.39 105.768 180.39H107.709C108.073 180.39 108.437 180.026 108.437 179.662V177.72C108.437 177.356 108.073 176.992 107.709 176.992Z" fill="black"/>
<path d="M114.626 176.992H112.685C112.321 176.992 111.957 177.356 111.957 177.72V179.662C111.957 180.026 112.321 180.39 112.685 180.39H114.626C114.99 180.39 115.354 180.026 115.354 179.662V177.72C115.354 177.356 114.99 176.992 114.626 176.992Z" fill="black"/>
<path d="M124.939 176.992H122.269H121.541H119.6C119.236 176.992 118.872 177.356 118.872 177.72V179.662C118.872 180.026 119.236 180.39 119.6 180.39H122.269H122.997H124.939C125.303 180.39 125.667 180.026 125.667 179.662V177.72C125.788 177.356 125.424 176.992 124.939 176.992Z" fill="black"/>
<path d="M156.122 176.992H153.453H152.725H150.784C150.42 176.992 150.056 177.356 150.056 177.72V179.662C150.056 180.026 150.42 180.39 150.784 180.39H153.453H154.181H156.122C156.486 180.39 156.85 180.026 156.85 179.662V177.72C156.85 177.356 156.486 176.992 156.122 176.992Z" fill="black"/>
<path d="M60.7534 104.435H83.4428C83.8068 104.435 84.1708 104.071 84.1708 103.707V101.037V97.5187V94.1213V90.6027V87.084V83.6866V80.896C84.2921 80.532 83.9281 80.168 83.4428 80.168H60.7534C60.3894 80.168 60.0254 80.532 60.0254 80.896V83.5653V86.9626V90.4813V93.8787V97.276V100.795V103.464C60.0254 104.071 60.3894 104.435 60.7534 104.435ZM63.5441 97.5187V94.1213V90.6027V87.084V84.0506C63.5441 83.808 63.6654 83.6866 63.9081 83.6866H80.4094C80.6521 83.6866 80.7734 83.9293 80.7734 84.0506V87.084V90.6027V94V97.3973V100.431C80.7734 100.673 80.5308 100.795 80.4094 100.795H63.9081C63.6654 100.795 63.5441 100.552 63.5441 100.431V97.5187Z" fill="black"/>
<path d="M67.6694 97.5177H76.5268C76.8908 97.5177 77.2548 97.1537 77.2548 96.7897V94.1204V90.6017V87.811C77.2548 87.447 76.8908 87.083 76.5268 87.083H67.6694C67.3054 87.083 66.9414 87.447 66.9414 87.811V90.4803V93.8777V96.547C66.9414 97.1537 67.3054 97.5177 67.6694 97.5177Z" fill="black"/>
<path d="M159.519 80.168H136.83C136.466 80.168 136.102 80.532 136.102 80.896V83.5653V86.9626V90.4813V93.8787V97.276V100.795V103.464C136.102 103.828 136.466 104.192 136.83 104.192H159.519C159.883 104.192 160.247 103.828 160.247 103.464V100.795V97.276V93.8787V90.6027V87.084V83.6866V80.896C160.368 80.532 160.004 80.168 159.519 80.168ZM156.85 87.084V90.6027V94V97.3973V100.431C156.85 100.673 156.607 100.795 156.486 100.795H139.984C139.742 100.795 139.62 100.552 139.62 100.431V97.3973V94V90.6027V87.084V84.0506C139.62 83.808 139.863 83.6866 139.984 83.6866H156.486C156.728 83.6866 156.85 83.9293 156.85 84.0506V87.084Z" fill="black"/>
<path d="M152.604 87.083H143.747C143.383 87.083 143.019 87.447 143.019 87.811V90.4803V93.8777V96.547C143.019 96.911 143.383 97.275 143.747 97.275H152.604C152.968 97.275 153.332 96.911 153.332 96.547V93.8777V90.6017V87.811C153.453 87.447 153.089 87.083 152.604 87.083Z" fill="black"/>
<path d="M83.4428 156.245H60.7534C60.3894 156.245 60.0254 156.609 60.0254 156.973V159.642V163.04V166.437V169.956V173.596V177.115V179.663C60.0254 180.027 60.3894 180.391 60.7534 180.391H83.4428C83.8068 180.391 84.1708 180.027 84.1708 179.663V176.993V173.596V170.198V166.68V163.282V159.885V157.216C84.2921 156.609 83.9281 156.245 83.4428 156.245ZM80.7734 163.161V166.558V170.077V173.596V176.629C80.7734 176.872 80.5308 176.993 80.4094 176.993H63.9081C63.6654 176.993 63.5441 176.75 63.5441 176.629V173.596V170.198V166.68V163.282V160.249C63.5441 160.006 63.7867 159.885 63.9081 159.885H80.4094C80.6521 159.885 80.7734 160.128 80.7734 160.249V163.161Z" fill="black"/>
<path d="M76.5268 163.161H67.6694C67.3054 163.161 66.9414 163.525 66.9414 163.889V166.558V170.077V172.746C66.9414 173.232 67.3054 173.596 67.6694 173.596H76.5268C76.8908 173.596 77.2548 173.232 77.2548 172.868V170.198V166.68V163.889C77.3761 163.525 77.0121 163.161 76.5268 163.161Z" fill="black"/>
</g>
<path d="M67.4584 75.9219H60.5566C57.9176 75.9219 55.7783 78.0612 55.7783 80.7001V87.0711" stroke="black" stroke-width="1.06183"/>
<path d="M56.0439 173.077L56.0439 179.979C56.0439 182.618 58.1832 184.757 60.8222 184.757L67.1932 184.757" stroke="black" stroke-width="1.06183"/>
<path d="M152.935 184.757L159.837 184.757C162.476 184.757 164.615 182.618 164.615 179.979L164.615 173.608" stroke="black" stroke-width="1.06183"/>
<path d="M164.35 87.6L164.35 80.6982C164.35 78.0592 162.21 75.9199 159.571 75.9199L153.2 75.9199" stroke="black" stroke-width="1.06183"/>
<rect x="50.4678" y="254.839" width="124.765" height="21.2366" rx="2.12366" fill="white"/>
<path d="M94.2834 268.698C95.6881 268.698 96.4433 267.83 96.4433 266.92C96.4433 266.035 95.8992 265.394 94.8193 265.174L94.2428 265.061C93.8774 264.988 93.6419 264.793 93.6419 264.468C93.6419 264.159 93.9504 263.891 94.4052 263.891C94.8761 263.891 95.2009 264.192 95.3065 264.517L96.2403 263.932C95.9398 263.315 95.3065 262.852 94.4052 262.852C93.106 262.852 92.4726 263.729 92.4726 264.484C92.4726 265.467 93.1628 265.978 93.9667 266.133L94.5188 266.23C94.9573 266.319 95.2415 266.539 95.2415 266.92C95.2415 267.35 94.868 267.594 94.2834 267.594C93.6257 267.594 93.2197 267.18 93.0735 266.758L92.1478 267.294C92.3914 267.919 93.0167 268.698 94.2834 268.698ZM98.2276 268.617V266.514C98.2276 266.043 98.528 265.727 98.934 265.727C99.3887 265.727 99.6242 266.051 99.6242 266.457V268.617H100.639V266.246C100.639 265.426 100.014 264.793 99.1614 264.793C98.7148 264.793 98.3981 264.963 98.2276 265.126V262.933H97.2126V268.617H98.2276ZM102.88 268.707C103.383 268.707 103.708 268.528 103.863 268.357V268.617H104.804V266.36C104.804 265.588 104.252 264.793 103.107 264.793C102.344 264.793 101.8 265.215 101.565 265.718L102.295 266.189C102.425 265.913 102.693 265.686 103.107 265.686C103.586 265.686 103.822 265.946 103.822 266.124C103.822 266.303 103.7 266.409 103.505 266.409H102.693C101.962 266.409 101.443 266.831 101.443 267.48C101.443 268.154 101.987 268.707 102.88 268.707ZM103.018 267.895C102.677 267.895 102.482 267.724 102.482 267.505C102.482 267.286 102.645 267.139 102.88 267.139H103.814V267.188C103.814 267.578 103.513 267.895 103.018 267.895ZM106.783 268.617V266.701C106.783 266.141 107.092 265.791 107.652 265.791H108.05V264.825H107.766C107.343 264.825 106.937 264.988 106.734 265.321V264.882H105.784V268.617H106.783ZM110.442 268.707C111.165 268.707 111.766 268.374 112.123 267.87L111.319 267.302C111.149 267.594 110.816 267.765 110.442 267.773C109.971 267.765 109.59 267.497 109.476 267.042H112.383C112.497 265.735 111.644 264.793 110.426 264.793C109.208 264.793 108.396 265.702 108.396 266.75C108.396 267.805 109.232 268.707 110.442 268.707ZM109.5 266.36C109.614 265.986 109.947 265.71 110.426 265.702C110.905 265.71 111.246 266.011 111.352 266.36H109.5ZM117.039 268.707C118.233 268.707 119.078 267.83 119.078 266.75C119.078 265.678 118.233 264.793 117.039 264.793C115.854 264.793 115.001 265.678 115.001 266.75C115.001 267.83 115.854 268.707 117.039 268.707ZM117.039 267.748C116.463 267.74 116.057 267.31 116.057 266.75C116.057 266.197 116.463 265.759 117.039 265.751C117.616 265.759 118.022 266.197 118.022 266.75C118.022 267.31 117.616 267.74 117.039 267.748ZM121.434 268.707C122.595 268.707 123.147 267.927 123.147 266.977V264.882H122.132V267.009C122.132 267.415 121.889 267.748 121.434 267.748C120.987 267.748 120.744 267.415 120.744 267.009V264.882H119.729V266.977C119.729 267.927 120.281 268.707 121.434 268.707ZM125.005 268.617V266.701C125.005 266.141 125.314 265.791 125.874 265.791H126.272V264.825H125.988C125.566 264.825 125.16 264.988 124.957 265.321V264.882H124.007V268.617H125.005ZM130.829 268.707C131.592 268.707 132.201 268.349 132.534 267.805L131.69 267.261C131.527 267.545 131.211 267.74 130.829 267.748C130.252 267.74 129.846 267.31 129.846 266.75C129.846 266.197 130.252 265.759 130.829 265.751C131.243 265.759 131.568 265.986 131.722 266.295L132.567 265.743C132.234 265.174 131.617 264.793 130.829 264.793C129.643 264.793 128.791 265.678 128.791 266.75C128.791 267.821 129.643 268.707 130.829 268.707ZM134.567 268.707C135.07 268.707 135.395 268.528 135.549 268.357V268.617H136.491V266.36C136.491 265.588 135.939 264.793 134.794 264.793C134.031 264.793 133.487 265.215 133.251 265.718L133.982 266.189C134.112 265.913 134.38 265.686 134.794 265.686C135.273 265.686 135.508 265.946 135.508 266.124C135.508 266.303 135.387 266.409 135.192 266.409H134.38C133.649 266.409 133.129 266.831 133.129 267.48C133.129 268.154 133.673 268.707 134.567 268.707ZM134.705 267.895C134.364 267.895 134.169 267.724 134.169 267.505C134.169 267.286 134.331 267.139 134.567 267.139H135.5V267.188C135.5 267.578 135.2 267.895 134.705 267.895ZM138.47 268.617V266.701C138.47 266.141 138.778 265.791 139.339 265.791H139.736V264.825H139.452C139.03 264.825 138.624 264.988 138.421 265.321V264.882H137.471V268.617H138.47ZM143.103 265.085C142.787 264.89 142.413 264.793 142.056 264.793C140.935 264.793 140.083 265.702 140.083 266.75C140.083 267.797 140.935 268.707 142.056 268.707C142.413 268.707 142.787 268.609 143.103 268.414V268.617H144.118V262.933H143.103V265.085ZM142.121 267.748C141.544 267.74 141.138 267.31 141.138 266.75C141.138 266.197 141.544 265.759 142.121 265.751C142.697 265.759 143.103 266.197 143.103 266.75C143.103 267.31 142.697 267.74 142.121 267.748Z" fill="#252429"/>
<path opacity="0.25" d="M80.6557 260.222C81.5093 260.302 82.1498 260.965 82.2122 261.82C82.2706 262.621 82.3232 263.802 82.3232 265.458C82.3232 267.113 82.2706 268.294 82.2122 269.096C82.1498 269.951 81.5093 270.613 80.6557 270.693C80.2113 270.735 79.6905 270.767 79.1378 270.767C78.585 270.767 78.0642 270.735 77.6198 270.693C76.7662 270.613 76.1257 269.951 76.0634 269.096C76.0049 268.294 75.9523 267.113 75.9523 265.458C75.9523 263.802 76.0049 262.621 76.0634 261.82C76.1257 260.965 76.7662 260.302 77.6198 260.222C78.0642 260.18 78.585 260.148 79.1378 260.148C79.6905 260.148 80.2113 260.18 80.6557 260.222Z" fill="#12131A"/>
<path fill-rule="evenodd" clip-rule="evenodd" d="M83.8058 263.974C83.5984 263.766 83.5984 263.43 83.8058 263.223C84.0131 263.016 84.3493 263.016 84.5566 263.223L86.4148 265.081C86.6221 265.289 86.6221 265.625 86.4148 265.832L84.5566 267.69C84.3493 267.898 84.0131 267.898 83.8058 267.69C83.5984 267.483 83.5984 267.147 83.8058 266.939L84.7577 265.988L79.6684 265.988C79.3752 265.988 79.1375 265.75 79.1375 265.457C79.1375 265.163 79.3752 264.926 79.6684 264.926L84.7577 264.926L83.8058 263.974Z" fill="#12131A"/>
<defs>
<filter id="filter0_d" x="39.659" y="325.45" width="29.5111" height="29.5111" filterUnits="userSpaceOnUse" color-interpolation-filters="sRGB">
<feFlood flood-opacity="0" result="BackgroundImageFix"/>
<feColorMatrix in="SourceAlpha" type="matrix" values="0 0 0 0 0 0 0 0 0 0 0 0 0 0 0 0 0 0 127 0" result="hardAlpha"/>
<feOffset dy="2.31462"/>
<feGaussianBlur stdDeviation="1.15731"/>
<feComposite in2="hardAlpha" operator="out"/>
<feColorMatrix type="matrix" values="0 0 0 0 0 0 0 0 0 0 0 0 0 0 0 0 0 0 0.05 0"/>
<feBlend mode="normal" in2="BackgroundImageFix" result="effect1_dropShadow"/>
<feBlend mode="normal" in="SourceGraphic" in2="effect1_dropShadow" result="shape"/>
</filter>
<filter id="filter1_d" x="77.2" y="325.45" width="29.5111" height="29.5111" filterUnits="userSpaceOnUse" color-interpolation-filters="sRGB">
<feFlood flood-opacity="0" result="BackgroundImageFix"/>
<feColorMatrix in="SourceAlpha" type="matrix" values="0 0 0 0 0 0 0 0 0 0 0 0 0 0 0 0 0 0 127 0" result="hardAlpha"/>
<feOffset dy="2.31462"/>
<feGaussianBlur stdDeviation="1.15731"/>
<feComposite in2="hardAlpha" operator="out"/>
<feColorMatrix type="matrix" values="0 0 0 0 0 0 0 0 0 0 0 0 0 0 0 0 0 0 0.05 0"/>
<feBlend mode="normal" in2="BackgroundImageFix" result="effect1_dropShadow"/>
<feBlend mode="normal" in="SourceGraphic" in2="effect1_dropShadow" result="shape"/>
</filter>
<filter id="filter2_d" x="114.742" y="325.45" width="29.5111" height="29.5111" filterUnits="userSpaceOnUse" color-interpolation-filters="sRGB">
<feFlood flood-opacity="0" result="BackgroundImageFix"/>
<feColorMatrix in="SourceAlpha" type="matrix" values="0 0 0 0 0 0 0 0 0 0 0 0 0 0 0 0 0 0 127 0" result="hardAlpha"/>
<feOffset dy="2.31462"/>
<feGaussianBlur stdDeviation="1.15731"/>
<feComposite in2="hardAlpha" operator="out"/>
<feColorMatrix type="matrix" values="0 0 0 0 0 0 0 0 0 0 0 0 0 0 0 0 0 0 0.05 0"/>
<feBlend mode="normal" in2="BackgroundImageFix" result="effect1_dropShadow"/>
<feBlend mode="normal" in="SourceGraphic" in2="effect1_dropShadow" result="shape"/>
</filter>
<filter id="filter3_d" x="152.283" y="325.45" width="29.5111" height="29.5111" filterUnits="userSpaceOnUse" color-interpolation-filters="sRGB">
<feFlood flood-opacity="0" result="BackgroundImageFix"/>
<feColorMatrix in="SourceAlpha" type="matrix" values="0 0 0 0 0 0 0 0 0 0 0 0 0 0 0 0 0 0 127 0" result="hardAlpha"/>
<feOffset dy="2.31462"/>
<feGaussianBlur stdDeviation="1.15731"/>
<feComposite in2="hardAlpha" operator="out"/>
<feColorMatrix type="matrix" values="0 0 0 0 0 0 0 0 0 0 0 0 0 0 0 0 0 0 0.05 0"/>
<feBlend mode="normal" in2="BackgroundImageFix" result="effect1_dropShadow"/>
<feBlend mode="normal" in="SourceGraphic" in2="effect1_dropShadow" result="shape"/>
</filter>
<filter id="filter4_d" x="13.4958" y="18.582" width="16.0758" height="16.0758" filterUnits="userSpaceOnUse" color-interpolation-filters="sRGB">
<feFlood flood-opacity="0" result="BackgroundImageFix"/>
<feColorMatrix in="SourceAlpha" type="matrix" values="0 0 0 0 0 0 0 0 0 0 0 0 0 0 0 0 0 0 127 0" result="hardAlpha"/>
<feOffset dy="2.4632"/>
<feGaussianBlur stdDeviation="1.2316"/>
<feComposite in2="hardAlpha" operator="out"/>
<feColorMatrix type="matrix" values="0 0 0 0 0 0 0 0 0 0 0 0 0 0 0 0 0 0 0.05 0"/>
<feBlend mode="normal" in2="BackgroundImageFix" result="effect1_dropShadow"/>
<feBlend mode="normal" in="SourceGraphic" in2="effect1_dropShadow" result="shape"/>
</filter>
<linearGradient id="paint0_linear" x1="110.462" y1="0" x2="110.462" y2="389.691" gradientUnits="userSpaceOnUse">
<stop stop-color="#00E99F"/>
<stop offset="1" stop-color="#00EAA0"/>
</linearGradient>
<clipPath id="clip0">
<rect width="10.4767" height="10.4767" fill="white" transform="translate(162.02 333.308)"/>
</clipPath>
<clipPath id="clip1">
<rect width="10.4767" height="10.4767" fill="white" transform="translate(124.041 333.308)"/>
</clipPath>
<clipPath id="clip2">
<rect width="10.4767" height="10.4767" fill="white" transform="translate(86.9355 333.308)"/>
</clipPath>
<clipPath id="clip3">
<rect width="100.343" height="100.343" fill="white" transform="translate(60.0254 80.168)"/>
</clipPath>
</defs>
</svg>
