<svg width="20" height="20" viewBox="0 0 20 20" fill="none" xmlns="http://www.w3.org/2000/svg">
<path d="M19.25 10C19.25 15.1086 15.1086 19.25 10 19.25C4.89137 19.25 0.75 15.1086 0.75 10C0.75 4.89137 4.89137 0.75 10 0.75C15.1086 0.75 19.25 4.89137 19.25 10Z" stroke="#F05C35" stroke-width="1.5"/>
<path d="M0.623949 8.4606C0.62395 8.46059 0.62395 8.46059 0.62395 8.46059L0.616124 8.45931L0.602065 7.97735L0.623949 8.4606ZM0.623949 8.4606L0.616124 8.45932L0.616605 8.47579C0.617574 8.4748 0.618859 8.47324 0.620171 8.47097C0.622128 8.46758 0.623426 8.4638 0.623949 8.4606ZM0.616599 8.4758L0.616118 8.45932L0.130643 8.38023L0.616118 8.45931L0.616599 8.4758ZM0.616599 8.4758C0.616223 8.47618 0.615895 8.47648 0.615632 8.4767C0.614946 8.47728 0.614574 8.47745 0.614576 8.47746C0.614578 8.47746 0.615222 8.47718 0.616644 8.47714L0.616599 8.4758ZM12.1615 12.2038L11.9665 11.6955L11.4766 11.933C9.43465 12.923 7.19192 14.6125 4.19669 17.522C3.93155 17.3172 3.67748 17.0985 3.43558 16.8672C6.53665 13.8473 8.90823 12.0495 11.1312 10.9896L11.5768 10.7772L11.3701 10.3289C11.0595 9.6555 10.7247 8.99198 10.3658 8.33515L10.1687 7.97447L9.7767 8.09803C7.15248 8.92516 4.1631 9.3832 0.513894 9.4804C0.532189 9.14079 0.568298 8.80597 0.621291 8.477C3.93029 8.38021 6.65081 7.97911 9.02985 7.28016L9.6614 7.09461L9.31324 6.53597C8.26983 4.86181 7.0647 3.21158 5.69774 1.52756C6.0044 1.37151 6.32063 1.23164 6.6453 1.10908C8.07133 2.88047 9.32298 4.62101 10.4002 6.39477L10.6192 6.75524L11.0114 6.60022C13.0876 5.77957 14.9372 4.6905 16.7614 3.32669C16.9964 3.56478 17.2189 3.81519 17.4279 4.07686C15.5986 5.45152 13.7311 6.56953 11.6398 7.4253L11.1268 7.63525L11.3884 8.12402C11.7207 8.74489 12.0325 9.37225 12.3235 10.0086L12.5075 10.411L12.9292 10.2774C14.9863 9.62561 17.0237 9.5192 19.4872 9.50287C19.4956 9.66742 19.4999 9.83315 19.4999 10C19.4999 10.169 19.4955 10.337 19.4868 10.5037C17.127 10.521 15.2651 10.6165 13.4127 11.1742L12.8969 11.3295L13.0901 11.8323C13.8533 13.8188 14.4275 15.915 14.8093 18.1945C14.508 18.3718 14.196 18.5329 13.8747 18.6765C13.5078 16.3583 12.9382 14.2282 12.1615 12.2038ZM4.21104 17.5331L4.211 17.5331L4.21104 17.5331ZM14.8109 18.204C14.8108 18.2032 14.8107 18.2011 14.8121 18.198C14.8137 18.1945 14.8173 18.1898 14.8227 18.1866L14.8228 18.1865L14.8109 18.204ZM5.67101 1.54121L5.67101 1.54121L5.67101 1.54121ZM16.7495 3.31469L16.7496 3.31473L16.7495 3.31469ZM17.443 4.06547C17.443 4.06548 17.443 4.0655 17.443 4.06551L17.459 4.08682L17.459 4.08686L17.7433 4.46456L17.4591 4.08682L17.459 4.08679L17.443 4.06547ZM5.44301 1.09663L5.44299 1.09659L5.44301 1.09663ZM5.44284 1.0963L5.44287 1.09635L5.44284 1.0963Z" fill="#F05C35" stroke="#F05C35"/>
</svg>
