<svg width="14" height="20" viewBox="0 0 14 20" fill="none" xmlns="http://www.w3.org/2000/svg">
<path d="M6.99243 9.48876C5.61156 9.48876 4.49268 8.36987 4.49268 6.98901C4.49268 5.60815 5.61156 4.48926 6.99243 4.48926C8.37329 4.48926 9.49218 5.60815 9.49218 6.98901C9.49218 8.36987 8.37329 9.48876 6.99243 9.48876Z" fill="#3D348B"/>
<path d="M6.9923 0C3.13669 0 0 3.13669 0 6.9923C0 11.4749 5.9674 18.7581 6.22138 19.0651L6.9923 20L7.76322 19.0651C8.0172 18.7571 13.9846 11.4749 13.9846 6.9923C13.9846 3.13569 10.8479 0 6.9923 0ZM6.9923 16.8153C5.11449 14.3526 1.9998 9.70103 1.9998 6.9923C1.9998 4.23958 4.23958 1.9998 6.9923 1.9998C9.74503 1.9998 11.9848 4.23958 11.9848 6.9923C11.9848 9.69703 8.87011 14.3506 6.9923 16.8153Z" fill="#3D348B"/>
</svg>
