<svg width="20" height="20" viewBox="0 0 20 20" fill="none" xmlns="http://www.w3.org/2000/svg">
<g clip-path="url(#clip0_403_4382)">
<path d="M14.4827 8.25C14.7327 12 11.9827 15 8.48276 15C7.27681 15 6.07085 14.8384 5.12473 14.3853C4.90804 14.2815 4.99274 13.9925 5.23247 13.9766C6.39751 13.8993 7.36161 13.6212 7.98276 13C9.48285 11.5 9.7328 11 10.1151 9.01198C10.0294 8.77402 9.98275 8.51746 9.98275 8.25C9.98275 7.00736 10.9901 6 12.2327 6C12.9918 6 13.6631 6.37591 14.0706 6.95173L14.9292 6.82908C15.1431 6.79852 15.2925 7.03543 15.1726 7.21523L14.4827 8.25Z" fill="#005F73"/>
<path d="M9.85778 12.9993C7.14958 12.0965 6.68243 8.74897 7.16892 7.00281C7.22604 6.79777 7.49261 6.79671 7.60005 6.98044C8.43079 8.40107 10.0104 9.19423 11.9901 9.0112C15.1078 9.0112 14.3578 14.4993 9.85778 12.9993Z" fill="#005F73"/>
<path d="M16.25 0.75H4.25C2.45507 0.75 1 2.20507 1 4V16C1 17.7949 2.45507 19.25 4.25 19.25H16.25C18.0449 19.25 19.5 17.7949 19.5 16V4C19.5 2.20507 18.0449 0.75 16.25 0.75Z" stroke="#005F73" stroke-width="1.5"/>
</g>
<defs>
<clipPath id="clip0_403_4382">
<rect width="20" height="20" fill="white"/>
</clipPath>
</defs>
</svg>
