<svg width="20" height="20" viewBox="0 0 20 20" fill="none" xmlns="http://www.w3.org/2000/svg">
<g clip-path="url(#clip0_403_4386)">
<path fill-rule="evenodd" clip-rule="evenodd" d="M19.9507 11C19.9833 10.6711 20 10.3375 20 10C20 9.66251 19.9833 9.32891 19.9507 9H0.049376C0.01672 9.32891 0 9.66251 0 10C0 10.3375 0.01672 10.6711 0.049376 11H19.9507Z" fill="#005F73"/>
<path fill-rule="evenodd" clip-rule="evenodd" d="M10 18C14.4183 18 18 14.4183 18 10C18 5.58171 14.4183 2 10 2C5.58171 2 2 5.58171 2 10C2 14.4183 5.58171 18 10 18ZM10 20C15.5228 20 20 15.5228 20 10C20 4.47717 15.5228 0 10 0C4.47717 0 0 4.47717 0 10C0 15.5228 4.47717 20 10 20Z" fill="#005F73"/>
<path fill-rule="evenodd" clip-rule="evenodd" d="M11.7467 16.1767C12.4854 14.6992 13 12.5182 13 10C13 7.48176 12.4854 5.30075 11.7467 3.82336C10.9482 2.22632 10.215 2 10 2C9.78496 2 9.05184 2.22632 8.25333 3.82336C7.51461 5.30075 7 7.48176 7 10C7 12.5182 7.51461 14.6992 8.25333 16.1767C9.05184 17.7736 9.78496 18 10 18C10.215 18 10.9482 17.7736 11.7467 16.1767ZM10 20C12.7614 20 15 15.5228 15 10C15 4.47717 12.7614 0 10 0C7.23856 0 5 4.47717 5 10C5 15.5228 7.23856 20 10 20Z" fill="#005F73"/>
</g>
<defs>
<clipPath id="clip0_403_4386">
<rect width="20" height="20" fill="white"/>
</clipPath>
</defs>
</svg>
