<svg width="20" height="20" viewBox="0 0 20 20" fill="none" xmlns="http://www.w3.org/2000/svg">
<path d="M1.80659 6.66177C1.90504 5.3989 2.90094 4.41091 4.16523 4.33262C5.51747 4.24888 7.44804 4.16602 9.79297 4.16602C12.1379 4.16602 14.0685 4.24888 15.4207 4.33262C16.685 4.41091 17.6809 5.3989 17.7794 6.66177C17.8526 7.60177 17.918 8.69022 17.918 9.58268C17.918 10.4752 17.8526 11.5636 17.7794 12.5036C17.6809 13.7665 16.685 14.7545 15.4207 14.8327C14.0685 14.9165 12.1379 14.9994 9.79297 14.9994C7.44804 14.9994 5.51747 14.9165 4.16523 14.8327C2.90094 14.7545 1.90504 13.7665 1.80659 12.5036C1.73332 11.5636 1.66797 10.4752 1.66797 9.58268C1.66797 8.69022 1.73332 7.60177 1.80659 6.66177Z" stroke="#005F73" stroke-width="1.5"/>
<path d="M9.4375 10.4238V8.74414L10.6973 9.58396L9.4375 10.4238Z" fill="#005F73" stroke="#005F73" stroke-width="2"/>
</svg>
