<svg width="21" height="21" viewBox="0 0 21 21" fill="none" xmlns="http://www.w3.org/2000/svg">
<path d="M0 3.15C0 1.41031 1.41031 0 3.15 0H17.85C19.5897 0 21 1.41031 21 3.15V17.85C21 19.5897 19.5897 21 17.85 21H3.15C1.41031 21 0 19.5897 0 17.85V3.15Z" fill="#D2D2D2"/>
<path d="M10.5 17C14.0899 17 17 14.0899 17 10.5C17 6.91015 14.0899 4 10.5 4C6.91015 4 4 6.91015 4 10.5C4 14.0899 6.91015 17 10.5 17Z" fill="black"/>
<path d="M13.1322 16.4451C12.9425 16.5292 12.731 16.4026 12.6987 16.1977C12.4636 14.7096 12.0987 13.3448 11.6016 12.049C10.3191 12.6708 8.88959 13.7424 6.95129 15.6255C6.83865 15.735 6.66342 15.75 6.53895 15.6542C6.34935 15.5083 6.16802 15.3521 5.99581 15.1865C5.86841 15.0641 5.87276 14.8612 5.99934 14.7379C8.02868 12.7609 9.60192 11.5621 11.0954 10.8501C10.8968 10.4193 10.6825 9.99459 10.4526 9.57384C8.70855 10.1235 6.73069 10.4245 4.33107 10.4876C4.14938 10.4924 3.99928 10.3456 4.00852 10.164C4.02089 9.9214 4.04655 9.6822 4.08482 9.44729C4.10923 9.29747 4.23962 9.18986 4.39137 9.18544C6.52265 9.12329 8.26331 8.8654 9.77781 8.42044C9.10686 7.34388 8.33003 6.28009 7.44568 5.19106C7.31968 5.0359 7.36002 4.80396 7.53787 4.71276C7.75668 4.60054 7.98269 4.50036 8.21502 4.41311C8.34186 4.36547 8.48402 4.40722 8.569 4.51275C9.50429 5.67424 10.3278 6.81881 11.038 7.98805C12.3568 7.4668 13.5345 6.77401 14.7021 5.9009C14.829 5.80596 15.0066 5.81339 15.1181 5.92601C15.2862 6.0957 15.445 6.27459 15.5937 6.46189C15.7025 6.59895 15.6732 6.79721 15.5334 6.90242C14.3233 7.81283 13.0824 8.55721 11.689 9.12739C11.9081 9.53673 12.1138 9.95059 12.3059 10.3706C13.695 9.9305 15.0635 9.86245 16.6726 9.85198C16.8401 9.85088 16.9814 9.97776 16.9905 10.1449C16.9968 10.2625 17 10.381 17 10.5002C17 10.6204 16.9967 10.7399 16.9903 10.8586C16.9812 11.025 16.841 11.1513 16.6744 11.1525C15.1408 11.1636 13.9695 11.2261 12.8119 11.5746C13.3168 12.8887 13.696 14.2744 13.9477 15.7793C13.969 15.907 13.9116 16.0354 13.8001 16.1013C13.5851 16.2282 13.3622 16.3431 13.1322 16.4451Z" fill="white" fill-opacity="0.5"/>
</svg>
