<svg width="21" height="21" viewBox="0 0 21 21" fill="none" xmlns="http://www.w3.org/2000/svg">
<path d="M0 3.15C0 1.41031 1.41031 0 3.15 0H17.85C19.5897 0 21 1.41031 21 3.15V17.85C21 19.5897 19.5897 21 17.85 21H3.15C1.41031 21 0 19.5897 0 17.85V3.15Z" fill="#D2D2D2"/>
<path d="M15.05 4H5.95C5.09571 4 4 5.05075 4 5.95V15.05C4 15.9492 5.09571 17 5.95 17H15.05C15.9043 17 17 15.9492 17 15.05V5.95C17 5.05075 15.9043 4 15.05 4Z" fill="black"/>
<path d="M11.8 9.33929C11.8 8.95466 12.091 8.64286 12.45 8.64286H13.1C13.459 8.64286 13.75 8.33106 13.75 7.94643C13.75 7.5618 13.459 7.25 13.1 7.25H12.45C11.373 7.25 10.5 8.1854 10.5 9.33929V10.7321H9.85001C9.49102 10.7321 9.20001 11.0439 9.20001 11.4286C9.20001 11.8132 9.49102 12.125 9.85001 12.125H10.5V16.3036C10.5 16.6882 10.791 17 11.15 17C11.509 17 11.8 16.6882 11.8 16.3036V12.125H13.1C13.459 12.125 13.75 11.8132 13.75 11.4286C13.75 11.0439 13.459 10.7321 13.1 10.7321H11.8V9.33929Z" fill="#D2D2D2"/>
</svg>
