<svg width="21" height="21" viewBox="0 0 21 21" fill="none" xmlns="http://www.w3.org/2000/svg">
<path d="M0 3.15C0 1.41031 1.41031 0 3.15 0H17.85C19.5897 0 21 1.41031 21 3.15V17.85C21 19.5897 19.5897 21 17.85 21H3.15C1.41031 21 0 19.5897 0 17.85V3.15Z" fill="#D2D2D2"/>
<path d="M10.5 17C14.0899 17 17 14.0899 17 10.5C17 6.91015 14.0899 4 10.5 4C6.91015 4 4 6.91015 4 10.5C4 14.0899 6.91015 17 10.5 17Z" fill="black"/>
<path d="M8.34676 16.774C8.18994 16.7155 8.10833 16.5441 8.15308 16.3819L10.0112 9.64422C10.1094 9.28794 10.4758 9.07938 10.8295 9.17835C11.1831 9.27729 11.3902 9.6463 11.2919 10.0025L10.5926 12.5387C11.424 12.7162 12.0072 12.5644 12.3976 12.3045C12.8914 11.9757 13.2086 11.3871 13.2881 10.6881C13.3675 9.98852 13.1975 9.25446 12.8089 8.71073C12.4346 8.18691 11.8433 7.81499 10.9839 7.81499C9.70719 7.81499 8.94724 8.37148 8.57651 9.05607C8.19061 9.76867 8.1782 10.7079 8.58749 11.5324C8.75164 11.8631 8.61857 12.2652 8.29025 12.4305C7.96193 12.5959 7.5627 12.4618 7.39855 12.1311C6.81089 10.9473 6.79848 9.54333 7.40955 8.41493C8.03579 7.2585 9.26976 6.47607 10.9839 6.47607C12.2846 6.47607 13.2718 7.0665 13.8878 7.92854C14.4896 8.7707 14.7217 9.846 14.6087 10.8404C14.4956 11.8355 14.0254 12.8257 13.1306 13.4214C12.3669 13.9298 11.3835 14.0924 10.2364 13.8302L9.42871 16.759C9.38211 16.9278 9.21395 17.0328 9.04511 16.9905C8.807 16.931 8.57396 16.8586 8.34676 16.774Z" fill="#D2D2D2"/>
</svg>
