<svg width="20" height="20" viewBox="0 0 20 20" fill="none" xmlns="http://www.w3.org/2000/svg">
<path d="M11.1667 7.16667V5H12.25C12.8483 5 13.3333 5.48503 13.3333 6.08333C13.3333 6.68164 12.8483 7.16667 12.25 7.16667H11.1667ZM8.08333 9.16667H9.16667V11.3333H8.08333C7.48503 11.3333 7 10.8483 7 10.25C7 9.65169 7.48502 9.16667 8.08333 9.16667Z" fill="white" stroke="white" stroke-width="2"/>
<path opacity="0.25" d="M6 6.08333C6 4.93274 6.93274 4 8.08333 4H10.1667V8.16667H8.08333C6.93274 8.16667 6 7.23393 6 6.08333Z" fill="white" fill-opacity="0.5"/>
<path opacity="0.25" d="M10.1666 10.25C10.1666 9.09943 11.0994 8.16669 12.25 8.16669C13.4005 8.16669 14.3333 9.09943 14.3333 10.25C14.3333 11.4006 13.4005 12.3334 12.25 12.3334C11.0994 12.3334 10.1666 11.4006 10.1666 10.25Z" fill="white" fill-opacity="0.5"/>
<path opacity="0.25" d="M8.08333 12.3333C6.93274 12.3333 6 13.2661 6 14.4166C6 15.5672 6.93274 16.5 8.08333 16.5C9.23391 16.5 10.1667 15.5672 10.1667 14.4166V12.3333H8.08333Z" fill="white" fill-opacity="0.5"/>
<rect x="0.75" y="0.75" width="18.5" height="18.5" rx="3.25" stroke="white" stroke-width="1.5"/>
</svg>
