<svg width="21" height="21" viewBox="0 0 21 21" fill="none" xmlns="http://www.w3.org/2000/svg">
<rect width="21" height="21" rx="4" fill="url(#paint0_linear_291_311)"/>
<path d="M10.662 10.3267C9.74136 10.3267 8.99536 9.58068 8.99536 8.66001C8.99536 7.73935 9.74136 6.99335 10.662 6.99335C11.5827 6.99335 12.3287 7.73935 12.3287 8.66001C12.3287 9.58068 11.5827 10.3267 10.662 10.3267V10.3267Z" fill="white"/>
<path d="M10.662 4C8.09133 4 6 6.09133 6 8.662C6 11.6507 9.97867 16.5067 10.148 16.7113L10.662 17.3347L11.176 16.7113C11.3453 16.506 15.324 11.6507 15.324 8.662C15.324 6.09067 13.2327 4 10.662 4V4ZM10.662 15.2113C9.41 13.5693 7.33333 10.468 7.33333 8.662C7.33333 6.82667 8.82667 5.33333 10.662 5.33333C12.4973 5.33333 13.9907 6.82667 13.9907 8.662C13.9907 10.4653 11.914 13.568 10.662 15.2113V15.2113Z" fill="white"/>
<defs>
<linearGradient id="paint0_linear_291_311" x1="10.5" y1="0" x2="10.5" y2="21" gradientUnits="userSpaceOnUse">
<stop stop-color="#F7B801"/>
<stop offset="1" stop-color="#F18701"/>
</linearGradient>
</defs>
</svg>
