<svg width="20" height="20" viewBox="0 0 20 20" fill="none" xmlns="http://www.w3.org/2000/svg">
<rect width="20" height="20" rx="4" fill="white"/>
<path d="M0 2.99169C0 1.33943 1.34315 0 3 0H17C18.6569 0 20 1.33943 20 2.99169V16.9529C20 18.6052 18.6569 19.9446 17 19.9446H3C1.34315 19.9446 0 18.6052 0 16.9529V2.99169Z" fill="white"/>
<path d="M17 0H3C1.68571 0 0 1.61654 0 3V17C0 18.3835 1.68571 20 3 20H17C18.3143 20 20 18.3835 20 17V3C20 1.61654 18.3143 0 17 0Z" fill="url(#paint0_linear_4)"/>
<path d="M12 8.21429C12 7.62255 12.4477 7.14286 13 7.14286H14C14.5523 7.14286 15 6.66317 15 6.07143C15 5.47969 14.5523 5 14 5H13C11.3431 5 10 6.43908 10 8.21429V10.3571H9C8.44771 10.3571 8 10.8368 8 11.4286C8 12.0203 8.44771 12.5 9 12.5H10V18.9286C10 19.5203 10.4477 20 11 20C11.5523 20 12 19.5203 12 18.9286V12.5H14C14.5523 12.5 15 12.0203 15 11.4286C15 10.8368 14.5523 10.3571 14 10.3571H12V8.21429Z" fill="white"/>
<defs>
<linearGradient id="paint0_linear_4" x1="10" y1="0" x2="10" y2="21.0526" gradientUnits="userSpaceOnUse">
<stop stop-color="#F7B801"/>
<stop offset="1" stop-color="#F18701"/>
</linearGradient>
</defs>
</svg>
