<svg width="20" height="20" viewBox="0 0 20 20" fill="none" xmlns="http://www.w3.org/2000/svg">
<path d="M16 0H4C1.79086 0 0 1.79086 0 4V16C0 18.2091 1.79086 20 4 20H16C18.2091 20 20 18.2091 20 16V4C20 1.79086 18.2091 0 16 0Z" fill="url(#paint0_linear_370_128)"/>
<path d="M15 10C15 12.7614 12.7614 15 10 15C9.2889 15 8.61246 14.8516 8 14.584L6.60172 14.8749C6.29131 14.9394 5.99994 14.7024 5.99988 14.3854L5.99963 13C5.37194 12.1643 5 11.1256 5 10C5 7.23857 7.23857 5 10 5C12.7614 5 15 7.23857 15 10Z" fill="white"/>
<path d="M8.80935 8.71822L7.53568 10.7282C7.48076 10.8148 7.49009 10.9326 7.55782 11.0074C7.62435 11.0809 7.7286 11.0923 7.80688 11.0346L8.81265 10.2939C8.96407 10.1824 9.16058 10.1793 9.31492 10.2858L10.5409 11.1322C10.7498 11.2764 11.0244 11.2147 11.1656 10.9918L12.4393 8.98187C12.4942 8.89517 12.4849 8.77744 12.4172 8.70263C12.3506 8.62913 12.2464 8.61773 12.1681 8.67539L11.1624 9.41604C11.0109 9.5276 10.8144 9.53077 10.6601 9.42422L9.43411 8.5778C9.22518 8.43356 8.95063 8.49528 8.80935 8.71822Z" fill="url(#paint1_linear_370_128)"/>
<defs>
<linearGradient id="paint0_linear_370_128" x1="10" y1="0" x2="10" y2="20" gradientUnits="userSpaceOnUse">
<stop stop-color="#F7B801"/>
<stop offset="1" stop-color="#F18701"/>
</linearGradient>
<linearGradient id="paint1_linear_370_128" x1="9.9875" y1="8.5" x2="9.9875" y2="11.21" gradientUnits="userSpaceOnUse">
<stop stop-color="#F7B801"/>
<stop offset="1" stop-color="#F18701"/>
</linearGradient>
</defs>
</svg>
