<svg width="20" height="20" viewBox="0 0 20 20" fill="none" xmlns="http://www.w3.org/2000/svg">
<path d="M0 3C0 1.34315 1.34315 0 3 0H17C18.6569 0 20 1.34315 20 3V17C20 18.6569 18.6569 20 17 20H3C1.34315 20 0 18.6569 0 17V3Z" fill="white"/>
<path fill-rule="evenodd" clip-rule="evenodd" d="M6.21686 4.2936C5.20283 4.44789 4.39939 5.19093 4.22527 6.20174C4.10393 6.90623 4 7.80115 4 8.8C4 9.79885 4.10393 10.6938 4.22527 11.3982C4.37474 12.266 4.98794 12.9363 5.8 13.2064V15.2486C5.8 15.7131 6.30527 16.0014 6.70524 15.7651L10.3745 13.5969C11.703 13.5752 12.8943 13.4417 13.7831 13.3064C14.7972 13.1521 15.6006 12.4091 15.7747 11.3982C15.8961 10.6938 16 9.79885 16 8.8C16 7.80115 15.8961 6.90623 15.7747 6.20174C15.6006 5.19093 14.7972 4.44789 13.7831 4.2936C12.8115 4.14576 11.4786 4 10 4C8.52135 4 7.18847 4.14576 6.21686 4.2936Z" fill="url(#paint0_linear_370_252)"/>
<path fill-rule="evenodd" clip-rule="evenodd" d="M6.9999 7C6.66854 7 6.3999 7.26863 6.3999 7.6C6.3999 7.93137 6.66854 8.2 6.9999 8.2H12.9999C13.3313 8.2 13.5999 7.93137 13.5999 7.6C13.5999 7.26863 13.3313 7 12.9999 7H6.9999ZM6.9999 9.4C6.66854 9.4 6.3999 9.66863 6.3999 10C6.3999 10.3314 6.66854 10.6 6.9999 10.6H9.3999C9.73127 10.6 9.99988 10.3314 9.99988 10C9.99988 9.66863 9.73127 9.4 9.3999 9.4H6.9999Z" fill="white"/>
<defs>
<linearGradient id="paint0_linear_370_252" x1="10" y1="4" x2="10" y2="15.8494" gradientUnits="userSpaceOnUse">
<stop stop-color="#9B2226"/>
<stop offset="1" stop-color="#BB3E03"/>
</linearGradient>
</defs>
</svg>
