<svg width="24" height="24" viewBox="0 0 24 24" fill="none" xmlns="http://www.w3.org/2000/svg">
<path d="M12 11.5C10.619 11.5 9.5 10.381 9.5 9C9.5 7.619 10.619 6.5 12 6.5C13.381 6.5 14.5 7.619 14.5 9C14.5 10.381 13.381 11.5 12 11.5V11.5Z" fill="#F7762E"/>
<path d="M12 2.00977C8.14402 2.00977 5.00702 5.14677 5.00702 9.00277C5.00702 13.4858 10.975 20.7698 11.229 21.0768L12 22.0118L12.771 21.0768C13.025 20.7688 18.993 13.4858 18.993 9.00277C18.993 5.14577 15.856 2.00977 12 2.00977V2.00977ZM12 18.8268C10.122 16.3638 7.00702 11.7118 7.00702 9.00277C7.00702 6.24977 9.24702 4.00977 12 4.00977C14.753 4.00977 16.993 6.24977 16.993 9.00277C16.993 11.7078 13.878 16.3618 12 18.8268V18.8268Z" fill="#F7762E"/>
</svg>
