<svg width="20" height="20" viewBox="0 0 20 20" fill="none" xmlns="http://www.w3.org/2000/svg">
<g clip-path="url(#clip0_5)">
<path d="M18.6758 15.3218L17.0884 16.9092C17.0884 16.9092 12.9637 18.6769 7.07108 12.7844C1.17852 6.89183 2.94629 2.76704 2.94629 2.76704L4.53374 1.1796C5.25091 0.462416 6.43703 0.546712 7.04558 1.35811L8.56084 3.37841C9.05843 4.04195 8.99251 4.97044 8.40601 5.55693L7.07108 6.89183C7.07108 6.89183 7.07108 8.07035 9.42809 10.4273C11.7851 12.7844 12.9636 12.7843 12.9636 12.7843L14.2985 11.4495C14.885 10.863 15.8135 10.797 16.4771 11.2947L18.4973 12.8099C19.3088 13.4184 19.393 14.6045 18.6758 15.3218Z" stroke="#F7762E" stroke-width="1.5"/>
</g>
<defs>
<clipPath id="clip0_5">
<rect width="20" height="20" fill="white"/>
</clipPath>
</defs>
</svg>
