<svg width="20" height="20" viewBox="0 0 20 20" fill="none" xmlns="http://www.w3.org/2000/svg">
<path d="M1.80531 6.66275C1.90376 5.39987 2.89966 4.41189 4.16395 4.3336C5.51619 4.24986 7.44676 4.16699 9.79169 4.16699C12.1366 4.16699 14.0672 4.24986 15.4194 4.3336C16.6837 4.41189 17.6796 5.39987 17.7781 6.66275C17.8513 7.60274 17.9167 8.6912 17.9167 9.58366C17.9167 10.4761 17.8513 11.5646 17.7781 12.5046C17.6796 13.7674 16.6837 14.7554 15.4194 14.8337C14.0672 14.9175 12.1366 15.0003 9.79169 15.0003C7.44676 15.0003 5.51619 14.9175 4.16395 14.8337C2.89966 14.7554 1.90376 13.7674 1.80531 12.5046C1.73204 11.5646 1.66669 10.4761 1.66669 9.58366C1.66669 8.6912 1.73204 7.60274 1.80531 6.66275Z" stroke="#F7762E" stroke-width="1.5"/>
<path d="M9.4375 10.4241V8.74448L10.6973 9.5843L9.4375 10.4241Z" fill="#F7762E" stroke="#F7762E" stroke-width="2"/>
</svg>
