<svg width="20" height="20" viewBox="0 0 20 20" fill="none" xmlns="http://www.w3.org/2000/svg">
<path d="M0 3C0 1.34315 1.34315 0 3 0H17C18.6569 0 20 1.34315 20 3V17C20 18.6569 18.6569 20 17 20H3C1.34315 20 0 18.6569 0 17V3Z" fill="url(#paint0_linear_370_136)"/>
<path d="M14.9737 14.0481L13.8835 15.1384C13.8835 15.1384 11.0506 16.3525 7.00362 12.3055C2.95664 8.25849 4.17073 5.4256 4.17073 5.4256L5.26099 4.33535C5.75354 3.84279 6.56816 3.90069 6.98611 4.45795L8.02679 5.84549C8.36853 6.3012 8.32326 6.93888 7.92045 7.34169L7.00362 8.25849C7.00362 8.25849 7.00362 9.06789 8.62241 10.6867C10.2412 12.3055 11.0506 12.3054 11.0506 12.3054L11.9674 11.3887C12.3702 10.9859 13.0079 10.9406 13.4636 11.2824L14.8511 12.323C15.4084 12.7409 15.4663 13.5555 14.9737 14.0481Z" fill="white"/>
<path d="M5.26108 4.33529L4.98022 4.61614L7.40841 7.85373L7.92055 7.34162C8.3233 6.93883 8.36862 6.30114 8.02683 5.84543L6.9862 4.45789C6.56825 3.90062 5.75364 3.84273 5.26108 4.33529Z" fill="white"/>
<path d="M14.9737 14.0476L14.6929 14.3285L11.4553 11.9003L11.9675 11.3882C12.3702 10.9854 13.0079 10.9401 13.4637 11.2818L14.8512 12.3225C15.4084 12.7405 15.4663 13.5551 14.9737 14.0476Z" fill="white"/>
<defs>
<linearGradient id="paint0_linear_370_136" x1="10" y1="0" x2="10" y2="20" gradientUnits="userSpaceOnUse">
<stop stop-color="#94D2BD"/>
<stop offset="1" stop-color="#0A9396"/>
</linearGradient>
</defs>
</svg>
