<svg width="20" height="20" viewBox="0 0 20 20" fill="none" xmlns="http://www.w3.org/2000/svg">
<path d="M6.30028 18.4806L6.08125 18.3849L5.84724 18.4336L3.05075 19.0154C3.05072 19.0154 3.0507 19.0154 3.05068 19.0154C2.89545 19.0477 2.7498 18.9291 2.74977 18.7707L2.74927 15.9999L2.74922 15.7496L2.59894 15.5496C1.43777 14.0037 0.75 12.0832 0.75 10C0.75 4.89136 4.89136 0.75 10 0.75C15.1086 0.75 19.25 4.89137 19.25 10C19.25 15.1086 15.1086 19.25 10 19.25C8.68308 19.25 7.43229 18.9752 6.30028 18.4806Z" stroke="#9B2226" stroke-width="1.5"/>
<path d="M7.6187 7.43645L5.07137 11.4563C4.96151 11.6296 4.98018 11.8651 5.11563 12.0148C5.2487 12.1618 5.45719 12.1845 5.61377 12.0692L7.62529 10.5879C7.92815 10.3649 8.32117 10.3585 8.62984 10.5716L11.0818 12.2644C11.4996 12.5529 12.0487 12.4294 12.3313 11.9836L14.8786 7.96373C14.9885 7.79033 14.9698 7.55488 14.8344 7.40526C14.7013 7.25827 14.4928 7.23546 14.3362 7.35077L12.3247 8.83207C12.0219 9.05519 11.6288 9.06153 11.3202 8.84844L8.86822 7.1556C8.45036 6.86713 7.90125 6.99056 7.6187 7.43645Z" fill="#9B2226"/>
</svg>
