<svg width="21" height="21" viewBox="0 0 21 21" fill="none" xmlns="http://www.w3.org/2000/svg">
<rect width="21" height="21" rx="4" fill="url(#paint0_linear_369_91)"/>
<path d="M10.5 16C13.5376 16 16 13.5376 16 10.5C16 7.46243 13.5376 5 10.5 5C7.46243 5 5 7.46243 5 10.5C5 13.5376 7.46243 16 10.5 16Z" fill="white"/>
<path d="M12.7272 15.5303C12.5667 15.6015 12.3878 15.4944 12.3604 15.321C12.1615 14.0618 11.8527 12.907 11.4321 11.8106C10.3469 12.3367 9.13731 13.2434 7.49722 14.8369C7.4019 14.9295 7.25363 14.9422 7.14831 14.8611C6.98788 14.7377 6.83445 14.6055 6.68873 14.4654C6.58093 14.3618 6.58461 14.1901 6.69171 14.0858C8.40885 12.4129 9.74006 11.3986 11.0038 10.7961C10.8357 10.4316 10.6544 10.0722 10.4598 9.71621C8.98412 10.1813 7.31055 10.436 5.2801 10.4894C5.12636 10.4934 4.99936 10.3692 5.00718 10.2156C5.01764 10.0103 5.03936 9.80789 5.07174 9.60912C5.09239 9.48235 5.20273 9.3913 5.33112 9.38756C7.13451 9.33497 8.60739 9.11675 9.88889 8.74025C9.32115 7.82932 8.66384 6.92919 7.91554 6.0077C7.80892 5.87641 7.84306 5.68015 7.99355 5.60298C8.1787 5.50803 8.36994 5.42326 8.56652 5.34943C8.67385 5.30912 8.79414 5.34445 8.86605 5.43374C9.65745 6.41654 10.3543 7.38502 10.9552 8.37438C12.0711 7.93332 13.0676 7.34712 14.0556 6.60833C14.163 6.528 14.3132 6.53428 14.4076 6.62958C14.5499 6.77316 14.6842 6.92454 14.81 7.08301C14.9021 7.19899 14.8773 7.36675 14.759 7.45577C13.735 8.22612 12.6851 8.85598 11.5061 9.33844C11.6915 9.6848 11.8655 10.035 12.028 10.3904C13.2034 10.018 14.3614 9.96041 15.723 9.95155C15.8646 9.95062 15.9843 10.058 15.9919 10.1994C15.9972 10.2989 15.9999 10.3991 15.9999 10.5C15.9999 10.6018 15.9972 10.7029 15.9917 10.8033C15.9841 10.9441 15.8655 11.0509 15.7245 11.052C14.4268 11.0614 13.4357 11.1143 12.4562 11.4092C12.8834 12.521 13.2043 13.6936 13.4172 14.9669C13.4353 15.075 13.3867 15.1837 13.2923 15.2394C13.1105 15.3468 12.9218 15.4441 12.7272 15.5303Z" fill="url(#paint1_linear_369_91)"/>
<defs>
<linearGradient id="paint0_linear_369_91" x1="10.5" y1="0" x2="10.5" y2="21" gradientUnits="userSpaceOnUse">
<stop stop-color="#ADE8F4"/>
<stop offset="1" stop-color="#46B7CE"/>
</linearGradient>
<linearGradient id="paint1_linear_369_91" x1="10.5034" y1="5.33289" x2="10.5034" y2="15.5526" gradientUnits="userSpaceOnUse">
<stop stop-color="#ADE8F4"/>
<stop offset="1" stop-color="#46B7CE"/>
</linearGradient>
</defs>
</svg>
