<svg width="20" height="20" viewBox="0 0 20 20" fill="none" xmlns="http://www.w3.org/2000/svg">
<rect width="20" height="20" rx="4" fill="url(#paint0_linear_367_38)"/>
<path d="M10 15C12.7614 15 15 12.7614 15 10C15 7.23858 12.7614 5 10 5C7.23858 5 5 7.23858 5 10C5 12.7614 7.23858 15 10 15Z" fill="white"/>
<path d="M8.34365 14.8262C8.22302 14.7812 8.16025 14.6494 8.19467 14.5246L9.62399 9.34176C9.69955 9.06769 9.98136 8.90727 10.2534 8.98339C10.5255 9.05951 10.6847 9.34336 10.6092 9.61737L10.0712 11.5683C10.7108 11.7048 11.1593 11.5881 11.4597 11.3881C11.8395 11.1352 12.0835 10.6824 12.1446 10.1448C12.2058 9.60661 12.075 9.04195 11.7761 8.62369C11.4881 8.22075 11.0333 7.93466 10.3722 7.93466C9.39014 7.93466 8.80556 8.36273 8.52038 8.88934C8.22354 9.43749 8.21399 10.1599 8.52883 10.7942C8.6551 11.0486 8.55273 11.3579 8.30018 11.4851C8.04763 11.6123 7.74053 11.5092 7.61426 11.2548C7.16222 10.3441 7.15267 9.26415 7.62272 8.39615C8.10444 7.50659 9.05366 6.90472 10.3722 6.90472C11.3727 6.90472 12.1321 7.3589 12.606 8.022C13.0689 8.66982 13.2475 9.49697 13.1605 10.2619C13.0735 11.0274 12.7118 11.789 12.0235 12.2473C11.4361 12.6384 10.6796 12.7635 9.7972 12.5618L9.17592 14.8146C9.14008 14.9445 9.01072 15.0253 8.88084 14.9928C8.69769 14.947 8.51842 14.8913 8.34365 14.8262Z" fill="url(#paint1_linear_367_38)"/>
<defs>
<linearGradient id="paint0_linear_367_38" x1="10" y1="0" x2="10" y2="20" gradientUnits="userSpaceOnUse">
<stop stop-color="#ADE8F4"/>
<stop offset="1" stop-color="#46B7CE"/>
</linearGradient>
<linearGradient id="paint1_linear_367_38" x1="10.2273" y1="6.90472" x2="10.2273" y2="15" gradientUnits="userSpaceOnUse">
<stop stop-color="#ADE8F4"/>
<stop offset="1" stop-color="#46B7CE"/>
</linearGradient>
</defs>
</svg>
