<svg width="20" height="20" viewBox="0 0 20 20" fill="none" xmlns="http://www.w3.org/2000/svg">
<rect width="20" height="20" rx="4" fill="url(#paint0_linear_1)"/>
<path d="M16.1705 7.125C16.5177 12.3333 12.6983 16.5 7.83717 16.5C6.16223 16.5 4.4873 16.2756 3.17323 15.6462C2.87228 15.5022 2.98992 15.1007 3.32287 15.0786C4.94098 14.9713 6.28002 14.5849 7.14273 13.7222C9.22618 11.6389 9.57333 10.9444 10.1043 8.18331C9.98534 7.85281 9.92048 7.49647 9.92048 7.125C9.92048 5.39911 11.3197 4 13.0455 4C14.0998 4 15.0322 4.5221 15.5981 5.32185L16.7906 5.15149C17.0877 5.10905 17.2951 5.4381 17.1286 5.68783L16.1705 7.125Z" fill="white"/>
<path d="M7.14275 13.7222C3.38136 12.4683 2.73254 7.81902 3.40822 5.39381C3.48756 5.10904 3.85779 5.10756 4.00702 5.36274C5.16082 7.33583 7.35469 8.43744 10.1043 8.18323C14.4344 8.18323 13.3928 15.8055 7.14275 13.7222Z" fill="white"/>
<defs>
<linearGradient id="paint0_linear_1" x1="10" y1="0" x2="10" y2="20" gradientUnits="userSpaceOnUse">
<stop stop-color="#ADE8F4"/>
<stop offset="1" stop-color="#46B7CE"/>
</linearGradient>
</defs>
</svg>
