<svg width="20" height="20" viewBox="0 0 20 20" fill="none" xmlns="http://www.w3.org/2000/svg">
<rect width="20" height="20" rx="4" fill="url(#paint0_linear_1)"/>
<path d="M3.12583 7.26538C3.21519 6.11908 4.11916 5.22229 5.26674 5.15122C6.49416 5.07522 8.24653 5 10.375 5C12.5035 5 14.2558 5.07522 15.4832 5.15122C16.6308 5.22229 17.5348 6.11908 17.6242 7.26538C17.6907 8.1186 17.75 9.10658 17.75 9.91667C17.75 10.7267 17.6907 11.7148 17.6242 12.568C17.5348 13.7142 16.6308 14.611 15.4832 14.6821C14.2558 14.7581 12.5035 14.8333 10.375 14.8333C8.24653 14.8333 6.49416 14.7581 5.26674 14.6821C4.11916 14.611 3.21519 13.7142 3.12583 12.568C3.05932 11.7148 3 10.7267 3 9.91667C3 9.10658 3.05932 8.1186 3.12583 7.26538Z" fill="white"/>
<path d="M10.1013 8.09555L12.0663 9.40552C12.4312 9.64877 12.4312 10.185 12.0663 10.4282L10.1013 11.7382C9.69293 12.0105 9.14583 11.7177 9.14583 11.2268V8.60691C9.14583 8.11604 9.69293 7.82326 10.1013 8.09555Z" fill="url(#paint1_linear_1)"/>
<defs>
<linearGradient id="paint0_linear_1" x1="10" y1="0" x2="10" y2="20" gradientUnits="userSpaceOnUse">
<stop stop-color="#ADE8F4"/>
<stop offset="1" stop-color="#46B7CE"/>
</linearGradient>
<linearGradient id="paint1_linear_1" x1="10.7429" y1="7.99129" x2="10.7429" y2="11.8425" gradientUnits="userSpaceOnUse">
<stop stop-color="#ADE8F4"/>
<stop offset="1" stop-color="#46B7CE"/>
</linearGradient>
</defs>
</svg>
