<svg width="26" height="25" viewBox="0 0 26 25" fill="none" xmlns="http://www.w3.org/2000/svg">
<path fill-rule="evenodd" clip-rule="evenodd" d="M18 2.5H8C5.23858 2.5 3 4.73858 3 7.5V17.5C3 20.2614 5.23858 22.5 8 22.5H18C20.7614 22.5 23 20.2614 23 17.5V7.5C23 4.73858 20.7614 2.5 18 2.5ZM8 0C3.85786 0 0.5 3.35786 0.5 7.5V17.5C0.5 21.6421 3.85786 25 8 25H18C22.1421 25 25.5 21.6421 25.5 17.5V7.5C25.5 3.35786 22.1421 0 18 0H8Z" fill="#252429"/>
<path d="M19.25 7.5C19.9404 7.5 20.5 6.94036 20.5 6.25C20.5 5.55964 19.9404 5 19.25 5C18.5596 5 18 5.55964 18 6.25C18 6.94036 18.5596 7.5 19.25 7.5Z" fill="#252429"/>
<path fill-rule="evenodd" clip-rule="evenodd" d="M19.25 12.5C19.25 15.9518 16.4518 18.75 13 18.75C9.54822 18.75 6.75 15.9518 6.75 12.5C6.75 9.04822 9.54822 6.25 13 6.25C16.4518 6.25 19.25 9.04822 19.25 12.5ZM16.75 12.5C16.75 14.5711 15.0711 16.25 13 16.25C10.9289 16.25 9.25 14.5711 9.25 12.5C9.25 10.4289 10.9289 8.75 13 8.75C15.0711 8.75 16.75 10.4289 16.75 12.5Z" fill="#252429"/>
</svg>
