<svg width="18" height="23" viewBox="0 0 18 23" fill="none" xmlns="http://www.w3.org/2000/svg">
<path fill-rule="evenodd" clip-rule="evenodd" d="M5.99858 9.45753C6.02798 10.009 5.60474 10.4799 5.05324 10.5093C4.30055 10.5495 3.7044 10.5986 3.23854 10.6477C2.61292 10.7137 2.23278 11.098 2.16959 11.6507C2.07886 12.4444 2 13.6454 2 15.4177C2 17.1899 2.07886 18.391 2.16959 19.1846C2.23289 19.7383 2.61207 20.1215 3.23675 20.1875C4.33078 20.3029 6.13925 20.4177 9 20.4177C11.8608 20.4177 13.6692 20.3029 14.7632 20.1875C15.3879 20.1215 15.7671 19.7383 15.8304 19.1846C15.9211 18.391 16 17.1899 16 15.4177C16 13.6454 15.9211 12.4444 15.8304 11.6507C15.7672 11.098 15.3871 10.7137 14.7615 10.6477C14.2956 10.5986 13.6995 10.5495 12.9468 10.5093C12.3953 10.4799 11.972 10.009 12.0014 9.45753C12.0308 8.90603 12.5017 8.48278 13.0532 8.51219C13.8361 8.55392 14.4669 8.60553 14.9712 8.65872C16.4556 8.81527 17.6397 9.86837 17.8175 11.4236C17.9188 12.31 18 13.5892 18 15.4177C18 17.2462 17.9188 18.5254 17.8175 19.4118C17.6398 20.966 16.4585 22.0197 14.9732 22.1764C13.7919 22.3011 11.9108 22.4177 9 22.4177C6.08922 22.4177 4.20806 22.3011 3.02684 22.1764C1.54151 22.0197 0.360208 20.966 0.182529 19.4118C0.081204 18.5254 0 17.2462 0 15.4177C0 13.5892 0.0812039 12.31 0.182529 11.4236C0.360314 9.86837 1.54436 8.81527 3.02877 8.65872C3.53306 8.60553 4.16393 8.55392 4.94676 8.51219C5.49827 8.48278 5.96918 8.90603 5.99858 9.45753Z" fill="#12131A"/>
<path fill-rule="evenodd" clip-rule="evenodd" d="M6.20711 5.62508C5.81658 6.0156 5.18342 6.0156 4.79289 5.62508C4.40237 5.23455 4.40237 4.60139 4.79289 4.21086L8.29289 0.710862C8.68342 0.320338 9.31658 0.320338 9.70711 0.710862L13.2071 4.21086C13.5976 4.60139 13.5976 5.23455 13.2071 5.62508C12.8166 6.0156 12.1834 6.0156 11.7929 5.62508L10 3.83218V13.418C10 13.9703 9.55228 14.418 9 14.418C8.44772 14.418 8 13.9703 8 13.418L8 3.83218L6.20711 5.62508Z" fill="#12131A"/>
</svg>
