<svg width="25" height="37" viewBox="0 0 25 37" fill="none" xmlns="http://www.w3.org/2000/svg">
<path fill-rule="evenodd" clip-rule="evenodd" d="M18.7628 0.760742H6.69827C3.36675 0.760742 0.666016 3.42814 0.666016 6.71853V30.5497C0.666016 33.8401 3.36675 36.5075 6.69827 36.5075H18.7628C22.0943 36.5075 24.795 33.8401 24.795 30.5497V6.71853C24.795 3.42813 22.0943 0.760742 18.7628 0.760742ZM4.68752 6.71853C4.68752 5.62173 5.58777 4.7326 6.69827 4.7326H18.7628C19.8733 4.7326 20.7735 5.62173 20.7735 6.71853V30.5497C20.7735 31.6465 19.8733 32.5356 18.7628 32.5356H6.69827C5.58777 32.5356 4.68752 31.6465 4.68752 30.5497V6.71853ZM10.7198 24.5919C9.60927 24.5919 8.70903 25.481 8.70903 26.5778C8.70903 27.6746 9.60927 28.5637 10.7198 28.5637H14.7413C15.8518 28.5637 16.752 27.6746 16.752 26.5778C16.752 25.481 15.8518 24.5919 14.7413 24.5919H10.7198Z" fill="#777777"/>
</svg>
