<svg xmlns="http://www.w3.org/2000/svg" x="0px" y="0px"
width="50" height="50"
viewBox="0 0 172 172"
style=" fill:#fff;"><g fill="none" fill-rule="nonzero" stroke="none" stroke-width="1" stroke-linecap="butt" stroke-linejoin="miter" stroke-miterlimit="10" stroke-dasharray="" stroke-dashoffset="0" font-family="none" font-weight="none" font-size="none" text-anchor="none" style="mix-blend-mode: normal"><path d="M0,172v-172h172v172z" fill="none"></path><g fill="#fff"><path d="M68.585,44.6125c-1.80062,0.06719 -3.49375,0.84656 -4.73,2.15l-33.97,34.4l-4.73,4.8375l4.73,4.8375l33.97,34.4c2.67406,2.72781 7.05469,2.78156 9.7825,0.1075c2.72781,-2.67406 2.78156,-7.05469 0.1075,-9.7825l-22.4675,-22.6825h86.3225c2.48594,0.04031 4.78375,-1.26312 6.03344,-3.41312c1.26313,-2.13656 1.26313,-4.79719 0,-6.93375c-1.24969,-2.15 -3.5475,-3.45344 -6.03344,-3.41313h-86.3225l22.4675,-22.6825c2.06938,-2.00219 2.6875,-5.06594 1.53188,-7.71312c-1.15563,-2.63375 -3.81625,-4.27313 -6.69188,-4.11188z"></path></g></g></svg>