<svg width="490" height="246" viewBox="0 0 490 246" fill="none" xmlns="http://www.w3.org/2000/svg">
<path d="M244.5 1V245.5C176.985 245.5 122.25 190.76 122.25 123.25V1H244.5Z" fill="#00E99F"/>
<path d="M0 1V245.5C67.515 245.5 122.25 190.76 122.25 123.25V1H0Z" fill="#00E99F"/>
<path d="M488.5 1H244V245.5H488.5V1Z" fill="#00E99F"/>
<path d="M244 244.5C311.515 244.5 366.25 189.765 366.25 122.25C366.25 54.7354 311.515 0 244 0V244.5Z" fill="white"/>
<path d="M489.25 245.5C421.735 245.5 367 190.765 367 123.25C367 55.7354 421.735 1 489.25 1V245.5Z" fill="white"/>
</svg>
