<svg width="25" height="25" viewBox="0 0 25 25" fill="none" xmlns="http://www.w3.org/2000/svg">
<path fill-rule="evenodd" clip-rule="evenodd" d="M12.5 22.5C18.0228 22.5 22.5 18.0228 22.5 12.5C22.5 6.97715 18.0228 2.5 12.5 2.5C6.97715 2.5 2.5 6.97715 2.5 12.5C2.5 18.0228 6.97715 22.5 12.5 22.5ZM12.5 25C19.4036 25 25 19.4036 25 12.5C25 5.59644 19.4036 0 12.5 0C5.59644 0 0 5.59644 0 12.5C0 19.4036 5.59644 25 12.5 25Z" fill="#F05C35"/>
<path d="M12.5 10C12.5 9.30964 13.0596 8.75 13.75 8.75H15C15.6904 8.75 16.25 8.19036 16.25 7.5C16.25 6.80964 15.6904 6.25 15 6.25H13.75C11.6789 6.25 10 7.92893 10 10V12.5H8.75C8.05964 12.5 7.5 13.0596 7.5 13.75C7.5 14.4404 8.05964 15 8.75 15H10V22.5C10 23.1904 10.5596 23.75 11.25 23.75C11.9404 23.75 12.5 23.1904 12.5 22.5V15H15C15.6904 15 16.25 14.4404 16.25 13.75C16.25 13.0596 15.6904 12.5 15 12.5H12.5V10Z" fill="#F05C35"/>
</svg>
