<svg width="28" height="29" viewBox="0 0 28 29" fill="none" xmlns="http://www.w3.org/2000/svg">
<path opacity="0.25" d="M0.63214 5.94553C1.00579 3.38749 2.96952 1.42376 5.52756 1.05011C7.7592 0.724131 10.7265 0.417969 14 0.417969C17.2735 0.417969 20.2408 0.724131 22.4724 1.05011C25.0305 1.42376 26.9942 3.38749 27.3679 5.94553C27.6938 8.17717 28 11.1445 28 14.418C28 17.6915 27.6938 20.6588 27.3679 22.8904C26.9942 25.4484 25.0305 27.4122 22.4724 27.7858C20.2408 28.1118 17.2735 28.418 14 28.418C10.7265 28.418 7.7592 28.1118 5.52756 27.7858C2.96952 27.4122 1.00579 25.4484 0.63214 22.8904C0.306162 20.6588 0 17.6915 0 14.418C0 11.1445 0.306163 8.17717 0.63214 5.94553Z" fill="white"/>
<path d="M8.4002 11.6176C9.94659 11.6176 11.2002 10.364 11.2002 8.81758C11.2002 7.27118 9.94659 6.01758 8.4002 6.01758C6.8538 6.01758 5.6002 7.27118 5.6002 8.81758C5.6002 10.364 6.8538 11.6176 8.4002 11.6176Z" fill="white"/>
<path d="M27.5301 21.6998C27.5835 21.276 27.4349 20.8525 27.1328 20.5504L21.5802 14.9977C20.4867 13.9043 18.7139 13.9043 17.6204 14.9977L13.5902 19.0279C13.0435 19.5746 12.1571 19.5746 11.6103 19.0279L10.3802 17.7977C9.28671 16.7043 7.51385 16.7043 6.42038 17.7977L1.30691 22.9112C0.959436 23.2587 0.807561 23.7682 0.989628 24.2246C1.74234 26.1116 3.43647 27.4799 5.52784 27.7854C7.75947 28.1114 10.7268 28.4176 14.0003 28.4176C17.2738 28.4176 20.2411 28.1114 22.4727 27.7854C25.0308 27.4118 26.9945 25.4481 27.3681 22.89C27.4231 22.5135 27.4776 22.1161 27.5301 21.6998Z" fill="white"/>
</svg>
