<svg width="22" height="28" viewBox="0 0 22 28" fill="none" xmlns="http://www.w3.org/2000/svg">
<path fill-rule="evenodd" clip-rule="evenodd" d="M7.4183 11.7649C7.45377 12.4303 6.9431 12.9985 6.27768 13.034C5.36952 13.0824 4.65023 13.1416 4.08814 13.2009C3.3333 13.2805 2.87464 13.7442 2.7984 14.4111C2.68893 15.3687 2.59378 16.8179 2.59378 18.9562C2.59378 21.0945 2.68893 22.5436 2.7984 23.5012C2.87477 24.1693 3.33227 24.6316 4.08599 24.7112C5.406 24.8505 7.58802 24.989 11.0397 24.989C14.4913 24.989 16.6734 24.8505 17.9934 24.7112C18.7471 24.6316 19.2046 24.1693 19.281 23.5012C19.3904 22.5436 19.4856 21.0945 19.4856 18.9562C19.4856 16.8179 19.3904 15.3687 19.281 14.4111C19.2047 13.7442 18.7461 13.2805 17.9912 13.2009C17.4291 13.1416 16.7098 13.0824 15.8017 13.034C15.1363 12.9985 14.6256 12.4303 14.6611 11.7649C14.6965 11.0995 15.2647 10.5888 15.9301 10.6243C16.8747 10.6747 17.6359 10.7369 18.2443 10.8011C20.0353 10.99 21.464 12.2606 21.6785 14.1371C21.8007 15.2065 21.8987 16.75 21.8987 18.9562C21.8987 21.1623 21.8007 22.7058 21.6785 23.7753C21.4641 25.6506 20.0388 26.9218 18.2466 27.111C16.8214 27.2614 14.5517 27.4021 11.0397 27.4021C7.52765 27.4021 5.25793 27.2614 3.83271 27.111C2.04058 26.9218 0.615275 25.6506 0.400896 23.7753C0.278641 22.7058 0.180664 21.1623 0.180664 18.9562C0.180664 16.75 0.278641 15.2065 0.400895 14.1371C0.615404 12.2606 2.04402 10.99 3.83505 10.8011C4.4435 10.7369 5.20468 10.6747 6.14922 10.6243C6.81464 10.5888 7.38282 11.0995 7.4183 11.7649Z" fill="white"/>
<path fill-rule="evenodd" clip-rule="evenodd" d="M7.66983 7.14107C7.19864 7.61226 6.43469 7.61226 5.9635 7.14107C5.49231 6.66988 5.49231 5.90593 5.9635 5.43474L10.1865 1.21179C10.6576 0.740601 11.4216 0.740601 11.8928 1.21179L16.1157 5.43474C16.5869 5.90593 16.5869 6.66988 16.1157 7.14107C15.6445 7.61226 14.8806 7.61226 14.4094 7.14107L12.2462 4.97784V16.5436C12.2462 17.21 11.706 17.7502 11.0396 17.7502C10.3733 17.7502 9.83306 17.21 9.83306 16.5436V4.97784L7.66983 7.14107Z" fill="white"/>
</svg>
