<svg width="30" height="30" viewBox="0 0 30 30" fill="none" xmlns="http://www.w3.org/2000/svg">
<path d="M12.12 16.5603C12.03 16.5603 10.05 16.5603 9.15002 16.5603C8.67002 16.5603 8.52002 16.3803 8.52002 15.9303C8.52002 14.7303 8.52002 13.5003 8.52002 12.3003C8.52002 11.8203 8.70002 11.6703 9.15002 11.6703H12.12C12.12 11.5803 12.12 9.84027 12.12 9.03027C12.12 7.83027 12.33 6.69027 12.93 5.64027C13.56 4.56027 14.46 3.84027 15.6 3.42027C16.35 3.15027 17.1 3.03027 17.91 3.03027H20.85C21.27 3.03027 21.45 3.21027 21.45 3.63027V7.05027C21.45 7.47027 21.27 7.65027 20.85 7.65027C20.04 7.65027 19.23 7.65027 18.42 7.68027C17.61 7.68027 17.19 8.07027 17.19 8.91027C17.16 9.81027 17.19 10.6803 17.19 11.6103H20.67C21.15 11.6103 21.33 11.7903 21.33 12.2703V15.9003C21.33 16.3803 21.18 16.5303 20.67 16.5303C19.59 16.5303 17.28 16.5303 17.19 16.5303V26.3103C17.19 26.8203 17.04 27.0003 16.5 27.0003C15.24 27.0003 14.01 27.0003 12.75 27.0003C12.3 27.0003 12.12 26.8203 12.12 26.3703C12.12 23.2203 12.12 16.6503 12.12 16.5603Z" fill="white" fill-opacity="0.4"/>
</svg>
