<svg width="30" height="30" viewBox="0 0 30 30" fill="none" xmlns="http://www.w3.org/2000/svg">
<g clip-path="url(#clip0_212_9095)">
<path d="M15 0C6.71625 0 0 6.2175 0 13.8881C0 18.2588 2.18062 22.1569 5.58937 24.7031V30L10.6969 27.1969C12.06 27.5738 13.5038 27.7781 15 27.7781C23.2838 27.7781 30 21.5606 30 13.89C30 6.21937 23.2838 0 15 0ZM16.4906 18.7031L12.6712 14.6288L5.21812 18.7031L13.4175 9.99938L17.3306 14.0738L24.69 9.99938L16.4906 18.7031Z" fill="white" fill-opacity="0.4"/>
<path d="M13.5 10L4 19.5L13 15L16.5 19L25.5 9.5L17.5 14L13.5 10Z" fill="white"/>
</g>
<defs>
<clipPath id="clip0_212_9095">
<rect width="30" height="30" fill="white"/>
</clipPath>
</defs>
</svg>
