<svg width="30" height="25" viewBox="0 0 30 25" fill="none" xmlns="http://www.w3.org/2000/svg">
<path opacity="0.4" d="M5 25H25C28.3333 25 30 23.3333 30 20V5C30 1.66667 28.3333 0 25 0H5C1.66667 0 0 1.66667 0 5V20C0 23.3333 1.66667 25 5 25Z" fill="white"/>
<path d="M15 14.19C14.4 14.19 13.7966 14.0033 13.2849 13.6316L5.09847 7.67664C4.54014 7.27164 4.41674 6.4883 4.8234 5.92996C5.2284 5.3733 6.00649 5.24664 6.56982 5.65498L14.7567 11.6083C14.9033 11.7133 15.0983 11.715 15.245 11.6083L23.4318 5.65498C23.9935 5.24664 24.7732 5.3733 25.1782 5.92996C25.5849 6.4883 25.4615 7.26997 24.9032 7.67664L16.7167 13.63C16.2034 14.005 15.6 14.19 15 14.19Z" fill="white"/>
</svg>
