<svg width="30" height="30" viewBox="0 0 30 30" fill="none" xmlns="http://www.w3.org/2000/svg">
<path fill-rule="evenodd" clip-rule="evenodd" d="M24.9486 5.01011C22.3174 2.37579 18.8181 0.924397 15.0901 0.922852C7.40828 0.922852 1.15637 7.17459 1.15328 14.8585C1.15225 17.3148 1.79392 19.7126 3.01357 21.8261L1.03638 29.0479L8.42451 27.1098C10.4602 28.2203 12.7521 28.8055 15.0845 28.8062H15.0903C22.7713 28.8062 29.0239 22.5539 29.0268 14.8697C29.0283 11.1456 27.58 7.64425 24.9486 5.01011ZM15.0901 26.4525H15.0853C13.0068 26.4516 10.9684 25.8931 9.18961 24.8379L8.7668 24.5867L4.38257 25.7368L5.55279 21.4623L5.27727 21.0241C4.1177 19.1797 3.50538 17.048 3.50641 14.8594C3.50882 8.47269 8.70535 3.27667 15.0948 3.27667C18.1888 3.2777 21.0972 4.48414 23.2842 6.67368C25.4712 8.86322 26.6749 11.7736 26.6738 14.8688C26.6711 21.256 21.4749 26.4525 15.0901 26.4525ZM21.444 17.7769C21.0959 17.6025 19.3837 16.7603 19.0644 16.6439C18.7455 16.5277 18.513 16.4699 18.2811 16.8184C18.0489 17.1668 17.3816 17.9513 17.1784 18.1836C16.9751 18.416 16.7722 18.4452 16.4239 18.2708C16.0756 18.0965 14.9537 17.7287 13.6234 16.5423C12.5883 15.619 11.8895 14.4786 11.6862 14.1301C11.4833 13.7813 11.6845 13.611 11.839 13.4195C12.216 12.9513 12.5935 12.4606 12.7095 12.2283C12.8257 11.9959 12.7675 11.7924 12.6803 11.6182C12.5935 11.444 11.897 9.72994 11.6069 9.03248C11.324 8.35373 11.0372 8.4454 10.8233 8.43475C10.6204 8.42463 10.3881 8.42257 10.1559 8.42257C9.9238 8.42257 9.54649 8.5096 9.2272 8.85841C8.90808 9.20706 8.00858 10.0494 8.00858 11.7634C8.00858 13.4775 9.25638 15.1333 9.43045 15.3658C9.60451 15.5982 11.8861 19.1155 15.3792 20.6237C16.21 20.9829 16.8586 21.1969 17.3645 21.3574C18.1987 21.6225 18.9577 21.585 19.5578 21.4954C20.2269 21.3954 21.6179 20.6529 21.9083 19.8396C22.1984 19.0261 22.1984 18.329 22.1112 18.1836C22.0244 18.0383 21.7921 17.9513 21.444 17.7769Z" fill="white" fill-opacity="0.4"/>
</svg>
