<svg width="20" height="20" viewBox="0 0 20 20" fill="none" xmlns="http://www.w3.org/2000/svg">
<path d="M16.1905 0H3.80952C1.70558 0 0 1.70558 0 3.80952V16.1905C0 18.2944 1.70558 20 3.80952 20H16.1905C18.2944 20 20 18.2944 20 16.1905V3.80952C20 1.70558 18.2944 0 16.1905 0Z" fill="url(#paint0_linear_370_163)"/>
<path d="M9.71429 15.4286C12.8702 15.4286 15.4286 12.8702 15.4286 9.71429C15.4286 6.55837 12.8702 4 9.71429 4C6.55837 4 4 6.55837 4 9.71429C4 12.8702 6.55837 15.4286 9.71429 15.4286Z" fill="white"/>
<path d="M12.0212 14.9405C11.8544 15.0145 11.6685 14.9032 11.6401 14.7231C11.4334 13.4148 11.1126 12.215 10.6756 11.0759C9.54812 11.6225 8.2914 12.5645 6.58741 14.2201C6.48838 14.3163 6.33433 14.3295 6.22491 14.2453C6.05823 14.1171 5.89882 13.9797 5.74742 13.8342C5.63542 13.7265 5.63924 13.5481 5.75052 13.4398C7.53456 11.7017 8.91763 10.6479 10.2306 10.0219C10.056 9.64319 9.8676 9.26979 9.66542 8.89993C8.13224 9.38314 6.39347 9.64776 4.28391 9.70324C4.12418 9.7074 3.99223 9.57836 4.00036 9.41878C4.01122 9.20548 4.03379 8.99518 4.06743 8.78867C4.08889 8.65696 4.20352 8.56236 4.33692 8.55848C6.21057 8.50384 7.74083 8.27711 9.07226 7.88595C8.4824 6.93953 7.79948 6.00433 7.02203 5.04693C6.91126 4.91053 6.94673 4.70662 7.10308 4.62645C7.29544 4.5278 7.49413 4.43972 7.69837 4.36302C7.80988 4.32114 7.93486 4.35784 8.00957 4.45061C8.83181 5.4717 9.55581 6.47792 10.1801 7.50582C11.3395 7.04758 12.3748 6.43854 13.4013 5.67096C13.5129 5.5875 13.669 5.59403 13.767 5.69304C13.9149 5.84222 14.0544 5.99949 14.1851 6.16414C14.2808 6.28464 14.255 6.45893 14.1321 6.55142C13.0682 7.35179 11.9774 8.00619 10.7525 8.50744C10.9451 8.8673 11.1259 9.23114 11.2947 9.60039C12.5159 9.21348 13.719 9.15364 15.1337 9.14444C15.2808 9.14347 15.4052 9.25504 15.4131 9.40195C15.4186 9.50532 15.4214 9.60943 15.4214 9.71426C15.4214 9.82002 15.4186 9.92506 15.4128 10.0294C15.405 10.1757 15.2817 10.2866 15.1352 10.2878C13.787 10.2975 12.7573 10.3525 11.7396 10.6589C12.1834 11.814 12.5168 13.0323 12.738 14.3552C12.7568 14.4675 12.7064 14.5804 12.6083 14.6383C12.4194 14.7499 12.2233 14.851 12.0212 14.9405Z" fill="url(#paint1_linear_370_163)"/>
<defs>
<linearGradient id="paint0_linear_370_163" x1="10" y1="0" x2="10" y2="20" gradientUnits="userSpaceOnUse">
<stop stop-color="#FF7900"/>
<stop offset="1" stop-color="#FF5400"/>
</linearGradient>
<linearGradient id="paint1_linear_370_163" x1="9.71072" y1="4.34583" x2="9.71072" y2="14.9637" gradientUnits="userSpaceOnUse">
<stop stop-color="#FF7900"/>
<stop offset="1" stop-color="#FF5400"/>
</linearGradient>
</defs>
</svg>
