<?xml version="1.0" standalone="no"?>
<!DOCTYPE svg PUBLIC "-//W3C//DTD SVG 1.1//EN" "http://www.w3.org/Graphics/SVG/1.1/DTD/svg11.dtd" >
<svg xmlns="http://www.w3.org/2000/svg" xmlns:xlink="http://www.w3.org/1999/xlink" version="1.1">
<metadata>
Created by FontForge 20170731 at Sat May 29 09:18:25 2021
 By Aleksey,,,
Copyright (c) 2021 by atipo. All rights reserved.
</metadata>
<defs>
<font id="StrawfordLight" horiz-adv-x="599" >
  <font-face 
    font-family="Strawford Light"
    font-weight="300"
    font-stretch="normal"
    units-per-em="1000"
    panose-1="0 0 0 0 0 0 0 0 0 0"
    ascent="800"
    descent="-200"
    x-height="445"
    cap-height="700"
    bbox="-160 -300 1134 944"
    underline-thickness="50"
    underline-position="-150"
    unicode-range="U+0020-25FC"
  />
<missing-glyph 
 />
    <glyph glyph-name=".notdef" 
 />
    <glyph glyph-name=".null" horiz-adv-x="0" 
 />
    <glyph glyph-name="uni000D" horiz-adv-x="333" 
 />
    <glyph glyph-name="space" unicode=" " horiz-adv-x="275" 
 />
    <glyph glyph-name="exclam" unicode="!" horiz-adv-x="301" 
d="M169 205h-36l-14 495h63zM183 3q-13 -13 -32 -13t-32 13t-13 32t13 32t32 13t32 -13t13 -32t-13 -32z" />
    <glyph glyph-name="quotedbl" unicode="&#x22;" horiz-adv-x="295" 
d="M121 700l-15 -199h-34l-15 199h64zM238 700l-16 -199h-33l-16 199h65z" />
    <glyph glyph-name="numbersign" unicode="#" horiz-adv-x="494" 
d="M437 433v-34h-100l-23 -131h123v-34h-129l-22 -128h-33l22 128h-111l-22 -128h-33l22 128h-74v34h80l23 131h-103v34h109l22 127h33l-22 -127h111l22 127h33l-22 -127h94zM170 268h111l23 131h-111z" />
    <glyph glyph-name="dollar" unicode="$" horiz-adv-x="536" 
d="M479 175q0 -73 -52.5 -126t-142.5 -59v-90h-26v90q-76 3 -128 39.5t-73 83.5l45 30q17 -38 57.5 -67.5t98.5 -32.5v269l-30 9q-63 18 -102 60.5t-39 104.5t46.5 110.5t124.5 53.5v50h26v-50q56 -3 98 -31t64 -69l-45 -28q-34 71 -117 77v-239l34 -10q77 -22 119 -68
t42 -107zM243 371l15 -4v231q-53 -4 -84.5 -36t-31.5 -76q0 -86 101 -115zM284 305v-261q65 4 102.5 40t37.5 91q0 90 -124 125z" />
    <glyph glyph-name="percent" unicode="%" horiz-adv-x="699" 
d="M288 420q-40 -40 -96 -40t-95.5 39.5t-39.5 95.5t39.5 95.5t95.5 39.5t95.5 -39.5t39.5 -95.5t-39 -95zM193 0h-48l361 639h48zM192 421q38 0 65 27.5t27 66.5q0 38 -27 65t-65 27q-40 0 -67 -27t-27 -65q0 -40 27 -67t67 -27zM604 29q-40 -40 -96 -40t-95.5 39.5
t-39.5 95.5t39.5 95.5t95.5 39.5t95.5 -39.5t39.5 -95.5t-39 -95zM508 30q38 0 65 27.5t27 66.5q0 38 -27 65t-65 27q-40 0 -67 -27t-27 -65q0 -40 27 -67t67 -27z" />
    <glyph glyph-name="ampersand" unicode="&#x26;" horiz-adv-x="637" 
d="M213 433l411 -433h-70l-83 88q-76 -98 -198 -98q-95 0 -154 61t-59 141q0 69 37 118.5t93 75.5l-19 20q-70 74 -70 147q0 59 42.5 107.5t123.5 49.5q72 0 118.5 -48t46.5 -111q0 -79 -62 -126l-32 37q41 34 41 89q0 42 -31 76.5t-81 34.5q-52 0 -82.5 -32.5t-30.5 -76.5
q0 -57 59 -120zM275 39q98 0 161 87l-210 222q-51 -20 -82 -60t-31 -96q0 -64 47 -108.5t115 -44.5z" />
    <glyph glyph-name="quotesingle" unicode="'" horiz-adv-x="178" 
d="M106 501h-34l-15 199h64z" />
    <glyph glyph-name="parenleft" unicode="(" horiz-adv-x="445" 
d="M389 -135v-50q-35 7 -78 27t-93.5 61.5t-91 95.5t-67.5 137t-27 179t27 178.5t67.5 137t91 95.5t93.5 61.5t78 27.5v-50q-23 -5 -51.5 -18.5t-64 -37.5t-69 -61.5t-61.5 -83.5t-45 -111t-17 -138q0 -87 24.5 -162t60.5 -124t80 -86t79.5 -54.5t63.5 -23.5z" />
    <glyph glyph-name="parenright" unicode=")" horiz-adv-x="445" 
d="M57 -185v50q27 6 62.5 23.5t79.5 54.5t80 85.5t60.5 124t24.5 162.5t-24.5 162t-60 123.5t-80 86t-79.5 55t-63 23.5v50q35 -7 78 -27.5t93.5 -61.5t91 -95.5t67.5 -137t27 -178.5t-27 -179t-67.5 -137t-91 -95.5t-93.5 -61.5t-78 -27z" />
    <glyph glyph-name="asterisk" unicode="*" horiz-adv-x="337" 
d="M142 563l4 64l4 23l1 -81zM158 583l60 35l20 7l-72 -47zM151 538l-52 39l-20 16l72 -43v-12zM151 569l15 9l20 -12v-20l-14 -9l-21 13v19zM186 577l71 -55l-71 44v11zM192 488l-5 -23l-1 81l9 6zM180 532l-59 -34l-18 -6l69 45z" />
    <glyph glyph-name="plus" unicode="+" horiz-adv-x="438" 
d="M243 99h-48v184h-185v48h185v185h48v-185h185v-48h-185v-184z" />
    <glyph glyph-name="comma" unicode="," horiz-adv-x="236" 
d="M157 35q0 -9 -4 -18l-48 -131h-39l37 105q-15 3 -25.5 15.5t-10.5 28.5q0 19 13 32t32 13t32 -13t13 -32z" />
    <glyph glyph-name="hyphen" unicode="-" horiz-adv-x="427" 
d="M340 254h-253v46h253v-46z" />
    <glyph glyph-name="period" unicode="." horiz-adv-x="223" 
d="M144 3q-13 -13 -32 -13t-32 13t-13 32t13 32t32 13t32 -13t13 -32t-13 -32z" />
    <glyph glyph-name="slash" unicode="/" horiz-adv-x="327" 
d="M75 0h-45l222 700h45z" />
    <glyph glyph-name="zero" unicode="0" horiz-adv-x="579" 
d="M455 75q-58 -85 -166 -85t-165 84.5t-57 244.5q0 161 57 246t165 85t165.5 -85.5t57.5 -245.5t-57 -244zM289 41q169 0 169 278q0 280 -169 280q-168 0 -168 -280q0 -278 168 -278z" />
    <glyph glyph-name="one" unicode="1" horiz-adv-x="381" 
d="M285 0h-52v555l-166 -116v62l217 149h1v-650z" />
    <glyph glyph-name="two" unicode="2" horiz-adv-x="560" 
d="M391 239l-186 -189h282v-50h-404l252 255q49 49 76 92.5t27 96.5q0 57 -43 106t-120 49q-67 0 -110.5 -45.5t-43.5 -109.5q0 -25 11 -56t31 -51l-39 -33q-26 27 -41.5 66.5t-15.5 73.5q0 82 58 144t150 62q97 0 157.5 -63t60.5 -143q0 -59 -27 -107t-75 -98z" />
    <glyph glyph-name="three" unicode="3" horiz-adv-x="530" 
d="M256 -10q-123 0 -191 107l43 28q51 -84 148 -84q71 0 113 45.5t42 107.5q0 59 -43.5 106t-110.5 47q-46 0 -75 -22l-30 34l202 233h-261v48h357l-218 -254q18 7 38 7q76 0 135.5 -59t59.5 -140q0 -78 -55.5 -141t-153.5 -63z" />
    <glyph glyph-name="four" unicode="4" horiz-adv-x="541" 
d="M417 0h-51v143h-339v1l389 506h1v-457h97v-50h-97v-143zM366 512l-242 -319h242v319z" />
    <glyph glyph-name="five" unicode="5" horiz-adv-x="537" 
d="M257 -10q-122 0 -190 107l42 28q51 -84 148 -84q68 0 113.5 48.5t45.5 112.5q0 66 -46 113t-112 47q-88 0 -136 -76l-41 24l42 330h302v-50h-258l-30 -224q54 46 129 46q85 0 144.5 -62t59.5 -148q0 -89 -59.5 -150.5t-153.5 -61.5z" />
    <glyph glyph-name="six" unicode="6" horiz-adv-x="557" 
d="M278 415q87 0 149.5 -59.5t62.5 -152.5q0 -91 -61 -152t-151 -61q-95 0 -153 61t-58 152q0 72 42 129h-1l219 308h64l-168 -232q25 7 55 7zM278 41q68 0 113 46t45 116t-45 116t-113 46q-70 0 -114.5 -47t-44.5 -115q0 -70 43.5 -116t115.5 -46z" />
    <glyph glyph-name="seven" unicode="7" horiz-adv-x="513" 
d="M159 0h-58l286 590h-340v50h420z" />
    <glyph glyph-name="eight" unicode="8" horiz-adv-x="524" 
d="M403 45q-54 -55 -141 -55t-141 54.5t-54 131.5q0 63 34.5 105t80.5 58q-41 16 -69.5 54.5t-28.5 91.5q0 70 51 117.5t127 47.5t127 -47.5t51 -117.5q0 -53 -28.5 -91.5t-69.5 -54.5q46 -16 80.5 -58t34.5 -105q0 -77 -54 -131zM262 362q59 1 92.5 36.5t33.5 85.5
t-36 83.5t-90 33.5t-90 -33.5t-36 -83.5t33.5 -85.5t92.5 -36.5zM160 80q39 -39 102 -39t102 39t39 96q0 56 -39 95.5t-102 39.5t-102 -39.5t-39 -95.5q0 -57 39 -96z" />
    <glyph glyph-name="nine" unicode="9" horiz-adv-x="557" 
d="M490 437q0 -72 -41 -129l-219 -308h-62l167 232q-31 -7 -56 -7q-87 0 -149.5 59.5t-62.5 152.5q0 91 61 152t151 61q95 0 153 -61t58 -152zM166 553q-45 -46 -45 -116t45 -116t113 -46q70 0 114.5 47t44.5 115q0 70 -43.5 116t-115.5 46q-68 0 -113 -46z" />
    <glyph glyph-name="colon" unicode=":" horiz-adv-x="234" 
d="M144 329q-13 -13 -32 -13t-32 13t-13 32t13 32t32 13t32 -13t13 -32t-13 -32zM144 3q-13 -13 -32 -13t-32 13t-13 32t13 32t32 13t32 -13t13 -32t-13 -32z" />
    <glyph glyph-name="semicolon" unicode=";" horiz-adv-x="259" 
d="M144 329q-13 -13 -32 -13t-32 13t-13 32t13 32t32 13t32 -13t13 -32t-13 -32zM157 35q0 -9 -4 -18l-48 -131h-39l37 105q-15 3 -25.5 15.5t-10.5 28.5q0 19 13 32t32 13t32 -13t13 -32z" />
    <glyph glyph-name="less" unicode="&#x3c;" horiz-adv-x="465" 
d="M418 98v-60l-371 235l371 239v-57l-284 -182z" />
    <glyph glyph-name="equal" unicode="=" horiz-adv-x="438" 
d="M428 363h-418v47h418v-47zM428 152h-418v47h418v-47z" />
    <glyph glyph-name="greater" unicode="&#x3e;" horiz-adv-x="465" 
d="M418 273l-371 -235v60l283 175l-283 182v57z" />
    <glyph glyph-name="question" unicode="?" horiz-adv-x="460" 
d="M360 535q0 50 -38 87.5t-95 37.5q-48 0 -81 -25.5t-50 -64.5l-39 27q19 49 64.5 81t105.5 32q80 0 133 -52.5t53 -122.5q0 -48 -26.5 -91.5t-57.5 -71.5t-57.5 -67t-26.5 -79v-14h-50v14q0 38 17 72t41 60t48.5 52t41.5 58t17 67zM188 67q13 13 32 13t32 -13t13 -32
t-13 -32t-32 -13t-32 13t-13 32t13 32z" />
    <glyph glyph-name="at" unicode="@" horiz-adv-x="1015" 
d="M517 -181v-45q-123 0 -227 56.5t-167 163t-63 240.5q0 127 63 230.5t165 159.5t220 56q199 0 323 -119t124 -286q0 -110 -62 -186.5t-159 -76.5h-70v87q-55 -87 -164 -87q-90 0 -152.5 60.5t-62.5 152.5t62.5 153t152.5 61q108 0 164 -87v75h45v-369h25q83 0 129 64
t46 153q0 154 -111 258t-290 104q-101 0 -191 -47.5t-149 -141.5t-59 -214q0 -122 58.5 -218.5t150.5 -146.5t199 -50zM500 57q69 0 116.5 47.5t47.5 120.5t-47.5 121t-116.5 48q-70 0 -118 -48t-48 -121t48 -120.5t118 -47.5z" />
    <glyph glyph-name="A" unicode="A" horiz-adv-x="663" 
d="M642 0h-58l-69 170h-367l-69 -170h-57l288 700h46zM332 622l-164 -402h327z" />
    <glyph glyph-name="B" unicode="B" horiz-adv-x="620" 
d="M353 0h-241v700h227q86 0 142.5 -52t56.5 -132q0 -58 -31.5 -97.5t-69.5 -55.5q51 -14 88.5 -58.5t37.5 -113.5q0 -88 -60.5 -139.5t-149.5 -51.5zM165 651v-271h173q61 0 102.5 37t41.5 99q0 60 -41.5 97.5t-108.5 37.5h-167zM165 333v-285h186q68 0 112 39.5t44 103.5
q0 62 -44 102t-112 40h-186z" />
    <glyph glyph-name="C" unicode="C" horiz-adv-x="767" 
d="M416 -10q-150 0 -253 104.5t-103 255.5t103 255.5t253 104.5q91 0 167.5 -41t123.5 -111l-44 -30q-39 59 -104.5 94t-142.5 35q-128 0 -214 -88.5t-86 -218.5t86 -218.5t214 -88.5q77 0 142 35t104 93l44 -30q-47 -70 -123 -110.5t-167 -40.5z" />
    <glyph glyph-name="D" unicode="D" horiz-adv-x="743" 
d="M335 0h-223v700h223q146 0 247 -102t101 -247q0 -146 -101 -248.5t-247 -102.5zM165 650v-600h159q131 0 217 86.5t86 214.5q0 127 -86 213t-217 86h-159z" />
    <glyph glyph-name="E" unicode="E" horiz-adv-x="607" 
d="M530 0h-418v700h418v-50h-365v-264h336v-49h-336v-287h365v-50z" />
    <glyph glyph-name="F" unicode="F" horiz-adv-x="587" 
d="M165 0h-53v700h418v-50h-365v-284h336v-49h-336v-317z" />
    <glyph glyph-name="G" unicode="G" horiz-adv-x="834" 
d="M416 -10q-150 0 -253 104.5t-103 255.5t103 255.5t253 104.5q91 0 167.5 -41t123.5 -111l-47 -30q-39 60 -102.5 94.5t-141.5 34.5q-128 0 -214 -88.5t-86 -218.5t86 -218.5t214 -88.5q118 0 200 71t97 182h-302v50h363v-4q0 -149 -101.5 -250.5t-256.5 -101.5z" />
    <glyph glyph-name="H" unicode="H" horiz-adv-x="770" 
d="M605 383v317h53v-700h-53v333h-440v-333h-53v700h53v-317h440z" />
    <glyph glyph-name="I" unicode="I" horiz-adv-x="475" 
d="M368 700v-50h-104v-600h104v-50h-261v50h104v600h-104v50h261z" />
    <glyph glyph-name="J" unicode="J" horiz-adv-x="554" 
d="M238 -10q-72 0 -125 39t-76 93l43 31q14 -42 57.5 -76t100.5 -34q74 0 119.5 47.5t45.5 130.5v479h54v-478q0 -103 -59 -167.5t-160 -64.5z" />
    <glyph glyph-name="K" unicode="K" horiz-adv-x="620" 
d="M227 368l367 -368h-73l-356 357v-357h-53v700h53v-322l350 322h73z" />
    <glyph glyph-name="L" unicode="L" horiz-adv-x="537" 
d="M500 0h-388v700h53v-649h335v-51z" />
    <glyph glyph-name="M" unicode="M" horiz-adv-x="922" 
d="M462 -15h-1l-297 608v-593h-52v700h54l295 -605l295 605h54v-700h-52v593z" />
    <glyph glyph-name="N" unicode="N" horiz-adv-x="745" 
d="M633 -15h-1l-469 625v-610h-51v700h46l424 -566v566h51v-715z" />
    <glyph glyph-name="O" unicode="O" horiz-adv-x="832" 
d="M669 95q-103 -105 -253 -105t-253 104.5t-103 255.5t103 255.5t253 104.5t253 -105t103 -255t-103 -255zM416 43q127 0 213.5 89t86.5 218t-86.5 218t-213.5 89q-128 0 -213.5 -88.5t-85.5 -218.5t85.5 -218.5t213.5 -88.5z" />
    <glyph glyph-name="P" unicode="P" horiz-adv-x="598" 
d="M165 0h-53v700h217q99 0 165.5 -63.5t66.5 -154.5q0 -94 -66 -158.5t-166 -64.5h-164v-259zM165 649v-339h160q80 0 130 49.5t50 122.5q0 70 -50.5 118.5t-129.5 48.5h-160z" />
    <glyph glyph-name="Q" unicode="Q" horiz-adv-x="832" 
d="M772 350q0 -82 -33 -153t-91 -122l110 -124h-66l-84 95q-86 -56 -192 -56q-150 0 -253 104.5t-103 255.5t103 255.5t253 104.5t253 -105t103 -255zM416 43q84 0 156 43l-158 180h64l134 -151q104 91 104 235q0 129 -86.5 218t-213.5 89q-128 0 -214 -88.5t-86 -218.5
t86 -218.5t214 -88.5z" />
    <glyph glyph-name="R" unicode="R" horiz-adv-x="616" 
d="M236 289l348 -289h-79l-340 287v-287h-53v700h212q105 0 166.5 -60.5t61.5 -143.5q0 -85 -61.5 -146t-166.5 -61h-88zM322 649h-157v-309h157q83 0 128.5 44.5t45.5 110.5t-45.5 110t-128.5 44z" />
    <glyph glyph-name="S" unicode="S" horiz-adv-x="596" 
d="M302 -10q-96 0 -158.5 48t-86.5 106l45 27q19 -47 70.5 -88.5t129.5 -41.5q83 0 133 42t50 106q0 51 -36 89.5t-108 52.5l-72 14q-76 15 -123.5 61.5t-47.5 123.5q0 73 56 126.5t153 53.5q71 0 124.5 -36t77.5 -96l-45 -27q-14 47 -58.5 78t-98.5 31q-72 0 -113.5 -38.5
t-41.5 -91.5q0 -107 127 -132l73 -15q94 -18 141 -72t47 -122q0 -78 -63 -138.5t-175 -60.5z" />
    <glyph glyph-name="T" unicode="T" horiz-adv-x="582" 
d="M320 0h-56v649h-237v51h528v-51h-235v-649z" />
    <glyph glyph-name="U" unicode="U" horiz-adv-x="730" 
d="M364 -10q-116 0 -186.5 75t-70.5 193v442h53v-442q0 -97 54.5 -156t149.5 -59t150.5 59t55.5 156v442h53v-442q0 -118 -71 -193t-188 -75z" />
    <glyph glyph-name="V" unicode="V" horiz-adv-x="665" 
d="M335 -15h-1l-322 715h59l263 -592l260 592h59z" />
    <glyph glyph-name="W" unicode="W" horiz-adv-x="915" 
d="M245 -15h-1l-232 715h57l178 -559l185 559h44l196 -559l174 559h57l-228 -715h-1l-220 624z" />
    <glyph glyph-name="X" unicode="X" horiz-adv-x="591" 
d="M327 354l237 -354h-62l-206 308l-207 -308h-62l238 354l-233 346h62l202 -300l201 300h62z" />
    <glyph glyph-name="Y" unicode="Y" horiz-adv-x="622" 
d="M338 0h-56v264l-265 436h64l230 -381l231 381h63l-267 -435v-265z" />
    <glyph glyph-name="Z" unicode="Z" horiz-adv-x="585" 
d="M524 0h-482l409 651h-380v49h473l-410 -650h390v-50z" />
    <glyph glyph-name="bracketleft" unicode="[" horiz-adv-x="299" 
d="M242 -180h-210v990h210v-43h-162v-904h162v-43z" />
    <glyph glyph-name="backslash" unicode="\" horiz-adv-x="330" 
d="M79 700l222 -700h-45l-222 700h45z" />
    <glyph glyph-name="bracketright" unicode="]" horiz-adv-x="299" 
d="M267 810v-990h-210v43h162v904h-162v43h210z" />
    <glyph glyph-name="asciicircum" unicode="^" horiz-adv-x="454" 
d="M100 402h-53l155 298h50l155 -298h-53l-127 247z" />
    <glyph glyph-name="underscore" unicode="_" horiz-adv-x="387" 
d="M355 -63h-323v46h323v-46z" />
    <glyph glyph-name="grave" unicode="`" horiz-adv-x="277" 
d="M143 666l54 -132h-38l-79 132h63z" />
    <glyph glyph-name="a" unicode="a" horiz-adv-x="521" 
d="M232 -11q-76 0 -123 40t-47 101q0 58 41.5 93t105.5 35h129q23 0 36.5 12.5t13.5 32.5q0 40 -35.5 72.5t-96.5 32.5q-102 0 -138 -93l-40 26q21 52 66 83.5t112 31.5q84 0 134 -48.5t50 -116.5v-291h-46v87q-11 -33 -53.5 -65.5t-108.5 -32.5zM232 38q75 0 116.5 44.5
t41.5 112.5v19h-181q-42 0 -68 -23.5t-26 -60.5q0 -40 32 -66t85 -26z" />
    <glyph glyph-name="b" unicode="b" horiz-adv-x="604" 
d="M314 456q97 0 165 -65.5t68 -168.5q0 -102 -68 -167.5t-165 -65.5q-53 0 -99.5 24t-77.5 66v-79h-50v700h50v-334q31 42 77.5 66t99.5 24zM314 39q75 0 127.5 51t52.5 132t-52.5 132.5t-127.5 51.5q-74 0 -125.5 -51.5t-51.5 -132.5t51.5 -132t125.5 -51z" />
    <glyph glyph-name="c" unicode="c" horiz-adv-x="539" 
d="M291 -11q-96 0 -165 66t-69 168t69 167.5t165 65.5q61 0 113.5 -27.5t83.5 -76.5l-44 -28q-24 38 -65 60t-88 22q-75 0 -128 -51.5t-53 -131.5q0 -81 53 -132.5t128 -51.5q47 0 88 22t65 61l44 -28q-31 -49 -83.5 -77t-113.5 -28z" />
    <glyph glyph-name="d" unicode="d" 
d="M467 365v335h50v-700h-50v80q-31 -43 -77.5 -67t-100.5 -24q-96 0 -164 65.5t-68 167.5q0 103 68 168.5t164 65.5q54 0 100.5 -24t77.5 -67zM162 90q52 -51 127 -51t126.5 51t51.5 132t-52 132.5t-126 51.5q-75 0 -127 -51.5t-52 -132.5t52 -132z" />
    <glyph glyph-name="e" unicode="e" horiz-adv-x="574" 
d="M292 -11q-98 0 -166.5 67t-68.5 167q0 99 66.5 166t164.5 67q101 0 165 -67.5t64 -157.5q0 -12 -1 -24h-405q6 -77 59.5 -122.5t121.5 -45.5q49 0 92.5 24.5t68.5 66.5l41 -27q-31 -53 -85 -83.5t-117 -30.5zM113 254h348q-4 64 -53.5 108.5t-119.5 44.5
q-68 0 -117 -42.5t-58 -110.5z" />
    <glyph glyph-name="f" unicode="f" horiz-adv-x="340" 
d="M178 0h-50v399h-91v42h39q53 0 53 52v58q0 79 46.5 124t118.5 45h12v-47h-12q-55 0 -85.5 -32.5t-30.5 -89.5v-106h138v-46h-138v-399z" />
    <glyph glyph-name="g" unicode="g" 
d="M467 365v80h50v-448q0 -105 -62 -172t-166 -67q-68 0 -124 30.5t-87 84.5l45 28q22 -42 67 -67.5t99 -25.5q82 0 130 52.5t48 136.5v83q-31 -43 -77.5 -67t-100.5 -24q-96 0 -164 65.5t-68 167.5q0 103 68 168.5t164 65.5q54 0 100.5 -24t77.5 -67zM162 90
q52 -51 127 -51t126.5 51t51.5 132t-52 132.5t-126 51.5q-75 0 -127 -51.5t-52 -132.5t52 -132z" />
    <glyph glyph-name="h" unicode="h" horiz-adv-x="543" 
d="M137 0h-50v700h50v-329q15 33 54 59t94 26q81 0 128.5 -49.5t47.5 -124.5v-282h-50v272q0 59 -36 97.5t-98 38.5q-58 0 -99 -41.5t-41 -109.5v-257z" />
    <glyph glyph-name="i" unicode="i" horiz-adv-x="224" 
d="M142 586q-13 -12 -30 -12t-29.5 12t-12.5 30q0 17 12.5 29.5t29.5 12.5t29.5 -12.5t12.5 -29.5q0 -18 -12 -30zM137 0h-50v445h50v-445z" />
    <glyph glyph-name="j" unicode="j" horiz-adv-x="210" 
d="M136 586q-13 -12 -30 -12t-29.5 12t-12.5 30q0 17 12.5 29.5t29.5 12.5t29.5 -12.5t12.5 -29.5q0 -18 -12 -30zM-28 -232v49q50 0 79.5 33.5t29.5 86.5v508h50v-508q0 -74 -44 -121.5t-115 -47.5z" />
    <glyph glyph-name="k" unicode="k" horiz-adv-x="465" 
d="M196 251l251 -251h-72l-238 239v-239h-50v700h50v-439l215 184h73z" />
    <glyph glyph-name="l" unicode="l" horiz-adv-x="264" 
d="M217 -7h-5q-60 0 -95 34t-35 102v571h50v-571q0 -42 22 -64.5t63 -22.5v-49z" />
    <glyph glyph-name="m" unicode="m" horiz-adv-x="846" 
d="M137 0h-50v445h46v-81q13 35 51.5 63.5t96.5 28.5t98.5 -27t58.5 -72q16 40 55.5 69.5t99.5 29.5q78 0 125 -50t47 -124v-282h-50v272q0 60 -34.5 98t-93.5 38q-57 0 -95 -40t-38 -106v-262h-50v272q0 60 -35 98t-96 38q-58 0 -97 -41.5t-39 -109.5v-257z" />
    <glyph glyph-name="n" unicode="n" horiz-adv-x="543" 
d="M137 0h-50v445h46v-81q13 34 53 63t99 29q81 0 128.5 -49.5t47.5 -124.5v-282h-50v272q0 59 -36 97.5t-98 38.5q-58 0 -99 -41.5t-41 -109.5v-257z" />
    <glyph glyph-name="o" unicode="o" horiz-adv-x="582" 
d="M291 -11q-96 0 -165 65.5t-69 167.5t69 168t165 66q97 0 165.5 -65.5t68.5 -168.5q0 -102 -68.5 -167.5t-165.5 -65.5zM163 90q53 -51 128 -51t128 51.5t53 131.5q0 81 -53 132.5t-128 51.5t-128 -51.5t-53 -132.5t53 -132z" />
    <glyph glyph-name="p" unicode="p" horiz-adv-x="604" 
d="M314 456q97 0 165 -65.5t68 -168.5q0 -102 -68 -167.5t-165 -65.5q-53 0 -99.5 24t-77.5 66v-321h-50v687h50v-79q31 42 77.5 66t99.5 24zM314 39q75 0 127.5 51t52.5 132t-52.5 132.5t-127.5 51.5q-74 0 -125.5 -51.5t-51.5 -132.5t51.5 -132t125.5 -51z" />
    <glyph glyph-name="q" unicode="q" 
d="M467 365v80h50v-687h-50v322q-31 -43 -77.5 -67t-100.5 -24q-96 0 -164 65.5t-68 167.5q0 103 68 168.5t164 65.5q54 0 100.5 -24t77.5 -67zM162 90q52 -51 127 -51t126.5 51t51.5 132t-52 132.5t-126 51.5q-75 0 -127 -51.5t-52 -132.5t52 -132z" />
    <glyph glyph-name="r" unicode="r" horiz-adv-x="355" 
d="M137 0h-50v445h46v-93q13 45 54.5 74.5t96.5 29.5h24v-50h-24q-66 0 -106.5 -44.5t-40.5 -116.5v-245z" />
    <glyph glyph-name="s" unicode="s" horiz-adv-x="415" 
d="M207 -11q-112 0 -160 98l43 25q16 -34 47 -54t70 -20q52 0 81 22t29 58q0 35 -26.5 55.5t-84.5 33.5q-28 6 -49.5 14t-44 22.5t-35 38t-12.5 55.5q0 51 40.5 85t105.5 34q52 0 89 -24.5t54 -68.5l-41 -25q-11 35 -38.5 53.5t-63.5 18.5q-42 0 -68 -20.5t-26 -52.5
q0 -39 28 -56t81 -28q143 -30 143 -135q0 -54 -42 -91.5t-120 -37.5z" />
    <glyph glyph-name="t" unicode="t" horiz-adv-x="365" 
d="M309 -5h-49q-66 0 -106 37t-40 108v259h-77v37h10q37 0 59 24t22 72v17h36v-104h145v-46h-145v-259q0 -49 28 -74t73 -25h44v-46z" />
    <glyph glyph-name="u" unicode="u" horiz-adv-x="525" 
d="M401 44q-48 -55 -138 -55t-138 54.5t-48 136.5v265h50v-265q0 -63 36.5 -102.5t99.5 -39.5t99.5 39.5t36.5 102.5v265h50v-265q0 -82 -48 -136z" />
    <glyph glyph-name="v" unicode="v" horiz-adv-x="489" 
d="M245 -15h-1l-227 460h57l170 -353l171 353h57z" />
    <glyph glyph-name="w" unicode="w" horiz-adv-x="694" 
d="M193 -15h-1l-179 460h55l126 -336l132 336h43l135 -336l122 336h55l-175 -460h-1l-158 391z" />
    <glyph glyph-name="x" unicode="x" horiz-adv-x="449" 
d="M254 232l173 -232h-60l-142 192l-143 -192h-60l173 232l-158 213h59l129 -173l128 173h59z" />
    <glyph glyph-name="y" unicode="y" horiz-adv-x="509" 
d="M143 -232h-60l138 263l-204 414h57l177 -360l182 360h59z" />
    <glyph glyph-name="z" unicode="z" horiz-adv-x="430" 
d="M377 0h-335l259 399h-248v46h335l-259 -398h248v-47z" />
    <glyph glyph-name="braceleft" unicode="{" horiz-adv-x="406" 
d="M350 -137v-43q-114 1 -174 64t-60 168v162q0 34 -19.5 56t-49.5 22h-15v45h15q29 0 49 22t20 56v162q0 106 60 169t174 64v-43q-93 0 -139 -52.5t-46 -137.5v-156q0 -82 -57 -106q57 -25 57 -107v-155q0 -85 46 -137.5t139 -52.5z" />
    <glyph glyph-name="bar" unicode="|" horiz-adv-x="159" 
d="M103 -300h-46v1060h46v-1060z" />
    <glyph glyph-name="braceright" unicode="}" horiz-adv-x="406" 
d="M57 -180v43q93 0 138.5 52.5t45.5 137.5v155q0 82 57 107q-57 24 -57 106v156q0 85 -45.5 137.5t-138.5 52.5v43q114 -1 174 -64.5t60 -168.5v-162q0 -34 19.5 -56t49.5 -22h15v-45h-15q-30 0 -49.5 -22t-19.5 -56v-162q0 -105 -60 -168t-174 -64z" />
    <glyph glyph-name="uni00A0" unicode="&#xa0;" horiz-adv-x="275" 
 />
    <glyph glyph-name="exclamdown" unicode="&#xa1;" horiz-adv-x="304" 
d="M119 465q13 13 32 13t32 -13t13 -32t-13 -32t-32 -13t-32 13t-13 32t13 32zM119 -232l14 495h36l13 -495h-63z" />
    <glyph glyph-name="cent" unicode="&#xa2;" horiz-adv-x="544" 
d="M291 129q47 0 88 22t65 61l44 -28q-31 -49 -83.5 -77t-113.5 -28q-33 0 -65 9l-53 -188h-26l55 196q-65 26 -105 83.5t-40 133.5q0 102 69 167.5t165 65.5q19 0 38 -3l44 157h26l-46 -162q87 -22 135 -96l-44 -28q-36 57 -104 76l-100 -354q22 -7 51 -7zM110 313
q0 -58 29 -102.5t77 -65.5l99 349q-16 2 -24 2q-75 0 -128 -51.5t-53 -131.5z" />
    <glyph glyph-name="sterling" unicode="&#xa3;" horiz-adv-x="597" 
d="M205 303v-253h315v-50h-433v50h65v253h-75v41h24q24 0 37.5 12.5t13.5 36.5v75q0 85 54.5 133.5t129.5 48.5q58 0 103.5 -30t67.5 -81l-44 -29q-13 38 -46.5 63.5t-80.5 25.5q-57 0 -94 -36.5t-37 -94.5v-124h220v-41h-220z" />
    <glyph glyph-name="currency" unicode="&#xa4;" horiz-adv-x="591" 
d="M170 150l-72 -74l-41 41l71 74q-42 57 -42 128q0 73 45 131l-74 76l42 41l74 -76q57 42 126 42q68 0 121 -39l72 73l42 -41l-70 -73q47 -58 47 -134t-45 -132l68 -70l-42 -41l-68 70q-55 -41 -125 -41q-73 0 -129 45zM185 202q46 -46 114 -46t113.5 46t45.5 117
t-46 116.5t-113 45.5q-68 0 -114.5 -46t-46.5 -116q0 -71 47 -117z" />
    <glyph glyph-name="yen" unicode="&#xa5;" horiz-adv-x="579" 
d="M499 640h64l-223 -346h160v-44h-184v-78h184v-44h-184v-128h-55v128h-179v44h179v78h-179v44h155l-220 346h64l208 -330z" />
    <glyph glyph-name="section" unicode="&#xa7;" horiz-adv-x="488" 
d="M338 92q100 -57 100 -155q0 -63 -49.5 -112t-138.5 -49q-68 0 -115.5 32.5t-68.5 83.5l42 28q13 -42 51 -69t91 -27q65 0 100.5 34t35.5 79q0 51 -30 79t-88 54l-116 50q-46 20 -75.5 57t-29.5 90q0 49 30.5 84.5t74.5 41.5q-102 56 -102 156q0 63 49.5 112t138.5 49
q68 0 115.5 -32.5t69.5 -83.5l-43 -28q-13 42 -51 69t-91 27q-65 0 -100.5 -34t-35.5 -79q0 -51 30.5 -80t88.5 -53l115 -49q47 -20 76.5 -57.5t29.5 -90.5q0 -49 -30.5 -85t-73.5 -42zM99 267q0 -68 75 -101l80 -35q50 -16 92.5 11t42.5 77q0 71 -71 101l-89 38
q-49 15 -89.5 -12.5t-40.5 -78.5z" />
    <glyph glyph-name="dieresis" unicode="&#xa8;" horiz-adv-x="398" 
d="M119 563q-16 0 -27.5 11.5t-11.5 27.5q0 17 11.5 28.5t27.5 11.5q17 0 29 -11.5t12 -28.5q0 -16 -12 -27.5t-29 -11.5zM306 575q-12 -12 -29 -12t-28 11.5t-11 27.5q0 17 11 28.5t28 11.5t29 -11.5t12 -28.5q0 -16 -12 -27z" />
    <glyph glyph-name="copyright" unicode="&#xa9;" horiz-adv-x="839" 
d="M419 -10q-148 0 -253.5 105.5t-105.5 254.5t105.5 254.5t253.5 105.5q149 0 254.5 -106t105.5 -254t-105.5 -254t-254.5 -106zM419 33q132 0 224 93t92 224t-92 223.5t-224 92.5q-131 0 -223.5 -92.5t-92.5 -223.5t92.5 -224t223.5 -93zM419 161q-82 0 -135 54t-53 133
q0 80 53 134t135 54q48 0 88.5 -21.5t64.5 -60.5l-42 -25q-15 29 -45 45.5t-66 16.5q-61 0 -99.5 -40.5t-38.5 -100.5q0 -61 38.5 -101t99.5 -40q36 0 67 16t45 43l42 -25q-23 -38 -64 -60t-90 -22z" />
    <glyph glyph-name="ordfeminine" unicode="&#xaa;" horiz-adv-x="358" 
d="M163 334q-51 0 -83.5 26.5t-32.5 68.5q0 40 28.5 64t77.5 24h82q33 0 33 27q0 24 -24.5 44t-64.5 20q-70 0 -97 -63l-29 26q14 34 47.5 56t78.5 22q57 0 94.5 -33t37.5 -78v-196h-39v53q-11 -23 -38.5 -42t-70.5 -19zM167 373q47 0 74.5 26.5t27.5 70.5v11h-116
q-27 0 -44 -13.5t-17 -38.5q0 -26 21 -41t54 -15z" />
    <glyph glyph-name="guillemotleft" unicode="&#xab;" horiz-adv-x="451" 
d="M236 81h-52l-137 174l137 173h52l-124 -173zM396 81h-52l-137 174l137 173h52l-124 -173z" />
    <glyph glyph-name="uni00AD" unicode="&#xad;" horiz-adv-x="427" 
d="M340 254h-253v46h253v-46z" />
    <glyph glyph-name="registered" unicode="&#xae;" horiz-adv-x="504" 
d="M388 432q-56 -56 -136 -56t-136 56t-56 136t56 136t136 56t136 -56t56 -136t-56 -136zM135 451q48 -49 117 -49t117 48.5t48 117.5t-48 117.5t-117 48.5t-117.5 -48.5t-48.5 -117.5t49 -117zM215 471h-28v195h76q26 0 44 -17t18 -42t-17.5 -42.5t-44.5 -17.5h-12l86 -76
h-38l-84 76v-76zM215 641v-68h43q17 0 28 10t11 24q0 15 -11 24.5t-28 9.5h-43z" />
    <glyph glyph-name="macron" unicode="&#xaf;" horiz-adv-x="412" 
d="M332 580h-252v43h252v-43z" />
    <glyph glyph-name="degree" unicode="&#xb0;" horiz-adv-x="378" 
d="M189 440q-58 0 -98.5 39.5t-40.5 95.5t40.5 95.5t98.5 39.5q57 0 98 -39.5t41 -95.5t-41 -95.5t-98 -39.5zM189 479q43 0 70.5 27.5t27.5 68.5q0 39 -27.5 67.5t-70.5 28.5q-44 0 -71.5 -28t-27.5 -68q0 -41 27 -68.5t72 -27.5z" />
    <glyph glyph-name="twosuperior" unicode="&#xb2;" horiz-adv-x="408" 
d="M360 237h-297l183 185q73 75 73 139q0 39 -30.5 73t-83.5 34q-47 0 -78.5 -31.5t-31.5 -75.5t32 -79l-33 -23q-20 20 -31.5 48.5t-11.5 53.5q0 58 44.5 103.5t109.5 45.5q70 0 115 -45.5t45 -103.5q0 -73 -72 -149l-133 -134h200v-41z" />
    <glyph glyph-name="threesuperior" unicode="&#xb3;" horiz-adv-x="412" 
d="M200 227q-89 0 -139 78l32 24q38 -60 107 -60q52 0 82 31t30 76q0 42 -32 75t-80 33q-32 0 -54 -15l-24 33l137 159h-178v39h260l-158 -183q13 5 26 5q62 0 104.5 -44t42.5 -102t-42.5 -103.5t-113.5 -45.5z" />
    <glyph glyph-name="acute" unicode="&#xb4;" horiz-adv-x="277" 
d="M118 534h-38l54 132h63z" />
    <glyph glyph-name="paragraph" unicode="&#xb6;" horiz-adv-x="679" 
d="M254 700h313v-47h-69v-702q0 -80 -47 -131.5t-125 -51.5v49q58 0 90 37.5t32 96.5v702h-79v-726h-50v355h-51q-85 0 -146.5 61t-61.5 149q0 86 56.5 147t137.5 61z" />
    <glyph glyph-name="periodcentered" unicode="&#xb7;" horiz-adv-x="229" 
d="M141 217q-13 -13 -32 -13t-32 13t-13 32t13 32t32 13t32 -13t13 -32t-13 -32z" />
    <glyph glyph-name="cedilla" unicode="&#xb8;" horiz-adv-x="361" 
d="M176 -242q-60 0 -96 46l27 29q32 -34 69 -34q27 0 43 16t16 37q0 19 -16.5 35t-42.5 16q-18 0 -31 -8l-18 29l47 89h44l-41 -76q42 5 73 -21.5t31 -63.5q0 -39 -28 -66.5t-77 -27.5z" />
    <glyph glyph-name="onesuperior" unicode="&#xb9;" horiz-adv-x="273" 
d="M216 237h-42v392l-117 -74v48l158 97h1v-463z" />
    <glyph glyph-name="ordmasculine" unicode="&#xba;" horiz-adv-x="411" 
d="M319 379q-47 -45 -113 -45t-112.5 45t-46.5 112t46.5 112.5t112.5 45.5t112.5 -45.5t46.5 -112.5t-46 -112zM206 375q49 0 82 33.5t33 82.5t-33.5 83t-81.5 34q-49 0 -82.5 -33.5t-33.5 -83.5q0 -49 33 -82.5t83 -33.5z" />
    <glyph glyph-name="guillemotright" unicode="&#xbb;" horiz-adv-x="451" 
d="M244 255l-137 -174h-52l124 174l-124 173h52zM404 255l-137 -174h-52l124 174l-124 173h52z" />
    <glyph glyph-name="onequarter" unicode="&#xbc;" horiz-adv-x="813" 
d="M216 237h-42v392l-117 -74v48l158 97h1v-463zM224 -80h-43l364 780h43zM688 0h-42v100h-242v1l283 362h1v-324h68v-38h-68v-101zM646 352l-165 -213h165v213z" />
    <glyph glyph-name="onehalf" unicode="&#xbd;" horiz-adv-x="909" 
d="M216 237h-42v392l-117 -74v48l158 97h1v-463zM223 -80h-43l364 780h43zM847 0h-297l183 185q73 75 73 139q0 39 -30.5 73t-83.5 34q-47 0 -78.5 -31.5t-31.5 -75.5t32 -79l-33 -23q-20 20 -31.5 48.5t-11.5 53.5q0 58 44.5 103.5t109.5 45.5q70 0 115 -45.5t45 -103.5
q0 -73 -72 -149l-133 -134h200v-41z" />
    <glyph glyph-name="threequarters" unicode="&#xbe;" horiz-adv-x="729" 
d="M200 227q-89 0 -139 78l32 24q38 -60 107 -60q52 0 82 31t30 76q0 42 -32 75t-80 33q-32 0 -54 -15l-24 33l137 159h-178v39h260l-158 -183q13 5 26 5q62 0 104.5 -44t42.5 -102t-42.5 -103.5t-113.5 -45.5zM347 -80h-44l365 780h43zM790 0h-42v100h-242v1l283 362h1
v-324h68v-38h-68v-101zM748 352l-165 -213h165v213z" />
    <glyph glyph-name="questiondown" unicode="&#xbf;" horiz-adv-x="450" 
d="M262 401q-13 -13 -32 -13t-32 13t-13 32t13 32t32 13t32 -13t13 -32t-13 -32zM354 -102l39 -27q-19 -49 -64.5 -81t-105.5 -32q-80 0 -133 52.5t-53 122.5q0 48 26.5 91.5t57.5 71.5t57.5 67t26.5 79v14h50v-14q0 -38 -17 -72t-41.5 -60t-48.5 -52t-41 -58t-17 -67
q0 -50 38 -87.5t95 -37.5q48 0 81 25.5t50 64.5z" />
    <glyph glyph-name="Agrave" unicode="&#xc0;" horiz-adv-x="663" 
d="M323 916l54 -132h-38l-79 132h63zM642 0h-58l-69 170h-367l-69 -170h-57l288 700h46zM332 622l-164 -402h327z" />
    <glyph glyph-name="Aacute" unicode="&#xc1;" horiz-adv-x="663" 
d="M344 916h63l-79 -132h-38zM642 0h-58l-69 170h-367l-69 -170h-57l288 700h46zM332 622l-164 -402h327z" />
    <glyph glyph-name="Acircumflex" unicode="&#xc2;" horiz-adv-x="663" 
d="M417 784l-82 87l-82 -87h-41l96 132h53l96 -132h-40zM642 0h-58l-69 170h-367l-69 -170h-57l288 700h46zM332 622l-164 -402h327z" />
    <glyph glyph-name="Atilde" unicode="&#xc3;" horiz-adv-x="663" 
d="M272 868q-44 0 -44 -60h-41q0 50 22 78t56 28q27 0 50 -17.5t41 -35t31 -17.5q44 0 44 61h41q0 -50 -22 -78t-56 -28q-28 0 -65 34.5t-57 34.5zM642 0h-58l-69 170h-367l-69 -170h-57l288 700h46zM332 622l-164 -402h327z" />
    <glyph glyph-name="Adieresis" unicode="&#xc4;" horiz-adv-x="663" 
d="M255 813q-16 0 -27.5 11.5t-11.5 27.5q0 17 11.5 28.5t27.5 11.5q17 0 29 -11.5t12 -28.5q0 -16 -12 -27.5t-29 -11.5zM442 825q-12 -12 -29 -12t-28 11.5t-11 27.5q0 17 11 28.5t28 11.5t29 -11.5t12 -28.5q0 -16 -12 -27zM642 0h-58l-69 170h-367l-69 -170h-57l288 700
h46zM332 622l-164 -402h327z" />
    <glyph glyph-name="Aring" unicode="&#xc5;" horiz-adv-x="663" 
d="M334 756q-42 0 -70 27t-28 67t28 67t70 27t70 -27t28 -67q0 -41 -27.5 -67.5t-70.5 -26.5zM379 893q-18 17 -45 17t-44.5 -17.5t-17.5 -42.5t17.5 -42.5t44.5 -17.5t44.5 17.5t17.5 42.5t-17 43zM642 0h-58l-69 170h-367l-69 -170h-57l288 700h46zM332 622l-164 -402h327
z" />
    <glyph glyph-name="AE" unicode="&#xc6;" horiz-adv-x="894" 
d="M79 0h-57l288 700h507v-50h-441l108 -264h304v-49h-284l118 -287h195v-50h-233l-69 170h-367zM332 622l-164 -402h327z" />
    <glyph glyph-name="Ccedilla" unicode="&#xc7;" horiz-adv-x="767" 
d="M416 43q77 0 142 35t104 93l44 -30q-46 -67 -117.5 -107t-157.5 -44l-29 -53q42 5 73 -21.5t31 -63.5q0 -39 -28 -66.5t-77 -27.5q-60 0 -96 46l27 29q32 -34 69 -34q27 0 43 16t16 37q0 19 -16.5 35t-42.5 16q-18 0 -31 -8l-18 29l35 67q-140 10 -233.5 113t-93.5 246
q0 151 103 255.5t253 104.5q91 0 167.5 -41t123.5 -111l-44 -30q-39 59 -104.5 94t-142.5 35q-128 0 -214 -88.5t-86 -218.5t86 -218.5t214 -88.5z" />
    <glyph glyph-name="Egrave" unicode="&#xc8;" horiz-adv-x="607" 
d="M326 916l54 -132h-38l-79 132h63zM530 0h-418v700h418v-50h-365v-264h336v-49h-336v-287h365v-50z" />
    <glyph glyph-name="Eacute" unicode="&#xc9;" horiz-adv-x="607" 
d="M331 784h-38l54 132h63zM530 0h-418v700h418v-50h-365v-264h336v-49h-336v-287h365v-50z" />
    <glyph glyph-name="Ecircumflex" unicode="&#xca;" horiz-adv-x="607" 
d="M256 784h-41l96 132h53l96 -132h-40l-82 87zM530 0h-418v700h418v-50h-365v-264h336v-49h-336v-287h365v-50z" />
    <glyph glyph-name="Edieresis" unicode="&#xcb;" horiz-adv-x="607" 
d="M258 813q-16 0 -27.5 11.5t-11.5 27.5q0 17 11.5 28.5t27.5 11.5q17 0 29 -11.5t12 -28.5q0 -16 -12 -27.5t-29 -11.5zM416 813q-16 0 -27.5 11.5t-11.5 27.5q0 17 11 28.5t28 11.5t29 -11.5t12 -28.5q0 -16 -12 -27.5t-29 -11.5zM530 0h-418v700h418v-50h-365v-264h336
v-49h-336v-287h365v-50z" />
    <glyph glyph-name="Igrave" unicode="&#xcc;" horiz-adv-x="475" 
d="M228 916l54 -132h-38l-79 132h63zM368 700v-50h-104v-600h104v-50h-261v50h104v600h-104v50h261z" />
    <glyph glyph-name="Iacute" unicode="&#xcd;" horiz-adv-x="475" 
d="M249 916h63l-79 -132h-38zM368 700v-50h-104v-600h104v-50h-261v50h104v600h-104v50h261z" />
    <glyph glyph-name="Icircumflex" unicode="&#xce;" horiz-adv-x="475" 
d="M322 784l-82 87l-82 -87h-41l96 132h53l96 -132h-40zM368 700v-50h-104v-600h104v-50h-261v50h104v600h-104v50h261z" />
    <glyph glyph-name="Idieresis" unicode="&#xcf;" horiz-adv-x="475" 
d="M160 813q-16 0 -27.5 11.5t-11.5 27.5q0 17 11.5 28.5t27.5 11.5q17 0 29 -11.5t12 -28.5q0 -16 -12 -27.5t-29 -11.5zM318 813q-16 0 -27.5 11.5t-11.5 27.5q0 17 11 28.5t28 11.5t29 -11.5t12 -28.5q0 -16 -12 -27.5t-29 -11.5zM368 700v-50h-104v-600h104v-50h-261v50
h104v600h-104v50h261z" />
    <glyph glyph-name="Eth" unicode="&#xd0;" horiz-adv-x="743" 
d="M112 700h223q146 0 247 -102t101 -247q0 -146 -101 -248.5t-247 -102.5h-223v336h-77v46h77v318zM165 50h159q131 0 217 86.5t86 214.5q0 127 -86 213t-217 86h-159v-268h220v-46h-220v-286z" />
    <glyph glyph-name="Ntilde" unicode="&#xd1;" horiz-adv-x="745" 
d="M446 799q-28 0 -65 34.5t-57 34.5q-44 0 -44 -60h-41q0 50 22 78t56 28q27 0 50 -17.5t41 -35t31 -17.5q44 0 44 61h41q0 -50 -22 -78t-56 -28zM633 -15h-1l-469 625v-610h-51v700h46l424 -566v566h51v-715z" />
    <glyph glyph-name="Ograve" unicode="&#xd2;" horiz-adv-x="832" 
d="M410 916l54 -132h-38l-79 132h63zM669 95q-103 -105 -253 -105t-253 104.5t-103 255.5t103 255.5t253 104.5t253 -105t103 -255t-103 -255zM416 43q127 0 213.5 89t86.5 218t-86.5 218t-213.5 89q-128 0 -213.5 -88.5t-85.5 -218.5t85.5 -218.5t213.5 -88.5z" />
    <glyph glyph-name="Oacute" unicode="&#xd3;" horiz-adv-x="832" 
d="M415 784h-38l54 132h63zM669 95q-103 -105 -253 -105t-253 104.5t-103 255.5t103 255.5t253 104.5t253 -105t103 -255t-103 -255zM416 43q127 0 213.5 89t86.5 218t-86.5 218t-213.5 89q-128 0 -213.5 -88.5t-85.5 -218.5t85.5 -218.5t213.5 -88.5z" />
    <glyph glyph-name="Ocircumflex" unicode="&#xd4;" horiz-adv-x="832" 
d="M340 784h-41l96 132h53l96 -132h-40l-82 87zM669 95q-103 -105 -253 -105t-253 104.5t-103 255.5t103 255.5t253 104.5t253 -105t103 -255t-103 -255zM416 43q127 0 213.5 89t86.5 218t-86.5 218t-213.5 89q-128 0 -213.5 -88.5t-85.5 -218.5t85.5 -218.5t213.5 -88.5z
" />
    <glyph glyph-name="Otilde" unicode="&#xd5;" horiz-adv-x="832" 
d="M481 799q-28 0 -65 34.5t-57 34.5q-44 0 -44 -60h-41q0 50 22 78t56 28q27 0 50 -17.5t41 -35t31 -17.5q44 0 44 61h41q0 -50 -22 -78t-56 -28zM669 95q-103 -105 -253 -105t-253 104.5t-103 255.5t103 255.5t253 104.5t253 -105t103 -255t-103 -255zM416 43
q127 0 213.5 89t86.5 218t-86.5 218t-213.5 89q-128 0 -213.5 -88.5t-85.5 -218.5t85.5 -218.5t213.5 -88.5z" />
    <glyph glyph-name="Odieresis" unicode="&#xd6;" horiz-adv-x="832" 
d="M342 813q-16 0 -27.5 11.5t-11.5 27.5q0 17 11.5 28.5t27.5 11.5q17 0 29 -11.5t12 -28.5q0 -16 -12 -27.5t-29 -11.5zM500 813q-16 0 -27.5 11.5t-11.5 27.5q0 17 11 28.5t28 11.5t29 -11.5t12 -28.5q0 -16 -12 -27.5t-29 -11.5zM669 95q-103 -105 -253 -105t-253 104.5
t-103 255.5t103 255.5t253 104.5t253 -105t103 -255t-103 -255zM416 43q127 0 213.5 89t86.5 218t-86.5 218t-213.5 89q-128 0 -213.5 -88.5t-85.5 -218.5t85.5 -218.5t213.5 -88.5z" />
    <glyph glyph-name="multiply" unicode="&#xd7;" horiz-adv-x="481" 
d="M245 273l-131 -131l-32 34l130 130l-130 131l32 34l131 -131l133 131l32 -34l-131 -131l131 -129l-33 -35z" />
    <glyph glyph-name="Oslash" unicode="&#xd8;" horiz-adv-x="832" 
d="M735 651l-56 -56q93 -103 93 -245q0 -150 -103 -255t-253 -105q-143 0 -246 97l-98 -98v60l70 69q-82 99 -82 232q0 151 103 255.5t253 104.5q133 0 232 -86l87 87v-60zM117 350q0 -110 63 -193l430 429q-82 71 -194 71q-128 0 -213.5 -88.5t-85.5 -218.5zM416 43
q127 0 213.5 89t86.5 218q0 120 -76 206l-431 -431q84 -82 207 -82z" />
    <glyph glyph-name="Ugrave" unicode="&#xd9;" horiz-adv-x="730" 
d="M351 916l54 -132h-38l-79 132h63zM364 -10q-116 0 -186.5 75t-70.5 193v442h53v-442q0 -97 54.5 -156t149.5 -59t150.5 59t55.5 156v442h53v-442q0 -118 -71 -193t-188 -75z" />
    <glyph glyph-name="Uacute" unicode="&#xda;" horiz-adv-x="730" 
d="M357 784h-38l54 132h63zM364 -10q-116 0 -186.5 75t-70.5 193v442h53v-442q0 -97 54.5 -156t149.5 -59t150.5 59t55.5 156v442h53v-442q0 -118 -71 -193t-188 -75z" />
    <glyph glyph-name="Ucircumflex" unicode="&#xdb;" horiz-adv-x="730" 
d="M281 784h-41l96 132h53l96 -132h-40l-82 87zM364 -10q-116 0 -186.5 75t-70.5 193v442h53v-442q0 -97 54.5 -156t149.5 -59t150.5 59t55.5 156v442h53v-442q0 -118 -71 -193t-188 -75z" />
    <glyph glyph-name="Udieresis" unicode="&#xdc;" horiz-adv-x="730" 
d="M284 813q-16 0 -27.5 11.5t-11.5 27.5q0 17 11.5 28.5t27.5 11.5q17 0 29 -11.5t12 -28.5q0 -16 -12 -27.5t-29 -11.5zM442 813q-16 0 -27.5 11.5t-11.5 27.5q0 17 11 28.5t28 11.5t29 -11.5t12 -28.5q0 -16 -12 -27.5t-29 -11.5zM364 -10q-116 0 -186.5 75t-70.5 193
v442h53v-442q0 -97 54.5 -156t149.5 -59t150.5 59t55.5 156v442h53v-442q0 -118 -71 -193t-188 -75z" />
    <glyph glyph-name="Yacute" unicode="&#xdd;" horiz-adv-x="622" 
d="M309 784h-38l54 132h63zM338 0h-56v264l-265 436h64l230 -381l231 381h63l-267 -435v-265z" />
    <glyph glyph-name="Thorn" unicode="&#xde;" horiz-adv-x="600" 
d="M165 0h-53v700h53v-112h164q99 0 165.5 -63.5t66.5 -154.5q0 -94 -66 -158.5t-166 -64.5h-164v-147zM165 538v-339h160q80 0 130 49t50 122q0 71 -50.5 119.5t-129.5 48.5h-160z" />
    <glyph glyph-name="germandbls" unicode="&#xdf;" horiz-adv-x="528" 
d="M241 -242q-51 0 -95 22l22 45q37 -17 69 -17q84 0 132.5 53.5t48.5 120.5q0 79 -57.5 127t-129.5 48h-17l131 240h-208v-397h-50l1 551q0 79 46.5 124t118.5 45h12v-47h-12q-55 0 -85.5 -32.5t-30.5 -89.5v-106h285l-136 -250q69 -8 127 -67.5t58 -145.5
q0 -85 -62 -154.5t-168 -69.5z" />
    <glyph glyph-name="agrave" unicode="&#xe0;" horiz-adv-x="521" 
d="M245 666l54 -132h-38l-79 132h63zM232 -11q-76 0 -123 40t-47 101q0 58 41.5 93t105.5 35h129q23 0 36.5 12.5t13.5 32.5q0 40 -35.5 72.5t-96.5 32.5q-102 0 -138 -93l-40 26q21 52 66 83.5t112 31.5q84 0 134 -48.5t50 -116.5v-291h-46v87q-11 -33 -53.5 -65.5
t-108.5 -32.5zM232 38q75 0 116.5 44.5t41.5 112.5v19h-181q-42 0 -68 -23.5t-26 -60.5q0 -40 32 -66t85 -26z" />
    <glyph glyph-name="aacute" unicode="&#xe1;" horiz-adv-x="521" 
d="M250 534h-38l54 132h63zM232 -11q-76 0 -123 40t-47 101q0 58 41.5 93t105.5 35h129q23 0 36.5 12.5t13.5 32.5q0 40 -35.5 72.5t-96.5 32.5q-102 0 -138 -93l-40 26q21 52 66 83.5t112 31.5q84 0 134 -48.5t50 -116.5v-291h-46v87q-11 -33 -53.5 -65.5t-108.5 -32.5z
M232 38q75 0 116.5 44.5t41.5 112.5v19h-181q-42 0 -68 -23.5t-26 -60.5q0 -40 32 -66t85 -26z" />
    <glyph glyph-name="acircumflex" unicode="&#xe2;" horiz-adv-x="521" 
d="M175 534h-41l96 132h53l96 -132h-40l-82 87zM232 -11q-76 0 -123 40t-47 101q0 58 41.5 93t105.5 35h129q23 0 36.5 12.5t13.5 32.5q0 40 -35.5 72.5t-96.5 32.5q-102 0 -138 -93l-40 26q21 52 66 83.5t112 31.5q84 0 134 -48.5t50 -116.5v-291h-46v87
q-11 -33 -53.5 -65.5t-108.5 -32.5zM232 38q75 0 116.5 44.5t41.5 112.5v19h-181q-42 0 -68 -23.5t-26 -60.5q0 -40 32 -66t85 -26z" />
    <glyph glyph-name="atilde" unicode="&#xe3;" horiz-adv-x="521" 
d="M316 549q-28 0 -65 34.5t-57 34.5q-44 0 -44 -60h-41q0 50 22 78t56 28q27 0 50 -17.5t41 -35t31 -17.5q44 0 44 61h41q0 -50 -22 -78t-56 -28zM232 -11q-76 0 -123 40t-47 101q0 58 41.5 93t105.5 35h129q23 0 36.5 12.5t13.5 32.5q0 40 -35.5 72.5t-96.5 32.5
q-102 0 -138 -93l-40 26q21 52 66 83.5t112 31.5q84 0 134 -48.5t50 -116.5v-291h-46v87q-11 -33 -53.5 -65.5t-108.5 -32.5zM232 38q75 0 116.5 44.5t41.5 112.5v19h-181q-42 0 -68 -23.5t-26 -60.5q0 -40 32 -66t85 -26z" />
    <glyph glyph-name="adieresis" unicode="&#xe4;" horiz-adv-x="521" 
d="M177 563q-16 0 -27.5 11.5t-11.5 27.5q0 17 11.5 28.5t27.5 11.5q17 0 29 -11.5t12 -28.5q0 -16 -12 -27.5t-29 -11.5zM364 575q-12 -12 -29 -12t-28 11.5t-11 27.5q0 17 11 28.5t28 11.5t29 -11.5t12 -28.5q0 -16 -12 -27zM232 -11q-76 0 -123 40t-47 101q0 58 41.5 93
t105.5 35h129q23 0 36.5 12.5t13.5 32.5q0 40 -35.5 72.5t-96.5 32.5q-102 0 -138 -93l-40 26q21 52 66 83.5t112 31.5q84 0 134 -48.5t50 -116.5v-291h-46v87q-11 -33 -53.5 -65.5t-108.5 -32.5zM232 38q75 0 116.5 44.5t41.5 112.5v19h-181q-42 0 -68 -23.5t-26 -60.5
q0 -40 32 -66t85 -26z" />
    <glyph glyph-name="aring" unicode="&#xe5;" horiz-adv-x="521" 
d="M256 506q-42 0 -70 27t-28 67t28 67t70 27t70 -27t28 -67q0 -41 -27.5 -67.5t-70.5 -26.5zM212 558q17 -18 44 -18t44.5 17.5t17.5 42.5t-17.5 42.5t-44.5 17.5t-44.5 -17.5t-17.5 -42.5t18 -42zM232 -11q-76 0 -123 40t-47 101q0 58 41.5 93t105.5 35h129
q23 0 36.5 12.5t13.5 32.5q0 40 -35.5 72.5t-96.5 32.5q-102 0 -138 -93l-40 26q21 52 66 83.5t112 31.5q84 0 134 -48.5t50 -116.5v-291h-46v87q-11 -33 -53.5 -65.5t-108.5 -32.5zM232 38q75 0 116.5 44.5t41.5 112.5v19h-181q-42 0 -68 -23.5t-26 -60.5q0 -40 32 -66
t85 -26z" />
    <glyph glyph-name="ae" unicode="&#xe6;" horiz-adv-x="904" 
d="M354 24q-47 -35 -122 -35t-122.5 39.5t-47.5 98.5q0 58 41.5 92t105.5 34h125q27 0 40.5 14t13.5 36q0 40 -37 72.5t-99 32.5q-101 0 -137 -93l-39 26q21 52 65.5 83.5t110.5 31.5q65 0 110.5 -31.5t62.5 -78.5q28 51 79 80.5t114 29.5q101 0 169 -71.5t59 -177.5h-406
q6 -77 59.5 -122.5t121.5 -45.5q50 0 93.5 24.5t68.5 66.5l41 -27q-31 -53 -85 -83.5t-118 -30.5q-65 0 -119.5 33t-81.5 90q-20 -54 -66 -88zM442 254h349q-4 64 -54 108.5t-119 44.5q-68 0 -117 -42.5t-59 -110.5zM232 38q76 0 117 44t41 113v13h-181q-41 0 -67.5 -22
t-26.5 -59q0 -39 32 -64t85 -25z" />
    <glyph glyph-name="ccedilla" unicode="&#xe7;" horiz-adv-x="539" 
d="M291 39q47 0 88 22t65 61l44 -28q-31 -48 -81.5 -75.5t-109.5 -29.5l-28 -52q42 5 73 -21.5t31 -63.5q0 -39 -28 -66.5t-77 -27.5q-60 0 -96 46l27 29q32 -34 69 -34q27 0 43 16t16 37q0 19 -16.5 35t-42.5 16q-18 0 -31 -8l-18 29l36 68q-84 12 -141 75.5t-57 155.5
q0 102 69 167.5t165 65.5q61 0 113.5 -27.5t83.5 -76.5l-44 -28q-24 38 -65 60t-88 22q-75 0 -128 -51.5t-53 -131.5q0 -81 53 -132.5t128 -51.5z" />
    <glyph glyph-name="egrave" unicode="&#xe8;" horiz-adv-x="574" 
d="M291 666l54 -132h-38l-79 132h63zM292 -11q-98 0 -166.5 67t-68.5 167q0 99 66.5 166t164.5 67q101 0 169 -71.5t59 -177.5h-405q6 -77 59.5 -122.5t121.5 -45.5q49 0 92.5 24.5t68.5 66.5l41 -27q-31 -53 -85 -83.5t-117 -30.5zM113 254h348q-4 64 -53.5 108.5
t-119.5 44.5q-68 0 -117 -42.5t-58 -110.5z" />
    <glyph glyph-name="eacute" unicode="&#xe9;" horiz-adv-x="574" 
d="M296 534h-38l54 132h63zM292 -11q-98 0 -166.5 67t-68.5 167q0 99 66.5 166t164.5 67q101 0 169 -71.5t59 -177.5h-405q6 -77 59.5 -122.5t121.5 -45.5q49 0 92.5 24.5t68.5 66.5l41 -27q-31 -53 -85 -83.5t-117 -30.5zM113 254h348q-4 64 -53.5 108.5t-119.5 44.5
q-68 0 -117 -42.5t-58 -110.5z" />
    <glyph glyph-name="ecircumflex" unicode="&#xea;" horiz-adv-x="574" 
d="M221 534h-41l96 132h53l96 -132h-40l-82 87zM292 -11q-98 0 -166.5 67t-68.5 167q0 99 66.5 166t164.5 67q101 0 169 -71.5t59 -177.5h-405q6 -77 59.5 -122.5t121.5 -45.5q49 0 92.5 24.5t68.5 66.5l41 -27q-31 -53 -85 -83.5t-117 -30.5zM113 254h348
q-4 64 -53.5 108.5t-119.5 44.5q-68 0 -117 -42.5t-58 -110.5z" />
    <glyph glyph-name="edieresis" unicode="&#xeb;" horiz-adv-x="574" 
d="M223 563q-16 0 -27.5 11.5t-11.5 27.5q0 17 11.5 28.5t27.5 11.5q17 0 29 -11.5t12 -28.5q0 -16 -12 -27.5t-29 -11.5zM410 575q-12 -12 -29 -12t-28 11.5t-11 27.5q0 17 11 28.5t28 11.5t29 -11.5t12 -28.5q0 -16 -12 -27zM292 -11q-98 0 -166.5 67t-68.5 167
q0 99 66.5 166t164.5 67q101 0 169 -71.5t59 -177.5h-405q6 -77 59.5 -122.5t121.5 -45.5q49 0 92.5 24.5t68.5 66.5l41 -27q-31 -53 -85 -83.5t-117 -30.5zM113 254h348q-4 64 -53.5 108.5t-119.5 44.5q-68 0 -117 -42.5t-58 -110.5z" />
    <glyph glyph-name="igrave" unicode="&#xec;" horiz-adv-x="224" 
d="M103 666l54 -132h-38l-79 132h63zM137 0h-50v445h50v-445z" />
    <glyph glyph-name="iacute" unicode="&#xed;" horiz-adv-x="224" 
d="M108 534h-38l54 132h63zM137 0h-50v445h50v-445z" />
    <glyph glyph-name="icircumflex" unicode="&#xee;" horiz-adv-x="224" 
d="M33 534h-41l96 132h53l96 -132h-40l-82 87zM137 0h-50v445h50v-445z" />
    <glyph glyph-name="idieresis" unicode="&#xef;" horiz-adv-x="224" 
d="M35 563q-16 0 -27.5 11.5t-11.5 27.5q0 17 11.5 28.5t27.5 11.5q17 0 29 -11.5t12 -28.5q0 -16 -12 -27.5t-29 -11.5zM222 575q-12 -12 -29 -12t-28 11.5t-11 27.5q0 17 11 28.5t28 11.5t29 -11.5t12 -28.5q0 -16 -12 -27zM137 0h-50v445h50v-445z" />
    <glyph glyph-name="eth" unicode="&#xf0;" horiz-adv-x="582" 
d="M464 622l-105 -34q166 -161 166 -366q0 -102 -68.5 -167.5t-165.5 -65.5q-96 0 -165 65.5t-69 167.5t69 168t165 66q81 0 146 -49q-43 91 -122 166l-150 -49v42l116 38q-68 56 -149 96h68q71 -36 125 -82l139 46v-42zM163 90q53 -51 128 -51t128 51.5t53 131.5
q0 81 -53 132.5t-128 51.5t-128 -51.5t-53 -132.5t53 -132z" />
    <glyph glyph-name="ntilde" unicode="&#xf1;" horiz-adv-x="543" 
d="M347 549q-28 0 -65 34.5t-57 34.5q-44 0 -44 -60h-41q0 50 22 78t56 28q27 0 50 -17.5t41 -35t31 -17.5q44 0 44 61h41q0 -50 -22 -78t-56 -28zM137 0h-50v445h46v-81q13 34 53 63t99 29q81 0 128.5 -49.5t47.5 -124.5v-282h-50v272q0 59 -36 97.5t-98 38.5
q-58 0 -99 -41.5t-41 -109.5v-257z" />
    <glyph glyph-name="ograve" unicode="&#xf2;" horiz-adv-x="582" 
d="M283 666l54 -132h-38l-79 132h63zM291 -11q-96 0 -165 65.5t-69 167.5t69 168t165 66q97 0 165.5 -65.5t68.5 -168.5q0 -102 -68.5 -167.5t-165.5 -65.5zM163 90q53 -51 128 -51t128 51.5t53 131.5q0 81 -53 132.5t-128 51.5t-128 -51.5t-53 -132.5t53 -132z" />
    <glyph glyph-name="oacute" unicode="&#xf3;" horiz-adv-x="582" 
d="M289 534h-38l54 132h63zM291 -11q-96 0 -165 65.5t-69 167.5t69 168t165 66q97 0 165.5 -65.5t68.5 -168.5q0 -102 -68.5 -167.5t-165.5 -65.5zM163 90q53 -51 128 -51t128 51.5t53 131.5q0 81 -53 132.5t-128 51.5t-128 -51.5t-53 -132.5t53 -132z" />
    <glyph glyph-name="ocircumflex" unicode="&#xf4;" horiz-adv-x="582" 
d="M213 534h-41l96 132h53l96 -132h-40l-82 87zM291 -11q-96 0 -165 65.5t-69 167.5t69 168t165 66q97 0 165.5 -65.5t68.5 -168.5q0 -102 -68.5 -167.5t-165.5 -65.5zM163 90q53 -51 128 -51t128 51.5t53 131.5q0 81 -53 132.5t-128 51.5t-128 -51.5t-53 -132.5t53 -132z
" />
    <glyph glyph-name="otilde" unicode="&#xf5;" horiz-adv-x="582" 
d="M355 549q-28 0 -65 34.5t-57 34.5q-44 0 -44 -60h-41q0 50 22 78t56 28q27 0 50 -17.5t41 -35t31 -17.5q44 0 44 61h41q0 -50 -22 -78t-56 -28zM291 -11q-96 0 -165 65.5t-69 167.5t69 168t165 66q97 0 165.5 -65.5t68.5 -168.5q0 -102 -68.5 -167.5t-165.5 -65.5z
M163 90q53 -51 128 -51t128 51.5t53 131.5q0 81 -53 132.5t-128 51.5t-128 -51.5t-53 -132.5t53 -132z" />
    <glyph glyph-name="odieresis" unicode="&#xf6;" horiz-adv-x="582" 
d="M216 563q-16 0 -27.5 11.5t-11.5 27.5q0 17 11.5 28.5t27.5 11.5q17 0 29 -11.5t12 -28.5q0 -16 -12 -27.5t-29 -11.5zM374 563q-16 0 -27.5 11.5t-11.5 27.5q0 17 11 28.5t28 11.5t29 -11.5t12 -28.5q0 -16 -12 -27.5t-29 -11.5zM291 -11q-96 0 -165 65.5t-69 167.5
t69 168t165 66q97 0 165.5 -65.5t68.5 -168.5q0 -102 -68.5 -167.5t-165.5 -65.5zM163 90q53 -51 128 -51t128 51.5t53 131.5q0 81 -53 132.5t-128 51.5t-128 -51.5t-53 -132.5t53 -132z" />
    <glyph glyph-name="divide" unicode="&#xf7;" horiz-adv-x="438" 
d="M254 445q-15 -15 -35 -15t-34.5 14.5t-14.5 34.5q0 21 14.5 35.5t34.5 14.5t34.5 -14.5t14.5 -35.5q0 -20 -14 -34zM428 283h-418v48h418v-48zM254 104q-15 -15 -35 -15t-34.5 15t-14.5 35q0 21 14.5 35t34.5 14t34.5 -14t14.5 -35q0 -20 -14 -35z" />
    <glyph glyph-name="oslash" unicode="&#xf8;" horiz-adv-x="582" 
d="M291 -11q-96 0 -165 65.5t-69 167.5t69 168t165 66q97 0 165.5 -65.5t68.5 -168.5q0 -102 -68.5 -167.5t-165.5 -65.5zM163 90q53 -51 128 -51t128 51.5t53 131.5q0 81 -53 132.5t-128 51.5t-128 -51.5t-53 -132.5t53 -132z" />
    <glyph glyph-name="ugrave" unicode="&#xf9;" horiz-adv-x="525" 
d="M255 666l54 -132h-38l-79 132h63zM401 44q-48 -55 -138 -55t-138 54.5t-48 136.5v265h50v-265q0 -63 36.5 -102.5t99.5 -39.5t99.5 39.5t36.5 102.5v265h50v-265q0 -82 -48 -136z" />
    <glyph glyph-name="uacute" unicode="&#xfa;" horiz-adv-x="525" 
d="M260 534h-38l54 132h63zM401 44q-48 -55 -138 -55t-138 54.5t-48 136.5v265h50v-265q0 -63 36.5 -102.5t99.5 -39.5t99.5 39.5t36.5 102.5v265h50v-265q0 -82 -48 -136z" />
    <glyph glyph-name="ucircumflex" unicode="&#xfb;" horiz-adv-x="525" 
d="M185 534h-41l96 132h53l96 -132h-40l-82 87zM401 44q-48 -55 -138 -55t-138 54.5t-48 136.5v265h50v-265q0 -63 36.5 -102.5t99.5 -39.5t99.5 39.5t36.5 102.5v265h50v-265q0 -82 -48 -136z" />
    <glyph glyph-name="udieresis" unicode="&#xfc;" horiz-adv-x="525" 
d="M187 563q-16 0 -27.5 11.5t-11.5 27.5q0 17 11.5 28.5t27.5 11.5q17 0 29 -11.5t12 -28.5q0 -16 -12 -27.5t-29 -11.5zM374 575q-12 -12 -29 -12t-28 11.5t-11 27.5q0 17 11 28.5t28 11.5t29 -11.5t12 -28.5q0 -16 -12 -27zM401 44q-48 -55 -138 -55t-138 54.5t-48 136.5
v265h50v-265q0 -63 36.5 -102.5t99.5 -39.5t99.5 39.5t36.5 102.5v265h50v-265q0 -82 -48 -136z" />
    <glyph glyph-name="yacute" unicode="&#xfd;" horiz-adv-x="509" 
d="M251 534h-38l54 132h63zM143 -232h-60l138 263l-204 414h57l177 -360l182 360h59z" />
    <glyph glyph-name="thorn" unicode="&#xfe;" horiz-adv-x="604" 
d="M314 456q97 0 165 -65.5t68 -168.5q0 -102 -68 -167.5t-165 -65.5q-53 0 -99.5 24t-77.5 66v-321h-50v942h50v-334q31 42 77.5 66t99.5 24zM314 39q75 0 127.5 51t52.5 132t-52.5 132.5t-127.5 51.5q-74 0 -125.5 -51.5t-51.5 -132.5t51.5 -132t125.5 -51z" />
    <glyph glyph-name="ydieresis" unicode="&#xff;" horiz-adv-x="509" 
d="M178 563q-16 0 -27.5 11.5t-11.5 27.5q0 17 11.5 28.5t27.5 11.5q17 0 29 -11.5t12 -28.5q0 -16 -12 -27.5t-29 -11.5zM336 563q-16 0 -27.5 11.5t-11.5 27.5q0 17 11 28.5t28 11.5t29 -11.5t12 -28.5q0 -16 -12 -27.5t-29 -11.5zM143 -232h-60l138 263l-204 414h57
l177 -360l182 360h59z" />
    <glyph glyph-name="Amacron" unicode="&#x100;" horiz-adv-x="663" 
d="M210 873h252v-43h-252v43zM642 0h-58l-69 170h-367l-69 -170h-57l288 700h46zM332 622l-164 -402h327z" />
    <glyph glyph-name="amacron" unicode="&#x101;" horiz-adv-x="521" 
d="M384 580h-252v43h252v-43zM232 -11q-76 0 -123 40t-47 101q0 58 41.5 93t105.5 35h129q23 0 36.5 12.5t13.5 32.5q0 40 -35.5 72.5t-96.5 32.5q-102 0 -138 -93l-40 26q21 52 66 83.5t112 31.5q84 0 134 -48.5t50 -116.5v-291h-46v87q-11 -33 -53.5 -65.5t-108.5 -32.5z
M232 38q75 0 116.5 44.5t41.5 112.5v19h-181q-42 0 -68 -23.5t-26 -60.5q0 -40 32 -66t85 -26z" />
    <glyph glyph-name="Abreve" unicode="&#x102;" horiz-adv-x="663" 
d="M332 786q-55 0 -89.5 36.5t-34.5 91.5h41q0 -39 23 -64t60 -25t59.5 25t22.5 64h41q0 -55 -35 -91.5t-88 -36.5zM642 0h-58l-69 170h-367l-69 -170h-57l288 700h46zM332 622l-164 -402h327z" />
    <glyph glyph-name="abreve" unicode="&#x103;" horiz-adv-x="521" 
d="M254 536q-55 0 -89.5 36.5t-34.5 91.5h41q0 -39 23 -64t60 -25t59.5 25t22.5 64h41q0 -55 -35 -91.5t-88 -36.5zM232 -11q-76 0 -123 40t-47 101q0 58 41.5 93t105.5 35h129q23 0 36.5 12.5t13.5 32.5q0 40 -35.5 72.5t-96.5 32.5q-102 0 -138 -93l-40 26q21 52 66 83.5
t112 31.5q84 0 134 -48.5t50 -116.5v-291h-46v87q-11 -33 -53.5 -65.5t-108.5 -32.5zM232 38q75 0 116.5 44.5t41.5 112.5v19h-181q-42 0 -68 -23.5t-26 -60.5q0 -40 32 -66t85 -26z" />
    <glyph glyph-name="Aogonek" unicode="&#x104;" horiz-adv-x="663" 
d="M647 -187l14 -40q-26 -15 -66 -15q-43 0 -75.5 30t-32.5 82q0 46 28 81.5t66 54.5l-66 164h-367l-69 -170h-57l288 700h46l286 -700q-38 -15 -70 -47.5t-32 -74.5q0 -35 21 -53.5t47 -18.5q18 0 39 7zM332 622l-164 -402h327z" />
    <glyph glyph-name="aogonek" unicode="&#x105;" horiz-adv-x="521" 
d="M445 -187l14 -40q-26 -15 -66 -15q-43 0 -75.5 30t-32.5 82q0 51 33 88.5t76 54.5v74q-11 -33 -53.5 -65.5t-108.5 -32.5q-76 0 -123 40t-47 101q0 58 41.5 93t105.5 35h129q23 0 36.5 12.5t13.5 32.5q0 40 -35.5 72.5t-96.5 32.5q-102 0 -138 -93l-40 26q21 52 66 83.5
t112 31.5q84 0 134 -48.5t50 -116.5v-291q-38 -15 -70 -47.5t-32 -74.5q0 -35 21 -53.5t47 -18.5q18 0 39 7zM390 195v19h-181q-42 0 -68 -23.5t-26 -60.5q0 -40 32 -66t85 -26q75 0 116.5 44.5t41.5 112.5z" />
    <glyph glyph-name="Cacute" unicode="&#x106;" horiz-adv-x="767" 
d="M416 784h-38l54 132h63zM416 -10q-150 0 -253 104.5t-103 255.5t103 255.5t253 104.5q91 0 167.5 -41t123.5 -111l-44 -30q-39 59 -104.5 94t-142.5 35q-128 0 -214 -88.5t-86 -218.5t86 -218.5t214 -88.5q77 0 142 35t104 93l44 -30q-47 -70 -123 -110.5t-167 -40.5z
" />
    <glyph glyph-name="cacute" unicode="&#x107;" horiz-adv-x="539" 
d="M287 534h-38l54 132h63zM291 -11q-96 0 -165 66t-69 168t69 167.5t165 65.5q61 0 113.5 -27.5t83.5 -76.5l-44 -28q-24 38 -65 60t-88 22q-75 0 -128 -51.5t-53 -131.5q0 -81 53 -132.5t128 -51.5q47 0 88 22t65 61l44 -28q-31 -49 -83.5 -77t-113.5 -28z" />
    <glyph glyph-name="Ccircumflex" unicode="&#x108;" horiz-adv-x="767" 
d="M341 784h-41l96 132h53l96 -132h-40l-82 87zM416 -10q-150 0 -253 104.5t-103 255.5t103 255.5t253 104.5q91 0 167.5 -41t123.5 -111l-44 -30q-39 59 -104.5 94t-142.5 35q-128 0 -214 -88.5t-86 -218.5t86 -218.5t214 -88.5q77 0 142 35t104 93l44 -30
q-47 -70 -123 -110.5t-167 -40.5z" />
    <glyph glyph-name="ccircumflex" unicode="&#x109;" horiz-adv-x="539" 
d="M211 534h-41l96 132h53l96 -132h-40l-82 87zM291 -11q-96 0 -165 66t-69 168t69 167.5t165 65.5q61 0 113.5 -27.5t83.5 -76.5l-44 -28q-24 38 -65 60t-88 22q-75 0 -128 -51.5t-53 -131.5q0 -81 53 -132.5t128 -51.5q47 0 88 22t65 61l44 -28q-31 -49 -83.5 -77
t-113.5 -28z" />
    <glyph glyph-name="Cdotaccent" unicode="&#x10a;" horiz-adv-x="767" 
d="M419 818q-17 0 -29 12t-12 29q0 18 12 30t29 12q18 0 30.5 -12t12.5 -30q0 -17 -12.5 -29t-30.5 -12zM416 -10q-150 0 -253 104.5t-103 255.5t103 255.5t253 104.5q91 0 167.5 -41t123.5 -111l-44 -30q-39 59 -104.5 94t-142.5 35q-128 0 -214 -88.5t-86 -218.5
t86 -218.5t214 -88.5q77 0 142 35t104 93l44 -30q-47 -70 -123 -110.5t-167 -40.5z" />
    <glyph glyph-name="cdotaccent" unicode="&#x10b;" horiz-adv-x="539" 
d="M290 568q-17 0 -29 12t-12 29q0 18 12 30t29 12q18 0 30.5 -12t12.5 -30q0 -17 -12.5 -29t-30.5 -12zM291 -11q-96 0 -165 66t-69 168t69 167.5t165 65.5q61 0 113.5 -27.5t83.5 -76.5l-44 -28q-24 38 -65 60t-88 22q-75 0 -128 -51.5t-53 -131.5q0 -81 53 -132.5
t128 -51.5q47 0 88 22t65 61l44 -28q-31 -49 -83.5 -77t-113.5 -28z" />
    <glyph glyph-name="Ccaron" unicode="&#x10c;" horiz-adv-x="767" 
d="M394 784l-96 132h41l82 -87l82 87h40l-96 -132h-53zM416 -10q-150 0 -253 104.5t-103 255.5t103 255.5t253 104.5q91 0 167.5 -41t123.5 -111l-44 -30q-39 59 -104.5 94t-142.5 35q-128 0 -214 -88.5t-86 -218.5t86 -218.5t214 -88.5q77 0 142 35t104 93l44 -30
q-47 -70 -123 -110.5t-167 -40.5z" />
    <glyph glyph-name="ccaron" unicode="&#x10d;" horiz-adv-x="539" 
d="M265 534l-96 132h41l82 -87l82 87h40l-96 -132h-53zM291 -11q-96 0 -165 66t-69 168t69 167.5t165 65.5q61 0 113.5 -27.5t83.5 -76.5l-44 -28q-24 38 -65 60t-88 22q-75 0 -128 -51.5t-53 -131.5q0 -81 53 -132.5t128 -51.5q47 0 88 22t65 61l44 -28q-31 -49 -83.5 -77
t-113.5 -28z" />
    <glyph glyph-name="Dcaron" unicode="&#x10e;" horiz-adv-x="743" 
d="M332 784l-96 132h41l82 -87l82 87h40l-96 -132h-53zM335 0h-223v700h223q146 0 247 -102t101 -247q0 -146 -101 -248.5t-247 -102.5zM165 650v-600h159q131 0 217 86.5t86 214.5q0 127 -86 213t-217 86h-159z" />
    <glyph glyph-name="dcaron" unicode="&#x10f;" horiz-adv-x="600" 
d="M467 365v335h50v-700h-50v80q-31 -43 -77.5 -67t-100.5 -24q-96 0 -164 65.5t-68 167.5q0 103 68 168.5t164 65.5q54 0 100.5 -24t77.5 -67zM582 548l8 152h55l-26 -152h-37zM162 90q52 -51 127 -51t126.5 51t51.5 132t-52 132.5t-126 51.5q-75 0 -127 -51.5t-52 -132.5
t52 -132z" />
    <glyph glyph-name="Dcroat" unicode="&#x110;" horiz-adv-x="743" 
d="M112 700h223q146 0 247 -102t101 -247q0 -146 -101 -248.5t-247 -102.5h-223v336h-77v46h77v318zM165 50h159q131 0 217 86.5t86 214.5q0 127 -86 213t-217 86h-159v-268h220v-46h-220v-286z" />
    <glyph glyph-name="dcroat" unicode="&#x111;" horiz-adv-x="596" 
d="M517 603h65v-46h-65v-557h-50v80q-31 -43 -77.5 -67t-100.5 -24q-96 0 -164 65.5t-68 167.5q0 103 68 168.5t164 65.5q54 0 100.5 -24t77.5 -67v192h-180v46h180v97h50v-97zM162 90q52 -51 127 -51t126.5 51t51.5 132t-52 132.5t-126 51.5q-75 0 -127 -51.5t-52 -132.5
t52 -132z" />
    <glyph glyph-name="Emacron" unicode="&#x112;" horiz-adv-x="607" 
d="M466 830h-252v43h252v-43zM530 0h-418v700h418v-50h-365v-264h336v-49h-336v-287h365v-50z" />
    <glyph glyph-name="emacron" unicode="&#x113;" horiz-adv-x="574" 
d="M430 580h-252v43h252v-43zM292 -11q-98 0 -166.5 67t-68.5 167q0 99 66.5 166t164.5 67q101 0 169 -71.5t59 -177.5h-405q6 -77 59.5 -122.5t121.5 -45.5q49 0 92.5 24.5t68.5 66.5l41 -27q-31 -53 -85 -83.5t-117 -30.5zM113 254h348q-4 64 -53.5 108.5t-119.5 44.5
q-68 0 -117 -42.5t-58 -110.5z" />
    <glyph glyph-name="Ebreve" unicode="&#x114;" horiz-adv-x="607" 
d="M335 786q-55 0 -89.5 36.5t-34.5 91.5h41q0 -39 23 -64t60 -25t59.5 25t22.5 64h41q0 -55 -35 -91.5t-88 -36.5zM530 0h-418v700h418v-50h-365v-264h336v-49h-336v-287h365v-50z" />
    <glyph glyph-name="ebreve" unicode="&#x115;" horiz-adv-x="574" 
d="M300 536q-55 0 -89.5 36.5t-34.5 91.5h41q0 -39 23 -64t60 -25t59.5 25t22.5 64h41q0 -55 -35 -91.5t-88 -36.5zM292 -11q-98 0 -166.5 67t-68.5 167q0 99 66.5 166t164.5 67q101 0 169 -71.5t59 -177.5h-405q6 -77 59.5 -122.5t121.5 -45.5q49 0 92.5 24.5t68.5 66.5
l41 -27q-31 -53 -85 -83.5t-117 -30.5zM113 254h348q-4 64 -53.5 108.5t-119.5 44.5q-68 0 -117 -42.5t-58 -110.5z" />
    <glyph glyph-name="Edotaccent" unicode="&#x116;" horiz-adv-x="607" 
d="M335 818q-17 0 -29 12t-12 29q0 18 12 30t29 12q18 0 30.5 -12t12.5 -30q0 -17 -12.5 -29t-30.5 -12zM530 0h-418v700h418v-50h-365v-264h336v-49h-336v-287h365v-50z" />
    <glyph glyph-name="edotaccent" unicode="&#x117;" horiz-adv-x="574" 
d="M299 568q-17 0 -29 12t-12 29q0 18 12 30t29 12q18 0 30.5 -12t12.5 -30q0 -17 -12.5 -29t-30.5 -12zM292 -11q-98 0 -166.5 67t-68.5 167q0 99 66.5 166t164.5 67q101 0 169 -71.5t59 -177.5h-405q6 -77 59.5 -122.5t121.5 -45.5q49 0 92.5 24.5t68.5 66.5l41 -27
q-31 -53 -85 -83.5t-117 -30.5zM113 254h348q-4 64 -53.5 108.5t-119.5 44.5q-68 0 -117 -42.5t-58 -110.5z" />
    <glyph glyph-name="Eogonek" unicode="&#x118;" horiz-adv-x="607" 
d="M535 -187l14 -40q-26 -15 -66 -15q-43 0 -75.5 30t-32.5 82q0 43 24 76.5t59 53.5h-346v700h418v-50h-365v-264h336v-49h-336v-287h365v-50q-38 -15 -70 -47.5t-32 -74.5q0 -35 21 -53.5t47 -18.5q18 0 39 7z" />
    <glyph glyph-name="eogonek" unicode="&#x119;" horiz-adv-x="574" 
d="M288 456q101 0 169 -71.5t59 -177.5h-405q6 -77 59.5 -122.5t121.5 -45.5q49 0 92.5 24.5t68.5 66.5l41 -27q-44 -76 -131 -103q-38 -16 -69.5 -48t-31.5 -74q0 -35 21 -53.5t47 -18.5q18 0 39 7l14 -40q-26 -15 -66 -15q-43 0 -75.5 30t-32.5 82q0 72 67 120
q-93 6 -156 72t-63 161q0 99 66.5 166t164.5 67zM113 254h348q-4 64 -53.5 108.5t-119.5 44.5q-68 0 -117 -42.5t-58 -110.5z" />
    <glyph glyph-name="Ecaron" unicode="&#x11a;" horiz-adv-x="607" 
d="M309 784l-96 132h41l82 -87l82 87h40l-96 -132h-53zM530 0h-418v700h418v-50h-365v-264h336v-49h-336v-287h365v-50z" />
    <glyph glyph-name="ecaron" unicode="&#x11b;" horiz-adv-x="574" 
d="M274 534l-96 132h41l82 -87l82 87h40l-96 -132h-53zM292 -11q-98 0 -166.5 67t-68.5 167q0 99 66.5 166t164.5 67q101 0 169 -71.5t59 -177.5h-405q6 -77 59.5 -122.5t121.5 -45.5q49 0 92.5 24.5t68.5 66.5l41 -27q-31 -53 -85 -83.5t-117 -30.5zM113 254h348
q-4 64 -53.5 108.5t-119.5 44.5q-68 0 -117 -42.5t-58 -110.5z" />
    <glyph glyph-name="Gcircumflex" unicode="&#x11c;" horiz-adv-x="834" 
d="M338 784h-41l96 132h53l96 -132h-40l-82 87zM416 -10q-150 0 -253 104.5t-103 255.5t103 255.5t253 104.5q91 0 167.5 -41t123.5 -111l-47 -30q-39 60 -102.5 94.5t-141.5 34.5q-128 0 -214 -88.5t-86 -218.5t86 -218.5t214 -88.5q118 0 200 71t97 182h-302v50h363v-4
q0 -149 -101.5 -250.5t-256.5 -101.5z" />
    <glyph glyph-name="gcircumflex" unicode="&#x11d;" 
d="M374 534l-82 87l-82 -87h-41l96 132h53l96 -132h-40zM467 365v80h50v-448q0 -105 -62 -172t-166 -67q-68 0 -124 30.5t-87 84.5l45 28q22 -42 67 -67.5t99 -25.5q82 0 130 52.5t48 136.5v83q-31 -43 -77.5 -67t-100.5 -24q-96 0 -164 65.5t-68 167.5q0 103 68 168.5
t164 65.5q54 0 100.5 -24t77.5 -67zM162 90q52 -51 127 -51t126.5 51t51.5 132t-52 132.5t-126 51.5q-75 0 -127 -51.5t-52 -132.5t52 -132z" />
    <glyph glyph-name="Gbreve" unicode="&#x11e;" horiz-adv-x="834" 
d="M417 786q-55 0 -89.5 36.5t-34.5 91.5h41q0 -39 23 -64t60 -25t59.5 25t22.5 64h41q0 -55 -35 -91.5t-88 -36.5zM416 -10q-150 0 -253 104.5t-103 255.5t103 255.5t253 104.5q91 0 167.5 -41t123.5 -111l-47 -30q-39 60 -102.5 94.5t-141.5 34.5q-128 0 -214 -88.5
t-86 -218.5t86 -218.5t214 -88.5q118 0 200 71t97 182h-302v50h363v-4q0 -149 -101.5 -250.5t-256.5 -101.5z" />
    <glyph glyph-name="gbreve" unicode="&#x11f;" 
d="M289 536q-55 0 -89.5 36.5t-34.5 91.5h41q0 -39 23 -64t60 -25t59.5 25t22.5 64h41q0 -55 -35 -91.5t-88 -36.5zM467 365v80h50v-448q0 -105 -62 -172t-166 -67q-68 0 -124 30.5t-87 84.5l45 28q22 -42 67 -67.5t99 -25.5q82 0 130 52.5t48 136.5v83q-31 -43 -77.5 -67
t-100.5 -24q-96 0 -164 65.5t-68 167.5q0 103 68 168.5t164 65.5q54 0 100.5 -24t77.5 -67zM162 90q52 -51 127 -51t126.5 51t51.5 132t-52 132.5t-126 51.5q-75 0 -127 -51.5t-52 -132.5t52 -132z" />
    <glyph glyph-name="Gdotaccent" unicode="&#x120;" horiz-adv-x="834" 
d="M416 818q-17 0 -29 12t-12 29q0 18 12 30t29 12q18 0 30.5 -12t12.5 -30q0 -17 -12.5 -29t-30.5 -12zM416 -10q-150 0 -253 104.5t-103 255.5t103 255.5t253 104.5q91 0 167.5 -41t123.5 -111l-47 -30q-39 60 -102.5 94.5t-141.5 34.5q-128 0 -214 -88.5t-86 -218.5
t86 -218.5t214 -88.5q118 0 200 71t97 182h-302v50h363v-4q0 -149 -101.5 -250.5t-256.5 -101.5z" />
    <glyph glyph-name="gdotaccent" unicode="&#x121;" 
d="M289 568q-17 0 -29 12t-12 29q0 18 12 30t29 12q18 0 30.5 -12t12.5 -30q0 -17 -12.5 -29t-30.5 -12zM467 365v80h50v-448q0 -105 -62 -172t-166 -67q-68 0 -124 30.5t-87 84.5l45 28q22 -42 67 -67.5t99 -25.5q82 0 130 52.5t48 136.5v83q-31 -43 -77.5 -67t-100.5 -24
q-96 0 -164 65.5t-68 167.5q0 103 68 168.5t164 65.5q54 0 100.5 -24t77.5 -67zM162 90q52 -51 127 -51t126.5 51t51.5 132t-52 132.5t-126 51.5q-75 0 -127 -51.5t-52 -132.5t52 -132z" />
    <glyph glyph-name="uni0122" unicode="&#x122;" horiz-adv-x="834" 
d="M416 -10q-150 0 -253 104.5t-103 255.5t103 255.5t253 104.5q91 0 167.5 -41t123.5 -111l-47 -30q-39 60 -102.5 94.5t-141.5 34.5q-128 0 -214 -88.5t-86 -218.5t86 -218.5t214 -88.5q118 0 200 71t97 182h-302v50h363v-4q0 -149 -101.5 -250.5t-256.5 -101.5zM450 -98
q0 -8 -3 -15l-43 -103h-33l32 82q-14 2 -23.5 12.5t-9.5 25.5q0 16 11.5 27t27.5 11q17 0 29 -10.5t12 -29.5z" />
    <glyph glyph-name="uni0123" unicode="&#x123;" 
d="M295 515q-17 0 -29 10.5t-12 29.5q0 7 3 15l44 103h33l-33 -82q14 -2 23.5 -12t9.5 -26t-11.5 -27t-27.5 -11zM467 365v80h50v-448q0 -105 -62 -172t-166 -67q-68 0 -124 30.5t-87 84.5l45 28q22 -42 67 -67.5t99 -25.5q82 0 130 52.5t48 136.5v83q-31 -43 -77.5 -67
t-100.5 -24q-96 0 -164 65.5t-68 167.5q0 103 68 168.5t164 65.5q54 0 100.5 -24t77.5 -67zM162 90q52 -51 127 -51t126.5 51t51.5 132t-52 132.5t-126 51.5q-75 0 -127 -51.5t-52 -132.5t52 -132z" />
    <glyph glyph-name="Hcircumflex" unicode="&#x124;" horiz-adv-x="770" 
d="M474 784l-82 87l-82 -87h-41l96 132h53l96 -132h-40zM605 383v317h53v-700h-53v333h-440v-333h-53v700h53v-317h440z" />
    <glyph glyph-name="hcircumflex" unicode="&#x125;" horiz-adv-x="543" 
d="M37 748h-41l96 132h53l96 -132h-40l-82 87zM137 0h-50v700h50v-329q15 33 54 59t94 26q81 0 128.5 -49.5t47.5 -124.5v-282h-50v272q0 59 -36 97.5t-98 38.5q-58 0 -99 -41.5t-41 -109.5v-257z" />
    <glyph glyph-name="Hbar" unicode="&#x126;" horiz-adv-x="770" 
d="M661 583h71v-46h-71v-537h-53v333h-440v-333h-53v537h-77v46h77v117h53v-117h440v117h53v-117zM168 383h440v154h-440v-154z" />
    <glyph glyph-name="hbar" unicode="&#x127;" horiz-adv-x="543" 
d="M285 456q81 0 128.5 -49.5t47.5 -124.5v-282h-50v272q0 59 -36 97.5t-98 38.5q-58 0 -99 -41.5t-41 -109.5v-257h-50v557h-69v46h69v97h50v-97h176v-46h-176v-186q15 33 54 59t94 26z" />
    <glyph glyph-name="Itilde" unicode="&#x128;" horiz-adv-x="475" 
d="M178 868q-44 0 -44 -60h-41q0 50 22 78t56 28q27 0 50 -17.5t41 -35t31 -17.5q44 0 44 61h41q0 -50 -22 -78t-56 -28q-28 0 -65 34.5t-57 34.5zM107 700h261v-50h-104v-600h104v-50h-261v50h104v600h-104v50z" />
    <glyph glyph-name="itilde" unicode="&#x129;" horiz-adv-x="224" 
d="M175 549q-28 0 -65 34.5t-57 34.5q-44 0 -44 -60h-41q0 50 22 78t56 28q27 0 50 -17.5t41 -35t31 -17.5q44 0 44 61h41q0 -50 -22 -78t-56 -28zM137 0h-50v445h50v-445z" />
    <glyph glyph-name="Imacron" unicode="&#x12a;" horiz-adv-x="475" 
d="M116 830v43h252v-43h-252zM107 700h261v-50h-104v-600h104v-50h-261v50h104v600h-104v50z" />
    <glyph glyph-name="imacron" unicode="&#x12b;" horiz-adv-x="224" 
d="M243 580h-252v43h252v-43zM137 0h-50v445h50v-445z" />
    <glyph glyph-name="Ibreve" unicode="&#x12c;" horiz-adv-x="475" 
d="M237 786q-55 0 -89.5 36.5t-34.5 91.5h41q0 -39 23 -64t60 -25t59.5 25t22.5 64h41q0 -55 -35 -91.5t-88 -36.5zM368 700v-50h-104v-600h104v-50h-261v50h104v600h-104v50h261z" />
    <glyph glyph-name="ibreve" unicode="&#x12d;" horiz-adv-x="224" 
d="M112 536q-55 0 -89.5 36.5t-34.5 91.5h41q0 -39 23 -64t60 -25t59.5 25t22.5 64h41q0 -55 -35 -91.5t-88 -36.5zM137 0h-50v445h50v-445z" />
    <glyph glyph-name="Iogonek" unicode="&#x12e;" horiz-adv-x="475" 
d="M373 -187l14 -40q-26 -15 -66 -15q-43 0 -75.5 30t-32.5 82q0 43 24 76.5t59 53.5h-189v50h104v600h-104v50h261v-50h-104v-600h104v-50q-38 -15 -70 -47.5t-32 -74.5q0 -35 21 -53.5t47 -18.5q18 0 39 7z" />
    <glyph glyph-name="iogonek" unicode="&#x12f;" horiz-adv-x="224" 
d="M112 568q-17 0 -29 12t-12 29q0 18 12 30t29 12q18 0 30.5 -12t12.5 -30q0 -17 -12.5 -29t-30.5 -12zM142 -187l14 -40q-26 -15 -66 -15q-43 0 -75.5 30t-32.5 82q0 50 32 87t73 54v434h50v-445q-38 -15 -70 -47.5t-32 -74.5q0 -35 21 -53.5t47 -18.5q18 0 39 7z" />
    <glyph glyph-name="Idotaccent" unicode="&#x130;" horiz-adv-x="475" 
d="M237 818q-17 0 -29 12t-12 29q0 18 12 30t29 12q18 0 30.5 -12t12.5 -30q0 -17 -12.5 -29t-30.5 -12zM368 700v-50h-104v-600h104v-50h-261v50h104v600h-104v50h261z" />
    <glyph glyph-name="dotlessi" unicode="&#x131;" horiz-adv-x="224" 
d="M137 0h-50v445h50v-445z" />
    <glyph glyph-name="IJ" unicode="&#x132;" horiz-adv-x="1019" 
d="M107 700h261v-50h-104v-600h104v-50h-261v50h104v600h-104v50zM868 221v479h54v-478q0 -103 -59 -167.5t-160 -64.5q-72 0 -125 39t-76 93l43 31q14 -42 57.5 -76t100.5 -34q74 0 119.5 47.5t45.5 130.5z" />
    <glyph glyph-name="ij" unicode="&#x133;" horiz-adv-x="434" 
d="M142 586q-13 -12 -30 -12t-29.5 12t-12.5 30q0 17 12.5 29.5t29.5 12.5t29.5 -12.5t12.5 -29.5q0 -18 -12 -30zM360 586q-13 -12 -30 -12t-29.5 12t-12.5 30q0 17 12.5 29.5t29.5 12.5t29.5 -12.5t12.5 -29.5q0 -18 -12 -30zM137 0h-50v445h50v-445zM196 -232v49
q50 0 79.5 33.5t29.5 86.5v508h50v-508q0 -74 -44 -121.5t-115 -47.5z" />
    <glyph glyph-name="Jcircumflex" unicode="&#x134;" horiz-adv-x="554" 
d="M350 784h-41l96 132h53l96 -132h-40l-82 87zM238 -10q-72 0 -125 39t-76 93l43 31q14 -42 57.5 -76t100.5 -34q74 0 119.5 47.5t45.5 130.5v479h54v-478q0 -103 -59 -167.5t-160 -64.5z" />
    <glyph glyph-name="jcircumflex" unicode="&#x135;" horiz-adv-x="217" 
d="M31 534h-41l96 132h53l96 -132h-40l-82 87zM-22 -232v49q51 0 80 33.5t29 86.5v508h50v-508q0 -74 -43.5 -121.5t-115.5 -47.5z" />
    <glyph glyph-name="uni0136" unicode="&#x136;" horiz-adv-x="620" 
d="M588 700l-361 -332l367 -368h-73l-356 357v-357h-53v700h53v-322l350 322h73zM349 -58q17 0 29 -10.5t12 -29.5q0 -8 -3 -15l-43 -103h-33l32 82q-14 2 -23.5 12.5t-9.5 25.5q0 16 11.5 27t27.5 11z" />
    <glyph glyph-name="uni0137" unicode="&#x137;" horiz-adv-x="465" 
d="M425 445l-229 -194l251 -251h-72l-238 239v-239h-50v700h50v-439l215 184h73zM251 -58q17 0 29 -10.5t12 -29.5q0 -8 -3 -15l-43 -103h-33l32 82q-14 2 -23.5 12.5t-9.5 25.5q0 16 11.5 27t27.5 11z" />
    <glyph glyph-name="kgreenlandic" unicode="&#x138;" horiz-adv-x="465" 
d="M196 248l251 -248h-72l-238 236v-236h-50v445h50v-187l215 187h73z" />
    <glyph glyph-name="Lacute" unicode="&#x139;" horiz-adv-x="537" 
d="M139 784h-38l54 132h63zM500 0h-388v700h53v-649h335v-51z" />
    <glyph glyph-name="lacute" unicode="&#x13a;" horiz-adv-x="264" 
d="M106 748h-38l54 132h63zM217 -7h-5q-60 0 -95 34t-35 102v571h50v-571q0 -42 22 -64.5t63 -22.5v-49z" />
    <glyph glyph-name="uni013B" unicode="&#x13b;" horiz-adv-x="537" 
d="M500 0h-388v700h53v-649h335v-51zM358 -98q0 -8 -3 -15l-43 -103h-33l32 82q-14 2 -23.5 12.5t-9.5 25.5q0 16 11.5 27t27.5 11q17 0 29 -10.5t12 -29.5z" />
    <glyph glyph-name="uni013C" unicode="&#x13c;" horiz-adv-x="264" 
d="M217 -7h-5q-60 0 -95 34t-35 102v571h50v-571q0 -42 22 -64.5t63 -22.5v-49zM189 -98q0 -8 -3 -15l-43 -103h-33l32 82q-14 2 -23.5 12.5t-9.5 25.5q0 16 11.5 27t27.5 11q17 0 29 -10.5t12 -29.5z" />
    <glyph glyph-name="Lcaron" unicode="&#x13d;" horiz-adv-x="537" 
d="M500 0h-388v700h53v-649h335v-51zM391 548h-37l8 152h55z" />
    <glyph glyph-name="lcaron" unicode="&#x13e;" horiz-adv-x="271" 
d="M217 -7h-5q-60 0 -95 34t-35 102v571h50v-571q0 -42 22 -64.5t63 -22.5v-49zM232 548h-37l8 152h55z" />
    <glyph glyph-name="Ldot" unicode="&#x13f;" horiz-adv-x="537" 
d="M500 0h-388v700h53v-649h335v-51zM361 306q-18 0 -31.5 13t-13.5 32t13.5 32t31.5 13q19 0 32 -13t13 -32t-13 -32t-32 -13z" />
    <glyph glyph-name="ldot" unicode="&#x140;" horiz-adv-x="297" 
d="M217 -7h-5q-60 0 -95 34t-35 102v571h50v-571q0 -42 22 -64.5t63 -22.5v-49zM276 314q-13 -13 -32 -13t-32 13t-13 32t13 32t32 13t32 -13t13 -32t-13 -32z" />
    <glyph glyph-name="Lslash" unicode="&#x141;" horiz-adv-x="537" 
d="M165 297v-246h335v-51h-388v270l-87 -45v49l87 45v381h53v-354l260 134v-49z" />
    <glyph glyph-name="lslash" unicode="&#x142;" horiz-adv-x="328" 
d="M291 475v-52l-109 -78v-216q0 -42 22 -64.5t63 -22.5v-49h-5q-60 0 -95 34t-35 102v181l-75 -54v53l75 53v338h50v-302z" />
    <glyph glyph-name="Nacute" unicode="&#x143;" horiz-adv-x="745" 
d="M380 784h-38l54 132h63zM633 -15h-1l-469 625v-610h-51v700h46l424 -566v566h51v-715z" />
    <glyph glyph-name="nacute" unicode="&#x144;" horiz-adv-x="543" 
d="M280 534h-38l54 132h63zM137 0h-50v445h46v-81q13 34 53 63t99 29q81 0 128.5 -49.5t47.5 -124.5v-282h-50v272q0 59 -36 97.5t-98 38.5q-58 0 -99 -41.5t-41 -109.5v-257z" />
    <glyph glyph-name="uni0145" unicode="&#x145;" horiz-adv-x="745" 
d="M633 -15h-1l-469 625v-610h-51v700h46l424 -566v566h51v-715zM425 -98q0 -8 -3 -15l-43 -103h-33l32 82q-14 2 -23.5 12.5t-9.5 25.5q0 16 11.5 27t27.5 11q17 0 29 -10.5t12 -29.5z" />
    <glyph glyph-name="uni0146" unicode="&#x146;" horiz-adv-x="543" 
d="M137 0h-50v445h46v-81q13 34 53 63t99 29q81 0 128.5 -49.5t47.5 -124.5v-282h-50v272q0 59 -36 97.5t-98 38.5q-58 0 -99 -41.5t-41 -109.5v-257zM315 -98q0 -8 -3 -15l-43 -103h-33l32 82q-14 2 -23.5 12.5t-9.5 25.5q0 16 11.5 27t27.5 11q17 0 29 -10.5t12 -29.5z
" />
    <glyph glyph-name="Ncaron" unicode="&#x147;" horiz-adv-x="745" 
d="M358 784l-96 132h41l82 -87l82 87h40l-96 -132h-53zM633 -15h-1l-469 625v-610h-51v700h46l424 -566v566h51v-715z" />
    <glyph glyph-name="ncaron" unicode="&#x148;" horiz-adv-x="543" 
d="M258 534l-96 132h41l82 -87l82 87h40l-96 -132h-53zM137 0h-50v445h46v-81q13 34 53 63t99 29q81 0 128.5 -49.5t47.5 -124.5v-282h-50v272q0 59 -36 97.5t-98 38.5q-58 0 -99 -41.5t-41 -109.5v-257z" />
    <glyph glyph-name="napostrophe" unicode="&#x149;" horiz-adv-x="543" 
d="M77 583q0 -7 -3 -15l-43 -103h-33l32 82q-14 2 -23.5 12.5t-9.5 25.5q0 16 11.5 27t27.5 11q17 0 29 -10.5t12 -29.5zM137 0h-50v445h46v-81q13 34 53 63t99 29q81 0 128.5 -49.5t47.5 -124.5v-282h-50v272q0 59 -36 97.5t-98 38.5q-58 0 -99 -41.5t-41 -109.5v-257z" />
    <glyph glyph-name="Eng" unicode="&#x14a;" horiz-adv-x="745" 
d="M421 -210v53q71 0 116 44t45 126v41l-419 556v-610h-51v700h46l424 -562v562h51v-686q0 -101 -57 -162.5t-155 -61.5z" />
    <glyph glyph-name="eng" unicode="&#x14b;" horiz-adv-x="543" 
d="M302 -232v49q51 0 80 33.5t29 86.5v335q0 59 -36 97.5t-98 38.5q-58 0 -99 -41.5t-41 -109.5v-257h-50v445h46v-81q13 34 53 63t99 29q81 0 128.5 -49.5t47.5 -124.5v-345q0 -74 -43.5 -121.5t-115.5 -47.5z" />
    <glyph glyph-name="Omacron" unicode="&#x14c;" horiz-adv-x="832" 
d="M549 830h-252v43h252v-43zM669 95q-103 -105 -253 -105t-253 104.5t-103 255.5t103 255.5t253 104.5t253 -105t103 -255t-103 -255zM416 43q127 0 213.5 89t86.5 218t-86.5 218t-213.5 89q-128 0 -213.5 -88.5t-85.5 -218.5t85.5 -218.5t213.5 -88.5z" />
    <glyph glyph-name="omacron" unicode="&#x14d;" horiz-adv-x="582" 
d="M423 580h-252v43h252v-43zM291 -11q-96 0 -165 65.5t-69 167.5t69 168t165 66q97 0 165.5 -65.5t68.5 -168.5q0 -102 -68.5 -167.5t-165.5 -65.5zM163 90q53 -51 128 -51t128 51.5t53 131.5q0 81 -53 132.5t-128 51.5t-128 -51.5t-53 -132.5t53 -132z" />
    <glyph glyph-name="Obreve" unicode="&#x14e;" horiz-adv-x="832" 
d="M419 786q-55 0 -89.5 36.5t-34.5 91.5h41q0 -39 23 -64t60 -25t59.5 25t22.5 64h41q0 -55 -35 -91.5t-88 -36.5zM669 95q-103 -105 -253 -105t-253 104.5t-103 255.5t103 255.5t253 104.5t253 -105t103 -255t-103 -255zM416 43q127 0 213.5 89t86.5 218t-86.5 218
t-213.5 89q-128 0 -213.5 -88.5t-85.5 -218.5t85.5 -218.5t213.5 -88.5z" />
    <glyph glyph-name="obreve" unicode="&#x14f;" horiz-adv-x="582" 
d="M292 536q-55 0 -89.5 36.5t-34.5 91.5h41q0 -39 23 -64t60 -25t59.5 25t22.5 64h41q0 -55 -35 -91.5t-88 -36.5zM291 -11q-96 0 -165 65.5t-69 167.5t69 168t165 66q97 0 165.5 -65.5t68.5 -168.5q0 -102 -68.5 -167.5t-165.5 -65.5zM163 90q53 -51 128 -51t128 51.5
t53 131.5q0 81 -53 132.5t-128 51.5t-128 -51.5t-53 -132.5t53 -132z" />
    <glyph glyph-name="Ohungarumlaut" unicode="&#x150;" horiz-adv-x="832" 
d="M372 784h-38l47 132h60zM492 784h-38l47 132h60zM669 95q-103 -105 -253 -105t-253 104.5t-103 255.5t103 255.5t253 104.5t253 -105t103 -255t-103 -255zM416 43q127 0 213.5 89t86.5 218t-86.5 218t-213.5 89q-128 0 -213.5 -88.5t-85.5 -218.5t85.5 -218.5
t213.5 -88.5z" />
    <glyph glyph-name="ohungarumlaut" unicode="&#x151;" horiz-adv-x="582" 
d="M245 534h-38l47 132h60zM365 534h-38l47 132h60zM291 -11q-96 0 -165 65.5t-69 167.5t69 168t165 66q97 0 165.5 -65.5t68.5 -168.5q0 -102 -68.5 -167.5t-165.5 -65.5zM163 90q53 -51 128 -51t128 51.5t53 131.5q0 81 -53 132.5t-128 51.5t-128 -51.5t-53 -132.5
t53 -132z" />
    <glyph glyph-name="OE" unicode="&#x152;" horiz-adv-x="1211" 
d="M416 -10q-150 0 -253 104.5t-103 255.5t103 255.5t253 104.5q98 0 178 -50t122 -132v172h418v-50h-365v-264h336v-49h-336v-287h365v-50h-418v172q-42 -82 -122 -132t-178 -50zM416 43q127 0 213.5 89t86.5 218t-86.5 218t-213.5 89q-128 0 -213.5 -88.5t-85.5 -218.5
t85.5 -218.5t213.5 -88.5z" />
    <glyph glyph-name="oe" unicode="&#x153;" horiz-adv-x="989" 
d="M704 456q100 0 168 -71.5t59 -177.5h-405q6 -77 59.5 -122.5t121.5 -45.5q50 0 93.5 24.5t68.5 66.5l41 -27q-31 -53 -85.5 -83.5t-117.5 -30.5q-67 0 -122.5 33t-85.5 90q-29 -57 -85 -90t-123 -33q-96 0 -165 65.5t-69 167.5t69 168t165 66q66 0 122 -32.5t85 -89.5
q30 56 84.5 89t121.5 33zM528 254h349q-4 64 -54 108.5t-119 44.5t-118 -42.5t-58 -110.5zM163 90q53 -51 128 -51t128 51.5t53 131.5q0 81 -53 132.5t-128 51.5t-128 -51.5t-53 -132.5t53 -132z" />
    <glyph glyph-name="Racute" unicode="&#x154;" horiz-adv-x="616" 
d="M340 916h63l-79 -132h-38zM236 289l348 -289h-79l-340 287v-287h-53v700h212q105 0 166.5 -60.5t61.5 -143.5q0 -85 -61.5 -146t-166.5 -61h-88zM322 649h-157v-309h157q83 0 128.5 44.5t45.5 110.5t-45.5 110t-128.5 44z" />
    <glyph glyph-name="racute" unicode="&#x155;" horiz-adv-x="355" 
d="M203 534h-38l54 132h63zM137 0h-50v445h46v-93q13 45 54.5 74.5t96.5 29.5h24v-50h-24q-66 0 -106.5 -44.5t-40.5 -116.5v-245z" />
    <glyph glyph-name="uni0156" unicode="&#x156;" horiz-adv-x="616" 
d="M324 289h-88l348 -289h-79l-340 287v-287h-53v700h212q105 0 166.5 -60.5t61.5 -143.5q0 -85 -61.5 -146t-166.5 -61zM322 649h-157v-309h157q83 0 128.5 44.5t45.5 110.5t-45.5 110t-128.5 44zM340 -58q17 0 29 -10.5t12 -29.5q0 -8 -3 -15l-43 -103h-33l32 82
q-14 2 -23.5 12.5t-9.5 25.5q0 16 11.5 27t27.5 11z" />
    <glyph glyph-name="uni0157" unicode="&#x157;" horiz-adv-x="355" 
d="M137 0h-50v445h46v-93q13 45 54.5 74.5t96.5 29.5h24v-50h-24q-66 0 -106.5 -44.5t-40.5 -116.5v-245zM220 -98q0 -8 -3 -15l-43 -103h-33l32 82q-14 2 -23.5 12.5t-9.5 25.5q0 16 11.5 27t27.5 11q17 0 29 -10.5t12 -29.5z" />
    <glyph glyph-name="Rcaron" unicode="&#x158;" horiz-adv-x="616" 
d="M451 916l-96 -132h-53l-96 132h41l82 -87l82 87h40zM236 289l348 -289h-79l-340 287v-287h-53v700h212q105 0 166.5 -60.5t61.5 -143.5q0 -85 -61.5 -146t-166.5 -61h-88zM322 649h-157v-309h157q83 0 128.5 44.5t45.5 110.5t-45.5 110t-128.5 44z" />
    <glyph glyph-name="rcaron" unicode="&#x159;" horiz-adv-x="355" 
d="M181 534l-96 132h41l82 -87l82 87h40l-96 -132h-53zM137 0h-50v445h46v-93q13 45 54.5 74.5t96.5 29.5h24v-50h-24q-66 0 -106.5 -44.5t-40.5 -116.5v-245z" />
    <glyph glyph-name="Sacute" unicode="&#x15a;" horiz-adv-x="596" 
d="M302 784h-38l54 132h63zM302 -10q-96 0 -158.5 48t-86.5 106l45 27q19 -47 70.5 -88.5t129.5 -41.5q83 0 133 42t50 106q0 51 -36 89.5t-108 52.5l-72 14q-76 15 -123.5 61.5t-47.5 123.5q0 73 56 126.5t153 53.5q71 0 124.5 -36t77.5 -96l-45 -27q-14 47 -58.5 78
t-98.5 31q-72 0 -113.5 -38.5t-41.5 -91.5q0 -107 127 -132l73 -15q94 -18 141 -72t47 -122q0 -78 -63 -138.5t-175 -60.5z" />
    <glyph glyph-name="sacute" unicode="&#x15b;" horiz-adv-x="415" 
d="M207 534h-38l54 132h63zM207 -11q-112 0 -160 98l43 25q16 -34 47 -54t70 -20q52 0 81 22t29 58q0 35 -26.5 55.5t-84.5 33.5q-28 6 -49.5 14t-44 22.5t-35 38t-12.5 55.5q0 51 40.5 85t105.5 34q52 0 89 -24.5t54 -68.5l-41 -25q-11 35 -38.5 53.5t-63.5 18.5
q-42 0 -68 -20.5t-26 -52.5q0 -39 28 -56t81 -28q143 -30 143 -135q0 -54 -42 -91.5t-120 -37.5z" />
    <glyph glyph-name="Scircumflex" unicode="&#x15c;" horiz-adv-x="596" 
d="M227 784h-41l96 132h53l96 -132h-40l-82 87zM302 -10q-96 0 -158.5 48t-86.5 106l45 27q19 -47 70.5 -88.5t129.5 -41.5q83 0 133 42t50 106q0 51 -36 89.5t-108 52.5l-72 14q-76 15 -123.5 61.5t-47.5 123.5q0 73 56 126.5t153 53.5q71 0 124.5 -36t77.5 -96l-45 -27
q-14 47 -58.5 78t-98.5 31q-72 0 -113.5 -38.5t-41.5 -91.5q0 -107 127 -132l73 -15q94 -18 141 -72t47 -122q0 -78 -63 -138.5t-175 -60.5z" />
    <glyph glyph-name="scircumflex" unicode="&#x15d;" horiz-adv-x="415" 
d="M131 534h-41l96 132h53l96 -132h-40l-82 87zM207 -11q-112 0 -160 98l43 25q16 -34 47 -54t70 -20q52 0 81 22t29 58q0 35 -26.5 55.5t-84.5 33.5q-28 6 -49.5 14t-44 22.5t-35 38t-12.5 55.5q0 51 40.5 85t105.5 34q52 0 89 -24.5t54 -68.5l-41 -25q-11 35 -38.5 53.5
t-63.5 18.5q-42 0 -68 -20.5t-26 -52.5q0 -39 28 -56t81 -28q143 -30 143 -135q0 -54 -42 -91.5t-120 -37.5z" />
    <glyph glyph-name="Scedilla" unicode="&#x15e;" horiz-adv-x="596" 
d="M540 189q0 -76 -60.5 -136t-167.5 -63l-29 -53q42 5 73 -21.5t31 -63.5q0 -39 -28 -66.5t-77 -27.5q-60 0 -96 46l27 29q32 -34 69 -34q27 0 43 16t16 37q0 19 -16.5 35t-42.5 16q-18 0 -31 -8l-18 29l36 68q-82 9 -136 54.5t-76 97.5l45 27q19 -47 70.5 -88.5
t129.5 -41.5q83 0 133 42t50 106q0 51 -36 89.5t-108 52.5l-72 14q-76 15 -123.5 61.5t-47.5 123.5q0 73 56 126.5t153 53.5q71 0 124.5 -36t77.5 -96l-45 -27q-14 47 -58.5 78t-98.5 31q-72 0 -113.5 -38.5t-41.5 -91.5q0 -107 127 -132l73 -15q94 -18 141 -72t47 -122z
" />
    <glyph glyph-name="scedilla" unicode="&#x15f;" horiz-adv-x="415" 
d="M369 118q0 -52 -39.5 -89t-112.5 -40l-28 -52q42 5 73 -21.5t31 -63.5q0 -39 -28 -66.5t-77 -27.5q-60 0 -96 46l27 29q32 -34 69 -34q27 0 43 16t16 37q0 19 -16.5 35t-42.5 16q-18 0 -31 -8l-18 29l36 67q-88 14 -128 96l43 25q16 -34 47 -54t70 -20q52 0 81 22t29 58
q0 35 -26.5 55.5t-84.5 33.5q-28 6 -49.5 14t-44 22.5t-35 38t-12.5 55.5q0 51 40.5 85t105.5 34q52 0 89 -24.5t54 -68.5l-41 -25q-11 35 -38.5 53.5t-63.5 18.5q-42 0 -68 -20.5t-26 -52.5q0 -39 28 -56t81 -28q143 -30 143 -135z" />
    <glyph glyph-name="Scaron" unicode="&#x160;" horiz-adv-x="596" 
d="M280 784l-96 132h41l82 -87l82 87h40l-96 -132h-53zM302 -10q-96 0 -158.5 48t-86.5 106l45 27q19 -47 70.5 -88.5t129.5 -41.5q83 0 133 42t50 106q0 51 -36 89.5t-108 52.5l-72 14q-76 15 -123.5 61.5t-47.5 123.5q0 73 56 126.5t153 53.5q71 0 124.5 -36t77.5 -96
l-45 -27q-14 47 -58.5 78t-98.5 31q-72 0 -113.5 -38.5t-41.5 -91.5q0 -107 127 -132l73 -15q94 -18 141 -72t47 -122q0 -78 -63 -138.5t-175 -60.5z" />
    <glyph glyph-name="scaron" unicode="&#x161;" horiz-adv-x="415" 
d="M185 534l-96 132h41l82 -87l82 87h40l-96 -132h-53zM207 -11q-112 0 -160 98l43 25q16 -34 47 -54t70 -20q52 0 81 22t29 58q0 35 -26.5 55.5t-84.5 33.5q-28 6 -49.5 14t-44 22.5t-35 38t-12.5 55.5q0 51 40.5 85t105.5 34q52 0 89 -24.5t54 -68.5l-41 -25
q-11 35 -38.5 53.5t-63.5 18.5q-42 0 -68 -20.5t-26 -52.5q0 -39 28 -56t81 -28q143 -30 143 -135q0 -54 -42 -91.5t-120 -37.5z" />
    <glyph glyph-name="uni0162" unicode="&#x162;" horiz-adv-x="582" 
d="M320 649v-649h-7l-34 -63q42 5 73 -21.5t31 -63.5q0 -39 -28 -66.5t-77 -27.5q-60 0 -96 46l27 29q32 -34 69 -34q27 0 43 16t16 37q0 19 -16.5 35t-42.5 16q-18 0 -31 -8l-18 29l40 76h-5v649h-237v51h528v-51h-235z" />
    <glyph glyph-name="uni0163" unicode="&#x163;" horiz-adv-x="365" 
d="M241 -4l-32 -59q42 5 73 -21.5t31 -63.5q0 -39 -28 -66.5t-77 -27.5q-60 0 -96 46l27 29q32 -34 69 -34q27 0 43 16t16 37q0 19 -16.5 35t-42.5 16q-18 0 -31 -8l-18 29l42 80q-87 30 -87 136v259h-77v37h10q37 0 59 24t22 72v17h36v-104h145v-46h-145v-259q0 -49 28 -74
t73 -25h44v-46h-49q-13 0 -19 1z" />
    <glyph glyph-name="Tcaron" unicode="&#x164;" horiz-adv-x="582" 
d="M270 784l-96 132h41l82 -87l82 87h40l-96 -132h-53zM320 0h-56v649h-237v51h528v-51h-235v-649z" />
    <glyph glyph-name="tcaron" unicode="&#x165;" horiz-adv-x="365" 
d="M271 514h-37l8 152h55zM309 -5h-49q-66 0 -106 37t-40 108v259h-77v37h10q37 0 59 24t22 72v17h36v-104h145v-46h-145v-259q0 -49 28 -74t73 -25h44v-46z" />
    <glyph glyph-name="Tbar" unicode="&#x166;" horiz-adv-x="582" 
d="M555 700v-51h-235v-266h175v-45h-175v-338h-56v338h-177v45h177v266h-237v51h528z" />
    <glyph glyph-name="tbar" unicode="&#x167;" horiz-adv-x="372" 
d="M309 445v-46h-145v-122h129v-44h-129v-93q0 -49 28 -74t73 -25h44v-46h-49q-66 0 -106 37t-40 108v93h-76v44h76v122h-77v37h10q37 0 59 24t22 72v17h36v-104h145z" />
    <glyph glyph-name="Utilde" unicode="&#x168;" horiz-adv-x="730" 
d="M423 799q-28 0 -65 34.5t-57 34.5q-44 0 -44 -60h-41q0 50 22 78t56 28q27 0 50 -17.5t41 -35t31 -17.5q44 0 44 61h41q0 -50 -22 -78t-56 -28zM364 -10q-116 0 -186.5 75t-70.5 193v442h53v-442q0 -97 54.5 -156t149.5 -59t150.5 59t55.5 156v442h53v-442
q0 -118 -71 -193t-188 -75z" />
    <glyph glyph-name="utilde" unicode="&#x169;" horiz-adv-x="525" 
d="M326 549q-28 0 -65 34.5t-57 34.5q-44 0 -44 -60h-41q0 50 22 78t56 28q27 0 50 -17.5t41 -35t31 -17.5q44 0 44 61h41q0 -50 -22 -78t-56 -28zM401 44q-48 -55 -138 -55t-138 54.5t-48 136.5v265h50v-265q0 -63 36.5 -102.5t99.5 -39.5t99.5 39.5t36.5 102.5v265h50
v-265q0 -82 -48 -136z" />
    <glyph glyph-name="Umacron" unicode="&#x16a;" horiz-adv-x="730" 
d="M491 830h-252v43h252v-43zM364 -10q-116 0 -186.5 75t-70.5 193v442h53v-442q0 -97 54.5 -156t149.5 -59t150.5 59t55.5 156v442h53v-442q0 -118 -71 -193t-188 -75z" />
    <glyph glyph-name="umacron" unicode="&#x16b;" horiz-adv-x="525" 
d="M394 580h-252v43h252v-43zM401 44q-48 -55 -138 -55t-138 54.5t-48 136.5v265h50v-265q0 -63 36.5 -102.5t99.5 -39.5t99.5 39.5t36.5 102.5v265h50v-265q0 -82 -48 -136z" />
    <glyph glyph-name="Ubreve" unicode="&#x16c;" horiz-adv-x="730" 
d="M360 786q-55 0 -89.5 36.5t-34.5 91.5h41q0 -39 23 -64t60 -25t59.5 25t22.5 64h41q0 -55 -35 -91.5t-88 -36.5zM364 -10q-116 0 -186.5 75t-70.5 193v442h53v-442q0 -97 54.5 -156t149.5 -59t150.5 59t55.5 156v442h53v-442q0 -118 -71 -193t-188 -75z" />
    <glyph glyph-name="ubreve" unicode="&#x16d;" horiz-adv-x="525" 
d="M264 536q-55 0 -89.5 36.5t-34.5 91.5h41q0 -39 23 -64t60 -25t59.5 25t22.5 64h41q0 -55 -35 -91.5t-88 -36.5zM401 44q-48 -55 -138 -55t-138 54.5t-48 136.5v265h50v-265q0 -63 36.5 -102.5t99.5 -39.5t99.5 39.5t36.5 102.5v265h50v-265q0 -82 -48 -136z" />
    <glyph glyph-name="Uring" unicode="&#x16e;" horiz-adv-x="730" 
d="M362 756q-42 0 -70 27t-28 67t28 67t70 27t70 -27t28 -67q0 -41 -27.5 -67.5t-70.5 -26.5zM318 808q17 -18 44 -18t44.5 17.5t17.5 42.5t-17.5 42.5t-44.5 17.5t-44.5 -17.5t-17.5 -42.5t18 -42zM364 -10q-116 0 -186.5 75t-70.5 193v442h53v-442q0 -97 54.5 -156
t149.5 -59t150.5 59t55.5 156v442h53v-442q0 -118 -71 -193t-188 -75z" />
    <glyph glyph-name="uring" unicode="&#x16f;" horiz-adv-x="525" 
d="M266 506q-42 0 -70 27t-28 67t28 67t70 27t70 -27t28 -67q0 -41 -27.5 -67.5t-70.5 -26.5zM222 558q17 -18 44 -18t44.5 17.5t17.5 42.5t-17.5 42.5t-44.5 17.5t-44.5 -17.5t-17.5 -42.5t18 -42zM401 44q-48 -55 -138 -55t-138 54.5t-48 136.5v265h50v-265
q0 -63 36.5 -102.5t99.5 -39.5t99.5 39.5t36.5 102.5v265h50v-265q0 -82 -48 -136z" />
    <glyph glyph-name="Uhungarumlaut" unicode="&#x170;" horiz-adv-x="730" 
d="M313 784h-38l47 132h60zM433 784h-38l47 132h60zM364 -10q-116 0 -186.5 75t-70.5 193v442h53v-442q0 -97 54.5 -156t149.5 -59t150.5 59t55.5 156v442h53v-442q0 -118 -71 -193t-188 -75z" />
    <glyph glyph-name="uhungarumlaut" unicode="&#x171;" horiz-adv-x="525" 
d="M217 534h-38l47 132h60zM337 534h-38l47 132h60zM401 44q-48 -55 -138 -55t-138 54.5t-48 136.5v265h50v-265q0 -63 36.5 -102.5t99.5 -39.5t99.5 39.5t36.5 102.5v265h50v-265q0 -82 -48 -136z" />
    <glyph glyph-name="Uogonek" unicode="&#x172;" horiz-adv-x="730" 
d="M570 258v442h53v-442q0 -96 -49 -166t-134 -92q-38 -16 -69.5 -48t-31.5 -74q0 -35 21 -53.5t47 -18.5q18 0 39 7l14 -40q-26 -15 -66 -15q-43 0 -75.5 30t-32.5 82q0 73 68 120q-112 4 -179.5 78.5t-67.5 189.5v442h53v-442q0 -97 54.5 -156t149.5 -59t150.5 59
t55.5 156z" />
    <glyph glyph-name="uogonek" unicode="&#x173;" horiz-adv-x="525" 
d="M399 180v265h50v-265q0 -64 -30.5 -113t-87.5 -68q-37 -15 -68.5 -47.5t-31.5 -73.5q0 -35 21 -53.5t47 -18.5q18 0 39 7l14 -40q-26 -15 -66 -15q-43 0 -75.5 30t-32.5 82q0 72 67 120q-81 6 -124.5 59t-43.5 131v265h50v-265q0 -63 36.5 -102.5t99.5 -39.5t99.5 39.5
t36.5 102.5z" />
    <glyph glyph-name="Wcircumflex" unicode="&#x174;" horiz-adv-x="915" 
d="M374 784h-41l96 132h53l96 -132h-40l-82 87zM245 -15h-1l-232 715h57l178 -559l185 559h44l196 -559l174 559h57l-228 -715h-1l-220 624z" />
    <glyph glyph-name="wcircumflex" unicode="&#x175;" horiz-adv-x="694" 
d="M267 534h-41l96 132h53l96 -132h-40l-82 87zM193 -15h-1l-179 460h55l126 -336l132 336h43l135 -336l122 336h55l-175 -460h-1l-158 391z" />
    <glyph glyph-name="Ycircumflex" unicode="&#x176;" horiz-adv-x="622" 
d="M234 784h-41l96 132h53l96 -132h-40l-82 87zM338 0h-56v264l-265 436h64l230 -381l231 381h63l-267 -435v-265z" />
    <glyph glyph-name="ycircumflex" unicode="&#x177;" horiz-adv-x="509" 
d="M176 534h-41l96 132h53l96 -132h-40l-82 87zM143 -232h-60l138 263l-204 414h57l177 -360l182 360h59z" />
    <glyph glyph-name="Ydieresis" unicode="&#x178;" horiz-adv-x="622" 
d="M236 813q-16 0 -27.5 11.5t-11.5 27.5q0 17 11.5 28.5t27.5 11.5q17 0 29 -11.5t12 -28.5q0 -16 -12 -27.5t-29 -11.5zM394 813q-16 0 -27.5 11.5t-11.5 27.5q0 17 11 28.5t28 11.5t29 -11.5t12 -28.5q0 -16 -12 -27.5t-29 -11.5zM338 0h-56v264l-265 436h64l230 -381
l231 381h63l-267 -435v-265z" />
    <glyph glyph-name="Zacute" unicode="&#x179;" horiz-adv-x="585" 
d="M292 784h-38l54 132h63zM524 0h-482l409 651h-380v49h473l-410 -650h390v-50z" />
    <glyph glyph-name="zacute" unicode="&#x17a;" horiz-adv-x="430" 
d="M212 534h-38l54 132h63zM377 0h-335l259 399h-248v46h335l-259 -398h248v-47z" />
    <glyph glyph-name="Zdotaccent" unicode="&#x17b;" horiz-adv-x="585" 
d="M295 818q-17 0 -29 12t-12 29q0 18 12 30t29 12q18 0 30.5 -12t12.5 -30q0 -17 -12.5 -29t-30.5 -12zM524 0h-482l409 651h-380v49h473l-410 -650h390v-50z" />
    <glyph glyph-name="zdotaccent" unicode="&#x17c;" horiz-adv-x="430" 
d="M216 568q-17 0 -29 12t-12 29q0 18 12 30t29 12q18 0 30.5 -12t12.5 -30q0 -17 -12.5 -29t-30.5 -12zM377 0h-335l259 399h-248v46h335l-259 -398h248v-47z" />
    <glyph glyph-name="Zcaron" unicode="&#x17d;" horiz-adv-x="585" 
d="M270 784l-96 132h41l82 -87l82 87h40l-96 -132h-53zM524 0h-482l409 651h-380v49h473l-410 -650h390v-50z" />
    <glyph glyph-name="zcaron" unicode="&#x17e;" horiz-adv-x="430" 
d="M190 534l-96 132h41l82 -87l82 87h40l-96 -132h-53zM377 0h-335l259 399h-248v46h335l-259 -398h248v-47z" />
    <glyph glyph-name="uni01CD" unicode="&#x1cd;" horiz-adv-x="663" 
d="M455 916l-96 -132h-53l-96 132h41l82 -87l82 87h40zM642 0h-58l-69 170h-367l-69 -170h-57l288 700h46zM332 622l-164 -402h327z" />
    <glyph glyph-name="uni01CE" unicode="&#x1ce;" horiz-adv-x="521" 
d="M228 534l-96 132h41l82 -87l82 87h40l-96 -132h-53zM232 -11q-76 0 -123 40t-47 101q0 58 41.5 93t105.5 35h129q23 0 36.5 12.5t13.5 32.5q0 40 -35.5 72.5t-96.5 32.5q-102 0 -138 -93l-40 26q21 52 66 83.5t112 31.5q84 0 134 -48.5t50 -116.5v-291h-46v87
q-11 -33 -53.5 -65.5t-108.5 -32.5zM232 38q75 0 116.5 44.5t41.5 112.5v19h-181q-42 0 -68 -23.5t-26 -60.5q0 -40 32 -66t85 -26z" />
    <glyph glyph-name="uni01CF" unicode="&#x1cf;" horiz-adv-x="475" 
d="M360 916l-96 -132h-53l-96 132h41l82 -87l82 87h40zM368 700v-50h-104v-600h104v-50h-261v50h104v600h-104v50h261z" />
    <glyph glyph-name="uni01D0" unicode="&#x1d0;" horiz-adv-x="224" 
d="M86 534l-96 132h41l82 -87l82 87h40l-96 -132h-53zM137 0h-50v445h50v-445z" />
    <glyph glyph-name="uni01D1" unicode="&#x1d1;" horiz-adv-x="832" 
d="M393 784l-96 132h41l82 -87l82 87h40l-96 -132h-53zM669 95q-103 -105 -253 -105t-253 104.5t-103 255.5t103 255.5t253 104.5t253 -105t103 -255t-103 -255zM416 43q127 0 213.5 89t86.5 218t-86.5 218t-213.5 89q-128 0 -213.5 -88.5t-85.5 -218.5t85.5 -218.5
t213.5 -88.5z" />
    <glyph glyph-name="uni01D2" unicode="&#x1d2;" horiz-adv-x="582" 
d="M267 534l-96 132h41l82 -87l82 87h40l-96 -132h-53zM291 -11q-96 0 -165 65.5t-69 167.5t69 168t165 66q97 0 165.5 -65.5t68.5 -168.5q0 -102 -68.5 -167.5t-165.5 -65.5zM163 90q53 -51 128 -51t128 51.5t53 131.5q0 81 -53 132.5t-128 51.5t-128 -51.5t-53 -132.5
t53 -132z" />
    <glyph glyph-name="Gcaron" unicode="&#x1e6;" horiz-adv-x="834" 
d="M391 784l-96 132h41l82 -87l82 87h40l-96 -132h-53zM416 -10q-150 0 -253 104.5t-103 255.5t103 255.5t253 104.5q91 0 167.5 -41t123.5 -111l-47 -30q-39 60 -102.5 94.5t-141.5 34.5q-128 0 -214 -88.5t-86 -218.5t86 -218.5t214 -88.5q118 0 200 71t97 182h-302v50
h363v-4q0 -149 -101.5 -250.5t-256.5 -101.5z" />
    <glyph glyph-name="gcaron" unicode="&#x1e7;" 
d="M413 666l-96 -132h-53l-96 132h41l82 -87l82 87h40zM467 365v80h50v-448q0 -105 -62 -172t-166 -67q-68 0 -124 30.5t-87 84.5l45 28q22 -42 67 -67.5t99 -25.5q82 0 130 52.5t48 136.5v83q-31 -43 -77.5 -67t-100.5 -24q-96 0 -164 65.5t-68 167.5q0 103 68 168.5
t164 65.5q54 0 100.5 -24t77.5 -67zM162 90q52 -51 127 -51t126.5 51t51.5 132t-52 132.5t-126 51.5q-75 0 -127 -51.5t-52 -132.5t52 -132z" />
    <glyph glyph-name="uni0218" unicode="&#x218;" horiz-adv-x="596" 
d="M302 -10q-96 0 -158.5 48t-86.5 106l45 27q19 -47 70.5 -88.5t129.5 -41.5q83 0 133 42t50 106q0 51 -36 89.5t-108 52.5l-72 14q-76 15 -123.5 61.5t-47.5 123.5q0 73 56 126.5t153 53.5q71 0 124.5 -36t77.5 -96l-45 -27q-14 47 -58.5 78t-98.5 31q-72 0 -113.5 -38.5
t-41.5 -91.5q0 -107 127 -132l73 -15q94 -18 141 -72t47 -122q0 -78 -63 -138.5t-175 -60.5zM334 -98q0 -8 -3 -15l-43 -103h-33l32 82q-14 2 -23.5 12.5t-9.5 25.5q0 16 11.5 27t27.5 11q17 0 29 -10.5t12 -29.5z" />
    <glyph glyph-name="uni0219" unicode="&#x219;" horiz-adv-x="415" 
d="M207 -11q-112 0 -160 98l43 25q16 -34 47 -54t70 -20q52 0 81 22t29 58q0 35 -26.5 55.5t-84.5 33.5q-28 6 -49.5 14t-44 22.5t-35 38t-12.5 55.5q0 51 40.5 85t105.5 34q52 0 89 -24.5t54 -68.5l-41 -25q-11 35 -38.5 53.5t-63.5 18.5q-42 0 -68 -20.5t-26 -52.5
q0 -39 28 -56t81 -28q143 -30 143 -135q0 -54 -42 -91.5t-120 -37.5zM240 -98q0 -8 -3 -15l-43 -103h-33l32 82q-14 2 -23.5 12.5t-9.5 25.5q0 16 11.5 27t27.5 11q17 0 29 -10.5t12 -29.5z" />
    <glyph glyph-name="uni021A" unicode="&#x21a;" horiz-adv-x="582" 
d="M320 0h-56v649h-237v51h528v-51h-235v-649zM330 -98q0 -8 -3 -15l-43 -103h-33l32 82q-14 2 -23.5 12.5t-9.5 25.5q0 16 11.5 27t27.5 11q17 0 29 -10.5t12 -29.5z" />
    <glyph glyph-name="uni021B" unicode="&#x21b;" horiz-adv-x="365" 
d="M309 -5h-49q-66 0 -106 37t-40 108v259h-77v37h10q37 0 59 24t22 72v17h36v-104h145v-46h-145v-259q0 -49 28 -74t73 -25h44v-46zM260 -98q0 -8 -3 -15l-43 -103h-33l32 82q-14 2 -23.5 12.5t-9.5 25.5q0 16 11.5 27t27.5 11q17 0 29 -10.5t12 -29.5z" />
    <glyph glyph-name="uni0237" unicode="&#x237;" horiz-adv-x="217" 
d="M-22 -232v49q51 0 80 33.5t29 86.5v508h50v-508q0 -74 -43.5 -121.5t-115.5 -47.5z" />
    <glyph glyph-name="circumflex" unicode="&#x2c6;" horiz-adv-x="405" 
d="M121 534h-41l96 132h53l96 -132h-40l-82 87z" />
    <glyph glyph-name="caron" unicode="&#x2c7;" horiz-adv-x="421" 
d="M176 534l-96 132h41l82 -87l82 87h40l-96 -132h-53z" />
    <glyph glyph-name="breve" unicode="&#x2d8;" horiz-adv-x="407" 
d="M204 536q-55 0 -89.5 36.5t-34.5 91.5h41q0 -39 23 -64t60 -25t59.5 25t22.5 64h41q0 -55 -35 -91.5t-88 -36.5z" />
    <glyph glyph-name="dotaccent" unicode="&#x2d9;" horiz-adv-x="244" 
d="M121 568q-17 0 -29 12t-12 29q0 18 12 30t29 12q18 0 30.5 -12t12.5 -30q0 -17 -12.5 -29t-30.5 -12z" />
    <glyph glyph-name="ring" unicode="&#x2da;" horiz-adv-x="356" 
d="M178 506q-42 0 -70 27t-28 67t28 67t70 27t70 -27t28 -67q0 -41 -27.5 -67.5t-70.5 -26.5zM134 558q17 -18 44 -18t44.5 17.5t17.5 42.5t-17.5 42.5t-44.5 17.5t-44.5 -17.5t-17.5 -42.5t18 -42z" />
    <glyph glyph-name="ogonek" unicode="&#x2db;" horiz-adv-x="334" 
d="M188 -242q-43 0 -75.5 30t-32.5 82q0 51 33.5 89t76.5 54l45 -13q-38 -15 -70 -47.5t-32 -74.5q0 -35 21 -53.5t47 -18.5q18 0 39 7l14 -40q-26 -15 -66 -15z" />
    <glyph glyph-name="tilde" unicode="&#x2dc;" horiz-adv-x="445" 
d="M287 549q-28 0 -65 34.5t-57 34.5q-44 0 -44 -60h-41q0 50 22 78t56 28q27 0 50 -17.5t41 -35t31 -17.5q44 0 44 61h41q0 -50 -22 -78t-56 -28z" />
    <glyph glyph-name="hungarumlaut" unicode="&#x2dd;" horiz-adv-x="387" 
d="M118 534h-38l47 132h60zM238 534h-38l47 132h60z" />
    <glyph glyph-name="uni0312" unicode="&#x312;" horiz-adv-x="0" 
d="M-160 555q0 7 3 15l44 103h33l-33 -82q14 -2 23.5 -12t9.5 -26t-11.5 -27t-27.5 -11q-17 0 -29 10.5t-12 29.5z" />
    <glyph glyph-name="uni0326" unicode="&#x326;" horiz-adv-x="0" 
d="M-80 -98q0 -8 -3 -15l-43 -103h-33l32 82q-14 2 -23.5 12.5t-9.5 25.5q0 16 11.5 27t27.5 11q17 0 29 -10.5t12 -29.5z" />
    <glyph glyph-name="Wgrave" unicode="&#x1e80;" horiz-adv-x="915" 
d="M444 916l54 -132h-38l-79 132h63zM245 -15h-1l-232 715h57l178 -559l185 559h44l196 -559l174 559h57l-228 -715h-1l-220 624z" />
    <glyph glyph-name="wgrave" unicode="&#x1e81;" horiz-adv-x="694" 
d="M337 666l54 -132h-38l-79 132h63zM193 -15h-1l-179 460h55l126 -336l132 336h43l135 -336l122 336h55l-175 -460h-1l-158 391z" />
    <glyph glyph-name="Wacute" unicode="&#x1e82;" horiz-adv-x="915" 
d="M449 784h-38l54 132h63zM245 -15h-1l-232 715h57l178 -559l185 559h44l196 -559l174 559h57l-228 -715h-1l-220 624z" />
    <glyph glyph-name="wacute" unicode="&#x1e83;" horiz-adv-x="694" 
d="M342 534h-38l54 132h63zM193 -15h-1l-179 460h55l126 -336l132 336h43l135 -336l122 336h55l-175 -460h-1l-158 391z" />
    <glyph glyph-name="Wdieresis" unicode="&#x1e84;" horiz-adv-x="915" 
d="M376 813q-16 0 -27.5 11.5t-11.5 27.5q0 17 11.5 28.5t27.5 11.5q17 0 29 -11.5t12 -28.5q0 -16 -12 -27.5t-29 -11.5zM534 813q-16 0 -27.5 11.5t-11.5 27.5q0 17 11 28.5t28 11.5t29 -11.5t12 -28.5q0 -16 -12 -27.5t-29 -11.5zM245 -15h-1l-232 715h57l178 -559
l185 559h44l196 -559l174 559h57l-228 -715h-1l-220 624z" />
    <glyph glyph-name="wdieresis" unicode="&#x1e85;" horiz-adv-x="694" 
d="M269 563q-16 0 -27.5 11.5t-11.5 27.5q0 17 11.5 28.5t27.5 11.5q17 0 29 -11.5t12 -28.5q0 -16 -12 -27.5t-29 -11.5zM456 575q-12 -12 -29 -12t-28 11.5t-11 27.5q0 17 11 28.5t28 11.5t29 -11.5t12 -28.5q0 -16 -12 -27zM193 -15h-1l-179 460h55l126 -336l132 336h43
l135 -336l122 336h55l-175 -460h-1l-158 391z" />
    <glyph glyph-name="Germandbls" unicode="&#x1e9e;" horiz-adv-x="740" 
d="M453 -10q-115 0 -195 80l39 36q63 -65 156 -65q82 0 132 42.5t50 105.5q0 54 -36.5 91t-110.5 51l-145 29v53l191 196q-87 48 -175 48q-82 0 -137.5 -47.5t-55.5 -136.5v-473h-54v471q0 110 70.5 174.5t176.5 64.5q140 0 257 -89l-216 -219l99 -19q96 -19 143.5 -71.5
t47.5 -122.5q0 -78 -62.5 -138.5t-174.5 -60.5z" />
    <glyph glyph-name="uni1EBC" unicode="&#x1ebc;" horiz-adv-x="607" 
d="M398 799q-28 0 -65 34.5t-57 34.5q-44 0 -44 -60h-41q0 50 22 78t56 28q27 0 50 -17.5t41 -35t31 -17.5q44 0 44 61h41q0 -50 -22 -78t-56 -28zM530 0h-418v700h418v-50h-365v-264h336v-49h-336v-287h365v-50z" />
    <glyph glyph-name="uni1EBD" unicode="&#x1ebd;" horiz-adv-x="574" 
d="M362 549q-28 0 -65 34.5t-57 34.5q-44 0 -44 -60h-41q0 50 22 78t56 28q27 0 50 -17.5t41 -35t31 -17.5q44 0 44 61h41q0 -50 -22 -78t-56 -28zM292 -11q-98 0 -166.5 67t-68.5 167q0 99 66.5 166t164.5 67q101 0 169 -71.5t59 -177.5h-405q6 -77 59.5 -122.5
t121.5 -45.5q49 0 92.5 24.5t68.5 66.5l41 -27q-31 -53 -85 -83.5t-117 -30.5zM113 254h348q-4 64 -53.5 108.5t-119.5 44.5q-68 0 -117 -42.5t-58 -110.5z" />
    <glyph glyph-name="Ygrave" unicode="&#x1ef2;" horiz-adv-x="622" 
d="M304 916l54 -132h-38l-79 132h63zM338 0h-56v264l-265 436h64l230 -381l231 381h63l-267 -435v-265z" />
    <glyph glyph-name="ygrave" unicode="&#x1ef3;" horiz-adv-x="509" 
d="M246 666l54 -132h-38l-79 132h63zM143 -232h-60l138 263l-204 414h57l177 -360l182 360h59z" />
    <glyph glyph-name="uni2000" unicode="&#x2000;" horiz-adv-x="472" 
 />
    <glyph glyph-name="uni2001" unicode="&#x2001;" horiz-adv-x="944" 
 />
    <glyph glyph-name="uni2002" unicode="&#x2002;" horiz-adv-x="472" 
 />
    <glyph glyph-name="uni2003" unicode="&#x2003;" horiz-adv-x="944" 
 />
    <glyph glyph-name="uni2004" unicode="&#x2004;" horiz-adv-x="314" 
 />
    <glyph glyph-name="uni2005" unicode="&#x2005;" horiz-adv-x="236" 
 />
    <glyph glyph-name="uni2006" unicode="&#x2006;" horiz-adv-x="157" 
 />
    <glyph glyph-name="uni2007" unicode="&#x2007;" horiz-adv-x="157" 
 />
    <glyph glyph-name="uni2008" unicode="&#x2008;" horiz-adv-x="118" 
 />
    <glyph glyph-name="uni2009" unicode="&#x2009;" horiz-adv-x="188" 
 />
    <glyph glyph-name="uni200A" unicode="&#x200a;" horiz-adv-x="52" 
 />
    <glyph glyph-name="uni2010" unicode="&#x2010;" horiz-adv-x="427" 
d="M340 254h-253v46h253v-46z" />
    <glyph glyph-name="uni2011" unicode="&#x2011;" horiz-adv-x="427" 
d="M340 254h-253v46h253v-46z" />
    <glyph glyph-name="figuredash" unicode="&#x2012;" horiz-adv-x="427" 
d="M340 254h-253v46h253v-46z" />
    <glyph glyph-name="endash" unicode="&#x2013;" horiz-adv-x="579" 
d="M487 260h-395v47h395v-47z" />
    <glyph glyph-name="emdash" unicode="&#x2014;" horiz-adv-x="799" 
d="M707 260h-615v47h615v-47z" />
    <glyph glyph-name="quoteleft" unicode="&#x2018;" horiz-adv-x="227" 
d="M70 551q0 8 3 17l49 132h38l-37 -106q16 -2 26.5 -14.5t10.5 -28.5q0 -19 -13 -32t-32 -13t-32 13t-13 32z" />
    <glyph glyph-name="quoteright" unicode="&#x2019;" horiz-adv-x="227" 
d="M157 662q0 -9 -4 -17l-48 -132h-39l37 106q-15 2 -25.5 14.5t-10.5 28.5q0 19 13 32t32 13t32 -13t13 -32z" />
    <glyph glyph-name="quotesinglbase" unicode="&#x201a;" horiz-adv-x="239" 
d="M157 35q0 -9 -4 -18l-48 -131h-39l37 105q-15 3 -25.5 15.5t-10.5 28.5q0 19 13 32t32 13t32 -13t13 -32z" />
    <glyph glyph-name="quotedblleft" unicode="&#x201c;" horiz-adv-x="380" 
d="M70 551q0 8 3 17l49 132h38l-37 -106q16 -2 26.5 -14.5t10.5 -28.5q0 -19 -13 -32t-32 -13t-32 13t-13 32zM223 551q0 9 4 17l48 132h39l-37 -106q15 -2 25.5 -14.5t10.5 -28.5q0 -19 -13 -32t-32 -13t-32 13t-13 32z" />
    <glyph glyph-name="quotedblright" unicode="&#x201d;" horiz-adv-x="380" 
d="M157 662q0 -9 -4 -17l-48 -132h-39l37 106q-15 2 -25.5 14.5t-10.5 28.5q0 19 13 32t32 13t32 -13t13 -32zM310 662q0 -8 -3 -17l-49 -132h-38l37 106q-16 2 -26.5 14.5t-10.5 28.5q0 19 13 32t32 13t32 -13t13 -32z" />
    <glyph glyph-name="quotedblbase" unicode="&#x201e;" horiz-adv-x="380" 
d="M157 35q0 -9 -4 -18l-48 -131h-39l37 105q-15 3 -25.5 15.5t-10.5 28.5q0 19 13 32t32 13t32 -13t13 -32zM310 35q0 -7 -3 -18l-49 -131h-38l37 105q-16 3 -26.5 15.5t-10.5 28.5q0 19 13 32t32 13t32 -13t13 -32z" />
    <glyph glyph-name="dagger" unicode="&#x2020;" horiz-adv-x="438" 
d="M234 55h-31l-7 410h-139v38h138v197h48v-197h139v-38h-140z" />
    <glyph glyph-name="daggerdbl" unicode="&#x2021;" horiz-adv-x="438" 
d="M243 55h-48v197h-126v38h126v203h-138v38h138v169h48v-169h139v-38h-139v-203h126v-38h-126v-197z" />
    <glyph glyph-name="bullet" unicode="&#x2022;" horiz-adv-x="354" 
d="M175 119q-43 0 -74 31t-31 74q0 45 31 77t74 32q45 0 77 -32t32 -77q0 -43 -32 -74t-77 -31z" />
    <glyph glyph-name="ellipsis" unicode="&#x2026;" horiz-adv-x="634" 
d="M144 3q-13 -13 -32 -13t-32 13t-13 32t13 32t32 13t32 -13t13 -32t-13 -32zM344 3q-13 -13 -32 -13t-32 13t-13 32t13 32t32 13t32 -13t13 -32t-13 -32zM544 3q-13 -13 -32 -13t-32 13t-13 32t13 32t32 13t32 -13t13 -32t-13 -32z" />
    <glyph glyph-name="uni202F" unicode="&#x202f;" horiz-adv-x="188" 
 />
    <glyph glyph-name="perthousand" unicode="&#x2030;" horiz-adv-x="1016" 
d="M288 420q-40 -40 -96 -40t-95.5 39.5t-39.5 95.5t39.5 95.5t95.5 39.5t95.5 -39.5t39.5 -95.5t-39 -95zM193 0h-48l361 639h48zM192 421q38 0 65 27.5t27 66.5q0 38 -27 65t-65 27q-40 0 -67 -27t-27 -65q0 -40 27 -67t67 -27zM604 29q-40 -40 -96 -40t-95.5 39.5
t-39.5 95.5t39.5 95.5t95.5 39.5t95.5 -39.5t39.5 -95.5t-39 -95zM920 29q-40 -40 -96 -40t-95.5 39.5t-39.5 95.5t39.5 95.5t95.5 39.5t95.5 -39.5t39.5 -95.5t-39 -95zM508 30q38 0 65 27.5t27 66.5q0 38 -27 65t-65 27q-40 0 -67 -27t-27 -65q0 -40 27 -67t67 -27z
M824 30q38 0 65.5 27t27.5 67q0 38 -27.5 65t-65.5 27q-39 0 -66 -27t-27 -65q0 -40 27 -67t66 -27z" />
    <glyph glyph-name="guilsinglleft" unicode="&#x2039;" horiz-adv-x="283" 
d="M236 81h-52l-137 174l137 173h52l-124 -173z" />
    <glyph glyph-name="guilsinglright" unicode="&#x203a;" horiz-adv-x="291" 
d="M244 255l-137 -174h-52l124 174l-124 173h52z" />
    <glyph glyph-name="fraction" unicode="&#x2044;" horiz-adv-x="221" 
d="M-50 -80h-43l364 780h43z" />
    <glyph glyph-name="uni205F" unicode="&#x205f;" horiz-adv-x="236" 
 />
    <glyph glyph-name="Euro" unicode="&#x20ac;" horiz-adv-x="729" 
d="M417 41q134 0 208 117l44 -29q-41 -64 -106.5 -101.5t-145.5 -37.5q-112 0 -191.5 68.5t-103.5 178.5h-62v39h55q-2 30 -2 45q0 25 3 49h-56v38h63q24 108 103.5 175t190.5 67q81 0 146 -37.5t106 -102.5l-43 -29q-74 118 -209 118q-91 0 -154 -52t-85 -139h307l-12 -38
h-303q-3 -24 -3 -49q0 -17 2 -45h276l-12 -39h-257q20 -91 84 -143.5t157 -52.5z" />
    <glyph glyph-name="uni2116" unicode="&#x2116;" horiz-adv-x="1180" 
d="M1061 282q-63 -60 -154 -60t-153.5 60.5t-62.5 152.5q0 93 62.5 154t153.5 61t153.5 -61t62.5 -154t-62 -153zM600 -15h-1l-435 565v-550h-52v640h46l389 -505l1 505h52v-655zM791 317q47 -47 116 -47t117 47t48 118q0 72 -47.5 119.5t-117.5 47.5q-69 0 -116.5 -47.5
t-47.5 -119.5q0 -71 48 -118zM1073 83h-337v51h337v-51z" />
    <glyph glyph-name="trademark" unicode="&#x2122;" horiz-adv-x="715" 
d="M149 664h-92v36h222v-36h-92v-266h-38v266zM502 465l116 235h41v-302h-36v238l-121 -244l-122 244v-238h-36v302h41z" />
    <glyph glyph-name="minus" unicode="&#x2212;" horiz-adv-x="438" 
d="M428 283h-418v48h418v-48z" />
    <glyph glyph-name="uni25FC" unicode="&#x25fc;" horiz-adv-x="445" 
d="M0 445h445v-445h-445v445z" />
    <glyph glyph-name="uni000D.1" horiz-adv-x="0" 
 />
    <glyph glyph-name="i.loclTRK" horiz-adv-x="224" 
d="M112 568q-17 0 -29 12t-12 29q0 18 12 30t29 12q18 0 30.5 -12t12.5 -30q0 -17 -12.5 -29t-30.5 -12zM137 0h-50v445h50v-445z" />
    <glyph glyph-name="a.ss01" 
d="M467 373v72h50v-445h-50v72q-67 -83 -178 -83q-96 0 -164 65.5t-68 167.5q0 103 68 168.5t164 65.5q111 0 178 -83zM162 90q52 -51 127 -51t126.5 51t51.5 132t-52 132.5t-126 51.5q-75 0 -127 -51.5t-52 -132.5t52 -132z" />
    <glyph glyph-name="aacute.ss01" 
d="M309 666h63l-79 -132h-38zM467 373v72h50v-445h-50v72q-67 -83 -178 -83q-96 0 -164 65.5t-68 167.5q0 103 68 168.5t164 65.5q111 0 178 -83zM162 90q52 -51 127 -51t126.5 51t51.5 132t-52 132.5t-126 51.5q-75 0 -127 -51.5t-52 -132.5t52 -132z" />
    <glyph glyph-name="abreve.ss01" 
d="M297 536q-55 0 -89.5 36.5t-34.5 91.5h41q0 -39 23 -64t60 -25t59.5 25t22.5 64h41q0 -55 -35 -91.5t-88 -36.5zM467 373v72h50v-445h-50v72q-67 -83 -178 -83q-96 0 -164 65.5t-68 167.5q0 103 68 168.5t164 65.5q111 0 178 -83zM162 90q52 -51 127 -51t126.5 51
t51.5 132t-52 132.5t-126 51.5q-75 0 -127 -51.5t-52 -132.5t52 -132z" />
    <glyph glyph-name="uni01CE.ss01" 
d="M420 666l-96 -132h-53l-96 132h41l82 -87l82 87h40zM467 373v72h50v-445h-50v72q-67 -83 -178 -83q-96 0 -164 65.5t-68 167.5q0 103 68 168.5t164 65.5q111 0 178 -83zM162 90q52 -51 127 -51t126.5 51t51.5 132t-52 132.5t-126 51.5q-75 0 -127 -51.5t-52 -132.5
t52 -132z" />
    <glyph glyph-name="acircumflex.ss01" 
d="M382 534l-82 87l-82 -87h-41l96 132h53l96 -132h-40zM467 373v72h50v-445h-50v72q-67 -83 -178 -83q-96 0 -164 65.5t-68 167.5q0 103 68 168.5t164 65.5q111 0 178 -83zM162 90q52 -51 127 -51t126.5 51t51.5 132t-52 132.5t-126 51.5q-75 0 -127 -51.5t-52 -132.5
t52 -132z" />
    <glyph glyph-name="adieresis.ss01" 
d="M220 563q-16 0 -27.5 11.5t-11.5 27.5q0 17 11.5 28.5t27.5 11.5q17 0 29 -11.5t12 -28.5q0 -16 -12 -27.5t-29 -11.5zM378 563q-16 0 -27.5 11.5t-11.5 27.5q0 17 11 28.5t28 11.5t29 -11.5t12 -28.5q0 -16 -12 -27.5t-29 -11.5zM467 373v72h50v-445h-50v72
q-67 -83 -178 -83q-96 0 -164 65.5t-68 167.5q0 103 68 168.5t164 65.5q111 0 178 -83zM162 90q52 -51 127 -51t126.5 51t51.5 132t-52 132.5t-126 51.5q-75 0 -127 -51.5t-52 -132.5t52 -132z" />
    <glyph glyph-name="agrave.ss01" 
d="M288 666l54 -132h-38l-79 132h63zM467 373v72h50v-445h-50v72q-67 -83 -178 -83q-96 0 -164 65.5t-68 167.5q0 103 68 168.5t164 65.5q111 0 178 -83zM162 90q52 -51 127 -51t126.5 51t51.5 132t-52 132.5t-126 51.5q-75 0 -127 -51.5t-52 -132.5t52 -132z" />
    <glyph glyph-name="amacron.ss01" 
d="M176 623h252v-43h-252v43zM467 373v72h50v-445h-50v72q-67 -83 -178 -83q-96 0 -164 65.5t-68 167.5q0 103 68 168.5t164 65.5q111 0 178 -83zM162 90q52 -51 127 -51t126.5 51t51.5 132t-52 132.5t-126 51.5q-75 0 -127 -51.5t-52 -132.5t52 -132z" />
    <glyph glyph-name="aogonek.ss01" 
d="M522 -187l14 -40q-26 -15 -66 -15q-43 0 -75.5 30t-32.5 82q0 50 32 87t73 54v61q-67 -83 -178 -83q-96 0 -164 65.5t-68 167.5q0 103 68 168.5t164 65.5q111 0 178 -83v72h50v-445q-38 -15 -70 -47.5t-32 -74.5q0 -35 21 -53.5t47 -18.5q18 0 39 7zM162 90
q52 -51 127 -51t126.5 51t51.5 132t-52 132.5t-126 51.5q-75 0 -127 -51.5t-52 -132.5t52 -132z" />
    <glyph glyph-name="aring.ss01" 
d="M299 506q-42 0 -70 27t-28 67t28 67t70 27t70 -27t28 -67q0 -41 -27.5 -67.5t-70.5 -26.5zM344 643q-18 17 -45 17t-44.5 -17.5t-17.5 -42.5t17.5 -42.5t44.5 -17.5t44.5 17.5t17.5 42.5t-17 43zM467 373v72h50v-445h-50v72q-67 -83 -178 -83q-96 0 -164 65.5t-68 167.5
q0 103 68 168.5t164 65.5q111 0 178 -83zM162 90q52 -51 127 -51t126.5 51t51.5 132t-52 132.5t-126 51.5q-75 0 -127 -51.5t-52 -132.5t52 -132z" />
    <glyph glyph-name="atilde.ss01" 
d="M238 618q-44 0 -44 -60h-41q0 50 22 78t56 28q27 0 50 -17.5t41 -35t31 -17.5q44 0 44 61h41q0 -50 -22 -78t-56 -28q-28 0 -65 34.5t-57 34.5zM467 373v72h50v-445h-50v72q-67 -83 -178 -83q-96 0 -164 65.5t-68 167.5q0 103 68 168.5t164 65.5q111 0 178 -83zM162 90
q52 -51 127 -51t126.5 51t51.5 132t-52 132.5t-126 51.5q-75 0 -127 -51.5t-52 -132.5t52 -132z" />
    <glyph glyph-name="ae.ss01" horiz-adv-x="980" 
d="M289 -11q-96 0 -164 65.5t-68 167.5q0 103 68 168.5t164 65.5q57 0 103.5 -25t74.5 -70v84h50v-83q27 44 74.5 69t103.5 25q100 0 168 -71.5t59 -177.5h-405q6 -77 59.5 -122.5t121.5 -45.5q50 0 93.5 24.5t68.5 66.5l41 -27q-31 -53 -85.5 -83.5t-117.5 -30.5
q-56 0 -104.5 25.5t-76.5 70.5v-85h-50v83q-28 -44 -75 -69t-103 -25zM519 254h349q-4 64 -54 108.5t-119 44.5t-118 -42.5t-58 -110.5zM162 90q52 -51 127 -51t126.5 51t51.5 132t-52 132.5t-126 51.5q-75 0 -127 -51.5t-52 -132.5t52 -132z" />
    <glyph glyph-name="ordfeminine.ss01" horiz-adv-x="408" 
d="M320 599v43h42v-301h-42v41q-45 -48 -114 -48q-66 0 -112.5 45t-46.5 112t46.5 112.5t112.5 45.5q67 0 114 -50zM206 375q48 0 81 33t33 83t-33 83.5t-81 33.5q-49 0 -82.5 -33.5t-33.5 -83.5t33.5 -83t82.5 -33z" />
    <glyph glyph-name="zero.tf" horiz-adv-x="579" 
d="M455 75q-58 -85 -166 -85t-165 84.5t-57 244.5q0 161 57 246t165 85t165.5 -85.5t57.5 -245.5t-57 -244zM289 41q169 0 169 278q0 280 -169 280q-168 0 -168 -280q0 -278 168 -278z" />
    <glyph glyph-name="one.tf" horiz-adv-x="579" 
d="M375 0h-52v555l-166 -116v62l217 149h1v-650z" />
    <glyph glyph-name="two.tf" horiz-adv-x="579" 
d="M401 239l-186 -189h282v-50h-404l252 255q49 49 76 92.5t27 96.5q0 57 -43 106t-120 49q-67 0 -110.5 -45.5t-43.5 -109.5q0 -25 11 -56t31 -51l-39 -33q-26 27 -41.5 66.5t-15.5 73.5q0 82 58 144t150 62q97 0 157.5 -63t60.5 -143q0 -59 -27 -107t-75 -98z" />
    <glyph glyph-name="three.tf" horiz-adv-x="579" 
d="M281 -10q-123 0 -191 107l43 28q51 -84 148 -84q71 0 113 45.5t42 107.5q0 59 -43.5 106t-110.5 47q-46 0 -75 -22l-30 34l202 233h-261v48h357l-218 -254q17 7 38 7q76 0 135.5 -59t59.5 -140q0 -78 -55.5 -141t-153.5 -63z" />
    <glyph glyph-name="four.tf" horiz-adv-x="579" 
d="M434 0h-51v143h-339v1l389 506h1v-457h97v-50h-97v-143zM383 512l-242 -319h242v319z" />
    <glyph glyph-name="five.tf" horiz-adv-x="579" 
d="M279 -10q-122 0 -190 107l42 28q51 -84 148 -84q68 0 113.5 48.5t45.5 112.5q0 66 -46 113t-112 47q-88 0 -136 -76l-41 24l42 330h302v-50h-258l-30 -224q54 46 129 46q85 0 144.5 -62t59.5 -148q0 -89 -59.5 -150.5t-153.5 -61.5z" />
    <glyph glyph-name="six.tf" horiz-adv-x="579" 
d="M289 415q87 0 149.5 -59.5t62.5 -152.5q0 -91 -61 -152t-151 -61q-95 0 -153 61t-58 152q0 72 42 129h-1l219 308h64l-168 -232q25 7 55 7zM289 41q68 0 113 46t45 116t-45 116t-113 46q-70 0 -114.5 -47t-44.5 -115q0 -70 43.5 -116t115.5 -46z" />
    <glyph glyph-name="seven.tf" horiz-adv-x="579" 
d="M189 0h-58l286 590h-340v50h420z" />
    <glyph glyph-name="eight.tf" horiz-adv-x="579" 
d="M432 45q-54 -55 -141 -55t-141 54.5t-54 131.5q0 63 34.5 105t80.5 58q-41 16 -69.5 54.5t-28.5 91.5q0 70 51 117.5t127 47.5t127 -47.5t51 -117.5q0 -53 -28.5 -91.5t-69.5 -54.5q46 -16 80.5 -58t34.5 -105q0 -77 -54 -131zM291 362q59 1 92.5 36.5t33.5 85.5
t-36 83.5t-90 33.5t-90 -33.5t-36 -83.5t33.5 -85.5t92.5 -36.5zM189 80q39 -39 102 -39t102 39t39 96q0 56 -39 95.5t-102 39.5t-102 -39.5t-39 -95.5q0 -57 39 -96z" />
    <glyph glyph-name="nine.tf" horiz-adv-x="579" 
d="M501 437q0 -72 -41 -129l-219 -308h-62l167 232q-32 -7 -56 -7q-87 0 -149.5 59.5t-62.5 152.5q0 91 61 152t151 61q95 0 153 -61t58 -152zM177 553q-45 -46 -45 -116t45 -116t113 -46q70 0 114.5 47t44.5 115q0 70 -43.5 116t-115.5 46q-68 0 -113 -46z" />
    <glyph glyph-name="exclamdown.case" horiz-adv-x="304" 
d="M119 697q13 13 32 13t32 -13t13 -32t-13 -32t-32 -13t-32 13t-13 32t13 32zM119 0l14 495h36l13 -495h-63z" />
    <glyph glyph-name="questiondown.case" horiz-adv-x="450" 
d="M262 633q-13 -13 -32 -13t-32 13t-13 32t13 32t32 13t32 -13t13 -32t-13 -32zM354 130l39 -27q-19 -49 -64.5 -81t-105.5 -32q-80 0 -133 52.5t-53 122.5q0 48 26.5 91.5t57.5 71.5t57.5 67t26.5 79v14h50v-14q0 -38 -17 -72t-41.5 -60t-48.5 -52t-41 -58t-17 -67
q0 -50 38 -87.5t95 -37.5q48 0 81 25.5t50 64.5z" />
    <glyph glyph-name="parenleft.case" horiz-adv-x="452" 
d="M389 -105v-50q-35 7 -78 27t-93.5 61.5t-91 95.5t-67.5 137t-27 179t27 178.5t67.5 137t91 95.5t93.5 61.5t78 27.5v-50q-23 -5 -51.5 -18.5t-64 -37.5t-69 -61.5t-61.5 -83.5t-45 -111t-17 -138q0 -87 24.5 -162t60.5 -124t80 -86t79.5 -54.5t63.5 -23.5z" />
    <glyph glyph-name="parenright.case" horiz-adv-x="445" 
d="M57 -155v50q27 6 62.5 23.5t79.5 54.5t80 85.5t60.5 124t24.5 162.5t-24.5 162t-60 123.5t-80 86t-79.5 55t-63 23.5v50q35 -7 78 -27.5t93.5 -61.5t91 -95.5t67.5 -137t27 -178.5t-27 -179t-67.5 -137t-91 -95.5t-93.5 -61.5t-78 -27z" />
    <glyph glyph-name="braceleft.case" horiz-adv-x="390" 
d="M350 -107v-43q-114 1 -174 64t-60 168v162q0 34 -19.5 56t-49.5 22h-15v45h15q29 0 49 22t20 56v162q0 106 60 169t174 64v-43q-93 0 -139 -52.5t-46 -137.5v-156q0 -82 -57 -106q57 -25 57 -107v-155q0 -85 46 -137.5t139 -52.5z" />
    <glyph glyph-name="braceright.case" horiz-adv-x="390" 
d="M40 -150v43q93 0 139 52.5t46 137.5v155q0 82 56 107q-56 23 -56 106v156q0 85 -46 137.5t-139 52.5v43q114 -1 174 -64.5t60 -168.5v-162q0 -34 20 -56t49 -22h15v-45h-15q-30 0 -49.5 -22t-19.5 -56v-162q0 -105 -60 -168t-174 -64z" />
    <glyph glyph-name="bracketleft.case" horiz-adv-x="282" 
d="M242 -150h-210v990h210v-43h-162v-904h162v-43z" />
    <glyph glyph-name="bracketright.case" horiz-adv-x="318" 
d="M286 840v-990h-211v43h162v904h-162v43h211z" />
    <glyph glyph-name="hyphen.case" horiz-adv-x="427" 
d="M340 380v-46h-253v46h253z" />
    <glyph glyph-name="endash.case" horiz-adv-x="577" 
d="M485 387v-47h-395v47h395z" />
    <glyph glyph-name="emdash.case" horiz-adv-x="797" 
d="M705 387v-47h-615v47h615z" />
    <glyph glyph-name="guillemotleft.case" horiz-adv-x="451" 
d="M236 161h-52l-137 174l137 173h52l-124 -173zM396 161h-52l-137 174l137 173h52l-124 -173z" />
    <glyph glyph-name="guillemotright.case" horiz-adv-x="451" 
d="M244 335l-137 -174h-52l124 174l-124 173h52zM404 335l-137 -174h-52l124 174l-124 173h52z" />
    <glyph glyph-name="guilsinglleft.case" horiz-adv-x="291" 
d="M236 161h-52l-137 174l137 173h52l-124 -173z" />
    <glyph glyph-name="guilsinglright.case" horiz-adv-x="291" 
d="M244 335l-137 -174h-52l124 174l-124 173h52z" />
    <glyph glyph-name="ampersand.ss01" horiz-adv-x="623" 
d="M457 0h-188q-93 0 -151 49.5t-58 131.5q0 57 31.5 101t90.5 63q-82 44 -82 136q0 71 51 120t126 49q94 0 147 -78l-41 -32q-35 59 -106 59q-49 0 -85 -33t-36 -85q0 -59 42.5 -89.5t104.5 -30.5h273v-48h-119v-313zM269 48h137v265h-141q-68 0 -109 -36.5t-41 -95.5
q0 -64 44.5 -98.5t109.5 -34.5z" />
    <glyph glyph-name="caron.Slovak" horiz-adv-x="223" 
d="M117 514h-37l8 152h55z" />
    </font>
</defs>
</svg>
