<svg width="28" height="20" viewBox="0 0 28 20" fill="none" xmlns="http://www.w3.org/2000/svg">
<path d="M0 2.5C0 1.11929 1.13964 0 2.54545 0H5.09091C6.49672 0 7.63636 1.11929 7.63636 2.5V5C7.63636 6.38071 6.49672 7.5 5.09091 7.5H2.54545C1.13964 7.5 0 6.38071 0 5V2.5Z" fill="url(#paint0_linear)"/>
<path d="M0 15C0 13.6193 1.13964 12.5 2.54545 12.5H5.09091C6.49672 12.5 7.63636 13.6193 7.63636 15V17.5C7.63636 18.8807 6.49672 20 5.09091 20H2.54545C1.13964 20 0 18.8807 0 17.5V15Z" fill="url(#paint1_linear)"/>
<path d="M22.9091 6.25C21.5033 6.25 20.3636 7.36929 20.3636 8.75V11.25C20.3636 12.6307 21.5033 13.75 22.9091 13.75H25.4545C26.8604 13.75 28 12.6307 28 11.25V8.75C28 7.36929 26.8604 6.25 25.4545 6.25H22.9091Z" fill="url(#paint2_linear)"/>
<path d="M8 4.5H11.6C12.2627 4.5 12.8 5.05964 12.8 5.75V13.25C12.8 13.9404 12.2627 14.5 11.6 14.5H8V17H11.6C13.5882 17 15.2 15.3211 15.2 13.25V10.75H20V8.25H15.2V5.75C15.2 3.67893 13.5882 2 11.6 2H8V4.5Z" fill="url(#paint3_linear)"/>
<defs>
<linearGradient id="paint0_linear" x1="14" y1="0" x2="14" y2="20" gradientUnits="userSpaceOnUse">
<stop stop-color="#94D2BD"/>
<stop offset="1" stop-color="#0A9396"/>
</linearGradient>
<linearGradient id="paint1_linear" x1="14" y1="0" x2="14" y2="20" gradientUnits="userSpaceOnUse">
<stop stop-color="#94D2BD"/>
<stop offset="1" stop-color="#0A9396"/>
</linearGradient>
<linearGradient id="paint2_linear" x1="14" y1="0" x2="14" y2="20" gradientUnits="userSpaceOnUse">
<stop stop-color="#94D2BD"/>
<stop offset="1" stop-color="#0A9396"/>
</linearGradient>
<linearGradient id="paint3_linear" x1="14" y1="2" x2="14" y2="17" gradientUnits="userSpaceOnUse">
<stop stop-color="#94D2BD"/>
<stop offset="1" stop-color="#0A9396"/>
</linearGradient>
</defs>
</svg>
