<svg width="18" height="23" viewBox="0 0 18 23" fill="none" xmlns="http://www.w3.org/2000/svg">
<path fill-rule="evenodd" clip-rule="evenodd" d="M3.81113 0.149214C1.7967 0.278601 0.297397 1.8001 0.177942 3.81514C0.0810958 5.44881 2.0758e-05 7.77846 3.98407e-09 11C-3.23723e-05 16.0256 0.197269 19.4726 0.343988 21.3412C0.403096 22.0939 1.24523 22.4739 1.8621 22.0385L8.42326 17.4071C8.76899 17.163 9.2309 17.163 9.57662 17.4071L16.1378 22.0385C16.7547 22.4739 17.5968 22.0939 17.6559 21.3412C17.8026 19.4726 17.9999 16.0256 17.9999 11C17.9999 7.77836 17.9189 5.44867 17.822 3.81499C17.7025 1.80002 16.2033 0.278611 14.1889 0.149223C12.8866 0.0655718 11.1728 0 8.99994 0C6.8272 0 5.11343 0.0655667 3.81113 0.149214Z" fill="url(#paint0_linear)"/>
<defs>
<linearGradient id="paint0_linear" x1="8.99997" y1="0" x2="8.99997" y2="22.2224" gradientUnits="userSpaceOnUse">
<stop stop-color="#94D2BD"/>
<stop offset="1" stop-color="#0A9396"/>
</linearGradient>
</defs>
</svg>
