<svg width="22" height="23" viewBox="0 0 22 23" fill="none" xmlns="http://www.w3.org/2000/svg">
<path fill-rule="evenodd" clip-rule="evenodd" d="M4.4002 1.60005C4.4002 0.992509 4.8927 0.5 5.50024 0.5C6.10778 0.5 6.60029 0.992509 6.60029 1.60005V2.7001H15.4007V1.60005C15.4007 0.992509 15.8932 0.5 16.5007 0.5C17.1083 0.5 17.6008 0.992509 17.6008 1.60005V2.7001H18.7008C20.5235 2.7001 22.001 4.17762 22.001 6.00024V19.2008C22.001 21.0235 20.5235 22.501 18.7008 22.501H3.30015C1.47753 22.501 0 21.0235 0 19.2008V6.00024C0 4.17762 1.47753 2.7001 3.30015 2.7001H4.4002V1.60005Z" fill="#52189C"/>
<path fill-rule="evenodd" clip-rule="evenodd" d="M8.90551 11.501C8.3269 11.501 7.85784 11.97 7.85784 12.5486C7.85784 13.1273 8.3269 13.5963 8.90551 13.5963H16.2392C16.8178 13.5963 17.2868 13.1273 17.2868 12.5486C17.2868 11.97 16.8178 11.501 16.2392 11.501H8.90551ZM5.76251 15.6916C5.1839 15.6916 4.71484 16.1607 4.71484 16.7393C4.71484 17.3179 5.1839 17.787 5.76251 17.787H12.0485C12.6271 17.787 13.0962 17.3179 13.0962 16.7393C13.0962 16.1607 12.6271 15.6916 12.0485 15.6916H5.76251Z" fill="white"/>
</svg>
