<svg width="24" height="25" viewBox="0 0 24 25" fill="none" xmlns="http://www.w3.org/2000/svg">
<path d="M22.411 18.8846L20.5061 20.7895C20.5061 20.7895 15.5564 22.9108 8.48528 15.8398C1.41421 8.76871 3.53553 3.81896 3.53553 3.81896L5.44047 1.91403C6.30108 1.05341 7.72442 1.15456 8.45468 2.12824L10.273 4.55261C10.8701 5.34885 10.791 6.46304 10.0872 7.16682L8.48528 8.76871C8.48528 8.76871 8.48528 10.1829 11.3137 13.0113C14.1421 15.8398 15.5563 15.8398 15.5563 15.8398L17.1582 14.2379C17.862 13.5341 18.9762 13.4549 19.7725 14.0521L22.1968 15.8704C23.1705 16.6006 23.2716 18.024 22.411 18.8846Z" fill="#52189C"/>
</svg>
