<svg width="20" height="21" viewBox="0 0 20 21" fill="none" xmlns="http://www.w3.org/2000/svg">
<path d="M0 3.5C0 1.84315 1.34315 0.5 3 0.5H17C18.6569 0.5 20 1.84315 20 3.5V17.5C20 19.1569 18.6569 20.5 17 20.5H3C1.34315 20.5 0 19.1569 0 17.5V3.5Z" fill="#52189C"/>
<path d="M5 6.5C5.55228 6.5 6 6.05228 6 5.5C6 4.94772 5.55228 4.5 5 4.5C4.44772 4.5 4 4.94772 4 5.5C4 6.05228 4.44772 6.5 5 6.5Z" fill="white"/>
<path d="M5 8.5C4.44772 8.5 4 8.94772 4 9.5V15.5C4 16.0523 4.44772 16.5 5 16.5C5.55228 16.5 6 16.0523 6 15.5V9.5C6 8.94772 5.55228 8.5 5 8.5Z" fill="white"/>
<path d="M12 10.5C10.8954 10.5 10 11.3954 10 12.5V15.5C10 16.0523 9.55229 16.5 9 16.5C8.44771 16.5 8 16.0523 8 15.5V9.5C8 8.94772 8.44772 8.5 9 8.5C9.40537 8.5 9.7544 8.7412 9.91141 9.08791C10.5193 8.715 11.2346 8.5 12 8.5C14.2091 8.5 16 10.2909 16 12.5V15.5C16 16.0523 15.5523 16.5 15 16.5C14.4477 16.5 14 16.0523 14 15.5V12.5C14 11.3954 13.1046 10.5 12 10.5Z" fill="white"/>
</svg>
