<svg width="20" height="21" viewBox="0 0 20 21" fill="none" xmlns="http://www.w3.org/2000/svg">
<path d="M11.1409 20.3611C9.53313 20.2101 8.32666 18.9628 8.20923 17.3523C8.0992 15.8432 8 13.618 8 10.5C8 7.382 8.0992 5.15682 8.20923 3.64773C8.32666 2.0372 9.53313 0.789902 11.1408 0.638862C11.9779 0.560221 12.9589 0.5 14 0.5C15.0411 0.5 16.0221 0.56022 16.8592 0.638862C18.4669 0.789901 19.6733 2.0372 19.7908 3.64773C19.9008 5.15683 20 7.382 20 10.5C20 13.618 19.9008 15.8432 19.7908 17.3523C19.6733 18.9628 18.4669 20.2101 16.8591 20.3611C16.0221 20.4398 15.0411 20.5 14 20.5C12.9589 20.5 11.9779 20.4398 11.1409 20.3611Z" fill="#52189C"/>
<path fill-rule="evenodd" clip-rule="evenodd" d="M5.20711 13.2929C5.59763 13.6834 5.59763 14.3166 5.20711 14.7071C4.81658 15.0976 4.18342 15.0976 3.79289 14.7071L0.292893 11.2071C-0.0976311 10.8166 -0.0976311 10.1834 0.292893 9.79289L3.79289 6.29289C4.18342 5.90237 4.81658 5.90237 5.20711 6.29289C5.59763 6.68342 5.59763 7.31658 5.20711 7.70711L3.41421 9.5H13C13.5523 9.5 14 9.94772 14 10.5C14 11.0523 13.5523 11.5 13 11.5L3.41421 11.5L5.20711 13.2929Z" fill="#52189C"/>
</svg>
