<svg width="20" height="21" viewBox="0 0 20 21" fill="none" xmlns="http://www.w3.org/2000/svg">
<path fill-rule="evenodd" clip-rule="evenodd" d="M3.69477 0.989325C2.00472 1.24648 0.665645 2.48488 0.375458 4.16957C0.173212 5.34372 0 6.83525 0 8.5C0 10.1647 0.173212 11.6563 0.375458 12.8304C0.624559 14.2766 1.64656 15.3939 3 15.844V19.2476C3 20.0219 3.84211 20.5024 4.50873 20.1085L10.6241 16.4949C12.8384 16.4586 14.8238 16.2361 16.3052 16.0107C17.9953 15.7535 19.3344 14.5151 19.6245 12.8304C19.8268 11.6563 20 10.1647 20 8.5C20 6.83525 19.8268 5.34372 19.6245 4.16957C19.3344 2.48488 17.9953 1.24648 16.3052 0.989325C14.6859 0.742933 12.4644 0.5 10 0.5C7.53559 0.5 5.31411 0.742933 3.69477 0.989325Z" fill="#52189C"/>
<path fill-rule="evenodd" clip-rule="evenodd" d="M5 5.5C4.44772 5.5 4 5.94772 4 6.5C4 7.05228 4.44772 7.5 5 7.5H15C15.5523 7.5 16 7.05228 16 6.5C16 5.94772 15.5523 5.5 15 5.5H5ZM5 9.5C4.44772 9.5 4 9.94772 4 10.5C4 11.0523 4.44772 11.5 5 11.5H9C9.55228 11.5 10 11.0523 10 10.5C10 9.94772 9.55228 9.5 9 9.5H5Z" fill="white"/>
</svg>
