<svg width="20" height="21" viewBox="0 0 20 21" fill="none" xmlns="http://www.w3.org/2000/svg">
<path fill-rule="evenodd" clip-rule="evenodd" d="M0.368993 5.04184C0.659124 2.84504 2.34504 1.15912 4.54184 0.868993C6.05208 0.669534 7.94127 0.5 10 0.5C12.0587 0.5 13.9479 0.669534 15.4582 0.868993C17.655 1.15912 19.3409 2.84504 19.631 5.04184C19.8305 6.55208 20 8.44127 20 10.5C20 12.5587 19.8305 14.4479 19.631 15.9582C19.3409 18.155 17.655 19.8409 15.4582 20.131C13.9479 20.3305 12.0587 20.5 10 20.5C7.94127 20.5 6.05208 20.3305 4.54184 20.131C2.34504 19.8409 0.659124 18.155 0.368993 15.9582C0.169534 14.4479 0 12.5587 0 10.5C0 8.44127 0.169534 6.55208 0.368993 5.04184Z" fill="#52189C"/>
<path fill-rule="evenodd" clip-rule="evenodd" d="M7 10.5C7 11.0523 6.55228 11.5 6 11.5C5.44772 11.5 5 11.0523 5 10.5C5 9.94771 5.44772 9.5 6 9.5C6.55228 9.5 7 9.94771 7 10.5ZM11 10.5C11 11.0523 10.5523 11.5 10 11.5C9.44771 11.5 9 11.0523 9 10.5C9 9.94771 9.44771 9.5 10 9.5C10.5523 9.5 11 9.94771 11 10.5ZM14 11.5C14.5523 11.5 15 11.0523 15 10.5C15 9.94771 14.5523 9.5 14 9.5C13.4477 9.5 13 9.94771 13 10.5C13 11.0523 13.4477 11.5 14 11.5Z" fill="white"/>
</svg>
