<svg width="22" height="19" viewBox="0 0 22 19" fill="none" xmlns="http://www.w3.org/2000/svg">
<path d="M12 3.5L11.4104 2.51732C10.8306 1.55094 9.87021 0.868353 8.75227 0.725846C7.83875 0.609395 6.66937 0.5 5.5 0.5C4.68392 0.5 3.86784 0.553279 3.13873 0.625052C1.53169 0.783247 0.319474 2.03621 0.19597 3.64628C0.0913573 5.01009 0 6.93529 0 9.5C0 11.3205 0.0662874 12.9422 0.150591 14.2685C0.291559 16.4862 2.01613 18.1935 4.23467 18.3214C5.91963 18.4185 8.17474 18.5 11 18.5C13.8253 18.5 16.0804 18.4185 17.7653 18.3214C19.9839 18.1935 21.7084 16.4862 21.8494 14.2685C21.9337 12.9422 22 11.3205 22 9.5C22 8.45886 21.9398 7.47795 21.8611 6.64085C21.7101 5.03313 20.4669 3.7899 18.8591 3.63886C18.0221 3.56022 17.0411 3.5 16 3.5H12Z" fill="#52189C"/>
<path fill-rule="evenodd" clip-rule="evenodd" d="M12.0002 3.5H0.210449C0.393936 1.96081 1.58086 0.778423 3.13889 0.625052C3.86801 0.553279 4.68408 0.5 5.50016 0.5C6.66954 0.5 7.83891 0.609395 8.75244 0.725846C9.87037 0.868353 10.8307 1.55094 11.4106 2.51732L12.0002 3.5Z" fill="#52189C"/>
</svg>
