<svg width="20" height="20" viewBox="0 0 20 20" fill="none" xmlns="http://www.w3.org/2000/svg">
<rect width="20" height="20" rx="4" fill="url(#paint0_linear_4)"/>
<path d="M12.5 2.5H10V7.5H7.5C6.11929 7.5 5 8.61929 5 10C5 11.3807 6.11929 12.5 7.5 12.5H10V7.5H12.5C13.8807 7.5 15 6.38071 15 5C15 3.61929 13.8807 2.5 12.5 2.5Z" fill="white"/>
<path opacity="0.25" d="M5 5C5 3.61929 6.11929 2.5 7.5 2.5H10V7.5H7.5C6.11929 7.5 5 6.38071 5 5Z" fill="white"/>
<path opacity="0.25" d="M10 10C10 8.61929 11.1193 7.5 12.5 7.5C13.8807 7.5 15 8.61929 15 10C15 11.3807 13.8807 12.5 12.5 12.5C11.1193 12.5 10 11.3807 10 10Z" fill="white"/>
<path opacity="0.25" d="M7.5 12.5C6.11929 12.5 5 13.6193 5 15C5 16.3807 6.11929 17.5 7.5 17.5C8.88069 17.5 10 16.3807 10 15V12.5H7.5Z" fill="white"/>
<defs>
<linearGradient id="paint0_linear_4" x1="10" y1="0" x2="10" y2="20" gradientUnits="userSpaceOnUse">
<stop stop-color="#D9ED92"/>
<stop offset="1" stop-color="#B5E48C"/>
</linearGradient>
</defs>
</svg>
