<svg width="21" height="21" viewBox="0 0 21 21" fill="none" xmlns="http://www.w3.org/2000/svg">
<rect width="21" height="21" rx="4" fill="url(#paint0_linear_4)"/>
<path d="M4.1109 8.0734C4.18966 7.02424 4.98638 6.20345 5.99781 6.13841C7.0796 6.06884 8.62406 6 10.5 6C12.376 6 13.9204 6.06884 15.0022 6.13841C16.0136 6.20345 16.8104 7.02424 16.8891 8.0734C16.9477 8.85432 17 9.75857 17 10.5C17 11.2414 16.9477 12.1457 16.8891 12.9266C16.8104 13.9757 16.0136 14.7965 15.0022 14.8616C13.9204 14.9312 12.376 15 10.5 15C8.62406 15 7.0796 14.9312 5.99781 14.8616C4.98638 14.7965 4.18966 13.9757 4.1109 12.9266C4.05228 12.1457 4 11.2414 4 10.5C4 9.75857 4.05228 8.85432 4.1109 8.0734Z" fill="white"/>
<path d="M10.2588 8.83321L11.9906 10.0322C12.3122 10.2548 12.3122 10.7456 11.9906 10.9682L10.2588 12.1672C9.89882 12.4164 9.41663 12.1484 9.41663 11.6991V9.30124C9.41663 8.85197 9.89882 8.584 10.2588 8.83321Z" fill="url(#paint1_linear_4)"/>
<defs>
<linearGradient id="paint0_linear_4" x1="10.5" y1="0" x2="10.5" y2="21" gradientUnits="userSpaceOnUse">
<stop stop-color="#D9ED92"/>
<stop offset="1" stop-color="#B5E48C"/>
</linearGradient>
<linearGradient id="paint1_linear_4" x1="10.8242" y1="8.73779" x2="10.8242" y2="12.2626" gradientUnits="userSpaceOnUse">
<stop stop-color="#D9ED92"/>
<stop offset="1" stop-color="#B5E48C"/>
</linearGradient>
</defs>
</svg>
