<svg width="207" height="207" viewBox="0 0 207 207" fill="none" xmlns="http://www.w3.org/2000/svg">
<path d="M101.558 15.6276H106.585H107.957H111.842C112.527 15.6276 113.213 14.942 113.213 14.2563V10.3712C113.213 9.68561 112.527 9 111.842 9H106.814H105.443H101.786C101.101 9 100.415 9.68561 100.415 10.3712V14.0278C100.186 14.942 100.872 15.6276 101.558 15.6276Z" fill="black"/>
<path d="M127.61 15.6276H132.638H139.266H140.637H144.294C144.979 15.6276 145.665 14.942 145.665 14.2563V10.3712C145.665 9.68561 144.979 9 144.294 9H139.266H132.638H131.267H127.61C126.925 9 126.239 9.68561 126.239 10.3712V14.0278C126.239 14.942 126.925 15.6276 127.61 15.6276Z" fill="black"/>
<path d="M62.4777 22.0266H66.1343C66.8199 22.0266 67.5055 22.7122 67.5055 23.3978V27.0544C67.5055 27.74 68.1911 28.4256 68.8767 28.4256H73.9045H78.9323C79.6179 28.4256 80.3035 29.1112 80.3035 29.7969V33.4534C80.3035 34.1391 80.9892 34.8247 81.6748 34.8247H85.3314C86.017 34.8247 86.7026 35.5103 86.7026 36.1959V41.2237V47.8513V52.8791C86.7026 53.5647 86.017 54.2503 85.3314 54.2503H82.1318C81.4462 54.2503 80.7606 53.5647 80.7606 52.8791V49.2225C80.7606 48.5369 80.075 47.8513 79.3894 47.8513H75.7328C75.0472 47.8513 74.3616 48.5369 74.3616 49.2225V54.7074V59.7352C74.3616 60.4208 75.0472 61.1064 75.7328 61.1064H79.3894C80.075 61.1064 80.7606 61.792 80.7606 62.4776V66.1342C80.7606 66.8198 81.4462 67.5054 82.1318 67.5054H85.7884C86.474 67.5054 87.1597 66.8198 87.1597 66.1342V62.4776C87.1597 61.792 87.8453 61.1064 88.5309 61.1064H92.1875C92.8731 61.1064 93.5587 60.4208 93.5587 59.7352V54.7074V49.6796C93.5587 48.994 94.2443 48.3083 94.9299 48.3083H98.5865C99.2721 48.3083 99.9577 48.994 99.9577 49.6796V53.3362C99.9577 54.0218 100.643 54.7074 101.329 54.7074H104.986C105.671 54.7074 106.357 54.0218 106.357 53.3362V48.3083V43.2805C106.357 42.5949 107.042 41.9093 107.728 41.9093H111.842C112.527 41.9093 113.213 41.2237 113.213 40.5381V36.4244C113.213 35.7388 113.898 35.0532 114.584 35.0532H118.241C118.926 35.0532 119.612 34.3676 119.612 33.682V30.0254C119.612 29.3398 118.926 28.6542 118.241 28.6542H114.584C113.898 28.6542 113.213 27.9686 113.213 27.283V23.3978C113.213 22.7122 112.527 22.0266 111.842 22.0266H108.185C107.499 22.0266 106.814 22.7122 106.814 23.3978V27.0544C106.814 27.74 106.128 28.4256 105.443 28.4256H101.786C101.1 28.4256 100.415 27.74 100.415 27.0544V22.0266V16.9988C100.415 16.3132 99.7292 15.6276 99.0436 15.6276H94.0158H87.3882H82.1318C81.4462 15.6276 80.7606 16.3132 80.7606 16.9988V20.6554C80.7606 21.341 80.075 22.0266 79.3894 22.0266H75.7328C75.0472 22.0266 74.3616 21.341 74.3616 20.6554V16.9988C74.3616 16.3132 75.0472 15.6276 75.7328 15.6276H79.3894C80.075 15.6276 80.7606 14.942 80.7606 14.2563V10.3712C80.7606 9.68561 80.075 9 79.3894 9H74.3616H69.3338C68.6482 9 67.9626 9.68561 67.9626 10.3712V14.0278C67.9626 14.7134 67.2769 15.399 66.5913 15.399H62.9347C62.2491 15.399 61.5635 16.0846 61.5635 16.7703V20.4268C61.1064 21.341 61.7921 22.0266 62.4777 22.0266ZM92.1875 22.0266C92.8731 22.0266 93.5587 22.7122 93.5587 23.3978V27.0544C93.5587 27.74 92.8731 28.4256 92.1875 28.4256H88.5309C87.8453 28.4256 87.1597 27.74 87.1597 27.0544V23.3978C87.1597 22.7122 87.8453 22.0266 88.5309 22.0266H92.1875Z" fill="black"/>
<path d="M113.213 20.6557C113.213 21.3414 113.899 22.027 114.585 22.027H118.241C118.927 22.027 119.612 22.7126 119.612 23.3982V27.0548C119.612 27.7404 120.298 28.426 120.984 28.426H126.011H132.41H133.782H137.438C138.124 28.426 138.81 27.7404 138.81 27.0548V23.3982C138.81 22.7126 138.124 22.027 137.438 22.027H132.41H127.383C126.697 22.027 126.011 21.3414 126.011 20.6557V16.9992C126.011 16.3135 125.326 15.6279 124.64 15.6279H119.612H118.241H114.585C113.899 15.6279 113.213 16.3135 113.213 16.9992V20.6557Z" fill="black"/>
<path d="M69.1041 41.6784H74.1319H75.5032H79.1598C79.8454 41.6784 80.531 40.9927 80.531 40.3071V36.422C80.531 35.7364 79.8454 35.0508 79.1598 35.0508H74.1319H72.7607H69.1041C68.4185 35.0508 67.7329 35.7364 67.7329 36.422V40.0786C67.7329 40.9927 68.19 41.6784 69.1041 41.6784Z" fill="black"/>
<path d="M118.241 48.0811H114.585C113.899 48.0811 113.213 48.7667 113.213 49.4523V53.1089C113.213 53.7945 113.899 54.4801 114.585 54.4801H118.241C118.927 54.4801 119.612 53.7945 119.612 53.1089V49.4523C119.841 48.7667 119.155 48.0811 118.241 48.0811Z" fill="black"/>
<path d="M127.61 54.7075H131.267C131.953 54.7075 132.638 54.0219 132.638 53.3363V49.6797C132.638 48.9941 133.324 48.3085 134.01 48.3085H137.666C138.352 48.3085 139.037 47.6229 139.037 46.9373V43.2807C139.037 42.595 139.723 41.9094 140.409 41.9094H144.065C144.751 41.9094 145.436 41.2238 145.436 40.5382V35.5104V34.1392V30.0255C145.436 29.3399 144.751 28.6543 144.065 28.6543H140.409C139.723 28.6543 139.037 29.3399 139.037 30.0255V33.6821C139.037 34.3677 138.352 35.0533 137.666 35.0533H132.638H127.61C126.925 35.0533 126.239 35.7389 126.239 36.4246V41.4524V48.0799V53.1077C126.239 54.0219 126.925 54.7075 127.61 54.7075Z" fill="black"/>
<path d="M62.4782 61.1033H66.1347C66.8204 61.1033 67.506 60.4177 67.506 59.7321V54.7043V48.3053V46.9341V43.2775C67.506 42.5919 66.8204 41.9062 66.1347 41.9062H62.4782C61.7925 41.9062 61.1069 42.5919 61.1069 43.2775V48.3053V54.7043V59.7321C61.1069 60.4177 61.7925 61.1033 62.4782 61.1033Z" fill="black"/>
<path d="M119.84 59.7329C119.84 60.4185 120.525 61.1041 121.211 61.1041H124.868C125.553 61.1041 126.239 60.4185 126.239 59.7329V56.0763C126.239 55.3907 125.553 54.7051 124.868 54.7051H121.211C120.525 54.7051 119.84 55.3907 119.84 56.0763V59.7329Z" fill="black"/>
<path d="M48.0798 61.1064H41.6808H36.4244C35.7388 61.1064 35.0532 61.7921 35.0532 62.4777V66.1343C35.0532 66.8199 34.3676 67.5055 33.682 67.5055H28.6542H23.3978C22.7122 67.5055 22.0266 68.1911 22.0266 68.8767V72.5333C22.0266 73.2189 21.341 73.9045 20.6554 73.9045H16.9988C16.3132 73.9045 15.6276 73.2189 15.6276 72.5333V68.8767C15.6276 68.1911 14.942 67.5055 14.2563 67.5055H10.3712C9.68561 67.5055 9 68.1911 9 68.8767V73.9045V80.5321V86.9311V91.9589C9 92.6445 9.68561 93.3301 10.3712 93.3301H14.0278C14.7134 93.3301 15.399 92.6445 15.399 91.9589V86.9311V82.1318C15.399 81.4462 16.0846 80.7606 16.7703 80.7606H21.7981H28.4256H33.4534C34.1391 80.7606 34.8247 80.075 34.8247 79.3894V75.7328C34.8247 75.0472 35.5103 74.3616 36.1959 74.3616H41.2237H46.2515C46.9371 74.3616 47.6227 73.676 47.6227 72.9904V69.3338C47.6227 68.6482 48.3083 67.9626 48.994 67.9626H54.7074H56.0786H59.7352C60.4208 67.9626 61.1064 67.2769 61.1064 66.5913V62.9347C61.1064 62.2491 60.4208 61.5635 59.7352 61.5635H54.7074H48.0798V61.1064Z" fill="black"/>
<path d="M190.002 67.733C190.688 67.733 191.374 67.0474 191.374 66.3618V62.7052C191.374 62.0196 190.688 61.334 190.002 61.334H186.346C185.66 61.334 184.975 62.0196 184.975 62.7052V66.1333C184.975 66.8189 185.66 67.5045 186.346 67.5045H190.002V67.733Z" fill="black"/>
<path d="M80.7605 69.1042C80.7605 68.4186 80.0748 67.733 79.3892 67.733H75.7327C75.047 67.733 74.3614 67.0474 74.3614 66.3618V62.7052C74.3614 62.0196 73.6758 61.334 72.9902 61.334H69.3336C68.648 61.334 67.9624 62.0196 67.9624 62.7052V67.733V72.7608C67.9624 73.4464 68.648 74.1321 69.3336 74.1321H74.3614H75.7327H79.3892C80.0748 74.1321 80.7605 73.4464 80.7605 72.7608V69.1042Z" fill="black"/>
<path d="M93.7887 69.1066C93.7887 68.421 93.1031 67.7354 92.4175 67.7354H88.7609C88.0753 67.7354 87.3896 68.421 87.3896 69.1066V72.7632C87.3896 73.4488 88.0753 74.1344 88.7609 74.1344H92.4175C93.1031 74.1344 93.7887 73.4488 93.7887 72.7632V69.1066Z" fill="black"/>
<path d="M101.557 74.1344H105.214C105.899 74.1344 106.585 73.4488 106.585 72.7632V69.1066C106.585 68.421 105.899 67.7354 105.214 67.7354H101.557C100.872 67.7354 100.186 68.421 100.186 69.1066V72.7632C100.186 73.4488 100.872 74.1344 101.557 74.1344Z" fill="black"/>
<path d="M126.239 74.1323H131.266C131.952 74.1323 132.638 73.4467 132.638 72.7611V69.1045C132.638 68.4189 133.323 67.7333 134.009 67.7333H137.665C138.351 67.7333 139.037 68.4189 139.037 69.1045V72.7611C139.037 73.4467 139.722 74.1323 140.408 74.1323H144.064C144.75 74.1323 145.436 73.4467 145.436 72.7611V67.7333V61.3342V54.7066V53.3354V49.6788C145.436 48.9932 144.75 48.3076 144.064 48.3076H140.408C139.722 48.3076 139.037 48.9932 139.037 49.6788V53.3354C139.037 54.021 138.351 54.7066 137.665 54.7066H134.009C133.323 54.7066 132.638 55.3923 132.638 56.0779V59.7345C132.638 60.4201 131.952 61.1057 131.266 61.1057H127.61C126.924 61.1057 126.239 61.7913 126.239 62.4769V66.1335C126.239 66.8191 125.553 67.5047 124.867 67.5047H121.211C120.525 67.5047 119.84 66.8191 119.84 66.1335V62.4769C119.84 61.7913 119.154 61.1057 118.468 61.1057H114.812C114.126 61.1057 113.441 60.4201 113.441 59.7345V56.0779C113.441 55.3923 112.755 54.7066 112.069 54.7066H108.413C107.727 54.7066 107.042 55.3923 107.042 56.0779V61.1057V66.1335C107.042 66.8191 107.727 67.5047 108.413 67.5047H111.841C112.526 67.5047 113.212 68.1903 113.212 68.8759V72.5325C113.212 73.2181 113.898 73.9037 114.583 73.9037H119.611H126.239V74.1323Z" fill="black"/>
<path d="M160.292 67.733H163.949C164.634 67.733 165.32 67.0474 165.32 66.3618V62.7052C165.32 62.0196 164.634 61.334 163.949 61.334H158.921H153.893C153.208 61.334 152.522 62.0196 152.522 62.7052V67.733V74.1321V79.1599C152.522 79.8455 153.208 80.5311 153.893 80.5311H158.921H165.32H170.348C171.033 80.5311 171.719 79.8455 171.719 79.1599V75.5033C171.719 74.8177 172.405 74.1321 173.09 74.1321H176.747C177.433 74.1321 178.118 74.8177 178.118 75.5033V79.1599C178.118 79.8455 177.433 80.5311 176.747 80.5311H173.09C172.405 80.5311 171.719 81.2167 171.719 81.9023V85.5589C171.719 86.2445 171.033 86.9301 170.348 86.9301H166.691C166.006 86.9301 165.32 87.6157 165.32 88.3013V93.3292V99.7282V104.756C165.32 105.442 166.006 106.127 166.691 106.127H170.348C171.033 106.127 171.719 105.442 171.719 104.756V99.7282V94.7004C171.719 94.0148 172.405 93.3292 173.09 93.3292H176.747C177.433 93.3292 178.118 92.6435 178.118 91.9579V88.3013C178.118 87.6157 178.804 86.9301 179.489 86.9301H183.146C183.832 86.9301 184.517 86.2445 184.517 85.5589V80.5311V73.9035V68.8757C184.517 68.1901 183.832 67.5045 183.146 67.5045H178.118H171.719H166.691C166.006 67.5045 165.32 68.1901 165.32 68.8757V72.5323C165.32 73.2179 164.634 73.9035 163.949 73.9035H160.292C159.607 73.9035 158.921 73.2179 158.921 72.5323V68.8757C158.921 68.1901 159.378 67.733 160.292 67.733Z" fill="black"/>
<path d="M196.401 67.7354H192.745C192.059 67.7354 191.374 68.421 191.374 69.1066V74.1344V80.7619V85.7898C191.374 86.4754 192.059 87.161 192.745 87.161H196.401C197.087 87.161 197.773 86.4754 197.773 85.7898V80.7619V74.1344V72.7632V69.1066C198.001 68.1924 197.316 67.7354 196.401 67.7354Z" fill="black"/>
<path d="M53.1069 80.7633C53.7925 80.7633 54.4781 80.0777 54.4781 79.3921V75.7355C54.4781 75.0499 53.7925 74.3643 53.1069 74.3643H49.4503C48.7647 74.3643 48.0791 75.0499 48.0791 75.7355V79.3921C48.0791 80.0777 48.7647 80.7633 49.4503 80.7633H53.1069Z" fill="black"/>
<path d="M145.893 82.132C145.893 81.4464 145.208 80.7607 144.522 80.7607H140.865C140.18 80.7607 139.494 81.4464 139.494 82.132V85.7886C139.494 86.4742 140.18 87.1598 140.865 87.1598H144.522C145.208 87.1598 145.893 86.4742 145.893 85.7886V82.132Z" fill="black"/>
<path d="M46.7099 87.1582H43.0533C42.3677 87.1582 41.6821 87.8438 41.6821 88.5294V92.186C41.6821 92.8716 42.3677 93.5572 43.0533 93.5572H48.0812H49.4524H53.109C53.7946 93.5572 54.4802 92.8716 54.4802 92.186V88.5294C54.4802 87.8438 53.7946 87.1582 53.109 87.1582H48.0812H46.7099Z" fill="black"/>
<path d="M67.735 93.7874H72.7628C73.4484 93.7874 74.134 93.1018 74.134 92.4161V87.3883V86.0171V82.132C74.134 81.4464 73.4484 80.7607 72.7628 80.7607H69.1062C68.4206 80.7607 67.735 81.4464 67.735 82.132V85.7886C67.735 86.4742 67.0494 87.1598 66.3638 87.1598H62.7072C62.0215 87.1598 61.3359 87.8454 61.3359 88.531V92.1876C61.3359 92.8732 62.0215 93.5588 62.7072 93.5588H67.735V93.7874Z" fill="black"/>
<path d="M137.895 87.1582H134.239C133.553 87.1582 132.868 87.8438 132.868 88.5294V92.186C132.868 92.8716 133.553 93.5572 134.239 93.5572H137.895C138.581 93.5572 139.267 92.8716 139.267 92.186V88.5294C139.267 87.8438 138.581 87.1582 137.895 87.1582Z" fill="black"/>
<path d="M145.894 98.8149C145.894 99.5005 146.579 100.186 147.265 100.186H150.921C151.607 100.186 152.293 100.872 152.293 101.557V105.214C152.293 105.9 152.978 106.585 153.664 106.585H157.32C158.006 106.585 158.692 105.9 158.692 105.214V100.186V95.1583C158.692 94.4727 158.006 93.7871 157.32 93.7871H152.293H150.921H147.265C146.579 93.7871 145.894 94.4727 145.894 95.1583V98.8149Z" fill="black"/>
<path d="M196.401 93.7871H191.373H184.974H179.946C179.26 93.7871 178.575 94.4727 178.575 95.1583V100.186V106.585V111.842C178.575 112.527 177.889 113.213 177.204 113.213H173.547C172.861 113.213 172.176 113.898 172.176 114.584V118.241C172.176 118.926 172.861 119.612 173.547 119.612H177.204C177.889 119.612 178.575 120.297 178.575 120.983V126.011V131.039C178.575 131.724 179.26 132.41 179.946 132.41H183.603C184.288 132.41 184.974 131.724 184.974 131.039V126.011V120.983C184.974 120.297 185.659 119.612 186.345 119.612H190.002C190.687 119.612 191.373 118.926 191.373 118.241V113.213V108.185C191.373 107.499 190.687 106.814 190.002 106.814H186.345C185.659 106.814 184.974 106.128 184.974 105.443V101.786C184.974 101.1 185.659 100.415 186.345 100.415H191.373H192.744H196.401C197.086 100.415 197.772 99.7291 197.772 99.0435V95.3869C198 94.2442 197.315 93.7871 196.401 93.7871Z" fill="black"/>
<path d="M147.265 113.212H150.921C151.607 113.212 152.293 112.526 152.293 111.84V108.184C152.293 107.498 151.607 106.812 150.921 106.812H147.265C146.579 106.812 145.894 107.498 145.894 108.184V111.84C145.894 112.526 146.351 113.212 147.265 113.212Z" fill="black"/>
<path d="M134.239 119.84H139.267H140.638H144.295C144.98 119.84 145.666 119.154 145.666 118.468V114.812C145.666 114.126 144.98 113.441 144.295 113.441H140.638C139.952 113.441 139.267 112.755 139.267 112.069V107.042V105.67V102.014C139.267 101.328 138.581 100.643 137.895 100.643H134.239C133.553 100.643 132.868 101.328 132.868 102.014V107.042V113.669V118.697C132.868 119.154 133.325 119.84 134.239 119.84Z" fill="black"/>
<path d="M10.3712 126.238H14.0278C14.7134 126.238 15.399 125.553 15.399 124.867V119.839V118.468V114.812C15.399 114.126 14.7134 113.44 14.0278 113.44H10.3712C9.68561 113.44 9 114.126 9 114.812V119.839V124.867C9 125.553 9.68561 126.238 10.3712 126.238Z" fill="black"/>
<path d="M61.1073 132.867H67.5063H68.8775H72.5341C73.2197 132.867 73.9053 132.181 73.9053 131.495V127.839C73.9053 127.153 73.2197 126.467 72.5341 126.467H67.5063H62.4785C61.7929 126.467 61.1073 125.782 61.1073 125.096V121.44C61.1073 120.754 60.4217 120.068 59.7361 120.068H56.0795C55.3939 120.068 54.7082 120.754 54.7082 121.44V125.096C54.7082 125.782 54.0226 126.467 53.337 126.467H49.6804C48.9948 126.467 48.3092 125.782 48.3092 125.096V121.44C48.3092 120.754 48.9948 120.068 49.6804 120.068H53.337C54.0226 120.068 54.7082 119.383 54.7082 118.697V115.041C54.7082 114.355 54.0226 113.669 53.337 113.669H49.6804C48.9948 113.669 48.3092 112.984 48.3092 112.298V108.642C48.3092 107.956 48.9948 107.27 49.6804 107.27H53.337C54.0226 107.27 54.7082 107.956 54.7082 108.642V111.841C54.7082 112.527 55.3939 113.212 56.0795 113.212H59.7361C60.4217 113.212 61.1073 112.527 61.1073 111.841V108.185C61.1073 107.499 61.7929 106.813 62.4785 106.813H66.1351C66.8207 106.813 67.5063 106.128 67.5063 105.442V101.785C67.5063 101.1 66.8207 100.414 66.1351 100.414H61.1073H54.7082H48.3092H41.9102H36.4253C35.7397 100.414 35.0541 99.7287 35.0541 99.0431V94.0152V92.644V88.9874C35.0541 88.3018 34.3685 87.6162 33.6828 87.6162H30.0262C29.3406 87.6162 28.655 88.3018 28.655 88.9874V92.644C28.655 93.3296 27.9694 94.0152 27.2838 94.0152H22.0275H16.9996C16.314 94.0152 15.6284 94.7008 15.6284 95.3865V100.414V105.442C15.6284 106.128 16.314 106.813 16.9996 106.813H20.6562C21.3418 106.813 22.0275 106.128 22.0275 105.442V101.785C22.0275 101.1 22.7131 100.414 23.3987 100.414H27.0553C27.7409 100.414 28.4265 101.1 28.4265 101.785V105.442C28.4265 106.128 29.1121 106.813 29.7977 106.813H33.4543C34.1399 106.813 34.8255 107.499 34.8255 108.185V111.841C34.8255 112.527 34.1399 113.212 33.4543 113.212H30.0262C29.3406 113.212 28.655 112.527 28.655 111.841V108.185C28.655 107.499 27.9694 106.813 27.2838 106.813H23.3987C22.7131 106.813 22.0275 107.499 22.0275 108.185V113.212V119.611V124.639C22.0275 125.325 22.7131 126.01 23.3987 126.01H28.4265H33.4543C34.1399 126.01 34.8255 125.325 34.8255 124.639V120.983C34.8255 120.297 35.5111 119.611 36.1967 119.611H39.8533C40.5389 119.611 41.2246 120.297 41.2246 120.983V126.01V131.038C41.2246 131.724 41.9102 132.409 42.5958 132.409H47.6236H54.7082H61.1073V132.867Z" fill="black"/>
<path d="M196.401 126.239H192.745C192.059 126.239 191.374 126.925 191.374 127.61V131.267C191.374 131.953 192.059 132.638 192.745 132.638H196.401C197.087 132.638 197.773 131.953 197.773 131.267V127.61C198.001 126.925 197.316 126.239 196.401 126.239Z" fill="black"/>
<path d="M40.0807 132.867H35.0528H33.6816H30.025C29.3394 132.867 28.6538 133.553 28.6538 134.238V137.895C28.6538 138.581 29.3394 139.266 30.025 139.266H35.0528H36.4241H40.0807C40.7663 139.266 41.4519 138.581 41.4519 137.895V134.238C41.6804 133.324 40.9948 132.867 40.0807 132.867Z" fill="black"/>
<path d="M75.5035 139.266H79.1601C79.8458 139.266 80.5314 138.581 80.5314 137.895V134.238C80.5314 133.553 79.8458 132.867 79.1601 132.867H75.5035C74.8179 132.867 74.1323 133.553 74.1323 134.238V137.895C74.1323 138.581 74.8179 139.266 75.5035 139.266Z" fill="black"/>
<path d="M95.1578 139.266H98.8144C99.5 139.266 100.186 138.581 100.186 137.895V134.238C100.186 133.553 99.5 132.867 98.8144 132.867H95.1578C94.4722 132.867 93.7866 133.553 93.7866 134.238V137.895C93.7866 138.581 94.2437 139.266 95.1578 139.266Z" fill="black"/>
<path d="M114.585 132.867C113.899 132.867 113.213 133.553 113.213 134.238V137.895C113.213 138.581 113.899 139.266 114.585 139.266H118.241C118.927 139.266 119.612 138.581 119.612 137.895V134.238C119.612 133.553 118.927 132.867 118.241 132.867H114.585Z" fill="black"/>
<path d="M186.346 139.266H190.002C190.688 139.266 191.374 138.581 191.374 137.895V134.238C191.374 133.553 190.688 132.867 190.002 132.867H186.346C185.66 132.867 184.975 133.553 184.975 134.238V137.895C184.975 138.581 185.432 139.266 186.346 139.266Z" fill="black"/>
<path d="M9 144.292C9 144.978 9.68561 145.664 10.3712 145.664H15.399H21.7981H23.1693H26.8259C27.5115 145.664 28.1971 144.978 28.1971 144.292V140.636C28.1971 139.95 27.5115 139.265 26.8259 139.265H22.0266H15.6276H14.0278H10.3712C9.68561 139.265 9 139.95 9 140.636V144.292Z" fill="black"/>
<path d="M49.4503 139.265C48.7647 139.265 48.0791 139.95 48.0791 140.636V144.292C48.0791 144.978 48.7647 145.664 49.4503 145.664H53.1069C53.7925 145.664 54.4781 144.978 54.4781 144.292V140.636C54.4781 139.95 53.7925 139.265 53.1069 139.265H49.4503Z" fill="black"/>
<path d="M108.185 145.895H111.842C112.527 145.895 113.213 145.21 113.213 144.524V140.867C113.213 140.182 112.527 139.496 111.842 139.496H106.814H105.443H101.786C101.101 139.496 100.415 140.182 100.415 140.867V144.524C100.415 145.21 101.101 145.895 101.786 145.895H106.814H108.185Z" fill="black"/>
<path d="M196.399 139.268H192.743C192.057 139.268 191.371 139.954 191.371 140.639V144.296C191.371 144.981 190.686 145.667 190 145.667H186.344C185.658 145.667 184.972 144.981 184.972 144.296V140.639C184.972 139.954 184.287 139.268 183.601 139.268H179.945C179.259 139.268 178.573 138.582 178.573 137.897V134.24C178.573 133.555 177.888 132.869 177.202 132.869H173.546C172.86 132.869 172.174 133.555 172.174 134.24V137.897C172.174 138.582 171.489 139.268 170.803 139.268H166.689C166.004 139.268 165.318 138.582 165.318 137.897V134.24C165.318 133.555 166.004 132.869 166.689 132.869H170.346C171.032 132.869 171.717 132.183 171.717 131.498V127.841C171.717 127.156 171.032 126.47 170.346 126.47H166.689C166.004 126.47 165.318 125.784 165.318 125.099V120.071V118.7V115.043C165.318 114.357 164.633 113.672 163.947 113.672H160.29C159.605 113.672 158.919 114.357 158.919 115.043V118.7C158.919 119.385 158.234 120.071 157.548 120.071H152.52H147.492C146.807 120.071 146.121 120.757 146.121 121.442V126.47V131.498C146.121 132.183 146.807 132.869 147.492 132.869H152.52H157.548C158.234 132.869 158.919 133.555 158.919 134.24V137.897C158.919 138.582 158.234 139.268 157.548 139.268H152.52H147.492C146.807 139.268 146.121 138.582 146.121 137.897V134.24C146.121 133.555 145.436 132.869 144.75 132.869H141.093C140.408 132.869 139.722 132.183 139.722 131.498V127.841C139.722 127.156 139.036 126.47 138.351 126.47H134.694C134.009 126.47 133.323 127.156 133.323 127.841V131.498C133.323 132.183 132.637 132.869 131.952 132.869H128.295C127.61 132.869 126.924 133.555 126.924 134.24V139.268V144.296C126.924 144.981 126.238 145.667 125.553 145.667H120.525H115.497C114.812 145.667 114.126 146.353 114.126 147.038V152.066V158.694V165.093V171.492V176.52C114.126 177.205 114.812 177.891 115.497 177.891H120.525H127.153H133.552H134.923H138.579C139.265 177.891 139.951 177.205 139.951 176.52V172.863C139.951 172.177 139.265 171.492 138.579 171.492H133.552H127.153H122.125C121.439 171.492 120.754 170.806 120.754 170.121V166.692C120.754 166.007 121.439 165.321 122.125 165.321H125.781C126.467 165.321 127.153 164.636 127.153 163.95V160.293C127.153 159.608 126.467 158.922 125.781 158.922H122.125C121.439 158.922 120.754 158.237 120.754 157.551V153.894C120.754 153.209 121.439 152.523 122.125 152.523H125.781C126.467 152.523 127.153 153.209 127.153 153.894V157.551C127.153 158.237 127.838 158.922 128.524 158.922H132.18C132.866 158.922 133.552 159.608 133.552 160.293V163.95C133.552 164.636 134.237 165.321 134.923 165.321H138.579C139.265 165.321 139.951 166.007 139.951 166.692V170.349C139.951 171.035 140.636 171.72 141.322 171.72H146.35H151.377C152.063 171.72 152.749 172.406 152.749 173.092V176.748C152.749 177.434 153.434 178.119 154.12 178.119H157.777C158.462 178.119 159.148 177.434 159.148 176.748V173.092C159.148 172.406 159.833 171.72 160.519 171.72H164.176C164.861 171.72 165.547 172.406 165.547 173.092V176.748C165.547 177.434 166.232 178.119 166.918 178.119H170.575C171.26 178.119 171.946 177.434 171.946 176.748V173.092C171.946 172.406 172.631 171.72 173.317 171.72H176.974C177.659 171.72 178.345 172.406 178.345 173.092V178.119V183.147C178.345 183.833 179.03 184.518 179.716 184.518H184.972H191.6H192.971H196.399C197.085 184.518 197.77 183.833 197.77 183.147V179.491C197.77 178.805 197.085 178.119 196.399 178.119H192.743C192.057 178.119 191.371 177.434 191.371 176.748V171.72V165.321V160.293C191.371 159.608 192.057 158.922 192.743 158.922H196.399C197.085 158.922 197.77 158.237 197.77 157.551V152.523V146.124V144.753V141.096C197.999 139.954 197.313 139.268 196.399 139.268ZM183.373 165.321H179.716C179.03 165.321 178.345 164.636 178.345 163.95V160.293C178.345 159.608 179.03 158.922 179.716 158.922H183.373C184.058 158.922 184.744 159.608 184.744 160.293V163.95C184.972 164.636 184.287 165.321 183.373 165.321ZM176.974 145.896C177.659 145.896 178.345 146.581 178.345 147.267V150.923C178.345 151.609 177.659 152.295 176.974 152.295H173.317C172.631 152.295 171.946 151.609 171.946 150.923V147.267C171.946 146.581 172.631 145.896 173.317 145.896H176.974ZM137.894 145.896C138.579 145.896 139.265 146.581 139.265 147.267V150.923C139.265 151.609 138.579 152.295 137.894 152.295H134.237C133.552 152.295 132.866 151.609 132.866 150.923V147.267C132.866 146.581 133.552 145.896 134.237 145.896H137.894ZM158.919 165.321H152.292H147.264C146.578 165.321 145.893 164.636 145.893 163.95V158.922V152.295V147.267C145.893 146.581 146.578 145.896 147.264 145.896H152.292H158.919H163.947C164.633 145.896 165.318 146.581 165.318 147.267V152.295V158.922V163.95C165.318 164.636 164.633 165.321 163.947 165.321H158.919Z" fill="black"/>
<path d="M157.32 152.295H153.664C152.978 152.295 152.292 152.981 152.292 153.666V157.323C152.292 158.008 152.978 158.694 153.664 158.694H157.32C158.006 158.694 158.692 158.008 158.692 157.323V153.666C158.92 152.981 158.234 152.295 157.32 152.295Z" fill="black"/>
<path d="M101.557 165.32H105.214C105.899 165.32 106.585 164.634 106.585 163.948V158.921V157.549V153.893C106.585 153.207 105.899 152.521 105.214 152.521H101.557C100.872 152.521 100.186 153.207 100.186 153.893V158.921V163.948C100.186 164.634 100.872 165.32 101.557 165.32Z" fill="black"/>
<path d="M152.293 179.717C152.293 179.031 151.607 178.346 150.921 178.346H147.265C146.579 178.346 145.894 179.031 145.894 179.717V183.374C145.894 184.059 146.579 184.745 147.265 184.745H150.921C151.607 184.745 152.293 184.059 152.293 183.374V179.717Z" fill="black"/>
<path d="M93.7867 186.346C93.7867 185.661 93.1011 184.975 92.4155 184.975H88.7589C88.0733 184.975 87.3877 184.289 87.3877 183.604V178.576V173.548C87.3877 172.862 88.0733 172.177 88.7589 172.177H93.7867H95.1579H98.8145C99.5001 172.177 100.186 171.491 100.186 170.806V166.692C100.186 166.006 99.5001 165.321 98.8145 165.321H95.1579C94.4723 165.321 93.7867 164.635 93.7867 163.95V158.922V152.294V145.895V140.867C93.7867 140.182 93.1011 139.496 92.4155 139.496H87.3877H86.0164H82.1313C81.4457 139.496 80.7601 140.182 80.7601 140.867V144.524C80.7601 145.21 81.4457 145.895 82.1313 145.895H85.7879C86.4735 145.895 87.1591 146.581 87.1591 147.266V150.923C87.1591 151.609 86.4735 152.294 85.7879 152.294H82.1313C81.4457 152.294 80.7601 152.98 80.7601 153.665V157.322C80.7601 158.008 80.0745 158.693 79.3889 158.693H75.7323C75.0467 158.693 74.3611 159.379 74.3611 160.064V163.721C74.3611 164.407 73.6754 165.092 72.9898 165.092H69.3332C68.6476 165.092 67.962 164.407 67.962 163.721V160.064C67.962 159.379 68.6476 158.693 69.3332 158.693H72.9898C73.6754 158.693 74.3611 158.008 74.3611 157.322V153.665C74.3611 152.98 73.6754 152.294 72.9898 152.294H69.3332C68.6476 152.294 67.962 151.609 67.962 150.923V147.266C67.962 146.581 68.6476 145.895 69.3332 145.895H72.9898C73.6754 145.895 74.3611 145.21 74.3611 144.524V140.867C74.3611 140.182 73.6754 139.496 72.9898 139.496H67.962H62.9342C62.2486 139.496 61.563 140.182 61.563 140.867V145.895V152.294V158.922V165.321V170.349C61.563 171.034 62.2486 171.72 62.9342 171.72H67.962H74.5896H79.6174C80.303 171.72 80.9886 172.405 80.9886 173.091V176.748C80.9886 177.433 80.303 178.119 79.6174 178.119H74.5896H69.5618C68.8762 178.119 68.1906 178.804 68.1906 179.49V184.975V191.603V196.402C68.1906 197.087 68.8762 197.773 69.5618 197.773H74.5896H79.6174C80.303 197.773 80.9886 197.087 80.9886 196.402V192.745C80.9886 192.06 81.6742 191.374 82.3598 191.374H87.3877H88.7589H92.4155C93.1011 191.374 93.7867 190.688 93.7867 190.003V186.346Z" fill="black"/>
<path d="M106.813 186.343C106.813 185.658 107.499 184.972 108.184 184.972H111.841C112.527 184.972 113.212 184.287 113.212 183.601V179.944C113.212 179.259 112.527 178.573 111.841 178.573H106.813H100.186H98.8144H95.1578C94.4722 178.573 93.7866 179.259 93.7866 179.944V183.601C93.7866 184.287 94.4722 184.972 95.1578 184.972H98.8144C99.5 184.972 100.186 185.658 100.186 186.343V190C100.186 190.686 100.871 191.371 101.557 191.371H105.213C105.899 191.371 106.585 190.686 106.585 190V186.343H106.813Z" fill="black"/>
<path d="M119.839 186.346C119.839 185.66 119.154 184.975 118.468 184.975H114.812C114.126 184.975 113.44 185.66 113.44 186.346V190.002C113.44 190.688 114.126 191.374 114.812 191.374H118.468C119.154 191.374 119.839 190.688 119.839 190.002V186.346Z" fill="black"/>
<path d="M137.895 184.975H134.239C133.553 184.975 132.868 185.66 132.868 186.346V190.002C132.868 190.688 133.553 191.374 134.239 191.374H137.895C138.581 191.374 139.267 190.688 139.267 190.002V186.346C139.267 185.432 138.581 184.975 137.895 184.975Z" fill="black"/>
<path d="M158.921 186.346C158.921 185.66 158.235 184.975 157.55 184.975H153.893C153.208 184.975 152.522 185.66 152.522 186.346V190.002C152.522 190.688 153.208 191.374 153.893 191.374H157.55C158.235 191.374 158.921 190.688 158.921 190.002V186.346Z" fill="black"/>
<path d="M178.347 186.346C178.347 185.66 177.661 184.975 176.975 184.975H171.948H166.691C166.006 184.975 165.32 185.66 165.32 186.346V190.002C165.32 190.688 164.634 191.374 163.949 191.374H160.292C159.607 191.374 158.921 192.059 158.921 192.745V196.401C158.921 197.087 159.607 197.773 160.292 197.773H165.32H170.348C171.033 197.773 171.719 197.087 171.719 196.401V192.745C171.719 192.059 172.405 191.374 173.09 191.374H176.747C177.432 191.374 178.118 190.688 178.118 190.002V186.346H178.347Z" fill="black"/>
<path d="M98.8144 191.372H95.1578C94.4722 191.372 93.7866 192.058 93.7866 192.743V196.4C93.7866 197.085 94.4722 197.771 95.1578 197.771H98.8144C99.5 197.771 100.186 197.085 100.186 196.4V192.743C100.186 192.058 99.5 191.372 98.8144 191.372Z" fill="black"/>
<path d="M111.842 191.372H108.186C107.5 191.372 106.814 192.058 106.814 192.743V196.4C106.814 197.085 107.5 197.771 108.186 197.771H111.842C112.528 197.771 113.213 197.085 113.213 196.4V192.743C113.213 192.058 112.528 191.372 111.842 191.372Z" fill="black"/>
<path d="M131.267 191.372H126.239H124.868H121.211C120.525 191.372 119.84 192.058 119.84 192.743V196.4C119.84 197.085 120.525 197.771 121.211 197.771H126.239H127.61H131.267C131.952 197.771 132.638 197.085 132.638 196.4V192.743C132.866 192.058 132.181 191.372 131.267 191.372Z" fill="black"/>
<path d="M190.002 191.372H184.974H183.603H179.946C179.261 191.372 178.575 192.058 178.575 192.743V196.4C178.575 197.085 179.261 197.771 179.946 197.771H184.974H186.345H190.002C190.688 197.771 191.373 197.085 191.373 196.4V192.743C191.373 192.058 190.688 191.372 190.002 191.372Z" fill="black"/>
<path d="M10.3712 54.7074H53.1076C53.7932 54.7074 54.4788 54.0218 54.4788 53.3362V48.3083V41.6808V35.2817V28.6542V22.0266V15.6276V10.3712C54.7074 9.68561 54.0218 9 53.1076 9H10.3712C9.68561 9 9 9.68561 9 10.3712V15.399V21.7981V28.4256V34.8247V41.2237V47.8513V52.8791C9 54.0218 9.68561 54.7074 10.3712 54.7074ZM15.6276 41.6808V35.2817V28.6542V22.0266V16.3132C15.6276 15.8561 15.8561 15.6276 16.3132 15.6276H47.3942C47.8513 15.6276 48.0798 16.0846 48.0798 16.3132V22.0266V28.6542V35.0532V41.4522V47.1657C48.0798 47.6227 47.6227 47.8513 47.3942 47.8513H16.3132C15.8561 47.8513 15.6276 47.3942 15.6276 47.1657V41.6808Z" fill="black"/>
<path d="M23.3966 41.6796H40.0798C40.7654 41.6796 41.451 40.994 41.451 40.3083V35.2805V28.653V23.3966C41.451 22.711 40.7654 22.0254 40.0798 22.0254H23.3966C22.711 22.0254 22.0254 22.711 22.0254 23.3966V28.4244V34.8235V39.8513C22.0254 40.994 22.711 41.6796 23.3966 41.6796Z" fill="black"/>
<path d="M196.4 9H153.664C152.978 9 152.292 9.68561 152.292 10.3712V15.399V21.7981V28.4256V34.8247V41.2237V47.8513V52.8791C152.292 53.5647 152.978 54.2503 153.664 54.2503H196.4C197.086 54.2503 197.771 53.5647 197.771 52.8791V47.8513V41.2237V34.8247V28.6542V22.0266V15.6276V10.3712C198 9.68561 197.314 9 196.4 9ZM191.372 22.0266V28.6542V35.0532V41.4522V47.1657C191.372 47.6227 190.915 47.8513 190.687 47.8513H159.606C159.149 47.8513 158.92 47.3942 158.92 47.1657V41.4522V35.0532V28.6542V22.0266V16.3132C158.92 15.8561 159.377 15.6276 159.606 15.6276H190.687C191.144 15.6276 191.372 16.0846 191.372 16.3132V22.0266Z" fill="black"/>
<path d="M183.375 22.0254H166.692C166.006 22.0254 165.32 22.711 165.32 23.3966V28.4244V34.8235V39.8513C165.32 40.5369 166.006 41.2225 166.692 41.2225H183.375C184.06 41.2225 184.746 40.5369 184.746 39.8513V34.8235V28.653V23.3966C184.974 22.711 184.289 22.0254 183.375 22.0254Z" fill="black"/>
<path d="M53.1076 152.295H10.3712C9.68561 152.295 9 152.981 9 153.666V158.694V165.093V171.492V178.12V184.976V191.603V196.403C9 197.088 9.68561 197.774 10.3712 197.774H53.1076C53.7932 197.774 54.4788 197.088 54.4788 196.403V191.375V184.976V178.577V171.949V165.55V159.151V154.123C54.7074 152.981 54.0218 152.295 53.1076 152.295ZM48.0798 165.322V171.721V178.348V184.976V190.689C48.0798 191.146 47.6227 191.375 47.3942 191.375H16.3132C15.8561 191.375 15.6276 190.918 15.6276 190.689V184.976V178.577V171.949V165.55V159.837C15.6276 159.38 16.0846 159.151 16.3132 159.151H47.3942C47.8513 159.151 48.0798 159.608 48.0798 159.837V165.322Z" fill="black"/>
<path d="M40.0798 165.32H23.3966C22.711 165.32 22.0254 166.006 22.0254 166.692V171.719V178.347V183.375C22.0254 184.289 22.711 184.974 23.3966 184.974H40.0798C40.7654 184.974 41.451 184.289 41.451 183.603V178.575V171.948V166.692C41.6796 166.006 40.994 165.32 40.0798 165.32Z" fill="black"/>
<path d="M23 1H10C5.02944 1 1 5.02944 1 10V22" stroke="black" stroke-width="2"/>
<path d="M1.5 184L1.5 197C1.5 201.971 5.52944 206 10.5 206L22.5 206" stroke="black" stroke-width="2"/>
<path d="M184 206L197 206C201.971 206 206 201.971 206 197L206 185" stroke="black" stroke-width="2"/>
<path d="M205.5 23L205.5 10C205.5 5.02944 201.471 1 196.5 1L184.5 0.999999" stroke="black" stroke-width="2"/>
</svg>
