<svg width="35" height="35" viewBox="0 0 35 35" fill="none" xmlns="http://www.w3.org/2000/svg">
<path d="M17.1403 1.22733H18.0714H18.3253H19.0448C19.1718 1.22733 19.2987 1.10036 19.2987 0.973398V0.25393C19.2987 0.126965 19.1718 0 19.0448 0H18.1137H17.8598H17.1826C17.0557 0 16.9287 0.126965 16.9287 0.25393V0.931076C16.8864 1.10036 17.0134 1.22733 17.1403 1.22733Z" fill="black"/>
<path d="M21.9649 1.22733H22.8959H24.1233H24.3772H25.0543C25.1813 1.22733 25.3083 1.10036 25.3083 0.973398V0.25393C25.3083 0.126965 25.1813 0 25.0543 0H24.1233H22.8959H22.642H21.9649C21.8379 0 21.7109 0.126965 21.7109 0.25393V0.931076C21.7109 1.10036 21.8379 1.22733 21.9649 1.22733Z" fill="black"/>
<path d="M9.90324 2.41233H10.5804C10.7073 2.41233 10.8343 2.5393 10.8343 2.66626V3.34341C10.8343 3.47037 10.9613 3.59734 11.0882 3.59734H12.0193H12.9504C13.0774 3.59734 13.2043 3.7243 13.2043 3.85127V4.52842C13.2043 4.65538 13.3313 4.78235 13.4583 4.78235H14.1354C14.2624 4.78235 14.3893 4.90931 14.3893 5.03628V5.96735V7.19468V8.12576C14.3893 8.25272 14.2624 8.37969 14.1354 8.37969H13.5429C13.4159 8.37969 13.289 8.25272 13.289 8.12576V7.44861C13.289 7.32164 13.162 7.19468 13.035 7.19468H12.3579C12.2309 7.19468 12.104 7.32164 12.104 7.44861V8.46433V9.3954C12.104 9.52237 12.2309 9.64933 12.3579 9.64933H13.035C13.162 9.64933 13.289 9.7763 13.289 9.90326V10.5804C13.289 10.7074 13.4159 10.8343 13.5429 10.8343H14.22C14.347 10.8343 14.474 10.7074 14.474 10.5804V9.90326C14.474 9.7763 14.6009 9.64933 14.7279 9.64933H15.4051C15.532 9.64933 15.659 9.52237 15.659 9.3954V8.46433V7.53325C15.659 7.40629 15.7859 7.27932 15.9129 7.27932H16.5901C16.717 7.27932 16.844 7.40629 16.844 7.53325V8.2104C16.844 8.33736 16.971 8.46433 17.0979 8.46433H17.7751C17.902 8.46433 18.029 8.33736 18.029 8.2104V7.27932V6.34825C18.029 6.22128 18.156 6.09432 18.2829 6.09432H19.0447C19.1717 6.09432 19.2986 5.96735 19.2986 5.84039V5.0786C19.2986 4.95163 19.4256 4.82467 19.5526 4.82467H20.2297C20.3567 4.82467 20.4836 4.6977 20.4836 4.57074V3.89359C20.4836 3.76663 20.3567 3.63966 20.2297 3.63966H19.5526C19.4256 3.63966 19.2986 3.5127 19.2986 3.38573V2.66626C19.2986 2.5393 19.1717 2.41233 19.0447 2.41233H18.3676C18.2406 2.41233 18.1136 2.5393 18.1136 2.66626V3.34341C18.1136 3.47037 17.9867 3.59734 17.8597 3.59734H17.1826C17.0556 3.59734 16.9286 3.47037 16.9286 3.34341V2.41233V1.48126C16.9286 1.35429 16.8017 1.22733 16.6747 1.22733H15.7436H14.5163H13.5429C13.4159 1.22733 13.289 1.35429 13.289 1.48126V2.1584C13.289 2.28537 13.162 2.41233 13.035 2.41233H12.3579C12.2309 2.41233 12.104 2.28537 12.104 2.1584V1.48126C12.104 1.35429 12.2309 1.22733 12.3579 1.22733H13.035C13.162 1.22733 13.289 1.10036 13.289 0.973398V0.25393C13.289 0.126965 13.162 0 13.035 0H12.104H11.1729C11.0459 0 10.919 0.126965 10.919 0.25393V0.931076C10.919 1.05804 10.792 1.18501 10.665 1.18501H9.98788C9.86091 1.18501 9.73395 1.31197 9.73395 1.43894V2.11608C9.64931 2.28537 9.77627 2.41233 9.90324 2.41233ZM15.4051 2.41233C15.532 2.41233 15.659 2.5393 15.659 2.66626V3.34341C15.659 3.47037 15.532 3.59734 15.4051 3.59734H14.7279C14.6009 3.59734 14.474 3.47037 14.474 3.34341V2.66626C14.474 2.5393 14.6009 2.41233 14.7279 2.41233H15.4051Z" fill="black"/>
<path d="M19.2988 2.15862C19.2988 2.28558 19.4258 2.41254 19.5528 2.41254H20.2299C20.3569 2.41254 20.4838 2.53951 20.4838 2.66647V3.34362C20.4838 3.47059 20.6108 3.59755 20.7378 3.59755H21.6688H22.8538H23.1078H23.7849C23.9119 3.59755 24.0389 3.47059 24.0389 3.34362V2.66647C24.0389 2.53951 23.9119 2.41254 23.7849 2.41254H22.8538H21.9228C21.7958 2.41254 21.6688 2.28558 21.6688 2.15862V1.48147C21.6688 1.3545 21.5419 1.22754 21.4149 1.22754H20.4838H20.2299H19.5528C19.4258 1.22754 19.2988 1.3545 19.2988 1.48147V2.15862Z" fill="black"/>
<path d="M11.1304 6.05155H12.0615H12.3154H12.9925C13.1195 6.05155 13.2465 5.92458 13.2465 5.79762V5.07815C13.2465 4.95118 13.1195 4.82422 12.9925 4.82422H12.0615H11.8075H11.1304C11.0034 4.82422 10.8765 4.95118 10.8765 5.07815V5.7553C10.8765 5.92458 10.9611 6.05155 11.1304 6.05155Z" fill="black"/>
<path d="M20.2299 7.2373H19.5528C19.4258 7.2373 19.2988 7.36427 19.2988 7.49123V8.16838C19.2988 8.29535 19.4258 8.42231 19.5528 8.42231H20.2299C20.3569 8.42231 20.4838 8.29535 20.4838 8.16838V7.49123C20.5262 7.36427 20.3992 7.2373 20.2299 7.2373Z" fill="black"/>
<path d="M21.9649 8.46432H22.642C22.769 8.46432 22.8959 8.33735 22.8959 8.21039V7.53324C22.8959 7.40628 23.0229 7.27931 23.1499 7.27931H23.827C23.954 7.27931 24.081 7.15235 24.081 7.02538V6.34823C24.081 6.22127 24.2079 6.0943 24.3349 6.0943H25.012C25.139 6.0943 25.266 5.96734 25.266 5.84037V4.9093V4.65537V3.89358C25.266 3.76661 25.139 3.63965 25.012 3.63965H24.3349C24.2079 3.63965 24.081 3.76661 24.081 3.89358V4.57072C24.081 4.69769 23.954 4.82465 23.827 4.82465H22.8959H21.9649C21.8379 4.82465 21.7109 4.95162 21.7109 5.07858V6.00966V7.23699V8.16807C21.7109 8.33735 21.8379 8.46432 21.9649 8.46432Z" fill="black"/>
<path d="M9.90334 9.64877H10.5805C10.7075 9.64877 10.8344 9.5218 10.8344 9.39484V8.46376V7.27876V7.02483V6.34768C10.8344 6.22072 10.7075 6.09375 10.5805 6.09375H9.90334C9.77638 6.09375 9.64941 6.22072 9.64941 6.34768V7.27876V8.46376V9.39484C9.64941 9.5218 9.77638 9.64877 9.90334 9.64877Z" fill="black"/>
<path d="M20.5259 9.39494C20.5259 9.52191 20.6528 9.64887 20.7798 9.64887H21.457C21.5839 9.64887 21.7109 9.52191 21.7109 9.39494V8.7178C21.7109 8.59083 21.5839 8.46387 21.457 8.46387H20.7798C20.6528 8.46387 20.5259 8.59083 20.5259 8.7178V9.39494Z" fill="black"/>
<path d="M7.237 9.64941H6.052H5.0786C4.95163 9.64941 4.82467 9.77638 4.82467 9.90334V10.5805C4.82467 10.7075 4.6977 10.8344 4.57074 10.8344H3.63966H2.66626C2.5393 10.8344 2.41233 10.9614 2.41233 11.0884V11.7655C2.41233 11.8925 2.28537 12.0194 2.1584 12.0194H1.48126C1.35429 12.0194 1.22733 11.8925 1.22733 11.7655V11.0884C1.22733 10.9614 1.10036 10.8344 0.973398 10.8344H0.25393C0.126965 10.8344 0 10.9614 0 11.0884V12.0194V13.2468V14.4318V15.3628C0 15.4898 0.126965 15.6168 0.25393 15.6168H0.931076C1.05804 15.6168 1.18501 15.4898 1.18501 15.3628V14.4318V13.543C1.18501 13.416 1.31197 13.2891 1.43894 13.2891H2.37001H3.59734H4.52842C4.65538 13.2891 4.78235 13.1621 4.78235 13.0351V12.358C4.78235 12.231 4.90931 12.1041 5.03628 12.1041H5.96735H6.89843C7.02539 12.1041 7.15236 11.9771 7.15236 11.8501V11.173C7.15236 11.046 7.27932 10.9191 7.40629 10.9191H8.46433H8.71826H9.39541C9.52237 10.9191 9.64933 10.7921 9.64933 10.6651V9.98799C9.64933 9.86102 9.52237 9.73406 9.39541 9.73406H8.46433H7.237V9.64941Z" fill="black"/>
<path d="M33.519 10.8764C33.6459 10.8764 33.7729 10.7494 33.7729 10.6225V9.94534C33.7729 9.81837 33.6459 9.69141 33.519 9.69141H32.8418C32.7149 9.69141 32.5879 9.81837 32.5879 9.94534V10.5802C32.5879 10.7071 32.7149 10.8341 32.8418 10.8341H33.519V10.8764Z" fill="black"/>
<path d="M13.289 11.1303C13.289 11.0034 13.162 10.8764 13.035 10.8764H12.3579C12.2309 10.8764 12.104 10.7494 12.104 10.6225V9.94534C12.104 9.81837 11.977 9.69141 11.85 9.69141H11.1729C11.0459 9.69141 10.9189 9.81837 10.9189 9.94534V10.8764V11.8075C10.9189 11.9345 11.0459 12.0614 11.1729 12.0614H12.104H12.3579H13.035C13.162 12.0614 13.289 11.9345 13.289 11.8075V11.1303Z" fill="black"/>
<path d="M15.7016 11.1309C15.7016 11.0039 15.5746 10.877 15.4477 10.877H14.7705C14.6436 10.877 14.5166 11.0039 14.5166 11.1309V11.808C14.5166 11.935 14.6436 12.062 14.7705 12.062H15.4477C15.5746 12.062 15.7016 11.935 15.7016 11.808V11.1309Z" fill="black"/>
<path d="M17.1402 12.062H17.8173C17.9443 12.062 18.0712 11.935 18.0712 11.808V11.1309C18.0712 11.0039 17.9443 10.877 17.8173 10.877H17.1402C17.0132 10.877 16.8862 11.0039 16.8862 11.1309V11.808C16.8862 11.935 17.0132 12.062 17.1402 12.062Z" fill="black"/>
<path d="M21.7108 12.0616H22.6419C22.7688 12.0616 22.8958 11.9347 22.8958 11.8077V11.1306C22.8958 11.0036 23.0228 10.8766 23.1497 10.8766H23.8269C23.9538 10.8766 24.0808 11.0036 24.0808 11.1306V11.8077C24.0808 11.9347 24.2078 12.0616 24.3347 12.0616H25.0119C25.1388 12.0616 25.2658 11.9347 25.2658 11.8077V10.8766V9.69163V8.4643V8.21037V7.53323C25.2658 7.40626 25.1388 7.2793 25.0119 7.2793H24.3347C24.2078 7.2793 24.0808 7.40626 24.0808 7.53323V8.21037C24.0808 8.33734 23.9538 8.4643 23.8269 8.4643H23.1497C23.0228 8.4643 22.8958 8.59127 22.8958 8.71823V9.39538C22.8958 9.52234 22.7688 9.64931 22.6419 9.64931H21.9647C21.8377 9.64931 21.7108 9.77627 21.7108 9.90324V10.5804C21.7108 10.7074 21.5838 10.8343 21.4569 10.8343H20.7797C20.6527 10.8343 20.5258 10.7074 20.5258 10.5804V9.90324C20.5258 9.77627 20.3988 9.64931 20.2718 9.64931H19.5947C19.4677 9.64931 19.3408 9.52234 19.3408 9.39538V8.71823C19.3408 8.59127 19.2138 8.4643 19.0868 8.4643H18.4097C18.2827 8.4643 18.1558 8.59127 18.1558 8.71823V9.64931V10.5804C18.1558 10.7074 18.2827 10.8343 18.4097 10.8343H19.0445C19.1715 10.8343 19.2984 10.9613 19.2984 11.0882V11.7654C19.2984 11.8924 19.4254 12.0193 19.5524 12.0193H20.4835H21.7108V12.0616Z" fill="black"/>
<path d="M28.0171 10.8764H28.6942C28.8212 10.8764 28.9481 10.7494 28.9481 10.6225V9.94534C28.9481 9.81837 28.8212 9.69141 28.6942 9.69141H27.7631H26.8321C26.7051 9.69141 26.5781 9.81837 26.5781 9.94534V10.8764V12.0614V12.9925C26.5781 13.1195 26.7051 13.2464 26.8321 13.2464H27.7631H28.9481H29.8792C30.0062 13.2464 30.1331 13.1195 30.1331 12.9925V12.3153C30.1331 12.1884 30.2601 12.0614 30.3871 12.0614H31.0642C31.1912 12.0614 31.3181 12.1884 31.3181 12.3153V12.9925C31.3181 13.1195 31.1912 13.2464 31.0642 13.2464H30.3871C30.2601 13.2464 30.1331 13.3734 30.1331 13.5004V14.1775C30.1331 14.3045 30.0062 14.4314 29.8792 14.4314H29.2021C29.0751 14.4314 28.9481 14.5584 28.9481 14.6854V15.6164V16.8014V17.7325C28.9481 17.8595 29.0751 17.9864 29.2021 17.9864H29.8792C30.0062 17.9864 30.1331 17.8595 30.1331 17.7325V16.8014V15.8704C30.1331 15.7434 30.2601 15.6164 30.3871 15.6164H31.0642C31.1912 15.6164 31.3181 15.4895 31.3181 15.3625V14.6854C31.3181 14.5584 31.4451 14.4314 31.5721 14.4314H32.2492C32.3762 14.4314 32.5032 14.3045 32.5032 14.1775V13.2464V12.0191V11.088C32.5032 10.9611 32.3762 10.8341 32.2492 10.8341H31.3181H30.1331H29.2021C29.0751 10.8341 28.9481 10.9611 28.9481 11.088V11.7652C28.9481 11.8921 28.8212 12.0191 28.6942 12.0191H28.0171C27.8901 12.0191 27.7631 11.8921 27.7631 11.7652V11.088C27.7631 10.9611 27.8478 10.8764 28.0171 10.8764Z" fill="black"/>
<path d="M34.704 10.877H34.0269C33.8999 10.877 33.7729 11.0039 33.7729 11.1309V12.062V13.2893V14.2204C33.7729 14.3473 33.8999 14.4743 34.0269 14.4743H34.704C34.831 14.4743 34.958 14.3473 34.958 14.2204V13.2893V12.062V11.808V11.1309C35.0003 10.9616 34.8733 10.877 34.704 10.877Z" fill="black"/>
<path d="M8.16789 13.2895C8.29486 13.2895 8.42182 13.1625 8.42182 13.0356V12.3584C8.42182 12.2315 8.29486 12.1045 8.16789 12.1045H7.49075C7.36378 12.1045 7.23682 12.2315 7.23682 12.3584V13.0356C7.23682 13.1625 7.36378 13.2895 7.49075 13.2895H8.16789Z" fill="black"/>
<path d="M25.3505 13.543C25.3505 13.416 25.2236 13.2891 25.0966 13.2891H24.4195C24.2925 13.2891 24.1655 13.416 24.1655 13.543V14.2201C24.1655 14.3471 24.2925 14.4741 24.4195 14.4741H25.0966C25.2236 14.4741 25.3505 14.3471 25.3505 14.2201V13.543Z" fill="black"/>
<path d="M6.98332 14.4736H6.30618C6.17921 14.4736 6.05225 14.6006 6.05225 14.7276V15.4047C6.05225 15.5317 6.17921 15.6586 6.30618 15.6586H7.23725H7.49118H8.16833C8.29529 15.6586 8.42226 15.5317 8.42226 15.4047V14.7276C8.42226 14.6006 8.29529 14.4736 8.16833 14.4736H7.23725H6.98332Z" fill="black"/>
<path d="M10.8769 15.7014H11.808C11.9349 15.7014 12.0619 15.5744 12.0619 15.4475V14.5164V14.2625V13.543C12.0619 13.416 11.9349 13.2891 11.808 13.2891H11.1308C11.0039 13.2891 10.8769 13.416 10.8769 13.543V14.2201C10.8769 14.3471 10.7499 14.4741 10.623 14.4741H9.94582C9.81886 14.4741 9.69189 14.601 9.69189 14.728V15.4051C9.69189 15.5321 9.81886 15.6591 9.94582 15.6591H10.8769V15.7014Z" fill="black"/>
<path d="M23.8696 14.4736H23.1924C23.0654 14.4736 22.9385 14.6006 22.9385 14.7276V15.4047C22.9385 15.5317 23.0654 15.6586 23.1924 15.6586H23.8696C23.9965 15.6586 24.1235 15.5317 24.1235 15.4047V14.7276C24.1235 14.6006 23.9965 14.4736 23.8696 14.4736Z" fill="black"/>
<path d="M25.3506 16.6322C25.3506 16.7592 25.4776 16.8862 25.6045 16.8862H26.2817C26.4086 16.8862 26.5356 17.0131 26.5356 17.1401V17.8173C26.5356 17.9442 26.6626 18.0712 26.7895 18.0712H27.4667C27.5936 18.0712 27.7206 17.9442 27.7206 17.8173V16.8862V15.9551C27.7206 15.8281 27.5936 15.7012 27.4667 15.7012H26.5356H26.2817H25.6045C25.4776 15.7012 25.3506 15.8281 25.3506 15.9551V16.6322Z" fill="black"/>
<path d="M34.7039 15.7012H33.7728H32.5878H31.6567C31.5297 15.7012 31.4028 15.8281 31.4028 15.9551V16.8862V18.0712V19.0446C31.4028 19.1715 31.2758 19.2985 31.1488 19.2985H30.4717C30.3447 19.2985 30.2178 19.4255 30.2178 19.5524V20.2296C30.2178 20.3566 30.3447 20.4835 30.4717 20.4835H31.1488C31.2758 20.4835 31.4028 20.6105 31.4028 20.7374V21.6685V22.5996C31.4028 22.7266 31.5297 22.8535 31.6567 22.8535H32.3339C32.4608 22.8535 32.5878 22.7266 32.5878 22.5996V21.6685V20.7374C32.5878 20.6105 32.7148 20.4835 32.8417 20.4835H33.5189C33.6458 20.4835 33.7728 20.3566 33.7728 20.2296V19.2985V18.3674C33.7728 18.2405 33.6458 18.1135 33.5189 18.1135H32.8417C32.7148 18.1135 32.5878 17.9865 32.5878 17.8596V17.1824C32.5878 17.0555 32.7148 16.9285 32.8417 16.9285H33.7728H34.0267H34.7039C34.8308 16.9285 34.9578 16.8015 34.9578 16.6746V15.9974C35.0001 15.7858 34.8732 15.7012 34.7039 15.7012Z" fill="black"/>
<path d="M25.6045 19.2983H26.2817C26.4086 19.2983 26.5356 19.1713 26.5356 19.0444V18.3672C26.5356 18.2402 26.4086 18.1133 26.2817 18.1133H25.6045C25.4776 18.1133 25.3506 18.2402 25.3506 18.3672V19.0444C25.3506 19.1713 25.4352 19.2983 25.6045 19.2983Z" fill="black"/>
<path d="M23.1924 20.5257H24.1235H24.3774H25.0546C25.1815 20.5257 25.3085 20.3988 25.3085 20.2718V19.5946C25.3085 19.4677 25.1815 19.3407 25.0546 19.3407H24.3774C24.2504 19.3407 24.1235 19.2138 24.1235 19.0868V18.1557V17.9018V17.2246C24.1235 17.0977 23.9965 16.9707 23.8696 16.9707H23.1924C23.0654 16.9707 22.9385 17.0977 22.9385 17.2246V18.1557V19.383V20.3141C22.9385 20.3988 23.0231 20.5257 23.1924 20.5257Z" fill="black"/>
<path d="M0.25393 21.7108H0.931076C1.05804 21.7108 1.18501 21.5839 1.18501 21.4569V20.5258V20.2719V19.5947C1.18501 19.4678 1.05804 19.3408 0.931076 19.3408H0.25393C0.126965 19.3408 0 19.4678 0 19.5947V20.5258V21.4569C0 21.5839 0.126965 21.7108 0.25393 21.7108Z" fill="black"/>
<path d="M9.64955 22.9383H10.8346H11.0885H11.7656C11.8926 22.9383 12.0196 22.8113 12.0196 22.6843V22.0072C12.0196 21.8802 11.8926 21.7533 11.7656 21.7533H10.8346H9.90348C9.77651 21.7533 9.64955 21.6263 9.64955 21.4993V20.8222C9.64955 20.6952 9.52258 20.5683 9.39562 20.5683H8.71847C8.59151 20.5683 8.46454 20.6952 8.46454 20.8222V21.4993C8.46454 21.6263 8.33758 21.7533 8.21061 21.7533H7.53347C7.4065 21.7533 7.27954 21.6263 7.27954 21.4993V20.8222C7.27954 20.6952 7.4065 20.5683 7.53347 20.5683H8.21061C8.33758 20.5683 8.46454 20.4413 8.46454 20.3143V19.6372C8.46454 19.5102 8.33758 19.3833 8.21061 19.3833H7.53347C7.4065 19.3833 7.27954 19.2563 7.27954 19.1293V18.4522C7.27954 18.3252 7.4065 18.1983 7.53347 18.1983H8.21061C8.33758 18.1983 8.46454 18.3252 8.46454 18.4522V19.0447C8.46454 19.1717 8.59151 19.2986 8.71847 19.2986H9.39562C9.52258 19.2986 9.64955 19.1717 9.64955 19.0447V18.3675C9.64955 18.2406 9.77651 18.1136 9.90348 18.1136H10.5806C10.7076 18.1136 10.8346 17.9866 10.8346 17.8597V17.1825C10.8346 17.0556 10.7076 16.9286 10.5806 16.9286H9.64955H8.46454H7.27954H6.09453H5.07881C4.95184 16.9286 4.82488 16.8016 4.82488 16.6747V15.7436V15.4897V14.8125C4.82488 14.6856 4.69791 14.5586 4.57095 14.5586H3.8938C3.76684 14.5586 3.63987 14.6856 3.63987 14.8125V15.4897C3.63987 15.6166 3.51291 15.7436 3.38594 15.7436H2.41255H1.48147C1.3545 15.7436 1.22754 15.8706 1.22754 15.9975V16.9286V17.8597C1.22754 17.9866 1.3545 18.1136 1.48147 18.1136H2.15862C2.28558 18.1136 2.41255 17.9866 2.41255 17.8597V17.1825C2.41255 17.0556 2.53951 16.9286 2.66648 16.9286H3.34362C3.47059 16.9286 3.59755 17.0556 3.59755 17.1825V17.8597C3.59755 17.9866 3.72452 18.1136 3.85148 18.1136H4.52863C4.65559 18.1136 4.78256 18.2406 4.78256 18.3675V19.0447C4.78256 19.1717 4.65559 19.2986 4.52863 19.2986H3.8938C3.76684 19.2986 3.63987 19.1717 3.63987 19.0447V18.3675C3.63987 18.2406 3.51291 18.1136 3.38594 18.1136H2.66648C2.53951 18.1136 2.41255 18.2406 2.41255 18.3675V19.2986V20.4836V21.4147C2.41255 21.5417 2.53951 21.6686 2.66648 21.6686H3.59755H4.52863C4.65559 21.6686 4.78256 21.5417 4.78256 21.4147V20.7376C4.78256 20.6106 4.90952 20.4836 5.03649 20.4836H5.71363C5.8406 20.4836 5.96756 20.6106 5.96756 20.7376V21.6686V22.5997C5.96756 22.7267 6.09453 22.8536 6.22149 22.8536H7.15257H8.46454H9.64955V22.9383Z" fill="black"/>
<path d="M34.704 21.7109H34.0269C33.8999 21.7109 33.7729 21.8379 33.7729 21.9649V22.642C33.7729 22.769 33.8999 22.8959 34.0269 22.8959H34.704C34.831 22.8959 34.958 22.769 34.958 22.642V21.9649C35.0003 21.8379 34.8733 21.7109 34.704 21.7109Z" fill="black"/>
<path d="M5.75573 22.9385H4.82465H4.57072H3.89358C3.76661 22.9385 3.63965 23.0654 3.63965 23.1924V23.8696C3.63965 23.9965 3.76661 24.1235 3.89358 24.1235H4.82465H5.07858H5.75573C5.8827 24.1235 6.00966 23.9965 6.00966 23.8696V23.1924C6.05198 23.0231 5.92502 22.9385 5.75573 22.9385Z" fill="black"/>
<path d="M12.3155 24.1235H12.9926C13.1196 24.1235 13.2465 23.9965 13.2465 23.8696V23.1924C13.2465 23.0654 13.1196 22.9385 12.9926 22.9385H12.3155C12.1885 22.9385 12.0615 23.0654 12.0615 23.1924V23.8696C12.0615 23.9965 12.1885 24.1235 12.3155 24.1235Z" fill="black"/>
<path d="M15.9551 24.1235H16.6322C16.7592 24.1235 16.8862 23.9965 16.8862 23.8696V23.1924C16.8862 23.0654 16.7592 22.9385 16.6322 22.9385H15.9551C15.8281 22.9385 15.7012 23.0654 15.7012 23.1924V23.8696C15.7012 23.9965 15.7858 24.1235 15.9551 24.1235Z" fill="black"/>
<path d="M19.5528 22.9385C19.4258 22.9385 19.2988 23.0654 19.2988 23.1924V23.8696C19.2988 23.9965 19.4258 24.1235 19.5528 24.1235H20.2299C20.3569 24.1235 20.4838 23.9965 20.4838 23.8696V23.1924C20.4838 23.0654 20.3569 22.9385 20.2299 22.9385H19.5528Z" fill="black"/>
<path d="M32.8418 24.1235H33.519C33.6459 24.1235 33.7729 23.9965 33.7729 23.8696V23.1924C33.7729 23.0654 33.6459 22.9385 33.519 22.9385H32.8418C32.7149 22.9385 32.5879 23.0654 32.5879 23.1924V23.8696C32.5879 23.9965 32.6725 24.1235 32.8418 24.1235Z" fill="black"/>
<path d="M0 25.0541C0 25.1811 0.126965 25.308 0.25393 25.308H1.18501H2.37001H2.62394H3.30109C3.42805 25.308 3.55502 25.1811 3.55502 25.0541V24.377C3.55502 24.25 3.42805 24.123 3.30109 24.123H2.41233H1.22733H0.931076H0.25393C0.126965 24.123 0 24.25 0 24.377V25.0541Z" fill="black"/>
<path d="M7.49075 24.123C7.36378 24.123 7.23682 24.25 7.23682 24.377V25.0541C7.23682 25.1811 7.36378 25.308 7.49075 25.308H8.16789C8.29486 25.308 8.42182 25.1811 8.42182 25.0541V24.377C8.42182 24.25 8.29486 24.123 8.16789 24.123H7.49075Z" fill="black"/>
<path d="M18.3676 25.351H19.0448C19.1718 25.351 19.2987 25.2241 19.2987 25.0971V24.4199C19.2987 24.293 19.1718 24.166 19.0448 24.166H18.1137H17.8598H17.1826C17.0557 24.166 16.9287 24.293 16.9287 24.4199V25.0971C16.9287 25.2241 17.0557 25.351 17.1826 25.351H18.1137H18.3676Z" fill="black"/>
<path d="M34.7036 24.1238H34.0264C33.8995 24.1238 33.7725 24.2508 33.7725 24.3777V25.0549C33.7725 25.1819 33.6455 25.3088 33.5186 25.3088H32.8414C32.7144 25.3088 32.5875 25.1819 32.5875 25.0549V24.3777C32.5875 24.2508 32.4605 24.1238 32.3336 24.1238H31.6564C31.5294 24.1238 31.4025 23.9969 31.4025 23.8699V23.1927C31.4025 23.0658 31.2755 22.9388 31.1485 22.9388H30.4714C30.3444 22.9388 30.2175 23.0658 30.2175 23.1927V23.8699C30.2175 23.9969 30.0905 24.1238 29.9635 24.1238H29.2018C29.0748 24.1238 28.9478 23.9969 28.9478 23.8699V23.1927C28.9478 23.0658 29.0748 22.9388 29.2018 22.9388H29.8789C30.0059 22.9388 30.1328 22.8118 30.1328 22.6849V22.0077C30.1328 21.8808 30.0059 21.7538 29.8789 21.7538H29.2018C29.0748 21.7538 28.9478 21.6268 28.9478 21.4999V20.5688V20.3149V19.6377C28.9478 19.5108 28.8209 19.3838 28.6939 19.3838H28.0167C27.8898 19.3838 27.7628 19.5108 27.7628 19.6377V20.3149C27.7628 20.4418 27.6359 20.5688 27.5089 20.5688H26.5778H25.6467C25.5198 20.5688 25.3928 20.6958 25.3928 20.8227V21.7538V22.6849C25.3928 22.8118 25.5198 22.9388 25.6467 22.9388H26.5778H27.5089C27.6359 22.9388 27.7628 23.0658 27.7628 23.1927V23.8699C27.7628 23.9969 27.6359 24.1238 27.5089 24.1238H26.5778H25.6467C25.5198 24.1238 25.3928 23.9969 25.3928 23.8699V23.1927C25.3928 23.0658 25.2658 22.9388 25.1389 22.9388H24.4617C24.3348 22.9388 24.2078 22.8118 24.2078 22.6849V22.0077C24.2078 21.8808 24.0808 21.7538 23.9539 21.7538H23.2767C23.1498 21.7538 23.0228 21.8808 23.0228 22.0077V22.6849C23.0228 22.8118 22.8958 22.9388 22.7689 22.9388H22.0917C21.9648 22.9388 21.8378 23.0658 21.8378 23.1927V24.1238V25.0549C21.8378 25.1819 21.7108 25.3088 21.5839 25.3088H20.6528H19.7217C19.5947 25.3088 19.4678 25.4358 19.4678 25.5628V26.4938V27.7212V28.9062V30.0912V31.0222C19.4678 31.1492 19.5947 31.2762 19.7217 31.2762H20.6528H21.8801H23.0651H23.319H23.9962C24.1232 31.2762 24.2501 31.1492 24.2501 31.0222V30.3451C24.2501 30.2181 24.1232 30.0912 23.9962 30.0912H23.0651H21.8801H20.949C20.8221 30.0912 20.6951 29.9642 20.6951 29.8372V29.2024C20.6951 29.0754 20.8221 28.9485 20.949 28.9485H21.6262C21.7531 28.9485 21.8801 28.8215 21.8801 28.6946V28.0174C21.8801 27.8904 21.7531 27.7635 21.6262 27.7635H20.949C20.8221 27.7635 20.6951 27.6365 20.6951 27.5095V26.8324C20.6951 26.7054 20.8221 26.5785 20.949 26.5785H21.6262C21.7531 26.5785 21.8801 26.7054 21.8801 26.8324V27.5095C21.8801 27.6365 22.0071 27.7635 22.134 27.7635H22.8112C22.9381 27.7635 23.0651 27.8904 23.0651 28.0174V28.6946C23.0651 28.8215 23.1921 28.9485 23.319 28.9485H23.9962C24.1232 28.9485 24.2501 29.0754 24.2501 29.2024V29.8796C24.2501 30.0065 24.3771 30.1335 24.504 30.1335H25.4351H26.3662C26.4932 30.1335 26.6201 30.2605 26.6201 30.3874V31.0646C26.6201 31.1915 26.7471 31.3185 26.8741 31.3185H27.5512C27.6782 31.3185 27.8051 31.1915 27.8051 31.0646V30.3874C27.8051 30.2605 27.9321 30.1335 28.0591 30.1335H28.7362C28.8632 30.1335 28.9901 30.2605 28.9901 30.3874V31.0646C28.9901 31.1915 29.1171 31.3185 29.2441 31.3185H29.9212C30.0482 31.3185 30.1752 31.1915 30.1752 31.0646V30.3874C30.1752 30.2605 30.3021 30.1335 30.4291 30.1335H31.1062C31.2332 30.1335 31.3602 30.2605 31.3602 30.3874V31.3185V32.2496C31.3602 32.3765 31.4871 32.5035 31.6141 32.5035H32.5875H33.8148H34.0687H34.7036C34.8305 32.5035 34.9575 32.3765 34.9575 32.2496V31.5724C34.9575 31.4455 34.8305 31.3185 34.7036 31.3185H34.0264C33.8995 31.3185 33.7725 31.1915 33.7725 31.0646V30.1335V28.9485V28.0174C33.7725 27.8904 33.8995 27.7635 34.0264 27.7635H34.7036C34.8305 27.7635 34.9575 27.6365 34.9575 27.5095V26.5785V25.3935V25.1395V24.4624C34.9998 24.2508 34.8729 24.1238 34.7036 24.1238ZM32.2912 28.9485H31.6141C31.4871 28.9485 31.3602 28.8215 31.3602 28.6946V28.0174C31.3602 27.8904 31.4871 27.7635 31.6141 27.7635H32.2912C32.4182 27.7635 32.5452 27.8904 32.5452 28.0174V28.6946C32.5875 28.8215 32.4605 28.9485 32.2912 28.9485ZM31.1062 25.3511C31.2332 25.3511 31.3602 25.4781 31.3602 25.6051V26.2822C31.3602 26.4092 31.2332 26.5362 31.1062 26.5362H30.4291C30.3021 26.5362 30.1752 26.4092 30.1752 26.2822V25.6051C30.1752 25.4781 30.3021 25.3511 30.4291 25.3511H31.1062ZM23.8692 25.3511C23.9962 25.3511 24.1232 25.4781 24.1232 25.6051V26.2822C24.1232 26.4092 23.9962 26.5362 23.8692 26.5362H23.1921C23.0651 26.5362 22.9381 26.4092 22.9381 26.2822V25.6051C22.9381 25.4781 23.0651 25.3511 23.1921 25.3511H23.8692ZM27.7628 28.9485H26.5355H25.6044C25.4774 28.9485 25.3505 28.8215 25.3505 28.6946V27.7635V26.5362V25.6051C25.3505 25.4781 25.4774 25.3511 25.6044 25.3511H26.5355H27.7628H28.6939C28.8209 25.3511 28.9478 25.4781 28.9478 25.6051V26.5362V27.7635V28.6946C28.9478 28.8215 28.8209 28.9485 28.6939 28.9485H27.7628Z" fill="black"/>
<path d="M27.4667 26.5361H26.7896C26.6626 26.5361 26.5356 26.6631 26.5356 26.7901V27.4672C26.5356 27.5942 26.6626 27.7211 26.7896 27.7211H27.4667C27.5937 27.7211 27.7206 27.5942 27.7206 27.4672V26.7901C27.763 26.6631 27.636 26.5361 27.4667 26.5361Z" fill="black"/>
<path d="M17.1402 28.9481H17.8173C17.9443 28.9481 18.0712 28.8212 18.0712 28.6942V27.7631V27.5092V26.8321C18.0712 26.7051 17.9443 26.5781 17.8173 26.5781H17.1402C17.0132 26.5781 16.8862 26.7051 16.8862 26.8321V27.7631V28.6942C16.8862 28.8212 17.0132 28.9481 17.1402 28.9481Z" fill="black"/>
<path d="M26.5356 31.6143C26.5356 31.4873 26.4086 31.3604 26.2817 31.3604H25.6045C25.4776 31.3604 25.3506 31.4873 25.3506 31.6143V32.2914C25.3506 32.4184 25.4776 32.5454 25.6045 32.5454H26.2817C26.4086 32.5454 26.5356 32.4184 26.5356 32.2914V31.6143Z" fill="black"/>
<path d="M15.7012 32.842C15.7012 32.715 15.5743 32.588 15.4473 32.588H14.7702C14.6432 32.588 14.5162 32.4611 14.5162 32.3341V31.403V30.4719C14.5162 30.345 14.6432 30.218 14.7702 30.218H15.7012H15.9552H16.6323C16.7593 30.218 16.8862 30.091 16.8862 29.9641V29.2023C16.8862 29.0753 16.7593 28.9484 16.6323 28.9484H15.9552C15.8282 28.9484 15.7012 28.8214 15.7012 28.6944V27.7634V26.536V25.351V24.4199C15.7012 24.293 15.5743 24.166 15.4473 24.166H14.5162H14.2623H13.5428C13.4159 24.166 13.2889 24.293 13.2889 24.4199V25.0971C13.2889 25.2241 13.4159 25.351 13.5428 25.351H14.22C14.3469 25.351 14.4739 25.478 14.4739 25.605V26.2821C14.4739 26.4091 14.3469 26.536 14.22 26.536H13.5428C13.4159 26.536 13.2889 26.663 13.2889 26.79V27.4671C13.2889 27.5941 13.1619 27.721 13.035 27.721H12.3578C12.2309 27.721 12.1039 27.848 12.1039 27.975V28.6521C12.1039 28.7791 11.9769 28.906 11.85 28.906H11.1728C11.0459 28.906 10.9189 28.7791 10.9189 28.6521V27.975C10.9189 27.848 11.0459 27.721 11.1728 27.721H11.85C11.9769 27.721 12.1039 27.5941 12.1039 27.4671V26.79C12.1039 26.663 11.9769 26.536 11.85 26.536H11.1728C11.0459 26.536 10.9189 26.4091 10.9189 26.2821V25.605C10.9189 25.478 11.0459 25.351 11.1728 25.351H11.85C11.9769 25.351 12.1039 25.2241 12.1039 25.0971V24.4199C12.1039 24.293 11.9769 24.166 11.85 24.166H10.9189H9.98782C9.86085 24.166 9.73389 24.293 9.73389 24.4199V25.351V26.536V27.7634V28.9484V29.8794C9.73389 30.0064 9.86085 30.1334 9.98782 30.1334H10.9189H12.1462H13.0773C13.2043 30.1334 13.3312 30.2603 13.3312 30.3873V31.0644C13.3312 31.1914 13.2043 31.3184 13.0773 31.3184H12.1462H11.2151C11.0882 31.3184 10.9612 31.4453 10.9612 31.5723V32.588V33.8154V34.7041C10.9612 34.8311 11.0882 34.958 11.2151 34.958H12.1462H13.0773C13.2043 34.958 13.3312 34.8311 13.3312 34.7041V34.027C13.3312 33.9 13.4582 33.773 13.5852 33.773H14.5162H14.7702H15.4473C15.5743 33.773 15.7012 33.6461 15.7012 33.5191V32.842Z" fill="black"/>
<path d="M18.1135 32.8413C18.1135 32.7143 18.2405 32.5874 18.3674 32.5874H19.0446C19.1715 32.5874 19.2985 32.4604 19.2985 32.3334V31.6563C19.2985 31.5293 19.1715 31.4023 19.0446 31.4023H18.1135H16.8862H16.6322H15.9551C15.8281 31.4023 15.7012 31.5293 15.7012 31.6563V32.3334C15.7012 32.4604 15.8281 32.5874 15.9551 32.5874H16.6322C16.7592 32.5874 16.8862 32.7143 16.8862 32.8413V33.5184C16.8862 33.6454 17.0131 33.7724 17.1401 33.7724H17.8173C17.9442 33.7724 18.0712 33.6454 18.0712 33.5184V32.8413H18.1135Z" fill="black"/>
<path d="M20.5258 32.8418C20.5258 32.7149 20.3989 32.5879 20.2719 32.5879H19.5947C19.4678 32.5879 19.3408 32.7149 19.3408 32.8418V33.519C19.3408 33.6459 19.4678 33.7729 19.5947 33.7729H20.2719C20.3989 33.7729 20.5258 33.6459 20.5258 33.519V32.8418Z" fill="black"/>
<path d="M23.8696 32.5879H23.1924C23.0654 32.5879 22.9385 32.7149 22.9385 32.8418V33.519C22.9385 33.6459 23.0654 33.7729 23.1924 33.7729H23.8696C23.9965 33.7729 24.1235 33.6459 24.1235 33.519V32.8418C24.1235 32.6725 23.9965 32.5879 23.8696 32.5879Z" fill="black"/>
<path d="M27.7631 32.8418C27.7631 32.7149 27.6362 32.5879 27.5092 32.5879H26.8321C26.7051 32.5879 26.5781 32.7149 26.5781 32.8418V33.519C26.5781 33.6459 26.7051 33.7729 26.8321 33.7729H27.5092C27.6362 33.7729 27.7631 33.6459 27.7631 33.519V32.8418Z" fill="black"/>
<path d="M31.3605 32.8418C31.3605 32.7149 31.2336 32.5879 31.1066 32.5879H30.1755H29.2021C29.0752 32.5879 28.9482 32.7149 28.9482 32.8418V33.519C28.9482 33.6459 28.8212 33.7729 28.6943 33.7729H28.0171C27.8901 33.7729 27.7632 33.8999 27.7632 34.0268V34.704C27.7632 34.8309 27.8901 34.9579 28.0171 34.9579H28.9482H29.8793C30.0062 34.9579 30.1332 34.8309 30.1332 34.704V34.0268C30.1332 33.8999 30.2602 33.7729 30.3871 33.7729H31.0643C31.1912 33.7729 31.3182 33.6459 31.3182 33.519V32.8418H31.3605Z" fill="black"/>
<path d="M16.6322 33.7725H15.9551C15.8281 33.7725 15.7012 33.8994 15.7012 34.0264V34.7035C15.7012 34.8305 15.8281 34.9575 15.9551 34.9575H16.6322C16.7592 34.9575 16.8862 34.8305 16.8862 34.7035V34.0264C16.8862 33.8994 16.7592 33.7725 16.6322 33.7725Z" fill="black"/>
<path d="M19.0448 33.7725H18.3677C18.2407 33.7725 18.1138 33.8994 18.1138 34.0264V34.7035C18.1138 34.8305 18.2407 34.9575 18.3677 34.9575H19.0448C19.1718 34.9575 19.2988 34.8305 19.2988 34.7035V34.0264C19.2988 33.8994 19.1718 33.7725 19.0448 33.7725Z" fill="black"/>
<path d="M22.642 33.7725H21.7109H21.457H20.7798C20.6528 33.7725 20.5259 33.8994 20.5259 34.0264V34.7035C20.5259 34.8305 20.6528 34.9575 20.7798 34.9575H21.7109H21.9648H22.642C22.7689 34.9575 22.8959 34.8305 22.8959 34.7035V34.0264C22.9382 33.8994 22.8112 33.7725 22.642 33.7725Z" fill="black"/>
<path d="M33.5189 33.7725H32.5878H32.3339H31.6568C31.5298 33.7725 31.4028 33.8994 31.4028 34.0264V34.7035C31.4028 34.8305 31.5298 34.9575 31.6568 34.9575H32.5878H32.8418H33.5189C33.6459 34.9575 33.7728 34.8305 33.7728 34.7035V34.0264C33.7728 33.8994 33.6459 33.7725 33.5189 33.7725Z" fill="black"/>
<path d="M0.25393 8.46433H8.16808C8.29504 8.46433 8.42201 8.33736 8.42201 8.2104V7.27932V6.052V4.86699V3.63966V2.41233V1.22733V0.25393C8.46433 0.126965 8.33736 0 8.16808 0H0.25393C0.126965 0 0 0.126965 0 0.25393V1.18501V2.37001V3.59734V4.78235V5.96735V7.19468V8.12576C0 8.33736 0.126965 8.46433 0.25393 8.46433ZM1.22733 6.052V4.86699V3.63966V2.41233V1.35429C1.22733 1.26965 1.26965 1.22733 1.35429 1.22733H7.11004C7.19468 1.22733 7.237 1.31197 7.237 1.35429V2.41233V3.63966V4.82467V6.00967V7.06771C7.237 7.15236 7.15236 7.19468 7.11004 7.19468H1.35429C1.26965 7.19468 1.22733 7.11004 1.22733 7.06771V6.052Z" fill="black"/>
<path d="M2.66604 6.05177H5.75552C5.88248 6.05177 6.00945 5.92481 6.00945 5.79784V4.86677V3.63944V2.66604C6.00945 2.53907 5.88248 2.41211 5.75552 2.41211H2.66604C2.53907 2.41211 2.41211 2.53907 2.41211 2.66604V3.59712V4.78212V5.7132C2.41211 5.92481 2.53907 6.05177 2.66604 6.05177Z" fill="black"/>
<path d="M34.7037 0H26.7896C26.6626 0 26.5356 0.126965 26.5356 0.25393V1.18501V2.37001V3.59734V4.78235V5.96735V7.19468V8.12576C26.5356 8.25272 26.6626 8.37969 26.7896 8.37969H34.7037C34.8307 8.37969 34.9576 8.25272 34.9576 8.12576V7.19468V5.96735V4.78235V3.63966V2.41233V1.22733V0.25393C35 0.126965 34.873 0 34.7037 0ZM33.7726 2.41233V3.63966V4.82467V6.00967V7.06772C33.7726 7.15236 33.688 7.19468 33.6457 7.19468H27.8899C27.8053 7.19468 27.763 7.11004 27.763 7.06772V6.00967V4.82467V3.63966V2.41233V1.35429C27.763 1.26965 27.8476 1.22733 27.8899 1.22733H33.6457C33.7303 1.22733 33.7726 1.31197 33.7726 1.35429V2.41233Z" fill="black"/>
<path d="M32.2917 2.41211H29.2022C29.0752 2.41211 28.9482 2.53907 28.9482 2.66604V3.59712V4.78212V5.7132C28.9482 5.84016 29.0752 5.96713 29.2022 5.96713H32.2917C32.4186 5.96713 32.5456 5.84016 32.5456 5.7132V4.78212V3.63944V2.66604C32.5879 2.53907 32.4609 2.41211 32.2917 2.41211Z" fill="black"/>
<path d="M8.16808 26.5361H0.25393C0.126965 26.5361 0 26.6631 0 26.7901V27.7211V28.9061V30.0912V31.3185V32.5881V33.8155V34.7042C0 34.8312 0.126965 34.9581 0.25393 34.9581H8.16808C8.29504 34.9581 8.42201 34.8312 8.42201 34.7042V33.7731V32.5881V31.4031V30.1758V28.9908V27.8058V26.8747C8.46433 26.6631 8.33736 26.5361 8.16808 26.5361ZM7.237 28.9485V30.1335V31.3608V32.5881V33.6462C7.237 33.7308 7.15236 33.7731 7.11004 33.7731H1.35429C1.26965 33.7731 1.22733 33.6885 1.22733 33.6462V32.5881V31.4031V30.1758V28.9908V27.9327C1.22733 27.8481 1.31197 27.8058 1.35429 27.8058H7.11004C7.19468 27.8058 7.237 27.8904 7.237 27.9327V28.9485Z" fill="black"/>
<path d="M5.75552 28.9482H2.66604C2.53907 28.9482 2.41211 29.0752 2.41211 29.2022V30.1332V31.3606V32.2917C2.41211 32.4609 2.53907 32.5879 2.66604 32.5879H5.75552C5.88248 32.5879 6.00945 32.4609 6.00945 32.334V31.4029V30.1756V29.2022C6.05177 29.0752 5.92481 28.9482 5.75552 28.9482Z" fill="black"/>
</svg>
