<svg width="11" height="10" viewBox="0 0 11 10" fill="none" xmlns="http://www.w3.org/2000/svg">
<path d="M5.01696 0.311056C5.19973 -0.103685 5.80027 -0.103685 5.98304 0.311056L7.12995 2.91366C7.20734 3.08927 7.37772 3.20844 7.57246 3.22318L10.5137 3.44573C10.9856 3.48144 11.1731 4.06156 10.8081 4.35664L8.59619 6.14495C8.44017 6.27109 8.37185 6.47367 8.42045 6.66599L9.10119 9.35949C9.21314 9.80244 8.72517 10.1587 8.3236 9.92721L5.7669 8.45331C5.60218 8.35835 5.39782 8.35835 5.2331 8.45331L2.6764 9.92721C2.27483 10.1587 1.78686 9.80244 1.89881 9.35949L2.57955 6.66599C2.62815 6.47367 2.55983 6.27109 2.40381 6.14495L0.19189 4.35664C-0.173095 4.06156 0.014409 3.48144 0.486312 3.44573L3.42754 3.22318C3.62228 3.20844 3.79266 3.08927 3.87005 2.91366L5.01696 0.311056Z" fill="#FDD395"/>
</svg>
