<svg width="21" height="21" viewBox="0 0 21 21" fill="none" xmlns="http://www.w3.org/2000/svg">
<path d="M0 3.15C0 1.41031 1.41031 0 3.15 0H17.85C19.5897 0 21 1.41031 21 3.15V17.85C21 19.5897 19.5897 21 17.85 21H3.15C1.41031 21 0 19.5897 0 17.85V3.15Z" fill="#D2D2D2"/>
<rect x="4" y="4" width="13" height="13" rx="2" fill="#52B69A"/>
<path d="M12.5312 7.25C12.3069 7.25 12.125 7.43189 12.125 7.65625C12.125 7.88061 12.3069 8.0625 12.5312 8.0625H14.1562C14.3806 8.0625 14.5625 7.88061 14.5625 7.65625C14.5625 7.43189 14.3806 7.25 14.1562 7.25H12.5312Z" fill="white" fill-opacity="0.25"/>
<path fill-rule="evenodd" clip-rule="evenodd" d="M11.3125 10.9062C11.3125 9.78443 12.2219 8.875 13.3438 8.875C14.4656 8.875 15.375 9.78443 15.375 10.9062V11.3125C15.375 11.5369 15.1931 11.7188 14.9688 11.7188H12.125C12.125 12.3919 12.6706 12.9375 13.3438 12.9375C13.6271 12.9375 13.8878 12.8408 14.0948 12.6786C14.2029 12.5939 14.3307 12.5312 14.468 12.5312C14.8162 12.5312 15.0389 12.8908 14.7954 13.1396C14.4267 13.5162 13.9125 13.75 13.3438 13.75C12.2219 13.75 11.3125 12.8406 11.3125 11.7188V10.9062ZM13.3438 9.6875C12.6706 9.6875 12.125 10.2331 12.125 10.9062H14.5625C14.5625 10.2331 14.0169 9.6875 13.3438 9.6875Z" fill="white" fill-opacity="0.25"/>
<path fill-rule="evenodd" clip-rule="evenodd" d="M6.4375 8.0625V9.6875H8.46875C8.91748 9.6875 9.28125 9.32373 9.28125 8.875C9.28125 8.42627 8.91748 8.0625 8.46875 8.0625H6.4375ZM9.60616 10.0356C9.90708 9.74064 10.0938 9.32962 10.0938 8.875C10.0938 7.97754 9.36621 7.25 8.46875 7.25H6.275C5.91601 7.25 5.625 7.54102 5.625 7.9V13.0536C5.625 13.4382 5.9368 13.75 6.32143 13.75H8.46875C9.59058 13.75 10.5 12.8406 10.5 11.7188C10.5 11.0183 10.1455 10.4008 9.60616 10.0356ZM6.4375 10.5V12.9375H8.46875C9.14185 12.9375 9.6875 12.3919 9.6875 11.7188C9.6875 11.0456 9.14185 10.5 8.46875 10.5H6.4375Z" fill="#D2D2D2"/>
</svg>
