<svg width="21" height="21" viewBox="0 0 21 21" fill="none" xmlns="http://www.w3.org/2000/svg">
<path d="M0 3.15C0 1.41031 1.41031 0 3.15 0H17.85C19.5897 0 21 1.41031 21 3.15V17.85C21 19.5897 19.5897 21 17.85 21H3.15C1.41031 21 0 19.5897 0 17.85V3.15Z" fill="#D2D2D2"/>
<path d="M17 10.5C17 14.0898 14.0898 17 10.5 17C9.57557 17 8.6962 16.807 7.9 16.4591L6.08224 16.8373C5.6787 16.9212 5.29993 16.6132 5.29985 16.201L5.29953 14.4C4.48353 13.3137 4 11.9633 4 10.5C4 6.91015 6.91015 4 10.5 4C14.0898 4 17 6.91015 17 10.5Z" fill="#52B69A"/>
<path d="M8.95215 8.8335L7.29639 11.4464C7.22498 11.5591 7.23712 11.7121 7.32516 11.8094C7.41165 11.905 7.54717 11.9197 7.64895 11.8448L8.95644 10.8819C9.1533 10.737 9.40876 10.7328 9.60939 10.8714L11.2032 11.9717C11.4748 12.1592 11.8317 12.0789 12.0153 11.7891L13.6711 9.17623C13.7425 9.06352 13.7304 8.91048 13.6423 8.81322C13.5558 8.71768 13.4203 8.70285 13.3185 8.77781L12.0111 9.74065C11.8142 9.88568 11.5587 9.8898 11.3581 9.75129L9.76434 8.65094C9.49273 8.46344 9.13581 8.54367 8.95215 8.8335Z" fill="#D2D2D2"/>
</svg>
