<svg width="21" height="21" viewBox="0 0 21 21" fill="none" xmlns="http://www.w3.org/2000/svg">
<path d="M0 3.15C0 1.41031 1.41031 0 3.15 0H17.85C19.5897 0 21 1.41031 21 3.15V17.85C21 19.5897 19.5897 21 17.85 21H3.15C1.41031 21 0 19.5897 0 17.85V3.15Z" fill="#D2D2D2"/>
<path d="M16.1392 13.959L15.1074 14.9908C15.1074 14.9908 12.4263 16.1398 8.59612 12.3097C4.76595 8.47949 5.915 5.79838 5.915 5.79838L6.94685 4.76654C7.41301 4.30037 8.18399 4.35517 8.57954 4.88258L9.56447 6.19577C9.88789 6.62707 9.84505 7.23059 9.46382 7.61181L8.59612 8.47949C8.59612 8.47949 8.59612 9.24553 10.1282 10.7776C11.6602 12.3097 12.4263 12.3096 12.4263 12.3096L13.2939 11.442C13.6752 11.0608 14.2787 11.0179 14.71 11.3413L16.0232 12.3263C16.5506 12.7218 16.6054 13.4927 16.1392 13.959Z" fill="#52B69A"/>
<path d="M6.94696 4.76655L6.68115 5.03235L8.97925 8.09648L9.46394 7.61181C9.84511 7.23059 9.88801 6.62707 9.56453 6.19578L8.57966 4.88258C8.1841 4.35517 7.41313 4.30038 6.94696 4.76655Z" fill="#52B69A"/>
<path d="M16.1395 13.9583L15.8737 14.2241L12.8096 11.926L13.2943 11.4413C13.6754 11.0601 14.2789 11.0173 14.7103 11.3407L16.0234 12.3256C16.5509 12.7212 16.6057 13.4921 16.1395 13.9583Z" fill="#52B69A"/>
</svg>
