<svg width="20" height="20" viewBox="0 0 20 20" fill="none" xmlns="http://www.w3.org/2000/svg">
<path d="M10 20C15.5228 20 20 15.5228 20 10C20 4.47715 15.5228 0 10 0C4.47715 0 0 4.47715 0 10C0 15.5228 4.47715 20 10 20Z" fill="#FF9E00"/>
<path d="M6.68731 19.6525C6.44605 19.5626 6.32049 19.2989 6.38934 19.0493L9.24797 8.68364C9.3991 8.13551 9.96271 7.81465 10.5069 7.96691C11.051 8.11913 11.3695 8.68684 11.2184 9.23487L10.1424 13.1367C11.4215 13.4097 12.3187 13.1762 12.9193 12.7763C13.6791 12.2705 14.167 11.365 14.2893 10.2896C14.4116 9.21334 14.1499 8.08401 13.5522 7.24751C12.9763 6.44163 12.0666 5.86944 10.7444 5.86944C8.78027 5.86944 7.61111 6.72558 7.04076 7.77879C6.44708 8.87511 6.42798 10.32 7.05765 11.5885C7.3102 12.0973 7.10547 12.7158 6.60036 12.9702C6.09526 13.2246 5.48106 13.0184 5.22851 12.5097C4.32443 10.6883 4.30534 8.52843 5.24545 6.79242C6.20888 5.01331 8.10731 3.80957 10.7444 3.80957C12.7455 3.80957 14.2642 4.71792 15.212 6.04413C16.1378 7.33976 16.495 8.99407 16.321 10.5239C16.147 12.0548 15.4237 13.5782 14.0471 14.4948C12.8722 15.2769 11.3592 15.5271 9.5944 15.1236L8.35184 19.6294C8.28016 19.8892 8.02144 20.0506 7.76169 19.9857C7.39537 19.8941 7.03684 19.7827 6.68731 19.6525Z" fill="white"/>
</svg>
