<svg width="15" height="20" viewBox="0 0 15 20" fill="none" xmlns="http://www.w3.org/2000/svg">
<path d="M7.85388 9.48876C6.47301 9.48876 5.35413 8.36987 5.35413 6.98901C5.35413 5.60815 6.47301 4.48926 7.85388 4.48926C9.23474 4.48926 10.3536 5.60815 10.3536 6.98901C10.3536 8.36987 9.23474 9.48876 7.85388 9.48876Z" fill="url(#paint0_linear_300_646)"/>
<path d="M7.85387 0C3.99826 0 0.861572 3.13669 0.861572 6.9923C0.861572 11.4749 6.82898 18.7581 7.08295 19.0651L7.85387 20L8.6248 19.0651C8.87877 18.7571 14.8462 11.4749 14.8462 6.9923C14.8462 3.13569 11.7095 0 7.85387 0ZM7.85387 16.8153C5.97606 14.3526 2.86137 9.70103 2.86137 6.9923C2.86137 4.23958 5.10115 1.9998 7.85387 1.9998C10.6066 1.9998 12.8464 4.23958 12.8464 6.9923C12.8464 9.69703 9.73169 14.3506 7.85387 16.8153Z" fill="url(#paint1_linear_300_646)"/>
<defs>
<linearGradient id="paint0_linear_300_646" x1="7.85388" y1="4.48926" x2="7.85388" y2="9.48876" gradientUnits="userSpaceOnUse">
<stop stop-color="#723C70"/>
<stop offset="1" stop-color="#2E6F95"/>
</linearGradient>
<linearGradient id="paint1_linear_300_646" x1="7.85387" y1="0" x2="7.85387" y2="20" gradientUnits="userSpaceOnUse">
<stop stop-color="#723C70"/>
<stop offset="1" stop-color="#2E6F95"/>
</linearGradient>
</defs>
</svg>
