<svg width="20" height="20" viewBox="0 0 20 20" fill="none" xmlns="http://www.w3.org/2000/svg">
<path d="M1.11457 12.2031L1.11457 12.2031C0.918018 11.062 0.75 9.61382 0.75 8C0.75 6.38619 0.918017 4.938 1.11457 3.79688C1.34652 2.45033 2.41625 1.44249 3.80759 1.23079C5.40035 0.988443 7.58287 0.75 10 0.75C12.4171 0.75 14.5997 0.988443 16.1924 1.23079L16.3051 0.489899L16.1924 1.23079C17.5838 1.4425 18.6535 2.45034 18.8854 3.79685L18.8854 3.79691C19.082 4.938 19.25 6.38618 19.25 8C19.25 9.61382 19.082 11.062 18.8854 12.2031L18.8854 12.2031C18.6535 13.5496 17.5838 14.5575 16.1924 14.7692C14.7356 14.9909 12.7847 15.2094 10.6118 15.245L10.4134 15.2483L10.2426 15.3492L4.12719 18.9628C3.96049 19.0613 3.75 18.9411 3.75 18.7476V15.344V14.803L3.23668 14.6323C2.13106 14.2646 1.31418 13.3619 1.11457 12.2031Z" stroke="url(#paint0_linear_5)" stroke-width="1.5"/>
<path d="M4.5 6C4.5 5.72386 4.72386 5.5 5 5.5H15C15.2762 5.5 15.5 5.72386 15.5 6C15.5 6.27614 15.2762 6.5 15 6.5H5C4.72386 6.5 4.5 6.27614 4.5 6ZM4.5 10C4.5 9.72386 4.72386 9.5 5 9.5H9C9.27614 9.5 9.5 9.72386 9.5 10C9.5 10.2762 9.27614 10.5 9 10.5H5C4.72386 10.5 4.5 10.2762 4.5 10Z" fill="url(#paint1_linear_5)" stroke="url(#paint2_linear_5)"/>
<defs>
<linearGradient id="paint0_linear_5" x1="10" y1="0" x2="10" y2="19.7491" gradientUnits="userSpaceOnUse">
<stop stop-color="#723C70"/>
<stop offset="1" stop-color="#2E6F95"/>
</linearGradient>
<linearGradient id="paint1_linear_5" x1="10" y1="5" x2="10" y2="11" gradientUnits="userSpaceOnUse">
<stop stop-color="#723C70"/>
<stop offset="1" stop-color="#2E6F95"/>
</linearGradient>
<linearGradient id="paint2_linear_5" x1="10" y1="5" x2="10" y2="11" gradientUnits="userSpaceOnUse">
<stop stop-color="#723C70"/>
<stop offset="1" stop-color="#2E6F95"/>
</linearGradient>
</defs>
</svg>
