<svg width="30" height="31" viewBox="0 0 30 31" fill="none" xmlns="http://www.w3.org/2000/svg">
<g clip-path="url(#clip0_37_2859)">
<mask id="mask0_37_2859" style="mask-type:luminance" maskUnits="userSpaceOnUse" x="0" y="0" width="30" height="31">
<path d="M30 0.333008H0V30.333H30V0.333008Z" fill="white"/>
</mask>
<g mask="url(#mask0_37_2859)">
<mask id="mask1_37_2859" style="mask-type:luminance" maskUnits="userSpaceOnUse" x="0" y="0" width="30" height="31">
<path d="M30 0.333008H0V30.333H30V0.333008Z" fill="white"/>
<path d="M2.34375 12.6772V12.3452C2.34375 7.0143 6.6808 2.67725 12.0117 2.67725C17.0204 2.67725 21.1514 6.50594 21.6325 11.3902L23.9817 13.5332C24.0087 13.2441 24.0234 12.9586 24.0234 12.6772V12.3452C24.0234 5.72196 18.635 0.333496 12.0117 0.333496C5.38846 0.333496 0 5.72196 0 12.3452V12.6772C0 16.0269 1.92047 19.9303 5.70809 24.2789C8.45391 27.4314 11.1613 29.6296 11.2753 29.7216L12.0117 30.3166V27.2707C9.63685 25.1899 2.34375 18.3376 2.34375 12.6772Z" fill="white"/>
<path d="M22.7344 25.5879H19.2188V22.0723H22.7344V25.5879Z" fill="white"/>
</mask>
<g mask="url(#mask1_37_2859)">
<mask id="mask2_37_2859" style="mask-type:luminance" maskUnits="userSpaceOnUse" x="0" y="0" width="30" height="31">
<path d="M0 0.333984H30V30.334H0V0.333984Z" fill="white"/>
</mask>
<g mask="url(#mask2_37_2859)">
<path d="M2.34375 12.6772V12.3452C2.34375 7.0143 6.6808 2.67725 12.0117 2.67725C17.0204 2.67725 21.1514 6.50594 21.6325 11.3902L23.9817 13.5332C24.0087 13.2441 24.0234 12.9586 24.0234 12.6772V12.3452C24.0234 5.72196 18.635 0.333496 12.0117 0.333496C5.38846 0.333496 0 5.72196 0 12.3452V12.6772C0 16.0269 1.92047 19.9303 5.70809 24.2789C8.45391 27.4314 11.1613 29.6296 11.2753 29.7216L12.0117 30.3166V27.2707C9.63685 25.1899 2.34375 18.3376 2.34375 12.6772Z" fill="#DDA15E"/>
<path d="M22.7344 25.5869H19.2188V22.0713H22.7344V25.5869Z" fill="#DDA15E"/>
<path d="M8.20312 12.3457C8.20312 10.2423 9.90832 8.53711 12.0117 8.53711C14.1151 8.53711 15.8203 10.2423 15.8203 12.3457C15.8203 14.4491 14.1151 16.1543 12.0117 16.1543C9.90832 16.1543 8.20312 14.4491 8.20312 12.3457Z" stroke="#DDA15E" stroke-width="2.34375" stroke-miterlimit="10" stroke-linecap="round" stroke-linejoin="round"/>
<path d="M26.6622 20.7832V27.1568C26.6622 28.2644 25.7643 29.1623 24.6566 29.1623H17.236C16.1284 29.1623 15.2305 28.2644 15.2305 27.1568V20.7832" stroke="#DDA15E" stroke-width="2.34375" stroke-miterlimit="10"/>
<path d="M28.418 22.3393L20.9473 15.5239L13.4766 22.3393" stroke="#DDA15E" stroke-width="2.34375" stroke-miterlimit="10" stroke-linecap="square"/>
</g>
</g>
</g>
</g>
<defs>
<clipPath id="clip0_37_2859">
<rect width="30" height="31" fill="white"/>
</clipPath>
</defs>
</svg>
