<svg width="30" height="30" viewBox="0 0 30 30" fill="none" xmlns="http://www.w3.org/2000/svg">
<g clip-path="url(#clip0_37_2819)">
<mask id="mask0_37_2819" style="mask-type:luminance" maskUnits="userSpaceOnUse" x="0" y="0" width="30" height="30">
<path d="M30 0H0V30H30V0Z" fill="white"/>
</mask>
<g mask="url(#mask0_37_2819)">
<path d="M22.4994 0H7.49981C3.37528 0 0 3.37528 0 7.49982V22.5002C0 26.6236 3.37528 30 7.49981 30H22.4994C26.6239 30 29.9992 26.6236 29.9992 22.5002V7.49982C29.9992 3.37528 26.6239 0 22.4994 0ZM27.4992 22.5002C27.4992 25.2564 25.2571 27.4999 22.4994 27.4999H7.49981C4.74326 27.4999 2.50006 25.2564 2.50006 22.5002V7.49982C2.50006 4.7429 4.74326 2.50006 7.49981 2.50006H22.4994C25.2571 2.50006 27.4992 4.7429 27.4992 7.49982V22.5002Z" fill="#DDA15E"/>
<path d="M23.125 8.74991C24.1605 8.74991 24.9999 7.91046 24.9999 6.87495C24.9999 5.83945 24.1605 5 23.125 5C22.0894 5 21.25 5.83945 21.25 6.87495C21.25 7.91046 22.0894 8.74991 23.125 8.74991Z" fill="#DDA15E"/>
<path d="M14.9998 7.5C10.8569 7.5 7.5 10.8573 7.5 14.9998C7.5 19.1408 10.8569 22.5004 14.9998 22.5004C19.1415 22.5004 22.4996 19.1408 22.4996 14.9998C22.4996 10.8573 19.1415 7.5 14.9998 7.5ZM14.9998 20.0003C12.2387 20.0003 10 17.7616 10 14.9998C10 12.238 12.2387 10.0001 14.9998 10.0001C17.7609 10.0001 19.9996 12.238 19.9996 14.9998C19.9996 17.7616 17.7609 20.0003 14.9998 20.0003Z" fill="#DDA15E"/>
</g>
</g>
<defs>
<clipPath id="clip0_37_2819">
<rect width="30" height="30" fill="white"/>
</clipPath>
</defs>
</svg>
