<svg width="30" height="30" viewBox="0 0 30 30" fill="none" xmlns="http://www.w3.org/2000/svg">
<path d="M27.0002 26.9998V18.2098C27.0002 13.8898 26.0702 10.5898 21.0302 10.5898C18.6002 10.5898 16.9802 11.9098 16.3202 13.1698H16.2602V10.9798H11.4902V26.9998H16.4702V19.0498C16.4702 16.9498 16.8602 14.9398 19.4402 14.9398C21.9902 14.9398 22.0202 17.3098 22.0202 19.1698V26.9698H27.0002V26.9998Z" fill="#DDA15E"/>
<path d="M3.39062 10.9805H8.37063V27.0005H3.39062V10.9805Z" fill="#DDA15E"/>
<path d="M5.88 3C4.29 3 3 4.29 3 5.88C3 7.47 4.29 8.79 5.88 8.79C7.47 8.79 8.76 7.47 8.76 5.88C8.76 4.29 7.47 3 5.88 3Z" fill="#DDA15E"/>
</svg>
