<svg width="30" height="30" viewBox="0 0 30 30" fill="none" xmlns="http://www.w3.org/2000/svg">
<g clip-path="url(#clip0_37_2831)">
<mask id="mask0_37_2831" style="mask-type:luminance" maskUnits="userSpaceOnUse" x="0" y="0" width="30" height="30">
<path d="M30 0H0V30H30V0Z" fill="white"/>
</mask>
<g mask="url(#mask0_37_2831)">
<path d="M15 0C6.71625 0 0 6.2175 0 13.8881C0 18.2588 2.18062 22.1569 5.58937 24.7031V30L10.6969 27.1969C12.06 27.5738 13.5038 27.7781 15 27.7781C23.2838 27.7781 30 21.5606 30 13.89C30 6.21937 23.2838 0 15 0ZM16.4906 18.7031L12.6712 14.6288L5.21812 18.7031L13.4175 9.99938L17.3306 14.0738L24.69 9.99938L16.4906 18.7031Z" fill="#DDA15E"/>
</g>
</g>
<defs>
<clipPath id="clip0_37_2831">
<rect width="30" height="30" fill="white"/>
</clipPath>
</defs>
</svg>
