<svg width="30" height="30" viewBox="0 0 30 30" fill="none" xmlns="http://www.w3.org/2000/svg">
<path d="M26.9707 7.56C26.0707 7.95 25.1407 8.22 24.1507 8.34C25.1707 7.74 25.9507 6.78 26.3107 5.61C25.3507 6.18 24.3007 6.57 23.1907 6.81C22.2907 5.85 21.0007 5.25 19.5907 5.25C16.8607 5.25 14.6707 7.47 14.6707 10.17C14.6707 10.56 14.7007 10.92 14.7907 11.28C10.7107 11.1 7.1107 9.12 4.6807 6.15C2.9407 9.27 4.8907 11.85 6.1807 12.72C5.4007 12.72 4.6207 12.48 3.9607 12.12C3.9607 14.55 5.6707 16.56 7.8907 17.01C7.4107 17.16 6.3307 17.25 5.6707 17.1C6.3007 19.05 8.1307 20.49 10.2607 20.52C8.5807 21.84 6.1207 22.89 2.9707 22.56C5.1607 23.97 7.7407 24.78 10.5307 24.78C19.5907 24.78 24.5107 17.28 24.5107 10.8C24.5107 10.59 24.5107 10.38 24.4807 10.17C25.5007 9.42 26.3407 8.55 26.9707 7.56Z" fill="#DDA15E"/>
</svg>
