<svg width="30" height="30" viewBox="0 0 30 30" fill="none" xmlns="http://www.w3.org/2000/svg">
<path d="M28.4693 7.96999C28.1452 6.7651 27.1952 5.8153 25.9905 5.49086C23.7897 4.88867 14.986 4.88867 14.986 4.88867C14.986 4.88867 6.18268 4.88867 3.98181 5.46803C2.80026 5.79213 1.82711 6.76527 1.50302 7.96999C0.923828 10.1707 0.923828 14.7347 0.923828 14.7347C0.923828 14.7347 0.923828 19.3216 1.50302 21.4993C1.82746 22.704 2.77709 23.6538 3.98198 23.9783C6.20585 24.5806 14.9864 24.5806 14.9864 24.5806C14.9864 24.5806 23.7897 24.5806 25.9905 24.0013C27.1954 23.677 28.1452 22.7272 28.4697 21.5225C29.0487 19.3216 29.0487 14.7578 29.0487 14.7578C29.0487 14.7578 29.0719 10.1707 28.4693 7.96999ZM12.1831 18.951V10.5183L19.5038 14.7347L12.1831 18.951Z" fill="#DDA15E"/>
</svg>
