<svg width="30" height="30" viewBox="0 0 30 30" fill="none" xmlns="http://www.w3.org/2000/svg">
<g clip-path="url(#clip0_37_2798)">
<mask id="mask0_37_2798" style="mask-type:luminance" maskUnits="userSpaceOnUse" x="0" y="0" width="30" height="30">
<path d="M30 0H0V30H30V0Z" fill="white"/>
</mask>
<g mask="url(#mask0_37_2798)">
<path d="M15.4537 18.6838C15.4537 16.3738 14.355 14.6663 12.085 14.0263C13.7413 13.2375 14.605 12.0425 14.605 10.1838C14.605 6.51875 11.865 5.625 8.70375 5.625H0V24.0263H8.9475C12.3025 24.0263 15.4537 22.4225 15.4537 18.6838ZM4.0575 8.76625H7.865C9.32875 8.76625 10.6463 9.17625 10.6463 10.8688C10.6463 12.4313 9.62125 13.06 8.17125 13.06H4.0575V8.76625ZM4.05625 20.9013V15.8338H8.47875C10.265 15.8338 11.395 16.5763 11.395 18.4613C11.395 20.32 10.0463 20.9013 8.395 20.9013H4.05625Z" fill="#FFB703"/>
<path d="M23.4943 24.3746C26.6868 24.3746 28.7543 22.9409 29.7493 19.8934H26.5093C26.1606 21.0309 24.7231 21.6321 23.6081 21.6321C21.4568 21.6321 20.3268 20.3759 20.3268 18.2409H29.9681C30.2731 13.9684 27.8931 10.3271 23.4931 10.3271C19.4193 10.3271 16.6543 13.3796 16.6543 17.3784C16.6543 21.5284 19.2743 24.3746 23.4943 24.3746ZM23.3793 13.0921C25.2231 13.0921 26.1506 14.1721 26.3056 15.9384H20.3318C20.4531 14.1871 21.6193 13.0921 23.3793 13.0921Z" fill="#FFB703"/>
<path d="M19.584 6.59082H27.069V8.40332H19.584V6.59082Z" fill="#FFB703"/>
</g>
</g>
<defs>
<clipPath id="clip0_37_2798">
<rect width="30" height="30" fill="white"/>
</clipPath>
</defs>
</svg>
