<svg width="30" height="30" viewBox="0 0 30 30" fill="none" xmlns="http://www.w3.org/2000/svg">
<path d="M15.4074 0C7.18519 0 2.8125 5.26899 2.8125 11.0142C2.8125 13.6787 4.30131 17.0014 6.68455 18.0552C7.04644 18.2183 7.24332 18.1489 7.32395 17.8133C7.3952 17.5583 7.70834 16.3301 7.86022 15.7507C7.9071 15.5651 7.88272 15.4038 7.73272 15.2294C6.94143 14.3144 6.31328 12.6474 6.31328 11.0836C6.31328 7.07657 9.49905 3.18577 14.9199 3.18577C19.6076 3.18577 22.8871 6.2309 22.8871 10.5867C22.8871 15.5088 20.2826 18.914 16.8981 18.914C15.0249 18.914 13.6298 17.4439 14.0723 15.6251C14.6067 13.4594 15.6549 11.1305 15.6549 9.56856C15.6549 8.16787 14.8636 7.00906 13.2473 7.00906C11.3403 7.00906 9.79344 8.89728 9.79344 11.4324C9.79344 13.0431 10.3634 14.1306 10.3634 14.1306C10.3634 14.1306 8.47713 21.751 8.12649 23.1742C7.53396 25.5837 8.20711 29.4857 8.26524 29.8213C8.30087 30.007 8.509 30.0651 8.62526 29.9132C8.81089 29.6695 11.091 26.4162 11.7304 24.0648C11.9629 23.2079 12.9173 19.7334 12.9173 19.7334C13.5454 20.8678 15.3587 21.8185 17.29 21.8185C23.0352 21.8185 27.1867 16.7689 27.1867 10.5023C27.1661 4.49458 22.0246 0 15.4074 0Z" fill="#FFB703"/>
</svg>
