<svg width="30" height="30" viewBox="0 0 30 30" fill="none" xmlns="http://www.w3.org/2000/svg">
<path d="M28.1444 7.52246C26.4323 7.52246 24.8526 6.95527 23.584 5.99844C22.1291 4.90156 21.0838 3.29258 20.7147 1.43809C20.6233 0.979883 20.5741 0.507031 20.5694 0.0224609H15.6785V13.3865L15.6727 20.7066C15.6727 22.6637 14.3983 24.323 12.6317 24.9066C12.119 25.076 11.5653 25.1562 10.9887 25.1246C10.2528 25.0842 9.56312 24.8621 8.96371 24.5035C7.68812 23.7406 6.82328 22.3566 6.79984 20.7734C6.76293 18.299 8.76332 16.2816 11.236 16.2816C11.7241 16.2816 12.1928 16.3613 12.6317 16.5061V12.8533V11.5402C12.1688 11.4717 11.6977 11.4359 11.2213 11.4359C8.51488 11.4359 5.98363 12.5609 4.17426 14.5877C2.80668 16.1193 1.98636 18.0734 1.8598 20.1225C1.69398 22.8143 2.67894 25.373 4.5891 27.2609C4.86976 27.5381 5.16449 27.7953 5.47269 28.0326C7.11039 29.293 9.11254 29.9762 11.2213 29.9762C11.6977 29.9762 12.1688 29.941 12.6317 29.8725C14.6016 29.5807 16.4192 28.6789 17.8535 27.2609C19.616 25.5189 20.5899 23.2062 20.6004 20.7447L20.5752 9.81348C21.416 10.4621 22.3354 10.9988 23.3221 11.4154C24.8567 12.0629 26.4838 12.391 28.1584 12.3904V8.83906V7.52129L28.1444 7.52246Z" fill="#FFB703"/>
</svg>
