<svg width="30" height="30" viewBox="0 0 30 30" fill="none" xmlns="http://www.w3.org/2000/svg">
<path fill-rule="evenodd" clip-rule="evenodd" d="M24.9493 5.01011C22.3181 2.37579 18.8188 0.924397 15.0908 0.922852C7.40901 0.922852 1.1571 7.17459 1.15401 14.8585C1.15298 17.3148 1.79465 19.7126 3.0143 21.8261L1.03711 29.0479L8.42524 27.1098C10.4609 28.2203 12.7528 28.8055 15.0852 28.8062H15.091C22.772 28.8062 29.0246 22.5539 29.0275 14.8697C29.029 11.1456 27.5807 7.64425 24.9493 5.01011ZM15.0908 26.4525H15.086C13.0075 26.4516 10.9691 25.8931 9.19034 24.8379L8.76753 24.5867L4.3833 25.7368L5.55352 21.4623L5.278 21.0241C4.11843 19.1797 3.50611 17.048 3.50714 14.8594C3.50955 8.47269 8.70608 3.27667 15.0955 3.27667C18.1895 3.2777 21.0979 4.48414 23.2849 6.67368C25.4719 8.86322 26.6756 11.7736 26.6745 14.8688C26.6718 21.256 21.4756 26.4525 15.0908 26.4525ZM21.4447 17.7769C21.0966 17.6025 19.3844 16.7603 19.0651 16.6439C18.7462 16.5277 18.5137 16.4699 18.2818 16.8184C18.0496 17.1668 17.3823 17.9513 17.1791 18.1836C16.9758 18.416 16.7729 18.4452 16.4246 18.2708C16.0763 18.0965 14.9544 17.7287 13.6241 16.5423C12.589 15.619 11.8902 14.4786 11.6869 14.1301C11.484 13.7813 11.6852 13.611 11.8397 13.4195C12.2167 12.9513 12.5942 12.4606 12.7102 12.2283C12.8264 11.9959 12.7682 11.7924 12.681 11.6182C12.5942 11.444 11.8977 9.72994 11.6076 9.03248C11.3247 8.35373 11.0379 8.4454 10.824 8.43475C10.6211 8.42463 10.3888 8.42257 10.1566 8.42257C9.92453 8.42257 9.54722 8.5096 9.22793 8.85841C8.90881 9.20706 8.00931 10.0494 8.00931 11.7634C8.00931 13.4775 9.25711 15.1333 9.43118 15.3658C9.60524 15.5982 11.8868 19.1155 15.3799 20.6237C16.2107 20.9829 16.8593 21.1969 17.3652 21.3574C18.1994 21.6225 18.9584 21.585 19.5585 21.4954C20.2276 21.3954 21.6186 20.6529 21.909 19.8396C22.1991 19.0261 22.1991 18.329 22.1119 18.1836C22.0251 18.0383 21.7928 17.9513 21.4447 17.7769Z" fill="#FFB703"/>
</svg>
