<svg width="20" height="20" viewBox="0 0 20 20" fill="none" xmlns="http://www.w3.org/2000/svg">
<path d="M11.1667 7.16667V5H12.25C12.8483 5 13.3333 5.48503 13.3333 6.08333C13.3333 6.68164 12.8483 7.16667 12.25 7.16667H11.1667ZM8.08333 9.16667H9.16667V11.3333H8.08333C7.48503 11.3333 7 10.8483 7 10.25C7 9.65169 7.48502 9.16667 8.08333 9.16667Z" fill="black" stroke="black" stroke-width="2"/>
<path opacity="0.25" d="M6 6.08333C6 4.93274 6.93274 4 8.08333 4H10.1667V8.16667H8.08333C6.93274 8.16667 6 7.23393 6 6.08333Z" fill="black" fill-opacity="0.5"/>
<path opacity="0.25" d="M10.1667 10.25C10.1667 9.09937 11.0994 8.16663 12.25 8.16663C13.4006 8.16663 14.3334 9.09937 14.3334 10.25C14.3334 11.4005 13.4006 12.3333 12.25 12.3333C11.0994 12.3333 10.1667 11.4005 10.1667 10.25Z" fill="black" fill-opacity="0.5"/>
<path opacity="0.25" d="M8.08333 12.3334C6.93274 12.3334 6 13.2661 6 14.4167C6 15.5673 6.93274 16.5 8.08333 16.5C9.23391 16.5 10.1667 15.5673 10.1667 14.4167V12.3334H8.08333Z" fill="black" fill-opacity="0.5"/>
<rect x="0.75" y="0.75" width="18.5" height="18.5" rx="3.25" stroke="black" stroke-width="1.5"/>
</svg>
