<svg width="20" height="20" viewBox="0 0 20 20" fill="none" xmlns="http://www.w3.org/2000/svg">
<g clip-path="url(#clip0_5:2439)">
<path d="M18.6758 15.3213L17.0884 16.9087C17.0884 16.9087 12.9636 18.6764 7.07102 12.7839C1.17846 6.89134 2.94622 2.76655 2.94622 2.76655L4.53367 1.17911C5.25085 0.461927 6.43697 0.546224 7.04552 1.35762L8.56078 3.37792C9.05837 4.04146 8.99245 4.96995 8.40595 5.55644L7.07102 6.89134C7.07102 6.89134 7.07101 8.06986 9.42803 10.4269C11.785 12.7839 12.9635 12.7839 12.9635 12.7839L14.2984 11.449C14.8849 10.8625 15.8134 10.7965 16.477 11.2942L18.4973 12.8094C19.3087 13.4179 19.3929 14.604 18.6758 15.3213Z" stroke="#FF9E00" stroke-width="1.5"/>
</g>
<defs>
<clipPath id="clip0_5:2439">
<rect width="20" height="20" fill="white"/>
</clipPath>
</defs>
</svg>
