<svg width="20" height="20" viewBox="0 0 20 20" fill="none" xmlns="http://www.w3.org/2000/svg">
<path d="M1.80525 6.66226C1.9037 5.39938 2.89959 4.4114 4.16389 4.33311C5.51613 4.24937 7.4467 4.1665 9.79163 4.1665C12.1366 4.1665 14.0671 4.24937 15.4193 4.33311C16.6837 4.4114 17.6796 5.39938 17.778 6.66226C17.8513 7.60226 17.9166 8.69071 17.9166 9.58317C17.9166 10.4756 17.8513 11.5641 17.778 12.5041C17.6796 13.7669 16.6837 14.7549 15.4193 14.8332C14.0671 14.917 12.1366 14.9998 9.79163 14.9998C7.4467 14.9998 5.51613 14.917 4.16389 14.8332C2.89959 14.7549 1.9037 13.7669 1.80525 12.5041C1.73197 11.5641 1.66663 10.4756 1.66663 9.58317C1.66663 8.69071 1.73197 7.60226 1.80525 6.66226Z" stroke="#FF9E00" stroke-width="1.5"/>
<path d="M9.4375 10.4232V8.7435L10.6973 9.58333L9.4375 10.4232Z" fill="#FF9E00" stroke="#FF9E00" stroke-width="2"/>
</svg>
