<svg width="20" height="20" viewBox="0 0 20 20" fill="none" xmlns="http://www.w3.org/2000/svg">
<g clip-path="url(#clip0_403_4345)">
<path d="M19.25 10C19.25 15.1086 15.1086 19.25 10 19.25C4.89137 19.25 0.75 15.1086 0.75 10C0.75 4.89137 4.89137 0.75 10 0.75C15.1086 0.75 19.25 4.89137 19.25 10Z" stroke="#858585" stroke-width="1.5"/>
<path d="M0.622212 8.46L0.614387 8.45871L0.600328 7.97675L0.622212 8.46ZM0.622212 8.46L0.614387 8.45871L0.614868 8.47519C0.615837 8.4742 0.617122 8.47264 0.618434 8.47037C0.620391 8.46698 0.621689 8.4632 0.622212 8.46ZM0.614868 8.47519C0.614492 8.47557 0.614158 8.47588 0.613895 8.4761C0.613209 8.47668 0.612837 8.47685 0.612839 8.47686C0.612841 8.47686 0.613485 8.47658 0.614907 8.47654L0.614868 8.47519ZM12.1598 12.2032L11.9648 11.6949L11.4749 11.9324C9.43291 12.9224 7.19018 14.6119 4.19495 17.5214C3.92981 17.3166 3.67574 17.0979 3.43384 16.8666C6.53491 13.8467 8.90649 12.0489 11.1295 10.989L11.5751 10.7766L11.3684 10.3283C11.0578 9.6549 10.723 8.99138 10.3641 8.33455L10.167 7.97387L9.77496 8.09743C7.15074 8.92456 4.16136 9.3826 0.512157 9.4798C0.530452 9.14019 0.566561 8.80537 0.619554 8.4764C3.92855 8.37961 6.64907 7.97851 9.02811 7.27956L9.65966 7.09401L9.3115 6.53537C8.26809 4.86121 7.06296 3.21098 5.696 1.52696C6.00266 1.37091 6.31889 1.23104 6.64356 1.10848C8.06959 2.87987 9.32124 4.62041 10.3985 6.39417L10.6175 6.75464L11.0097 6.59962C13.0859 5.77897 14.9355 4.6899 16.7597 3.32609C16.9947 3.56418 17.2172 3.81459 17.4262 4.07626C15.5969 5.45092 13.7294 6.56893 11.6381 7.4247L11.1251 7.63465L11.3867 8.12342C11.719 8.74429 12.0308 9.37165 12.3218 10.008L12.5058 10.4104L12.9275 10.2768C14.9846 9.62501 17.022 9.5186 19.4855 9.50227C19.4939 9.66682 19.4982 9.83255 19.4982 9.9994C19.4982 10.1684 19.4938 10.3364 19.4851 10.5031C17.1253 10.5204 15.2634 10.6159 13.411 11.1736L12.8952 11.3289L13.0884 11.8317C13.8516 13.8182 14.4258 15.9144 14.8076 18.1939C14.5063 18.3712 14.1943 18.5323 13.873 18.6759C13.5061 16.3577 12.9365 14.2276 12.1598 12.2032ZM14.8092 18.2034C14.8091 18.2026 14.809 18.2005 14.8104 18.1974C14.812 18.1939 14.8156 18.1892 14.821 18.186L14.8092 18.2034ZM17.4413 4.06487C17.4413 4.06486 17.4413 4.06488 17.4413 4.06487Z" fill="#858585"/>
<path d="M0.622212 8.46L0.614387 8.45871M0.622212 8.46L0.600328 7.97675L0.614387 8.45871M0.622212 8.46C0.621689 8.4632 0.620391 8.46698 0.618434 8.47037C0.617122 8.47264 0.615837 8.4742 0.614868 8.47519M0.614387 8.45871L0.614868 8.47519M0.614387 8.45871L0.128906 8.37963M0.614868 8.47519C0.614492 8.47557 0.614158 8.47588 0.613895 8.4761C0.613209 8.47668 0.612837 8.47685 0.612839 8.47686C0.612841 8.47686 0.613485 8.47658 0.614907 8.47654L0.614868 8.47519ZM17.4413 4.06487C17.4413 4.06488 17.4413 4.06486 17.4413 4.06487ZM17.4413 4.06487L17.4573 4.08622L17.7416 4.46396M12.1598 12.2032L11.9648 11.6949L11.4749 11.9324C9.43291 12.9224 7.19018 14.6119 4.19495 17.5214C3.92981 17.3166 3.67574 17.0979 3.43384 16.8666C6.53491 13.8467 8.90649 12.0489 11.1295 10.989L11.5751 10.7766L11.3684 10.3283C11.0578 9.6549 10.723 8.99138 10.3641 8.33455L10.167 7.97387L9.77496 8.09743C7.15074 8.92456 4.16136 9.3826 0.512157 9.4798C0.530452 9.14019 0.566561 8.80537 0.619554 8.4764C3.92855 8.37961 6.64907 7.97851 9.02811 7.27956L9.65966 7.09401L9.3115 6.53537C8.26809 4.86121 7.06296 3.21098 5.696 1.52696C6.00266 1.37091 6.31889 1.23104 6.64356 1.10848C8.06959 2.87987 9.32124 4.62041 10.3985 6.39417L10.6175 6.75464L11.0097 6.59962C13.0859 5.77897 14.9355 4.6899 16.7597 3.32609C16.9947 3.56418 17.2172 3.81459 17.4262 4.07626C15.5969 5.45092 13.7294 6.56893 11.6381 7.4247L11.1251 7.63465L11.3867 8.12342C11.719 8.74429 12.0308 9.37165 12.3218 10.008L12.5058 10.4104L12.9275 10.2768C14.9846 9.62501 17.022 9.5186 19.4855 9.50227C19.4939 9.66682 19.4982 9.83255 19.4982 9.9994C19.4982 10.1684 19.4938 10.3364 19.4851 10.5031C17.1253 10.5204 15.2634 10.6159 13.411 11.1736L12.8952 11.3289L13.0884 11.8317C13.8516 13.8182 14.4258 15.9144 14.8076 18.1939C14.5063 18.3712 14.1943 18.5323 13.873 18.6759C13.5061 16.3577 12.9365 14.2276 12.1598 12.2032ZM14.8092 18.2034C14.8091 18.2026 14.809 18.2005 14.8104 18.1974C14.812 18.1939 14.8156 18.1892 14.821 18.186L14.8092 18.2034Z" stroke="#858585"/>
</g>
<defs>
<clipPath id="clip0_403_4345">
<rect width="20" height="20" fill="white"/>
</clipPath>
</defs>
</svg>
