<svg width="20" height="20" viewBox="0 0 20 20" fill="none" xmlns="http://www.w3.org/2000/svg">
<g clip-path="url(#clip0_403_4348)">
<path d="M13.5833 19.25H11.25H3.25C2.86666 19.25 2.29526 18.9887 1.78351 18.4845C1.27334 17.9819 1 17.4126 1 17V3C1 2.58739 1.27334 2.01811 1.78351 1.51546C2.29526 1.01127 2.86666 0.75 3.25 0.75H17.25C17.6333 0.75 18.2047 1.01127 18.7165 1.51546C19.2267 2.01811 19.5 2.58739 19.5 3V17C19.5 17.4126 19.2267 17.9819 18.7165 18.4845C18.2047 18.9887 17.6333 19.25 17.25 19.25H13.5833Z" stroke="#858585" stroke-width="1.5"/>
<path d="M10 8.21429C10 7.62255 10.4477 7.14286 11 7.14286H12C12.5523 7.14286 13 6.66317 13 6.07143C13 5.47969 12.5523 5 12 5H11C9.3431 5 8 6.43908 8 8.21429V10.3571H7C6.44771 10.3571 6 10.8368 6 11.4286C6 12.0203 6.44771 12.5 7 12.5H8V18.9286C8 19.5203 8.4477 20 9 20C9.5523 20 10 19.5203 10 18.9286V12.5H12C12.5523 12.5 13 12.0203 13 11.4286C13 10.8368 12.5523 10.3571 12 10.3571H10V8.21429Z" fill="#858585"/>
</g>
<defs>
<clipPath id="clip0_403_4348">
<rect width="20" height="20" fill="white"/>
</clipPath>
</defs>
</svg>
