<svg width="20" height="20" viewBox="0 0 20 20" fill="none" xmlns="http://www.w3.org/2000/svg">
<path d="M10.0833 9.58268C8.9325 9.58268 8 8.65018 8 7.49935C8 6.34852 8.9325 5.41602 10.0833 5.41602C11.2342 5.41602 12.1667 6.34852 12.1667 7.49935C12.1667 8.65018 11.2342 9.58268 10.0833 9.58268Z" fill="#723C70"/>
<path d="M9.82752 1.67578C6.61417 1.67578 4 4.28995 4 7.50328C4 11.2391 8.97335 17.3091 9.18502 17.5649L9.82752 18.3441L10.47 17.5649C10.6817 17.3083 15.655 11.2391 15.655 7.50328C15.655 4.28911 13.0408 1.67578 9.82752 1.67578ZM9.82752 15.6899C8.26252 13.6374 5.66667 9.76077 5.66667 7.50328C5.66667 5.20911 7.53333 3.34245 9.82752 3.34245C12.1217 3.34245 13.9883 5.20911 13.9883 7.50328C13.9883 9.75744 11.3925 13.6358 9.82752 15.6899Z" fill="#723C70"/>
</svg>
