<svg width="20" height="20" viewBox="0 0 20 20" fill="none" xmlns="http://www.w3.org/2000/svg">
<g clip-path="url(#clip0_403_4339)">
<mask id="mask0_403_4339" style="mask-type:luminance" maskUnits="userSpaceOnUse" x="0" y="0" width="20" height="20">
<path d="M20 0H0V20H20V0Z" fill="white"/>
</mask>
<g mask="url(#mask0_403_4339)">
<path d="M18.6773 15.3218L17.0899 16.9092C17.0899 16.9092 12.9652 18.6769 7.0726 12.7844C1.18004 6.89183 2.94781 2.76704 2.94781 2.76704L4.53526 1.1796C5.25243 0.462416 6.43855 0.546712 7.0471 1.35811L8.56236 3.37841C9.05995 4.04195 8.99403 4.97044 8.40753 5.55693L7.0726 6.89183C7.0726 6.89183 7.0726 8.07035 9.42961 10.4274C11.7866 12.7844 12.9651 12.7844 12.9651 12.7844L14.3 11.4495C14.8865 10.863 15.815 10.797 16.4786 11.2947L18.4988 12.8099C19.3103 13.4184 19.3945 14.6045 18.6773 15.3218Z" stroke="#723C70" stroke-width="1.5"/>
</g>
</g>
<defs>
<clipPath id="clip0_403_4339">
<rect width="20" height="20" fill="white"/>
</clipPath>
</defs>
</svg>
