<svg width="20" height="20" viewBox="0 0 20 20" fill="none" xmlns="http://www.w3.org/2000/svg">
<g clip-path="url(#clip0_403_4390)">
<path d="M10 0C4.5 0 0 4.5 0 10C0 11.8 0.500781 13.5 1.30078 15L0 20L5.19922 18.8008C6.69922 19.6008 8.3 20 10 20C15.5 20 20 15.5 20 10C20 7.3 18.9996 4.80039 17.0996 2.90039C15.1996 1.00039 12.7 0 10 0ZM10 2C12.1 2 14.0992 2.80078 15.6992 4.30078C17.1992 5.90078 18 7.9 18 10C18 14.4 14.4 18 10 18C8.7 18 7.29922 17.7 6.19922 17L5.5 16.5996L4.80078 16.8008L2.80078 17.3008L3.30078 15.5L3.5 14.6992L3.09961 14C2.39961 12.8 2 11.4 2 10C2 5.6 5.6 2 10 2ZM6.5 5.40039C6.3 5.40039 6.00078 5.39922 5.80078 5.69922C5.50078 5.99922 4.90039 6.60078 4.90039 7.80078C4.90039 9.00078 5.80039 10.2004 5.90039 10.4004C6.10039 10.6004 7.69922 13.1992 10.1992 14.1992C12.2992 14.9992 12.6992 14.8008 13.1992 14.8008C13.6992 14.7008 14.7004 14.1996 14.9004 13.5996C15.1004 12.9996 15.0992 12.4992 15.1992 12.1992C15.0992 12.0992 14.9992 12.0004 14.6992 11.9004C14.4992 11.8004 13.3 11.1996 13 11.0996C12.7 10.9996 12.6004 10.8992 12.4004 11.1992C12.2004 11.4992 11.6996 11.9992 11.5996 12.1992C11.4996 12.3992 11.3996 12.4008 11.0996 12.3008C10.8996 12.2008 10.0996 11.9996 9.09961 11.0996C8.29961 10.4996 7.79922 9.70039 7.69922 9.40039C7.49922 9.20039 7.70078 9.00039 7.80078 8.90039L8.19922 8.5C8.29922 8.4 8.30039 8.19961 8.40039 8.09961C8.50039 7.99961 8.50039 7.89922 8.40039 7.69922C8.30039 7.49922 7.79961 6.30078 7.59961 5.80078C7.39961 5.40078 7.2 5.40039 7 5.40039H6.5Z" fill="#723C70"/>
</g>
<defs>
<clipPath id="clip0_403_4390">
<rect width="20" height="20" fill="white"/>
</clipPath>
</defs>
</svg>
