<svg width="30" height="26" viewBox="0 0 30 26" fill="none" xmlns="http://www.w3.org/2000/svg">
<path opacity="0.4" d="M4.93421 24.6711H24.671C27.9605 24.6711 29.6053 23.0263 29.6053 19.7368V4.93421C29.6053 1.64473 27.9605 0 24.671 0H4.93421C1.64473 0 0 1.64473 0 4.93421V19.7368C0 23.0263 1.64473 24.6711 4.93421 24.6711Z" fill="#749D73"/>
<path d="M14.8027 14.003C14.2106 14.003 13.6151 13.8188 13.1101 13.452L5.0314 7.57534C4.48041 7.17567 4.35863 6.40264 4.75995 5.85165C5.15962 5.30231 5.92747 5.17732 6.48339 5.58029L14.5625 11.4552C14.7072 11.5589 14.8996 11.5606 15.0444 11.4552L23.1235 5.58029C23.6778 5.17732 24.4473 5.30231 24.8469 5.85165C25.2483 6.40264 25.1265 7.17403 24.5755 7.57534L16.4968 13.4503C15.9902 13.8204 15.3948 14.003 14.8027 14.003Z" fill="#749D73"/>
</svg>
