<svg width="30" height="30" viewBox="0 0 30 30" fill="none" xmlns="http://www.w3.org/2000/svg">
<path d="M12.1195 16.5603C12.0295 16.5603 10.0495 16.5603 9.14953 16.5603C8.66953 16.5603 8.51953 16.3803 8.51953 15.9303C8.51953 14.7303 8.51953 13.5003 8.51953 12.3003C8.51953 11.8203 8.69953 11.6703 9.14953 11.6703H12.1195C12.1195 11.5803 12.1195 9.84027 12.1195 9.03027C12.1195 7.83027 12.3295 6.69027 12.9295 5.64027C13.5595 4.56027 14.4595 3.84027 15.5995 3.42027C16.3495 3.15027 17.0995 3.03027 17.9095 3.03027H20.8495C21.2695 3.03027 21.4495 3.21027 21.4495 3.63027V7.05027C21.4495 7.47027 21.2695 7.65027 20.8495 7.65027C20.0395 7.65027 19.2295 7.65027 18.4195 7.68027C17.6095 7.68027 17.1895 8.07027 17.1895 8.91027C17.1595 9.81027 17.1895 10.6803 17.1895 11.6103H20.6695C21.1495 11.6103 21.3295 11.7903 21.3295 12.2703V15.9003C21.3295 16.3803 21.1795 16.5303 20.6695 16.5303C19.5895 16.5303 17.2795 16.5303 17.1895 16.5303V26.3103C17.1895 26.8203 17.0395 27.0003 16.4995 27.0003C15.2395 27.0003 14.0095 27.0003 12.7495 27.0003C12.2995 27.0003 12.1195 26.8203 12.1195 26.3703C12.1195 23.2203 12.1195 16.6503 12.1195 16.5603Z" fill="#749D73"/>
</svg>
