<svg width="30" height="30" viewBox="0 0 30 30" fill="none" xmlns="http://www.w3.org/2000/svg">
<g clip-path="url(#clip0_37_2675)">
<mask id="mask0_37_2675" style="mask-type:luminance" maskUnits="userSpaceOnUse" x="0" y="0" width="30" height="30">
<path d="M30 0H0V30H30V0Z" fill="white"/>
</mask>
<g mask="url(#mask0_37_2675)">
<path d="M29.1833 22.017L24.9967 17.8304C23.5015 16.3352 20.9596 16.9333 20.3615 18.877C19.913 20.2228 18.4178 20.9704 17.0721 20.6713C14.0816 19.9237 10.0446 16.0361 9.29692 12.8962C8.84836 11.5504 9.74549 10.0552 11.0912 9.60673C13.035 9.00864 13.6331 6.46679 12.1379 4.97158L7.95124 0.784986C6.75507 -0.261662 4.96081 -0.261662 3.91417 0.784986L1.07327 3.62589C-1.76763 6.61631 1.37231 14.5409 8.3998 21.5684C15.4273 28.5959 23.352 31.8854 26.3424 28.8949L29.1833 26.054C30.23 24.8579 30.23 23.0636 29.1833 22.017Z" fill="#749D73"/>
</g>
</g>
<defs>
<clipPath id="clip0_37_2675">
<rect width="30" height="30" fill="white"/>
</clipPath>
</defs>
</svg>
