<svg width="30" height="30" viewBox="0 0 30 30" fill="none" xmlns="http://www.w3.org/2000/svg">
<path d="M15.4078 0C7.18556 0 2.81287 5.26899 2.81287 11.0142C2.81287 13.6787 4.30168 17.0014 6.68492 18.0552C7.04681 18.2183 7.24369 18.1489 7.32432 17.8133C7.39557 17.5583 7.70871 16.3301 7.86059 15.7507C7.90747 15.5651 7.88309 15.4038 7.73309 15.2294C6.9418 14.3144 6.31365 12.6474 6.31365 11.0836C6.31365 7.07657 9.49942 3.18577 14.9203 3.18577C19.608 3.18577 22.8875 6.2309 22.8875 10.5867C22.8875 15.5088 20.283 18.914 16.8985 18.914C15.0253 18.914 13.6302 17.4439 14.0727 15.6251C14.6071 13.4594 15.6553 11.1305 15.6553 9.56856C15.6553 8.16787 14.864 7.00906 13.2477 7.00906C11.3407 7.00906 9.79381 8.89728 9.79381 11.4324C9.79381 13.0431 10.3638 14.1306 10.3638 14.1306C10.3638 14.1306 8.4775 21.751 8.12686 23.1742C7.53433 25.5837 8.20748 29.4857 8.26561 29.8213C8.30124 30.007 8.50937 30.0651 8.62563 29.9132C8.81126 29.6695 11.0914 26.4162 11.7308 24.0648C11.9633 23.2079 12.9177 19.7334 12.9177 19.7334C13.5458 20.8678 15.3591 21.8185 17.2904 21.8185C23.0356 21.8185 27.1871 16.7689 27.1871 10.5023C27.1665 4.49458 22.025 0 15.4078 0Z" fill="#242424" fill-opacity="0.4"/>
</svg>
