<svg width="22" height="22" viewBox="0 0 22 22" fill="none" xmlns="http://www.w3.org/2000/svg">
<path d="M13.5625 7C13.2518 7 13 7.25184 13 7.5625C13 7.87316 13.2518 8.125 13.5625 8.125H15.8125C16.1232 8.125 16.375 7.87316 16.375 7.5625C16.375 7.25184 16.1232 7 15.8125 7H13.5625Z" fill="#B7094C"/>
<path d="M13.5 7.5625C13.5 7.52798 13.528 7.5 13.5625 7.5H15.8125C15.847 7.5 15.875 7.52798 15.875 7.5625C15.875 7.59702 15.847 7.625 15.8125 7.625H13.5625C13.528 7.625 13.5 7.59702 13.5 7.5625Z" stroke="#B7094C" stroke-opacity="0.5"/>
<path fill-rule="evenodd" clip-rule="evenodd" d="M11.875 12.0625C11.875 10.5092 13.1342 9.25 14.6875 9.25C16.2408 9.25 17.5 10.5092 17.5 12.0625V12.625C17.5 12.9357 17.2482 13.1875 16.9375 13.1875H13C13 14.1195 13.7555 14.875 14.6875 14.875C15.0798 14.875 15.4409 14.7411 15.7275 14.5166C15.8771 14.3992 16.054 14.3125 16.2442 14.3125C16.7262 14.3125 17.0346 14.8104 16.6974 15.1548C16.1869 15.6763 15.475 16 14.6875 16C13.1342 16 11.875 14.7408 11.875 13.1875V12.0625ZM14.6875 10.375C13.7555 10.375 13 11.1305 13 12.0625H16.375C16.375 11.1305 15.6195 10.375 14.6875 10.375Z" fill="#B7094C"/>
<path d="M13 12.6875H12.5V13.1875C12.5 14.3956 13.4794 15.375 14.6875 15.375C15.1956 15.375 15.6644 15.2012 16.0358 14.9102L16.0359 14.9101C16.1368 14.831 16.2071 14.8125 16.2442 14.8125C16.277 14.8125 16.3005 14.8203 16.3163 14.829C15.8979 15.2443 15.323 15.5 14.6875 15.5C13.4104 15.5 12.375 14.4646 12.375 13.1875V12.0625C12.375 10.7854 13.4104 9.75 14.6875 9.75C15.9646 9.75 17 10.7854 17 12.0625V12.625C17 12.6595 16.972 12.6875 16.9375 12.6875H13ZM12.5 12.0625V12.5625H13H16.375H16.875V12.0625C16.875 10.8544 15.8956 9.875 14.6875 9.875C13.4794 9.875 12.5 10.8544 12.5 12.0625Z" stroke="#B7094C" stroke-opacity="0.5"/>
<path fill-rule="evenodd" clip-rule="evenodd" d="M5.125 8.125V10.375H7.9375C8.55882 10.375 9.0625 9.87132 9.0625 9.25C9.0625 8.62868 8.55882 8.125 7.9375 8.125H5.125ZM9.51238 10.857C9.92903 10.4486 10.1875 9.87948 10.1875 9.25C10.1875 8.00736 9.18014 7 7.9375 7H4.9C4.40294 7 4 7.40295 4 7.9V15.0357C4 15.5683 4.43173 16 4.96429 16H7.9375C9.4908 16 10.75 14.7408 10.75 13.1875C10.75 12.2177 10.2592 11.3626 9.51238 10.857ZM5.125 11.5V14.875H7.9375C8.86948 14.875 9.625 14.1195 9.625 13.1875C9.625 12.2555 8.86948 11.5 7.9375 11.5H5.125Z" fill="#B7094C"/>
<rect x="1" y="1" width="20" height="20" rx="4" stroke="#B7094C" stroke-width="1.5"/>
</svg>
