<svg width="20" height="20" viewBox="0 0 20 20" fill="none" xmlns="http://www.w3.org/2000/svg">
<path d="M14.4827 8.25C14.7327 12 11.9827 15 8.48276 15C7.27681 15 6.07085 14.8384 5.12473 14.3853C4.90804 14.2815 4.99274 13.9925 5.23247 13.9766C6.39751 13.8993 7.36161 13.6212 7.98276 13C9.48285 11.5 9.7328 11 10.1151 9.01198C10.0294 8.77402 9.98275 8.51746 9.98275 8.25C9.98275 7.00736 10.9901 6 12.2327 6C12.9918 6 13.6631 6.37591 14.0706 6.95173L14.9292 6.82908C15.1431 6.79852 15.2925 7.03543 15.1726 7.21523L14.4827 8.25Z" fill="#B7094C"/>
<path d="M7.98278 13C5.27458 12.0972 4.80743 8.7497 5.29392 7.00354C5.35104 6.7985 5.61761 6.79744 5.72505 6.98117C6.55579 8.4018 8.13538 9.19496 10.1151 9.01193C13.2328 9.01193 12.4828 14.5 7.98278 13Z" fill="#B7094C"/>
<rect x="0.75" y="0.75" width="18.5" height="18.5" rx="3.25" stroke="#B7094C" stroke-width="1.5"/>
</svg>
