<svg width="15" height="15" viewBox="0 0 15 15" fill="none" xmlns="http://www.w3.org/2000/svg">
<path fill-rule="evenodd" clip-rule="evenodd" d="M14.963 8.25C14.9875 8.00332 15 7.75312 15 7.5C15 7.24688 14.9875 6.99668 14.963 6.75H0.037032C0.01254 6.99668 0 7.24688 0 7.5C0 7.75312 0.01254 8.00332 0.037032 8.25H14.963Z" fill="#B7094C"/>
<path fill-rule="evenodd" clip-rule="evenodd" d="M7.5 13.5C10.8137 13.5 13.5 10.8137 13.5 7.5C13.5 4.18628 10.8137 1.5 7.5 1.5C4.18628 1.5 1.5 4.18628 1.5 7.5C1.5 10.8137 4.18628 13.5 7.5 13.5ZM7.5 15C11.6421 15 15 11.6421 15 7.5C15 3.35788 11.6421 0 7.5 0C3.35788 0 0 3.35788 0 7.5C0 11.6421 3.35788 15 7.5 15Z" fill="#B7094C"/>
<path fill-rule="evenodd" clip-rule="evenodd" d="M8.81 12.1325C9.36404 11.0244 9.75 9.38868 9.75 7.5C9.75 5.61132 9.36404 3.97556 8.81 2.86752C8.21112 1.66974 7.66128 1.5 7.5 1.5C7.33872 1.5 6.78888 1.66974 6.19 2.86752C5.63596 3.97556 5.25 5.61132 5.25 7.5C5.25 9.38868 5.63596 11.0244 6.19 12.1325C6.78888 13.3302 7.33872 13.5 7.5 13.5C7.66128 13.5 8.21112 13.3302 8.81 12.1325ZM7.5 15C9.57108 15 11.25 11.6421 11.25 7.5C11.25 3.35788 9.57108 0 7.5 0C5.42892 0 3.75 3.35788 3.75 7.5C3.75 11.6421 5.42892 15 7.5 15Z" fill="#B7094C"/>
</svg>
