<svg width="20" height="20" viewBox="0 0 20 20" fill="none" xmlns="http://www.w3.org/2000/svg">
<path d="M1.80531 6.6625C1.90376 5.39963 2.89966 4.41164 4.16395 4.33335C5.51619 4.24962 7.44676 4.16675 9.79169 4.16675C12.1366 4.16675 14.0672 4.24962 15.4194 4.33335C16.6837 4.41164 17.6796 5.39963 17.7781 6.6625C17.8513 7.6025 17.9167 8.69095 17.9167 9.58342C17.9167 10.4759 17.8513 11.5644 17.7781 12.5044C17.6796 13.7672 16.6837 14.7552 15.4194 14.8335C14.0672 14.9172 12.1366 15.0001 9.79169 15.0001C7.44676 15.0001 5.51619 14.9172 4.16395 14.8335C2.89966 14.7552 1.90376 13.7672 1.80531 12.5044C1.73204 11.5644 1.66669 10.4759 1.66669 9.58342C1.66669 8.69095 1.73204 7.6025 1.80531 6.6625Z" stroke="#B7094C" stroke-width="1.5"/>
<path d="M9.4375 10.4234V8.74375L10.6973 9.58357L9.4375 10.4234Z" fill="#B7094C" stroke="#B7094C" stroke-width="2"/>
</svg>
