<svg width="30" height="31" viewBox="0 0 30 31" fill="none" xmlns="http://www.w3.org/2000/svg">
<g clip-path="url(#clip0_37_2563)">
<mask id="mask0_37_2563" style="mask-type:luminance" maskUnits="userSpaceOnUse" x="0" y="0" width="30" height="31">
<path d="M30 0.5H0V30.5H30V0.5Z" fill="white"/>
</mask>
<g mask="url(#mask0_37_2563)">
<path d="M27.9887 7.97057C26.6474 5.67254 24.8279 3.85304 22.5298 2.51173C20.2313 1.17048 17.7221 0.5 15.0004 0.5C12.279 0.5 9.76914 1.17048 7.47105 2.51173C5.17281 3.85284 3.35332 5.67234 2.01194 7.97057C0.670486 10.2689 0 12.7788 0 15.5C0 18.2214 0.670691 20.7309 2.01173 23.0294C3.35304 25.3274 5.17254 27.1469 7.47077 28.4883C9.76914 29.8295 12.2788 30.5001 15.0002 30.5001C17.7215 30.5001 20.2315 29.8295 22.5297 28.4883C24.8278 27.1474 26.6472 25.3274 27.9885 23.0294C29.3295 20.7311 29.9999 18.2212 29.9999 15.5C30 12.7786 29.3295 10.2686 27.9887 7.97057ZM15.0002 2.68754C18.2293 2.68754 21.0484 3.75522 23.4571 5.8905L23.213 6.23207C23.1154 6.36902 22.8712 6.6324 22.4807 7.02323C22.0902 7.41371 21.6637 7.78504 21.2015 8.13653C20.7389 8.48816 20.1111 8.88849 19.3165 9.33774C18.5222 9.78699 17.6759 10.1811 16.7773 10.5196C15.28 7.75891 13.6786 5.27193 11.9728 3.05853C13.0016 2.81116 14.0107 2.68754 15.0002 2.68754ZM4.96136 7.55032C6.21128 5.97512 7.73449 4.76399 9.53155 3.91776C11.1461 6.06617 12.7345 8.52729 14.2971 11.3006C10.3388 12.3423 6.39359 12.8632 2.46125 12.863C2.87814 10.8969 3.71144 9.12587 4.96136 7.55032ZM3.04698 20.1196C2.47398 18.6548 2.18754 17.1148 2.18754 15.5C2.18754 15.3177 2.19425 15.1809 2.20711 15.0898C6.92089 15.0898 11.3025 14.4846 15.352 13.2734C15.7688 14.0806 16.1138 14.8033 16.3873 15.4415C16.3345 15.4675 16.2505 15.4966 16.1332 15.5292C16.0156 15.5618 15.9312 15.5844 15.8787 15.5976L15.1562 15.8515C14.6612 16.0338 14.0132 16.3464 13.2128 16.7889C12.4121 17.232 11.5625 17.7591 10.664 18.3712C9.76551 18.9834 8.83774 19.7939 7.88082 20.8034C6.92377 21.8124 6.11975 22.8961 5.46869 24.0549C4.42701 22.8961 3.61984 21.5839 3.04698 20.1196ZM15.0002 28.3127C11.9533 28.3127 9.23192 27.336 6.836 25.3831L7.129 25.598C7.58467 24.5951 8.25516 23.6315 9.14079 22.7072C10.0263 21.7829 10.8791 21.0371 11.6994 20.4706C12.5197 19.9045 13.4116 19.3707 14.3752 18.8688C15.3387 18.3678 15.9959 18.0485 16.3478 17.9122C16.6995 17.7756 16.9795 17.6679 17.1878 17.5896L17.2266 17.57H17.266C18.5416 20.9163 19.4535 24.1587 20.0002 27.2968C18.3856 27.9742 16.7192 28.3125 15.0002 28.3127ZM25.7821 22.4239C24.8184 23.915 23.6137 25.149 22.1688 26.1252C21.6346 23.1305 20.8017 20.0767 19.6685 16.965C22.2597 16.5609 24.9224 16.75 27.6568 17.531C27.3703 19.3018 26.7452 20.9331 25.7821 22.4239ZM27.6175 15.3243C27.4873 15.2984 27.3244 15.2689 27.1291 15.2365C26.9339 15.2042 26.696 15.1649 26.416 15.1193C26.1364 15.0738 25.8234 15.0316 25.4787 14.9924C25.1335 14.9534 24.7658 14.9177 24.3748 14.8851C23.9843 14.8524 23.5676 14.8266 23.1251 14.8069C22.6819 14.7875 22.2329 14.7776 21.7771 14.7776C21.3217 14.7776 20.8428 14.7908 20.3418 14.8167C19.8406 14.8423 19.3557 14.8884 18.887 14.9534C18.8477 14.8882 18.799 14.7808 18.7404 14.631C18.6819 14.4813 18.6392 14.3672 18.614 14.2891C18.3663 13.7422 18.0797 13.1237 17.7539 12.4338C18.6524 12.0689 19.5087 11.6492 20.323 11.1738C21.1365 10.6984 21.7871 10.2755 22.2757 9.90445C22.7641 9.53298 23.2263 9.13908 23.6624 8.72253C24.0988 8.30591 24.3816 8.01633 24.5122 7.85352C24.6426 7.69043 24.7662 7.53103 24.8833 7.37499L24.9029 7.35529C26.8039 9.67302 27.7744 12.3422 27.8129 15.3633L27.6175 15.3243Z" fill="white"/>
</g>
</g>
<defs>
<clipPath id="clip0_37_2563">
<rect width="30" height="30" fill="white" transform="translate(0 0.5)"/>
</clipPath>
</defs>
</svg>
