<svg width="30" height="31" viewBox="0 0 30 31" fill="none" xmlns="http://www.w3.org/2000/svg">
<g clip-path="url(#clip0_37_2576)">
<mask id="mask0_37_2576" style="mask-type:luminance" maskUnits="userSpaceOnUse" x="0" y="0" width="30" height="31">
<path d="M30 0.5H0V30.5H30V0.5Z" fill="white"/>
</mask>
<g mask="url(#mask0_37_2576)">
<path d="M22.4994 0.5H7.49981C3.37528 0.5 0 3.87528 0 7.99982V23.0002C0 27.1236 3.37528 30.5 7.49981 30.5H22.4994C26.6239 30.5 29.9992 27.1236 29.9992 23.0002V7.99982C29.9992 3.87528 26.6239 0.5 22.4994 0.5ZM27.4992 23.0002C27.4992 25.7564 25.2571 27.9999 22.4994 27.9999H7.49981C4.74326 27.9999 2.50006 25.7564 2.50006 23.0002V7.99982C2.50006 5.2429 4.74326 3.00006 7.49981 3.00006H22.4994C25.2571 3.00006 27.4992 5.2429 27.4992 7.99982V23.0002Z" fill="white"/>
<path d="M23.125 9.24991C24.1605 9.24991 24.9999 8.41046 24.9999 7.37495C24.9999 6.33945 24.1605 5.5 23.125 5.5C22.0894 5.5 21.25 6.33945 21.25 7.37495C21.25 8.41046 22.0894 9.24991 23.125 9.24991Z" fill="white"/>
<path d="M14.9998 8C10.8569 8 7.5 11.3573 7.5 15.4998C7.5 19.6408 10.8569 23.0004 14.9998 23.0004C19.1415 23.0004 22.4996 19.6408 22.4996 15.4998C22.4996 11.3573 19.1415 8 14.9998 8ZM14.9998 20.5003C12.2387 20.5003 10 18.2616 10 15.4998C10 12.738 12.2387 10.5001 14.9998 10.5001C17.7609 10.5001 19.9996 12.738 19.9996 15.4998C19.9996 18.2616 17.7609 20.5003 14.9998 20.5003Z" fill="white"/>
</g>
</g>
<defs>
<clipPath id="clip0_37_2576">
<rect width="30" height="30" fill="white" transform="translate(0 0.5)"/>
</clipPath>
</defs>
</svg>
