<svg width="30" height="31" viewBox="0 0 30 31" fill="none" xmlns="http://www.w3.org/2000/svg">
<path d="M28.4693 8.46999C28.1452 7.2651 27.1952 6.3153 25.9905 5.99086C23.7897 5.38867 14.986 5.38867 14.986 5.38867C14.986 5.38867 6.18268 5.38867 3.98181 5.96803C2.80026 6.29213 1.82711 7.26527 1.50302 8.46999C0.923828 10.6707 0.923828 15.2347 0.923828 15.2347C0.923828 15.2347 0.923828 19.8216 1.50302 21.9993C1.82746 23.204 2.77709 24.1538 3.98198 24.4783C6.20585 25.0806 14.9864 25.0806 14.9864 25.0806C14.9864 25.0806 23.7897 25.0806 25.9905 24.5013C27.1954 24.177 28.1452 23.2272 28.4697 22.0225C29.0487 19.8216 29.0487 15.2578 29.0487 15.2578C29.0487 15.2578 29.0719 10.6707 28.4693 8.46999ZM12.1831 19.451V11.0183L19.5038 15.2347L12.1831 19.451Z" fill="white"/>
</svg>
