<svg width="20" height="20" viewBox="0 0 20 20" fill="none" xmlns="http://www.w3.org/2000/svg">
<rect width="20" height="20" rx="4" fill="#76C893"/>
<path fill-rule="evenodd" clip-rule="evenodd" d="M5 0C2.23858 0 0 2.23858 0 5V15C0 17.7614 2.23858 20 5 20H15C17.7614 20 20 17.7614 20 15V5C20 2.23858 17.7614 0 15 0H5ZM10 13C11.6569 13 13 11.6569 13 10C13 8.3431 11.6569 7 10 7C8.3431 7 7 8.3431 7 10C7 11.6569 8.3431 13 10 13Z" fill="#76C893"/>
<path d="M16 5C16.5523 5 17 4.55228 17 4C17 3.44772 16.5523 3 16 3C15.4477 3 15 3.44772 15 4C15 4.55228 15.4477 5 16 5Z" fill="white"/>
<path fill-rule="evenodd" clip-rule="evenodd" d="M15 10C15 12.7614 12.7614 15 10 15C7.23858 15 5 12.7614 5 10C5 7.23858 7.23858 5 10 5C12.7614 5 15 7.23858 15 10ZM13 10C13 11.6569 11.6569 13 10 13C8.3431 13 7 11.6569 7 10C7 8.3431 8.3431 7 10 7C11.6569 7 13 8.3431 13 10Z" fill="white"/>
</svg>
