<svg width="30" height="30" viewBox="0 0 30 30" fill="none" xmlns="http://www.w3.org/2000/svg">
<g clip-path="url(#clip0_212_9188)">
<path d="M25.6066 4.39343C22.7735 1.56024 19.0067 0 15 0C10.9934 0 7.2265 1.56024 4.39343 4.39337C1.56024 7.2265 0 10.9934 0 15C0 19.0067 1.56024 22.7735 4.39343 25.6066C7.2265 28.4398 10.9934 30 15 30C19.0067 30 22.7735 28.4398 25.6067 25.6066C28.4398 22.7735 30.0001 19.0066 30.0001 15C30.0001 10.9933 28.4398 7.2265 25.6066 4.39343ZM5.63767 5.63767C6.95667 4.31866 8.50513 3.3126 10.1929 2.65594C9.74334 3.21715 9.32269 3.86221 8.93721 4.58772C8.48949 5.4303 8.10318 6.35568 7.78144 7.3441C6.66687 7.15912 5.63415 6.93165 4.71153 6.6647C5.00069 6.30927 5.30919 5.96614 5.63767 5.63767ZM3.64624 8.17883C4.72536 8.52435 5.95946 8.81574 7.30607 9.04654C6.93107 10.6383 6.71035 12.3512 6.65767 14.1202H1.78922C1.9275 11.9972 2.56512 9.97104 3.64624 8.17883ZM3.55044 21.6585C2.52768 19.9066 1.92334 17.9389 1.78916 15.8798H6.66101C6.71855 17.5983 6.93488 19.2625 7.29722 20.8126C5.92296 21.0354 4.65786 21.3194 3.55044 21.6585ZM5.63767 24.3624C5.26384 23.9885 4.91567 23.5959 4.59288 23.1873C5.54931 22.9221 6.61853 22.6975 7.76949 22.5174C8.09351 23.5195 8.48398 24.4571 8.93715 25.3101C9.35726 26.1007 9.81916 26.7954 10.3147 27.3905C8.57972 26.7352 6.98837 25.713 5.63767 24.3624ZM14.1202 28.0146C12.7838 27.6402 11.5196 26.4199 10.4911 24.4844C10.1314 23.8075 9.81547 23.069 9.54482 22.282C10.9938 22.1225 12.5357 22.0282 14.1202 22.0061V28.0146ZM14.1202 20.2463C12.3631 20.2703 10.6504 20.3806 9.04654 20.569C8.69275 19.1065 8.47988 17.5234 8.42146 15.8799H14.1202V20.2463H14.1202ZM14.1202 14.1202H8.41812C8.4715 12.4307 8.68777 10.8035 9.05258 9.30371C10.6462 9.50293 12.3553 9.6241 14.1202 9.65879V14.1202ZM14.1202 7.89892C12.5296 7.86687 10.9911 7.76316 9.55232 7.59394C9.82133 6.81511 10.1348 6.08409 10.4911 5.41337C11.5195 3.4779 12.7838 2.2575 14.1202 1.88315V7.89892ZM26.4093 8.27228C27.4566 10.0414 28.0749 12.0339 28.211 14.1202H23.3425C23.2904 12.3715 23.0739 10.6779 22.7068 9.1018C24.0622 8.88289 25.3116 8.60439 26.4093 8.27228ZM24.3623 5.63767C24.7156 5.99093 25.0456 6.36124 25.3534 6.74568C24.4116 7.00285 23.3628 7.22111 22.236 7.39677C21.9109 6.38849 21.5186 5.4453 21.0629 4.58772C20.6774 3.86221 20.2568 3.21715 19.8072 2.65594C21.4949 3.3126 23.0434 4.31866 24.3623 5.63767ZM15.8799 15.8799H21.5787C21.5198 17.5362 21.3041 19.1312 20.9453 20.6032C19.3519 20.4051 17.6435 20.2851 15.8799 20.2513V15.8799ZM15.8799 14.1202V9.66465C17.638 9.64156 19.352 9.53217 20.9574 9.34449C21.3163 10.833 21.529 12.446 21.5819 14.1202H15.8799ZM15.8798 1.88315H15.8798C17.2162 2.2575 18.4804 3.4779 19.5089 5.41337C19.8709 6.09464 20.1886 6.83826 20.4605 7.63103C19.0095 7.78994 17.4658 7.88351 15.8798 7.9049V1.88315ZM15.8799 28.0146V22.0112C17.4689 22.0424 19.0063 22.1451 20.4445 22.3133C20.1762 23.0886 19.8638 23.8165 19.5089 24.4844C18.4805 26.4199 17.2163 27.6402 15.8799 28.0146ZM24.3623 24.3624C23.0117 25.713 21.4203 26.7352 19.6853 27.3904C20.1808 26.7953 20.6427 26.1007 21.0629 25.3101C21.5093 24.4698 21.8948 23.5471 22.216 22.5617C23.3565 22.7499 24.4117 22.9827 25.3516 23.2566C25.0444 23.6401 24.715 24.0097 24.3623 24.3624ZM26.4027 21.7389C25.3108 21.3878 24.059 21.0924 22.6922 20.8594C23.0611 19.2961 23.281 17.6156 23.3392 15.8799H28.211C28.0746 17.9704 27.4541 19.967 26.4027 21.7389Z" fill="#242424" fill-opacity="0.4"/>
</g>
<defs>
<clipPath id="clip0_212_9188">
<rect width="30" height="30" fill="white"/>
</clipPath>
</defs>
</svg>
