<svg xmlns="http://www.w3.org/2000/svg" x="0px" y="0px"
width="50" height="50"
viewBox="0 0 172 172"
style=" fill:#fff;"><g fill="none" fill-rule="nonzero" stroke="none" stroke-width="1" stroke-linecap="butt" stroke-linejoin="miter" stroke-miterlimit="10" stroke-dasharray="" stroke-dashoffset="0" font-family="none" font-weight="none" font-size="none" text-anchor="none" style="mix-blend-mode: normal"><path d="M0,172v-172h172v172z" fill="none"></path><g fill="#fff"><path d="M102.6625,45.0425c-2.67406,0.25531 -4.95844,2.05594 -5.83187,4.59563c-0.88688,2.55312 -0.20156,5.375 1.74687,7.22937l22.2525,22.2525h-86.43c-0.215,-0.01344 -0.43,-0.01344 -0.645,0c-3.80281,0.17469 -6.73219,3.39969 -6.5575,7.2025c0.17469,3.80281 3.39969,6.73219 7.2025,6.5575h86.43l-22.36,22.2525c-2.70094,2.70094 -2.70094,7.08156 0,9.7825c2.70094,2.70094 7.08156,2.70094 9.7825,0l33.97,-34.0775l4.945,-4.8375l-4.945,-4.8375l-33.97,-34.0775c-1.45125,-1.49156 -3.50719,-2.24406 -5.59,-2.0425z"></path></g></g></svg>