<svg width="491" height="491" viewBox="0 0 491 491" fill="none" xmlns="http://www.w3.org/2000/svg">
<path d="M244.5 1H0V245.5H244.5V1Z" fill="#00E99F"/>
<path d="M245 245.5H367.25C434.765 245.5 489.5 190.765 489.5 123.25C489.5 55.7354 434.765 1 367.25 1H245V245.5Z" fill="#00E99F"/>
<path d="M490.25 245V489.5C422.735 489.5 368 434.765 368 367.25V245H490.25Z" fill="#00E99F"/>
<path d="M244 246V490.5C311.515 490.5 366.25 435.765 366.25 368.25V246H244Z" fill="#00E99F"/>
<path d="M0 244.5C67.5146 244.5 122.25 189.765 122.25 122.25C122.25 54.7354 67.5146 0 0 0V244.5Z" fill="white"/>
<path d="M245.25 245.5C177.735 245.5 123 190.765 123 123.25C123 55.7354 177.735 1 245.25 1V245.5Z" fill="white"/>
</svg>
