<svg width="20" height="20" viewBox="0 0 20 20" fill="none" xmlns="http://www.w3.org/2000/svg">
<path d="M1.80531 6.66226C1.90376 5.39938 2.89966 4.4114 4.16395 4.33311C5.51619 4.24937 7.44676 4.1665 9.79169 4.1665C12.1366 4.1665 14.0672 4.24937 15.4194 4.33311C16.6837 4.4114 17.6796 5.39938 17.7781 6.66226C17.8513 7.60226 17.9167 8.69071 17.9167 9.58317C17.9167 10.4756 17.8513 11.5641 17.7781 12.5041C17.6796 13.7669 16.6837 14.7549 15.4194 14.8332C14.0672 14.917 12.1366 14.9998 9.79169 14.9998C7.44676 14.9998 5.51619 14.917 4.16395 14.8332C2.89966 14.7549 1.90376 13.7669 1.80531 12.5041C1.73204 11.5641 1.66669 10.4756 1.66669 9.58317C1.66669 8.69071 1.73204 7.60226 1.80531 6.66226Z" stroke="black" stroke-width="1.5"/>
<path d="M9.4375 10.4232V8.7435L10.6973 9.58333L9.4375 10.4232Z" fill="black" stroke="black" stroke-width="2"/>
</svg>
