<svg width="20" height="20" viewBox="0 0 20 20" fill="none" xmlns="http://www.w3.org/2000/svg">
<path d="M16 0H4C1.79086 0 0 1.79086 0 4V16C0 18.2091 1.79086 20 4 20H16C18.2091 20 20 18.2091 20 16V4C20 1.79086 18.2091 0 16 0Z" fill="#7678ED"/>
<path d="M10 15C12.7614 15 15 12.7614 15 10C15 7.23858 12.7614 5 10 5C7.23858 5 5 7.23858 5 10C5 12.7614 7.23858 15 10 15Z" fill="white"/>
<path d="M8.34365 14.8258C8.22302 14.7808 8.16025 14.649 8.19467 14.5242L9.62399 9.34134C9.69955 9.06727 9.98136 8.90685 10.2534 8.98297C10.5255 9.05909 10.6847 9.34294 10.6092 9.61695L10.0712 11.5679C10.7108 11.7044 11.1593 11.5877 11.4597 11.3877C11.8395 11.1348 12.0835 10.682 12.1446 10.1444C12.2058 9.60619 12.075 9.04153 11.7761 8.62327C11.4881 8.22033 11.0333 7.93424 10.3722 7.93424C9.39014 7.93424 8.80556 8.36231 8.52038 8.88892C8.22354 9.43707 8.21399 10.1595 8.52883 10.7938C8.6551 11.0482 8.55273 11.3575 8.30018 11.4847C8.04763 11.6119 7.74053 11.5088 7.61426 11.2544C7.16222 10.3437 7.15267 9.26373 7.62272 8.39573C8.10444 7.50617 9.05366 6.9043 10.3722 6.9043C11.3727 6.9043 12.1321 7.35848 12.606 8.02158C13.0689 8.6694 13.2475 9.49655 13.1605 10.2615C13.0735 11.027 12.7118 11.7886 12.0235 12.2469C11.4361 12.638 10.6796 12.7631 9.7972 12.5614L9.17592 14.8142C9.14008 14.9441 9.01072 15.0249 8.88084 14.9924C8.69769 14.9466 8.51842 14.8909 8.34365 14.8258Z" fill="#7678ED"/>
</svg>
