<svg width="27" height="27" viewBox="0 0 27 27" fill="none" xmlns="http://www.w3.org/2000/svg">
<path d="M25.7076 23.371L23.1825 25.8961C23.1825 25.8961 16.6212 28.7081 7.24793 19.3348C-2.12534 9.96157 0.686638 3.40028 0.686638 3.40028L3.21178 0.875134C4.3526 -0.265686 6.23935 -0.131596 7.20737 1.15909L9.61764 4.37279C10.4092 5.42827 10.3043 6.90522 9.37136 7.83814L7.24793 9.96157C7.24793 9.96157 7.24793 11.8362 10.9972 15.5855C14.7466 19.3348 16.6212 19.3348 16.6212 19.3348L18.7446 17.2114C19.6776 16.2785 21.1545 16.1735 22.21 16.9651L25.4237 19.3754C26.7144 20.3434 26.8485 22.2302 25.7076 23.371Z" fill="url(#paint0_linear)"/>
<defs>
<linearGradient id="paint0_linear" x1="0.543393" y1="3.54352" x2="23.0393" y2="26.0394" gradientUnits="userSpaceOnUse">
<stop stop-color="#D9ED92"/>
<stop offset="1" stop-color="#B5E48C"/>
</linearGradient>
</defs>
</svg>
