<svg width="20" height="20" viewBox="0 0 20 20" fill="none" xmlns="http://www.w3.org/2000/svg">
<path d="M16.1905 0H3.80952C1.70558 0 0 1.70558 0 3.80952V16.1905C0 18.2944 1.70558 20 3.80952 20H16.1905C18.2944 20 20 18.2944 20 16.1905V3.80952C20 1.70558 18.2944 0 16.1905 0Z" fill="#F7762E"/>
<path d="M9.71429 15.4286C12.8702 15.4286 15.4286 12.8702 15.4286 9.71429C15.4286 6.55837 12.8702 4 9.71429 4C6.55837 4 4 6.55837 4 9.71429C4 12.8702 6.55837 15.4286 9.71429 15.4286Z" fill="white"/>
<path d="M12.0212 14.9404C11.8544 15.0144 11.6685 14.9031 11.6401 14.723C11.4334 13.4147 11.1126 12.2149 10.6756 11.0758C9.54812 11.6224 8.2914 12.5644 6.58741 14.22C6.48838 14.3162 6.33433 14.3294 6.22491 14.2452C6.05823 14.117 5.89882 13.9796 5.74742 13.8341C5.63542 13.7264 5.63924 13.548 5.75052 13.4397C7.53456 11.7016 8.91763 10.6478 10.2306 10.0218C10.056 9.64307 9.8676 9.26967 9.66542 8.89981C8.13224 9.38302 6.39347 9.64764 4.28391 9.70312C4.12418 9.70728 3.99223 9.57824 4.00036 9.41866C4.01122 9.20536 4.03379 8.99506 4.06743 8.78855C4.08889 8.65684 4.20352 8.56224 4.33692 8.55836C6.21057 8.50372 7.74083 8.27699 9.07226 7.88583C8.4824 6.93941 7.79948 6.00421 7.02203 5.04681C6.91126 4.91041 6.94673 4.7065 7.10308 4.62633C7.29544 4.52768 7.49413 4.4396 7.69837 4.3629C7.80988 4.32102 7.93486 4.35772 8.00957 4.45049C8.83181 5.47158 9.55581 6.4778 10.1801 7.5057C11.3395 7.04746 12.3748 6.43842 13.4013 5.67084C13.5129 5.58738 13.669 5.59391 13.767 5.69292C13.9149 5.8421 14.0544 5.99937 14.1851 6.16402C14.2808 6.28452 14.255 6.45881 14.1321 6.5513C13.0682 7.35167 11.9774 8.00607 10.7525 8.50732C10.9451 8.86718 11.1259 9.23102 11.2947 9.60027C12.5159 9.21336 13.719 9.15352 15.1337 9.14432C15.2808 9.14335 15.4052 9.25492 15.4131 9.40183C15.4186 9.5052 15.4214 9.60931 15.4214 9.71414C15.4214 9.8199 15.4186 9.92494 15.4128 10.0293C15.405 10.1756 15.2817 10.2865 15.1352 10.2877C13.787 10.2974 12.7573 10.3524 11.7396 10.6588C12.1834 11.8139 12.5168 13.0322 12.738 14.3551C12.7568 14.4674 12.7064 14.5803 12.6083 14.6382C12.4194 14.7498 12.2233 14.8509 12.0212 14.9404Z" fill="#F7762E"/>
</svg>
