<svg width="20" height="20" viewBox="0 0 20 20" fill="none" xmlns="http://www.w3.org/2000/svg">
<path d="M0 3C0 1.34315 1.34315 0 3 0H17C18.6569 0 20 1.34315 20 3V17C20 18.6569 18.6569 20 17 20H3C1.34315 20 0 18.6569 0 17V3Z" fill="#F7762E"/>
<path d="M14.9737 14.048L13.8835 15.1383C13.8835 15.1383 11.0506 16.3524 7.00362 12.3054C2.95664 8.25843 4.17073 5.42554 4.17073 5.42554L5.26099 4.33529C5.75354 3.84273 6.56816 3.90063 6.98611 4.45789L8.02679 5.84543C8.36853 6.30114 8.32326 6.93882 7.92045 7.34163L7.00362 8.25843C7.00362 8.25843 7.00362 9.06783 8.62241 10.6866C10.2412 12.3054 11.0506 12.3053 11.0506 12.3053L11.9674 11.3886C12.3702 10.9858 13.0079 10.9405 13.4636 11.2823L14.8511 12.3229C15.4084 12.7408 15.4663 13.5554 14.9737 14.048Z" fill="white"/>
<path d="M5.26096 4.33529L4.9801 4.61614L7.40829 7.85373L7.92043 7.34162C8.32318 6.93883 8.3685 6.30114 8.02671 5.84543L6.98608 4.45789C6.56813 3.90062 5.75352 3.84273 5.26096 4.33529Z" fill="white"/>
<path d="M14.9738 14.0474L14.693 14.3283L11.4554 11.9001L11.9676 11.388C12.3703 10.9852 13.008 10.9399 13.4638 11.2816L14.8513 12.3223C15.4085 12.7403 15.4664 13.5549 14.9738 14.0474Z" fill="white"/>
</svg>
