<svg width="20" height="20" viewBox="0 0 20 20" fill="none" xmlns="http://www.w3.org/2000/svg">
<rect width="20" height="20" rx="4" fill="#F7762E"/>
<path d="M13.125 5C12.7798 5 12.5 5.27983 12.5 5.625C12.5 5.97018 12.7798 6.25 13.125 6.25H15.625C15.9702 6.25 16.25 5.97018 16.25 5.625C16.25 5.27983 15.9702 5 15.625 5H13.125Z" fill="white" fill-opacity="0.25"/>
<path fill-rule="evenodd" clip-rule="evenodd" d="M11.25 10.625C11.25 8.89912 12.6491 7.5 14.375 7.5C16.1009 7.5 17.5 8.89912 17.5 10.625V11.25C17.5 11.5952 17.2202 11.875 16.875 11.875H12.5C12.5 12.9106 13.3394 13.75 14.375 13.75C14.8109 13.75 15.2121 13.6013 15.5305 13.3518C15.6968 13.2214 15.8933 13.125 16.1047 13.125C16.6402 13.125 16.9829 13.6782 16.6083 14.0609C16.041 14.6404 15.25 15 14.375 15C12.6491 15 11.25 13.6009 11.25 11.875V10.625ZM14.375 8.75C13.3394 8.75 12.5 9.58944 12.5 10.625H16.25C16.25 9.58944 15.4106 8.75 14.375 8.75Z" fill="white" fill-opacity="0.25"/>
<path fill-rule="evenodd" clip-rule="evenodd" d="M3.75 6.25V8.75H6.875C7.56536 8.75 8.125 8.19036 8.125 7.5C8.125 6.80964 7.56536 6.25 6.875 6.25H3.75ZM8.62486 9.2855C9.08781 8.83175 9.375 8.19942 9.375 7.5C9.375 6.11929 8.25571 5 6.875 5H3.5C2.94771 5 2.5 5.44772 2.5 6V13.9286C2.5 14.5203 2.9797 15 3.57143 15H6.875C8.60089 15 10 13.6009 10 11.875C10 10.7974 9.45463 9.84731 8.62486 9.2855ZM3.75 10V13.75H6.875C7.91053 13.75 8.75 12.9106 8.75 11.875C8.75 10.8394 7.91053 10 6.875 10H3.75Z" fill="white"/>
</svg>
