<svg width="20" height="20" viewBox="0 0 20 20" fill="none" xmlns="http://www.w3.org/2000/svg">
<path d="M18.6758 15.3213L17.0884 16.9087C17.0884 16.9087 12.9637 18.6764 7.07108 12.7839C1.17852 6.89134 2.94628 2.76655 2.94628 2.76655L4.53374 1.17911C5.25091 0.461927 6.43703 0.546224 7.04558 1.35762L8.56084 3.37792C9.05843 4.04146 8.99251 4.96995 8.40601 5.55644L7.07108 6.89134C7.07108 6.89134 7.07108 8.06986 9.42809 10.4269C11.7851 12.7839 12.9636 12.7839 12.9636 12.7839L14.2985 11.449C14.885 10.8625 15.8135 10.7965 16.4771 11.2942L18.4973 12.8094C19.3088 13.4179 19.393 14.604 18.6758 15.3213Z" fill="#F7762E"/>
<path d="M4.53369 1.17911L4.12476 1.58805L7.66029 6.30209L8.40597 5.55644C8.99239 4.96995 9.05839 4.04146 8.56072 3.37793L7.04553 1.35762C6.43698 0.546222 5.25087 0.461928 4.53369 1.17911Z" fill="#F7762E"/>
<path d="M18.676 15.3204L18.2671 15.7294L13.5531 12.1938L14.2988 11.4481C14.8852 10.8616 15.8137 10.7957 16.4773 11.2933L18.4975 12.8085C19.3089 13.4171 19.3933 14.6032 18.676 15.3204Z" fill="#F7762E"/>
</svg>
