<svg width="20" height="20" viewBox="0 0 20 20" fill="none" xmlns="http://www.w3.org/2000/svg">
<path d="M10 20C15.5228 20 20 15.5228 20 10C20 4.47715 15.5228 0 10 0C4.47715 0 0 4.47715 0 10C0 15.5228 4.47715 20 10 20Z" fill="#F7762E"/>
<path d="M14.0495 19.1458C13.7577 19.2752 13.4323 19.0805 13.3825 18.7652C13.0209 16.4758 12.4595 14.3762 11.6947 12.3827C9.7217 13.3393 7.5224 14.9878 4.54041 17.885C4.36712 18.0534 4.09752 18.0765 3.90604 17.9291C3.61434 17.7046 3.33538 17.4643 3.07043 17.2096C2.87444 17.0212 2.88113 16.7091 3.07586 16.5194C6.19793 13.4778 8.61831 11.6336 10.916 10.5381C10.6104 9.87536 10.2807 9.22196 9.927 8.57466C7.24389 9.42036 4.20102 9.88336 0.509295 9.98046C0.229775 9.98776 -0.00114529 9.76196 0.0130747 9.48266C0.0320947 9.10936 0.0715846 8.74136 0.130455 8.37996C0.168005 8.14946 0.368615 7.98392 0.602065 7.97711C3.88095 7.8815 6.5589 7.48474 8.8889 6.80019C7.85666 5.14395 6.66154 3.50735 5.301 1.83192C5.10715 1.59321 5.16922 1.23638 5.44284 1.09606C5.77947 0.923418 6.12718 0.769298 6.4846 0.635068C6.67974 0.561778 6.89845 0.625998 7.02919 0.788358C8.46811 2.57526 9.7351 4.33614 10.8276 6.13498C12.8565 5.33305 14.6684 4.26722 16.4647 2.92398C16.66 2.77792 16.9332 2.78934 17.1048 2.96261C17.3634 3.22367 17.6077 3.49889 17.8364 3.78703C18.0038 3.9979 17.9587 4.30291 17.7436 4.46478C15.8819 5.86541 13.9729 7.0106 11.8292 7.88781C12.1663 8.51756 12.4827 9.15426 12.7782 9.80046C14.9153 9.12336 17.0207 9.01866 19.4963 9.00256C19.7539 9.00086 19.9714 9.19606 19.9853 9.45326C19.995 9.63416 19.9999 9.81636 19.9999 9.99976C19.9999 10.1848 19.9949 10.3687 19.985 10.5512C19.9711 10.8072 19.7554 11.0015 19.4991 11.0034C17.1397 11.0205 15.3377 11.1166 13.5568 11.6528C14.3335 13.6744 14.9169 15.8063 15.3041 18.1215C15.3369 18.318 15.2486 18.5156 15.077 18.6169C14.7463 18.8122 14.4033 18.989 14.0495 19.1458Z" fill="white" fill-opacity="0.25"/>
</svg>
