<svg width="20" height="20" viewBox="0 0 20 20" fill="none" xmlns="http://www.w3.org/2000/svg">
<path d="M20 10C20 15.5228 15.5228 20 10 20C8.5778 20 7.22492 19.7031 6 19.1679L3.20344 19.7497C2.58261 19.8788 1.99989 19.4049 1.99977 18.7708L1.99927 16C0.74389 14.3287 0 12.2512 0 10C0 4.47715 4.47715 0 10 0C15.5228 0 20 4.47715 20 10Z" fill="#F7762E"/>
<path d="M7.6187 7.43645L5.07137 11.4563C4.96151 11.6296 4.98018 11.8651 5.11563 12.0148C5.2487 12.1618 5.45719 12.1845 5.61377 12.0692L7.62529 10.5879C7.92815 10.3649 8.32117 10.3585 8.62984 10.5716L11.0818 12.2644C11.4996 12.5529 12.0487 12.4294 12.3313 11.9836L14.8786 7.96373C14.9885 7.79033 14.9698 7.55488 14.8344 7.40526C14.7013 7.25827 14.4928 7.23546 14.3362 7.35077L12.3247 8.83207C12.0219 9.05519 11.6288 9.06153 11.3202 8.84844L8.86822 7.1556C8.45036 6.86713 7.90125 6.99056 7.6187 7.43645Z" fill="white"/>
</svg>
