<svg width="20" height="20" viewBox="0 0 20 20" fill="none" xmlns="http://www.w3.org/2000/svg">
<path d="M10 20C15.5228 20 20 15.5228 20 10C20 4.47715 15.5228 0 10 0C4.47715 0 0 4.47715 0 10C0 15.5228 4.47715 20 10 20Z" fill="#F7762E"/>
<path d="M6.68737 19.6525C6.44611 19.5626 6.32055 19.2989 6.3894 19.0493L9.24803 8.68364C9.39916 8.13551 9.96277 7.81465 10.507 7.96691C11.051 8.11913 11.3696 8.68684 11.2184 9.23487L10.1424 13.1367C11.4216 13.4097 12.3188 13.1762 12.9194 12.7763C13.6791 12.2705 14.1671 11.365 14.2894 10.2896C14.4116 9.21334 14.15 8.08401 13.5522 7.24751C12.9763 6.44163 12.0667 5.86944 10.7445 5.86944C8.78033 5.86944 7.61117 6.72558 7.04082 7.77879C6.44714 8.87511 6.42804 10.32 7.05772 11.5885C7.31026 12.0973 7.10553 12.7158 6.60042 12.9702C6.09532 13.2246 5.48113 13.0184 5.22857 12.5097C4.32449 10.6883 4.3054 8.52843 5.24551 6.79242C6.20894 5.01331 8.10737 3.80957 10.7445 3.80957C12.7456 3.80957 14.2643 4.71792 15.2121 6.04413C16.1379 7.33976 16.495 8.99407 16.3211 10.5239C16.1471 12.0548 15.4237 13.5782 14.0471 14.4948C12.8722 15.2769 11.3592 15.5271 9.59446 15.1236L8.3519 19.6294C8.28022 19.8892 8.0215 20.0506 7.76175 19.9857C7.39543 19.8941 7.0369 19.7827 6.68737 19.6525Z" fill="white"/>
</svg>
