<svg width="20" height="20" viewBox="0 0 20 20" fill="none" xmlns="http://www.w3.org/2000/svg">
<rect width="20" height="20" rx="4" fill="#CB997E"/>
<path d="M14.0509 8.25C14.2895 12 11.6647 15 8.32414 15C7.17311 15 6.02208 14.8384 5.11905 14.3853C4.91223 14.2815 4.99307 13.9925 5.22188 13.9766C6.33386 13.8993 7.25406 13.6212 7.84692 13C9.27868 11.5 9.51724 11 9.88213 9.01198C9.80038 8.77402 9.75581 8.51746 9.75581 8.25C9.75581 7.00736 10.7173 6 11.9033 6C12.6279 6 13.2686 6.37591 13.6575 6.95173L14.477 6.82908C14.6812 6.79852 14.8237 7.03543 14.7093 7.21523L14.0509 8.25Z" fill="white"/>
<path d="M7.84701 13.0002C5.26215 12.0974 4.81628 8.74994 5.28061 7.00378C5.33513 6.79875 5.58956 6.79768 5.69211 6.98141C6.48501 8.40204 7.99266 9.1952 9.88221 9.01217C12.8579 9.01217 12.1421 14.5002 7.84701 13.0002Z" fill="white"/>
</svg>
