<svg width="22" height="22" viewBox="0 0 22 22" fill="none" xmlns="http://www.w3.org/2000/svg">
<rect width="22" height="22" rx="4" fill="#CB997E"/>
<path fill-rule="evenodd" clip-rule="evenodd" d="M11 15C13.2091 15 15 13.2091 15 11C15 8.79085 13.2091 7 11 7C8.79085 7 7 8.79085 7 11C7 13.2091 8.79085 15 11 15ZM11 16C13.7614 16 16 13.7614 16 11C16 8.23859 13.7614 6 11 6C8.23859 6 6 8.23859 6 11C6 13.7614 8.23859 16 11 16Z" fill="white"/>
<path fill-rule="evenodd" clip-rule="evenodd" d="M11.8733 14.0883C12.2427 13.3496 12.5 12.2591 12.5 11C12.5 9.74088 12.2427 8.65037 11.8733 7.91168C11.4741 7.11316 11.1075 7 11 7C10.8925 7 10.5259 7.11316 10.1267 7.91168C9.75731 8.65037 9.5 9.74088 9.5 11C9.5 12.2591 9.75731 13.3496 10.1267 14.0883C10.5259 14.8868 10.8925 15 11 15C11.1075 15 11.4741 14.8868 11.8733 14.0883ZM11 16C12.3807 16 13.5 13.7614 13.5 11C13.5 8.23859 12.3807 6 11 6C9.61928 6 8.5 8.23859 8.5 11C8.5 13.7614 9.61928 16 11 16Z" fill="white"/>
<path fill-rule="evenodd" clip-rule="evenodd" d="M15.9753 11.5C15.9917 11.3355 16 11.1687 16 11C16 10.8313 15.9917 10.6645 15.9753 10.5H6.02469C6.00836 10.6645 6 10.8313 6 11C6 11.1687 6.00836 11.3355 6.02469 11.5H15.9753Z" fill="white"/>
</svg>
