<svg width="30" height="31" viewBox="0 0 30 31" fill="none" xmlns="http://www.w3.org/2000/svg">
<g clip-path="url(#clip0_37_2606)">
<mask id="mask0_37_2606" style="mask-type:luminance" maskUnits="userSpaceOnUse" x="0" y="0" width="30" height="31">
<path d="M30 0.5H0V30.5H30V0.5Z" fill="white"/>
</mask>
<g mask="url(#mask0_37_2606)">
<path d="M25.6066 4.89343C22.7735 2.06024 19.0067 0.5 15 0.5C10.9934 0.5 7.2265 2.06024 4.39343 4.89337C1.56024 7.7265 0 11.4934 0 15.5C0 19.5067 1.56024 23.2735 4.39343 26.1066C7.2265 28.9398 10.9934 30.5 15 30.5C19.0067 30.5 22.7735 28.9398 25.6067 26.1066C28.4398 23.2735 30.0001 19.5066 30.0001 15.5C30.0001 11.4933 28.4398 7.7265 25.6066 4.89343ZM5.63767 6.13767C6.95667 4.81866 8.50513 3.8126 10.1929 3.15594C9.74334 3.71715 9.32269 4.36221 8.93721 5.08772C8.48949 5.9303 8.10318 6.85568 7.78144 7.8441C6.66687 7.65912 5.63415 7.43165 4.71153 7.1647C5.00069 6.80927 5.30919 6.46614 5.63767 6.13767ZM3.64624 8.67883C4.72536 9.02435 5.95946 9.31574 7.30607 9.54654C6.93107 11.1383 6.71035 12.8512 6.65767 14.6202H1.78922C1.9275 12.4972 2.56512 10.471 3.64624 8.67883ZM3.55044 22.1585C2.52768 20.4066 1.92334 18.4389 1.78916 16.3798H6.66101C6.71855 18.0983 6.93488 19.7625 7.29722 21.3126C5.92296 21.5354 4.65786 21.8194 3.55044 22.1585ZM5.63767 24.8624C5.26384 24.4885 4.91567 24.0959 4.59288 23.6873C5.54931 23.4221 6.61853 23.1975 7.76949 23.0174C8.09351 24.0195 8.48398 24.9571 8.93715 25.8101C9.35726 26.6007 9.81916 27.2954 10.3147 27.8905C8.57972 27.2352 6.98837 26.213 5.63767 24.8624ZM14.1202 28.5146C12.7838 28.1402 11.5196 26.9199 10.4911 24.9844C10.1314 24.3075 9.81547 23.569 9.54482 22.782C10.9938 22.6225 12.5357 22.5282 14.1202 22.5061V28.5146ZM14.1202 20.7463C12.3631 20.7703 10.6504 20.8806 9.04654 21.069C8.69275 19.6065 8.47988 18.0234 8.42146 16.3799H14.1202V20.7463ZM14.1202 14.6202H8.41812C8.4715 12.9307 8.68777 11.3035 9.05258 9.80371C10.6462 10.0029 12.3553 10.1241 14.1202 10.1588V14.6202ZM14.1202 8.39892C12.5296 8.36687 10.9911 8.26316 9.55232 8.09394C9.82133 7.31511 10.1348 6.58409 10.4911 5.91337C11.5195 3.9779 12.7838 2.7575 14.1202 2.38315V8.39892ZM26.4093 8.77228C27.4566 10.5414 28.0749 12.5339 28.211 14.6202H23.3425C23.2904 12.8715 23.0739 11.1779 22.7068 9.6018C24.0622 9.38289 25.3116 9.10439 26.4093 8.77228ZM24.3623 6.13767C24.7156 6.49093 25.0456 6.86124 25.3534 7.24568C24.4116 7.50285 23.3628 7.72111 22.236 7.89677C21.9109 6.88849 21.5186 5.9453 21.0629 5.08772C20.6774 4.36221 20.2568 3.71715 19.8072 3.15594C21.4949 3.8126 23.0434 4.81866 24.3623 6.13767ZM15.8799 16.3799H21.5787C21.5198 18.0362 21.3041 19.6312 20.9453 21.1032C19.3519 20.9051 17.6435 20.7851 15.8799 20.7513V16.3799ZM15.8799 14.6202V10.1646C17.638 10.1416 19.352 10.0322 20.9574 9.84449C21.3163 11.333 21.529 12.946 21.5819 14.6202H15.8799ZM15.8798 2.38315C17.2162 2.7575 18.4804 3.9779 19.5089 5.91337C19.8709 6.59464 20.1886 7.33826 20.4605 8.13103C19.0095 8.28994 17.4658 8.38351 15.8798 8.4049V2.38315ZM15.8799 28.5146V22.5112C17.4689 22.5424 19.0063 22.6451 20.4445 22.8133C20.1762 23.5886 19.8638 24.3165 19.5089 24.9844C18.4805 26.9199 17.2163 28.1402 15.8799 28.5146ZM24.3623 24.8624C23.0117 26.213 21.4203 27.2352 19.6853 27.8904C20.1808 27.2953 20.6427 26.6007 21.0629 25.8101C21.5093 24.9698 21.8948 24.0471 22.216 23.0617C23.3565 23.2499 24.4117 23.4827 25.3516 23.7566C25.0444 24.1401 24.715 24.5097 24.3623 24.8624ZM26.4027 22.2389C25.3108 21.8878 24.059 21.5924 22.6922 21.3594C23.0611 19.7961 23.281 18.1156 23.3392 16.3799H28.211C28.0746 18.4704 27.4541 20.467 26.4027 22.2389Z" fill="white"/>
</g>
</g>
<defs>
<clipPath id="clip0_37_2606">
<rect width="30" height="30" fill="white" transform="translate(0 0.5)"/>
</clipPath>
</defs>
</svg>
