<svg width="20" height="20" viewBox="0 0 20 20" fill="none" xmlns="http://www.w3.org/2000/svg">
<path d="M1.80537 6.66226C1.90382 5.39938 2.89972 4.4114 4.16401 4.33311C5.51625 4.24937 7.44683 4.1665 9.79175 4.1665C12.1367 4.1665 14.0673 4.24937 15.4195 4.33311C16.6838 4.4114 17.6797 5.39938 17.7781 6.66226C17.8514 7.60226 17.9167 8.69071 17.9167 9.58317C17.9167 10.4756 17.8514 11.5641 17.7781 12.5041C17.6797 13.7669 16.6838 14.7549 15.4195 14.8332C14.0673 14.917 12.1367 14.9998 9.79175 14.9998C7.44683 14.9998 5.51625 14.917 4.16401 14.8332C2.89972 14.7549 1.90382 13.7669 1.80537 12.5041C1.7321 11.5641 1.66675 10.4756 1.66675 9.58317C1.66675 8.69071 1.7321 7.60226 1.80537 6.66226Z" stroke="url(#paint0_linear_5)" stroke-width="1.5"/>
<path d="M9.4375 10.4232V8.7435L10.6973 9.58333L9.4375 10.4232Z" fill="url(#paint1_linear_5)" stroke="url(#paint2_linear_5)" stroke-width="2"/>
<defs>
<linearGradient id="paint0_linear_5" x1="9.79175" y1="4.1665" x2="9.79175" y2="14.9998" gradientUnits="userSpaceOnUse">
<stop stop-color="#005F73"/>
<stop offset="1" stop-color="#0A9396"/>
</linearGradient>
<linearGradient id="paint1_linear_5" x1="10.197" y1="7.46191" x2="10.197" y2="11.7047" gradientUnits="userSpaceOnUse">
<stop stop-color="#005F73"/>
<stop offset="1" stop-color="#0A9396"/>
</linearGradient>
<linearGradient id="paint2_linear_5" x1="10.197" y1="7.46191" x2="10.197" y2="11.7047" gradientUnits="userSpaceOnUse">
<stop stop-color="#005F73"/>
<stop offset="1" stop-color="#0A9396"/>
</linearGradient>
</defs>
</svg>
