<svg width="20" height="20" viewBox="0 0 20 20" fill="none" xmlns="http://www.w3.org/2000/svg">
<path fill-rule="evenodd" clip-rule="evenodd" d="M4.82379 1.66449C5.83674 0.651544 7.512 0.770603 8.37152 1.91662L9.79825 3.81894C10.5011 4.75611 10.4079 6.06751 9.57958 6.89586L8.52769 7.94775C8.62963 8.2131 8.96522 8.79539 9.98717 9.81734C11.0091 10.8393 11.5914 11.1749 11.8567 11.2768L12.9086 10.2249C13.737 9.39657 15.0484 9.30336 15.9856 10.0062L17.8879 11.433C19.0339 12.2925 19.153 13.9678 18.14 14.9807C17.8107 15.31 17.755 15.3658 17.2054 15.9153C16.6453 16.4754 15.456 16.999 14.2519 17.0513C12.3677 17.1332 9.80829 16.2966 6.65811 13.1464C3.50793 9.99621 2.67127 7.43681 2.7532 5.55258C2.79877 4.50442 3.13201 3.35321 3.89355 2.6035C4.43874 2.04954 4.50964 1.97864 4.82379 1.66449ZM4.32105 5.62075C4.26426 6.92686 4.81471 9.08362 7.7678 12.0367C10.7209 14.9898 12.8776 15.5402 14.1838 15.4835C15.403 15.4304 16.0571 14.8413 16.0957 14.8056L17.0303 13.871C17.368 13.5334 17.3283 12.975 16.9463 12.6885L15.044 11.2617C14.7316 11.0274 14.2944 11.0585 14.0183 11.3346C13.6023 11.7506 13.3183 12.0388 12.7624 12.5926C11.6077 13.743 9.63106 11.6806 8.87748 10.927C8.18495 10.2345 6.07446 8.1951 7.21078 7.04531C7.21302 7.04305 7.51909 6.73699 8.4699 5.78618C8.74601 5.51006 8.77708 5.07293 8.54279 4.76054L7.11605 2.85822C6.82955 2.47621 6.27112 2.43653 5.93348 2.77418C5.62271 3.08494 5.271 3.43665 4.99979 3.70973C4.44161 4.27178 4.35092 4.93369 4.32105 5.62075Z" fill="white"/>
</svg>
