<svg width="16" height="16" viewBox="0 0 16 16" fill="none" xmlns="http://www.w3.org/2000/svg">
<path fill-rule="evenodd" clip-rule="evenodd" d="M12.8 1.6H3.2C2.31634 1.6 1.6 2.31634 1.6 3.2V12.8C1.6 13.6837 2.31634 14.4 3.2 14.4H12.8C13.6837 14.4 14.4 13.6837 14.4 12.8V3.2C14.4 2.31634 13.6837 1.6 12.8 1.6ZM3.2 0C1.43269 0 0 1.43269 0 3.2V12.8C0 14.5673 1.43269 16 3.2 16H12.8C14.5673 16 16 14.5673 16 12.8V3.2C16 1.43269 14.5673 0 12.8 0H3.2Z" fill="white"/>
<path d="M4.0002 4.8002C4.44202 4.8002 4.8002 4.44202 4.8002 4.0002C4.8002 3.55837 4.44202 3.2002 4.0002 3.2002C3.55837 3.2002 3.2002 3.55837 3.2002 4.0002C3.2002 4.44202 3.55837 4.8002 4.0002 4.8002Z" fill="white"/>
<path d="M4.0002 6.4002C3.55837 6.4002 3.2002 6.75837 3.2002 7.2002V12.0002C3.2002 12.442 3.55837 12.8002 4.0002 12.8002C4.44202 12.8002 4.8002 12.442 4.8002 12.0002V7.2002C4.8002 6.75837 4.44202 6.4002 4.0002 6.4002Z" fill="white"/>
<path d="M9.6002 8.0002C8.71654 8.0002 8.0002 8.71654 8.0002 9.6002V12.0002C8.0002 12.442 7.64202 12.8002 7.2002 12.8002C6.75837 12.8002 6.4002 12.442 6.4002 12.0002V7.2002C6.4002 6.75837 6.75837 6.4002 7.2002 6.4002C7.52449 6.4002 7.80372 6.59315 7.92932 6.87052C8.41566 6.5722 8.98784 6.4002 9.6002 6.4002C11.3675 6.4002 12.8002 7.83288 12.8002 9.6002V12.0002C12.8002 12.442 12.442 12.8002 12.0002 12.8002C11.5584 12.8002 11.2002 12.442 11.2002 12.0002V9.6002C11.2002 8.71654 10.4839 8.0002 9.6002 8.0002Z" fill="white"/>
</svg>
