<svg width="25" height="25" viewBox="0 0 25 25" fill="none" xmlns="http://www.w3.org/2000/svg">
<path fill-rule="evenodd" clip-rule="evenodd" d="M20 2.5H5C3.61929 2.5 2.5 3.61929 2.5 5V20C2.5 21.3807 3.61929 22.5 5 22.5H20C21.3807 22.5 22.5 21.3807 22.5 20V5C22.5 3.61929 21.3807 2.5 20 2.5ZM5 0C2.23858 0 0 2.23858 0 5V20C0 22.7614 2.23858 25 5 25H20C22.7614 25 25 22.7614 25 20V5C25 2.23858 22.7614 0 20 0H5Z" fill="black"/>
<path d="M6.25 7.5C6.94036 7.5 7.5 6.94036 7.5 6.25C7.5 5.55964 6.94036 5 6.25 5C5.55964 5 5 5.55964 5 6.25C5 6.94036 5.55964 7.5 6.25 7.5Z" fill="black"/>
<path d="M6.25 10C5.55964 10 5 10.5596 5 11.25V18.75C5 19.4404 5.55964 20 6.25 20C6.94036 20 7.5 19.4404 7.5 18.75V11.25C7.5 10.5596 6.94036 10 6.25 10Z" fill="black"/>
<path d="M15 12.5C13.6193 12.5 12.5 13.6193 12.5 15V18.75C12.5 19.4404 11.9404 20 11.25 20C10.5596 20 10 19.4404 10 18.75V11.25C10 10.5596 10.5596 10 11.25 10C11.7567 10 12.193 10.3015 12.3893 10.7349C13.1492 10.2688 14.0432 10 15 10C17.7614 10 20 12.2386 20 15V18.75C20 19.4404 19.4404 20 18.75 20C18.0596 20 17.5 19.4404 17.5 18.75V15C17.5 13.6193 16.3807 12.5 15 12.5Z" fill="black"/>
</svg>
