<svg width="16" height="16" viewBox="0 0 16 16" fill="none" xmlns="http://www.w3.org/2000/svg">
<path fill-rule="evenodd" clip-rule="evenodd" d="M4 11.1211V13.5961L8.04977 11.203L8.47306 11.1961C10.1562 11.1685 11.6709 10.9991 12.8035 10.8267C13.5183 10.718 14.015 10.2191 14.1229 9.59275C14.2725 8.7239 14.4 7.62314 14.4 6.4C14.4 5.17686 14.2725 4.0761 14.1229 3.20725C14.015 2.58087 13.5183 2.08201 12.8035 1.97325C11.5647 1.78477 9.87067 1.6 8 1.6C6.12933 1.6 4.43526 1.78477 3.1965 1.97325C2.48171 2.08201 1.98504 2.58087 1.87715 3.20725C1.72749 4.0761 1.6 5.17686 1.6 6.4C1.6 7.62314 1.72749 8.7239 1.87715 9.59275C1.97084 10.1367 2.35083 10.5727 2.90486 10.7569L4 11.1211ZM0.300366 2.93565C0.532516 1.5879 1.60378 0.597181 2.95582 0.39146C4.25129 0.194347 6.02847 0 8 0C9.97153 0 11.7487 0.194347 13.0442 0.39146C14.3962 0.597181 15.4675 1.5879 15.6996 2.93565C15.8614 3.87497 16 5.0682 16 6.4C16 7.7318 15.8614 8.92503 15.6996 9.86434C15.4675 11.2121 14.3962 12.2028 13.0442 12.4085C11.859 12.5889 10.2707 12.7669 8.49926 12.7959L3.60698 15.6868C3.07369 16.0019 2.4 15.6175 2.4 14.998V12.2752C1.31725 11.9151 0.499647 11.0213 0.300366 9.86435C0.138569 8.92503 0 7.7318 0 6.4C0 5.0682 0.138569 3.87497 0.300366 2.93565Z" fill="white"/>
<path fill-rule="evenodd" clip-rule="evenodd" d="M4.0002 4.00049C3.55837 4.00049 3.2002 4.35866 3.2002 4.80049C3.2002 5.24232 3.55837 5.60049 4.0002 5.60049H12.0002C12.442 5.60049 12.8002 5.24232 12.8002 4.80049C12.8002 4.35866 12.442 4.00049 12.0002 4.00049H4.0002ZM4.0002 7.20049C3.55837 7.20049 3.2002 7.55866 3.2002 8.00049C3.2002 8.44232 3.55837 8.80049 4.0002 8.80049H7.2002C7.64202 8.80049 8.0002 8.44232 8.0002 8.00049C8.0002 7.55866 7.64202 7.20049 7.2002 7.20049H4.0002Z" fill="white"/>
</svg>
