<svg width="30" height="30" viewBox="0 0 30 30" fill="none" xmlns="http://www.w3.org/2000/svg">
<g clip-path="url(#clip0_213_9287)">
<path d="M15 30C23.2843 30 30 23.2843 30 15C30 6.71573 23.2843 0 15 0C6.71573 0 0 6.71573 0 15C0 23.2843 6.71573 30 15 30Z" fill="#2196F3"/>
<path d="M14.9965 15.7404L7.08984 11.7959V19.6334C7.09093 20.0307 7.24925 20.4115 7.53021 20.6924C7.81117 20.9734 8.19192 21.1317 8.58926 21.1328H21.4107C21.8081 21.1317 22.1888 20.9734 22.4698 20.6924C22.7508 20.4115 22.9091 20.0307 22.9102 19.6334V11.8785L14.9965 15.7404Z" fill="white"/>
<path d="M15.0035 14.2596L22.9102 10.4006V10.3666C22.9091 9.96926 22.7508 9.58851 22.4698 9.30755C22.1888 9.02659 21.8081 8.86827 21.4107 8.86719H8.58926C8.20106 8.86796 7.82821 9.01885 7.54873 9.28827C7.26925 9.5577 7.10482 9.92479 7.08984 10.3127L15.0035 14.2596Z" fill="white"/>
</g>
<defs>
<clipPath id="clip0_213_9287">
<rect width="30" height="30" fill="white"/>
</clipPath>
</defs>
</svg>
