<svg width="22" height="21" viewBox="0 0 22 21" fill="none" xmlns="http://www.w3.org/2000/svg">
<rect x="0.138428" width="21" height="21" rx="4" fill="#D2D2D2"/>
<path d="M14.3884 8.625C14.3884 10.6962 10.6384 15.5 10.6384 15.5C10.6384 15.5 6.88843 10.6962 6.88843 8.625C6.88843 6.55375 8.56718 4.875 10.6384 4.875C12.7097 4.875 14.3884 6.55375 14.3884 8.625Z" fill="#9B2226"/>
<path d="M10.6384 10.1875C9.7753 10.1875 9.07593 9.48813 9.07593 8.625C9.07593 7.76188 9.7753 7.0625 10.6384 7.0625C11.5016 7.0625 12.2009 7.76188 12.2009 8.625C12.2009 9.48813 11.5016 10.1875 10.6384 10.1875Z" fill="#D2D2D2"/>
<path d="M10.6384 4.25635C8.22845 4.25635 6.26782 6.21697 6.26782 8.62697C6.26782 11.4288 9.99782 15.9813 10.1566 16.1732L10.6384 16.7576L11.1203 16.1732C11.2791 15.9807 15.0091 11.4288 15.0091 8.62697C15.0091 6.21635 13.0484 4.25635 10.6384 4.25635ZM10.6384 14.767C9.4647 13.2276 7.51782 10.3201 7.51782 8.62697C7.51782 6.90635 8.91782 5.50635 10.6384 5.50635C12.3591 5.50635 13.7591 6.90635 13.7591 8.62697C13.7591 10.3176 11.8122 13.2263 10.6384 14.767Z" fill="#9B2226"/>
</svg>
