<svg width="21" height="21" viewBox="0 0 21 21" fill="none" xmlns="http://www.w3.org/2000/svg">
<path d="M0 3.15C0 1.41031 1.41031 0 3.15 0H17.85C19.5897 0 21 1.41031 21 3.15V17.85C21 19.5897 19.5897 21 17.85 21H3.15C1.41031 21 0 19.5897 0 17.85V3.15Z" fill="#D2D2D2"/>
<path fill-rule="evenodd" clip-rule="evenodd" d="M6.4016 4.31806C5.30307 4.48521 4.43267 5.29017 4.24405 6.38522C4.11259 7.14842 4 8.11791 4 9.2C4 10.2821 4.11259 11.2516 4.24405 12.0148C4.40596 12.9548 5.07026 13.681 5.95 13.9736V16.1859C5.95 16.6892 6.49737 17.0016 6.93067 16.7455L10.9057 14.3967C12.345 14.3731 13.6355 14.2285 14.5984 14.082C15.6969 13.9148 16.5674 13.1098 16.7559 12.0148C16.8874 11.2516 17 10.2821 17 9.2C17 8.11791 16.8874 7.14842 16.7559 6.38522C16.5674 5.29017 15.6969 4.48521 14.5984 4.31806C13.5458 4.15791 12.1019 4 10.5 4C8.89813 4 7.45417 4.15791 6.4016 4.31806Z" fill="#9B2226"/>
<path fill-rule="evenodd" clip-rule="evenodd" d="M7.2501 7.25C6.89112 7.25 6.6001 7.54102 6.6001 7.9C6.6001 8.25898 6.89112 8.55 7.2501 8.55H13.7501C14.1091 8.55 14.4001 8.25898 14.4001 7.9C14.4001 7.54102 14.1091 7.25 13.7501 7.25H7.2501ZM7.2501 9.85C6.89112 9.85 6.6001 10.141 6.6001 10.5C6.6001 10.859 6.89112 11.15 7.2501 11.15H9.8501C10.2091 11.15 10.5001 10.859 10.5001 10.5C10.5001 10.141 10.2091 9.85 9.8501 9.85H7.2501Z" fill="#D2D2D2"/>
</svg>
