<svg width="21" height="21" viewBox="0 0 21 21" fill="none" xmlns="http://www.w3.org/2000/svg">
<path d="M0 3.15C0 1.41031 1.41031 0 3.15 0H17.85C19.5897 0 21 1.41031 21 3.15V17.85C21 19.5897 19.5897 21 17.85 21H3.15C1.41031 21 0 19.5897 0 17.85V3.15Z" fill="#D2D2D2"/>
<path d="M4 5.95C4 4.87305 4.87305 4 5.95 4H15.05C16.127 4 17 4.87305 17 5.95V15.05C17 16.127 16.127 17 15.05 17H5.95C4.87305 17 4 16.127 4 15.05V5.95Z" fill="#9B2226"/>
<path d="M7.2501 7.9001C7.60908 7.9001 7.9001 7.60908 7.9001 7.2501C7.9001 6.89112 7.60908 6.6001 7.2501 6.6001C6.89112 6.6001 6.6001 6.89112 6.6001 7.2501C6.6001 7.60908 6.89112 7.9001 7.2501 7.9001Z" fill="#D2D2D2"/>
<path d="M7.2501 9.2002C6.89112 9.2002 6.6001 9.49121 6.6001 9.8502V13.7502C6.6001 14.1092 6.89112 14.4002 7.2501 14.4002C7.60908 14.4002 7.9001 14.1092 7.9001 13.7502V9.8502C7.9001 9.49121 7.60908 9.2002 7.2501 9.2002Z" fill="#D2D2D2"/>
<path d="M11.8 10.5002C11.082 10.5002 10.5 11.0822 10.5 11.8002V13.7502C10.5 14.1092 10.2089 14.4002 9.84995 14.4002C9.49096 14.4002 9.19995 14.1092 9.19995 13.7502V9.8502C9.19995 9.49121 9.49097 9.2002 9.84995 9.2002C10.1134 9.2002 10.3403 9.35698 10.4424 9.58234C10.8375 9.33995 11.3024 9.2002 11.8 9.2002C13.2359 9.2002 14.4 10.3643 14.4 11.8002V13.7502C14.4 14.1092 14.1089 14.4002 13.75 14.4002C13.391 14.4002 13.1 14.1092 13.1 13.7502V11.8002C13.1 11.0822 12.5179 10.5002 11.8 10.5002Z" fill="#D2D2D2"/>
</svg>
