<svg width="20" height="20" viewBox="0 0 20 20" fill="none" xmlns="http://www.w3.org/2000/svg">
<g clip-path="url(#clip0_4:571)">
<path d="M18.6759 15.3213L17.0885 16.9088C17.0885 16.9088 12.9637 18.6765 7.07114 12.784C1.17858 6.8914 2.94635 2.76661 2.94635 2.76661L4.5338 1.17917C5.25097 0.461988 6.43709 0.546285 7.04564 1.35769L8.5609 3.37799C9.05849 4.04152 8.99257 4.97001 8.40607 5.5565L7.07114 6.8914C7.07114 6.8914 7.07114 8.06992 9.42815 10.4269C11.7852 12.784 12.9637 12.7839 12.9637 12.7839L14.2986 11.4491C14.8851 10.8626 15.8136 10.7966 16.4772 11.2943L18.4974 12.8095C19.3088 13.418 19.3931 14.6041 18.6759 15.3213Z" stroke="white" stroke-width="1.5"/>
</g>
<defs>
<clipPath id="clip0_4:571">
<rect width="20" height="20" fill="white"/>
</clipPath>
</defs>
</svg>
