<svg width="16" height="16" viewBox="0 0 16 16" fill="none" xmlns="http://www.w3.org/2000/svg">
<path fill-rule="evenodd" clip-rule="evenodd" d="M8 14.4C11.5346 14.4 14.4 11.5346 14.4 8C14.4 4.46537 11.5346 1.6 8 1.6C4.46537 1.6 1.6 4.46537 1.6 8C1.6 11.5346 4.46537 14.4 8 14.4ZM8 16C12.4183 16 16 12.4183 16 8C16 3.58174 12.4183 0 8 0C3.58174 0 0 3.58174 0 8C0 12.4183 3.58174 16 8 16Z" fill="white"/>
<path fill-rule="evenodd" clip-rule="evenodd" d="M9.39733 12.9413C9.98831 11.7594 10.4 10.0146 10.4 8C10.4 5.98541 9.98831 4.2406 9.39733 3.05869C8.75853 1.78106 8.17203 1.6 8 1.6C7.82797 1.6 7.24147 1.78106 6.60267 3.05869C6.01169 4.2406 5.6 5.98541 5.6 8C5.6 10.0146 6.01169 11.7594 6.60267 12.9413C7.24147 14.2189 7.82797 14.4 8 14.4C8.17203 14.4 8.75853 14.2189 9.39733 12.9413ZM8 16C10.2092 16 12 12.4183 12 8C12 3.58174 10.2092 0 8 0C5.79085 0 4 3.58174 4 8C4 12.4183 5.79085 16 8 16Z" fill="white"/>
<path fill-rule="evenodd" clip-rule="evenodd" d="M15.9605 8.80001C15.9866 8.53689 16 8.27001 16 8.00001C16 7.73002 15.9866 7.46314 15.9605 7.20001H0.0395008C0.013376 7.46314 0 7.73002 0 8.00001C0 8.27001 0.013376 8.53689 0.0395008 8.80001H15.9605Z" fill="white"/>
</svg>
