<svg width="30" height="30" viewBox="0 0 30 30" fill="none" xmlns="http://www.w3.org/2000/svg">
<path d="M27 26.9998V18.2098C27 13.8898 26.07 10.5898 21.03 10.5898C18.6 10.5898 16.98 11.9098 16.32 13.1698H16.26V10.9798H11.49V26.9998H16.47V19.0498C16.47 16.9498 16.86 14.9398 19.44 14.9398C21.99 14.9398 22.02 17.3098 22.02 19.1698V26.9698H27V26.9998Z" fill="white" fill-opacity="0.4"/>
<path d="M3.39001 10.9805H8.37001V27.0005H3.39001V10.9805Z" fill="white" fill-opacity="0.4"/>
<path d="M5.88 3C4.29 3 3 4.29 3 5.88C3 7.47 4.29 8.79 5.88 8.79C7.47 8.79 8.76 7.47 8.76 5.88C8.76 4.29 7.47 3 5.88 3Z" fill="white"/>
</svg>
