<svg width="325" height="325" viewBox="0 0 325 325" fill="none" xmlns="http://www.w3.org/2000/svg">
<g filter="url(#filter0_d)">
<rect x="34.6699" y="60.2998" width="235" height="235" rx="19" transform="rotate(-12.9416 34.6699 60.2998)" fill="white"/>
<g clip-path="url(#clip0)">
<path d="M153.928 63.2948L158.828 62.1688L160.164 61.8617L163.951 60.9916C164.619 60.8381 165.134 60.0163 164.98 59.3481L164.11 55.5617C163.956 54.8935 163.135 54.3788 162.466 54.5324L157.566 55.6584L156.23 55.9655L152.666 56.7844C151.998 56.938 151.483 57.7597 151.637 58.4279L152.456 61.9916C152.438 62.9337 153.26 63.4484 153.928 63.2948Z" fill="black"/>
<path d="M179.319 57.4597L184.219 56.3337L190.678 54.8494L192.014 54.5423L195.578 53.7234C196.246 53.5698 196.761 52.7481 196.607 52.0799L195.737 48.2935C195.584 47.6253 194.762 47.1106 194.094 47.2642L189.194 48.3902L182.735 49.8745L181.398 50.1816L177.834 51.0005C177.166 51.1541 176.652 51.9758 176.805 52.644L177.624 56.2077C177.829 57.0986 178.651 57.6133 179.319 57.4597Z" fill="black"/>
<path d="M117.274 78.283L120.838 77.4641C121.506 77.3106 122.328 77.8252 122.481 78.4934L123.3 82.0571C123.454 82.7253 124.275 83.2399 124.943 83.0864L129.844 81.9604L134.744 80.8344C135.412 80.6808 136.234 81.1955 136.387 81.8636L137.206 85.4274C137.36 86.0956 138.181 86.6102 138.85 86.4567L142.413 85.6377C143.081 85.4842 143.903 85.9988 144.057 86.667L145.183 91.5671L146.667 98.0263L147.793 102.926C147.947 103.595 147.432 104.416 146.764 104.57L143.646 105.286C142.977 105.44 142.156 104.925 142.002 104.257L141.183 100.693C141.03 100.025 140.208 99.5106 139.54 99.6642L135.976 100.483C135.308 100.637 134.793 101.458 134.947 102.127L136.175 107.472L137.301 112.372C137.455 113.04 138.276 113.555 138.945 113.402L142.508 112.583C143.176 112.429 143.998 112.944 144.152 113.612L144.971 117.176C145.124 117.844 145.946 118.358 146.614 118.205L150.178 117.386C150.846 117.232 151.361 116.411 151.207 115.743L150.388 112.179C150.235 111.511 150.749 110.689 151.418 110.535L154.981 109.716C155.649 109.563 156.164 108.741 156.011 108.073L154.885 103.173L153.759 98.2727C153.605 97.6045 154.12 96.7828 154.788 96.6292L158.352 95.8103C159.02 95.6567 159.841 96.1714 159.995 96.8396L160.814 100.403C160.967 101.071 161.789 101.586 162.457 101.433L166.021 100.614C166.689 100.46 167.204 99.6384 167.05 98.9702L165.924 94.0701L164.798 89.17C164.645 88.5018 165.159 87.68 165.828 87.5265L169.837 86.6052C170.505 86.4517 171.02 85.6299 170.866 84.9617L169.945 80.9525C169.791 80.2844 170.306 79.4626 170.974 79.3091L174.538 78.4901C175.206 78.3366 175.721 77.5148 175.567 76.8466L174.748 73.2829C174.595 72.6147 173.773 72.1001 173.105 72.2536L169.541 73.0726C168.873 73.2261 168.051 72.7115 167.898 72.0433L167.027 68.2568C166.874 67.5886 166.052 67.074 165.384 67.2275L161.82 68.0465C161.152 68.2 160.637 69.0218 160.791 69.69L161.61 73.2537C161.763 73.9219 161.249 74.7436 160.581 74.8972L157.017 75.7161C156.349 75.8696 155.527 75.355 155.373 74.6868L154.247 69.7867L153.121 64.8866C152.968 64.2184 152.146 63.7037 151.478 63.8573L146.578 64.9833L140.119 66.4676L134.996 67.6448C134.327 67.7984 133.813 68.6201 133.966 69.2883L134.785 72.852C134.939 73.5202 134.424 74.342 133.756 74.4955L130.192 75.3144C129.524 75.468 128.702 74.9533 128.549 74.2851L127.73 70.7214C127.576 70.0532 128.091 69.2315 128.759 69.0779L132.323 68.259C132.991 68.1055 133.506 67.2837 133.352 66.6155L132.482 62.8291C132.329 62.1609 131.507 61.6462 130.839 61.7998L125.939 62.9258L121.038 64.0518C120.37 64.2054 119.856 65.0271 120.009 65.6953L120.828 69.259C120.982 69.9272 120.467 70.749 119.799 70.9025L116.235 71.7214C115.567 71.875 115.052 72.6967 115.206 73.3649L116.025 76.9286C115.784 77.9219 116.606 78.4366 117.274 78.283ZM146.229 71.6293C146.897 71.4757 147.719 71.9904 147.872 72.6586L148.691 76.2223C148.845 76.8905 148.33 77.7122 147.662 77.8658L144.098 78.6847C143.43 78.8382 142.608 78.3236 142.455 77.6554L141.636 74.0917C141.482 73.4235 141.997 72.6017 142.665 72.4482L146.229 71.6293Z" fill="black"/>
<path d="M166.414 65.5847C166.568 66.2529 167.389 66.7675 168.058 66.614L171.621 65.795C172.289 65.6415 173.111 66.1561 173.265 66.8243L174.084 70.388C174.237 71.0562 175.059 71.5709 175.727 71.4173L180.627 70.2913L186.864 68.8582L188.2 68.5511L191.764 67.7322C192.432 67.5786 192.947 66.7569 192.793 66.0887L191.974 62.525C191.821 61.8568 190.999 61.3421 190.331 61.4957L185.431 62.6217L180.531 63.7477C179.862 63.9013 179.041 63.3866 178.887 62.7184L178.068 59.1547C177.915 58.4865 177.093 57.9719 176.425 58.1254L171.525 59.2515L170.188 59.5585L166.624 60.3775C165.956 60.531 165.442 61.3528 165.595 62.021L166.414 65.5847Z" fill="black"/>
<path d="M128.133 95.9519L133.033 94.8259L134.37 94.5188L137.933 93.6999C138.602 93.5463 139.116 92.7246 138.963 92.0564L138.093 88.27C137.939 87.6018 137.117 87.0871 136.449 87.2407L131.549 88.3667L130.213 88.6738L126.649 89.4927C125.981 89.6463 125.466 90.468 125.62 91.1362L126.439 94.6999C126.643 95.5908 127.242 96.1567 128.133 95.9519Z" fill="black"/>
<path d="M177.457 91.1875L173.893 92.0064C173.225 92.1599 172.71 92.9817 172.864 93.6499L173.683 97.2136C173.836 97.8818 174.658 98.3964 175.326 98.2429L178.89 97.4239C179.558 97.2704 180.073 96.4487 179.919 95.7805L179.1 92.2168C179.169 91.4974 178.348 90.9827 177.457 91.1875Z" fill="black"/>
<path d="M188.072 95.5472L191.635 94.7283C192.304 94.5747 192.818 93.753 192.665 93.0848L191.846 89.5211C191.692 88.8529 192.207 88.0312 192.875 87.8776L196.439 87.0587C197.107 86.9051 197.622 86.0834 197.468 85.4152L196.649 81.8515C196.496 81.1833 197.01 80.3615 197.678 80.208L201.242 79.3891C201.91 79.2355 202.425 78.4138 202.271 77.7456L201.145 72.8455L200.838 71.5091L199.917 67.4999C199.763 66.8317 198.942 66.3171 198.273 66.4706L194.71 67.2896C194.042 67.4431 193.527 68.2648 193.68 68.933L194.499 72.4967C194.653 73.1649 194.138 73.9867 193.47 74.1402L188.57 75.2663L183.67 76.3923C183.002 76.5458 182.487 77.3676 182.641 78.0358L183.767 82.9359L185.251 89.3951L186.377 94.2952C186.582 95.1861 187.403 95.7008 188.072 95.5472Z" fill="black"/>
<path d="M126.026 116.368L129.59 115.549C130.258 115.396 130.773 114.574 130.619 113.906L129.493 109.006L128.06 102.769L127.753 101.433L126.934 97.8691C126.781 97.2009 125.959 96.6862 125.291 96.8398L121.727 97.6587C121.059 97.8123 120.544 98.634 120.698 99.3022L121.824 104.202L123.257 110.439L124.383 115.339C124.536 116.007 125.358 116.522 126.026 116.368Z" fill="black"/>
<path d="M181.624 102.185C181.778 102.853 182.599 103.368 183.268 103.215L186.831 102.396C187.499 102.242 188.014 101.42 187.861 100.752L187.042 97.1884C186.888 96.5202 186.066 96.0056 185.398 96.1591L181.834 96.9781C181.166 97.1316 180.652 97.9534 180.805 98.6215L181.624 102.185Z" fill="black"/>
<path d="M111.994 119.595L105.758 121.029L100.635 122.206C99.9668 122.359 99.4522 123.181 99.6057 123.849L100.425 127.413C100.578 128.081 100.064 128.903 99.3954 129.056L94.4953 130.182L89.3724 131.36C88.7042 131.513 88.1896 132.335 88.3432 133.003L89.1621 136.567C89.3156 137.235 88.801 138.057 88.1328 138.21L84.5691 139.029C83.9009 139.183 83.0791 138.668 82.9256 138L82.1067 134.436C81.9531 133.768 81.1314 133.253 80.4632 133.407L76.6767 134.277C76.0085 134.431 75.4939 135.252 75.6474 135.921L76.7735 140.821L78.2578 147.28L79.6909 153.516L80.8169 158.416C80.9705 159.085 81.7922 159.599 82.4604 159.446L86.0241 158.627C86.6923 158.473 87.2069 157.652 87.0534 156.983L85.9274 152.083L84.8525 147.406C84.699 146.738 85.2136 145.916 85.8818 145.762L90.7819 144.636L97.2411 143.152L102.141 142.026C102.809 141.872 103.324 141.051 103.171 140.383L102.352 136.819C102.198 136.151 102.713 135.329 103.381 135.175L108.281 134.049L113.181 132.923C113.849 132.77 114.364 131.948 114.21 131.28L113.391 127.716C113.238 127.048 113.753 126.226 114.421 126.073L119.989 124.793L121.325 124.486L124.889 123.667C125.557 123.513 126.072 122.692 125.918 122.024L125.1 118.46C124.946 117.792 124.124 117.277 123.456 117.431L118.556 118.557L112.097 120.041L111.994 119.595Z" fill="black"/>
<path d="M251.795 94.2687C252.463 94.1151 252.978 93.2934 252.824 92.6252L252.006 89.0615C251.852 88.3933 251.03 87.8786 250.362 88.0322L246.798 88.8511C246.13 89.0047 245.615 89.8264 245.769 90.4946L246.537 93.8356C246.69 94.5038 247.512 95.0184 248.18 94.8649L251.744 94.0459L251.795 94.2687Z" fill="black"/>
<path d="M145.636 120.07C145.482 119.402 144.661 118.887 143.993 119.041L140.429 119.86C139.761 120.013 138.939 119.498 138.785 118.83L137.966 115.267C137.813 114.598 136.991 114.084 136.323 114.237L132.759 115.056C132.091 115.21 131.576 116.031 131.73 116.7L132.856 121.6L133.982 126.5C134.136 127.168 134.957 127.683 135.625 127.529L140.526 126.403L141.862 126.096L145.426 125.277C146.094 125.124 146.609 124.302 146.455 123.634L145.636 120.07Z" fill="black"/>
<path d="M158.334 117.155C158.18 116.487 157.358 115.972 156.69 116.126L153.126 116.945C152.458 117.098 151.944 117.92 152.097 118.588L152.916 122.152C153.07 122.82 153.891 123.335 154.56 123.181L158.123 122.362C158.791 122.209 159.306 121.387 159.153 120.719L158.334 117.155Z" fill="black"/>
<path d="M167.03 120.315L170.594 119.496C171.262 119.343 171.777 118.521 171.623 117.853L170.804 114.289C170.651 113.621 169.829 113.106 169.161 113.26L165.597 114.079C164.929 114.232 164.414 115.054 164.568 115.722L165.387 119.286C165.54 119.954 166.362 120.469 167.03 120.315Z" fill="black"/>
<path d="M191.085 114.786L195.985 113.66C196.653 113.507 197.168 112.685 197.014 112.017L196.195 108.453C196.042 107.785 196.557 106.963 197.225 106.81L200.788 105.991C201.457 105.837 202.278 106.352 202.432 107.02L203.251 110.584C203.404 111.252 204.226 111.767 204.894 111.613L208.458 110.794C209.126 110.641 209.641 109.819 209.487 109.151L208.361 104.25L206.928 98.014L205.444 91.5548L205.137 90.2184L204.318 86.6547C204.164 85.9865 203.343 85.4718 202.674 85.6254L199.111 86.4443C198.442 86.5978 197.928 87.4196 198.081 88.0878L198.9 91.6515C199.054 92.3197 198.539 93.1414 197.871 93.295L194.307 94.1139C193.639 94.2675 193.124 95.0892 193.278 95.7574L194.097 99.3211C194.25 99.9893 193.736 100.811 193.068 100.965L189.504 101.784C188.836 101.937 188.321 102.759 188.475 103.427L189.294 106.991C189.447 107.659 188.932 108.481 188.264 108.634L184.701 109.453C184.032 109.607 183.211 109.092 183.057 108.424L182.238 104.86C182.085 104.192 181.263 103.677 180.595 103.831L177.031 104.65C176.363 104.803 175.541 104.289 175.387 103.62L174.569 100.057C174.415 99.3886 173.593 98.8739 172.925 99.0275L169.361 99.8464C168.693 99.9999 168.178 100.822 168.332 101.49L169.458 106.39L170.584 111.29C170.738 111.958 171.559 112.473 172.228 112.319L175.569 111.552C176.237 111.398 177.058 111.913 177.212 112.581L178.031 116.145C178.184 116.813 179.006 117.327 179.674 117.174L184.575 116.048L191.034 114.564L191.085 114.786Z" fill="black"/>
<path d="M222.84 100.922L226.404 100.103C227.072 99.9496 227.587 99.1278 227.433 98.4596L226.614 94.8959C226.461 94.2277 225.639 93.7131 224.971 93.8666L220.07 94.9927L215.17 96.1187C214.502 96.2722 213.988 97.094 214.141 97.7622L215.267 102.662L216.7 108.899L217.826 113.799C217.98 114.467 218.802 114.982 219.47 114.828L224.37 113.702L230.606 112.269L235.506 111.143C236.175 110.989 236.689 110.168 236.536 109.5L235.717 105.936C235.563 105.268 236.078 104.446 236.746 104.292L240.31 103.473C240.978 103.32 241.8 103.834 241.953 104.503L242.772 108.066C242.926 108.735 242.411 109.556 241.743 109.71L238.179 110.529C237.511 110.682 236.996 111.504 237.15 112.172L237.969 115.736C238.122 116.404 237.608 117.226 236.94 117.379L233.376 118.198C232.708 118.352 232.193 119.174 232.347 119.842L233.473 124.742L234.906 130.978L236.032 135.879C236.185 136.547 237.007 137.061 237.675 136.908L241.239 136.089C241.907 135.935 242.422 135.114 242.268 134.445L241.142 129.545L240.016 124.645C239.863 123.977 240.377 123.155 241.045 123.002L244.609 122.183C245.277 122.029 245.792 121.208 245.638 120.539L244.82 116.976C244.666 116.307 245.181 115.486 245.849 115.332L249.413 114.513C250.081 114.36 250.595 113.538 250.442 112.87L249.316 107.97L247.831 101.51L246.705 96.6103C246.552 95.9421 245.73 95.4275 245.062 95.581L240.162 96.7071L233.925 98.1402L229.025 99.2662C228.357 99.4198 227.842 100.241 227.996 100.91L228.815 104.473C228.968 105.142 228.454 105.963 227.786 106.117L224.222 106.936C223.554 107.089 222.732 106.575 222.578 105.907L221.76 102.343C221.606 101.675 221.949 101.127 222.84 100.922Z" fill="black"/>
<path d="M258.033 92.8378L254.469 93.6568C253.801 93.8103 253.286 94.6321 253.44 95.3003L254.566 100.2L256.05 106.66L257.176 111.56C257.33 112.228 258.152 112.743 258.82 112.589L262.383 111.77C263.052 111.616 263.566 110.795 263.413 110.127L262.287 105.226L260.802 98.7672L260.495 97.4308L259.676 93.8671C259.694 92.925 258.924 92.6331 258.033 92.8378Z" fill="black"/>
<path d="M121.295 137.626C121.963 137.473 122.478 136.651 122.324 135.983L121.505 132.419C121.352 131.751 120.53 131.236 119.862 131.39L116.298 132.209C115.63 132.362 115.115 133.184 115.269 133.852L116.088 137.416C116.241 138.084 117.063 138.599 117.731 138.445L121.295 137.626Z" fill="black"/>
<path d="M212.032 118.181C211.878 117.512 211.057 116.998 210.388 117.151L206.825 117.97C206.156 118.124 205.642 118.946 205.795 119.614L206.614 123.177C206.768 123.846 207.59 124.36 208.258 124.207L211.821 123.388C212.49 123.234 213.004 122.413 212.851 121.744L212.032 118.181Z" fill="black"/>
<path d="M116.493 145.292L112.929 146.111C112.261 146.264 111.746 147.086 111.9 147.754L112.719 151.318C112.872 151.986 113.694 152.501 114.362 152.347L119.262 151.221L120.599 150.914L124.162 150.095C124.831 149.942 125.345 149.12 125.192 148.452L124.373 144.888C124.219 144.22 123.398 143.705 122.729 143.859L117.829 144.985L116.493 145.292Z" fill="black"/>
<path d="M138.469 147.044L143.369 145.918C144.038 145.764 144.552 144.943 144.399 144.274L143.273 139.374L142.966 138.038L142.096 134.251C141.942 133.583 141.12 133.069 140.452 133.222L136.888 134.041C136.22 134.195 135.705 135.016 135.859 135.685L136.678 139.248C136.831 139.916 136.317 140.738 135.649 140.892L132.085 141.711C131.417 141.864 130.902 142.686 131.056 143.354L131.875 146.918C132.028 147.586 132.85 148.101 133.518 147.947L138.418 146.821L138.469 147.044Z" fill="black"/>
<path d="M205.363 124.87L201.799 125.689C201.131 125.843 200.616 126.664 200.77 127.332L201.589 130.896C201.742 131.564 202.564 132.079 203.232 131.925L206.796 131.107C207.464 130.953 207.979 130.131 207.825 129.463L207.006 125.899C206.853 125.231 206.031 124.717 205.363 124.87Z" fill="black"/>
<path d="M215.768 134.439C215.921 135.107 216.743 135.622 217.411 135.468L220.975 134.65C221.643 134.496 222.465 135.011 222.618 135.679L223.437 139.243C223.591 139.911 224.413 140.425 225.081 140.272L228.644 139.453C229.313 139.299 229.827 138.478 229.674 137.809L228.548 132.909L227.422 128.009C227.268 127.341 226.446 126.826 225.778 126.98L220.878 128.106L219.542 128.413L215.978 129.232C215.31 129.386 214.795 130.207 214.949 130.875L215.768 134.439Z" fill="black"/>
<path d="M263.866 118.227L258.966 119.353L252.73 120.786L247.83 121.912C247.162 122.066 246.647 122.887 246.8 123.556L247.926 128.456L249.36 134.692L250.537 139.815C250.69 140.483 250.176 141.305 249.507 141.459L245.944 142.277C245.276 142.431 244.761 143.253 244.914 143.921L245.733 147.485C245.887 148.153 246.709 148.667 247.377 148.514L250.941 147.695C251.609 147.541 252.431 148.056 252.584 148.724L253.71 153.624L254.836 158.525C254.99 159.193 255.811 159.707 256.48 159.554L260.043 158.735C260.712 158.581 261.226 157.76 261.073 157.091L259.947 152.191L258.821 147.291C258.667 146.623 259.182 145.801 259.85 145.648L263.414 144.829C264.082 144.675 264.596 143.853 264.443 143.185L263.317 138.285L262.191 133.385C262.037 132.717 261.216 132.202 260.547 132.356L256.984 133.175C256.315 133.328 255.494 132.814 255.34 132.145L254.521 128.582C254.368 127.914 254.882 127.092 255.551 126.938L260.451 125.812L261.787 125.505L265.351 124.686C266.019 124.533 266.534 123.711 266.38 123.043L265.561 119.479C265.528 118.314 264.757 118.022 263.866 118.227Z" fill="black"/>
<path d="M220.329 148.163L223.893 147.344C224.561 147.19 225.076 146.369 224.922 145.7L224.103 142.137C223.95 141.468 223.128 140.954 222.46 141.107L218.896 141.926C218.228 142.08 217.713 142.902 217.867 143.57L218.686 147.133C218.839 147.802 219.438 148.368 220.329 148.163Z" fill="black"/>
<path d="M209.118 157.54L214.018 156.414L215.355 156.107L218.918 155.288C219.587 155.134 220.101 154.313 219.948 153.645L219.129 150.081C218.975 149.413 218.153 148.898 217.485 149.052L213.922 149.87C213.253 150.024 212.432 149.509 212.278 148.841L211.152 143.941L210.845 142.605L210.026 139.041C209.872 138.373 209.051 137.858 208.383 138.012L204.819 138.831C204.151 138.984 203.636 139.806 203.79 140.474L204.916 145.374L206.4 151.833L207.526 156.734C207.628 157.179 208.227 157.745 209.118 157.54Z" fill="black"/>
<path d="M89.8306 191.517L93.3943 190.699C94.0625 190.545 94.5771 189.723 94.4236 189.055L93.2975 184.155L92.9904 182.819L92.1715 179.255C92.018 178.587 91.1962 178.072 90.528 178.226L86.9643 179.044C86.2961 179.198 85.7815 180.02 85.935 180.688L87.061 185.588L88.1871 190.488C88.3406 191.156 89.1624 191.671 89.8306 191.517Z" fill="black"/>
<path d="M140.763 186.615L146.999 185.182L148.335 184.874L151.899 184.056C152.567 183.902 153.082 183.08 152.928 182.412L152.109 178.848C151.956 178.18 151.134 177.666 150.466 177.819L145.566 178.945L140.666 180.071C139.998 180.225 139.176 179.71 139.022 179.042L138.203 175.478C138.05 174.81 137.228 174.295 136.56 174.449L132.996 175.268C132.328 175.421 131.813 176.243 131.967 176.911L132.786 180.475C132.939 181.143 132.425 181.965 131.757 182.118L128.193 182.937C127.525 183.091 126.703 182.576 126.549 181.908L125.73 178.344C125.577 177.676 126.091 176.854 126.76 176.701L130.323 175.882C130.992 175.728 131.506 174.907 131.353 174.238L130.534 170.675C130.38 170.007 129.558 169.492 128.89 169.645L125.327 170.464C124.658 170.618 123.837 170.103 123.683 169.435L122.864 165.871C122.711 165.203 123.225 164.381 123.893 164.228L127.457 163.409C128.125 163.255 128.947 163.77 129.101 164.438L129.817 167.557C129.971 168.225 130.792 168.739 131.461 168.586L135.024 167.767C135.693 167.613 136.207 166.792 136.054 166.123L135.235 162.56C135.081 161.891 135.596 161.07 136.264 160.916L139.828 160.097C140.496 159.944 141.011 159.122 140.857 158.454L140.038 154.89C139.885 154.222 139.063 153.707 138.395 153.861L133.495 154.987L127.258 156.42L121.022 157.853L114.785 159.286L109.44 160.515C108.771 160.668 107.95 160.153 107.796 159.485L106.67 154.585L106.363 153.249L105.544 149.685C105.39 149.017 104.569 148.502 103.901 148.656L100.337 149.475C99.6686 149.628 99.1539 150.45 99.3075 151.118L100.126 154.682C100.28 155.35 99.7653 156.172 99.0971 156.325L93.9743 157.503L89.0742 158.629C88.406 158.782 87.8914 159.604 88.0449 160.272L89.1709 165.172L90.2969 170.072C90.4505 170.74 91.2722 171.255 91.9404 171.102L95.5041 170.283C96.1723 170.129 96.687 169.307 96.5334 168.639L95.7145 165.075C95.561 164.407 96.0756 163.586 96.7438 163.432L100.308 162.613C100.976 162.459 101.797 162.974 101.951 163.642L102.77 167.206C102.923 167.874 103.745 168.389 104.413 168.235L107.977 167.416C108.645 167.263 109.467 167.778 109.621 168.446L110.44 172.009C110.593 172.678 110.078 173.499 109.41 173.653L106.069 174.421C105.401 174.574 104.579 174.06 104.426 173.391L103.607 169.828C103.453 169.159 102.632 168.645 101.963 168.798L98.1769 169.668C97.5087 169.822 96.9941 170.644 97.1476 171.312L98.2736 176.212L99.7068 182.449L100.833 187.349C100.986 188.017 101.808 188.531 102.476 188.378L107.376 187.252L112.276 186.126C112.945 185.972 113.459 185.151 113.306 184.482L112.487 180.919C112.333 180.25 112.848 179.429 113.516 179.275L117.08 178.456C117.748 178.303 118.57 178.817 118.723 179.486L119.849 184.386L120.975 189.286C121.129 189.954 121.951 190.469 122.619 190.315L127.519 189.189L134.424 187.602L140.66 186.169L140.763 186.615Z" fill="black"/>
<path d="M271.135 149.855L267.572 150.674C266.904 150.828 266.389 151.65 266.542 152.318L267.361 155.882C267.515 156.55 268.337 157.064 269.005 156.911L272.569 156.092C273.237 155.938 273.751 155.117 273.598 154.448L272.779 150.885C272.848 150.165 272.026 149.651 271.135 149.855Z" fill="black"/>
<path d="M120.27 191.325L115.37 192.451L114.034 192.758L110.47 193.577C109.802 193.73 109.287 194.552 109.441 195.22L110.26 198.784C110.413 199.452 111.235 199.967 111.903 199.813L116.803 198.687L118.14 198.38L121.703 197.561C122.372 197.408 122.886 196.586 122.733 195.918L121.914 192.354C121.932 191.412 121.161 191.12 120.27 191.325Z" fill="black"/>
<path d="M156.226 189.628L159.789 188.809C160.457 188.655 160.972 187.833 160.819 187.165L160 183.602C159.846 182.933 159.024 182.419 158.356 182.572L154.792 183.391C154.124 183.545 153.61 184.366 153.763 185.035L154.582 188.598C154.736 189.267 155.557 189.781 156.226 189.628Z" fill="black"/>
<path d="M175.381 185.226L178.945 184.407C179.613 184.254 180.127 183.432 179.974 182.764L179.155 179.2C179.001 178.532 178.18 178.017 177.511 178.171L173.948 178.99C173.28 179.143 172.765 179.965 172.918 180.633L173.737 184.197C173.891 184.865 174.49 185.431 175.381 185.226Z" fill="black"/>
<path d="M192.881 174.639C192.213 174.793 191.698 175.614 191.852 176.283L192.671 179.846C192.824 180.515 193.646 181.029 194.314 180.876L197.878 180.057C198.546 179.903 199.061 179.081 198.907 178.413L198.089 174.85C197.935 174.181 197.113 173.667 196.445 173.82L192.881 174.639Z" fill="black"/>
<path d="M264.253 164.804L267.817 163.985C268.485 163.832 268.999 163.01 268.846 162.342L268.027 158.778C267.873 158.11 267.052 157.595 266.384 157.749L262.82 158.568C262.152 158.721 261.637 159.543 261.79 160.211L262.609 163.775C262.763 164.443 263.362 165.009 264.253 164.804Z" fill="black"/>
<path d="M92.5371 209.421C92.6907 210.089 93.5124 210.603 94.1806 210.45L99.0807 209.324L105.317 207.891L106.654 207.584L110.217 206.765C110.886 206.611 111.4 205.789 111.247 205.121L110.428 201.558C110.274 200.889 109.452 200.375 108.784 200.528L104.107 201.603L97.8704 203.036L96.3112 203.394L92.7475 204.213C92.0793 204.367 91.5647 205.189 91.7182 205.857L92.5371 209.421Z" fill="black"/>
<path d="M130.833 195.461C130.165 195.615 129.651 196.437 129.804 197.105L130.623 200.669C130.777 201.337 131.598 201.851 132.267 201.698L135.83 200.879C136.498 200.725 137.013 199.904 136.86 199.236L136.041 195.672C135.887 195.004 135.065 194.489 134.397 194.643L130.833 195.461Z" fill="black"/>
<path d="M189.562 188.769L193.125 187.95C193.794 187.796 194.308 186.975 194.155 186.306L193.336 182.743C193.182 182.074 192.36 181.56 191.692 181.713L186.792 182.839L185.456 183.146L181.892 183.965C181.224 184.119 180.709 184.941 180.863 185.609L181.682 189.173C181.835 189.841 182.657 190.355 183.325 190.202L188.225 189.076L189.562 188.769Z" fill="black"/>
<path d="M274.052 162.554L270.488 163.373C269.82 163.527 269.305 164.349 269.459 165.017L270.278 168.58C270.431 169.249 269.916 170.07 269.248 170.224L265.685 171.043C265.016 171.196 264.195 170.682 264.041 170.014L263.222 166.45C263.069 165.782 262.247 165.267 261.579 165.421L258.015 166.24C257.347 166.393 256.525 165.878 256.371 165.21L255.553 161.646C255.399 160.978 254.577 160.464 253.909 160.617L250.345 161.436C249.677 161.59 249.163 162.411 249.316 163.08L250.135 166.643C250.289 167.312 249.774 168.133 249.106 168.287L245.097 169.208C244.428 169.362 243.607 168.847 243.453 168.179L242.634 164.615C242.481 163.947 242.995 163.125 243.663 162.972L247.227 162.153C247.895 161.999 248.41 161.177 248.256 160.509L247.437 156.945C247.284 156.277 246.462 155.763 245.794 155.916L242.23 156.735C241.562 156.889 240.74 156.374 240.587 155.706L239.461 150.806L239.154 149.469L238.335 145.906C238.181 145.237 237.359 144.723 236.691 144.876L233.128 145.695C232.459 145.849 231.945 146.671 232.098 147.339L232.917 150.902C233.071 151.571 232.556 152.392 231.888 152.546L226.988 153.672L222.088 154.798C221.419 154.952 220.905 155.773 221.058 156.441L222.184 161.342L223.31 166.242C223.464 166.91 224.286 167.425 224.954 167.271L229.854 166.145L234.754 165.019C235.422 164.865 236.244 165.38 236.398 166.048L237.217 169.612C237.37 170.28 236.855 171.102 236.187 171.255L231.287 172.381L226.387 173.507C225.719 173.661 224.897 173.146 224.744 172.478L223.925 168.914C223.771 168.246 222.949 167.732 222.281 167.885L218.717 168.704C218.049 168.858 217.228 168.343 217.074 167.675L216.255 164.111C216.101 163.443 215.28 162.928 214.612 163.082L211.048 163.901C210.38 164.054 209.865 164.876 210.019 165.544L210.837 169.108C210.991 169.776 210.476 170.598 209.808 170.751L206.244 171.57C205.576 171.724 205.062 172.546 205.215 173.214L206.341 178.114L207.467 183.014C207.621 183.682 207.106 184.504 206.438 184.658L201.538 185.784L196.638 186.91C195.97 187.063 195.455 187.885 195.608 188.553L196.734 193.453L198.219 199.912L199.652 206.149L201.085 212.385L202.211 217.285C202.365 217.954 203.186 218.468 203.855 218.315L208.755 217.189L215.214 215.704L221.45 214.271L222.787 213.964L226.35 213.145C227.019 212.992 227.533 212.17 227.38 211.502L226.561 207.938C226.407 207.27 225.585 206.755 224.917 206.909L220.017 208.035L213.781 209.468L208.881 210.594C208.212 210.747 207.391 210.233 207.237 209.565L206.469 206.224C206.316 205.555 206.83 204.734 207.499 204.58L211.062 203.761C211.731 203.608 212.245 202.786 212.092 202.118L211.273 198.554C211.119 197.886 210.297 197.371 209.629 197.525L206.066 198.344C205.397 198.497 204.576 197.983 204.422 197.314L203.603 193.751C203.45 193.082 203.964 192.261 204.632 192.107L208.196 191.288C208.864 191.135 209.686 191.649 209.84 192.318L210.659 195.881C210.812 196.549 211.634 197.064 212.302 196.911L215.866 196.092C216.534 195.938 217.356 196.453 217.509 197.121L218.328 200.685C218.482 201.353 219.303 201.867 219.972 201.714L223.535 200.895C224.204 200.741 225.025 201.256 225.179 201.924L225.998 205.488C226.151 206.156 226.973 206.671 227.641 206.517L232.541 205.391L237.441 204.265C238.11 204.112 238.931 204.626 239.085 205.295L239.904 208.858C240.057 209.526 240.879 210.041 241.547 209.888L245.111 209.069C245.779 208.915 246.294 208.093 246.14 207.425L245.321 203.861C245.168 203.193 245.683 202.372 246.351 202.218L249.914 201.399C250.583 201.245 251.404 201.76 251.558 202.428L252.377 205.992C252.53 206.66 253.352 207.175 254.02 207.021L257.584 206.202C258.252 206.049 258.767 205.227 258.613 204.559L257.794 200.995C257.641 200.327 258.156 199.505 258.824 199.352L262.387 198.533C263.056 198.379 263.877 198.894 264.031 199.562L265.157 204.462L266.283 209.362C266.436 210.03 267.258 210.545 267.926 210.392L273.049 209.214L279.508 207.73L280.845 207.423L284.186 206.655C284.854 206.502 285.369 205.68 285.215 205.012L284.396 201.448C284.243 200.78 283.421 200.265 282.753 200.419L279.189 201.238C278.521 201.391 277.699 200.877 277.546 200.208L276.42 195.308L274.986 189.072L273.86 184.172C273.707 183.503 274.221 182.682 274.89 182.528L278.453 181.709C279.122 181.556 279.636 180.734 279.483 180.066L278.357 175.166L276.924 168.929L276.616 167.593L275.797 164.029C275.764 162.864 274.943 162.35 274.052 162.554ZM267.191 190.863L263.627 191.682C262.959 191.836 262.137 191.321 261.984 190.653L261.165 187.089C261.011 186.421 261.526 185.599 262.194 185.446L265.758 184.627C266.426 184.473 267.248 184.988 267.401 185.656L268.22 189.22C268.596 189.837 268.082 190.658 267.191 190.863ZM256.604 173.364C257.272 173.211 258.094 173.725 258.247 174.393L259.066 177.957C259.22 178.625 258.705 179.447 258.037 179.601L254.473 180.42C253.805 180.573 252.983 180.058 252.83 179.39L252.011 175.827C251.857 175.158 252.372 174.337 253.04 174.183L256.604 173.364ZM218.517 182.116C219.185 181.963 220.007 182.477 220.16 183.146L220.979 186.709C221.133 187.378 220.618 188.199 219.95 188.353L216.386 189.172C215.718 189.325 214.896 188.811 214.743 188.142L213.924 184.579C213.77 183.911 214.285 183.089 214.953 182.935L218.517 182.116ZM243.358 196.34L236.899 197.824L231.999 198.95C231.331 199.104 230.509 198.589 230.356 197.921L229.23 193.021L227.745 186.561L226.619 181.661C226.466 180.993 226.98 180.171 227.649 180.018L232.549 178.892L239.008 177.408L243.908 176.282C244.576 176.128 245.398 176.643 245.552 177.311L246.678 182.211L248.162 188.67L249.288 193.57C249.441 194.238 248.927 195.06 248.259 195.214L243.358 196.34Z" fill="black"/>
<path d="M238.883 184.002L235.319 184.821C234.651 184.974 234.136 185.796 234.29 186.464L235.108 190.028C235.262 190.696 236.084 191.211 236.752 191.057L240.316 190.238C240.984 190.085 241.498 189.263 241.345 188.595L240.526 185.031C240.595 184.312 239.773 183.797 238.883 184.002Z" fill="black"/>
<path d="M187.453 209.184L191.016 208.366C191.685 208.212 192.199 207.39 192.046 206.722L190.92 201.822L190.613 200.486L189.794 196.922C189.64 196.254 188.818 195.739 188.15 195.893L184.586 196.711C183.918 196.865 183.404 197.687 183.557 198.355L184.683 203.255L185.809 208.155C185.963 208.823 186.784 209.338 187.453 209.184Z" fill="black"/>
<path d="M240.124 211.853C239.97 211.185 239.148 210.671 238.48 210.824L234.916 211.643C234.248 211.797 233.734 212.618 233.887 213.287L234.706 216.85C234.86 217.518 235.681 218.033 236.35 217.88L239.913 217.061C240.581 216.907 241.096 216.085 240.943 215.417L240.124 211.853Z" fill="black"/>
<path d="M184.589 231.417C184.436 230.749 183.614 230.234 182.946 230.388L179.382 231.206C178.714 231.36 177.892 230.845 177.738 230.177L176.612 225.277L175.486 220.377C175.333 219.709 175.847 218.887 176.516 218.734L181.416 217.607L182.752 217.3L186.316 216.481C186.984 216.328 187.499 215.506 187.345 214.838L186.424 210.829C186.27 210.161 185.449 209.646 184.78 209.8L181.217 210.618C180.548 210.772 179.727 210.257 179.573 209.589L178.447 204.689L176.963 198.23L175.53 191.993L174.404 187.093C174.25 186.425 173.428 185.91 172.76 186.064L167.86 187.19L166.524 187.497L162.737 188.367C162.069 188.521 161.554 189.342 161.708 190.011L162.527 193.574C162.68 194.243 163.502 194.757 164.17 194.604L167.734 193.785C168.402 193.631 169.224 194.146 169.378 194.814L170.197 198.378C170.35 199.046 169.835 199.868 169.167 200.021L165.604 200.84C164.935 200.994 164.421 201.815 164.574 202.484L165.393 206.047C165.547 206.716 165.032 207.537 164.364 207.691L160.8 208.51C160.132 208.663 159.617 209.485 159.771 210.153L160.59 213.717C160.743 214.385 160.229 215.207 159.56 215.36L155.997 216.179C155.329 216.333 154.507 215.818 154.353 215.15L153.534 211.586C153.381 210.918 153.895 210.096 154.564 209.943L158.127 209.124C158.796 208.97 159.31 208.149 159.157 207.48L158.338 203.917C158.184 203.249 157.362 202.734 156.694 202.887L153.131 203.706C152.462 203.86 151.641 203.345 151.487 202.677L150.668 199.113C150.515 198.445 151.029 197.623 151.697 197.47L155.261 196.651C155.929 196.497 156.444 195.676 156.29 195.007L155.471 191.444C155.318 190.776 154.496 190.261 153.828 190.414L148.928 191.541L144.028 192.667C143.36 192.82 142.845 193.642 142.999 194.31L144.125 199.21L145.558 205.447L147.042 211.906L148.475 218.142L149.601 223.042C149.755 223.711 150.576 224.225 151.245 224.072L156.145 222.946L162.604 221.461L167.504 220.335C168.172 220.182 168.994 220.696 169.147 221.365L169.966 224.928C170.12 225.597 169.605 226.418 168.937 226.572L164.037 227.698L159.137 228.824C158.469 228.977 157.954 229.799 158.108 230.467L159.336 235.813L160.82 242.272L161.895 246.95C162.049 247.618 162.87 248.132 163.539 247.979L168.439 246.853L173.339 245.727C174.007 245.573 174.522 244.751 174.368 244.083L173.549 240.52C173.396 239.851 173.91 239.03 174.578 238.876L179.479 237.75L180.815 237.443L184.379 236.624C185.047 236.471 185.562 235.649 185.408 234.981L184.589 231.417Z" fill="black"/>
<path d="M197.284 228.497C197.13 227.829 197.645 227.007 198.313 226.854L201.877 226.035C202.545 225.881 203.059 225.06 202.906 224.391L202.087 220.828C201.933 220.159 201.112 219.645 200.443 219.798L195.543 220.924L189.084 222.409L187.748 222.716L184.184 223.535C183.516 223.688 183.001 224.51 183.155 225.178L183.974 228.742C184.127 229.41 184.949 229.925 185.617 229.771L189.181 228.952C189.849 228.799 190.671 229.313 190.824 229.982L191.643 233.545C191.797 234.213 192.619 234.728 193.287 234.575L196.85 233.756C197.519 233.602 198.033 232.78 197.88 232.112L197.061 228.548L197.284 228.497Z" fill="black"/>
<path d="M209.979 225.582C209.826 224.914 209.004 224.399 208.336 224.553L204.772 225.372C204.104 225.525 203.589 226.347 203.743 227.015L204.562 230.579C204.715 231.247 205.537 231.762 206.205 231.608L209.769 230.789C210.437 230.636 210.952 229.814 210.798 229.146L209.979 225.582Z" fill="black"/>
<path d="M227.269 220.202L223.706 221.021C223.037 221.175 222.523 221.996 222.676 222.665L223.495 226.228C223.649 226.896 224.47 227.411 225.139 227.258L228.702 226.439C229.371 226.285 229.885 225.463 229.732 224.795L228.913 221.231C228.708 220.34 227.937 220.049 227.269 220.202Z" fill="black"/>
<path d="M248.068 216.829C247.914 216.161 247.093 215.646 246.425 215.8L242.861 216.619C242.193 216.772 241.678 217.594 241.832 218.262L242.65 221.826C242.804 222.494 243.626 223.009 244.294 222.855L247.858 222.036C248.526 221.883 249.04 221.061 248.887 220.393L248.068 216.829Z" fill="black"/>
<path d="M267 212.479C266.846 211.811 266.025 211.296 265.357 211.45L260.456 212.576L255.334 213.753C254.665 213.906 254.151 214.728 254.304 215.396L255.123 218.96C255.277 219.628 254.762 220.45 254.094 220.604L250.53 221.423C249.862 221.576 249.347 222.398 249.501 223.066L250.32 226.63C250.473 227.298 251.295 227.813 251.963 227.659L256.863 226.533L261.764 225.407C262.432 225.253 262.946 224.432 262.793 223.764L261.974 220.2C261.82 219.532 262.335 218.71 263.003 218.556L266.567 217.737C267.235 217.584 267.75 216.762 267.596 216.094L266.777 212.53L267 212.479Z" fill="black"/>
<path d="M190.614 235.188L187.05 236.007C186.382 236.161 185.867 236.983 186.021 237.651L186.84 241.215C186.993 241.883 187.815 242.397 188.483 242.244L192.047 241.425C192.715 241.271 193.23 240.45 193.076 239.781L192.257 236.218C192.104 235.55 191.282 235.035 190.614 235.188Z" fill="black"/>
<path d="M203.311 232.271L199.748 233.09C199.079 233.244 198.565 234.066 198.718 234.734L199.537 238.298C199.691 238.966 200.512 239.48 201.181 239.327L204.744 238.508C205.413 238.354 205.927 237.533 205.774 236.864L204.955 233.301C204.801 232.633 203.979 232.118 203.311 232.271Z" fill="black"/>
<path d="M222.242 227.921L217.342 229.047L216.006 229.354L212.442 230.173C211.774 230.327 211.259 231.149 211.413 231.817L212.231 235.381C212.385 236.049 213.207 236.563 213.875 236.41L218.775 235.284L220.111 234.977L223.675 234.158C224.343 234.004 224.858 233.183 224.704 232.514L223.886 228.951C223.955 228.231 223.133 227.717 222.242 227.921Z" fill="black"/>
<path d="M279.485 214.767L274.585 215.893L273.249 216.2L269.685 217.019C269.017 217.173 268.502 217.994 268.656 218.663L269.475 222.226C269.628 222.894 270.45 223.409 271.118 223.256L276.018 222.13L277.355 221.822L280.918 221.004C281.587 220.85 282.101 220.028 281.948 219.36L281.129 215.796C280.975 215.128 280.153 214.613 279.485 214.767Z" fill="black"/>
<path d="M73.8103 121.804L115.461 112.233C116.129 112.079 116.644 111.257 116.49 110.589L115.364 105.689L113.88 99.2297L112.447 92.9932L110.963 86.534L109.478 80.0748L108.045 73.8383L106.868 68.7155C106.937 67.9961 106.115 67.4814 105.225 67.6862L63.5737 77.2574C62.9055 77.4109 62.3909 78.2326 62.5444 78.9008L63.6704 83.8009L65.1035 90.0374L66.5878 96.4967L68.021 102.733L69.4541 108.97L70.9384 115.429L72.0644 120.329C72.3203 121.443 73.1421 121.957 73.8103 121.804ZM76.0157 107.931L74.5825 101.694L73.0982 95.2351L71.6139 88.7759L70.3344 83.2076C70.232 82.7621 70.4036 82.4882 70.849 82.3858L101.141 75.425C101.586 75.3226 101.911 75.7169 101.962 75.9396L103.242 81.5079L104.726 87.9671L106.159 94.2036L107.592 100.44L108.872 106.008C108.974 106.454 108.58 106.779 108.357 106.83L78.0658 113.791C77.6203 113.893 77.2952 113.499 77.2441 113.276L76.0157 107.931Z" fill="black"/>
<path d="M83.5867 106.19L99.8462 102.453C100.514 102.3 101.029 101.478 100.875 100.81L99.7494 95.9097L98.2651 89.4505L97.0879 84.3277C96.9344 83.6595 96.1126 83.1448 95.4444 83.2984L79.185 87.0347C78.5168 87.1882 78.0022 88.01 78.1557 88.6782L79.2818 93.5783L80.7149 99.8148L81.8409 104.715C82.0968 105.829 82.9186 106.343 83.5867 106.19Z" fill="black"/>
<path d="M244.877 35.5944L203.226 45.1656C202.558 45.3191 202.043 46.1409 202.197 46.809L203.323 51.7091L204.756 57.9456L206.24 64.4049L207.673 70.6413L209.106 76.8778L210.591 83.3371L211.717 88.2372C211.87 88.9053 212.692 89.42 213.36 89.2664L255.011 79.6953C255.679 79.5417 256.194 78.72 256.04 78.0518L254.914 73.1517L253.43 66.6925L251.997 60.456L250.615 54.4422L249.131 47.983L247.698 41.7465L246.52 36.6237C246.59 35.9043 245.768 35.3896 244.877 35.5944ZM242.894 49.4161L244.379 55.8753L245.812 62.1118L247.245 68.3483L248.524 73.9166C248.627 74.3621 248.232 74.6872 248.01 74.7383L217.718 81.6992C217.273 81.8016 216.948 81.4073 216.896 81.1846L215.617 75.6163L214.184 69.3798L212.751 63.1433L211.266 56.6841L209.987 51.1158C209.884 50.6703 210.279 50.3452 210.501 50.294L240.793 43.3332C241.238 43.2308 241.563 43.6251 241.615 43.8478L242.894 49.4161Z" fill="black"/>
<path d="M235.1 51.2066L218.84 54.9429C218.172 55.0965 217.657 55.9182 217.811 56.5864L218.937 61.4865L220.37 67.723L221.496 72.6231C221.65 73.2913 222.471 73.8059 223.14 73.6524L239.399 69.916C240.067 69.7625 240.582 68.9407 240.428 68.2725L239.302 63.3724L237.92 57.3587L236.743 52.2359C236.812 51.5165 235.991 51.0018 235.1 51.2066Z" fill="black"/>
<path d="M137.316 207.34L95.6655 216.912C94.9973 217.065 94.4826 217.887 94.6362 218.555L95.7622 223.455L97.1953 229.692L98.6285 235.928L100.113 242.387L101.648 249.069L103.133 255.529L104.207 260.206C104.361 260.874 105.183 261.389 105.851 261.235L147.502 251.664C148.17 251.511 148.685 250.689 148.531 250.021L147.405 245.121L145.972 238.884L144.539 232.648L143.054 226.188L141.621 219.952L140.188 213.715L139.062 208.815C139.029 207.65 138.207 207.136 137.316 207.34ZM135.334 221.162L136.767 227.399L138.251 233.858L139.735 240.317L141.015 245.885C141.117 246.331 140.723 246.656 140.5 246.707L110.209 253.668C109.763 253.77 109.438 253.376 109.387 253.153L108.107 247.585L106.674 241.349L105.19 234.889L103.757 228.653L102.477 223.085C102.375 222.639 102.769 222.314 102.992 222.263L133.284 215.302C133.729 215.2 134.054 215.594 134.105 215.817L135.334 221.162Z" fill="black"/>
<path d="M127.537 222.954L111.278 226.69C110.61 226.844 110.095 227.665 110.249 228.333L111.375 233.234L112.859 239.693L113.985 244.593C114.19 245.484 115.011 245.998 115.68 245.845L131.939 242.109C132.607 241.955 133.122 241.133 132.968 240.465L131.842 235.565L130.358 229.106L129.181 223.983C129.25 223.264 128.428 222.749 127.537 222.954Z" fill="black"/>
</g>
<path d="M74.0896 66.6325L61.4198 69.5439C56.5755 70.6571 53.5509 75.4867 54.6641 80.331L57.3516 92.0261" stroke="black" stroke-width="2"/>
<path d="M94.1198 249.799L97.0312 262.469C98.1444 267.313 102.974 270.338 107.818 269.225L119.513 266.537" stroke="black" stroke-width="2"/>
<path d="M276.911 230.368L289.581 227.456C294.425 226.343 297.45 221.513 296.337 216.669L293.649 204.974" stroke="black" stroke-width="2"/>
<path d="M256.881 47.2009L253.97 34.5312C252.857 29.6869 248.027 26.6622 243.183 27.7754L231.488 30.4629" stroke="black" stroke-width="2"/>
</g>
<defs>
<filter id="filter0_d" x="0.669922" y="0.669922" width="323.661" height="323.66" filterUnits="userSpaceOnUse" color-interpolation-filters="sRGB">
<feFlood flood-opacity="0" result="BackgroundImageFix"/>
<feColorMatrix in="SourceAlpha" type="matrix" values="0 0 0 0 0 0 0 0 0 0 0 0 0 0 0 0 0 0 127 0" result="hardAlpha"/>
<feOffset dx="-13" dy="14"/>
<feGaussianBlur stdDeviation="10.5"/>
<feComposite in2="hardAlpha" operator="out"/>
<feColorMatrix type="matrix" values="0 0 0 0 0 0 0 0 0 0 0 0 0 0 0 0 0 0 0.08 0"/>
<feBlend mode="normal" in2="BackgroundImageFix" result="effect1_dropShadow"/>
<feBlend mode="normal" in="SourceGraphic" in2="effect1_dropShadow" result="shape"/>
</filter>
<clipPath id="clip0">
<rect width="189" height="189" fill="white" transform="translate(62.2373 77.5645) rotate(-12.9416)"/>
</clipPath>
</defs>
</svg>
