<svg width="440" height="245" viewBox="0 0 440 245" fill="none" xmlns="http://www.w3.org/2000/svg">
<g filter="url(#filter0_d)">
<rect x="34" y="7" width="398" height="203" rx="4" fill="white"/>
<path d="M62.7416 49.3812L69.9085 35.149V49H71.7638V31.2097H69.9085L62.7162 45.5182L55.5238 31.2097H53.6685V49H55.5238V35.149L62.7162 49.3812H62.7416ZM80.2745 49.2796C82.2314 49.2796 83.6547 48.1359 84.0105 47.3226V49H85.637V41.5281C85.637 39.2154 83.8326 37.2838 80.859 37.2838C78.4446 37.2838 76.9452 38.58 76.2336 40.2828L77.6314 41.1977C78.1143 39.9524 79.1308 39.012 80.859 39.012C82.816 39.012 83.7817 40.1557 83.7817 41.0452C83.7817 41.7568 83.248 42.2651 82.4093 42.2651H79.6646C77.4789 42.2651 75.8269 43.5613 75.8269 45.5944C75.8269 47.6276 77.5806 49.2796 80.2745 49.2796ZM80.2745 47.5514C78.6226 47.5514 77.733 46.6619 77.733 45.5944C77.733 44.5778 78.5209 43.8408 79.69 43.8408H83.858V43.9933C83.858 46.1027 82.5364 47.5514 80.2745 47.5514ZM93.4044 42.5701L99.0464 37.5634H96.4541L91.3458 42.1889V31.2097H89.5667V49H91.3458V43.0276L97.0641 49H99.6055L93.4044 42.5701ZM106.32 49.2796C108.531 49.2796 110.488 48.1613 111.53 46.3569L110.081 45.4165C109.319 46.7127 107.87 47.5005 106.32 47.5005C104.465 47.5005 102.482 46.2044 102.177 43.8662H111.987C112.445 40.1811 109.726 37.2838 106.193 37.2838C102.635 37.2838 100.246 40.054 100.246 43.2817C100.246 46.5348 102.864 49.2796 106.32 49.2796ZM102.254 42.2143C102.66 40.4098 104.058 39.0375 106.193 39.0375C108.404 39.0375 109.903 40.6386 110.03 42.2143H102.254ZM126.165 49.2796C128.122 49.2796 129.545 48.1359 129.901 47.3226V49H131.527V41.5281C131.527 39.2154 129.723 37.2838 126.749 37.2838C124.335 37.2838 122.836 38.58 122.124 40.2828L123.522 41.1977C124.005 39.9524 125.021 39.012 126.749 39.012C128.706 39.012 129.672 40.1557 129.672 41.0452C129.672 41.7568 129.138 42.2651 128.3 42.2651H125.555C123.369 42.2651 121.717 43.5613 121.717 45.5944C121.717 47.6276 123.471 49.2796 126.165 49.2796ZM126.165 47.5514C124.513 47.5514 123.623 46.6619 123.623 45.5944C123.623 44.5778 124.411 43.8408 125.58 43.8408H129.748V43.9933C129.748 46.1027 128.427 47.5514 126.165 47.5514ZM137.236 49V42.5701C137.236 40.4098 138.634 39.012 140.489 39.012C142.319 39.012 143.539 40.2574 143.539 42.2143V49H145.318V41.8331C145.318 39.2662 143.564 37.2838 140.794 37.2838C138.761 37.2838 137.49 38.4275 137.084 39.2408V37.5634H135.457V49H137.236ZM159.592 49.2796C161.397 49.2796 162.617 48.39 163.049 47.7293V49H165.285V41.706C165.285 39.3678 163.506 37.1822 160.253 37.1822C157.839 37.1822 156.263 38.4783 155.526 40.1303L157.331 41.2994C157.788 40.2065 158.703 39.3678 160.253 39.3678C162.007 39.3678 162.846 40.359 162.846 41.1215C162.846 41.7568 162.388 42.1889 161.651 42.1889H159.008C156.771 42.1889 155.145 43.485 155.145 45.5182C155.145 47.6022 156.873 49.2796 159.592 49.2796ZM159.796 47.1956C158.423 47.1956 157.661 46.4585 157.661 45.5436C157.661 44.7049 158.322 44.0696 159.287 44.0696H162.896V44.222C162.896 45.9502 161.727 47.1956 159.796 47.1956ZM174.985 37.1822C173.612 37.1822 172.265 37.6651 171.223 38.5292V37.4617H168.809V54.8708H171.223V47.9326C172.265 48.7967 173.612 49.2796 174.985 49.2796C178.416 49.2796 181.084 46.6364 181.084 43.2309C181.084 39.8507 178.416 37.1822 174.985 37.1822ZM174.883 46.9414C172.825 46.9414 171.249 45.3657 171.249 43.2309C171.249 41.096 172.825 39.5203 174.883 39.4949C176.993 39.5203 178.543 41.096 178.543 43.2309C178.543 45.3657 176.993 46.9414 174.883 46.9414ZM190.199 37.1822C188.826 37.1822 187.479 37.6651 186.437 38.5292V37.4617H184.023V54.8708H186.437V47.9326C187.479 48.7967 188.826 49.2796 190.199 49.2796C193.63 49.2796 196.298 46.6364 196.298 43.2309C196.298 39.8507 193.63 37.1822 190.199 37.1822ZM190.097 46.9414C188.039 46.9414 186.463 45.3657 186.463 43.2309C186.463 41.096 188.039 39.5203 190.097 39.4949C192.207 39.5203 193.757 41.096 193.757 43.2309C193.757 45.3657 192.207 46.9414 190.097 46.9414ZM204.727 49.2796C208.259 49.2796 210.928 46.6619 210.928 43.2309C210.928 39.7999 208.259 37.1822 204.727 37.1822C201.219 37.1822 198.526 39.7999 198.526 43.2309C198.526 46.6619 201.219 49.2796 204.727 49.2796ZM204.727 46.9414C202.617 46.9414 201.067 45.3657 201.067 43.2309C201.067 41.096 202.617 39.5203 204.727 39.4949C206.811 39.5203 208.386 41.096 208.386 43.2309C208.386 45.3657 206.811 46.9414 204.727 46.9414ZM214.948 34.7678C215.914 34.7678 216.626 34.0816 216.626 33.1667C216.626 32.2517 215.914 31.5401 214.948 31.5401C214.033 31.5401 213.296 32.2517 213.296 33.1667C213.296 34.0816 214.033 34.7678 214.948 34.7678ZM216.168 49V37.4617H213.754V49H216.168ZM222.152 49V42.4684C222.152 40.6132 223.346 39.4441 224.948 39.4441C226.574 39.4441 227.591 40.5877 227.591 42.2397V49H230.005V41.7314C230.005 39.1645 228.15 37.1822 225.43 37.1822C223.626 37.1822 222.432 38.0971 222 38.7833V37.4617H219.738V49H222.152ZM240.274 49.1525V46.916H238.901C237.808 46.916 236.792 46.3569 236.792 44.8066V39.5712H240.274V37.4617H236.792V34.6661H235.013V34.717C235.013 36.7756 233.767 37.8176 232.421 37.8176H232.344V39.5712H234.377V45.0353C234.377 47.8055 236.055 49.1525 238.596 49.1525H240.274ZM245.73 49V42.4684C245.73 40.664 246.874 39.4441 248.449 39.4441C250.076 39.4441 251.042 40.5877 251.042 42.2397V49H253.456V42.4684C253.456 40.664 254.574 39.4441 256.175 39.4441C257.802 39.4441 258.717 40.5877 258.717 42.2397V49H261.131V41.7314C261.131 39.1645 259.251 37.1822 256.455 37.1822C254.244 37.1822 253.1 38.4021 252.668 39.1137C252.033 38.0463 250.737 37.1822 248.958 37.1822C247.153 37.1822 246.01 38.0971 245.578 38.7833V37.4617H243.316V49H245.73ZM270.174 49.2796C272.436 49.2796 274.342 48.2121 275.41 46.4839L273.504 45.1878C272.843 46.2806 271.572 46.9668 270.174 46.9668C268.497 46.9668 266.896 45.874 266.566 43.9425H276.045C276.452 40.1049 273.758 37.1822 270.098 37.1822C266.438 37.1822 263.973 39.9778 263.973 43.2309C263.973 46.4839 266.591 49.2796 270.174 49.2796ZM266.642 42.0872C267.023 40.5877 268.243 39.4187 270.098 39.4187C271.979 39.4187 273.3 40.7402 273.504 42.0872H266.642ZM281.445 49V42.4684C281.445 40.6132 282.639 39.4441 284.24 39.4441C285.867 39.4441 286.883 40.5877 286.883 42.2397V49H289.298V41.7314C289.298 39.1645 287.442 37.1822 284.723 37.1822C282.919 37.1822 281.724 38.0971 281.292 38.7833V37.4617H279.03V49H281.445ZM299.566 49.1525V46.916H298.194C297.101 46.916 296.084 46.3569 296.084 44.8066V39.5712H299.566V37.4617H296.084V34.6661H294.305V34.717C294.305 36.7756 293.06 37.8176 291.713 37.8176H291.637V39.5712H293.67V45.0353C293.67 47.8055 295.347 49.1525 297.889 49.1525H299.566Z" fill="black"/>
<rect x="51" y="90" width="170" height="38" rx="3" fill="white" stroke="black" stroke-width="2"/>
<rect x="244" y="90" width="170" height="38" rx="3" fill="white" stroke="black" stroke-width="2"/>
<rect x="50" y="150" width="365" height="40" rx="4" fill="black"/>
<path d="M83.1799 114V103.648H82.5399L79.0519 105.888V107.696L81.5959 106.032V114H83.1799ZM87.5586 114L92.1666 103.76H84.9346V105.248H89.8146L85.7506 114H87.5586ZM100.154 114.176C101.994 114.176 102.938 113.104 102.938 111.888C102.938 110.8 102.314 109.92 100.442 109.584C99.6903 109.456 99.2103 109.216 99.2103 108.656C99.2103 108.224 99.5783 107.872 100.234 107.872C100.762 107.872 101.274 108.176 101.434 108.72L102.698 108.144C102.362 107.216 101.498 106.56 100.218 106.56C98.6343 106.56 97.6903 107.552 97.6903 108.672C97.6903 110.192 98.9062 110.736 100.138 110.96C100.922 111.12 101.402 111.376 101.402 111.92C101.402 112.448 100.954 112.768 100.17 112.768C99.5623 112.768 99.0182 112.416 98.7783 111.856L97.4503 112.464C97.8503 113.392 98.6983 114.176 100.154 114.176ZM108.077 114.176C109.501 114.176 110.701 113.504 111.373 112.416L110.173 111.6C109.757 112.288 108.957 112.72 108.077 112.72C107.021 112.72 106.013 112.032 105.805 110.816H111.773C112.029 108.4 110.333 106.56 108.029 106.56C105.725 106.56 104.173 108.32 104.173 110.368C104.173 112.416 105.821 114.176 108.077 114.176ZM105.853 109.648C106.093 108.704 106.861 107.968 108.029 107.968C109.213 107.968 110.045 108.8 110.173 109.648H105.853ZM117.54 106.56C116.676 106.56 115.828 106.864 115.172 107.408V106.736H113.652V117.696H115.172V113.328C115.828 113.872 116.676 114.176 117.54 114.176C119.7 114.176 121.38 112.512 121.38 110.368C121.38 108.24 119.7 106.56 117.54 106.56ZM117.476 112.704C116.18 112.704 115.188 111.712 115.188 110.368C115.188 109.024 116.18 108.032 117.476 108.016C118.804 108.032 119.78 109.024 119.78 110.368C119.78 111.712 118.804 112.704 117.476 112.704ZM127.518 114.096V112.688H126.654C125.966 112.688 125.326 112.336 125.326 111.36V108.064H127.518V106.736H125.326V104.976H124.206V105.008C124.206 106.304 123.422 106.96 122.574 106.96H122.526V108.064H123.806V111.504C123.806 113.248 124.862 114.096 126.462 114.096H127.518ZM132.577 114.176C134.001 114.176 135.201 113.504 135.873 112.416L134.673 111.6C134.257 112.288 133.457 112.72 132.577 112.72C131.521 112.72 130.513 112.032 130.305 110.816H136.273C136.529 108.4 134.833 106.56 132.529 106.56C130.225 106.56 128.673 108.32 128.673 110.368C128.673 112.416 130.321 114.176 132.577 114.176ZM130.353 109.648C130.593 108.704 131.361 107.968 132.529 107.968C133.713 107.968 134.545 108.8 134.673 109.648H130.353ZM139.672 114V109.888C139.672 108.752 140.392 107.984 141.384 107.984C142.408 107.984 143.016 108.704 143.016 109.744V114H144.536V109.888C144.536 108.752 145.24 107.984 146.248 107.984C147.272 107.984 147.848 108.704 147.848 109.744V114H149.368V109.424C149.368 107.808 148.184 106.56 146.424 106.56C145.032 106.56 144.312 107.328 144.04 107.776C143.64 107.104 142.824 106.56 141.704 106.56C140.568 106.56 139.848 107.136 139.576 107.568V106.736H138.152V114H139.672ZM155.493 106.56C154.629 106.56 153.781 106.864 153.125 107.408V102.8H151.605V114H153.125V113.328C153.781 113.872 154.629 114.176 155.493 114.176C157.637 114.176 159.333 112.512 159.333 110.368C159.333 108.24 157.637 106.56 155.493 106.56ZM155.429 112.704C154.117 112.704 153.125 111.712 153.125 110.368C153.125 109.024 154.117 108.032 155.429 108.016C156.757 108.032 157.733 109.024 157.733 110.368C157.733 111.712 156.757 112.704 155.429 112.704ZM164.639 114.176C166.063 114.176 167.263 113.504 167.935 112.416L166.735 111.6C166.319 112.288 165.519 112.72 164.639 112.72C163.583 112.72 162.575 112.032 162.367 110.816H168.335C168.591 108.4 166.895 106.56 164.591 106.56C162.287 106.56 160.735 108.32 160.735 110.368C160.735 112.416 162.383 114.176 164.639 114.176ZM162.415 109.648C162.655 108.704 163.423 107.968 164.591 107.968C165.775 107.968 166.607 108.8 166.735 109.648H162.415ZM171.735 114V110.112C171.735 108.896 172.439 108.064 173.655 108.064H174.295V106.576H173.766C172.839 106.576 171.991 107.024 171.639 107.744V106.736H170.215V114H171.735Z" fill="black"/>
<path d="M54.164 83C56.516 83 58.376 81.116 58.376 78.788C58.376 76.484 56.516 74.6 54.164 74.6H51.128V83H54.164ZM52.388 75.764H53.96C55.688 75.764 57.044 76.94 57.044 78.788C57.044 80.648 55.688 81.836 53.96 81.836H52.388V75.764ZM61.606 83.132C62.458 83.132 63.034 82.712 63.238 82.4V83H64.294V79.556C64.294 78.452 63.454 77.42 61.918 77.42C60.778 77.42 60.034 78.032 59.686 78.812L60.538 79.364C60.754 78.848 61.186 78.452 61.918 78.452C62.746 78.452 63.142 78.92 63.142 79.28C63.142 79.58 62.926 79.784 62.578 79.784H61.33C60.274 79.784 59.506 80.396 59.506 81.356C59.506 82.34 60.322 83.132 61.606 83.132ZM61.702 82.148C61.054 82.148 60.694 81.8 60.694 81.368C60.694 80.972 61.006 80.672 61.462 80.672H63.166V80.744C63.166 81.56 62.614 82.148 61.702 82.148ZM69.1386 83.072V82.016H68.4906C67.9746 82.016 67.4946 81.752 67.4946 81.02V78.548H69.1386V77.552H67.4946V76.232H66.6546V76.256C66.6546 77.228 66.0666 77.72 65.4306 77.72H65.3946V78.548H66.3546V81.128C66.3546 82.436 67.1466 83.072 68.3466 83.072H69.1386ZM72.9326 83.132C74.0006 83.132 74.9006 82.628 75.4046 81.812L74.5046 81.2C74.1926 81.716 73.5926 82.04 72.9326 82.04C72.1406 82.04 71.3846 81.524 71.2286 80.612H75.7046C75.8966 78.8 74.6246 77.42 72.8966 77.42C71.1686 77.42 70.0046 78.74 70.0046 80.276C70.0046 81.812 71.2406 83.132 72.9326 83.132ZM71.2646 79.736C71.4446 79.028 72.0206 78.476 72.8966 78.476C73.7846 78.476 74.4086 79.1 74.5046 79.736H71.2646Z" fill="black"/>
<path d="M249.828 78.116H245.388V74.6H244.128V83H245.388V79.292H249.828V83H251.088V74.6H249.828V78.116ZM255.667 83.132C257.335 83.132 258.595 81.896 258.595 80.276C258.595 78.656 257.335 77.42 255.667 77.42C254.011 77.42 252.739 78.656 252.739 80.276C252.739 81.896 254.011 83.132 255.667 83.132ZM255.667 82.028C254.671 82.028 253.939 81.284 253.939 80.276C253.939 79.268 254.671 78.524 255.667 78.512C256.651 78.524 257.395 79.268 257.395 80.276C257.395 81.284 256.651 82.028 255.667 82.028ZM262.221 83.132C263.841 83.132 264.633 82.004 264.633 80.636V77.552H263.493V80.66C263.493 81.5 263.001 82.04 262.221 82.04C261.429 82.04 260.949 81.5 260.949 80.66V77.552H259.809V80.636C259.809 82.004 260.589 83.132 262.221 83.132ZM267.317 83V80.084C267.317 79.172 267.845 78.548 268.757 78.548H269.237V77.432H268.84C268.145 77.432 267.509 77.768 267.245 78.308V77.552H266.177V83H267.317Z" fill="black"/>
<path d="M279.805 114V103.648H279.165L275.677 105.888V107.696L278.221 106.032V114H279.805ZM286.024 114V103.648H285.384L281.896 105.888V107.696L284.44 106.032V114H286.024ZM289.122 109.136C289.762 109.136 290.21 108.656 290.21 108.08C290.21 107.504 289.762 107.024 289.122 107.024C288.498 107.024 288.05 107.504 288.05 108.08C288.05 108.656 288.498 109.136 289.122 109.136ZM289.122 114.16C289.762 114.16 290.21 113.68 290.21 113.104C290.21 112.512 289.762 112.032 289.122 112.032C288.498 112.032 288.05 112.512 288.05 113.104C288.05 113.68 288.498 114.16 289.122 114.16ZM295.608 114.16C297.96 114.16 299.4 112.32 299.4 108.896C299.4 105.488 297.96 103.6 295.608 103.6C293.256 103.6 291.832 105.472 291.832 108.896C291.832 112.32 293.256 114.16 295.608 114.16ZM295.608 112.64C294.2 112.64 293.464 111.44 293.464 108.896C293.464 106.352 294.2 105.12 295.608 105.12C297.016 105.12 297.768 106.352 297.768 108.896C297.768 111.44 297.016 112.64 295.608 112.64ZM304.874 114.16C307.226 114.16 308.666 112.32 308.666 108.896C308.666 105.488 307.226 103.6 304.874 103.6C302.522 103.6 301.098 105.472 301.098 108.896C301.098 112.32 302.522 114.16 304.874 114.16ZM304.874 112.64C303.466 112.64 302.73 111.44 302.73 108.896C302.73 106.352 303.466 105.12 304.874 105.12C306.282 105.12 307.034 106.352 307.034 108.896C307.034 111.44 306.282 112.64 304.874 112.64ZM319.271 110.288V108.992H314.999V110.288H319.271ZM329.758 114V103.648H329.118L325.63 105.888V107.696L328.174 106.032V114H329.758ZM337.449 110.4C338.393 109.392 339.081 108.336 339.081 107.024C339.081 105.392 337.689 103.6 335.385 103.6C333.193 103.6 331.865 105.312 331.865 106.944C331.865 107.792 332.265 108.8 332.937 109.392L333.993 108.368C333.657 108.048 333.449 107.472 333.449 107.024C333.449 106.016 334.217 105.12 335.385 105.12C336.761 105.12 337.433 106.192 337.433 107.024C337.433 108.144 336.697 109.008 335.881 109.872L332.073 114H338.985V112.528H335.465L337.449 110.4ZM341.81 109.136C342.45 109.136 342.898 108.656 342.898 108.08C342.898 107.504 342.45 107.024 341.81 107.024C341.186 107.024 340.738 107.504 340.738 108.08C340.738 108.656 341.186 109.136 341.81 109.136ZM341.81 114.16C342.45 114.16 342.898 113.68 342.898 113.104C342.898 112.512 342.45 112.032 341.81 112.032C341.186 112.032 340.738 112.512 340.738 113.104C340.738 113.68 341.186 114.16 341.81 114.16ZM348.296 114.16C350.648 114.16 352.088 112.32 352.088 108.896C352.088 105.488 350.648 103.6 348.296 103.6C345.944 103.6 344.52 105.472 344.52 108.896C344.52 112.32 345.944 114.16 348.296 114.16ZM348.296 112.64C346.888 112.64 346.152 111.44 346.152 108.896C346.152 106.352 346.888 105.12 348.296 105.12C349.704 105.12 350.456 106.352 350.456 108.896C350.456 111.44 349.704 112.64 348.296 112.64ZM357.562 114.16C359.914 114.16 361.354 112.32 361.354 108.896C361.354 105.488 359.914 103.6 357.562 103.6C355.21 103.6 353.786 105.472 353.786 108.896C353.786 112.32 355.21 114.16 357.562 114.16ZM357.562 112.64C356.154 112.64 355.418 111.44 355.418 108.896C355.418 106.352 356.154 105.12 357.562 105.12C358.97 105.12 359.722 106.352 359.722 108.896C359.722 111.44 358.97 112.64 357.562 112.64Z" fill="black"/>
<path d="M181.132 174.606L184.176 167.907V174.529H186.256V163.823H183.855L180.505 171.226L177.141 163.823H174.739V174.529H176.819V167.907L179.863 174.606H181.132ZM190.829 174.698C191.778 174.698 192.389 174.361 192.68 174.04V174.529H194.454V170.278C194.454 168.825 193.414 167.326 191.258 167.326C189.82 167.326 188.795 168.121 188.352 169.069L189.728 169.956C189.973 169.436 190.478 169.008 191.258 169.008C192.16 169.008 192.604 169.498 192.604 169.834C192.604 170.17 192.374 170.369 192.007 170.369H190.478C189.101 170.369 188.122 171.165 188.122 172.388C188.122 173.658 189.147 174.698 190.829 174.698ZM191.089 173.168C190.447 173.168 190.08 172.847 190.08 172.434C190.08 172.021 190.386 171.746 190.829 171.746H192.588V171.838C192.588 172.572 192.022 173.168 191.089 173.168ZM200.032 170.599L202.785 167.494H200.338L198.212 169.987V163.823H196.3V174.529H198.212V171.272L200.705 174.529H203.121L200.032 170.599ZM206.836 174.698C208.197 174.698 209.329 174.07 210.002 173.122L208.487 172.052C208.166 172.602 207.539 172.923 206.836 172.939C205.949 172.923 205.23 172.419 205.016 171.562H210.491C210.705 169.1 209.099 167.326 206.805 167.326C204.511 167.326 202.982 169.039 202.982 171.012C202.982 173 204.557 174.698 206.836 174.698ZM205.062 170.278C205.276 169.574 205.903 169.054 206.805 169.039C207.707 169.054 208.35 169.62 208.549 170.278H205.062ZM218.206 174.698C219.155 174.698 219.766 174.361 220.057 174.04V174.529H221.831V170.278C221.831 168.825 220.791 167.326 218.635 167.326C217.197 167.326 216.172 168.121 215.729 169.069L217.105 169.956C217.35 169.436 217.855 169.008 218.635 169.008C219.537 169.008 219.981 169.498 219.981 169.834C219.981 170.17 219.751 170.369 219.384 170.369H217.855C216.478 170.369 215.499 171.165 215.499 172.388C215.499 173.658 216.524 174.698 218.206 174.698ZM218.466 173.168C217.824 173.168 217.457 172.847 217.457 172.434C217.457 172.021 217.763 171.746 218.206 171.746H219.965V171.838C219.965 172.572 219.399 173.168 218.466 173.168ZM225.589 174.529V170.538C225.589 169.65 226.155 169.085 226.919 169.085C227.776 169.085 228.219 169.696 228.219 170.461V174.529H230.131V170.063C230.131 168.519 228.954 167.326 227.348 167.326C226.415 167.326 225.788 167.723 225.497 168.06V167.494H223.677V174.529H225.589ZM238.146 174.698C239.094 174.698 239.706 174.361 239.996 174.04V174.529H241.77V170.278C241.77 168.825 240.73 167.326 238.574 167.326C237.136 167.326 236.111 168.121 235.668 169.069L237.044 169.956C237.289 169.436 237.794 169.008 238.574 169.008C239.476 169.008 239.92 169.498 239.92 169.834C239.92 170.17 239.69 170.369 239.323 170.369H237.794C236.417 170.369 235.439 171.165 235.439 172.388C235.439 173.658 236.463 174.698 238.146 174.698ZM238.406 173.168C237.763 173.168 237.396 172.847 237.396 172.434C237.396 172.021 237.702 171.746 238.146 171.746H239.904V171.838C239.904 172.572 239.339 173.168 238.406 173.168ZM247.516 167.326C246.828 167.326 246.14 167.525 245.528 167.892V167.494H243.616V178.062H245.528V174.132C246.14 174.499 246.828 174.698 247.516 174.698C249.627 174.698 251.233 172.985 251.233 171.012C251.233 169.039 249.627 167.326 247.516 167.326ZM247.394 172.893C246.308 172.878 245.543 172.067 245.543 171.012C245.543 169.972 246.308 169.146 247.394 169.13C248.48 169.146 249.244 169.972 249.244 171.012C249.244 172.067 248.48 172.878 247.394 172.893ZM256.642 167.326C255.954 167.326 255.265 167.525 254.654 167.892V167.494H252.742V178.062H254.654V174.132C255.265 174.499 255.954 174.698 256.642 174.698C258.752 174.698 260.358 172.985 260.358 171.012C260.358 169.039 258.752 167.326 256.642 167.326ZM256.52 172.893C255.434 172.878 254.669 172.067 254.669 171.012C254.669 169.972 255.434 169.146 256.52 169.13C257.605 169.146 258.37 169.972 258.37 171.012C258.37 172.067 257.605 172.878 256.52 172.893ZM265.293 174.698C267.542 174.698 269.132 173.046 269.132 171.012C269.132 168.993 267.542 167.326 265.293 167.326C263.061 167.326 261.455 168.993 261.455 171.012C261.455 173.046 263.061 174.698 265.293 174.698ZM265.293 172.893C264.208 172.878 263.443 172.067 263.443 171.012C263.443 169.972 264.208 169.146 265.293 169.13C266.379 169.146 267.144 169.972 267.144 171.012C267.144 172.067 266.379 172.878 265.293 172.893ZM271.46 166.133C272.179 166.133 272.684 165.628 272.684 164.986C272.684 164.328 272.179 163.808 271.46 163.808C270.772 163.808 270.252 164.328 270.252 164.986C270.252 165.628 270.772 166.133 271.46 166.133ZM272.424 174.529V167.494H270.512V174.529H272.424ZM276.116 174.529V170.538C276.116 169.65 276.682 169.085 277.447 169.085C278.303 169.085 278.747 169.696 278.747 170.461V174.529H280.659V170.063C280.659 168.519 279.481 167.326 277.875 167.326C276.942 167.326 276.315 167.723 276.024 168.06V167.494H274.204V174.529H276.116ZM286.962 174.621V172.878H285.998C285.417 172.878 284.958 172.618 284.958 171.853V169.13H286.962V167.494H284.958V165.812H283.49V165.842C283.49 166.959 282.725 167.708 281.899 167.708H281.854V169.13H283.046V172.128C283.046 173.78 283.979 174.621 285.646 174.621H286.962ZM290.559 174.529V170.538C290.559 169.681 291.079 169.085 291.859 169.085C292.685 169.085 293.098 169.696 293.098 170.461V174.529H295.01V170.538C295.01 169.681 295.56 169.085 296.325 169.085C297.181 169.085 297.61 169.696 297.61 170.461V174.529H299.521V170.063C299.521 168.519 298.267 167.326 296.539 167.326C295.27 167.326 294.597 167.983 294.352 168.305C294.015 167.846 293.312 167.326 292.272 167.326C291.354 167.326 290.758 167.723 290.467 168.06V167.494H288.647V174.529H290.559ZM304.814 174.698C306.175 174.698 307.307 174.07 307.979 173.122L306.465 172.052C306.144 172.602 305.517 172.923 304.814 172.939C303.927 172.923 303.208 172.419 302.994 171.562H308.469C308.683 169.1 307.077 167.326 304.783 167.326C302.489 167.326 300.959 169.039 300.959 171.012C300.959 173 302.535 174.698 304.814 174.698ZM303.039 170.278C303.254 169.574 303.881 169.054 304.783 169.039C305.685 169.054 306.328 169.62 306.527 170.278H303.039ZM311.932 174.529V170.538C311.932 169.65 312.498 169.085 313.263 169.085C314.119 169.085 314.563 169.696 314.563 170.461V174.529H316.474V170.063C316.474 168.519 315.297 167.326 313.691 167.326C312.758 167.326 312.131 167.723 311.84 168.06V167.494H310.02V174.529H311.932ZM322.777 174.621V172.878H321.814C321.233 172.878 320.774 172.618 320.774 171.853V169.13H322.777V167.494H320.774V165.812H319.306V165.842C319.306 166.959 318.541 167.708 317.715 167.708H317.669V169.13H318.862V172.128C318.862 173.78 319.795 174.621 321.462 174.621H322.777Z" fill="white"/>
<path fill-rule="evenodd" clip-rule="evenodd" d="M398.74 112.266C398.393 111.911 397.83 111.911 397.483 112.266L395 114.805L392.517 112.266C392.17 111.911 391.607 111.911 391.26 112.266C390.913 112.621 390.913 113.197 391.26 113.552L394.371 116.734C394.719 117.089 395.281 117.089 395.629 116.734L398.74 113.552C399.087 113.197 399.087 112.621 398.74 112.266Z" fill="#12131A"/>
<path fill-rule="evenodd" clip-rule="evenodd" d="M205.74 107.266C205.393 106.911 204.83 106.911 204.483 107.266L202 109.805L199.517 107.266C199.17 106.911 198.607 106.911 198.26 107.266C197.913 107.621 197.913 108.197 198.26 108.552L201.371 111.734C201.719 112.089 202.281 112.089 202.629 111.734L205.74 108.552C206.087 108.197 206.087 107.621 205.74 107.266Z" fill="#12131A"/>
<path fill-rule="evenodd" clip-rule="evenodd" d="M148 161C148 160.448 148.448 160 149 160C149.552 160 150 160.448 150 161V162H158V161C158 160.448 158.448 160 159 160C159.552 160 160 160.448 160 161V162H161C162.657 162 164 163.343 164 165V177C164 178.657 162.657 180 161 180H147C145.343 180 144 178.657 144 177V165C144 163.343 145.343 162 147 162H148V161Z" fill="white"/>
<path fill-rule="evenodd" clip-rule="evenodd" d="M152 170C151.448 170 151 170.448 151 171C151 171.552 151.448 172 152 172H159C159.552 172 160 171.552 160 171C160 170.448 159.552 170 159 170H152ZM149 174C148.448 174 148 174.448 148 175C148 175.552 148.448 176 149 176H155C155.552 176 156 175.552 156 175C156 174.448 155.552 174 155 174H149Z" fill="black"/>
</g>
<defs>
<filter id="filter0_d" x="0" y="0" width="440" height="245" filterUnits="userSpaceOnUse" color-interpolation-filters="sRGB">
<feFlood flood-opacity="0" result="BackgroundImageFix"/>
<feColorMatrix in="SourceAlpha" type="matrix" values="0 0 0 0 0 0 0 0 0 0 0 0 0 0 0 0 0 0 127 0" result="hardAlpha"/>
<feOffset dx="-13" dy="14"/>
<feGaussianBlur stdDeviation="10.5"/>
<feComposite in2="hardAlpha" operator="out"/>
<feColorMatrix type="matrix" values="0 0 0 0 0 0 0 0 0 0 0 0 0 0 0 0 0 0 0.08 0"/>
<feBlend mode="normal" in2="BackgroundImageFix" result="effect1_dropShadow"/>
<feBlend mode="normal" in="SourceGraphic" in2="effect1_dropShadow" result="shape"/>
</filter>
</defs>
</svg>
