<svg width="432" height="190" viewBox="0 0 432 190" fill="none" xmlns="http://www.w3.org/2000/svg">
<g filter="url(#filter0_d)">
<rect x="33.1973" y="48.4688" width="382" height="108" rx="13" transform="rotate(-6.35366 33.1973 48.4688)" fill="white"/>
<path d="M101.498 120.461C102.927 120.302 104.052 119.475 104.593 118.33L103.553 117.854C103.181 118.641 102.404 119.242 101.376 119.357C99.8384 119.528 98.5222 118.436 98.3475 116.867C98.1727 115.297 99.2164 113.942 100.754 113.771C101.782 113.657 102.671 114.062 103.209 114.758L104.117 114.054C103.327 113.068 102.092 112.504 100.631 112.667C98.4331 112.912 96.9024 114.814 97.1459 117C97.3894 119.187 99.301 120.706 101.498 120.461ZM107.712 119.78C108.48 119.695 108.958 119.258 109.11 118.956L109.17 119.497L110.123 119.391L109.777 116.284C109.666 115.288 108.805 114.442 107.419 114.596C106.391 114.711 105.781 115.337 105.546 116.076L106.37 116.488C106.513 116.001 106.863 115.601 107.523 115.527C108.27 115.444 108.674 115.826 108.71 116.151C108.74 116.422 108.566 116.627 108.252 116.662L107.126 116.788C106.174 116.894 105.542 117.523 105.639 118.389C105.738 119.277 106.553 119.909 107.712 119.78ZM107.699 118.883C107.115 118.948 106.755 118.67 106.712 118.28C106.672 117.923 106.923 117.621 107.335 117.575L108.872 117.404L108.879 117.469C108.961 118.205 108.522 118.791 107.699 118.883ZM113.44 119.098L113.331 118.113C112.789 118.174 112.466 117.925 112.408 117.405L111.754 111.538L110.726 111.652L111.381 117.53C111.512 118.71 112.195 119.237 113.278 119.117L113.44 119.098ZM116.432 118.765L116.322 117.78C115.781 117.841 115.457 117.592 115.399 117.072L114.746 111.205L113.718 111.319L114.372 117.197C114.504 118.377 115.187 118.904 116.27 118.783L116.432 118.765ZM121.479 118.127L121.17 115.345C121.084 114.576 121.513 114.002 122.185 113.927C122.877 113.85 123.343 114.292 123.421 114.995L123.742 117.875L124.77 117.76L124.461 114.978C124.375 114.21 124.793 113.637 125.475 113.561C126.168 113.484 126.612 113.928 126.69 114.631L127.011 117.511L128.039 117.396L127.695 114.3C127.573 113.207 126.678 112.452 125.487 112.584C124.545 112.689 124.116 113.263 123.966 113.587C123.645 113.162 123.051 112.855 122.294 112.94C121.525 113.025 121.081 113.469 120.93 113.782L120.867 113.219L119.904 113.326L120.451 118.241L121.479 118.127ZM131.905 117.086C132.868 116.979 133.629 116.434 134.002 115.647L133.129 115.186C132.899 115.682 132.39 116.035 131.795 116.101C131.08 116.181 130.347 115.791 130.114 114.984L134.152 114.535C134.143 112.881 132.857 111.764 131.298 111.937C129.739 112.111 128.822 113.418 128.976 114.804C129.131 116.19 130.378 117.256 131.905 117.086ZM130.059 114.19C130.15 113.534 130.614 112.978 131.404 112.89C132.205 112.801 132.831 113.301 132.981 113.865L130.059 114.19Z" fill="#9D9D9D"/>
<path d="M214.943 107.829L216.977 102.079L217.573 107.427L218.677 107.304L217.833 99.7264L216.631 99.8602L214.506 105.872L211.121 100.474L209.92 100.608L210.764 108.185L211.868 108.062L211.272 102.715L214.532 107.875L214.943 107.829ZM222.825 106.963C223.788 106.855 224.549 106.31 224.922 105.524L224.049 105.062C223.819 105.559 223.31 105.911 222.715 105.978C222 106.057 221.267 105.668 221.034 104.861L225.072 104.411C225.063 102.757 223.777 101.64 222.218 101.814C220.66 101.987 219.742 103.295 219.896 104.68C220.051 106.066 221.298 107.133 222.825 106.963ZM220.979 104.067C221.07 103.41 221.534 102.854 222.324 102.766C223.125 102.677 223.751 103.177 223.902 103.741L220.979 104.067ZM228.015 106.385C229.26 106.246 229.818 105.45 229.726 104.627C229.644 103.891 229.155 103.343 227.864 103.256C227.345 103.226 227.002 103.1 226.96 102.721C226.928 102.429 227.15 102.163 227.594 102.114C227.951 102.074 228.32 102.241 228.47 102.597L229.281 102.112C228.984 101.509 228.35 101.131 227.484 101.227C226.413 101.346 225.849 102.089 225.933 102.847C226.048 103.875 226.911 104.151 227.762 104.21C228.304 104.259 228.648 104.396 228.689 104.764C228.729 105.122 228.45 105.372 227.919 105.431C227.508 105.477 227.114 105.28 226.909 104.919L226.056 105.43C226.397 106.028 227.03 106.494 228.015 106.385ZM232.455 105.89C233.7 105.752 234.257 104.955 234.166 104.133C234.084 103.397 233.595 102.848 232.304 102.762C231.785 102.732 231.442 102.606 231.4 102.227C231.368 101.935 231.59 101.669 232.034 101.619C232.391 101.579 232.76 101.747 232.91 102.103L233.721 101.618C233.424 101.015 232.79 100.636 231.924 100.733C230.853 100.852 230.289 101.594 230.373 102.352C230.487 103.381 231.351 103.657 232.202 103.716C232.744 103.765 233.088 103.902 233.129 104.27C233.169 104.627 232.89 104.877 232.359 104.937C231.948 104.982 231.554 104.785 231.349 104.424L230.496 104.936C230.837 105.533 231.47 106 232.455 105.89ZM237.122 105.371C237.891 105.285 238.368 104.848 238.521 104.546L238.581 105.088L239.534 104.982L239.188 101.875C239.077 100.879 238.215 100.032 236.83 100.187C235.801 100.301 235.192 100.928 234.956 101.666L235.78 102.079C235.923 101.592 236.273 101.191 236.933 101.118C237.68 101.034 238.085 101.417 238.121 101.741C238.151 102.012 237.976 102.218 237.663 102.253L236.537 102.378C235.584 102.484 234.953 103.113 235.049 103.979C235.148 104.867 235.964 105.5 237.122 105.371ZM237.11 104.473C236.525 104.538 236.165 104.261 236.122 103.871C236.082 103.514 236.334 103.212 236.745 103.166L238.282 102.995L238.289 103.06C238.371 103.796 237.932 104.382 237.11 104.473ZM244.435 99.9206C243.95 99.6019 243.353 99.4601 242.769 99.5252C241.318 99.6868 240.297 100.951 240.458 102.391C240.619 103.841 241.892 104.839 243.343 104.678C243.927 104.613 244.478 104.343 244.881 103.926L244.936 104.424C245.035 105.311 244.516 106.06 243.52 106.171C242.914 106.238 242.304 105.977 241.991 105.53L241.21 106.198C241.715 106.887 242.625 107.289 243.632 107.177C245.202 107.003 246.13 105.792 245.965 104.309L245.413 99.3514L244.384 99.4659L244.435 99.9206ZM243.275 103.677C242.377 103.777 241.641 103.18 241.54 102.27C241.439 101.361 242.025 100.616 242.922 100.505C243.811 100.417 244.557 101.014 244.658 101.923C244.759 102.833 244.163 103.578 243.275 103.677ZM249.813 103.957C250.777 103.85 251.538 103.305 251.911 102.518L251.037 102.057C250.808 102.554 250.299 102.906 249.704 102.972C248.989 103.052 248.255 102.662 248.023 101.855L252.061 101.406C252.052 99.7519 250.766 98.6348 249.207 98.8083C247.648 98.9819 246.731 100.29 246.885 101.675C247.039 103.061 248.287 104.127 249.813 103.957ZM247.968 101.062C248.059 100.405 248.523 99.8489 249.313 99.761C250.114 99.6718 250.74 100.172 250.89 100.736L247.968 101.062Z" fill="#9D9D9D"/>
<path d="M343.987 93.3509L343.869 92.29L340.481 92.6673L339.755 86.1506L338.64 86.2747L339.484 93.8523L343.987 93.3509ZM344.829 87.1199C345.241 87.0741 345.511 86.748 345.468 86.3583C345.424 85.9686 345.088 85.6993 344.676 85.7451C344.287 85.7885 344.006 86.1265 344.05 86.5162C344.093 86.9059 344.44 87.1633 344.829 87.1199ZM346.024 93.1241L345.477 88.2095L344.448 88.324L344.996 93.2386L346.024 93.1241ZM348.573 92.8403L348.263 90.0582C348.175 89.268 348.628 88.7134 349.31 88.6374C350.003 88.5603 350.49 88.9992 350.569 89.7028L350.889 92.5823L351.918 92.4678L351.573 89.3718C351.451 88.2785 350.567 87.5221 349.409 87.6511C348.64 87.7367 348.175 88.183 348.023 88.4958L347.96 87.9329L346.997 88.0402L347.544 92.9548L348.573 92.8403ZM355.204 89.3073L357.172 86.9072L355.776 87.0627L354.113 89.1548L353.607 84.6082L352.578 84.7227L353.422 92.3003L354.45 92.1858L354.178 89.7393L356.583 91.9483L357.958 91.7953L355.204 89.3073ZM360.71 91.6093C361.674 91.502 362.435 90.957 362.808 90.1702L361.934 89.7086C361.705 90.2054 361.196 90.5579 360.601 90.6242C359.886 90.7038 359.152 90.3142 358.92 89.5072L362.958 89.0576C362.949 87.4037 361.663 86.2866 360.104 86.4602C358.545 86.6338 357.628 87.9414 357.782 89.327C357.936 90.7127 359.184 91.7793 360.71 91.6093ZM358.864 88.7134C358.956 88.0566 359.42 87.5008 360.21 87.4128C361.011 87.3236 361.637 87.8238 361.787 88.3879L358.864 88.7134ZM367.869 86.1764C367.385 85.8577 366.788 85.7159 366.203 85.781C364.753 85.9425 363.732 87.2069 363.892 88.6467C364.054 90.0972 365.327 91.0953 366.777 90.9338C367.362 90.8687 367.913 90.5991 368.315 90.1816L368.366 90.6363L369.394 90.5218L368.551 82.9442L367.522 83.0587L367.869 86.1764ZM366.71 89.933C365.811 90.0331 365.076 89.4354 364.975 88.5261C364.874 87.6168 365.459 86.8721 366.356 86.7613C367.245 86.6733 367.991 87.2697 368.092 88.179C368.194 89.0883 367.597 89.8342 366.71 89.933ZM370.687 84.2407C371.098 84.1948 371.369 83.8688 371.325 83.4791C371.282 83.0894 370.945 82.8201 370.534 82.8659C370.144 82.9093 369.864 83.2473 369.907 83.637C369.951 84.0267 370.297 84.284 370.687 84.2407ZM371.882 90.2448L371.334 85.3303L370.306 85.4448L370.853 90.3594L371.882 90.2448ZM374.43 89.9611L374.12 87.179C374.032 86.3888 374.486 85.8342 375.168 85.7582C375.861 85.6811 376.348 86.12 376.426 86.8236L376.747 89.7031L377.775 89.5886L377.43 86.4926C377.309 85.3993 376.424 84.6429 375.266 84.7719C374.498 84.8575 374.032 85.3038 373.881 85.6166L373.818 85.0537L372.855 85.161L373.402 90.0756L374.43 89.9611Z" fill="#9D9D9D"/>
<g filter="url(#filter1_d)">
<rect x="95.374" y="64.6875" width="30" height="30" rx="5" transform="rotate(-6.35366 95.374 64.6875)" fill="#00E99F"/>
</g>
<g filter="url(#filter2_d)">
<rect x="209.668" y="51.9609" width="30" height="30" rx="5" transform="rotate(-6.35366 209.668 51.9609)" fill="#00E99F"/>
</g>
<g filter="url(#filter3_d)">
<rect x="336.882" y="37.7959" width="30" height="30" rx="5" transform="rotate(-6.35366 336.882 37.7959)" fill="#00E99F"/>
</g>
<path d="M119.953 82.4057L118.642 84.0456C118.642 84.0456 114.991 86.1158 108.903 81.2482C102.816 76.3807 104.032 72.3636 104.032 72.3636L105.344 70.7236C105.936 69.9828 107.047 69.9384 107.697 70.6296L109.315 72.3507C109.846 72.916 109.881 73.7859 109.396 74.3918L108.294 75.7708C108.294 75.7708 108.416 76.8663 110.85 78.8133C113.285 80.7603 114.381 80.6383 114.381 80.6383L115.484 79.2593C115.968 78.6534 116.824 78.496 117.493 78.8899L119.527 80.0893C120.345 80.571 120.546 81.6648 119.953 82.4057Z" fill="black"/>
<path d="M344.872 46.3024C344.729 45.0189 345.654 43.8627 346.937 43.7198L357.782 42.5122C359.065 42.3693 360.222 43.2939 360.365 44.5773L361.572 55.4221C361.715 56.7055 360.79 57.8618 359.507 58.0047L348.662 59.2122C347.379 59.3552 346.223 58.4306 346.08 57.1471L344.872 46.3024Z" fill="black"/>
<path d="M349.004 48.1954C349.432 48.1478 349.74 47.7624 349.692 47.3345C349.645 46.9067 349.259 46.5985 348.831 46.6462C348.403 46.6938 348.095 47.0792 348.143 47.507C348.191 47.9349 348.576 48.2431 349.004 48.1954Z" fill="#00E99F"/>
<path d="M349.176 49.7447C348.748 49.7923 348.44 50.1777 348.488 50.6055L349.005 55.2533C349.053 55.6811 349.438 55.9893 349.866 55.9417C350.294 55.894 350.602 55.5086 350.555 55.0808L350.037 50.433C349.99 50.0052 349.604 49.697 349.176 49.7447Z" fill="#00E99F"/>
<path d="M354.771 50.6901C353.916 50.7854 353.299 51.5563 353.394 52.4119L353.653 54.7358C353.701 55.1636 353.393 55.549 352.965 55.5966C352.537 55.6443 352.152 55.3361 352.104 54.9083L351.586 50.2605C351.539 49.8327 351.847 49.4473 352.275 49.3997C352.589 49.3647 352.88 49.5214 353.031 49.7764C353.47 49.4352 354.006 49.2069 354.599 49.1409C356.31 48.9503 357.852 50.1831 358.042 51.8944L358.301 54.2182C358.349 54.6461 358.04 55.0315 357.613 55.0791C357.185 55.1268 356.799 54.8186 356.752 54.3908L356.493 52.0669C356.398 51.2113 355.627 50.5949 354.771 50.6901Z" fill="#00E99F"/>
<path fill-rule="evenodd" clip-rule="evenodd" d="M220.414 59.1981C219.127 59.543 218.197 60.6178 218.117 61.9478C218.062 62.8748 218.056 64.0451 218.2 65.3347C218.343 66.6242 218.606 67.7647 218.864 68.6568C219.182 69.7555 220.07 70.5329 221.157 70.7647L221.451 73.4012C221.517 74.001 222.211 74.3006 222.694 73.938L227.119 70.6113C228.831 70.3923 230.35 70.0486 231.478 69.7463C232.765 69.4013 233.695 68.3265 233.775 66.9965C233.83 66.0695 233.836 64.8992 233.692 63.6096C233.549 62.3201 233.286 61.1796 233.028 60.2875C232.658 59.0076 231.514 58.1638 230.182 58.1104C228.907 58.0592 227.165 58.0626 225.256 58.2752C223.347 58.4877 221.647 58.8675 220.414 59.1981Z" fill="black"/>
<path fill-rule="evenodd" clip-rule="evenodd" d="M221.815 62.5798C221.387 62.6274 221.079 63.0128 221.126 63.4406C221.174 63.8685 221.559 64.1766 221.987 64.129L229.733 63.2665C230.161 63.2188 230.469 62.8334 230.422 62.4056C230.374 61.9778 229.989 61.6696 229.561 61.7172L221.815 62.5798ZM222.16 65.6783C221.732 65.7259 221.424 66.1113 221.471 66.5391C221.519 66.967 221.904 67.2751 222.332 67.2275L225.431 66.8825C225.858 66.8349 226.167 66.4494 226.119 66.0216C226.071 65.5938 225.686 65.2856 225.258 65.3332L222.16 65.6783Z" fill="#00E99F"/>
</g>
<defs>
<filter id="filter0_d" x="0.554688" y="0.552734" width="430.891" height="188.895" filterUnits="userSpaceOnUse" color-interpolation-filters="sRGB">
<feFlood flood-opacity="0" result="BackgroundImageFix"/>
<feColorMatrix in="SourceAlpha" type="matrix" values="0 0 0 0 0 0 0 0 0 0 0 0 0 0 0 0 0 0 127 0" result="hardAlpha"/>
<feOffset dx="-13" dy="14"/>
<feGaussianBlur stdDeviation="10.5"/>
<feComposite in2="hardAlpha" operator="out"/>
<feColorMatrix type="matrix" values="0 0 0 0 0 0 0 0 0 0 0 0 0 0 0 0 0 0 0.08 0"/>
<feBlend mode="normal" in2="BackgroundImageFix" result="effect1_dropShadow"/>
<feBlend mode="normal" in="SourceGraphic" in2="effect1_dropShadow" result="shape"/>
</filter>
<filter id="filter1_d" x="82.374" y="52.3672" width="59.1357" height="59.1357" filterUnits="userSpaceOnUse" color-interpolation-filters="sRGB">
<feFlood flood-opacity="0" result="BackgroundImageFix"/>
<feColorMatrix in="SourceAlpha" type="matrix" values="0 0 0 0 0 0 0 0 0 0 0 0 0 0 0 0 0 0 127 0" result="hardAlpha"/>
<feOffset dy="4"/>
<feGaussianBlur stdDeviation="6.5"/>
<feComposite in2="hardAlpha" operator="out"/>
<feColorMatrix type="matrix" values="0 0 0 0 0 0 0 0 0 0 0 0 0 0 0 0 0 0 0.06 0"/>
<feBlend mode="normal" in2="BackgroundImageFix" result="effect1_dropShadow"/>
<feBlend mode="normal" in="SourceGraphic" in2="effect1_dropShadow" result="shape"/>
</filter>
<filter id="filter2_d" x="196.668" y="39.6406" width="59.1357" height="59.1357" filterUnits="userSpaceOnUse" color-interpolation-filters="sRGB">
<feFlood flood-opacity="0" result="BackgroundImageFix"/>
<feColorMatrix in="SourceAlpha" type="matrix" values="0 0 0 0 0 0 0 0 0 0 0 0 0 0 0 0 0 0 127 0" result="hardAlpha"/>
<feOffset dy="4"/>
<feGaussianBlur stdDeviation="6.5"/>
<feComposite in2="hardAlpha" operator="out"/>
<feColorMatrix type="matrix" values="0 0 0 0 0 0 0 0 0 0 0 0 0 0 0 0 0 0 0.06 0"/>
<feBlend mode="normal" in2="BackgroundImageFix" result="effect1_dropShadow"/>
<feBlend mode="normal" in="SourceGraphic" in2="effect1_dropShadow" result="shape"/>
</filter>
<filter id="filter3_d" x="323.882" y="25.4756" width="59.1357" height="59.1357" filterUnits="userSpaceOnUse" color-interpolation-filters="sRGB">
<feFlood flood-opacity="0" result="BackgroundImageFix"/>
<feColorMatrix in="SourceAlpha" type="matrix" values="0 0 0 0 0 0 0 0 0 0 0 0 0 0 0 0 0 0 127 0" result="hardAlpha"/>
<feOffset dy="4"/>
<feGaussianBlur stdDeviation="6.5"/>
<feComposite in2="hardAlpha" operator="out"/>
<feColorMatrix type="matrix" values="0 0 0 0 0 0 0 0 0 0 0 0 0 0 0 0 0 0 0.06 0"/>
<feBlend mode="normal" in2="BackgroundImageFix" result="effect1_dropShadow"/>
<feBlend mode="normal" in="SourceGraphic" in2="effect1_dropShadow" result="shape"/>
</filter>
</defs>
</svg>
