<svg width="287" height="287" viewBox="0 0 287 287" fill="none" xmlns="http://www.w3.org/2000/svg">
<g filter="url(#filter0_d)">
<rect x="26" y="24" width="235" height="235" rx="19" fill="white"/>
<path d="M141.558 53.6276H146.585H147.957H151.842C152.527 53.6276 153.213 52.942 153.213 52.2563V48.3712C153.213 47.6856 152.527 47 151.842 47H146.814H145.443H141.786C141.101 47 140.415 47.6856 140.415 48.3712V52.0278C140.186 52.942 140.872 53.6276 141.558 53.6276Z" fill="black"/>
<path d="M167.61 53.6276H172.638H179.266H180.637H184.294C184.979 53.6276 185.665 52.942 185.665 52.2563V48.3712C185.665 47.6856 184.979 47 184.294 47H179.266H172.638H171.267H167.61C166.925 47 166.239 47.6856 166.239 48.3712V52.0278C166.239 52.942 166.925 53.6276 167.61 53.6276Z" fill="black"/>
<path d="M102.477 60.0266H106.134C106.819 60.0266 107.505 60.7122 107.505 61.3978V65.0544C107.505 65.74 108.191 66.4256 108.876 66.4256H113.904H118.932C119.617 66.4256 120.303 67.1112 120.303 67.7969V71.4534C120.303 72.1391 120.989 72.8247 121.674 72.8247H125.331C126.016 72.8247 126.702 73.5103 126.702 74.1959V79.2237V85.8513V90.8791C126.702 91.5647 126.016 92.2503 125.331 92.2503H122.131C121.446 92.2503 120.76 91.5647 120.76 90.8791V87.2225C120.76 86.5369 120.075 85.8513 119.389 85.8513H115.732C115.047 85.8513 114.361 86.5369 114.361 87.2225V92.7074V97.7352C114.361 98.4208 115.047 99.1064 115.732 99.1064H119.389C120.075 99.1064 120.76 99.792 120.76 100.478V104.134C120.76 104.82 121.446 105.505 122.131 105.505H125.788C126.474 105.505 127.159 104.82 127.159 104.134V100.478C127.159 99.792 127.845 99.1064 128.53 99.1064H132.187C132.873 99.1064 133.558 98.4208 133.558 97.7352V92.7074V87.6796C133.558 86.994 134.244 86.3083 134.929 86.3083H138.586C139.272 86.3083 139.957 86.994 139.957 87.6796V91.3362C139.957 92.0218 140.643 92.7074 141.328 92.7074H144.985C145.671 92.7074 146.356 92.0218 146.356 91.3362V86.3083V81.2805C146.356 80.5949 147.042 79.9093 147.727 79.9093H151.841C152.527 79.9093 153.212 79.2237 153.212 78.5381V74.4244C153.212 73.7388 153.898 73.0532 154.584 73.0532H158.24C158.926 73.0532 159.611 72.3676 159.611 71.682V68.0254C159.611 67.3398 158.926 66.6542 158.24 66.6542H154.584C153.898 66.6542 153.212 65.9686 153.212 65.283V61.3978C153.212 60.7122 152.527 60.0266 151.841 60.0266H148.185C147.499 60.0266 146.813 60.7122 146.813 61.3978V65.0544C146.813 65.74 146.128 66.4256 145.442 66.4256H141.786C141.1 66.4256 140.414 65.74 140.414 65.0544V60.0266V54.9988C140.414 54.3132 139.729 53.6276 139.043 53.6276H134.015H127.388H122.131C121.446 53.6276 120.76 54.3132 120.76 54.9988V58.6554C120.76 59.341 120.075 60.0266 119.389 60.0266H115.732C115.047 60.0266 114.361 59.341 114.361 58.6554V54.9988C114.361 54.3132 115.047 53.6276 115.732 53.6276H119.389C120.075 53.6276 120.76 52.942 120.76 52.2563V48.3712C120.76 47.6856 120.075 47 119.389 47H114.361H109.333C108.648 47 107.962 47.6856 107.962 48.3712V52.0278C107.962 52.7134 107.276 53.399 106.591 53.399H102.934C102.249 53.399 101.563 54.0846 101.563 54.7703V58.4268C101.106 59.341 101.792 60.0266 102.477 60.0266ZM132.187 60.0266C132.873 60.0266 133.558 60.7122 133.558 61.3978V65.0544C133.558 65.74 132.873 66.4256 132.187 66.4256H128.53C127.845 66.4256 127.159 65.74 127.159 65.0544V61.3978C127.159 60.7122 127.845 60.0266 128.53 60.0266H132.187Z" fill="black"/>
<path d="M153.214 58.6557C153.214 59.3414 153.899 60.027 154.585 60.027H158.242C158.927 60.027 159.613 60.7126 159.613 61.3982V65.0548C159.613 65.7404 160.299 66.426 160.984 66.426H166.012H172.411H173.782H177.439C178.124 66.426 178.81 65.7404 178.81 65.0548V61.3982C178.81 60.7126 178.124 60.027 177.439 60.027H172.411H167.383C166.698 60.027 166.012 59.3414 166.012 58.6557V54.9992C166.012 54.3135 165.326 53.6279 164.641 53.6279H159.613H158.242H154.585C153.899 53.6279 153.214 54.3135 153.214 54.9992V58.6557Z" fill="black"/>
<path d="M109.105 79.6784H114.132H115.504H119.16C119.846 79.6784 120.531 78.9927 120.531 78.3071V74.422C120.531 73.7364 119.846 73.0508 119.16 73.0508H114.132H112.761H109.105C108.419 73.0508 107.733 73.7364 107.733 74.422V78.0786C107.733 78.9927 108.19 79.6784 109.105 79.6784Z" fill="black"/>
<path d="M158.242 86.0811H154.585C153.899 86.0811 153.214 86.7667 153.214 87.4523V91.1089C153.214 91.7945 153.899 92.4801 154.585 92.4801H158.242C158.927 92.4801 159.613 91.7945 159.613 91.1089V87.4523C159.841 86.7667 159.156 86.0811 158.242 86.0811Z" fill="black"/>
<path d="M167.61 92.7075H171.267C171.953 92.7075 172.638 92.0219 172.638 91.3363V87.6797C172.638 86.9941 173.324 86.3085 174.01 86.3085H177.666C178.352 86.3085 179.037 85.6229 179.037 84.9373V81.2807C179.037 80.595 179.723 79.9094 180.409 79.9094H184.065C184.751 79.9094 185.436 79.2238 185.436 78.5382V73.5104V72.1392V68.0255C185.436 67.3399 184.751 66.6543 184.065 66.6543H180.409C179.723 66.6543 179.037 67.3399 179.037 68.0255V71.6821C179.037 72.3677 178.352 73.0533 177.666 73.0533H172.638H167.61C166.925 73.0533 166.239 73.7389 166.239 74.4246V79.4524V86.0799V91.1077C166.239 92.0219 166.925 92.7075 167.61 92.7075Z" fill="black"/>
<path d="M102.478 99.1033H106.134C106.82 99.1033 107.505 98.4177 107.505 97.7321V92.7043V86.3053V84.9341V81.2775C107.505 80.5919 106.82 79.9062 106.134 79.9062H102.478C101.792 79.9062 101.106 80.5919 101.106 81.2775V86.3053V92.7043V97.7321C101.106 98.4177 101.792 99.1033 102.478 99.1033Z" fill="black"/>
<path d="M159.84 97.7329C159.84 98.4185 160.525 99.1041 161.211 99.1041H164.868C165.553 99.1041 166.239 98.4185 166.239 97.7329V94.0763C166.239 93.3907 165.553 92.7051 164.868 92.7051H161.211C160.525 92.7051 159.84 93.3907 159.84 94.0763V97.7329Z" fill="black"/>
<path d="M88.0798 99.1064H81.6808H76.4244C75.7388 99.1064 75.0532 99.7921 75.0532 100.478V104.134C75.0532 104.82 74.3676 105.505 73.682 105.505H68.6542H63.3978C62.7122 105.505 62.0266 106.191 62.0266 106.877V110.533C62.0266 111.219 61.341 111.905 60.6554 111.905H56.9988C56.3132 111.905 55.6276 111.219 55.6276 110.533V106.877C55.6276 106.191 54.942 105.505 54.2563 105.505H50.3712C49.6856 105.505 49 106.191 49 106.877V111.905V118.532V124.931V129.959C49 130.645 49.6856 131.33 50.3712 131.33H54.0278C54.7134 131.33 55.399 130.645 55.399 129.959V124.931V120.132C55.399 119.446 56.0846 118.761 56.7703 118.761H61.7981H68.4256H73.4534C74.1391 118.761 74.8247 118.075 74.8247 117.389V113.733C74.8247 113.047 75.5103 112.362 76.1959 112.362H81.2237H86.2515C86.9371 112.362 87.6227 111.676 87.6227 110.99V107.334C87.6227 106.648 88.3083 105.963 88.994 105.963H94.7074H96.0786H99.7352C100.421 105.963 101.106 105.277 101.106 104.591V100.935C101.106 100.249 100.421 99.5635 99.7352 99.5635H94.7074H88.0798V99.1064Z" fill="black"/>
<path d="M230.002 105.733C230.688 105.733 231.374 105.047 231.374 104.362V100.705C231.374 100.02 230.688 99.334 230.002 99.334H226.346C225.66 99.334 224.975 100.02 224.975 100.705V104.133C224.975 104.819 225.66 105.504 226.346 105.504H230.002V105.733Z" fill="black"/>
<path d="M120.76 107.104C120.76 106.419 120.074 105.733 119.389 105.733H115.732C115.047 105.733 114.361 105.047 114.361 104.362V100.705C114.361 100.02 113.675 99.334 112.99 99.334H109.333C108.648 99.334 107.962 100.02 107.962 100.705V105.733V110.761C107.962 111.446 108.648 112.132 109.333 112.132H114.361H115.732H119.389C120.074 112.132 120.76 111.446 120.76 110.761V107.104Z" fill="black"/>
<path d="M133.789 107.107C133.789 106.421 133.103 105.735 132.417 105.735H128.761C128.075 105.735 127.39 106.421 127.39 107.107V110.763C127.39 111.449 128.075 112.134 128.761 112.134H132.417C133.103 112.134 133.789 111.449 133.789 110.763V107.107Z" fill="black"/>
<path d="M141.557 112.134H145.213C145.899 112.134 146.585 111.449 146.585 110.763V107.107C146.585 106.421 145.899 105.735 145.213 105.735H141.557C140.871 105.735 140.186 106.421 140.186 107.107V110.763C140.186 111.449 140.871 112.134 141.557 112.134Z" fill="black"/>
<path d="M166.238 112.132H171.266C171.952 112.132 172.637 111.447 172.637 110.761V107.104C172.637 106.419 173.323 105.733 174.008 105.733H177.665C178.351 105.733 179.036 106.419 179.036 107.104V110.761C179.036 111.447 179.722 112.132 180.407 112.132H184.064C184.75 112.132 185.435 111.447 185.435 110.761V105.733V99.3342V92.7066V91.3354V87.6788C185.435 86.9932 184.75 86.3076 184.064 86.3076H180.407C179.722 86.3076 179.036 86.9932 179.036 87.6788V91.3354C179.036 92.021 178.351 92.7066 177.665 92.7066H174.008C173.323 92.7066 172.637 93.3923 172.637 94.0779V97.7345C172.637 98.4201 171.952 99.1057 171.266 99.1057H167.609C166.924 99.1057 166.238 99.7913 166.238 100.477V104.133C166.238 104.819 165.553 105.505 164.867 105.505H161.21C160.525 105.505 159.839 104.819 159.839 104.133V100.477C159.839 99.7913 159.153 99.1057 158.468 99.1057H154.811C154.126 99.1057 153.44 98.4201 153.44 97.7345V94.0779C153.44 93.3923 152.754 92.7066 152.069 92.7066H148.412C147.727 92.7066 147.041 93.3923 147.041 94.0779V99.1057V104.133C147.041 104.819 147.727 105.505 148.412 105.505H151.84C152.526 105.505 153.212 106.19 153.212 106.876V110.533C153.212 111.218 153.897 111.904 154.583 111.904H159.611H166.238V112.132Z" fill="black"/>
<path d="M200.292 105.733H203.948C204.634 105.733 205.32 105.047 205.32 104.362V100.705C205.32 100.02 204.634 99.334 203.948 99.334H198.921H193.893C193.207 99.334 192.521 100.02 192.521 100.705V105.733V112.132V117.16C192.521 117.845 193.207 118.531 193.893 118.531H198.921H205.32H210.347C211.033 118.531 211.719 117.845 211.719 117.16V113.503C211.719 112.818 212.404 112.132 213.09 112.132H216.746C217.432 112.132 218.118 112.818 218.118 113.503V117.16C218.118 117.845 217.432 118.531 216.746 118.531H213.09C212.404 118.531 211.719 119.217 211.719 119.902V123.559C211.719 124.245 211.033 124.93 210.347 124.93H206.691C206.005 124.93 205.32 125.616 205.32 126.301V131.329V137.728V142.756C205.32 143.442 206.005 144.127 206.691 144.127H210.347C211.033 144.127 211.719 143.442 211.719 142.756V137.728V132.7C211.719 132.015 212.404 131.329 213.09 131.329H216.746C217.432 131.329 218.118 130.644 218.118 129.958V126.301C218.118 125.616 218.803 124.93 219.489 124.93H223.145C223.831 124.93 224.517 124.245 224.517 123.559V118.531V111.904V106.876C224.517 106.19 223.831 105.504 223.145 105.504H218.118H211.719H206.691C206.005 105.504 205.32 106.19 205.32 106.876V110.532C205.32 111.218 204.634 111.904 203.948 111.904H200.292C199.606 111.904 198.921 111.218 198.921 110.532V106.876C198.921 106.19 199.378 105.733 200.292 105.733Z" fill="black"/>
<path d="M236.402 105.735H232.745C232.06 105.735 231.374 106.421 231.374 107.107V112.134V118.762V123.79C231.374 124.475 232.06 125.161 232.745 125.161H236.402C237.087 125.161 237.773 124.475 237.773 123.79V118.762V112.134V110.763V107.107C238.002 106.192 237.316 105.735 236.402 105.735Z" fill="black"/>
<path d="M93.1069 118.763C93.7925 118.763 94.4781 118.078 94.4781 117.392V113.735C94.4781 113.05 93.7925 112.364 93.1069 112.364H89.4503C88.7647 112.364 88.0791 113.05 88.0791 113.735V117.392C88.0791 118.078 88.7647 118.763 89.4503 118.763H93.1069Z" fill="black"/>
<path d="M185.893 120.132C185.893 119.446 185.208 118.761 184.522 118.761H180.865C180.18 118.761 179.494 119.446 179.494 120.132V123.789C179.494 124.474 180.18 125.16 180.865 125.16H184.522C185.208 125.16 185.893 124.474 185.893 123.789V120.132Z" fill="black"/>
<path d="M86.7095 125.158H83.0529C82.3672 125.158 81.6816 125.844 81.6816 126.529V130.186C81.6816 130.872 82.3672 131.557 83.0529 131.557H88.0807H89.4519H93.1085C93.7941 131.557 94.4797 130.872 94.4797 130.186V126.529C94.4797 125.844 93.7941 125.158 93.1085 125.158H88.0807H86.7095Z" fill="black"/>
<path d="M107.735 131.787H112.763C113.448 131.787 114.134 131.102 114.134 130.416V125.388V124.017V120.132C114.134 119.446 113.448 118.761 112.763 118.761H109.106C108.421 118.761 107.735 119.446 107.735 120.132V123.789C107.735 124.474 107.049 125.16 106.364 125.16H102.707C102.022 125.16 101.336 125.845 101.336 126.531V130.188C101.336 130.873 102.022 131.559 102.707 131.559H107.735V131.787Z" fill="black"/>
<path d="M177.895 125.158H174.238C173.553 125.158 172.867 125.844 172.867 126.529V130.186C172.867 130.872 173.553 131.557 174.238 131.557H177.895C178.581 131.557 179.266 130.872 179.266 130.186V126.529C179.266 125.844 178.581 125.158 177.895 125.158Z" fill="black"/>
<path d="M185.894 136.815C185.894 137.501 186.579 138.186 187.265 138.186H190.921C191.607 138.186 192.293 138.872 192.293 139.557V143.214C192.293 143.9 192.978 144.585 193.664 144.585H197.32C198.006 144.585 198.692 143.9 198.692 143.214V138.186V133.158C198.692 132.473 198.006 131.787 197.32 131.787H192.293H190.921H187.265C186.579 131.787 185.894 132.473 185.894 133.158V136.815Z" fill="black"/>
<path d="M236.401 131.787H231.373H224.974H219.946C219.26 131.787 218.575 132.473 218.575 133.158V138.186V144.585V149.842C218.575 150.527 217.889 151.213 217.204 151.213H213.547C212.861 151.213 212.176 151.898 212.176 152.584V156.241C212.176 156.926 212.861 157.612 213.547 157.612H217.204C217.889 157.612 218.575 158.297 218.575 158.983V164.011V169.039C218.575 169.724 219.26 170.41 219.946 170.41H223.603C224.288 170.41 224.974 169.724 224.974 169.039V164.011V158.983C224.974 158.297 225.659 157.612 226.345 157.612H230.002C230.687 157.612 231.373 156.926 231.373 156.241V151.213V146.185C231.373 145.499 230.687 144.814 230.002 144.814H226.345C225.659 144.814 224.974 144.128 224.974 143.443V139.786C224.974 139.1 225.659 138.415 226.345 138.415H231.373H232.744H236.401C237.086 138.415 237.772 137.729 237.772 137.043V133.387C238 132.244 237.315 131.787 236.401 131.787Z" fill="black"/>
<path d="M187.265 151.212H190.921C191.607 151.212 192.293 150.526 192.293 149.84V146.184C192.293 145.498 191.607 144.812 190.921 144.812H187.265C186.579 144.812 185.894 145.498 185.894 146.184V149.84C185.894 150.526 186.351 151.212 187.265 151.212Z" fill="black"/>
<path d="M174.238 157.84H179.266H180.637H184.294C184.98 157.84 185.665 157.154 185.665 156.468V152.812C185.665 152.126 184.98 151.441 184.294 151.441H180.637C179.952 151.441 179.266 150.755 179.266 150.069V145.042V143.67V140.014C179.266 139.328 178.581 138.643 177.895 138.643H174.238C173.553 138.643 172.867 139.328 172.867 140.014V145.042V151.669V156.697C172.867 157.154 173.324 157.84 174.238 157.84Z" fill="black"/>
<path d="M50.3712 164.238H54.0278C54.7134 164.238 55.399 163.553 55.399 162.867V157.839V156.468V152.812C55.399 152.126 54.7134 151.44 54.0278 151.44H50.3712C49.6856 151.44 49 152.126 49 152.812V157.839V162.867C49 163.553 49.6856 164.238 50.3712 164.238Z" fill="black"/>
<path d="M101.108 170.867H107.507H108.878H112.535C113.22 170.867 113.906 170.181 113.906 169.495V165.839C113.906 165.153 113.22 164.467 112.535 164.467H107.507H102.479C101.793 164.467 101.108 163.782 101.108 163.096V159.44C101.108 158.754 100.422 158.068 99.7365 158.068H96.08C95.3943 158.068 94.7087 158.754 94.7087 159.44V163.096C94.7087 163.782 94.0231 164.467 93.3375 164.467H89.6809C88.9953 164.467 88.3097 163.782 88.3097 163.096V159.44C88.3097 158.754 88.9953 158.068 89.6809 158.068H93.3375C94.0231 158.068 94.7087 157.383 94.7087 156.697V153.041C94.7087 152.355 94.0231 151.669 93.3375 151.669H89.6809C88.9953 151.669 88.3097 150.984 88.3097 150.298V146.642C88.3097 145.956 88.9953 145.27 89.6809 145.27H93.3375C94.0231 145.27 94.7087 145.956 94.7087 146.642V149.841C94.7087 150.527 95.3943 151.212 96.08 151.212H99.7365C100.422 151.212 101.108 150.527 101.108 149.841V146.185C101.108 145.499 101.793 144.813 102.479 144.813H106.136C106.821 144.813 107.507 144.128 107.507 143.442V139.785C107.507 139.1 106.821 138.414 106.136 138.414H101.108H94.7087H88.3097H81.9107H76.4258C75.7402 138.414 75.0545 137.729 75.0545 137.043V132.015V130.644V126.987C75.0545 126.302 74.3689 125.616 73.6833 125.616H70.0267C69.3411 125.616 68.6555 126.302 68.6555 126.987V130.644C68.6555 131.33 67.9699 132.015 67.2843 132.015H62.0279H57.0001C56.3145 132.015 55.6289 132.701 55.6289 133.386V138.414V143.442C55.6289 144.128 56.3145 144.813 57.0001 144.813H60.6567C61.3423 144.813 62.0279 144.128 62.0279 143.442V139.785C62.0279 139.1 62.7136 138.414 63.3992 138.414H67.0558C67.7414 138.414 68.427 139.1 68.427 139.785V143.442C68.427 144.128 69.1126 144.813 69.7982 144.813H73.4548C74.1404 144.813 74.826 145.499 74.826 146.185V149.841C74.826 150.527 74.1404 151.212 73.4548 151.212H70.0267C69.3411 151.212 68.6555 150.527 68.6555 149.841V146.185C68.6555 145.499 67.9699 144.813 67.2843 144.813H63.3992C62.7136 144.813 62.0279 145.499 62.0279 146.185V151.212V157.611V162.639C62.0279 163.325 62.7136 164.01 63.3992 164.01H68.427H73.4548C74.1404 164.01 74.826 163.325 74.826 162.639V158.983C74.826 158.297 75.5116 157.611 76.1972 157.611H79.8538C80.5394 157.611 81.225 158.297 81.225 158.983V164.01V169.038C81.225 169.724 81.9107 170.409 82.5963 170.409H87.6241H94.7087H101.108V170.867Z" fill="black"/>
<path d="M236.402 164.239H232.745C232.06 164.239 231.374 164.925 231.374 165.61V169.267C231.374 169.953 232.06 170.638 232.745 170.638H236.402C237.087 170.638 237.773 169.953 237.773 169.267V165.61C238.002 164.925 237.316 164.239 236.402 164.239Z" fill="black"/>
<path d="M80.0811 170.867H75.0533H73.6821H70.0255C69.3399 170.867 68.6543 171.553 68.6543 172.238V175.895C68.6543 176.581 69.3399 177.266 70.0255 177.266H75.0533H76.4246H80.0811C80.7668 177.266 81.4524 176.581 81.4524 175.895V172.238C81.6809 171.324 80.9953 170.867 80.0811 170.867Z" fill="black"/>
<path d="M115.504 177.266H119.161C119.846 177.266 120.532 176.581 120.532 175.895V172.238C120.532 171.553 119.846 170.867 119.161 170.867H115.504C114.818 170.867 114.133 171.553 114.133 172.238V175.895C114.133 176.581 114.818 177.266 115.504 177.266Z" fill="black"/>
<path d="M135.157 177.266H138.814C139.5 177.266 140.185 176.581 140.185 175.895V172.238C140.185 171.553 139.5 170.867 138.814 170.867H135.157C134.472 170.867 133.786 171.553 133.786 172.238V175.895C133.786 176.581 134.243 177.266 135.157 177.266Z" fill="black"/>
<path d="M154.585 170.867C153.899 170.867 153.214 171.553 153.214 172.238V175.895C153.214 176.581 153.899 177.266 154.585 177.266H158.242C158.927 177.266 159.613 176.581 159.613 175.895V172.238C159.613 171.553 158.927 170.867 158.242 170.867H154.585Z" fill="black"/>
<path d="M226.346 177.266H230.002C230.688 177.266 231.374 176.581 231.374 175.895V172.238C231.374 171.553 230.688 170.867 230.002 170.867H226.346C225.66 170.867 224.975 171.553 224.975 172.238V175.895C224.975 176.581 225.432 177.266 226.346 177.266Z" fill="black"/>
<path d="M49 182.292C49 182.978 49.6856 183.664 50.3712 183.664H55.399H61.7981H63.1693H66.8259C67.5115 183.664 68.1971 182.978 68.1971 182.292V178.636C68.1971 177.95 67.5115 177.265 66.8259 177.265H62.0266H55.6276H54.0278H50.3712C49.6856 177.265 49 177.95 49 178.636V182.292Z" fill="black"/>
<path d="M89.4503 177.265C88.7647 177.265 88.0791 177.95 88.0791 178.636V182.292C88.0791 182.978 88.7647 183.664 89.4503 183.664H93.1069C93.7925 183.664 94.4781 182.978 94.4781 182.292V178.636C94.4781 177.95 93.7925 177.265 93.1069 177.265H89.4503Z" fill="black"/>
<path d="M148.185 183.895H151.842C152.527 183.895 153.213 183.21 153.213 182.524V178.867C153.213 178.182 152.527 177.496 151.842 177.496H146.814H145.443H141.786C141.101 177.496 140.415 178.182 140.415 178.867V182.524C140.415 183.21 141.101 183.895 141.786 183.895H146.814H148.185Z" fill="black"/>
<path d="M236.399 177.268H232.743C232.057 177.268 231.371 177.954 231.371 178.639V182.296C231.371 182.981 230.686 183.667 230 183.667H226.344C225.658 183.667 224.972 182.981 224.972 182.296V178.639C224.972 177.954 224.287 177.268 223.601 177.268H219.945C219.259 177.268 218.573 176.582 218.573 175.897V172.24C218.573 171.555 217.888 170.869 217.202 170.869H213.546C212.86 170.869 212.174 171.555 212.174 172.24V175.897C212.174 176.582 211.489 177.268 210.803 177.268H206.689C206.004 177.268 205.318 176.582 205.318 175.897V172.24C205.318 171.555 206.004 170.869 206.689 170.869H210.346C211.032 170.869 211.717 170.183 211.717 169.498V165.841C211.717 165.156 211.032 164.47 210.346 164.47H206.689C206.004 164.47 205.318 163.784 205.318 163.099V158.071V156.7V153.043C205.318 152.357 204.633 151.672 203.947 151.672H200.29C199.605 151.672 198.919 152.357 198.919 153.043V156.7C198.919 157.385 198.234 158.071 197.548 158.071H192.52H187.492C186.807 158.071 186.121 158.757 186.121 159.442V164.47V169.498C186.121 170.183 186.807 170.869 187.492 170.869H192.52H197.548C198.234 170.869 198.919 171.555 198.919 172.24V175.897C198.919 176.582 198.234 177.268 197.548 177.268H192.52H187.492C186.807 177.268 186.121 176.582 186.121 175.897V172.24C186.121 171.555 185.436 170.869 184.75 170.869H181.093C180.408 170.869 179.722 170.183 179.722 169.498V165.841C179.722 165.156 179.036 164.47 178.351 164.47H174.694C174.009 164.47 173.323 165.156 173.323 165.841V169.498C173.323 170.183 172.637 170.869 171.952 170.869H168.295C167.61 170.869 166.924 171.555 166.924 172.24V177.268V182.296C166.924 182.981 166.238 183.667 165.553 183.667H160.525H155.497C154.812 183.667 154.126 184.353 154.126 185.038V190.066V196.694V203.093V209.492V214.52C154.126 215.205 154.812 215.891 155.497 215.891H160.525H167.153H173.552H174.923H178.579C179.265 215.891 179.951 215.205 179.951 214.52V210.863C179.951 210.177 179.265 209.492 178.579 209.492H173.552H167.153H162.125C161.439 209.492 160.754 208.806 160.754 208.121V204.692C160.754 204.007 161.439 203.321 162.125 203.321H165.781C166.467 203.321 167.153 202.636 167.153 201.95V198.293C167.153 197.608 166.467 196.922 165.781 196.922H162.125C161.439 196.922 160.754 196.237 160.754 195.551V191.894C160.754 191.209 161.439 190.523 162.125 190.523H165.781C166.467 190.523 167.153 191.209 167.153 191.894V195.551C167.153 196.237 167.838 196.922 168.524 196.922H172.18C172.866 196.922 173.552 197.608 173.552 198.293V201.95C173.552 202.636 174.237 203.321 174.923 203.321H178.579C179.265 203.321 179.951 204.007 179.951 204.692V208.349C179.951 209.035 180.636 209.72 181.322 209.72H186.35H191.377C192.063 209.72 192.749 210.406 192.749 211.092V214.748C192.749 215.434 193.434 216.119 194.12 216.119H197.777C198.462 216.119 199.148 215.434 199.148 214.748V211.092C199.148 210.406 199.833 209.72 200.519 209.72H204.176C204.861 209.72 205.547 210.406 205.547 211.092V214.748C205.547 215.434 206.232 216.119 206.918 216.119H210.575C211.26 216.119 211.946 215.434 211.946 214.748V211.092C211.946 210.406 212.631 209.72 213.317 209.72H216.974C217.659 209.72 218.345 210.406 218.345 211.092V216.119V221.147C218.345 221.833 219.03 222.518 219.716 222.518H224.972H231.6H232.971H236.399C237.085 222.518 237.77 221.833 237.77 221.147V217.491C237.77 216.805 237.085 216.119 236.399 216.119H232.743C232.057 216.119 231.371 215.434 231.371 214.748V209.72V203.321V198.293C231.371 197.608 232.057 196.922 232.743 196.922H236.399C237.085 196.922 237.77 196.237 237.77 195.551V190.523V184.124V182.753V179.096C237.999 177.954 237.313 177.268 236.399 177.268ZM223.373 203.321H219.716C219.03 203.321 218.345 202.636 218.345 201.95V198.293C218.345 197.608 219.03 196.922 219.716 196.922H223.373C224.058 196.922 224.744 197.608 224.744 198.293V201.95C224.972 202.636 224.287 203.321 223.373 203.321ZM216.974 183.896C217.659 183.896 218.345 184.581 218.345 185.267V188.923C218.345 189.609 217.659 190.295 216.974 190.295H213.317C212.631 190.295 211.946 189.609 211.946 188.923V185.267C211.946 184.581 212.631 183.896 213.317 183.896H216.974ZM177.894 183.896C178.579 183.896 179.265 184.581 179.265 185.267V188.923C179.265 189.609 178.579 190.295 177.894 190.295H174.237C173.552 190.295 172.866 189.609 172.866 188.923V185.267C172.866 184.581 173.552 183.896 174.237 183.896H177.894ZM198.919 203.321H192.292H187.264C186.578 203.321 185.893 202.636 185.893 201.95V196.922V190.295V185.267C185.893 184.581 186.578 183.896 187.264 183.896H192.292H198.919H203.947C204.633 183.896 205.318 184.581 205.318 185.267V190.295V196.922V201.95C205.318 202.636 204.633 203.321 203.947 203.321H198.919Z" fill="black"/>
<path d="M197.32 190.295H193.663C192.978 190.295 192.292 190.981 192.292 191.666V195.323C192.292 196.008 192.978 196.694 193.663 196.694H197.32C198.005 196.694 198.691 196.008 198.691 195.323V191.666C198.92 190.981 198.234 190.295 197.32 190.295Z" fill="black"/>
<path d="M141.557 203.32H145.213C145.899 203.32 146.585 202.634 146.585 201.948V196.921V195.549V191.893C146.585 191.207 145.899 190.521 145.213 190.521H141.557C140.871 190.521 140.186 191.207 140.186 191.893V196.921V201.948C140.186 202.634 140.871 203.32 141.557 203.32Z" fill="black"/>
<path d="M192.293 217.717C192.293 217.031 191.607 216.346 190.921 216.346H187.265C186.579 216.346 185.894 217.031 185.894 217.717V221.374C185.894 222.059 186.579 222.745 187.265 222.745H190.921C191.607 222.745 192.293 222.059 192.293 221.374V217.717Z" fill="black"/>
<path d="M133.787 224.346C133.787 223.661 133.102 222.975 132.416 222.975H128.759C128.074 222.975 127.388 222.289 127.388 221.604V216.576V211.548C127.388 210.862 128.074 210.177 128.759 210.177H133.787H135.158H138.815C139.501 210.177 140.186 209.491 140.186 208.806V204.692C140.186 204.006 139.501 203.321 138.815 203.321H135.158C134.473 203.321 133.787 202.635 133.787 201.95V196.922V190.294V183.895V178.867C133.787 178.182 133.102 177.496 132.416 177.496H127.388H126.017H122.132C121.446 177.496 120.761 178.182 120.761 178.867V182.524C120.761 183.21 121.446 183.895 122.132 183.895H125.788C126.474 183.895 127.16 184.581 127.16 185.266V188.923C127.16 189.609 126.474 190.294 125.788 190.294H122.132C121.446 190.294 120.761 190.98 120.761 191.665V195.322C120.761 196.008 120.075 196.693 119.389 196.693H115.733C115.047 196.693 114.362 197.379 114.362 198.064V201.721C114.362 202.407 113.676 203.092 112.99 203.092H109.334C108.648 203.092 107.963 202.407 107.963 201.721V198.064C107.963 197.379 108.648 196.693 109.334 196.693H112.99C113.676 196.693 114.362 196.008 114.362 195.322V191.665C114.362 190.98 113.676 190.294 112.99 190.294H109.334C108.648 190.294 107.963 189.609 107.963 188.923V185.266C107.963 184.581 108.648 183.895 109.334 183.895H112.99C113.676 183.895 114.362 183.21 114.362 182.524V178.867C114.362 178.182 113.676 177.496 112.99 177.496H107.963H102.935C102.249 177.496 101.563 178.182 101.563 178.867V183.895V190.294V196.922V203.321V208.349C101.563 209.034 102.249 209.72 102.935 209.72H107.963H114.59H119.618C120.304 209.72 120.989 210.405 120.989 211.091V214.748C120.989 215.433 120.304 216.119 119.618 216.119H114.59H109.562C108.877 216.119 108.191 216.804 108.191 217.49V222.975V229.603V234.402C108.191 235.087 108.877 235.773 109.562 235.773H114.59H119.618C120.304 235.773 120.989 235.087 120.989 234.402V230.745C120.989 230.06 121.675 229.374 122.36 229.374H127.388H128.759H132.416C133.102 229.374 133.787 228.688 133.787 228.003V224.346Z" fill="black"/>
<path d="M146.813 224.343C146.813 223.658 147.498 222.972 148.184 222.972H151.841C152.526 222.972 153.212 222.287 153.212 221.601V217.944C153.212 217.259 152.526 216.573 151.841 216.573H146.813H140.185H138.814H135.157C134.472 216.573 133.786 217.259 133.786 217.944V221.601C133.786 222.287 134.472 222.972 135.157 222.972H138.814C139.5 222.972 140.185 223.658 140.185 224.343V228C140.185 228.686 140.871 229.371 141.556 229.371H145.213C145.899 229.371 146.584 228.686 146.584 228V224.343H146.813Z" fill="black"/>
<path d="M159.839 224.346C159.839 223.66 159.154 222.975 158.468 222.975H154.812C154.126 222.975 153.44 223.66 153.44 224.346V228.002C153.44 228.688 154.126 229.374 154.812 229.374H158.468C159.154 229.374 159.839 228.688 159.839 228.002V224.346Z" fill="black"/>
<path d="M177.895 222.975H174.238C173.553 222.975 172.867 223.66 172.867 224.346V228.002C172.867 228.688 173.553 229.374 174.238 229.374H177.895C178.581 229.374 179.266 228.688 179.266 228.002V224.346C179.266 223.432 178.581 222.975 177.895 222.975Z" fill="black"/>
<path d="M198.921 224.346C198.921 223.66 198.235 222.975 197.549 222.975H193.893C193.207 222.975 192.521 223.66 192.521 224.346V228.002C192.521 228.688 193.207 229.374 193.893 229.374H197.549C198.235 229.374 198.921 228.688 198.921 228.002V224.346Z" fill="black"/>
<path d="M218.347 224.346C218.347 223.66 217.661 222.975 216.975 222.975H211.948H206.691C206.006 222.975 205.32 223.66 205.32 224.346V228.002C205.32 228.688 204.634 229.374 203.949 229.374H200.292C199.607 229.374 198.921 230.059 198.921 230.745V234.401C198.921 235.087 199.607 235.773 200.292 235.773H205.32H210.348C211.033 235.773 211.719 235.087 211.719 234.401V230.745C211.719 230.059 212.405 229.374 213.09 229.374H216.747C217.432 229.374 218.118 228.688 218.118 228.002V224.346H218.347Z" fill="black"/>
<path d="M138.814 229.372H135.157C134.472 229.372 133.786 230.058 133.786 230.743V234.4C133.786 235.085 134.472 235.771 135.157 235.771H138.814C139.5 235.771 140.185 235.085 140.185 234.4V230.743C140.185 230.058 139.5 229.372 138.814 229.372Z" fill="black"/>
<path d="M151.842 229.372H148.186C147.5 229.372 146.814 230.058 146.814 230.743V234.4C146.814 235.085 147.5 235.771 148.186 235.771H151.842C152.528 235.771 153.213 235.085 153.213 234.4V230.743C153.213 230.058 152.528 229.372 151.842 229.372Z" fill="black"/>
<path d="M171.267 229.372H166.239H164.868H161.211C160.525 229.372 159.84 230.058 159.84 230.743V234.4C159.84 235.085 160.525 235.771 161.211 235.771H166.239H167.61H171.267C171.952 235.771 172.638 235.085 172.638 234.4V230.743C172.866 230.058 172.181 229.372 171.267 229.372Z" fill="black"/>
<path d="M230.002 229.372H224.974H223.603H219.946C219.261 229.372 218.575 230.058 218.575 230.743V234.4C218.575 235.085 219.261 235.771 219.946 235.771H224.974H226.345H230.002C230.688 235.771 231.373 235.085 231.373 234.4V230.743C231.373 230.058 230.688 229.372 230.002 229.372Z" fill="black"/>
<path d="M50.3712 92.7074H93.1076C93.7932 92.7074 94.4788 92.0218 94.4788 91.3362V86.3083V79.6808V73.2817V66.6542V60.0266V53.6276V48.3712C94.7074 47.6856 94.0218 47 93.1076 47H50.3712C49.6856 47 49 47.6856 49 48.3712V53.399V59.7981V66.4256V72.8247V79.2237V85.8513V90.8791C49 92.0218 49.6856 92.7074 50.3712 92.7074ZM55.6276 79.6808V73.2817V66.6542V60.0266V54.3132C55.6276 53.8561 55.8561 53.6276 56.3132 53.6276H87.3942C87.8513 53.6276 88.0798 54.0846 88.0798 54.3132V60.0266V66.6542V73.0532V79.4522V85.1657C88.0798 85.6227 87.6227 85.8513 87.3942 85.8513H56.3132C55.8561 85.8513 55.6276 85.3942 55.6276 85.1657V79.6808Z" fill="black"/>
<path d="M63.3966 79.6796H80.0798C80.7654 79.6796 81.451 78.994 81.451 78.3083V73.2805V66.653V61.3966C81.451 60.711 80.7654 60.0254 80.0798 60.0254H63.3966C62.711 60.0254 62.0254 60.711 62.0254 61.3966V66.4244V72.8235V77.8513C62.0254 78.994 62.711 79.6796 63.3966 79.6796Z" fill="black"/>
<path d="M236.4 47H193.663C192.978 47 192.292 47.6856 192.292 48.3712V53.399V59.7981V66.4256V72.8247V79.2237V85.8513V90.8791C192.292 91.5647 192.978 92.2503 193.663 92.2503H236.4C237.085 92.2503 237.771 91.5647 237.771 90.8791V85.8513V79.2237V72.8247V66.6542V60.0266V53.6276V48.3712C237.999 47.6856 237.314 47 236.4 47ZM231.372 60.0266V66.6542V73.0532V79.4522V85.1657C231.372 85.6227 230.915 85.8513 230.686 85.8513H199.605C199.148 85.8513 198.92 85.3942 198.92 85.1657V79.4522V73.0532V66.6542V60.0266V54.3132C198.92 53.8561 199.377 53.6276 199.605 53.6276H230.686C231.143 53.6276 231.372 54.0846 231.372 54.3132V60.0266Z" fill="black"/>
<path d="M223.375 60.0254H206.692C206.006 60.0254 205.32 60.711 205.32 61.3966V66.4244V72.8235V77.8513C205.32 78.5369 206.006 79.2225 206.692 79.2225H223.375C224.06 79.2225 224.746 78.5369 224.746 77.8513V72.8235V66.653V61.3966C224.974 60.711 224.289 60.0254 223.375 60.0254Z" fill="black"/>
<path d="M93.1076 190.295H50.3712C49.6856 190.295 49 190.981 49 191.666V196.694V203.093V209.492V216.12V222.976V229.603V234.403C49 235.088 49.6856 235.774 50.3712 235.774H93.1076C93.7932 235.774 94.4788 235.088 94.4788 234.403V229.375V222.976V216.577V209.949V203.55V197.151V192.123C94.7074 190.981 94.0218 190.295 93.1076 190.295ZM88.0798 203.322V209.721V216.348V222.976V228.689C88.0798 229.146 87.6227 229.375 87.3942 229.375H56.3132C55.8561 229.375 55.6276 228.918 55.6276 228.689V222.976V216.577V209.949V203.55V197.837C55.6276 197.38 56.0846 197.151 56.3132 197.151H87.3942C87.8513 197.151 88.0798 197.608 88.0798 197.837V203.322Z" fill="black"/>
<path d="M80.0798 203.32H63.3966C62.711 203.32 62.0254 204.006 62.0254 204.692V209.719V216.347V221.375C62.0254 222.289 62.711 222.974 63.3966 222.974H80.0798C80.7654 222.974 81.451 222.289 81.451 221.603V216.575V209.948V204.692C81.6796 204.006 80.994 203.32 80.0798 203.32Z" fill="black"/>
<path d="M63 39H50C45.0294 39 41 43.0294 41 48V60" stroke="black" stroke-width="2"/>
<path d="M41.5 222L41.5 235C41.5 239.971 45.5294 244 50.5 244L62.5 244" stroke="black" stroke-width="2"/>
<path d="M224 244L237 244C241.971 244 246 239.971 246 235L246 223" stroke="black" stroke-width="2"/>
<path d="M245.5 61L245.5 48C245.5 43.0294 241.471 39 236.5 39L224.5 39" stroke="black" stroke-width="2"/>
</g>
<defs>
<filter id="filter0_d" x="0" y="0" width="287" height="287" filterUnits="userSpaceOnUse" color-interpolation-filters="sRGB">
<feFlood flood-opacity="0" result="BackgroundImageFix"/>
<feColorMatrix in="SourceAlpha" type="matrix" values="0 0 0 0 0 0 0 0 0 0 0 0 0 0 0 0 0 0 127 0" result="hardAlpha"/>
<feOffset dy="2"/>
<feGaussianBlur stdDeviation="13"/>
<feComposite in2="hardAlpha" operator="out"/>
<feColorMatrix type="matrix" values="0 0 0 0 0.027451 0 0 0 0 0.901961 0 0 0 0 0.619608 0 0 0 0.32 0"/>
<feBlend mode="normal" in2="BackgroundImageFix" result="effect1_dropShadow"/>
<feBlend mode="normal" in="SourceGraphic" in2="effect1_dropShadow" result="shape"/>
</filter>
</defs>
</svg>
