<svg width="450" height="255" viewBox="0 0 450 255" fill="none" xmlns="http://www.w3.org/2000/svg">
<g filter="url(#filter0_d)">
<rect x="26" y="24" width="398" height="203" rx="4" fill="white"/>
<path d="M54.7416 66.3812L61.9085 52.149V66H63.7638V48.2097H61.9085L54.7162 62.5182L47.5238 48.2097H45.6685V66H47.5238V52.149L54.7162 66.3812H54.7416ZM72.2745 66.2796C74.2314 66.2796 75.6547 65.1359 76.0105 64.3226V66H77.637V58.5281C77.637 56.2154 75.8326 54.2838 72.859 54.2838C70.4446 54.2838 68.9452 55.58 68.2336 57.2828L69.6314 58.1977C70.1143 56.9524 71.1308 56.012 72.859 56.012C74.816 56.012 75.7817 57.1557 75.7817 58.0452C75.7817 58.7568 75.248 59.2651 74.4093 59.2651H71.6646C69.4789 59.2651 67.8269 60.5613 67.8269 62.5944C67.8269 64.6276 69.5806 66.2796 72.2745 66.2796ZM72.2745 64.5514C70.6226 64.5514 69.733 63.6619 69.733 62.5944C69.733 61.5778 70.5209 60.8408 71.69 60.8408H75.858V60.9933C75.858 63.1027 74.5364 64.5514 72.2745 64.5514ZM85.4044 59.5701L91.0464 54.5634H88.4541L83.3458 59.1889V48.2097H81.5667V66H83.3458V60.0276L89.0641 66H91.6055L85.4044 59.5701ZM98.32 66.2796C100.531 66.2796 102.488 65.1613 103.53 63.3569L102.081 62.4165C101.319 63.7127 99.8703 64.5005 98.32 64.5005C96.4647 64.5005 94.4823 63.2044 94.1774 60.8662H103.987C104.445 57.1811 101.726 54.2838 98.1929 54.2838C94.6348 54.2838 92.2459 57.054 92.2459 60.2817C92.2459 63.5348 94.8636 66.2796 98.32 66.2796ZM94.2536 59.2143C94.6602 57.4098 96.0581 56.0375 98.1929 56.0375C100.404 56.0375 101.903 57.6386 102.03 59.2143H94.2536ZM118.165 66.2796C120.122 66.2796 121.545 65.1359 121.901 64.3226V66H123.527V58.5281C123.527 56.2154 121.723 54.2838 118.749 54.2838C116.335 54.2838 114.836 55.58 114.124 57.2828L115.522 58.1977C116.005 56.9524 117.021 56.012 118.749 56.012C120.706 56.012 121.672 57.1557 121.672 58.0452C121.672 58.7568 121.138 59.2651 120.3 59.2651H117.555C115.369 59.2651 113.717 60.5613 113.717 62.5944C113.717 64.6276 115.471 66.2796 118.165 66.2796ZM118.165 64.5514C116.513 64.5514 115.623 63.6619 115.623 62.5944C115.623 61.5778 116.411 60.8408 117.58 60.8408H121.748V60.9933C121.748 63.1027 120.427 64.5514 118.165 64.5514ZM129.236 66V59.5701C129.236 57.4098 130.634 56.012 132.489 56.012C134.319 56.012 135.539 57.2574 135.539 59.2143V66H137.318V58.8331C137.318 56.2662 135.564 54.2838 132.794 54.2838C130.761 54.2838 129.49 55.4275 129.084 56.2408V54.5634H127.457V66H129.236ZM151.592 66.2796C153.397 66.2796 154.617 65.39 155.049 64.7293V66H157.285V58.706C157.285 56.3678 155.506 54.1822 152.253 54.1822C149.839 54.1822 148.263 55.4783 147.526 57.1303L149.331 58.2994C149.788 57.2065 150.703 56.3678 152.253 56.3678C154.007 56.3678 154.846 57.359 154.846 58.1215C154.846 58.7568 154.388 59.1889 153.651 59.1889H151.008C148.771 59.1889 147.145 60.485 147.145 62.5182C147.145 64.6022 148.873 66.2796 151.592 66.2796ZM151.796 64.1956C150.423 64.1956 149.661 63.4585 149.661 62.5436C149.661 61.7049 150.322 61.0696 151.287 61.0696H154.896V61.222C154.896 62.9502 153.727 64.1956 151.796 64.1956ZM166.985 54.1822C165.612 54.1822 164.265 54.6651 163.223 55.5292V54.4617H160.809V71.8708H163.223V64.9326C164.265 65.7967 165.612 66.2796 166.985 66.2796C170.416 66.2796 173.084 63.6364 173.084 60.2309C173.084 56.8507 170.416 54.1822 166.985 54.1822ZM166.883 63.9414C164.825 63.9414 163.249 62.3657 163.249 60.2309C163.249 58.096 164.825 56.5203 166.883 56.4949C168.993 56.5203 170.543 58.096 170.543 60.2309C170.543 62.3657 168.993 63.9414 166.883 63.9414ZM182.199 54.1822C180.826 54.1822 179.479 54.6651 178.437 55.5292V54.4617H176.023V71.8708H178.437V64.9326C179.479 65.7967 180.826 66.2796 182.199 66.2796C185.63 66.2796 188.298 63.6364 188.298 60.2309C188.298 56.8507 185.63 54.1822 182.199 54.1822ZM182.097 63.9414C180.039 63.9414 178.463 62.3657 178.463 60.2309C178.463 58.096 180.039 56.5203 182.097 56.4949C184.207 56.5203 185.757 58.096 185.757 60.2309C185.757 62.3657 184.207 63.9414 182.097 63.9414ZM196.727 66.2796C200.259 66.2796 202.928 63.6619 202.928 60.2309C202.928 56.7999 200.259 54.1822 196.727 54.1822C193.219 54.1822 190.526 56.7999 190.526 60.2309C190.526 63.6619 193.219 66.2796 196.727 66.2796ZM196.727 63.9414C194.617 63.9414 193.067 62.3657 193.067 60.2309C193.067 58.096 194.617 56.5203 196.727 56.4949C198.811 56.5203 200.386 58.096 200.386 60.2309C200.386 62.3657 198.811 63.9414 196.727 63.9414ZM206.948 51.7678C207.914 51.7678 208.626 51.0816 208.626 50.1667C208.626 49.2517 207.914 48.5401 206.948 48.5401C206.033 48.5401 205.296 49.2517 205.296 50.1667C205.296 51.0816 206.033 51.7678 206.948 51.7678ZM208.168 66V54.4617H205.754V66H208.168ZM214.152 66V59.4684C214.152 57.6132 215.346 56.4441 216.948 56.4441C218.574 56.4441 219.591 57.5877 219.591 59.2397V66H222.005V58.7314C222.005 56.1645 220.15 54.1822 217.43 54.1822C215.626 54.1822 214.432 55.0971 214 55.7833V54.4617H211.738V66H214.152ZM232.274 66.1525V63.916H230.901C229.808 63.916 228.792 63.3569 228.792 61.8066V56.5712H232.274V54.4617H228.792V51.6661H227.013V51.717C227.013 53.7756 225.767 54.8176 224.421 54.8176H224.344V56.5712H226.377V62.0353C226.377 64.8055 228.055 66.1525 230.596 66.1525H232.274ZM237.73 66V59.4684C237.73 57.664 238.874 56.4441 240.449 56.4441C242.076 56.4441 243.042 57.5877 243.042 59.2397V66H245.456V59.4684C245.456 57.664 246.574 56.4441 248.175 56.4441C249.802 56.4441 250.717 57.5877 250.717 59.2397V66H253.131V58.7314C253.131 56.1645 251.251 54.1822 248.455 54.1822C246.244 54.1822 245.1 55.4021 244.668 56.1137C244.033 55.0463 242.737 54.1822 240.958 54.1822C239.153 54.1822 238.01 55.0971 237.578 55.7833V54.4617H235.316V66H237.73ZM262.174 66.2796C264.436 66.2796 266.342 65.2121 267.41 63.4839L265.504 62.1878C264.843 63.2806 263.572 63.9668 262.174 63.9668C260.497 63.9668 258.896 62.874 258.566 60.9425H268.045C268.452 57.1049 265.758 54.1822 262.098 54.1822C258.438 54.1822 255.973 56.9778 255.973 60.2309C255.973 63.4839 258.591 66.2796 262.174 66.2796ZM258.642 59.0872C259.023 57.5877 260.243 56.4187 262.098 56.4187C263.979 56.4187 265.3 57.7402 265.504 59.0872H258.642ZM273.445 66V59.4684C273.445 57.6132 274.639 56.4441 276.24 56.4441C277.867 56.4441 278.883 57.5877 278.883 59.2397V66H281.298V58.7314C281.298 56.1645 279.442 54.1822 276.723 54.1822C274.919 54.1822 273.724 55.0971 273.292 55.7833V54.4617H271.03V66H273.445ZM291.566 66.1525V63.916H290.194C289.101 63.916 288.084 63.3569 288.084 61.8066V56.5712H291.566V54.4617H288.084V51.6661H286.305V51.717C286.305 53.7756 285.06 54.8176 283.713 54.8176H283.637V56.5712H285.67V62.0353C285.67 64.8055 287.347 66.1525 289.889 66.1525H291.566Z" fill="black"/>
<rect x="43" y="107" width="170" height="38" rx="3" fill="white" stroke="black" stroke-width="2"/>
<rect x="236" y="107" width="170" height="38" rx="3" fill="white" stroke="black" stroke-width="2"/>
<rect x="42" y="167" width="365" height="40" rx="4" fill="black"/>
<path d="M75.1799 131V120.648H74.5399L71.0519 122.888V124.696L73.5959 123.032V131H75.1799ZM79.5586 131L84.1666 120.76H76.9346V122.248H81.8146L77.7506 131H79.5586ZM92.1543 131.176C93.9943 131.176 94.9383 130.104 94.9383 128.888C94.9383 127.8 94.3143 126.92 92.4423 126.584C91.6903 126.456 91.2103 126.216 91.2103 125.656C91.2103 125.224 91.5783 124.872 92.2343 124.872C92.7623 124.872 93.2743 125.176 93.4343 125.72L94.6983 125.144C94.3623 124.216 93.4983 123.56 92.2183 123.56C90.6343 123.56 89.6903 124.552 89.6903 125.672C89.6903 127.192 90.9062 127.736 92.1383 127.96C92.9223 128.12 93.4023 128.376 93.4023 128.92C93.4023 129.448 92.9543 129.768 92.1703 129.768C91.5623 129.768 91.0182 129.416 90.7783 128.856L89.4503 129.464C89.8503 130.392 90.6983 131.176 92.1543 131.176ZM100.077 131.176C101.501 131.176 102.701 130.504 103.373 129.416L102.173 128.6C101.757 129.288 100.957 129.72 100.077 129.72C99.0208 129.72 98.0128 129.032 97.8048 127.816H103.773C104.029 125.4 102.333 123.56 100.029 123.56C97.7248 123.56 96.1728 125.32 96.1728 127.368C96.1728 129.416 97.8207 131.176 100.077 131.176ZM97.8528 126.648C98.0928 125.704 98.8608 124.968 100.029 124.968C101.213 124.968 102.045 125.8 102.173 126.648H97.8528ZM109.54 123.56C108.676 123.56 107.828 123.864 107.172 124.408V123.736H105.652V134.696H107.172V130.328C107.828 130.872 108.676 131.176 109.54 131.176C111.7 131.176 113.38 129.512 113.38 127.368C113.38 125.24 111.7 123.56 109.54 123.56ZM109.476 129.704C108.18 129.704 107.188 128.712 107.188 127.368C107.188 126.024 108.18 125.032 109.476 125.016C110.804 125.032 111.78 126.024 111.78 127.368C111.78 128.712 110.804 129.704 109.476 129.704ZM119.518 131.096V129.688H118.654C117.966 129.688 117.326 129.336 117.326 128.36V125.064H119.518V123.736H117.326V121.976H116.206V122.008C116.206 123.304 115.422 123.96 114.574 123.96H114.526V125.064H115.806V128.504C115.806 130.248 116.862 131.096 118.462 131.096H119.518ZM124.577 131.176C126.001 131.176 127.201 130.504 127.873 129.416L126.673 128.6C126.257 129.288 125.457 129.72 124.577 129.72C123.521 129.72 122.513 129.032 122.305 127.816H128.273C128.529 125.4 126.833 123.56 124.529 123.56C122.225 123.56 120.673 125.32 120.673 127.368C120.673 129.416 122.321 131.176 124.577 131.176ZM122.353 126.648C122.593 125.704 123.361 124.968 124.529 124.968C125.713 124.968 126.545 125.8 126.673 126.648H122.353ZM131.672 131V126.888C131.672 125.752 132.392 124.984 133.384 124.984C134.408 124.984 135.016 125.704 135.016 126.744V131H136.536V126.888C136.536 125.752 137.24 124.984 138.248 124.984C139.272 124.984 139.848 125.704 139.848 126.744V131H141.368V126.424C141.368 124.808 140.184 123.56 138.424 123.56C137.032 123.56 136.312 124.328 136.04 124.776C135.64 124.104 134.824 123.56 133.704 123.56C132.568 123.56 131.848 124.136 131.576 124.568V123.736H130.152V131H131.672ZM147.493 123.56C146.629 123.56 145.781 123.864 145.125 124.408V119.8H143.605V131H145.125V130.328C145.781 130.872 146.629 131.176 147.493 131.176C149.637 131.176 151.333 129.512 151.333 127.368C151.333 125.24 149.637 123.56 147.493 123.56ZM147.429 129.704C146.117 129.704 145.125 128.712 145.125 127.368C145.125 126.024 146.117 125.032 147.429 125.016C148.757 125.032 149.733 126.024 149.733 127.368C149.733 128.712 148.757 129.704 147.429 129.704ZM156.639 131.176C158.063 131.176 159.263 130.504 159.935 129.416L158.735 128.6C158.319 129.288 157.519 129.72 156.639 129.72C155.583 129.72 154.575 129.032 154.367 127.816H160.335C160.591 125.4 158.895 123.56 156.591 123.56C154.287 123.56 152.735 125.32 152.735 127.368C152.735 129.416 154.383 131.176 156.639 131.176ZM154.415 126.648C154.655 125.704 155.423 124.968 156.591 124.968C157.775 124.968 158.607 125.8 158.735 126.648H154.415ZM163.735 131V127.112C163.735 125.896 164.439 125.064 165.655 125.064H166.295V123.576H165.766C164.839 123.576 163.991 124.024 163.639 124.744V123.736H162.215V131H163.735Z" fill="black"/>
<path d="M46.164 100C48.516 100 50.376 98.116 50.376 95.788C50.376 93.484 48.516 91.6 46.164 91.6H43.128V100H46.164ZM44.388 92.764H45.96C47.688 92.764 49.044 93.94 49.044 95.788C49.044 97.648 47.688 98.836 45.96 98.836H44.388V92.764ZM53.606 100.132C54.458 100.132 55.034 99.712 55.238 99.4V100H56.294V96.556C56.294 95.452 55.454 94.42 53.918 94.42C52.778 94.42 52.034 95.032 51.686 95.812L52.538 96.364C52.754 95.848 53.186 95.452 53.918 95.452C54.746 95.452 55.142 95.92 55.142 96.28C55.142 96.58 54.926 96.784 54.578 96.784H53.33C52.274 96.784 51.506 97.396 51.506 98.356C51.506 99.34 52.322 100.132 53.606 100.132ZM53.702 99.148C53.054 99.148 52.694 98.8 52.694 98.368C52.694 97.972 53.006 97.672 53.462 97.672H55.166V97.744C55.166 98.56 54.614 99.148 53.702 99.148ZM61.1386 100.072V99.016H60.4906C59.9746 99.016 59.4946 98.752 59.4946 98.02V95.548H61.1386V94.552H59.4946V93.232H58.6546V93.256C58.6546 94.228 58.0666 94.72 57.4306 94.72H57.3946V95.548H58.3546V98.128C58.3546 99.436 59.1466 100.072 60.3466 100.072H61.1386ZM64.9326 100.132C66.0006 100.132 66.9006 99.628 67.4046 98.812L66.5046 98.2C66.1926 98.716 65.5926 99.04 64.9326 99.04C64.1406 99.04 63.3846 98.524 63.2286 97.612H67.7046C67.8966 95.8 66.6246 94.42 64.8966 94.42C63.1686 94.42 62.0046 95.74 62.0046 97.276C62.0046 98.812 63.2406 100.132 64.9326 100.132ZM63.2646 96.736C63.4446 96.028 64.0206 95.476 64.8966 95.476C65.7846 95.476 66.4086 96.1 66.5046 96.736H63.2646Z" fill="black"/>
<path d="M241.828 95.116H237.388V91.6H236.128V100H237.388V96.292H241.828V100H243.088V91.6H241.828V95.116ZM247.667 100.132C249.335 100.132 250.595 98.896 250.595 97.276C250.595 95.656 249.335 94.42 247.667 94.42C246.011 94.42 244.739 95.656 244.739 97.276C244.739 98.896 246.011 100.132 247.667 100.132ZM247.667 99.028C246.671 99.028 245.939 98.284 245.939 97.276C245.939 96.268 246.671 95.524 247.667 95.512C248.651 95.524 249.395 96.268 249.395 97.276C249.395 98.284 248.651 99.028 247.667 99.028ZM254.221 100.132C255.841 100.132 256.633 99.004 256.633 97.636V94.552H255.493V97.66C255.493 98.5 255.001 99.04 254.221 99.04C253.429 99.04 252.949 98.5 252.949 97.66V94.552H251.809V97.636C251.809 99.004 252.589 100.132 254.221 100.132ZM259.317 100V97.084C259.317 96.172 259.845 95.548 260.757 95.548H261.237V94.432H260.84C260.145 94.432 259.509 94.768 259.245 95.308V94.552H258.177V100H259.317Z" fill="black"/>
<path d="M271.805 131V120.648H271.165L267.677 122.888V124.696L270.221 123.032V131H271.805ZM278.024 131V120.648H277.384L273.896 122.888V124.696L276.44 123.032V131H278.024ZM281.122 126.136C281.762 126.136 282.21 125.656 282.21 125.08C282.21 124.504 281.762 124.024 281.122 124.024C280.498 124.024 280.05 124.504 280.05 125.08C280.05 125.656 280.498 126.136 281.122 126.136ZM281.122 131.16C281.762 131.16 282.21 130.68 282.21 130.104C282.21 129.512 281.762 129.032 281.122 129.032C280.498 129.032 280.05 129.512 280.05 130.104C280.05 130.68 280.498 131.16 281.122 131.16ZM287.608 131.16C289.96 131.16 291.4 129.32 291.4 125.896C291.4 122.488 289.96 120.6 287.608 120.6C285.256 120.6 283.832 122.472 283.832 125.896C283.832 129.32 285.256 131.16 287.608 131.16ZM287.608 129.64C286.2 129.64 285.464 128.44 285.464 125.896C285.464 123.352 286.2 122.12 287.608 122.12C289.016 122.12 289.768 123.352 289.768 125.896C289.768 128.44 289.016 129.64 287.608 129.64ZM296.874 131.16C299.226 131.16 300.666 129.32 300.666 125.896C300.666 122.488 299.226 120.6 296.874 120.6C294.522 120.6 293.098 122.472 293.098 125.896C293.098 129.32 294.522 131.16 296.874 131.16ZM296.874 129.64C295.466 129.64 294.73 128.44 294.73 125.896C294.73 123.352 295.466 122.12 296.874 122.12C298.282 122.12 299.034 123.352 299.034 125.896C299.034 128.44 298.282 129.64 296.874 129.64ZM311.271 127.288V125.992H306.999V127.288H311.271ZM321.758 131V120.648H321.118L317.63 122.888V124.696L320.174 123.032V131H321.758ZM329.449 127.4C330.393 126.392 331.081 125.336 331.081 124.024C331.081 122.392 329.689 120.6 327.385 120.6C325.193 120.6 323.865 122.312 323.865 123.944C323.865 124.792 324.265 125.8 324.937 126.392L325.993 125.368C325.657 125.048 325.449 124.472 325.449 124.024C325.449 123.016 326.217 122.12 327.385 122.12C328.761 122.12 329.433 123.192 329.433 124.024C329.433 125.144 328.697 126.008 327.881 126.872L324.073 131H330.985V129.528H327.465L329.449 127.4ZM333.81 126.136C334.45 126.136 334.898 125.656 334.898 125.08C334.898 124.504 334.45 124.024 333.81 124.024C333.186 124.024 332.738 124.504 332.738 125.08C332.738 125.656 333.186 126.136 333.81 126.136ZM333.81 131.16C334.45 131.16 334.898 130.68 334.898 130.104C334.898 129.512 334.45 129.032 333.81 129.032C333.186 129.032 332.738 129.512 332.738 130.104C332.738 130.68 333.186 131.16 333.81 131.16ZM340.296 131.16C342.648 131.16 344.088 129.32 344.088 125.896C344.088 122.488 342.648 120.6 340.296 120.6C337.944 120.6 336.52 122.472 336.52 125.896C336.52 129.32 337.944 131.16 340.296 131.16ZM340.296 129.64C338.888 129.64 338.152 128.44 338.152 125.896C338.152 123.352 338.888 122.12 340.296 122.12C341.704 122.12 342.456 123.352 342.456 125.896C342.456 128.44 341.704 129.64 340.296 129.64ZM349.562 131.16C351.914 131.16 353.354 129.32 353.354 125.896C353.354 122.488 351.914 120.6 349.562 120.6C347.21 120.6 345.786 122.472 345.786 125.896C345.786 129.32 347.21 131.16 349.562 131.16ZM349.562 129.64C348.154 129.64 347.418 128.44 347.418 125.896C347.418 123.352 348.154 122.12 349.562 122.12C350.97 122.12 351.722 123.352 351.722 125.896C351.722 128.44 350.97 129.64 349.562 129.64Z" fill="black"/>
<path d="M173.132 191.606L176.176 184.907V191.529H178.256V180.823H175.855L172.505 188.226L169.141 180.823H166.739V191.529H168.819V184.907L171.863 191.606H173.132ZM182.829 191.698C183.778 191.698 184.389 191.361 184.68 191.04V191.529H186.454V187.278C186.454 185.825 185.414 184.326 183.258 184.326C181.82 184.326 180.795 185.121 180.352 186.069L181.728 186.956C181.973 186.436 182.478 186.008 183.258 186.008C184.16 186.008 184.604 186.498 184.604 186.834C184.604 187.17 184.374 187.369 184.007 187.369H182.478C181.101 187.369 180.122 188.165 180.122 189.388C180.122 190.658 181.147 191.698 182.829 191.698ZM183.089 190.168C182.447 190.168 182.08 189.847 182.08 189.434C182.08 189.021 182.386 188.746 182.829 188.746H184.588V188.838C184.588 189.572 184.022 190.168 183.089 190.168ZM192.032 187.599L194.785 184.494H192.338L190.212 186.987V180.823H188.3V191.529H190.212V188.272L192.705 191.529H195.121L192.032 187.599ZM198.836 191.698C200.197 191.698 201.329 191.07 202.002 190.122L200.487 189.052C200.166 189.602 199.539 189.923 198.836 189.939C197.949 189.923 197.23 189.419 197.016 188.562H202.491C202.705 186.1 201.099 184.326 198.805 184.326C196.511 184.326 194.982 186.039 194.982 188.012C194.982 190 196.557 191.698 198.836 191.698ZM197.062 187.278C197.276 186.574 197.903 186.054 198.805 186.039C199.707 186.054 200.35 186.62 200.549 187.278H197.062ZM210.206 191.698C211.155 191.698 211.766 191.361 212.057 191.04V191.529H213.831V187.278C213.831 185.825 212.791 184.326 210.635 184.326C209.197 184.326 208.172 185.121 207.729 186.069L209.105 186.956C209.35 186.436 209.855 186.008 210.635 186.008C211.537 186.008 211.981 186.498 211.981 186.834C211.981 187.17 211.751 187.369 211.384 187.369H209.855C208.478 187.369 207.499 188.165 207.499 189.388C207.499 190.658 208.524 191.698 210.206 191.698ZM210.466 190.168C209.824 190.168 209.457 189.847 209.457 189.434C209.457 189.021 209.763 188.746 210.206 188.746H211.965V188.838C211.965 189.572 211.399 190.168 210.466 190.168ZM217.589 191.529V187.538C217.589 186.65 218.155 186.085 218.919 186.085C219.776 186.085 220.219 186.696 220.219 187.461V191.529H222.131V187.063C222.131 185.519 220.954 184.326 219.348 184.326C218.415 184.326 217.788 184.723 217.497 185.06V184.494H215.677V191.529H217.589ZM230.146 191.698C231.094 191.698 231.706 191.361 231.996 191.04V191.529H233.77V187.278C233.77 185.825 232.73 184.326 230.574 184.326C229.136 184.326 228.111 185.121 227.668 186.069L229.044 186.956C229.289 186.436 229.794 186.008 230.574 186.008C231.476 186.008 231.92 186.498 231.92 186.834C231.92 187.17 231.69 187.369 231.323 187.369H229.794C228.417 187.369 227.439 188.165 227.439 189.388C227.439 190.658 228.463 191.698 230.146 191.698ZM230.406 190.168C229.763 190.168 229.396 189.847 229.396 189.434C229.396 189.021 229.702 188.746 230.146 188.746H231.904V188.838C231.904 189.572 231.339 190.168 230.406 190.168ZM239.516 184.326C238.828 184.326 238.14 184.525 237.528 184.892V184.494H235.616V195.062H237.528V191.132C238.14 191.499 238.828 191.698 239.516 191.698C241.627 191.698 243.233 189.985 243.233 188.012C243.233 186.039 241.627 184.326 239.516 184.326ZM239.394 189.893C238.308 189.878 237.543 189.067 237.543 188.012C237.543 186.972 238.308 186.146 239.394 186.13C240.48 186.146 241.244 186.972 241.244 188.012C241.244 189.067 240.48 189.878 239.394 189.893ZM248.642 184.326C247.954 184.326 247.265 184.525 246.654 184.892V184.494H244.742V195.062H246.654V191.132C247.265 191.499 247.954 191.698 248.642 191.698C250.752 191.698 252.358 189.985 252.358 188.012C252.358 186.039 250.752 184.326 248.642 184.326ZM248.52 189.893C247.434 189.878 246.669 189.067 246.669 188.012C246.669 186.972 247.434 186.146 248.52 186.13C249.605 186.146 250.37 186.972 250.37 188.012C250.37 189.067 249.605 189.878 248.52 189.893ZM257.293 191.698C259.542 191.698 261.132 190.046 261.132 188.012C261.132 185.993 259.542 184.326 257.293 184.326C255.061 184.326 253.455 185.993 253.455 188.012C253.455 190.046 255.061 191.698 257.293 191.698ZM257.293 189.893C256.208 189.878 255.443 189.067 255.443 188.012C255.443 186.972 256.208 186.146 257.293 186.13C258.379 186.146 259.144 186.972 259.144 188.012C259.144 189.067 258.379 189.878 257.293 189.893ZM263.46 183.133C264.179 183.133 264.684 182.628 264.684 181.986C264.684 181.328 264.179 180.808 263.46 180.808C262.772 180.808 262.252 181.328 262.252 181.986C262.252 182.628 262.772 183.133 263.46 183.133ZM264.424 191.529V184.494H262.512V191.529H264.424ZM268.116 191.529V187.538C268.116 186.65 268.682 186.085 269.447 186.085C270.303 186.085 270.747 186.696 270.747 187.461V191.529H272.659V187.063C272.659 185.519 271.481 184.326 269.875 184.326C268.942 184.326 268.315 184.723 268.024 185.06V184.494H266.204V191.529H268.116ZM278.962 191.621V189.878H277.998C277.417 189.878 276.958 189.618 276.958 188.853V186.13H278.962V184.494H276.958V182.812H275.49V182.842C275.49 183.959 274.725 184.708 273.899 184.708H273.854V186.13H275.046V189.128C275.046 190.78 275.979 191.621 277.646 191.621H278.962ZM282.559 191.529V187.538C282.559 186.681 283.079 186.085 283.859 186.085C284.685 186.085 285.098 186.696 285.098 187.461V191.529H287.01V187.538C287.01 186.681 287.56 186.085 288.325 186.085C289.181 186.085 289.61 186.696 289.61 187.461V191.529H291.521V187.063C291.521 185.519 290.267 184.326 288.539 184.326C287.27 184.326 286.597 184.983 286.352 185.305C286.015 184.846 285.312 184.326 284.272 184.326C283.354 184.326 282.758 184.723 282.467 185.06V184.494H280.647V191.529H282.559ZM296.814 191.698C298.175 191.698 299.307 191.07 299.979 190.122L298.465 189.052C298.144 189.602 297.517 189.923 296.814 189.939C295.927 189.923 295.208 189.419 294.994 188.562H300.469C300.683 186.1 299.077 184.326 296.783 184.326C294.489 184.326 292.959 186.039 292.959 188.012C292.959 190 294.535 191.698 296.814 191.698ZM295.039 187.278C295.254 186.574 295.881 186.054 296.783 186.039C297.685 186.054 298.328 186.62 298.527 187.278H295.039ZM303.932 191.529V187.538C303.932 186.65 304.498 186.085 305.263 186.085C306.119 186.085 306.563 186.696 306.563 187.461V191.529H308.474V187.063C308.474 185.519 307.297 184.326 305.691 184.326C304.758 184.326 304.131 184.723 303.84 185.06V184.494H302.02V191.529H303.932ZM314.777 191.621V189.878H313.814C313.233 189.878 312.774 189.618 312.774 188.853V186.13H314.777V184.494H312.774V182.812H311.306V182.842C311.306 183.959 310.541 184.708 309.715 184.708H309.669V186.13H310.862V189.128C310.862 190.78 311.795 191.621 313.462 191.621H314.777Z" fill="white"/>
<path fill-rule="evenodd" clip-rule="evenodd" d="M390.74 129.266C390.393 128.911 389.83 128.911 389.483 129.266L387 131.805L384.517 129.266C384.17 128.911 383.607 128.911 383.26 129.266C382.913 129.621 382.913 130.197 383.26 130.552L386.371 133.734C386.719 134.089 387.281 134.089 387.629 133.734L390.74 130.552C391.087 130.197 391.087 129.621 390.74 129.266Z" fill="#12131A"/>
<path fill-rule="evenodd" clip-rule="evenodd" d="M197.74 124.266C197.393 123.911 196.83 123.911 196.483 124.266L194 126.805L191.517 124.266C191.17 123.911 190.607 123.911 190.26 124.266C189.913 124.621 189.913 125.197 190.26 125.552L193.371 128.734C193.719 129.089 194.281 129.089 194.629 128.734L197.74 125.552C198.087 125.197 198.087 124.621 197.74 124.266Z" fill="#12131A"/>
<path fill-rule="evenodd" clip-rule="evenodd" d="M140 178C140 177.448 140.448 177 141 177C141.552 177 142 177.448 142 178V179H150V178C150 177.448 150.448 177 151 177C151.552 177 152 177.448 152 178V179H153C154.657 179 156 180.343 156 182V194C156 195.657 154.657 197 153 197H139C137.343 197 136 195.657 136 194V182C136 180.343 137.343 179 139 179H140V178Z" fill="white"/>
<path fill-rule="evenodd" clip-rule="evenodd" d="M144 187C143.448 187 143 187.448 143 188C143 188.552 143.448 189 144 189H151C151.552 189 152 188.552 152 188C152 187.448 151.552 187 151 187H144ZM141 191C140.448 191 140 191.448 140 192C140 192.552 140.448 193 141 193H147C147.552 193 148 192.552 148 192C148 191.448 147.552 191 147 191H141Z" fill="black"/>
</g>
<defs>
<filter id="filter0_d" x="0" y="0" width="450" height="255" filterUnits="userSpaceOnUse" color-interpolation-filters="sRGB">
<feFlood flood-opacity="0" result="BackgroundImageFix"/>
<feColorMatrix in="SourceAlpha" type="matrix" values="0 0 0 0 0 0 0 0 0 0 0 0 0 0 0 0 0 0 127 0" result="hardAlpha"/>
<feOffset dy="2"/>
<feGaussianBlur stdDeviation="13"/>
<feComposite in2="hardAlpha" operator="out"/>
<feColorMatrix type="matrix" values="0 0 0 0 0.027451 0 0 0 0 0.901961 0 0 0 0 0.619608 0 0 0 0.32 0"/>
<feBlend mode="normal" in2="BackgroundImageFix" result="effect1_dropShadow"/>
<feBlend mode="normal" in="SourceGraphic" in2="effect1_dropShadow" result="shape"/>
</filter>
</defs>
</svg>
