<svg width="30" height="30" viewBox="0 0 30 30" fill="none" xmlns="http://www.w3.org/2000/svg">
<g clip-path="url(#clip0_213_9218)">
<path d="M15 30C23.2843 30 30 23.2843 30 15C30 6.71573 23.2843 0 15 0C6.71573 0 0 6.71573 0 15C0 23.2843 6.71573 30 15 30Z" fill="#3B5998"/>
<path d="M18.7711 15.5873H16.0945V25.393H12.0393V15.5873H10.1106V12.1412H12.0393V9.91119C12.0393 8.31648 12.7968 5.81934 16.1306 5.81934L19.1344 5.8319V9.17694H16.955C16.5975 9.17694 16.0948 9.35556 16.0948 10.1163V12.1444H19.1254L18.7711 15.5873Z" fill="white"/>
</g>
<defs>
<clipPath id="clip0_213_9218">
<rect width="30" height="30" fill="white"/>
</clipPath>
</defs>
</svg>
