<svg width="30" height="30" viewBox="0 0 30 30" fill="none" xmlns="http://www.w3.org/2000/svg">
<g clip-path="url(#clip0_213_9322)">
<path d="M30.0007 15C30.0007 23.284 23.2847 30 15 30H14.9719C6.70051 29.9845 0 23.2729 0 15C0 6.72712 6.70051 0.0147849 14.9719 0H15C23.2847 0 30.0007 6.71381 30.0007 15Z" fill="black"/>
<path d="M14.9719 0V30C6.70051 29.9845 0 23.2729 0 15C0 6.72712 6.70051 0.0147849 14.9719 0Z" fill="#0C0C0C"/>
<path d="M23.1621 10.8476L23.1436 13.9207C22.5447 13.9134 21.949 13.8334 21.3694 13.6826C20.4752 13.4491 19.6319 13.0523 18.8818 12.5124C18.8818 12.8266 18.8863 13.2953 18.8863 13.8652C18.8863 14.6237 18.8863 15.0547 18.8818 15.5123C18.8685 18.3391 18.9388 18.8862 18.6904 20.0039C18.6387 20.2735 18.568 20.539 18.4789 20.7986C18.0014 22.1292 16.9605 23.1952 15.8997 23.7622C15.6037 23.9196 15.293 24.0476 14.972 24.1444C12.9671 24.7521 10.5579 24.2183 9.31453 22.7399L9.3064 22.731L9.29679 22.7184C8.24041 21.444 8.00977 19.4569 7.98759 18.9483C7.98759 18.8832 7.98316 18.8196 7.98316 18.8196C7.96688 18.1249 8.06682 17.4323 8.27885 16.7705C8.49323 16.0859 9.19921 14.657 10.7849 13.7891C11.7738 13.2564 12.9026 13.0404 14.0183 13.1703L13.9821 16.2803C13.9193 16.2641 12.4001 15.9041 11.4029 16.939C10.4995 17.8764 10.5579 19.3866 11.1989 20.242C11.2329 20.2878 11.2691 20.3321 11.3068 20.3735C11.6653 20.7735 12.12 20.9235 12.4268 21.0285C12.8335 21.1625 13.2605 21.2251 13.6886 21.2133C14.1473 21.2062 14.5935 21.0628 14.9705 20.8016C16.0128 20.0934 16.1533 18.8322 16.1585 18.7605C16.1456 14.7006 16.1336 10.6407 16.1222 6.58072V6.57703L18.0761 6.54228H18.1078L18.391 6.53711C18.5997 7.28844 18.9536 7.99163 19.4326 8.60699C19.5835 8.79947 19.7464 8.98218 19.9205 9.15403C20.578 9.79398 21.3678 10.282 22.2343 10.5837H22.2402C22.5408 10.6936 22.8489 10.7818 23.1621 10.8476Z" fill="#FD2854"/>
<path d="M22.2785 12.2383H22.2726C21.2204 12.4069 20.1433 12.3251 19.1286 11.9995C18.4201 11.7692 17.755 11.4221 17.1607 10.9727C17.5171 13.1265 17.5171 15.3243 17.1607 17.4781C16.7386 20.0092 16.474 21.5957 15.0613 22.6106C15.0317 22.6321 15.0014 22.6535 14.9711 22.6735C13.0202 23.9945 10.2946 23.3388 9.29593 22.7171L9.28114 22.7082L9.25305 22.6905C8.92386 22.4724 8.61507 22.225 8.33048 21.9512C7.82031 21.4564 7.41321 20.8653 7.13268 20.2123C6.85214 19.5592 6.70373 18.8571 6.69601 18.1463C6.67702 17.4102 6.79923 16.6772 7.05602 15.987C7.22235 15.5435 7.84036 13.9659 9.56206 13.0056C10.6645 12.4011 11.9384 12.1855 13.1784 12.3935C13.1735 12.64 13.1688 12.8864 13.1644 13.1328V13.138L13.1356 14.6978C12.596 14.5706 12.0382 14.5396 11.4878 14.6061C11.0442 14.6608 10.6096 14.7118 10.1475 15.0023C9.55581 15.3832 9.137 15.9809 8.98101 16.6671C8.88229 16.9995 8.86205 17.3502 8.92187 17.6917C8.93961 17.7893 9.06972 18.4672 9.61676 18.9536C9.80083 19.117 9.87919 19.1236 10.1475 19.3742C10.3841 19.596 10.4432 19.7025 10.6598 19.8865C10.6598 19.8865 10.7131 19.9316 10.8003 19.9952C10.8059 20 10.8118 20.0045 10.818 20.0085C10.9373 20.0957 11.0626 20.1745 11.1928 20.2443C11.7347 20.5282 12.7046 20.5585 13.4157 20.2133C14.3997 19.735 14.9364 18.635 14.9341 17.9815C14.9223 13.9201 14.9102 9.85893 14.8979 5.79802H14.9659L17.9835 5.78027C17.9814 6.01565 18.014 6.25006 18.0804 6.4759C18.0878 6.5003 18.0952 6.52321 18.1033 6.54983C18.1114 6.57644 18.1166 6.58901 18.1232 6.60749C18.1701 6.73034 18.2241 6.85031 18.2851 6.96676L18.3273 7.05177V7.05843C18.3266 7.06034 18.3266 7.06243 18.3273 7.06434L18.3339 7.07839L18.3406 7.09169C18.3446 7.10029 18.349 7.10868 18.3539 7.11683C18.3583 7.12644 18.3635 7.13605 18.3687 7.14566C18.3968 7.19962 18.4352 7.27059 18.4788 7.35043C18.5062 7.39996 18.535 7.44949 18.5646 7.49828L18.5964 7.55076C18.6119 7.57738 18.6281 7.60399 18.6444 7.62986L18.7035 7.72375C18.9335 8.08671 19.3371 8.69807 19.9093 9.1601C20.7136 9.80915 21.6376 9.99248 22.2172 10.0472C22.2209 10.229 22.2253 10.4109 22.229 10.5928C22.2507 11.1418 22.2672 11.6903 22.2785 12.2383Z" fill="#24F6FA"/>
<path d="M22.2881 13.1069C20.7649 13.1628 19.2693 12.6892 18.0559 11.7667V18.272C18.0411 18.5212 17.8231 21.2689 15.3407 22.7814C15.218 22.8553 15.0945 22.9241 14.9711 22.9877C12.6358 24.1793 10.3537 23.2457 10.1283 23.1488C9.90408 23.0755 9.68923 22.9763 9.48808 22.8531C9.42525 22.8139 9.36389 22.7733 9.30549 22.7311L9.25301 22.692C7.73016 21.5358 7.66733 19.1806 7.65772 18.8331C7.64144 18.1383 7.74139 17.4457 7.95341 16.7839C8.20476 15.9818 8.95509 14.6298 10.4595 13.8026C11.2895 13.3508 12.2224 13.1216 13.1673 13.1372V13.1424C13.155 13.9235 13.1427 14.7049 13.1303 15.4866C12.9714 15.4437 11.9971 15.1982 11.0449 15.7978C10.4532 16.1787 10.0344 16.7763 9.8784 17.4626C9.78507 17.7956 9.7649 18.1449 9.81927 18.4864C9.90368 18.9081 10.1027 19.2985 10.3944 19.6145C10.517 19.7557 10.654 19.8838 10.8032 19.9967C10.8088 20.0015 10.8147 20.006 10.8209 20.01C10.9381 20.1004 11.0636 20.1793 11.1957 20.2458L11.2002 20.2495C11.4643 20.6484 11.8454 20.9559 12.2911 21.1298C12.7368 21.3037 13.2254 21.3355 13.6899 21.2209C13.9064 21.1757 14.1166 21.1047 14.3161 21.0094C14.5577 20.8945 14.7792 20.7412 14.9718 20.5555C15.7199 19.8363 15.8293 18.8412 15.8345 18.7814L15.802 6.59197L16.1272 6.58532L18.0811 6.54688H18.1091C18.1165 6.5661 18.1247 6.58532 18.1328 6.60454C18.1779 6.7132 18.2319 6.8337 18.2947 6.96381L18.3368 7.04882V7.05548C18.3362 7.05739 18.3362 7.05948 18.3368 7.06139L18.3435 7.07543L18.3501 7.08874C18.3541 7.09734 18.3586 7.10573 18.3634 7.11388C18.3679 7.12349 18.3731 7.1331 18.3782 7.14271C18.4122 7.20924 18.4522 7.27799 18.4884 7.34748C18.5157 7.39701 18.5446 7.44654 18.5741 7.49533L18.6059 7.54781L18.654 7.62691L18.7131 7.72079C19.0513 8.24967 19.4565 8.73247 19.9188 9.15715C20.5935 9.77481 21.3784 10.2598 22.2326 10.5868H22.2386C22.2482 11.1346 22.2578 11.6839 22.2667 12.2317L22.2881 13.1069Z" fill="white"/>
<path opacity="0.17" d="M23.162 10.8478L23.1435 13.9208C22.5447 13.9135 21.9489 13.8336 21.3693 13.6828C20.4752 13.4492 19.6318 13.0525 18.8818 12.5126C18.8818 12.8267 18.8862 13.2954 18.8862 13.8654C18.8862 14.6238 18.8862 15.0548 18.8818 15.5124C18.8685 18.3393 18.9387 18.8863 18.6903 20.0041C18.6386 20.2736 18.568 20.5392 18.4789 20.7988C18.0013 22.1294 16.9605 23.1954 15.8997 23.7624C15.6036 23.9198 15.2929 24.0478 14.9719 24.1446V5.79802L17.9895 5.78027C17.9874 6.01565 18.02 6.25006 18.0864 6.4759C18.0938 6.5003 18.1011 6.52321 18.1093 6.54983L18.3924 6.54465C18.6012 7.29598 18.955 7.99917 19.434 8.61453C19.5849 8.80701 19.7479 8.98972 19.9219 9.16158C20.7262 9.81063 21.6503 9.99396 22.2298 10.0487C22.2335 10.2305 22.238 10.4124 22.2416 10.5942C22.542 10.7005 22.8496 10.7852 23.162 10.8478Z" fill="black"/>
</g>
<defs>
<clipPath id="clip0_213_9322">
<rect width="30" height="30" fill="white"/>
</clipPath>
</defs>
</svg>
