<svg width="30" height="30" viewBox="0 0 30 30" fill="none" xmlns="http://www.w3.org/2000/svg">
<path d="M28.1438 7.52246C26.4317 7.52246 24.852 6.95527 23.5834 5.99844C22.1285 4.90156 21.0832 3.29258 20.7141 1.43809C20.6227 0.979883 20.5735 0.507031 20.5688 0.0224609H15.6779V13.3865L15.6721 20.7066C15.6721 22.6637 14.3977 24.323 12.6311 24.9066C12.1184 25.076 11.5647 25.1562 10.9881 25.1246C10.2522 25.0842 9.56251 24.8621 8.9631 24.5035C7.68751 23.7406 6.82267 22.3566 6.79923 20.7734C6.76232 18.299 8.76271 16.2816 11.2354 16.2816C11.7235 16.2816 12.1922 16.3613 12.6311 16.5061V12.8533V11.5402C12.1682 11.4717 11.6971 11.4359 11.2207 11.4359C8.51427 11.4359 5.98302 12.5609 4.17365 14.5877C2.80607 16.1193 1.98575 18.0734 1.85919 20.1225C1.69337 22.8143 2.67833 25.373 4.58849 27.2609C4.86915 27.5381 5.16388 27.7953 5.47208 28.0326C7.10978 29.293 9.11193 29.9762 11.2207 29.9762C11.6971 29.9762 12.1682 29.941 12.6311 29.8725C14.601 29.5807 16.4186 28.6789 17.8529 27.2609C19.6154 25.5189 20.5893 23.2062 20.5998 20.7447L20.5746 9.81348C21.4154 10.4621 22.3348 10.9988 23.3215 11.4154C24.8561 12.0629 26.4832 12.391 28.1578 12.3904V8.83906V7.52129C28.159 7.52246 28.1449 7.52246 28.1438 7.52246Z" fill="#242424" fill-opacity="0.4"/>
</svg>
