<svg width="24" height="24" viewBox="0 0 24 24" fill="none" xmlns="http://www.w3.org/2000/svg">
<path opacity="0.25" d="M21.0002 7.5C21.5002 15 16.0002 21 9.00019 21C6.58828 21 4.17638 20.6768 2.28413 19.7706C1.85075 19.5631 2.02015 18.985 2.4996 18.9532C4.82969 18.7987 6.7579 18.2423 8.00019 17C11.0003 14 11.5002 13 12.2648 9.02396C12.0935 8.54804 12.0002 8.03492 12.0002 7.5C12.0002 5.01472 14.0149 3 16.5002 3C18.0184 3 19.361 3.75182 20.176 4.90346L21.8931 4.65815C22.321 4.59703 22.6196 5.07087 22.3799 5.43047L21.0002 7.5Z" fill="#12131A"/>
<path d="M7.99973 17.0004C2.58334 15.1949 1.64904 8.49988 2.62202 5.00757C2.73627 4.5975 3.2694 4.59536 3.48428 4.96283C5.14577 7.80408 8.30494 9.3904 12.2643 9.02434C18.4998 9.02434 16.9998 20.0004 7.99973 17.0004Z" fill="#12131A"/>
</svg>
