<svg width="20" height="20" viewBox="0 0 20 20" fill="none" xmlns="http://www.w3.org/2000/svg">
<path d="M16 0H4C1.79086 0 0 1.79086 0 4V16C0 18.2091 1.79086 20 4 20H16C18.2091 20 20 18.2091 20 16V4C20 1.79086 18.2091 0 16 0Z" fill="#99D98C"/>
<path d="M10 15C12.7614 15 15 12.7614 15 10C15 7.23858 12.7614 5 10 5C7.23858 5 5 7.23858 5 10C5 12.7614 7.23858 15 10 15Z" fill="white"/>
<path d="M8.34365 14.8263C8.22302 14.7813 8.16025 14.6495 8.19467 14.5247L9.62399 9.34183C9.69955 9.06776 9.98136 8.90734 10.2534 8.98346C10.5255 9.05958 10.6847 9.34342 10.6092 9.61743L10.0712 11.5684C10.7108 11.7049 11.1593 11.5882 11.4597 11.3882C11.8395 11.1353 12.0835 10.6825 12.1446 10.1449C12.2058 9.60668 12.075 9.04201 11.7761 8.62375C11.4881 8.22081 11.0333 7.93473 10.3722 7.93473C9.39014 7.93473 8.80556 8.3628 8.52038 8.88941C8.22354 9.43756 8.21399 10.16 8.52883 10.7943C8.6551 11.0487 8.55273 11.358 8.30018 11.4852C8.04763 11.6124 7.74053 11.5093 7.61426 11.2549C7.16222 10.3442 7.15267 9.26421 7.62272 8.39621C8.10444 7.50665 9.05366 6.90479 10.3722 6.90479C11.3727 6.90479 12.1321 7.35897 12.606 8.02207C13.0689 8.66989 13.2475 9.49704 13.1605 10.262C13.0735 11.0275 12.7118 11.7891 12.0235 12.2474C11.4361 12.6385 10.6796 12.7636 9.7972 12.5619L9.17592 14.8147C9.14008 14.9446 9.01072 15.0254 8.88084 14.9929C8.69769 14.9471 8.51842 14.8914 8.34365 14.8263Z" fill="#99D98C"/>
</svg>
