<svg width="20" height="20" viewBox="0 0 20 20" fill="none" xmlns="http://www.w3.org/2000/svg">
<path d="M0 3C0 1.34315 1.34315 0 3 0H17C18.6569 0 20 1.34315 20 3V17C20 18.6569 18.6569 20 17 20H3C1.34315 20 0 18.6569 0 17V3Z" fill="#99D98C"/>
<path d="M12 5C12 4.44772 11.5523 4 11 4C10.4477 4 10 4.44772 10 5V12.5C10 13.3284 9.3284 14 8.5 14C7.67157 14 7 13.3284 7 12.5C7 11.8125 7.56207 11.1095 8.1989 10.9802C8.7402 10.8703 9.0899 10.3425 8.98 9.8013C8.8701 9.26 8.3423 8.9103 7.80107 9.0202C6.1731 9.3506 5 10.9227 5 12.5C5 14.433 6.567 16 8.5 16C10.4319 16 11.9982 14.4347 12 12.5032V12.5V8.4649C12.5883 8.8052 13.2714 9 14 9C14.5523 9 15 8.5523 15 8C15 7.44771 14.5523 7 14 7C12.8954 7 12 6.10457 12 5Z" fill="white"/>
</svg>
