<svg width="20" height="20" viewBox="0 0 20 20" fill="none" xmlns="http://www.w3.org/2000/svg">
<g clip-path="url(#clip0_5:2610)">
<path d="M18.6759 15.3213L17.0885 16.9087C17.0885 16.9087 12.9637 18.6764 7.07114 12.7839C1.17858 6.89134 2.94635 2.76655 2.94635 2.76655L4.5338 1.17911C5.25097 0.461927 6.43709 0.546224 7.04564 1.35762L8.5609 3.37792C9.05849 4.04146 8.99257 4.96995 8.40607 5.55644L7.07114 6.89134C7.07114 6.89134 7.07114 8.06986 9.42815 10.4269C11.7852 12.7839 12.9637 12.7839 12.9637 12.7839L14.2986 11.449C14.8851 10.8625 15.8136 10.7965 16.4772 11.2942L18.4974 12.8094C19.3088 13.4179 19.3931 14.604 18.6759 15.3213Z" stroke="#76C893" stroke-width="1.5"/>
</g>
<defs>
<clipPath id="clip0_5:2610">
<rect width="20" height="20" fill="white"/>
</clipPath>
</defs>
</svg>
