<svg width="20" height="20" viewBox="0 0 20 20" fill="none" xmlns="http://www.w3.org/2000/svg">
<path d="M19.25 10C19.25 15.1086 15.1086 19.25 10 19.25C4.89137 19.25 0.75 15.1086 0.75 10C0.75 4.89137 4.89137 0.75 10 0.75C15.1086 0.75 19.25 4.89137 19.25 10Z" stroke="#76C893" stroke-width="1.5"/>
<path d="M0.623949 8.46035C0.62395 8.46035 0.62395 8.46035 0.62395 8.46035L0.616124 8.45907L0.602065 7.97711L0.623949 8.46035ZM0.623949 8.46035L0.616124 8.45908L0.616605 8.47555C0.617574 8.47455 0.618859 8.473 0.620171 8.47072C0.622128 8.46733 0.623426 8.46356 0.623949 8.46035ZM0.616599 8.47555L0.616118 8.45908L0.130643 8.37999L0.616118 8.45907L0.616599 8.47555ZM0.616599 8.47555C0.616223 8.47594 0.615895 8.47623 0.615632 8.47646C0.614946 8.47704 0.614574 8.47721 0.614576 8.47721C0.614578 8.47722 0.615222 8.47694 0.616644 8.47689L0.616599 8.47555ZM12.1615 12.2036L11.9665 11.6952L11.4766 11.9327C9.43465 12.9228 7.19192 14.6122 4.19669 17.5218C3.93155 17.3169 3.67748 17.0983 3.43558 16.867C6.53665 13.847 8.90823 12.0493 11.1312 10.9894L11.5768 10.7769L11.3701 10.3287C11.0595 9.65526 10.7247 8.99173 10.3658 8.3349L10.1687 7.97423L9.7767 8.09778C7.15248 8.92492 4.1631 9.38295 0.513894 9.48016C0.532189 9.14055 0.568298 8.80573 0.621291 8.47676C3.93029 8.37997 6.65081 7.97887 9.02985 7.27991L9.6614 7.09436L9.31324 6.53572C8.26983 4.86157 7.0647 3.21134 5.69774 1.52731C6.0044 1.37127 6.32063 1.2314 6.6453 1.10883C8.07133 2.88022 9.32298 4.62076 10.4002 6.39453L10.6192 6.755L11.0114 6.59997C13.0876 5.77933 14.9372 4.69026 16.7614 3.32644C16.9964 3.56454 17.2189 3.81495 17.4279 4.07662C15.5986 5.45127 13.7311 6.56929 11.6398 7.42505L11.1268 7.63501L11.3884 8.12377C11.7207 8.74465 12.0325 9.37201 12.3235 10.0084L12.5075 10.4107L12.9292 10.2771C14.9863 9.62537 17.0237 9.51896 19.4872 9.50263C19.4956 9.66717 19.4999 9.83291 19.4999 9.99976C19.4999 10.1688 19.4955 10.3368 19.4868 10.5034C17.127 10.5207 15.2651 10.6162 13.4127 11.174L12.8969 11.3293L13.0901 11.8321C13.8533 13.8185 14.4275 15.9148 14.8093 18.1942C14.508 18.3715 14.196 18.5326 13.8747 18.6763C13.5078 16.3581 12.9382 14.228 12.1615 12.2036ZM4.21104 17.5329L4.211 17.5328L4.21104 17.5329ZM14.8109 18.2038C14.8108 18.203 14.8107 18.2008 14.8121 18.1977C14.8137 18.1943 14.8173 18.1896 14.8227 18.1863L14.8228 18.1863L14.8109 18.2038ZM5.67101 1.54097L5.67101 1.54096L5.67101 1.54097ZM16.7495 3.31445L16.7496 3.31448L16.7495 3.31445ZM17.443 4.06523C17.443 4.06524 17.443 4.06525 17.443 4.06526L17.459 4.08658L17.459 4.08661L17.7433 4.46432L17.4591 4.08658L17.459 4.08654L17.443 4.06523ZM5.44301 1.09639L5.44299 1.09634L5.44301 1.09639ZM5.44284 1.09606L5.44287 1.09611L5.44284 1.09606Z" fill="#76C893" stroke="#76C893"/>
</svg>
