<svg width="32" height="32" viewBox="0 0 32 32" fill="none" xmlns="http://www.w3.org/2000/svg">
<path d="M9.3335 12.0002C9.3335 10.5274 10.5274 9.3335 12.0002 9.3335C13.4729 9.3335 14.6668 10.5274 14.6668 12.0002C14.6668 13.473 13.4729 14.6669 12.0002 14.6669C10.5274 14.6669 9.3335 13.473 9.3335 12.0002Z" fill="white"/>
<path fill-rule="evenodd" clip-rule="evenodd" d="M1.56562 24.5249C1.27119 24.7981 0.7905 24.6723 0.698125 24.2813C0.189188 22.1274 0 19.4106 0 16C0 2.824 2.824 0 16 0C29.176 0 32 2.824 32 16C32 16.044 32 16.0879 31.9999 16.1318C31.9999 16.1367 31.9948 16.1399 31.9902 16.1379C31.1477 15.754 29.9522 15.3058 28.5586 15.0668C25.7341 14.5826 22.0485 14.9675 18.9965 18.4554C16.3867 21.4381 15.2614 21.6754 14.4178 21.6218C13.9661 21.5931 13.5338 21.4794 12.8996 21.3126C12.7081 21.2622 12.4983 21.2069 12.2639 21.1478C11.3133 20.9078 10.1531 20.6667 8.66663 20.6667C7.50587 20.6667 6.35513 21.1203 5.36625 21.6659C4.35612 22.2232 3.3865 22.9489 2.55775 23.6468C2.20412 23.9447 1.871 24.2418 1.56562 24.5249ZM6.66669 12C6.66669 9.0545 9.0545 6.66669 12 6.66669C14.9456 6.66669 17.3333 9.0545 17.3333 12C17.3333 14.9454 14.9456 17.3333 12 17.3333C9.0545 17.3333 6.66669 14.9454 6.66669 12Z" fill="url(#paint0_linear_16_2706)"/>
<path d="M2.38775 27.4461C2.21518 27.6227 2.18931 27.8967 2.33512 28.0957C4.556 31.1289 8.68081 32.0002 15.9999 32.0002C28.0546 32.0002 31.4443 29.6364 31.9339 19.1437C31.9347 19.1265 31.9262 19.1095 31.9116 19.1005L31.8912 19.0881C31.8484 19.0621 31.7802 19.0217 31.6889 18.9705C31.506 18.8678 31.232 18.723 30.8848 18.5647C30.1857 18.2462 29.2146 17.885 28.1081 17.6953C25.9325 17.3224 23.2849 17.6042 21.0034 20.2115C18.28 23.3242 16.4053 24.4202 14.2489 24.2833C13.5114 24.2365 12.7525 24.0347 12.0761 23.855C11.916 23.8125 11.7605 23.7712 11.6111 23.7334C10.7699 23.521 9.84681 23.3335 8.66662 23.3335C8.16075 23.3335 7.47812 23.5466 6.6545 24.001C5.85212 24.4437 5.03006 25.0512 4.2755 25.6867C3.52556 26.3184 2.86993 26.9537 2.40056 27.433C2.39631 27.4374 2.392 27.4419 2.38775 27.4461Z" fill="#F28C01"/>
<defs>
<linearGradient id="paint0_linear_16_2706" x1="16" y1="0" x2="16" y2="26.5" gradientUnits="userSpaceOnUse">
<stop stop-color="#F7B701"/>
<stop offset="1" stop-color="#F18C01"/>
</linearGradient>
</defs>
</svg>
