<svg width="22" height="18" viewBox="0 0 22 18" fill="none" xmlns="http://www.w3.org/2000/svg">
<path d="M12 3L11.4104 2.01732C10.8306 1.05094 9.87021 0.368353 8.75227 0.225846C7.83875 0.109395 6.66937 0 5.5 0C4.68392 0 3.86784 0.0532787 3.13873 0.125052C1.53169 0.283247 0.319474 1.53621 0.19597 3.14628C0.0913573 4.51009 0 6.43529 0 9C0 10.8205 0.0662874 12.4422 0.150591 13.7685C0.291559 15.9862 2.01613 17.6935 4.23467 17.8214C5.91963 17.9185 8.17474 18 11 18C13.8253 18 16.0804 17.9185 17.7653 17.8214C19.9839 17.6935 21.7084 15.9862 21.8494 13.7685C21.9337 12.4422 22 10.8205 22 9C22 7.95886 21.9398 6.97795 21.8611 6.14085C21.7101 4.53313 20.4669 3.2899 18.8591 3.13886C18.0221 3.06022 17.0411 3 16 3H12Z" fill="white"/>
<path fill-rule="evenodd" clip-rule="evenodd" d="M12.0002 3H0.210449C0.393936 1.46081 1.58086 0.278423 3.13889 0.125052C3.86801 0.0532787 4.68408 0 5.50016 0C6.66954 0 7.83891 0.109395 8.75244 0.225846C9.87037 0.368353 10.8307 1.05094 11.4106 2.01732L12.0002 3Z" fill="#12131A"/>
</svg>
