<svg width="20" height="20" viewBox="0 0 20 20" fill="none" xmlns="http://www.w3.org/2000/svg">
<path d="M8.85915 0.138862C10.4669 0.289902 11.6733 1.5372 11.7908 3.14773C11.9008 4.65683 12 6.882 12 10C12 13.118 11.9008 15.3432 11.7908 16.8523C11.6733 18.4628 10.4669 19.7101 8.85915 19.8611C8.02205 19.9398 7.04113 20 6 20C4.95886 20 3.97795 19.9398 3.14085 19.8611C1.53312 19.7101 0.326659 18.4628 0.209233 16.8523C0.0992015 15.3432 -1.52708e-06 13.118 -1.39079e-06 10C-1.2545e-06 6.882 0.0992029 4.65682 0.209234 3.14773C0.326661 1.5372 1.53313 0.289901 3.14085 0.138862C3.97795 0.0602197 4.95886 -3.53287e-07 6 -2.62268e-07C7.04114 -1.71249e-07 8.02205 0.0602201 8.85915 0.138862Z" fill="white"/>
<path fill-rule="evenodd" clip-rule="evenodd" d="M14.7929 7.20711C14.4024 6.81658 14.4024 6.18342 14.7929 5.79289C15.1834 5.40237 15.8166 5.40237 16.2071 5.79289L19.7071 9.29289C20.0976 9.68342 20.0976 10.3166 19.7071 10.7071L16.2071 14.2071C15.8166 14.5976 15.1834 14.5976 14.7929 14.2071C14.4024 13.8166 14.4024 13.1834 14.7929 12.7929L16.5858 11L7 11C6.44772 11 6 10.5523 6 10C6 9.44771 6.44772 9 7 9L16.5858 9L14.7929 7.20711Z" fill="#12131A"/>
</svg>
